<?xml version="1.0" encoding="UTF-8" standalone="no"?>
<!-- Created with Inkscape (http://www.inkscape.org/) -->

<svg
   width="250mm"
   height="180mm"
   viewBox="0 0 250 179.99999"
   version="1.1"
   id="svg1"
   xml:space="preserve"
   inkscape:version="1.4 (e7c3feb100, 2024-10-09)"
   sodipodi:docname="alex-cabal-signature.svg"
   inkscape:export-filename="alex-cabal-signature.png"
   inkscape:export-xdpi="25.400002"
   inkscape:export-ydpi="25.400002"
   xmlns:inkscape="http://www.inkscape.org/namespaces/inkscape"
   xmlns:sodipodi="http://sodipodi.sourceforge.net/DTD/sodipodi-0.dtd"
   xmlns="http://www.w3.org/2000/svg"
   xmlns:svg="http://www.w3.org/2000/svg"><sodipodi:namedview
     id="namedview1"
     pagecolor="#ffffff"
     bordercolor="#000000"
     borderopacity="0.25"
     inkscape:showpageshadow="2"
     inkscape:pageopacity="0.0"
     inkscape:pagecheckerboard="false"
     inkscape:deskcolor="#d1d1d1"
     inkscape:document-units="mm"
     inkscape:zoom="0.36031892"
     inkscape:cx="235.90213"
     inkscape:cy="699.38043"
     inkscape:window-width="2560"
     inkscape:window-height="1355"
     inkscape:window-x="0"
     inkscape:window-y="0"
     inkscape:window-maximized="1"
     inkscape:current-layer="layer1" /><defs
     id="defs1" /><g
     inkscape:label="Layer 1"
     inkscape:groupmode="layer"
     id="layer1"
     transform="translate(-262.23929,218.41384)"><path
       style="fill:#000000;stroke-width:0.901732"
       d="m 415.54474,-38.413843 c 0.91067,-4.605265 5.45419,-8.348757 8.98168,-11.376023 3.77807,-5.525225 8.52817,-10.362104 12.79624,-14.980298 3.18546,-3.494844 6.8637,-7.029133 10.19929,-10.424138 3.88767,-5.789051 11.49043,-9.148776 13.80524,-16.028306 0.86633,-3.343531 -4.61407,-4.744811 -4.47204,-8.890912 0.16902,-5.20877 -0.35715,-13.35488 -5.99091,-5.04512 -3.00095,4.31945 -7.38375,5.13163 -11.50095,7.67829 -3.23091,2.32375 -6.60605,3.327414 -10.63406,4.567482 -6.73521,1.499818 -14.6015,2.118511 -19.95455,-3.287208 0.0732,-8.425624 -6.71631,-1.036058 -10.48175,0.366741 -4.02316,2.801396 -7.44954,5.787678 -11.8092,7.637838 -3.54691,1.521115 -6.62891,2.94207 -10.75873,2.018897 -3.83563,-0.755873 -6.93164,-3.79422 -8.48279,-7.370733 -3.92243,0.131453 -6.20684,3.706207 -9.98637,4.27195 -6.95019,2.937166 -14.60361,3.997433 -22.10026,1.933429 -4.82089,-0.296264 -7.00672,-5.412775 -9.69446,-7.788629 -0.0435,-6.115857 -0.0779,-12.300167 2.57757,-17.915317 -0.49215,-3.41898 2.38794,-6.92794 2.85224,-9.54298 1.56934,-3.99339 2.65831,-7.84484 4.45549,-11.71429 0.14017,-3.16327 4.00868,-6.78074 -2.74981,-5.21632 -4.90361,-0.76381 -9.70901,1.86709 -14.47957,0.6555 -4.57507,1.30089 -8.90269,4.13184 -12.08513,8.4522 -4.2658,4.733 -9.19254,9.06781 -12.99369,14.01777 -5.47322,5.01283 -10.86181,10.97887 -15.91208,16.727237 -3.57064,2.633415 -6.61877,6.6348 -9.18609,10.317987 -3.59747,4.248125 -8.66409,-1.681492 -3.49636,-3.765919 6.60404,-4.475354 11.947,-11.202845 17.70204,-16.806365 8.50028,-8.39229 16.35984,-17.27879 24.79601,-25.78821 -3.22165,-0.56757 -8.09099,-0.51534 -11.63744,1.77478 -3.3963,-0.49914 -8.01603,1.93801 -10.18545,-1.50575 1.44353,-3.73535 5.25953,-7.75388 9.58976,-8.49304 7.25104,-1.20734 15.31577,-0.15205 22.14791,-2.06484 7.63968,-7.54468 15.51895,-15.32509 22.94298,-23.20526 5.90043,-5.4763 10.98264,-11.62821 17.24063,-16.8343 2.61855,-3.21022 6.85249,-6.06357 9.67842,-9.58276 4.01659,-3.54869 8.19141,-7.61665 11.96137,-11.86488 3.93185,-2.71828 5.96026,-11.52988 11.13971,-10.89598 1.77584,2.38464 -1.48839,5.9733 -2.68043,8.41497 -3.41181,5.24784 -6.00692,10.88156 -9.97447,15.77527 -1.39802,5.71753 -6.88211,9.67109 -9.33206,15.59581 -4.04787,5.43297 -7.88368,11.0603 -11.12523,16.95161 -2.34199,4.19563 -5.07594,7.58992 -5.24445,12.34819 -4.91985,1.75424 0.39657,4.79653 1.70054,6.69039 -1.75539,2.97922 -8.2721,1.36038 -7.88692,6.05427 -2.90371,5.85833 -3.83046,12.3614 -6.49851,18.43016 0.0899,2.74237 0.33879,3.63773 -1.03782,6.65416 -0.50229,3.90864 -0.36458,8.16355 0.66488,11.98933 3.56054,2.107107 3.32394,5.815642 8.38358,5.119701 4.095,0.85655 7.17143,0.0067 11.18068,-0.602627 2.89077,-1.904988 8.25246,-2.463966 7.32212,-6.477864 0.007,-4.87058 0.51213,-9.46239 1.71666,-13.76677 2.28373,-6.55536 5.37362,-12.67676 8.97966,-18.41967 2.7143,-3.78268 4.26027,-8.06141 7.31835,-10.9657 1.64297,-2.60056 4.29897,-4.67131 5.54794,-7.48107 7.80792,-8.60433 14.22811,-18.3414 22.38729,-26.63439 2.93274,-5.90088 8.74949,-10.56205 12.98925,-15.71961 3.29826,-2.07283 5.01767,-6.79476 9.27097,-7.09392 4.96526,1.24615 2.09118,7.35866 1.00413,10.48808 -1.43704,4.29089 -3.64296,8.38284 -4.78433,12.6337 -2.42945,3.76056 -2.48447,8.29242 -5.07742,11.68542 0.40964,4.20472 -4.14438,6.60225 -4.12397,10.78576 -2.77998,4.40902 -4.56365,7.66305 -6.85719,12.78385 -4.33465,6.27688 -8.17623,12.69955 -12.76994,18.75075 -2.4038,4.26765 -7.18975,6.68807 -10.25582,10.62627 -5.5075,4.40191 -10.16315,10.43245 -16.00952,14.138659 -0.36369,4.351085 6.35396,6.968973 10.10862,5.417807 4.56758,-1.369652 8.83387,-3.624982 12.39362,-6.540496 2.23196,-1.64661 4.74717,-2.98928 7.09784,-4.85612 6.02305,-0.39889 7.16879,-7.00633 8.95627,-11.27596 5.3036,-9.36811 12.32702,-18.25182 21.48371,-24.13902 6.60462,-3.57714 7.69089,7.8876 3.23442,10.63511 -1.89566,5.71461 -8.10653,8.96987 -10.82902,14.09133 -3.62594,2.05648 -5.11406,7.75179 -9.89072,7.47784 -3.59797,2.30692 -3.84948,7.15787 0.71688,8.50734 4.71116,2.723645 10.84682,0.966518 15.89898,0.13867 8.43583,-4.84807 16.76652,-10.03622 23.71079,-17.013 3.11792,-2.25284 3.68713,-9.20184 8.29084,-9.1239 3.29469,0.62225 1.49356,5.07596 0.74291,7.15953 -0.67899,3.57354 -1.08194,7.03613 0.0154,10.80857 1.59455,2.22946 3.4799,11.00791 6.94091,6.98569 6.39364,-6.41187 13.63108,-12.44878 19.68894,-19.36762 3.03118,-4.62363 18.11411,-14.07396 17.05272,-6.21956 -2.81047,1.19508 -6.61651,2.24671 -10.24401,4.24132 -5.78876,4.60391 -10.88727,11.17416 -16.60552,15.23541 -1.03084,3.88118 -11.858,7.897348 -5.87286,11.500269 5.98233,1.26335 12.30465,1.168992 17.86703,-1.25219 6.06927,-0.459747 11.07935,-5.340559 16.83279,-5.527369 0.56153,6.613222 -10.20189,7.790743 -15.03786,9.9791 -4.61154,1.817204 -9.3579,3.322802 -14.15473,4.342572 -5.29745,0.147282 -10.61453,0.784026 -15.64251,-0.268124 -3.42281,0.52151 -6.31409,5.338032 -8.38543,6.492489 -0.61076,2.450287 -5.85088,4.291306 -6.15786,7.378319 -1.7568,3.230547 -5.20738,4.324185 -7.63418,6.32858 -1.87432,4.5192 -5.85468,7.370242 -8.69945,11.372672 -5.04995,1.49193 -6.02848,8.81376 -10.2219,10.393141 -1.86341,2.4436 -2.8505,3.436873 -5.64251,5.258481 -1.11742,1.238742 -3.53526,2.603284 -5.09698,3.051708 z M 374.69411,-104.9901 c 9.45268,-8.45636 18.96419,-17.03432 26.69526,-27.17695 3.24016,-4.01152 6.98854,-8.87172 9.61137,-13.63526 1.69586,-3.34466 3.29195,-6.95389 5.67029,-9.9366 2.57771,-5.40564 5.1402,-10.94282 7.49495,-16.70372 2.47927,-3.98714 2.93524,-9.81197 5.219,-13.05972 0.64438,-2.37246 2.54312,-4.97137 2.55854,-7.78843 3.3009,-6.66476 -5.49887,0.8468 -7.27643,2.63115 -2.3897,4.94192 -7.16035,8.12468 -10.22529,12.44308 -3.02618,2.38606 -4.19694,6.82498 -7.10281,8.34919 -4.78881,7.55645 -11.97344,13.90361 -16.87517,21.5936 -3.78,6.01534 -8.31925,11.26899 -11.46784,17.69905 -2.42096,5.37078 -5.4015,10.65947 -5.6424,16.69328 -2.06512,2.6468 -0.21497,5.36891 -0.78256,8.68478 -0.25151,1.08081 1.90792,1.27966 2.12309,0.20655 z m 44.05444,-10.18311 c 3.53393,-2.15819 6.47812,-6.07577 9.25928,-8.59248 1.38817,-4.41189 9.24227,-7.47391 8.09754,-12.28301 -5.52517,-0.76386 -8.85881,5.7549 -12.19562,9.21346 -3.07647,2.26929 -3.48204,6.91495 -6.63792,9.54932 -0.41169,1.07874 -0.77739,4.15301 1.47672,2.11271 z m -80.77457,-29.52763 c 5.06401,-0.70049 5.05283,-9.08633 8.84968,-12.53861 4.98035,-6.31794 7.85942,-12.83487 12.41509,-19.0243 2.42782,-5.09735 10.26298,-10.92003 9.98443,-15.80628 -5.01923,4.20003 -10.17456,9.07943 -14.60851,13.08148 -3.67281,0.34414 -3.90359,4.94508 -6.59945,6.83118 -3.03687,1.79807 -5.24537,4.1156 -7.61281,6.99267 -6.81505,5.71364 -11.50138,13.11384 -18.74993,18.58701 0.9225,3.31034 9.38211,1.05046 13.72424,1.8385 1.03786,-0.5037 1.79825,0.91788 2.59726,0.0384 z"
       id="path1" /></g></svg>
