<?xml version="1.0" encoding="UTF-8" standalone="no"?>
<svg
   xmlns:dc="http://purl.org/dc/elements/1.1/"
   xmlns:cc="http://creativecommons.org/ns#"
   xmlns:rdf="http://www.w3.org/1999/02/22-rdf-syntax-ns#"
   xmlns:svg="http://www.w3.org/2000/svg"
   xmlns="http://www.w3.org/2000/svg"
   id="svg4"
   viewBox="0 0 10 10"
   version="1.1"
   height="10"
   width="10">
  <metadata
     id="metadata10">
    <rdf:RDF>
      <cc:Work
         rdf:about="">
        <dc:format>image/svg+xml</dc:format>
        <dc:type
           rdf:resource="http://purl.org/dc/dcmitype/StillImage" />
        <dc:title></dc:title>
      </cc:Work>
    </rdf:RDF>
  </metadata>
  <defs
     id="defs8" />
  <path
     id="path2"
     d="M 1.875 0 C 0.84 0 0 0.84 0 1.875 L 0 8.125 C 0 9.16 0.84 10 1.875 10 L 8.125 10 C 9.16 10 10 9.16 10 8.125 L 10 1.875 C 10 0.84 9.16 0 8.125 0 L 1.875 0 z M 5.0625 2 C 6.2376009 2 6.5664062 2.7634319 6.5664062 3.1015625 L 6.5664062 5.0742188 C 6.5664062 5.4425628 6.9980469 5.7792969 6.9980469 5.7792969 L 6.2382812 6.5292969 C 5.9402202 6.2479503 5.7167969 6.0136719 5.7167969 6.0136719 C 5.6833682 5.9802446 5.6563847 5.9411531 5.6328125 5.9042969 C 5.0268339 6.8518348 3.1738281 6.7907376 3.1738281 5.3242188 C 3.1738281 3.9581957 4.7924074 3.775524 5.4453125 3.7519531 L 5.4453125 3.3261719 C 5.4453125 3.2357469 5.4776621 2.8242188 4.96875 2.8242188 C 4.96875 2.8242188 4.4598933 2.8233514 4.2421875 3.4863281 L 3.2578125 3.3964844 C 3.2578125 2.7369361 3.8839715 2 5.0625 2 z M 5.4453125 4.3710938 C 4.9934003 4.3845875 4.3164062 4.5117684 4.3164062 5.1445312 C 4.3164062 5.8242215 5.4453125 5.9834994 5.4453125 4.9121094 L 5.4453125 4.3710938 z M 7.6308594 6.4765625 C 7.750132 6.4878399 7.8512307 6.5131451 7.8847656 6.5566406 C 7.9349086 6.6237086 7.8858291 6.9183205 7.7988281 7.1328125 C 7.7118281 7.3436622 7.5839554 7.4920447 7.5136719 7.5488281 C 7.4399569 7.6090401 7.3874481 7.5850469 7.4277344 7.4980469 C 7.4680214 7.4110509 7.6846541 6.8755002 7.5976562 6.7617188 C 7.5106553 6.6511514 7.1025004 6.7032969 6.9550781 6.7167969 C 6.8110834 6.7302909 6.7810773 6.7450467 6.7675781 6.7148438 C 6.7373701 6.6379187 7.0584681 6.5072534 7.2695312 6.4804688 C 7.374956 6.4687898 7.5115867 6.4652851 7.6308594 6.4765625 z M 2.203125 6.5371094 C 3.1838543 7.1328733 4.7181821 8.1117657 7.1914062 6.9414062 L 7.1933594 6.9414062 C 7.2925867 6.893836 7.3684474 6.9707328 7.265625 7.1035156 C 7.1619102 7.2374387 6.3291383 8 4.9296875 8 C 3.530238 8 2.4589202 7.0433519 2.1308594 6.6484375 C 2.0404297 6.5447266 2.1428755 6.4970389 2.203125 6.5371094 z "
     style="fill:#222222;fill-opacity:1" />
</svg>
