<?xml version="1.0" encoding="UTF-8" standalone="no"?>
<svg
   xmlns="http://www.w3.org/2000/svg"
   viewBox="0 0 10 10"
   height="10"
   width="10"
   version="1.1">
  <path
     style="fill:#222222"
     d="M 8.653711,8.236492 C 8.821205,8.152922 8.9494147,8.281132 8.7765637,8.504339 8.6037128,8.727545 7.2141195,10 4.8817028,10 2.5492861,10 0.76363561,8.403986 0.21686943,7.745795 0.06616053,7.572944 0.23936863,7.494732 0.33972219,7.561516 1.9746638,8.554694 4.5302868,10.189636 8.6540681,8.236849 Z M 9.8090267,7.594729 c 0.08357,0.111781 0,0.602478 -0.1449947,0.959965 C 9.5190372,8.90611 9.3069019,9.151816 9.1897632,9.246455 9.0669105,9.346809 8.977628,9.307885 9.0447684,9.162885 9.1119084,9.01789 9.4743959,8.125065 9.3294011,7.935429 9.1844063,7.75115 8.5037163,7.840429 8.2580108,7.862929 8.0180194,7.885429 7.9680212,7.907569 7.945522,7.857229 7.895167,7.72902 8.4308618,7.51117 8.7826349,7.466529 9.134051,7.427599 9.6976023,7.449749 9.8093837,7.594739 Z M 7.6105339,5.122674 c 0,0.613907 0.7199743,1.177458 0.7199743,1.177458 L 7.0637677,7.550087 C 6.5669998,7.081176 6.1930846,6.690832 6.1930846,6.690832 6.1373723,6.63512 6.092731,6.56798 6.0534467,6.506553 5.0434828,8.085783 1.9575215,7.985429 1.9575215,5.541231 c 0,-2.276705 2.6952609,-2.583479 3.7834364,-2.622764 l 0,-0.708546 c 0,-0.150709 0.055712,-0.837113 -0.7924717,-0.837113 0,0 -0.848184,0 -1.2110282,1.104961 L 2.0968023,2.32706 C 2.0968023,1.227813 3.1403364,0 5.104552,0 7.0630535,0 7.6101768,1.272455 7.6101768,1.836006 l 0,3.286668 z m -3.749866,0.117139 c 0,1.132817 1.8806471,1.400664 1.8806471,-0.384986 l 0,-0.903897 C 4.9881276,3.97343 3.8606679,4.185208 3.8606679,5.239813 Z" />
</svg>
