<?xml version="1.0" encoding="utf-8"?>
<svg xmlns="http://www.w3.org/2000/svg" height="99.44px" version="1.1" width="99.441px" viewBox="0 0 99.441 99.44">
	<path d="M 10.740234 0 C 4.8082344 0 0 4.8092344 0 10.740234 L 0 88.701172 C 0 94.631172 4.8092344 99.439453 10.740234 99.439453 L 88.699219 99.439453 C 94.631219 99.439453 99.439453 94.630172 99.439453 88.701172 L 99.439453 10.740234 C 99.440453 4.8092344 94.633172 -1.1842379e-15 88.701172 0 L 10.740234 0 z M 19.958984 18.720703 C 23.046691 18.767384 26.86297 20.705986 29.775391 22.892578 C 37.848447 28.953315 46.532568 41.243081 49.720703 47.837891 C 52.909081 41.243567 61.592723 28.9532 69.666016 22.892578 C 75.491108 18.519393 84.927734 15.137112 84.927734 25.904297 C 84.927734 28.05465 83.695759 43.967251 82.972656 46.550781 C 80.459184 55.532926 71.29945 57.824085 63.152344 56.4375 C 77.39334 58.861265 81.017166 66.88959 73.193359 74.917969 C 58.334403 90.165424 51.835617 71.092304 50.169922 66.205078 C 49.864709 65.309133 49.7228 64.8897 49.720703 65.246094 C 49.718103 64.889682 49.574754 65.309159 49.269531 66.205078 C 47.604561 71.092304 41.107853 90.165903 26.248047 74.917969 C 18.424123 66.88959 22.045867 58.860779 36.287109 56.4375 C 28.139745 57.824085 18.981864 55.532919 16.46875 46.550781 C 15.745633 43.967003 14.511719 28.054411 14.511719 25.904297 C 14.511719 20.520704 16.871278 18.674022 19.958984 18.720703 z"/>
</svg>
