<?xml version="1.0" encoding="utf-8"?>
<svg xmlns="http://www.w3.org/2000/svg" height="99.44px" version="1.1" width="99.44px" viewBox="0 0 99.44 99.44">
	<path d="M19.959 18.7207c-3.0877-.0467-5.4473 1.8-5.4473 7.1836 0 2.1501 1.2339 18.0627 1.957 20.6465 2.5131 8.9821 11.671 11.2733 19.8184 9.8867C22.0459 58.8608 18.4241 66.8896 26.248 74.918c14.8598 15.2479 21.3565-3.8257 23.0215-8.7129.3052-.8959.4486-1.3154.4512-.959.0021-.3564.144.063.4492.959 1.6657 4.8872 8.1645 23.9603 23.0234 8.7129 7.8238-8.0284 4.2-16.0567-10.041-18.4805 8.1471 1.3866 17.3068-.9046 19.8203-9.8867.7231-2.5835 1.9551-18.4961 1.9551-20.6465 0-10.7672-9.4366-7.3849-15.2617-3.0117-8.0733 6.0606-16.7569 18.351-19.9453 24.9453-3.1881-6.5948-11.8723-18.8846-19.9453-24.9453-2.9124-2.1866-6.7287-4.1252-9.8164-4.1719ZM88.7012 0c5.932-0 10.7393 4.8092 10.7383 10.7402V88.7012c0 5.929-4.8082 10.7383-10.7402 10.7383H10.7402C4.8092 99.4395 0 94.6312 0 88.7012V10.7402C0 4.8092 4.8082 0 10.7402 0Z"/>
</svg>
