<?xml version="1.0" encoding="utf-8"?>
<svg xmlns="http://www.w3.org/2000/svg" height="800px" version="1.1" width="800px" viewBox="0 0 366.636 366.636">
	<g>
		<polygon points="7.261,366.636 230.796,262.472 109.313,142.129" style="fill:#FFB819;"/>
		<circle cx="139.46" cy="232.5" r="27.121" style="fill:#FFD26C;"/>
		<path d="M64.791,240.073c7.507,0.439,15.158-2.219,20.866-7.982c10.454-10.552,10.455-27.525,0.076-38.087    L64.791,240.073z" style="fill:#FFD26C;"/>
		<path d="M34.985,337.966c-5.319,5.371-7.93,12.403-7.847,19.408l44.797-20.876    C61.238,327.277,45.076,327.78,34.985,337.966z" style="fill:#FFD26C;"/>
		<path d="M142.845,283.129c-6.434,6.495-8.903,15.423-7.436,23.792l47.484-22.127    c-0.534-0.634-1.093-1.252-1.693-1.846C170.559,272.407,153.387,272.488,142.845,283.129z" style="fill:#FFD26C;"/>
		<circle cx="77.177" cy="286.451" r="27.121" style="fill:#FFD26C;"/>
		<polygon points="96.306,170.743 202.305,275.748 230.796,262.472 109.313,142.129" style="fill:#004D7A;"/>
	</g>
	<circle cx="135" cy="86.679" r="18.497" style="fill:#00BCB4;"/>
	<circle cx="276.53" cy="235.558" r="18.497" style="fill:#00BCB4;"/>
	<circle cx="316.74" cy="153.038" r="18.497" style="fill:#FFB819;"/>
	<circle cx="176.102" cy="18.497" r="18.497" style="fill:#FFB819;"/>
	<circle cx="228.315" cy="181.419" r="18.497" style="fill:#D85C72;"/>
	<circle cx="239.536" cy="74.687" r="18.497" style="fill:#D85C72;"/>
	<circle cx="334.385" cy="83.179" r="18.497" style="fill:#D85C72;"/>
	<path d="M133.624,143.693c-3.767,0-6.819-3.053-6.819-6.819c0-3.766,3.052-6.819,6.819-6.819   c25.377,0,46.024-20.646,46.024-46.024c0-32.898,26.764-59.662,59.662-59.662c32.897,0,59.661,26.764,59.661,59.662   c0,3.766-3.053,6.818-6.818,6.818c-3.765,0-6.818-3.052-6.818-6.818c0-25.378-20.647-46.024-46.024-46.024   c-25.378,0-46.024,20.646-46.024,46.024C193.285,116.929,166.52,143.693,133.624,143.693z" style="fill:#00BCB4;"/>
	<path d="M312.259,210.037c-25.978,0-47.115-21.136-47.115-47.115c0-18.459-15.019-33.479-33.478-33.479   c-18.46,0-33.479,15.019-33.479,33.479c0,3.766-3.053,6.818-6.817,6.818c-3.767,0-6.819-3.052-6.819-6.818   c0-25.979,21.136-47.115,47.115-47.115c25.979,0,47.115,21.136,47.115,47.115c0,18.46,15.018,33.478,33.478,33.478   s33.478-15.018,33.478-33.478c0-3.766,3.054-6.818,6.82-6.818c3.764,0,6.817,3.052,6.817,6.818   C359.375,188.901,338.239,210.037,312.259,210.037z" style="fill:#FFB819;"/>
</svg>
