<?xml version="1.0" encoding="UTF-8" standalone="no"?>
<svg
   xmlns:dc="http://purl.org/dc/elements/1.1/"
   xmlns:cc="http://creativecommons.org/ns#"
   xmlns:rdf="http://www.w3.org/1999/02/22-rdf-syntax-ns#"
   xmlns:svg="http://www.w3.org/2000/svg"
   xmlns="http://www.w3.org/2000/svg"
   id="svg4"
   viewBox="0 0 10 10"
   version="1.1"
   height="10"
   width="10">
  <metadata
     id="metadata10">
    <rdf:RDF>
      <cc:Work
         rdf:about="">
        <dc:format>image/svg+xml</dc:format>
        <dc:type
           rdf:resource="http://purl.org/dc/dcmitype/StillImage" />
        <dc:title></dc:title>
      </cc:Work>
    </rdf:RDF>
  </metadata>
  <defs
     id="defs8" />
  <path
     id="path2"
     d="M 1.875 0 C 0.84 0 0 0.84 0 1.875 L 0 8.125 C 0 9.16 0.84 10 1.875 10 L 8.125 10 C 9.16 10 10 9.16 10 8.125 L 10 1.875 C 10 0.84 9.16 0 8.125 0 L 1.875 0 z M 4.109375 2 L 4.8242188 2 L 4.8242188 4.8945312 L 5.1757812 4.8945312 L 5.5429688 4.8945312 L 5.5429688 5.2246094 C 5.614825 5.0915422 5.7065829 4.9935597 5.8183594 4.9296875 C 5.928805 4.8671462 6.0667961 4.8359375 6.2304688 4.8359375 C 6.4912807 4.8359375 6.7047599 4.9402302 6.8710938 5.1464844 C 7.036097 5.3540692 7.1171875 5.6243633 7.1171875 5.9570312 C 7.1171875 6.2896993 7.036097 6.5574177 6.8710938 6.7636719 C 6.7060904 6.969926 6.4926112 7.0742188 6.2304688 7.0742188 C 6.0667961 7.0742188 5.928805 7.0423876 5.8183594 6.9785156 C 5.7065829 6.9159736 5.614825 6.8186141 5.5429688 6.6855469 L 5.5429688 7.7890625 L 5.890625 7.7890625 L 5.890625 8 L 5.1757812 8 L 5.1757812 5.1054688 L 4.8242188 5.1054688 L 4.4570312 5.1054688 L 4.4570312 4.7753906 C 4.385175 4.9084578 4.2934172 5.0064403 4.1816406 5.0703125 C 4.071195 5.1328538 3.9332041 5.1640625 3.7695312 5.1640625 C 3.5087195 5.1640625 3.2952401 5.0597698 3.1289062 4.8535156 C 2.9639031 4.6459308 2.8828125 4.3756367 2.8828125 4.0429688 C 2.8828125 3.7103007 2.9639031 3.4425823 3.1289062 3.2363281 C 3.2939095 3.030074 3.5073889 2.9257812 3.7695312 2.9257812 C 3.9332041 2.9257814 4.071195 2.9576124 4.1816406 3.0214844 C 4.2934172 3.0840257 4.3851751 3.1813857 4.4570312 3.3144531 L 4.4570312 2.2109375 L 4.109375 2.2109375 L 4.109375 2 z M 3.8847656 3.15625 C 3.6958103 3.15625 3.5522173 3.229871 3.4550781 3.3789062 C 3.3592699 3.5279415 3.3105469 3.7488902 3.3105469 4.0429688 C 3.3105469 4.3357165 3.3592699 4.5586184 3.4550781 4.7089844 C 3.5522173 4.8593503 3.6958103 4.9335938 3.8847656 4.9335938 C 4.0710599 4.9335938 4.2114548 4.8674422 4.3085938 4.734375 C 4.4070636 4.5999771 4.4570312 4.4058797 4.4570312 4.1503906 L 4.4570312 3.9394531 C 4.4570312 3.6852948 4.4070636 3.4918197 4.3085938 3.3574219 C 4.211455 3.223024 4.0710599 3.15625 3.8847656 3.15625 z M 6.1152344 5.0664062 C 5.9289401 5.0664062 5.788545 5.1325578 5.6914062 5.265625 C 5.5929364 5.4000229 5.5429688 5.5941203 5.5429688 5.8496094 L 5.5429688 6.0605469 C 5.5429688 6.3147052 5.5929365 6.5081803 5.6914062 6.6425781 C 5.788545 6.776976 5.9289401 6.84375 6.1152344 6.84375 C 6.3041897 6.84375 6.4477827 6.770129 6.5449219 6.6210938 C 6.6407301 6.4720585 6.6894531 6.2511098 6.6894531 5.9570312 C 6.6894531 5.6642834 6.6407301 5.4413816 6.5449219 5.2910156 C 6.4477827 5.1406497 6.3041897 5.0664062 6.1152344 5.0664062 z "
     style="fill:#222222;fill-opacity:1" />
</svg>
