<?xml version="1.0" encoding="UTF-8" standalone="no"?>
<svg
   xmlns:dc="http://purl.org/dc/elements/1.1/"
   xmlns:cc="http://creativecommons.org/ns#"
   xmlns:rdf="http://www.w3.org/1999/02/22-rdf-syntax-ns#"
   xmlns:svg="http://www.w3.org/2000/svg"
   xmlns="http://www.w3.org/2000/svg"
   xmlns:sodipodi="http://sodipodi.sourceforge.net/DTD/sodipodi-0.dtd"
   xmlns:inkscape="http://www.inkscape.org/namespaces/inkscape"
   width="10"
   height="10"
   version="1.1"
   viewBox="0 0 100 100"
   id="svg6"
   sodipodi:docname="distributed-proofreaders.svg"
   inkscape:version="0.92.3 (2405546, 2018-03-11)">
  <metadata
     id="metadata12">
    <rdf:RDF>
      <cc:Work
         rdf:about="">
        <dc:format>image/svg+xml</dc:format>
        <dc:type
           rdf:resource="http://purl.org/dc/dcmitype/StillImage" />
        <dc:title></dc:title>
      </cc:Work>
    </rdf:RDF>
  </metadata>
  <defs
     id="defs10" />
  <sodipodi:namedview
     pagecolor="#ffffff"
     bordercolor="#666666"
     borderopacity="1"
     objecttolerance="10"
     gridtolerance="10"
     guidetolerance="10"
     inkscape:pageopacity="0"
     inkscape:pageshadow="2"
     inkscape:window-width="640"
     inkscape:window-height="480"
     id="namedview8"
     showgrid="false"
     inkscape:zoom="23.6"
     inkscape:cx="-25.25425"
     inkscape:cy="12.893443"
     inkscape:current-layer="svg6" />
  <path
     style="fill:#222222;fill-opacity:1;stroke:none;stroke-width:9.98652744;stroke-miterlimit:4;stroke-dasharray:none;stroke-dashoffset:0;stroke-opacity:1"
     d="M 20.245984,0.06743734 C 10.126152,-0.84398666 0.38445013,7.6086133 0.13639488,17.816929 0.07977756,38.471843 0.11338882,59.128682 0.09738501,79.78411 -0.81403939,89.903937 7.6580545,99.665141 17.866381,99.913205 c 10.70779,0.02955 21.416271,0.02422 32.12463,0.0195 v -3.627918 h 6.027025 V 52.964823 h -6.027025 v -0.01947 H 37.761416 v -5.636958 c -1.22336,2.26469 -2.797772,3.924459 -4.70069,5.012769 -1.880347,1.064404 -4.215848,1.599404 -7.002272,1.599404 -4.440301,0 -8.07139,-1.755056 -10.903258,-5.266332 -2.809222,-3.534174 -4.213066,-8.126252 -4.213066,-13.78999 0,-5.663738 1.403844,-10.258958 4.213066,-13.770484 2.809221,-3.511276 6.44031,-5.266334 10.903258,-5.266334 2.786576,0 5.122077,0.551367 7.002272,1.638415 1.902994,1.064404 3.477405,2.727316 4.70069,4.993264 V 3.6563483 H 31.851421 V 0.06744034 c -3.8685,6.68e-4 -7.737015,0.003 -11.605437,0 z m 23.757011,0 V 49.336906 h 5.988016 12.268604 v 5.636926 c 1.223361,-2.26469 2.781409,-3.927601 4.66168,-4.993264 1.902994,-1.087051 4.235353,-1.638414 7.021777,-1.638414 4.440302,0 8.074533,1.755056 10.883754,5.266332 2.809222,3.511528 4.213066,8.106747 4.213066,13.770485 0,5.663737 -1.403844,10.255815 -4.213066,13.78999 -2.809221,3.511275 -6.443452,5.266332 -10.883754,5.266332 -2.786575,0 -5.118934,-0.515494 -7.021777,-1.579899 -1.880347,-1.087052 -3.438395,-2.766326 -4.66168,-5.032274 v 16.481672 h 5.909996 v 3.627917 c 3.888005,-6.47e-4 7.776023,-0.0031 11.663951,0 10.119831,0.911371 19.861527,-7.560681 20.109588,-17.768997 0.05692,-21.125683 0.0026,-42.245341 0.01997,-63.371536 0.17392,-9.7367437 -8.02561,-18.37756666 -17.749958,-18.70523366 -12.736223,-0.03491 -25.473265,-0.02612 -38.21017,-0.01951 z M 28.008948,19.747917 c -3.216866,0 -5.660373,1.266004 -7.314351,3.803463 -1.63113,2.537207 -2.438117,6.306137 -2.438117,11.312863 0,4.984079 0.806991,8.753008 2.438117,11.312863 1.653802,2.560106 4.097309,3.842472 7.314351,3.842472 3.171572,0 5.582353,-1.129169 7.236331,-3.393859 1.67645,-2.287337 2.516137,-5.616553 2.516137,-9.967022 v -3.569404 c 0,-4.327067 -0.839687,-7.620415 -2.516137,-9.908507 -1.653802,-2.287336 -4.064582,-3.432869 -7.236331,-3.432869 z m 44.003135,32.514729 c -3.171572,0 -5.598716,1.126026 -7.275341,3.413364 -1.653802,2.287336 -2.477127,5.600189 -2.477127,9.928012 v 3.569403 c 0,4.349714 0.823329,7.678931 2.477127,9.967023 1.67645,2.264689 4.103593,3.393858 7.275341,3.393858 3.19422,0 5.605,-1.282366 7.236332,-3.842472 1.653801,-2.559855 2.477127,-6.328784 2.477127,-11.312863 0,-5.006726 -0.82333,-8.775656 -2.477127,-11.312863 -1.631131,-2.537459 -4.041912,-3.803462 -7.236332,-3.803462 z"
     id="path2-3"
     inkscape:connector-curvature="0" />
</svg>
