<?xml version="1.0" encoding="UTF-8" standalone="no"?>
<!-- Created with Inkscape (http://www.inkscape.org/) -->

<svg
   xmlns:dc="http://purl.org/dc/elements/1.1/"
   xmlns:cc="http://creativecommons.org/ns#"
   xmlns:rdf="http://www.w3.org/1999/02/22-rdf-syntax-ns#"
   xmlns:svg="http://www.w3.org/2000/svg"
   xmlns="http://www.w3.org/2000/svg"
   xmlns:sodipodi="http://sodipodi.sourceforge.net/DTD/sodipodi-0.dtd"
   xmlns:inkscape="http://www.inkscape.org/namespaces/inkscape"
   width="535.44727"
   height="17.678345"
   id="svg881"
   version="1.1"
   inkscape:version="0.48+devel r"
   sodipodi:docname="border-2.svg">
  <defs
     id="defs883" />
  <sodipodi:namedview
     id="base"
     pagecolor="#ffffff"
     bordercolor="#666666"
     borderopacity="1.0"
     inkscape:pageopacity="0.0"
     inkscape:pageshadow="2"
     inkscape:zoom="0.35"
     inkscape:cx="401.29507"
     inkscape:cy="-351.16083"
     inkscape:document-units="px"
     inkscape:current-layer="layer1"
     showgrid="false"
     fit-margin-top="0"
     fit-margin-left="0"
     fit-margin-right="0"
     fit-margin-bottom="0"
     inkscape:window-width="1366"
     inkscape:window-height="716"
     inkscape:window-x="0"
     inkscape:window-y="0"
     inkscape:window-maximized="1" />
  <metadata
     id="metadata886">
    <rdf:RDF>
      <cc:Work
         rdf:about="">
        <dc:format>image/svg+xml</dc:format>
        <dc:type
           rdf:resource="http://purl.org/dc/dcmitype/StillImage" />
        <dc:title></dc:title>
      </cc:Work>
    </rdf:RDF>
  </metadata>
  <g
     inkscape:label="Layer 1"
     inkscape:groupmode="layer"
     id="layer1"
     transform="translate(239.15221,-163.52301)">
    <path
       d="M -24.733526,167.12038 C -28.338226,167.12038 -31.262526,169.5861 -31.337366,172.6492 L -33.868416,172.6492 C -37.956176,172.6492 -45.886776,167.12038 -45.886776,167.12038 -53.973866,171.40273 -88.657296,172.86012 -89.378506,172.89006 L -238.07039,172.89006 C -238.66777,172.89006 -239.15221,173.37314 -239.15221,173.96916 -239.15221,174.56926 -238.66777,175.05233 -238.07039,175.05233 L -89.635696,175.05233 -89.635696,175.05369 C -60.309626,175.53405 -44.444356,178.9006 -44.444356,178.9006 -41.298246,174.91353 -34.497086,174.03992 -31.214896,173.88343 -30.610716,176.4689 -27.939516,178.41889 -24.733526,178.41889 -21.082566,178.41889 -18.122886,175.88921 -18.122886,172.77031 -18.122886,169.65006 -21.082566,167.12038 -24.733526,167.12038 Z M -46.127636,177.45682 C -46.127636,177.45682 -61.030836,174.09163 -73.530916,173.85077 -73.530916,173.85077 -54.300446,172.89006 -46.848846,169.28401 -46.848846,169.28401 -41.559516,172.6492 -39.397236,173.37041 -39.397236,173.37041 -44.686576,175.77354 -46.127636,177.45682 Z M -25.102296,176.73697 C -27.089026,176.73697 -28.698826,175.06866 -28.698826,173.00981 -28.698826,170.95368 -27.089026,169.28537 -25.102296,169.28537 -23.114206,169.28537 -21.503046,170.95368 -21.503046,173.00981 -21.503046,175.06866 -23.114206,176.73697 -25.102296,176.73697"
       inkscape:connector-curvature="0"
       id="path22"
       style="fill:#222222;fill-opacity:1;fill-rule:nonzero;stroke:none" />
    <path
       d="M 295.21597,172.89006 146.51728,172.89006 C 145.79607,172.86012 111.114,171.40273 103.02555,167.12038 103.02555,167.12038 95.093594,172.6492 91.007194,172.6492 L 88.477504,172.6492 C 88.398584,169.5861 85.474274,167.12038 81.873664,167.12038 78.221344,167.12038 75.263024,169.65006 75.263024,172.77031 75.263024,175.88921 78.221344,178.41889 81.873664,178.41889 85.079654,178.41889 87.749494,176.4689 88.355034,173.88343 91.634504,174.03992 98.438384,174.91353 101.58313,178.9006 101.58313,178.9006 117.44704,175.53405 146.77583,175.05369 L 146.77583,175.05233 295.21597,175.05233 C 295.81199,175.05233 296.29506,174.56926 296.29506,173.96916 296.29506,173.37314 295.81199,172.89006 295.21597,172.89006 Z M 82.239714,176.73697 C 80.251624,176.73697 78.640464,175.06866 78.640464,173.00981 78.640464,170.95368 80.251624,169.28537 82.239714,169.28537 84.226444,169.28537 85.837604,170.95368 85.837604,173.00981 85.837604,175.06866 84.226444,176.73697 82.239714,176.73697 Z M 103.26777,177.45682 C 101.82399,175.77354 96.534654,173.37041 96.534654,173.37041 98.696924,172.6492 103.98762,169.28401 103.98762,169.28401 111.43922,172.89006 130.66969,173.85077 130.66969,173.85077 118.17234,174.09163 103.26777,177.45682 103.26777,177.45682"
       inkscape:connector-curvature="0"
       id="path24"
       style="fill:#222222;fill-opacity:1;fill-rule:nonzero;stroke:none" />
    <path
       d="M 2.9528036,171.71435 C 7.7726636,175.27686 17.353884,172.88054 25.024574,169.5235 32.715674,166.15831 39.927774,163.75518 39.927774,163.75518 35.600514,162.31276 25.639644,167.94228 15.409334,170.96593 6.4880936,173.60311 3.3310936,171.94568 2.9528036,171.71435"
       inkscape:connector-curvature="0"
       id="path26"
       style="fill:#222222;fill-opacity:1;fill-rule:nonzero;stroke:none" />
    <path
       d="M 55.069124,173.43029 C 53.806324,172.16749 49.710394,170.82985 41.367474,173.61127 34.879304,175.77218 25.504924,179.55922 25.504924,179.55922 32.534684,180.28043 34.337714,177.21597 43.533834,174.33112 51.834564,171.7266 55.069124,173.43029 55.069124,173.43029"
       inkscape:connector-curvature="0"
       id="path28"
       style="fill:#222222;fill-opacity:1;fill-rule:nonzero;stroke:none" />
    <path
       d="M 59.656294,163.69803 C 50.154004,163.00675 42.102294,166.43318 34.317304,169.74531 L 30.948024,171.17412 C 22.844604,174.62505 11.743404,179.3483 1.5620836,179.02035 -7.7401664,178.72098 -13.075766,176.28792 -13.075766,172.34847 -13.075766,168.90027 -9.7731664,166.89721 -3.2577764,166.39508 3.2875536,165.8916 8.9660636,169.77116 9.0218536,169.81063 9.5130936,170.15082 10.185314,170.02971 10.526874,169.53983 10.867064,169.04995 10.748684,168.37773 10.258804,168.03618 10.002974,167.85792 3.9080636,163.67625 -3.4237964,164.23961 -13.188716,164.99076 -15.239406,169.0622 -15.239406,172.34847 -15.239406,175.4456 -13.064886,180.7118 1.4913236,181.18126 12.151634,181.52554 22.984764,177.37926 31.273244,173.85077 L 34.641164,172.42059 C 42.190744,169.21053 50.518694,165.20304 59.497084,165.85485 70.113854,166.62777 71.475984,170.02019 71.475984,172.89006 71.475984,173.71877 71.157564,174.4291 70.504394,175.06186 68.759874,176.7533 64.793224,177.71809 60.152974,177.57657 54.515284,177.40647 50.306404,175.78715 50.251974,175.7613 49.715834,175.50139 49.068104,175.72728 48.806834,176.26614 48.548284,176.80229 48.772814,177.4473 49.310324,177.70857 49.548454,177.82287 53.975054,179.55514 60.086294,179.73884 65.371544,179.89941 69.829444,178.73187 72.010774,176.61586 73.091224,175.56671 73.638254,174.31343 73.638254,172.89006 73.638254,167.31224 69.196684,164.39202 59.656294,163.69803"
       inkscape:connector-curvature="0"
       id="path30"
       style="fill:#222222;fill-opacity:1;fill-rule:nonzero;stroke:none" />
  </g>
</svg>
