<?xml version="1.0" encoding="UTF-8" standalone="no"?>
<svg
   xmlns:dc="http://purl.org/dc/elements/1.1/"
   xmlns:cc="http://creativecommons.org/ns#"
   xmlns:rdf="http://www.w3.org/1999/02/22-rdf-syntax-ns#"
   xmlns:svg="http://www.w3.org/2000/svg"
   xmlns="http://www.w3.org/2000/svg"
   id="svg4"
   viewBox="0 0 10 10"
   version="1.1"
   height="10"
   width="10">
  <metadata
     id="metadata10">
    <rdf:RDF>
      <cc:Work
         rdf:about="">
        <dc:format>image/svg+xml</dc:format>
        <dc:type
           rdf:resource="http://purl.org/dc/dcmitype/StillImage" />
        <dc:title></dc:title>
      </cc:Work>
    </rdf:RDF>
  </metadata>
  <defs
     id="defs8" />
  <path
     id="path2"
     d="M 1.875 0 C 0.84 0 0 0.84 0 1.875 L 0 8.125 C 0 9.16 0.84 10 1.875 10 L 8.125 10 C 9.16 10 10 9.16 10 8.125 L 10 1.875 C 10 0.84 9.16 0 8.125 0 L 1.875 0 z M 5 2 C 5.0879268 2 5.1751292 2.0344431 5.2421875 2.1015625 L 6.8847656 3.7421875 L 5 5.6289062 L 4.3710938 5 L 5.6289062 3.7421875 L 5 3.1152344 L 3.1152344 5 L 5 6.8847656 L 7.5136719 4.3710938 L 7.8984375 4.7578125 C 8.0325541 4.8919238 8.0325541 5.1079487 7.8984375 5.2421875 L 5.2421875 7.8984375 C 5.1080727 8.0326763 4.8920338 8.0326763 4.7578125 7.8984375 L 2.1015625 5.2421875 C 1.967446 5.1079557 1.967446 4.891929 2.1015625 4.7578125 L 4.7578125 2.1015625 C 4.8249275 2.0344431 4.9120732 2 5 2 z "
     style="fill:#222222;fill-opacity:1" />
</svg>
