<?xml version="1.0" encoding="utf-8"?>
<svg xmlns="http://www.w3.org/2000/svg" height="99.44px" version="1.1" width="99.441px" viewBox="0 0 99.441 99.44">
	<path d="M10.739 0C4.808 0 .001 4.809.001 10.74V88.7c0 5.932 4.807 10.74 10.738 10.74H88.7c5.934 0 10.74-4.809 10.74-10.74V10.74C99.44 4.809 94.634 0 88.7 0zM65.394 53.129h-11.25v30.105H42.683V53.129h-7.961v-10.84h7.961s0-4.441 0-9.258c0-7.276 4.701-13.956 15.537-13.956 4.387 0 7.631.421 7.631.421l-.256 10.122s-3.309-.032-6.918-.032c-3.908 0-4.533 1.801-4.533 4.789 0 .369 0 .5 0 .507 0 .838 0 2.873 0 7.407h11.762z"/>
</svg>
