<?xml version="1.0" encoding="UTF-8" standalone="no"?>
<svg
   width="1300.0001"
   height="100.00001"
   viewBox="0 0 1300.0001 100"
   version="1.1"
   xmlns="http://www.w3.org/2000/svg">
<title>A fleuron by William Morris</title>
  <path
     d="m 763.80799,98.814706 c -3.50813,-1.416197 -6.97086,-6.271264 -6.97086,-9.773798 0,-1.471249 0.9438,-4.022922 2.09733,-5.670401 1.9818,-2.830392 1.91806,-3.18695 -1.15722,-6.472759 -1.79001,-1.912558 -4.34412,-5.945683 -5.67581,-8.962496 l -2.42126,-5.485122 -5.85569,2.982302 c -5.81369,2.960921 -5.86234,3.042265 -6.78403,11.342822 -1.75776,15.83026 -6.30379,22.868092 -12.59564,19.499641 -2.17867,-1.166395 -2.38052,-2.002787 -1.35042,-5.595793 1.85713,-6.477651 1.4781,-9.134254 -1.85665,-13.01298 l -3.06462,-3.564528 -4.56272,4.076189 c -6.36756,5.688569 -15.77631,9.172192 -18.79972,6.960666 -1.49666,-1.094765 -4.74931,-1.43498 -9.5532,-0.999236 -5.74427,0.521053 -8.41495,0.08347 -12.63488,-2.070101 -13.13511,-6.703338 -8.36072,-21.805486 7.37167,-23.31769 5.10157,-0.490368 6.67121,-0.05135 10.0826,2.820141 l 4.04038,3.400932 1.38372,-3.97071 c 1.73461,-4.977601 0.28458,-5.70173 -9.75043,-4.869263 -8.20812,0.680909 -9.39518,-0.449305 -7.17208,-6.828692 1.26722,-3.636383 1.1061,-4.078444 -1.90363,-5.223136 -1.8084,-0.687792 -5.96455,-1.250531 -9.23587,-1.250531 h -5.94784 l 0.80367,-5.865443 c 0.62441,-4.557134 0.22958,-6.80736 -1.77015,-10.088258 -5.16116,-8.467775 -2.01791,-22.3405869 5.87716,-25.93905043 4.18411,-1.90706227 5.04316,-0.96303525 3.06859,3.37214153 -2.48795,5.4623545 0.83724,7.7895409 12.26129,8.5812479 8.86511,0.614366 9.66484,0.438234 14.26522,-3.1417677 l 4.8736,-3.7926268 2.93398,2.9155728 c 1.61369,1.6035657 5.12179,4.3122047 7.79578,6.0192077 4.5436,2.900508 5.19433,2.986275 9.94256,1.310426 l 5.08076,-1.793208 4.04602,7.721347 c 2.22532,4.246745 4.04604,9.177211 4.04604,10.956604 0,2.90665 0.52867,3.235247 5.20505,3.235247 5.96367,0 6.1108,0.278241 2.68905,5.085295 -2.44787,3.438909 -4.90386,10.53524 -3.64616,10.53524 2.50779,0 13.68035,-6.124587 15.19956,-8.33212 1.03424,-1.502832 5.50123,-6.539927 9.92664,-11.193548 4.42542,-4.653621 8.47098,-9.925552 8.99011,-11.715401 4.57579,-15.7758911 17.69646,-23.0392738 25.98505,-14.3848728 3.0871,3.2233462 3.57046,4.6325818 3.01381,8.7865508 l -0.66299,4.947463 12.51949,0.0949 c 14.08726,0.106756 22.19338,1.545769 41.48852,7.365091 11.74074,3.540951 13.74381,3.818704 16.58191,2.299285 l 3.22804,-1.728188 -3.74272,-2.276869 c -11.372,-6.9181 -10.34313,-20.4817426 1.72544,-22.7465932 4.84725,-0.9096618 9.63729,0.7798552 16.81885,5.9322788 l 5.38644,3.8644914 11.6297,-1.325295 c 12.9233,-1.472714 21.5332,-0.318259 32.5257,4.361185 5.3605,2.281896 6.522,2.422911 7.0444,0.855185 0.344,-1.032488 2.2415,-3.493757 4.2165,-5.469472 3.048,-3.0490892 4.6708,-3.5922249 10.7324,-3.5922249 6.3769,0 7.5019,0.4286958 10.5102,4.0050079 5.5379,6.583674 4.6957,12.127822 -3.2562,21.434702 -3.6437,4.26466 -8.5741,11.78751 -10.9563,16.717448 l -4.3313,8.963512 10.9763,-0.685019 c 6.037,-0.376758 11.8739,-1.430236 12.971,-2.34105 2.7867,-2.313616 1.8364,-7.002431 -1.5165,-7.481367 -2.2037,-0.314793 -2.61,-1.073316 -2.0922,-3.905133 1.1305,-6.181261 5.2862,-10.632615 11.4716,-12.287513 5.0915,-1.362238 5.9187,-2.109788 7.0708,-6.389551 1.2765,-4.742179 9.39487,-13.827502 13.99487,-15.661548 1.2205,-0.4866385 4.1222,-0.925966 6.4482,-0.9762837 3.6669,-0.079372 4.2291,0.3407132 4.2291,3.1597607 0,1.903284 1.8161,5.177378 4.3804,7.896971 l 4.3805,4.645704 4.4031,-2.685258 c 3.082,-1.87959 6.6249,-2.686713 11.8085,-2.69012 8.0121,-0.0049 10.1959,1.448473 6.9914,4.65409 -3.157,3.158101 -2.6319,6.228864 0.893,5.222364 6.6289,-1.892808 14.9863,-2.203813 20.4949,-0.762682 3.2206,0.842562 9.9547,2.012481 14.9645,2.599813 5.0099,0.587342 10.7573,1.705577 12.7721,2.484983 2.0147,0.779406 6.1371,1.417105 9.1607,1.417105 7.1733,0 18.8158,3.079383 26.6423,7.046716 l 6.2403,3.163275 3.6733,-4.605207 c 2.0203,-2.532859 6.3756,-5.791157 9.6783,-7.240664 3.3028,-1.449508 7.8922,-4.278425 10.1986,-6.286484 5.3881,-4.691042 11.6423,-6.375834 23.7836,-6.406977 12.2904,-0.03153 14.8817,-0.742142 16.9751,-4.655115 2.2466,-4.199151 3.1538,-3.976959 5.7029,1.3967 1.7937,3.781361 1.9072,5.469589 0.6778,10.088259 -0.812,3.050817 -2.3132,6.486007 -3.336,7.633775 -1.3145,1.475213 -1.5227,2.997776 -0.7103,5.194843 1.2367,3.344249 0,9.363261 -2.5646,12.450767 -2.34,2.820493 -14.7866,10.857756 -16.8145,10.857756 -1.4017,0 -1.4268,0.325434 -0.1255,1.627142 1.1076,1.108003 6.2764,1.627142 16.2007,1.627142 12.7936,0 15.2895,-0.375322 20.4298,-3.072061 3.2207,-1.689634 7.4331,-4.550067 9.361,-6.356503 l 3.5052,-3.284433 -3.8305,-3.831902 c -6.853,-6.855296 -3.9452,-15.980139 5.5783,-17.505416 5.6253,-0.900934 10.685,1.743095 12.9807,6.783227 0.798,1.75198 2.1551,3.185427 3.0158,3.185427 1.5828,0 9.309,-8.074527 17.3939,-18.178016 8.2722,-10.337592 18.2075,-13.375308 25.3539,-7.751974 4.4716,3.518584 3.3196,5.102614 -3.711,5.102614 -3.1199,0 -6.5784,0.347733 -7.6856,0.772758 -1.1072,0.425015 -6.1211,5.975362 -11.1421,12.33411 -8.7906,11.132658 -15.2995,16.633654 -22.1918,18.755264 -1.7892,0.550761 -6.2943,4.091711 -10.0114,7.868756 -10.8019,10.976453 -24.4009,16.242691 -41.9433,16.242691 -13.4796,0 -29.9942,-5.622416 -37.6448,-12.816229 -2.4017,-2.258309 -5.3295,-4.066367 -6.5063,-4.017914 -1.7003,0.07 -1.6033,0.349188 0.4724,1.359641 3.0535,1.48646 7.4915,8.657701 6.4257,10.382901 -0.4032,0.652558 -2.4484,1.186468 -4.5448,1.186468 -2.0965,0 -8.9424,2.132261 -15.2131,4.738362 -18.5234,7.698307 -34.9299,7.445001 -46.5354,-0.718506 -3.5489,-2.496347 -7.3923,-3.865945 -12.0791,-4.304433 -4.5275,-0.42358 -7.8675,-1.576708 -9.7841,-3.377863 l -2.91,-2.734726 -6.4817,5.16987 c -3.565,2.843425 -9.1168,5.951336 -12.3374,6.906473 -5.1495,1.527151 -5.9045,2.225418 -6.2598,5.789566 -0.7446,7.468519 -13.4591,14.57032 -22.521,12.579304 -3.9808,-0.874623 -8.457,-6.075695 -7.108,-8.259084 0.424,-0.686279 -0.8215,-1.77873 -2.7676,-2.427675 -2.7813,-0.927431 -4.6626,-0.536751 -8.7917,1.825698 -7.0448,4.030665 -18.16807,4.158899 -24.73137,0.285124 -7.1407,-4.214528 -9.7478,-10.986254 -4.5437,-11.801871 1.4598,-0.228772 2.7773,-1.001725 2.9279,-1.717673 0.1563,-0.743244 -4.7508,-1.671065 -11.4376,-2.162633 -6.4413,-0.473508 -14.5394,-1.511512 -17.9958,-2.306685 -5.9023,-1.357863 -6.526,-1.242379 -10.2585,1.899428 -2.1858,1.839855 -6.2869,4.525425 -9.1135,5.967933 -3.9307,2.005999 -4.9175,3.139249 -4.1966,4.819198 3.4409,8.017786 0.3047,13.478306 -8.6574,15.073777 -4.9723,0.885189 -6.7013,-0.04325 -17.041,-9.151114 -2.7451,-2.418059 -6.9256,-4.592809 -9.7595,-5.077045 -12.87999,-2.200855 -29.32555,-6.467048 -38.63331,-10.021979 l -10.2532,-3.916029 -4.71133,2.795773 c -9.18625,5.451245 -20.45863,10.289305 -30.51564,13.097194 -5.60405,1.564621 -14.94217,5.144056 -20.7514,7.954308 -10.55398,5.105541 -16.79657,6.160491 -22.59736,3.818781 z m 18.71893,-6.122235 5.98365,-3.507854 -5.1013,-2.253311 c -6.03719,-2.666709 -8.93365,-2.924555 -12.34379,-1.098875 -2.74956,1.47203 -3.45737,4.056857 -0.96768,3.533911 2.45016,-0.514657 2.72527,3.809692 0.30154,4.740081 -2.42149,0.929539 -5.75463,-1.24113 -5.75463,-3.74764 0,-0.889697 1.21363,-3.161059 2.69697,-5.047454 3.19098,-4.058058 8.34073,-4.482029 16.9837,-1.398233 6.16978,2.201373 11.39903,1.872805 25.86356,-1.625092 14.45824,-3.496364 25.19423,-9.752456 45.20566,-26.342342 11.80593,-9.787359 12.9897,-11.147185 11.01232,-12.650281 -2.04542,-1.554819 -2.0157,-1.6828 0.38699,-1.666818 3.42622,0.02284 11.21699,3.555702 8.15769,3.699294 -3.73821,0.175467 -4.36932,6.239993 -1.1085,10.652004 3.02944,4.098955 2.55957,7.649942 -0.65872,4.978079 -1.00982,-0.838364 -1.83604,-2.289395 -1.83604,-3.224508 0,-2.624484 -3.75472,-5.766809 -5.90459,-4.941547 -1.059,0.406525 -2.27667,2.13894 -2.70593,3.849828 -0.47878,1.908302 -1.7319,3.110692 -3.24193,3.110692 -4.19785,0 -2.71783,2.218136 3.00966,4.510615 3.36619,1.34733 7.99717,2.027741 12.03671,1.768479 5.4889,-0.352292 6.56803,-0.05604 6.58065,1.806622 0.0222,3.274699 1.93272,4.520622 8.1178,5.293926 4.20992,0.526354 5.53042,0.25482 5.53042,-1.137253 0,-1.005777 -0.9955,-1.828696 -2.2122,-1.828696 -1.67556,0 -1.84676,-0.36551 -0.7058,-1.506883 1.141,-1.141373 2.0299,-1.072272 3.6646,0.284889 1.187,0.98547 4.1949,2.492188 6.6842,3.348252 4.1937,1.442244 4.4781,1.37365 3.8748,-0.93444 -0.9156,-3.502319 1.2877,-4.407793 2.9888,-1.228272 1.8277,3.416367 5.7542,3.266361 12.9424,-0.494488 l 5.766,-3.016725 -4.709,-1.554634 c -2.7185,-0.897478 -6.806,-1.18142 -9.6698,-0.671712 -4.0309,0.717441 -4.6626,0.56725 -3.3699,-0.801265 1.2771,-1.352094 0.5435,-2.153271 -3.7206,-4.063018 -6.5171,-2.918785 -11.5335,-3.104181 -11.5335,-0.426246 0,1.096005 -1.1618,1.952567 -2.6484,1.952567 -2.28129,0 -2.447,-0.376211 -1.1958,-2.714917 0.7989,-1.493196 1.2587,-2.822963 1.0217,-2.955025 -0.79503,-0.443222 -9.515,-3.657929 -11.81676,-4.356381 -1.51457,-0.459586 -2.27721,0.01376 -2.27721,1.413375 0,2.340708 -2.00273,2.826614 -3.26035,0.791024 -1.54368,-2.498573 0.7618,-6.496903 3.74618,-6.496903 1.60215,0 9.90704,2.582758 18.45534,5.739463 8.5483,3.156705 20.128,7.068312 25.7327,8.692457 8.6703,2.512504 10.3658,2.675768 11.3661,1.094521 0.6467,-1.022159 1.1847,-2.151358 1.1956,-2.509332 0.011,-0.357964 -7.7389,-3.158501 -17.2218,-6.223416 -9.4829,-3.064905 -22.219,-7.664225 -28.3024,-10.220711 -18.1998,-7.648263 -42.42231,-15.820956 -53.76289,-18.139649 -7.88027,-1.611189 -14.89442,-2.025231 -26.97274,-1.592181 l -16.32307,0.585243 2.98513,-3.222097 c 4.01245,-4.331008 3.87531,-9.762775 -0.33002,-13.0718296 -5.94043,-4.6743474 -14.2693,0.5125098 -18.05402,11.2432316 -1.61693,4.584432 -1.6421,5.495206 -0.15186,5.495206 3.21229,0 13.32047,-4.908323 14.0558,-6.825207 1.01732,-2.652035 -0.6077,-4.743234 -3.47448,-4.471202 -3.46728,0.329017 -4.04377,-2.57236 -0.85077,-4.2817939 3.89916,-2.0874794 7.88666,0.4004227 7.88666,4.9206739 0,3.695428 -3.16373,9.355821 -5.22918,9.355821 -0.64781,0 -5.54782,2.074974 -10.88891,4.611046 -8.81486,4.185502 -20.31729,13.466951 -20.31729,16.394278 0,2.193601 7.13343,-0.455231 14.31391,-5.315141 9.42965,-6.382199 16.4958,-9.027146 28.02227,-10.489062 14.84892,-1.883309 39.85726,1.933373 56.61325,8.640089 9.46446,3.788233 5.76744,6.935244 -8.18628,6.968398 -5.62999,0.01338 -7.48228,-0.443184 -7.48228,-1.844258 0,-1.024121 1.31754,-2.049219 2.92785,-2.278001 1.61031,-0.228772 2.92784,-1.001725 2.92784,-1.717673 0,-1.19746 -1.85548,-1.684753 -14.96452,-3.92998 l -4.55443,-0.78005 3.13614,2.732402 c 2.19549,1.912832 2.72528,3.143438 1.76629,4.102753 -1.98761,1.988289 -6.57444,-0.799127 -7.08876,-4.30785 -0.33396,-2.278246 -1.82781,-3.156139 -7.55988,-4.442754 -7.88241,-1.769269 -10.07653,-1.300224 -7.6424,1.633732 2.8698,3.45909 -1.41904,4.561392 -5.74852,1.477469 -5.29612,-3.772477 -14.69161,-2.550014 -22.84515,2.972412 l -6.06827,4.110075 6.82941,-0.746223 c 4.29753,-0.469582 9.12172,-0.05038 13.01264,1.130654 7.98081,2.42253 10.65667,2.381868 13.51456,-0.205381 3.02881,-2.74197 7.41761,-1.417495 4.99179,1.506444 -0.89829,1.082748 -1.4034,2.165836 -1.1225,2.406881 1.49034,1.278804 11.51931,1.938108 12.22038,0.803364 0.95544,-1.546472 5.85742,-1.766702 5.85742,-0.263167 0,0.572756 -0.65165,1.693256 -1.44813,2.490001 -2.33476,2.335573 -0.34804,3.857169 6.21033,4.756404 6.91816,0.948567 9.43275,-0.918185 6.13988,-4.558033 -1.82983,-2.022625 -1.38352,-2.221006 5.92415,-2.633154 4.34668,-0.245154 7.75548,-0.09997 7.5751,0.322623 -0.18036,0.422594 -5.01249,4.970864 -10.73805,10.107267 -11.03268,9.897425 -23.89182,17.222479 -35.78475,20.384358 -9.90619,2.633681 -26.4894,2.542379 -30.62549,-0.168613 -3.61064,-2.366599 -4.24172,-7.133908 -1.27088,-9.600342 2.07433,-1.722135 2.65127,-0.979759 3.53075,4.543203 0.35514,2.230134 1.57883,2.658986 8.53442,2.990962 8.32,0.397103 9.68221,-0.259409 6.05042,-2.915944 -1.74011,-1.272839 -1.78494,-1.749871 -0.28167,-2.997893 2.02068,-1.677597 3.62681,-0.866422 5.78737,2.922875 0.99459,1.744384 2.65694,2.515414 5.03793,2.336686 4.02961,-0.302463 5.99915,-1.752829 3.56246,-2.623371 -0.89462,-0.319616 -1.62658,-1.184593 -1.62658,-1.922156 0,-0.850997 2.13214,-1.021192 5.83469,-0.465775 4.5413,0.681251 6.51287,0.363548 8.89402,-1.433174 l 3.05932,-2.308442 -4.33488,-2.32416 c -5.29093,-2.836748 -9.98754,-2.980359 -12.15188,-0.371583 -1.80148,2.171391 -5.20506,2.639275 -5.20506,0.715538 0,-0.680372 1.01987,-1.80798 2.26637,-2.505798 3.2223,-1.803908 1.6747,-2.729805 -6.10294,-3.65127 -6.2951,-0.745822 -7.04517,-0.531626 -10.2515,2.927454 -2.94491,3.17705 -3.52527,3.390251 -3.90199,1.433438 -0.24339,-1.264287 0.22221,-3.099964 1.03469,-4.079274 1.7635,-2.125632 -0.96858,-3.169728 -7.11801,-2.720218 -2.89616,0.211697 -4.01112,1.013528 -4.31961,3.106455 -0.52131,3.536724 -2.39776,3.653829 -3.48797,0.217682 -0.93534,-2.947995 -4.34521,-3.395484 -7.4394,-0.976283 -1.53432,1.199618 -1.77884,2.404264 -0.9306,4.584842 1.38902,3.570825 4.74456,5.094803 6.76582,3.072842 2.65167,-2.652582 3.43904,-1.566193 3.17016,4.374091 -0.1456,3.216757 -0.69361,5.852722 -1.21782,5.857701 -1.95995,0.01865 -12.71017,-11.345312 -12.71017,-13.435778 0,-1.350562 -1.04871,-2.175707 -2.76519,-2.175707 -2.39519,0 -2.65779,0.537191 -1.96252,4.014683 1.09123,5.458039 5.39718,11.212176 10.28081,13.738465 l 4.04665,2.093327 -3.40925,1.786902 c -4.24704,2.226014 -5.66475,6.376732 -3.53665,10.354481 2.93561,5.487113 11.97899,5.908536 20.43342,0.952208 z m 140.12841,1.462307 c 3.6757,-3.676947 2.0353,-8.873147 -3.8109,-12.071862 -1.8146,-0.99287 -2.0116,-1.436259 -0.6506,-1.464571 4.4768,-0.09314 18.1226,-7.925186 24.3069,-13.950973 11.5183,-11.223061 14.5981,-20.200183 12.2107,-35.592628 -1.2433,-8.016146 -1.1602,-9.869786 0.5602,-12.496418 3.0411,-4.642872 13.2927,-3.831346 10.4162,0.824549 -0.5316,0.860418 -1.6199,0.869742 -3.1934,0.02734 -4.0385,-2.162087 -5.5398,1.265312 -4.5166,10.311476 0.4938,4.366926 1.4064,8.254213 2.0278,8.63842 0.6215,0.384206 1.1299,0.160676 1.1299,-0.496714 0,-0.6574 2.4563,-3.986692 5.4584,-7.398422 4.3296,-4.920361 5.4314,-7.154127 5.328,-10.801785 -0.3096,-10.9273103 -16.6922,-11.6247184 -21.6739,-0.92267 l -2.4294,5.218879 -9.1996,-4.56802 c -8.7949,-4.367111 -9.8041,-4.566175 -22.9453,-4.525884 -12.79,0.03925 -14.3425,0.333362 -22.3299,4.230558 -9.44242,4.60713 -10.68506,4.820731 -16.4169,2.821918 -7.08422,-2.470417 -8.46467,-12.952323 -1.70582,-12.952323 3.72594,0 4.33143,2.177893 1.21299,4.362894 -5.58133,3.910659 2.59522,8.528138 9.78215,5.524211 2.38333,-0.99616 4.688,-2.385255 5.12148,-3.086881 1.1078,-1.793061 -8.94239,-8.1622175 -14.23532,-9.0214445 -8.10334,-1.3154443 -13.22418,4.6671915 -9.67433,11.3024335 1.88616,3.525525 10.13174,8.22181 13.08099,7.450292 3.79987,-0.994032 3.12836,-0.0286 -2.63307,3.785402 -5.38536,3.565085 -5.71611,4.945169 -1.45241,6.060533 1.57412,0.411787 4.86393,-1.04596 8.80381,-3.901052 11.70053,-8.478944 19.39113,-11.269035 31.01453,-11.251882 11.8282,0.01748 22.297,2.945955 26.3368,7.367396 3.9296,4.300792 6.8454,10.7242 6.8454,15.080035 0,4.807932 -4.0556,14.41665 -7.3136,17.327478 -2.3456,2.09569 -2.4483,1.989012 -2.5062,-2.603425 -0.033,-2.633759 -0.5177,-6.326951 -1.0766,-8.207097 -0.9342,-3.14295 -0.7507,-3.367671 2.2776,-2.788569 2.6491,0.506574 3.447,0.01914 4.0766,-2.490079 1.012,-4.033358 -1.1472,-9.648785 -4.3742,-11.376455 -1.944,-1.040747 -2.7072,-0.907494 -3.2746,0.571712 -0.407,1.0608 -1.6367,1.928726 -2.7327,1.928726 -2.385,0 -2.6837,-3.455516 -0.3661,-4.23583 3.151,-1.060898 -1.4568,-4.510361 -7.1778,-5.373376 -3.0302,-0.457106 -7.7054,-1.182084 -10.3893,-1.611063 -3.9729,-0.635024 -4.8797,-0.383055 -4.8797,1.355872 0,1.174713 0.8783,2.473014 1.9519,2.885103 3.307,1.269481 2.1612,3.07416 -1.9519,3.07416 -2.9868,0 -3.9038,-0.589148 -3.9038,-2.507974 0,-5.25013 -10.8955,-3.524608 -12.2672,1.942755 -0.6422,2.559708 -1.6238,3.168645 -5.10778,3.168645 -6.86189,0 -6.51804,1.413424 1.28838,5.295976 7.3116,3.636441 10.3061,3.66079 12.9706,0.105458 0.8143,-1.086593 2.3669,-1.562883 3.5785,-1.097801 2.9428,1.129677 2.6836,3.158609 -0.5341,4.180231 -3.846,1.221076 -2.5684,3.232787 3.3703,5.306871 5.8333,2.037279 8.4127,1.579793 8.4127,-1.492102 0,-1.156047 0.7319,-1.842071 1.6265,-1.524506 0.8947,0.317565 1.4843,1.846855 1.3103,3.398413 -0.2227,1.986561 0.6684,3.195503 3.0126,4.087064 5.7281,2.178596 7.4432,1.656294 6.5289,-1.98822 -1.1086,-4.418405 2.2108,-4.370333 4.2292,0.06121 4.3706,9.595675 -0.3347,18.183561 -12.4465,22.716728 -15.3904,5.760248 -34.19302,4.668266 -58.8466,-3.417568 -11.48275,-3.766091 -14.2631,-4.261486 -16.98207,-3.025824 l -3.25131,1.477556 3.52747,1.848866 c 9.10444,4.771937 35.69975,11.102237 51.12191,12.168192 17.8882,1.236414 19.906,1.813222 20.9539,5.990026 1.0091,4.021711 -0.2465,5.788111 -4.1143,5.788111 -2.3433,0 -3.1763,-0.705756 -3.1763,-2.691145 0,-2.098765 0.5728,-2.509263 2.6025,-1.864848 1.4728,0.467601 2.6025,0.233918 2.6025,-0.538342 0,-1.480241 -2.3501,-2.127126 -12.362,-3.402816 -7.2102,-0.918693 -7.1672,-0.776868 1.9519,6.440678 6.3351,5.014045 11.5553,5.931742 14.8716,2.61434 z M 731.46248,79.739768 c 0,-11.139648 -0.009,-11.167843 -4.50527,-14.923195 -3.73277,-3.117322 -5.74086,-3.776606 -11.71137,-3.844965 -6.20598,-0.07107 -6.75461,-0.267326 -3.95295,-1.414157 1.78923,-0.732398 6.03543,-1.015657 9.43599,-0.629458 l 6.18282,0.702191 -1.92772,-3.72909 c -4.34983,-8.414548 -13.64678,-12.442683 -26.36139,-11.421725 -9.6026,0.771069 -9.39974,-0.944691 0.30829,-2.607546 l 6.50632,-1.114447 -6.50632,-2.365661 c -10.44419,-3.79746 -21.81439,-9.542614 -26.02527,-13.150099 -3.72811,-3.193901 -3.58172,-3.169074 3.25316,0.551562 8.51403,4.63472 23.77695,10.528425 27.26541,10.528425 2.18044,0 2.33493,-0.512939 1.27156,-4.221967 -0.66574,-2.32208 -1.14472,-5.983143 -1.0644,-8.135691 0.1154,-3.093091 0.45647,-2.548998 1.62657,2.594824 2.0407,8.970971 4.00222,11.940034 9.86477,14.931923 l 5.04405,2.574167 0.85407,-6.211877 c 1.27158,-9.248723 2.67618,-10.172746 2.68693,-1.76761 0.008,5.975831 0.83371,8.832583 4.30291,14.880483 2.36142,4.116665 4.7545,7.484842 5.31798,7.484842 0.56348,0 1.3833,-3.030442 1.82181,-6.734305 0.43853,-3.703873 1.39844,-7.335647 2.13315,-8.070613 2.29242,-2.293202 1.46861,-3.747923 -1.77156,-3.128315 -2.81514,0.538333 -3.16646,0.0701 -3.73532,-4.978606 -0.34536,-3.065051 -2.21024,-8.273758 -4.14418,-11.574904 l -3.51625,-6.002092 -4.00373,2.535847 -4.00373,2.535857 -3.15762,-3.158716 c -1.7367,-1.737287 -5.8039,-4.403029 -9.03823,-5.923863 -6.23683,-2.932668 -8.16844,-2.187236 -8.21531,3.170382 -0.0219,2.494326 -1.40903,2.945838 -3.33815,1.086496 -0.67991,-0.65532 -5.92075,-1.505419 -11.64631,-1.889118 -9.69528,-0.649736 -10.64773,-0.979407 -13.87063,-4.801127 -3.34704,-3.9689245 -3.50704,-4.0164988 -4.87974,-1.450728 -2.97571,5.562091 -0.81781,15.383991 4.3164,19.646473 1.7883,1.484674 1.79393,2.06853 0.0524,5.43747 l -1.95105,3.774194 h 4.82763 c 4.62444,0 16.05942,4.494096 16.05942,6.311555 0,0.479853 -1.17114,1.604102 -2.60252,2.498329 -5.0353,3.145683 -3.06372,4.906351 5.53037,4.938754 4.4731,0.01689 9.82845,0.755751 11.9008,1.641962 l 3.7679,1.611298 -2.79195,2.972919 c -1.53558,1.635109 -2.79195,4.562348 -2.79195,6.504987 v 3.532056 l 8.3051,-0.851172 c 6.67859,-0.684483 9.06509,-0.402093 12.18563,1.441892 6.00399,3.547863 8.73061,9.220206 8.63287,17.959397 -0.0773,6.91237 0.0924,7.381035 1.98704,5.485786 1.57244,-1.572988 2.07158,-4.761403 2.07158,-13.233024 z m 302.67412,13.842566 c 6.2232,-1.729281 9.3615,-5.455257 9.5664,-11.357827 0.1333,-3.838873 0.6982,-4.872797 2.7181,-4.975228 6.8303,-0.346386 8.3833,-0.855517 14.0381,-4.602425 3.3433,-2.215294 6.0788,-4.510595 6.0788,-5.10068 0,-2.048887 -8.7883,-6.492051 -12.8409,-6.492051 -5.0318,0 -5.249,-1.929536 -0.494,-4.389292 4.2677,-2.207689 8.867,-7.022582 7.763,-8.126954 -0.4315,-0.431683 -2.575,0.490446 -4.7633,2.049189 -2.1883,1.558735 -3.9787,2.504968 -3.9787,2.102729 0,-0.402228 2.4887,-2.56001 5.5304,-4.795064 5.7688,-4.238974 4.3117,-4.314002 -5.5304,-0.284753 -5.1085,2.091346 -3.9317,0.309931 1.7235,-2.609186 2.0215,-1.043432 3.1926,-2.177512 2.6025,-2.520168 -1.4565,-0.845784 -16.5609,5.43373 -25.2396,10.493084 l -7.0636,4.117847 5.8557,0.04139 c 3.4014,0.02402 8.7191,1.374988 12.6873,3.223102 8.1572,3.799022 8.972,5.243091 1.463,2.592853 -5.7057,-2.01377 -22.9107,-2.372271 -28.4642,-0.593112 -2.5245,0.808753 -2.6958,1.071266 -0.7649,1.17196 3.8742,0.202032 13.32,6.244494 16.295,10.423983 4.213,5.918552 3.1941,5.99358 -3.3338,0.245506 -8.5752,-7.550849 -17.3276,-9.568749 -28.2929,-6.523067 -3.71657,1.032312 -4.65397,1.780614 -3.57847,2.856508 0.8015,0.801772 1.4344,3.244375 1.4064,5.427989 l -0.051,3.970223 -1.7563,-4.035751 c -1.9687,-4.524029 -4.1752,-5.727084 -10.5039,-5.727084 -2.3878,0 -5.2644,-0.354264 -6.3924,-0.787255 -3.1998,-1.228311 -1.0552,-3.117664 3.5414,-3.119899 12.3972,-0.0059 19.03957,-11.379491 11.5971,-19.857058 -3.3785,-3.848236 -0.657,-4.104296 2.8932,-0.272227 3.53457,3.81512 4.11687,7.46519 2.05617,12.887156 -2.01777,5.309068 1.9386,4.238114 5.7769,-1.563704 4.4809,-6.773454 5.2171,-11.871977 3.318,-22.978323 -1.1897,-6.956898 -1.2476,-10.202982 -0.2138,-11.983098 1.2383,-2.132418 1.4228,-1.913985 1.4574,1.725571 0.022,2.291884 0.8829,7.406086 1.9137,11.364895 1.9945,7.660028 1.4984,14.751565 -1.4405,20.59055 -2.0782,4.12882 -0.8653,4.542998 4.7687,1.628499 4.6513,-2.406109 9.4101,-8.510174 12.7974,-16.415102 2.2258,-5.194248 8.2241,-12.874767 10.055,-12.874767 0.3355,0 -0.8395,2.196638 -2.6111,4.881417 -2.5783,3.907389 -7.226,14.654912 -7.226,16.709647 0,0.24 4.2454,-1.603555 9.4342,-4.096788 5.1888,-2.493222 11.6776,-4.895905 14.4195,-5.339284 7.581,-1.225841 2.9159,-3.107881 -5.636,-2.273725 -6.1859,0.603373 -6.8038,0.469221 -4.5544,-0.98876 1.4442,-0.936051 6.3897,-1.697142 11.1113,-1.70997 7.4458,-0.02021 9.4489,0.546093 16.0323,4.532864 9.1408,5.535478 13.4955,11.742219 11.7407,16.73382 -0.6608,1.87958 -2.3418,3.637105 -3.7357,3.905622 -2.1982,0.423492 -2.3029,0.209432 -0.7897,-1.61449 1.0447,-1.25922 1.1894,-2.1027 0.3607,-2.1027 -2.1296,0 -3.1597,2.448412 -2.3641,5.619371 1.0553,4.205907 7.9527,7.849016 13.2365,6.991273 2.9739,-0.482743 4.8585,-0.08699 5.9709,1.253782 0.894,1.077563 4.59,3.509612 8.2135,5.404558 5.3915,2.819634 8.3605,3.451318 16.3475,3.478166 8.9187,0.02997 10.2837,-0.331341 15.8442,-4.194055 4.3808,-3.043134 7.0495,-6.266851 9.5297,-11.511367 1.8948,-4.006482 3.2556,-7.448272 3.0241,-7.648429 -0.2314,-0.200158 -2.2948,-1.317075 -4.5853,-2.482035 -4.8042,-2.443501 -8.6123,-2.684301 -12.1869,-0.7706 -3.6273,1.941955 -3.1836,5.161044 0.7114,5.161044 4.6618,0 5.5012,4.796666 1.906,10.892131 -3.3192,5.627502 -8.8896,8.893883 -15.1676,8.893883 -5.4627,0 -7.5118,-1.525989 -2.2203,-1.653551 8.271,-0.199376 8.6886,-1.921042 0.8584,-3.5389 -8.7974,-1.817693 -16.6881,-7.699518 -21.2702,-15.854979 l -2.8374,-5.050393 -2.7436,5.368856 c -1.5089,2.952867 -3.4163,5.57369 -4.2388,5.824038 -0.8534,0.25979 -0.3999,-1.759497 1.0564,-4.703997 2.1681,-4.383698 2.3388,-5.949822 1.1358,-10.419218 -3.9413,-14.641596 -18.0131,-20.004946 -39.4094,-15.020521 -3.0652,0.714063 -3.5785,0.426167 -3.5785,-2.007112 0,-1.562415 0.5871,-3.93823 1.3048,-5.279594 3.2532,-6.08084 -8.2343,-4.559634 -15.5594,2.060397 l -4.9905,4.510137 -1.2773,-3.607407 c -0.7025,-1.984071 -3.1064,-5.505828 -5.342,-7.826122 -2.2356,-2.320293 -4.0647,-5.102701 -4.0647,-6.183125 0,-2.702352 -3.7378,-2.452795 -8.7128,0.581728 -5.466,3.333911 -8.54767,8.225989 -8.90497,14.136174 -0.2817,4.661305 -0.4607,4.820595 -6.3755,5.675009 -9.6923,1.400078 -13.5301,6.4937 -8.605,11.420583 1.468,1.468496 2.6691,3.571996 2.6691,4.674425 0,4.368781 -5.1884,12.009887 -9.5659,14.087838 -4.6047,2.185811 -14.6283,2.843289 -17.311,1.135486 -0.8263,-0.525992 0.9304,-0.978743 3.9038,-1.006109 2.9733,-0.02734 7.0164,-0.477842 8.9845,-1.001081 7.0553,-1.875626 3.3761,-3.027825 -7.7954,-2.441265 -8.4505,0.443692 -11.7701,1.136511 -12.9152,2.695499 -2.0503,2.79137 1.1756,3.687696 19.722,5.47985 8.0127,0.774271 14.7352,2.051796 15.2882,2.905331 1.6176,2.496699 0.5167,5.343922 -2.5958,6.713491 -3.9329,1.730541 -3.6858,2.842391 1.3089,5.888718 5.6555,3.449424 15.81527,3.449424 21.47097,0 2.326,-1.418677 4.2291,-3.404018 4.2291,-4.411855 0,-3.302932 3.5183,-3.341788 5.0152,-0.05535 1.1429,2.509205 2.4352,3.159693 6.3429,3.192662 6.0843,0.05135 10.1413,2.828176 8.8817,6.07919 -0.8614,2.223495 -0.9906,2.226619 -2.5838,0.06258 -1.9678,-2.672771 -4.6434,-3.010301 -4.6434,-0.58577 0,4.528198 4.8218,5.812284 13.1429,3.500055 z M 700.3067,82.638783 c 1.38814,-1.015374 2.20645,-2.163678 1.81847,-2.55179 -1.29919,-1.299648 -6.44745,0.774193 -6.44745,2.597187 0,2.297683 1.44511,2.283517 4.62898,-0.0454 z m -2.55464,-6.729326 c 7.50448,-3.551407 8.76229,-5.752624 1.92465,-3.368188 -2.21529,0.772523 -4.25144,0.872729 -4.64927,0.228812 -0.3893,-0.630123 -2.72571,-0.302248 -5.19203,0.7286 -5.83065,2.437038 -10.38595,2.376703 -12.93306,-0.171279 -4.56376,-4.565326 -0.60471,-6.994788 7.19983,-4.418171 6.20702,2.049209 8.59599,0.552694 5.70617,-3.574496 -6.41341,-9.159579 -25.34094,-0.304307 -20.13767,9.421438 3.51891,6.577387 15.57356,7.07247 28.08138,1.153284 z m 13.14296,0.225082 c 2.00807,-1.728949 3.25239,-3.543333 2.76517,-4.031963 -1.24781,-1.251439 -8.87362,3.478244 -8.87362,5.503593 0,2.517854 2.04792,2.02448 6.10845,-1.47163 z m 439.02838,-3.420946 c 1.2798,-0.685175 4.1221,-1.245787 6.3162,-1.245787 4.4256,0 5.0263,-1.380152 1.9434,-4.464173 -1.3104,-1.310787 -3.1819,-1.761537 -5.2051,-1.253577 -3.9932,1.002585 -4.1886,-1.479284 -0.4313,-5.480103 1.9925,-2.121659 2.3991,-3.492029 1.5084,-5.084182 -1.0372,-1.853991 -1.4738,-1.565304 -2.922,1.932192 -1.2708,3.068928 -2.005,3.676869 -2.8949,2.396864 -0.7879,-1.133338 -0.8954,-0.666362 -0.3169,1.376882 0.5511,1.946953 0.3887,2.791057 -0.4387,2.279534 -0.7226,-0.446777 -1.9463,1.002359 -2.7192,3.220309 -0.7729,2.21795 -3.6114,6.066264 -6.3077,8.551804 l -4.9025,4.519167 7.0216,-2.751567 c 3.8619,-1.513366 8.0688,-3.312178 9.3487,-3.997363 z m 69.8055,-0.483876 c 8.3489,-2.223436 13.7622,-5.501952 20.4666,-12.395333 3.9625,-4.074255 4.6032,-5.28882 2.7898,-5.28882 -1.2947,0 -3.4257,1.362911 -4.7356,3.028694 -1.3098,1.665784 -6.0787,5.010717 -10.5974,7.433188 -7.3892,3.961368 -9.4986,4.457915 -20.9659,4.935494 -12.7323,0.530258 -23.7692,-1.398038 -32.1435,-5.615915 -1.8062,-0.90974 -4.4069,-1.221262 -5.8471,-0.700405 -2.3218,0.839702 -2.1171,1.187024 1.9519,3.311017 13.2962,6.940584 34.3622,9.211985 49.0812,5.29208 z m -100.4902,-2.565965 c -2.1474,-0.936188 -4.7739,-2.750327 -5.8368,-4.031416 -1.4629,-1.763314 -0.2364,-1.469531 5.0478,1.209098 l 6.9802,3.538363 -5.6838,-6.742975 c -3.1261,-3.708637 -7.3677,-7.614073 -9.4259,-8.678749 -3.8265,-1.979434 -3.4416,-3.711722 1.0036,-4.516717 9.3312,-1.689839 -6.4689,-12.009252 -24.5809,-16.054405 l -3.8684,-0.863981 2.5651,2.83541 c 1.4108,1.559486 6.665,5.165203 11.676,8.012719 l 9.1109,5.177299 -5.5023,-0.766587 c -5.4431,-0.758348 -5.4889,-0.731392 -4.2579,2.507418 4.6991,12.363858 13.5919,20.220577 22.7729,20.11961 l 3.9038,-0.04296 z m 11.0612,-6.083037 c 0,-2.407212 -1.2739,-3.092163 -4.8797,-2.623761 -2.0798,0.270167 -2.1654,-6.653401 -0.1077,-8.711797 1.1576,-1.158038 1.0046,-1.716755 -0.6432,-2.349309 -1.1891,-0.456461 -1.8422,-1.347613 -1.4513,-1.980332 1.101,-1.782079 -3.7228,0.292045 -6.0726,2.611099 -1.9219,1.896714 -1.7722,2.493896 1.824,7.273224 7.2666,9.65719 11.3305,11.73064 11.3305,5.780876 z m -60.698,-1.19542 c -0.6696,-3.349062 -0.2243,-4.189212 3.2774,-6.183135 4.7289,-2.692677 5.1552,-4.888524 1.3451,-6.928331 -3.8098,-2.039613 -7.7607,-0.722245 -12.2769,4.093507 -2.8255,3.012879 -3.3861,4.29718 -2.0803,4.765923 0.9831,0.352907 3.6181,2.308842 5.8557,4.346521 2.2375,2.037679 4.2,3.722041 4.361,3.743022 0.1611,0.02099 -0.056,-1.705889 -0.482,-3.837507 z M 748.08602,59.698427 c 13.97865,-6.543647 26.25484,-8.427591 43.35972,-6.654124 14.8628,1.541005 17.10075,2.071498 32.11575,7.612902 8.49148,3.133841 8.9455,3.17091 12.2563,1.000847 l 3.43817,-2.253545 -3.14746,-1.638897 c -5.89397,-3.069045 -22.63806,-8.279303 -33.70369,-10.487578 -18.17409,-3.626844 -44.7448,-1.041753 -58.58033,5.699337 -3.6168,1.762212 -4.63837,3.089986 -4.96218,6.449612 -0.22427,2.326805 -0.14363,4.230558 0.17922,4.230558 0.32284,0 4.39286,-1.7816 9.0445,-3.959112 z m 431.64198,1.030262 c -0.011,-0.89492 -0.515,-2.408462 -1.1202,-3.363424 -0.8776,-1.385043 -1.2685,-1.297675 -1.9319,0.431899 -1.292,3.367904 -0.9994,4.558667 1.1202,4.558667 1.0735,0 1.9429,-0.732212 1.9319,-1.627142 z m 11.7752,-2.857816 c 12.1214,-7.642845 14.6816,-11.988272 11.1891,-18.991524 -1.7125,-3.434048 -1.6694,-3.828388 0.4935,-4.515106 2.5365,-0.805326 5.1899,-6.891936 5.1899,-11.904849 0,-3.51173 -0.9785,-3.784621 -4.5901,-1.280122 -1.6049,1.112865 -7.6966,2.00348 -16.2549,2.376449 -10.465,0.456071 -14.5652,1.171492 -17.4135,3.03836 -3.3812,2.216193 -3.4991,2.529297 -1.2764,3.388397 1.3469,0.520603 3.9413,1.262774 5.7653,1.649265 5.1225,1.085412 12.5308,7.419617 15.0159,12.83883 1.2345,2.692082 1.9682,5.171119 1.6305,5.508982 -0.3378,0.337872 -1.6715,-1.783221 -2.964,-4.713526 -5.003,-11.343535 -24.4395,-15.112701 -36.9379,-7.16307 -5.9426,3.779818 -10.1653,10.862335 -7.8631,13.18833 0.8564,0.86528 1.7421,0.497065 2.6415,-1.098251 2.0639,-3.660633 9.4041,-6.297984 13.3508,-4.796949 3.8882,1.478816 5.7327,7.121099 3.498,10.700604 -2.2673,3.631803 -0.7566,4.820965 4.5916,3.614328 5.2833,-1.191984 7.2709,-3.367622 6.2055,-6.7926 -0.3898,-1.252893 -0.1485,-2.277991 0.5362,-2.277991 2.5428,0 7.1526,4.879992 7.4819,7.92048 0.1874,1.729242 0.3894,3.290505 0.449,3.469497 0.3342,1.002916 2.9045,-0.15151 9.2612,-4.159534 z m -6.966,-10.541791 c -1.264,-2.651684 -2.0236,-5.096043 -1.6878,-5.431905 0.8746,-0.874896 4.9512,7.356882 4.4252,8.935591 -0.2415,0.724656 -1.4733,-0.852003 -2.7374,-3.503686 z m -4.8358,-0.807728 c -1.4901,-2.906533 -1.4552,-2.941445 0.793,-0.793338 1.2935,1.235858 1.9949,2.604002 1.5587,3.040342 -0.4362,0.43633 -1.4945,-0.574816 -2.3517,-2.247004 z m 13.6455,-0.229925 c -0.4629,-1.844961 -1.6626,-4.036004 -2.6659,-4.868969 -1.0033,-0.832975 -1.8242,-2.119326 -1.8242,-2.858568 0,-0.739242 1.1185,-0.331516 2.4855,0.90604 2.494,2.257831 4.7147,8.306844 3.4968,9.525129 -0.3578,0.357973 -1.0293,-0.858661 -1.4922,-2.703632 z m 3.3175,-4.112125 c -0.6803,-1.78985 -1.9345,-3.254275 -2.7872,-3.254275 -0.8527,0 -1.1741,-0.376357 -0.7143,-0.836353 1.1935,-1.193955 4.4009,1.762055 5.1909,4.784131 0.9549,3.652647 -0.2211,3.169933 -1.6894,-0.693503 z m 2.3377,-1.98209 c -1.2192,-2.131588 -1.679,-3.875611 -1.0217,-3.875611 1.4747,0 4.2086,4.909495 3.6481,6.551194 -0.2253,0.660007 -1.4072,-0.544005 -2.6264,-2.675583 z m -38.339,15.094377 c 0.3918,-1.021564 -0.063,-2.500946 -1.0101,-3.287498 -1.2947,-1.074829 -1.923,-0.907602 -2.5294,0.673147 -0.8697,2.267262 -0.011,4.471749 1.7417,4.471749 0.5969,0 1.4059,-0.835835 1.7978,-1.857398 z m 92.0868,-4.854238 c 6.7079,-2.282023 13.2634,-8.00074 20.7466,-18.098566 7.4142,-10.004621 11.6834,-12.939426 18.8229,-12.939426 2.7992,0 4.3711,-0.525758 3.8917,-1.301718 -1.3454,-2.177561 -10.1576,-1.446032 -14.5018,1.203855 -2.2505,1.372703 -5.7639,4.691286 -7.8076,7.37463 -5.9699,7.83816 -15.1026,17.538658 -17.9447,19.060216 -8.2445,4.413826 -20.2547,2.824475 -20.2547,-2.680377 0,-6.126305 8.1503,-6.826974 9.6549,-0.830016 0.4997,1.991618 1.7358,3.207637 3.2607,3.207637 3.3626,0 2.1195,-4.450407 -2.1903,-7.841674 -4.1783,-3.287732 -8.7204,-3.27587 -12.0266,0.03144 -8.4255,8.428372 4.5678,17.502302 18.3489,12.814033 z m -114.6424,-1.727562 c 0,-2.553128 -27.885,-12.263458 -29.7782,-10.369595 -0.886,0.886309 4.0555,4.389595 6.3555,4.505704 1.0735,0.05418 4.2941,1.003024 7.1569,2.108519 4.3805,1.691567 11.4186,3.640814 15.2899,4.2346 0.5367,0.0823 0.9759,-0.133321 0.9759,-0.479228 z"
    />
  <path
     d="m 536.19199,98.814703 c 3.50813,-1.416195 6.97086,-6.271262 6.97086,-9.773796 0,-1.471249 -0.9438,-4.022922 -2.09733,-5.670396 -1.9818,-2.8304 -1.91806,-3.18695 1.15722,-6.47276 1.79001,-1.91256 4.34412,-5.94569 5.67581,-8.9625 l 2.42126,-5.48512 5.85569,2.9823 c 5.81369,2.96092 5.86234,3.04227 6.78403,11.34282 1.75776,15.830262 6.30379,22.868092 12.59564,19.499643 2.17867,-1.166395 2.38052,-2.002787 1.35042,-5.595793 -1.85713,-6.47765 -1.4781,-9.13425 1.85665,-13.01298 l 3.06462,-3.56453 4.56272,4.07619 c 6.36756,5.68857 15.77631,9.172193 18.79972,6.960667 1.49666,-1.094767 4.74931,-1.434977 9.5532,-0.999237 5.74427,0.52105 8.41495,0.0835 12.63488,-2.0701 13.13511,-6.70334 8.36072,-21.80549 -7.37167,-23.31769 -5.10157,-0.49037 -6.67121,-0.0513 -10.0826,2.82014 l -4.04038,3.40093 -1.38372,-3.97071 c -1.73461,-4.9776 -0.28458,-5.70173 9.75043,-4.86926 8.20812,0.68091 9.39518,-0.4493 7.17208,-6.82869 -1.26722,-3.63638 -1.1061,-4.07845 1.90363,-5.22314 1.8084,-0.68779 5.96455,-1.25053 9.23587,-1.25053 h 5.94784 l -0.80367,-5.86544 c -0.62441,-4.55714 -0.22958,-6.80736 1.77015,-10.08826 5.16116,-8.46777 2.01791,-22.3405909 -5.87716,-25.93905089 -4.18411,-1.90706 -5.04316,-0.96304 -3.06859,3.37213999 2.48795,5.4623604 -0.83724,7.7895409 -12.26129,8.5812509 -8.86511,0.61437 -9.66484,0.43823 -14.26522,-3.1417705 l -4.8736,-3.7926204 -2.93398,2.9155704 c -1.61369,1.6035605 -5.12179,4.3122005 -7.79578,6.0192105 -4.5436,2.9005 -5.19433,2.98627 -9.94256,1.31042 l -5.08076,-1.79321 -4.04602,7.72135 c -2.22532,4.24675 -4.04604,9.17721 -4.04604,10.9566 0,2.90665 -0.52867,3.23525 -5.20505,3.23525 -5.96367,0 -6.1108,0.27824 -2.68905,5.0853 2.44787,3.43891 4.90386,10.53524 3.64616,10.53524 -2.50779,0 -13.68035,-6.12459 -15.19956,-8.33212 -1.03424,-1.50284 -5.50123,-6.53993 -9.92664,-11.19355 -4.42542,-4.65362 -8.47098,-9.92555 -8.99011,-11.7154 -4.5758,-15.7758909 -17.69647,-23.0392809 -25.98506,-14.3848809 -3.0871,3.2233504 -3.57046,4.6325909 -3.01381,8.7865609 l 0.66299,4.94746 -12.51949,0.0949 c -14.08726,0.10675 -22.19338,1.54577 -41.48852,7.36509 -11.74074,3.54095 -13.74381,3.8187 -16.58191,2.29928 l -3.22804,-1.72818 3.74272,-2.27687 c 11.372,-6.9181 10.34313,-20.4817509 -1.72544,-22.7466009 -4.84725,-0.90966 -9.63729,0.77986 -16.81885,5.9322804 l -5.38643,3.8644905 -11.62967,-1.32529 c -12.9233,-1.47271 -21.53323,-0.31826 -32.52577,4.36118 -5.36043,2.2819 -6.52195,2.42292 -7.04435,0.85519 -0.34405,-1.03249 -2.24148,-3.49376 -4.21652,-5.46947 -3.04803,-3.0490905 -4.67077,-3.5922305 -10.73236,-3.5922305 -6.37698,0 -7.50198,0.4287 -10.51021,4.0050105 -5.5379,6.58367 -4.69568,12.12782 3.25615,21.4347 3.64375,4.26466 8.57408,11.78751 10.95629,16.71745 l 4.3313,8.96351 -10.97626,-0.68502 c -6.03696,-0.37675 -11.87389,-1.43023 -12.97098,-2.34105 -2.78677,-2.31361 -1.83638,-7.00243 1.51644,-7.48136 2.20369,-0.3148 2.61008,-1.07332 2.09219,-3.90514 -1.13044,-6.18126 -5.2862,-10.63261 -11.47156,-12.28751 -5.0915,-1.36224 -5.91874,-2.10979 -7.07077,-6.38955 -1.2765,-4.74218 -9.3949,-13.8275 -13.9948,-15.66155 -1.2205,-0.4866405 -4.1222,-0.9259605 -6.4482,-0.9762805 -3.6669,-0.0794 -4.2291,0.34071 -4.2291,3.1597605 0,1.90328 -1.8161,5.17738 -4.3804,7.89697 l -4.3805,4.6457 -4.4031,-2.68525 c -3.082,-1.87959 -6.6249,-2.68672 -11.8085,-2.69012 -8.0121,-0.005 -10.1959,1.44847 -6.9914,4.65409 3.157,3.1581 2.6319,6.22886 -0.893,5.22236 -6.6289,-1.89281 -14.9863,-2.20381 -20.4949,-0.76268 -3.2206,0.84256 -9.9547,2.01248 -14.9645,2.59981 -5.0099,0.58734 -10.7573,1.70558 -12.7721,2.48498 -2.0147,0.77941 -6.1371,1.41711 -9.1607,1.41711 -7.1733,0 -18.8158,3.07938 -26.6423,7.04671 l -6.2403,3.16328 -3.6733,-4.60521 c -2.0203,-2.53286 -6.3756,-5.79115 -9.6783,-7.24066 -3.3028,-1.44951 -7.8922,-4.27843 -10.1986,-6.28649 -5.3881,-4.69104 -11.6423,-6.37583 -23.78359,-6.40697 -12.2904,-0.0315 -14.881698,-0.74214 -16.975098,-4.65512 -2.2466,-4.19915 -3.1538,-3.97696 -5.7029,1.3967 -1.7937,3.78136 -1.9072,5.46959 -0.6778,10.08826 0.812,3.05082 2.3132,6.48601 3.336,7.63378 1.3145,1.47521 1.5227,2.99777 0.7103,5.19484 -1.2367,3.34425 0,9.36326 2.5646,12.45077 2.34,2.82049 14.786598,10.85775 16.814498,10.85775 1.4017,0 1.4268,0.32544 0.1255,1.62714 -1.1076,1.10801 -6.2764,1.62715 -16.200698,1.62715 -12.7936,0 -15.2895,-0.37533 -20.4298,-3.07206 -3.2207,-1.68964 -7.4331,-4.55007 -9.361,-6.35651 l -3.5052,-3.28443 3.8305,-3.8319 c 6.853,-6.8553 3.9452,-15.98014 -5.5783,-17.50542 -5.6253,-0.90093 -10.685,1.7431 -12.9807,6.78323 -0.798,1.75198 -2.1551,3.18543 -3.0158,3.18543 -1.5828,0 -9.309,-8.07453 -17.3939,-18.17802 -8.2722,-10.33759 -18.2074998,-13.37531 -25.3539028,-7.75197 -4.4716,3.51858 -3.31960004,5.10261 3.711,5.10261 3.119903,0 6.5784028,0.34773 7.6856028,0.77276 1.1072,0.42501 6.1211,5.97536 11.1421,12.33411 8.7906,11.13266 15.2995,16.63365 22.1918,18.75526 1.7892,0.55076 6.2943,4.09171 10.0114,7.86876 10.8019,10.97645 24.4009,16.24269 41.9433,16.24269 13.479598,0 29.994188,-5.62242 37.644788,-12.81623 2.4017,-2.25831 5.3295,-4.06637 6.5063,-4.01791 1.7003,0.07 1.6033,0.34918 -0.4724,1.35964 -3.0535,1.48646 -7.4915,8.6577 -6.4257,10.3829 0.4032,0.65256 2.4484,1.18647 4.5448,1.18647 2.0965,0 8.9424,2.13226 15.2131,4.73836 18.5234,7.698304 34.9299,7.444998 46.5354,-0.71851 3.5489,-2.49635 7.3923,-3.86594 12.0791,-4.30443 4.5275,-0.42358 7.8675,-1.57671 9.7841,-3.37786 l 2.91,-2.73473 6.4817,5.16987 c 3.565,2.84342 9.1168,5.95134 12.3374,6.90647 5.1495,1.52715 5.9045,2.22542 6.2598,5.789568 0.7446,7.468519 13.4591,14.570321 22.521,12.579304 3.9808,-0.874623 8.457,-6.075695 7.108,-8.259084 -0.424,-0.686279 0.8215,-1.77873 2.7676,-2.427675 2.7813,-0.927431 4.6626,-0.536751 8.7917,1.825698 7.0447,4.030665 18.16802,4.158899 24.73132,0.285124 7.14065,-4.214528 9.74771,-10.986255 4.54363,-11.801875 -1.45973,-0.22877 -2.77726,-1.00172 -2.92784,-1.71767 -0.15631,-0.74324 4.75073,-1.67106 11.4376,-2.16263 6.44125,-0.47351 14.53935,-1.51151 17.99576,-2.30669 5.9023,-1.35786 6.52603,-1.24238 10.25855,1.89943 2.18579,1.83986 6.28682,4.52543 9.11341,5.96793 3.93072,2.006 4.91758,3.13925 4.19663,4.8192 -3.44084,8.017788 -0.30467,13.478312 8.65741,15.073782 4.97228,0.885187 6.70128,-0.0433 17.041,-9.151117 2.74513,-2.418059 6.92558,-4.592809 9.75949,-5.077045 12.88,-2.20085 29.32556,-6.46705 38.63332,-10.02198 l 10.2532,-3.91603 4.71133,2.79578 c 9.18625,5.45124 20.45863,10.2893 30.51564,13.097189 5.60405,1.564621 14.94217,5.144056 20.7514,7.954308 10.55398,5.105542 16.79658,6.160492 22.59737,3.818785 z m -18.71894,-6.122233 -5.98365,-3.507854 5.1013,-2.253311 c 6.03719,-2.666704 8.93365,-2.924554 12.3438,-1.098875 2.74956,1.47203 3.45737,4.056857 0.96768,3.533911 -2.45016,-0.514657 -2.72527,3.809692 -0.30154,4.740081 2.42149,0.929539 5.75463,-1.24113 5.75463,-3.74764 0,-0.889697 -1.21363,-3.161059 -2.69697,-5.047454 -3.19098,-4.058057 -8.34074,-4.482027 -16.98371,-1.398237 -6.16978,2.201377 -11.39903,1.872809 -25.86356,-1.62509 -14.45824,-3.49636 -25.19423,-9.75245 -45.20566,-26.34234 -11.80593,-9.78736 -12.9897,-11.14718 -11.01232,-12.65028 2.04542,-1.55482 2.0157,-1.6828 -0.38699,-1.66682 -3.42622,0.0228 -11.21699,3.5557 -8.15769,3.6993 3.73821,0.17546 4.36932,6.23999 1.1085,10.652 -3.02944,4.09895 -2.55957,7.64994 0.65872,4.97808 1.00982,-0.83837 1.83604,-2.2894 1.83604,-3.22451 0,-2.62448 3.75472,-5.76681 5.90459,-4.94155 1.059,0.40653 2.27667,2.13894 2.70593,3.84983 0.47878,1.9083 1.7319,3.11069 3.24193,3.11069 4.19785,0 2.71783,2.21814 -3.00966,4.51062 -3.36619,1.34733 -7.99717,2.02774 -12.03671,1.76848 -5.4889,-0.3523 -6.56803,-0.056 -6.58065,1.80662 -0.0222,3.2747 -1.93272,4.52062 -8.1178,5.29393 -4.2099,0.52635 -5.53038,0.25481 -5.53038,-1.13726 0,-1.00577 0.99547,-1.82869 2.21215,-1.82869 1.67557,0 1.84677,-0.36551 0.70579,-1.50689 -1.14098,-1.14137 -2.02988,-1.07227 -3.66457,0.28489 -1.18703,0.98547 -4.1949,2.49219 -6.68418,3.34825 -4.19375,1.44225 -4.47817,1.37365 -3.87479,-0.93444 0.91556,-3.50231 -1.28775,-4.40779 -2.9888,-1.22827 -1.82775,3.41637 -5.75419,3.26636 -12.94242,-0.49449 l -5.76597,-3.01672 4.70897,-1.55463 c 2.71845,-0.89748 6.80596,-1.18142 9.66977,-0.67172 4.03094,0.71744 4.6626,0.56725 3.36992,-0.80126 -1.27715,-1.3521 -0.5435,-2.15327 3.7206,-4.06302 6.51707,-2.91878 11.53353,-3.10418 11.53353,-0.42625 0,1.09601 1.16177,1.95257 2.64832,1.95257 2.28133,0 2.44704,-0.37621 1.19584,-2.71492 -0.79887,-1.49319 -1.25865,-2.82296 -1.02174,-2.95502 0.79507,-0.44322 9.51504,-3.65793 11.8168,-4.35638 1.51457,-0.45959 2.27721,0.0138 2.27721,1.41337 0,2.34071 2.00273,2.82662 3.26035,0.79103 1.54368,-2.49858 -0.7618,-6.49691 -3.74618,-6.49691 -1.60215,0 -9.90704,2.58276 -18.45531,5.73947 -8.5483,3.1567 -20.12801,7.06831 -25.73274,8.69245 -8.6703,2.51251 -10.36576,2.67577 -11.36613,1.09453 -0.64666,-1.02216 -1.18466,-2.15136 -1.19557,-2.50934 -0.0109,-0.35796 7.73892,-3.1585 17.22182,-6.22341 9.48291,-3.06491 22.21898,-7.66423 28.30239,-10.22071 18.1998,-7.64827 42.42231,-15.82096 53.76289,-18.13965 7.88027,-1.61119 14.89442,-2.02523 26.97274,-1.59218 l 16.32307,0.58524 -2.98513,-3.2221 c -4.01245,-4.33101 -3.87531,-9.76277 0.33002,-13.0718305 5.94043,-4.6743404 14.2693,0.51251 18.05402,11.2432305 1.61693,4.58444 1.6421,5.49521 0.15186,5.49521 -3.21229,0 -13.32047,-4.90832 -14.0558,-6.82521 -1.01732,-2.65203 0.6077,-4.74323 3.47448,-4.4712 3.46728,0.32902 4.04377,-2.57236 0.85077,-4.2817905 -3.89916,-2.0874804 -7.88666,0.40042 -7.88666,4.9206705 0,3.69543 3.16373,9.35582 5.22918,9.35582 0.64781,0 5.54782,2.07498 10.88891,4.61105 8.81487,4.1855 20.3173,13.46695 20.3173,16.39428 0,2.1936 -7.13343,-0.45523 -14.31391,-5.31514 -9.42966,-6.3822 -16.49581,-9.02715 -28.02228,-10.48907 -14.84892,-1.88331 -39.85726,1.93338 -56.61325,8.64009 -9.46446,3.78824 -5.76744,6.93525 8.18628,6.9684 5.62999,0.0134 7.48228,-0.44318 7.48228,-1.84426 0,-1.02412 -1.31754,-2.04922 -2.92785,-2.278 -1.61031,-0.22877 -2.92784,-1.00172 -2.92784,-1.71767 0,-1.19746 1.85548,-1.68475 14.96452,-3.92998 l 4.55443,-0.78005 -3.13614,2.7324 c -2.19549,1.91283 -2.72528,3.14344 -1.76629,4.10275 1.98761,1.98829 6.57444,-0.79912 7.08876,-4.30785 0.33396,-2.27824 1.82781,-3.15614 7.55988,-4.44275 7.88241,-1.76927 10.07653,-1.30022 7.6424,1.63373 -2.8698,3.45909 1.41904,4.56139 5.74852,1.47747 5.29612,-3.77248 14.69161,-2.55001 22.84515,2.97241 l 6.06827,4.11008 -6.82941,-0.74623 c -4.29753,-0.46958 -9.12172,-0.0504 -13.01264,1.13066 -7.98081,2.42253 -10.65667,2.38187 -13.51456,-0.20538 -3.02881,-2.74197 -7.41761,-1.4175 -4.99179,1.50644 0.89829,1.08275 1.4034,2.16584 1.1225,2.40688 -1.49034,1.27881 -11.51931,1.93811 -12.22038,0.80337 -0.95544,-1.54648 -5.85742,-1.76671 -5.85742,-0.26317 0,0.57276 0.65165,1.69326 1.44813,2.49 2.33476,2.33557 0.34804,3.85717 -6.21033,4.7564 -6.91816,0.94857 -9.43275,-0.91818 -6.13988,-4.55803 1.82983,-2.02262 1.38352,-2.221 -5.92415,-2.63315 -4.34668,-0.24516 -7.75548,-0.1 -7.5751,0.32262 0.18036,0.42259 5.01249,4.97086 10.73805,10.10727 11.03268,9.89742 23.89182,17.22248 35.78475,20.38436 9.90619,2.63368 26.4894,2.54237 30.62549,-0.16862 3.61064,-2.3666 4.24172,-7.13391 1.27088,-9.60034 -2.07433,-1.72213 -2.65127,-0.97976 -3.53075,4.5432 -0.35514,2.23014 -1.57883,2.65899 -8.53442,2.99097 -8.32,0.3971 -9.68221,-0.25941 -6.05042,-2.91595 1.74011,-1.27284 1.78494,-1.74987 0.28167,-2.99789 -2.02068,-1.6776 -3.62681,-0.86642 -5.78737,2.92287 -0.99459,1.74439 -2.65694,2.51542 -5.03793,2.33669 -4.02961,-0.30246 -5.99915,-1.75283 -3.56246,-2.62337 0.89462,-0.31962 1.62658,-1.18459 1.62658,-1.92216 0,-0.85099 -2.13214,-1.02119 -5.83469,-0.46577 -4.5413,0.68125 -6.51287,0.36355 -8.89402,-1.43318 l -3.05932,-2.30844 4.33488,-2.32416 c 5.29093,-2.83675 9.98754,-2.98036 12.15188,-0.37158 1.80148,2.17139 5.20506,2.63927 5.20506,0.71554 0,-0.68038 -1.01987,-1.80798 -2.26637,-2.5058 -3.2223,-1.80391 -1.6747,-2.72981 6.10294,-3.65127 6.2951,-0.74582 7.04517,-0.53163 10.2515,2.92745 2.94491,3.17705 3.52527,3.39025 3.90199,1.43344 0.24339,-1.26429 -0.22221,-3.09996 -1.03469,-4.07927 -1.7635,-2.12564 0.96858,-3.16973 7.11801,-2.72022 2.89616,0.2117 4.01112,1.01353 4.31961,3.10645 0.52131,3.53673 2.39777,3.65383 3.48798,0.21769 0.93534,-2.948 4.34521,-3.39549 7.4394,-0.97629 1.53432,1.19962 1.77884,2.40427 0.9306,4.58484 -1.38902,3.57083 -4.74456,5.09481 -6.76582,3.07285 -2.65167,-2.65259 -3.43905,-1.5662 -3.17016,4.37409 0.1456,3.21675 0.69361,5.85272 1.21782,5.8577 1.95995,0.0187 12.71017,-11.34531 12.71017,-13.43578 0,-1.35056 1.04871,-2.17571 2.76519,-2.17571 2.39519,0 2.65779,0.53719 1.96252,4.01469 -1.09123,5.45804 -5.39718,11.21217 -10.28081,13.73846 l -4.04665,2.09333 3.40925,1.7869 c 4.24704,2.22601 5.66475,6.376732 3.53665,10.354481 -2.93561,5.487113 -11.979,5.908531 -20.43343,0.952208 z m -140.12838,1.462307 c -3.67569,-3.676947 -2.03535,-8.873147 3.81084,-12.071866 1.81462,-0.99287 2.01161,-1.43626 0.65063,-1.46457 -4.47675,-0.0931 -18.1226,-7.92518 -24.30692,-13.95097 -11.51832,-11.22306 -14.59808,-20.20018 -12.21068,-35.59263 1.24331,-8.01614 1.16022,-9.86978 -0.56023,-12.49642 -3.04107,-4.64287 -13.29264,-3.83134 -10.41613,0.82455 0.53159,0.86042 1.61986,0.86975 3.19332,0.0273 4.03851,-2.16208 5.5398,1.26532 4.51669,10.31148 -0.49389,4.36692 -1.40642,8.25421 -2.02787,8.63842 -0.62144,0.3842 -1.12988,0.16068 -1.12988,-0.49671 0,-0.65741 -2.45627,-3.9867 -5.45837,-7.39843 -4.32958,-4.92036 -5.4314,-7.15412 -5.32803,-10.80178 0.30964,-10.9273105 16.69224,-11.6247205 21.67395,-0.92267 l 2.42935,5.21888 9.19956,-4.56802 c 8.79492,-4.36711 9.80412,-4.56618 22.9453,-4.52589 12.79002,0.0393 14.34259,0.33337 22.32997,4.23056 9.44239,4.60713 10.68503,4.82073 16.41687,2.82192 7.08422,-2.47042 8.46467,-12.9523205 1.70582,-12.9523205 -3.72594,0 -4.33143,2.1778905 -1.21299,4.3628905 5.58133,3.91066 -2.59522,8.52814 -9.78215,5.52421 -2.38333,-0.99616 -4.688,-2.38525 -5.12147,-3.08688 -1.1078,-1.79306 8.94238,-8.1622205 14.23531,-9.0214409 8.10334,-1.31545 13.22418,4.6671909 9.67433,11.3024309 -1.88616,3.52552 -10.13174,8.22181 -13.08099,7.45029 -3.79987,-0.99403 -3.12836,-0.0286 2.63307,3.7854 5.38536,3.56509 5.71611,4.94517 1.45241,6.06054 -1.57412,0.41178 -4.86393,-1.04596 -8.80381,-3.90106 -11.70051,-8.47894 -19.3911,-11.26903 -31.01453,-11.25188 -11.82822,0.0175 -22.29697,2.94596 -26.33679,7.3674 -3.9296,4.30079 -6.84544,10.7242 -6.84544,15.08003 0,4.80794 4.05568,14.41665 7.31364,17.32748 2.34561,2.09569 2.4483,1.98901 2.50621,-2.60342 0.0332,-2.63376 0.51767,-6.32695 1.07656,-8.2071 0.93427,-3.14295 0.75074,-3.36767 -2.27761,-2.78857 -2.64904,0.50657 -3.447,0.0191 -4.07656,-2.49008 -1.01196,-4.03336 1.14716,-9.64878 4.37424,-11.37645 1.94398,-1.04075 2.70717,-0.9075 3.2746,0.57171 0.40694,1.0608 1.63661,1.92872 2.73261,1.92872 2.38509,0 2.68379,-3.45551 0.36615,-4.23583 -3.15102,-1.06089 1.45679,-4.51036 7.17779,-5.37337 3.03024,-0.45711 7.70542,-1.18209 10.38927,-1.61107 3.97294,-0.63502 4.87975,-0.38305 4.87975,1.35588 0,1.17471 -0.87836,2.47301 -1.9519,2.8851 -3.30706,1.26948 -2.1612,3.07416 1.9519,3.07416 2.98676,0 3.90378,-0.58915 3.90378,-2.50797 0,-5.25013 10.89548,-3.52461 12.26723,1.94275 0.64222,2.55971 1.62381,3.16865 5.10775,3.16865 6.86189,0 6.51804,1.41342 -1.28839,5.29597 -7.31159,3.63644 -10.30605,3.66079 -12.97057,0.10546 -0.81433,-1.08659 -2.36689,-1.56288 -3.57847,-1.0978 -2.94288,1.12968 -2.68364,3.15861 0.53409,4.18023 3.84595,1.22108 2.56833,3.23279 -3.37033,5.30687 -5.83331,2.03728 -8.41268,1.57979 -8.41268,-1.4921 0,-1.15605 -0.73196,-1.84207 -1.62657,-1.52451 -0.89462,0.31757 -1.48425,1.84686 -1.3103,3.39842 0.22273,1.98656 -0.66837,3.1955 -3.01255,4.08706 -5.72815,2.1786 -7.44325,1.65629 -6.52886,-1.98822 1.10857,-4.4184 -2.2108,-4.37033 -4.22927,0.0612 -4.37058,9.59567 0.33475,18.18356 12.44657,22.71673 15.39033,5.76025 34.19297,4.66826 58.84655,-3.41757 11.48275,-3.76609 14.2631,-4.26149 16.98207,-3.02582 l 3.25131,1.47755 -3.52747,1.84887 c -9.10444,4.77193 -35.69975,11.10223 -51.12188,12.16819 -17.88825,1.23641 -19.90601,1.81322 -20.95397,5.990026 -1.00903,4.021711 0.24657,5.788111 4.11433,5.788111 2.34336,0 3.17636,-0.705756 3.17636,-2.691145 0,-2.098765 -0.57287,-2.509263 -2.60252,-1.864848 -1.47279,0.467601 -2.60253,0.233918 -2.60253,-0.538342 0,-1.480241 2.35007,-2.127126 12.362,-3.402816 7.21021,-0.918696 7.16724,-0.776866 -1.9519,6.440678 -6.33508,5.014045 -11.55532,5.931738 -14.87157,2.61434 z M 568.5375,79.739771 c 0,-11.13965 0.009,-11.16785 4.50527,-14.9232 3.73277,-3.11732 5.74086,-3.7766 11.71137,-3.84496 6.20598,-0.0711 6.75461,-0.26733 3.95295,-1.41416 -1.78923,-0.7324 -6.03543,-1.01566 -9.43599,-0.62946 l -6.18282,0.70219 1.92772,-3.72909 c 4.34983,-8.41455 13.64678,-12.44268 26.36139,-11.42172 9.6026,0.77107 9.39974,-0.94469 -0.30829,-2.60755 l -6.50632,-1.11445 6.50632,-2.36566 c 10.44419,-3.79746 21.81439,-9.54261 26.02527,-13.1501 3.72811,-3.1939 3.58172,-3.16907 -3.25316,0.55157 -8.51403,4.63472 -23.77695,10.52842 -27.26541,10.52842 -2.18044,0 -2.33493,-0.51294 -1.27156,-4.22197 0.66574,-2.32208 1.14472,-5.98314 1.0644,-8.13569 -0.1154,-3.09309 -0.45647,-2.54899 -1.62657,2.59483 -2.0407,8.97097 -4.00222,11.94003 -9.86477,14.93192 l -5.04405,2.57417 -0.85407,-6.21188 c -1.27158,-9.24872 -2.67618,-10.17275 -2.68693,-1.76761 -0.008,5.97583 -0.83371,8.83258 -4.30291,14.88048 -2.36142,4.11667 -4.7545,7.48484 -5.31798,7.48484 -0.56348,0 -1.3833,-3.03044 -1.82181,-6.7343 -0.43853,-3.70387 -1.39844,-7.33565 -2.13315,-8.07061 -2.29242,-2.2932 -1.46861,-3.74793 1.77156,-3.12832 2.81514,0.53834 3.16646,0.0701 3.73532,-4.9786 0.34536,-3.06505 2.21024,-8.27376 4.14418,-11.57491 l 3.51625,-6.00209 4.00373,2.53585 4.00373,2.53585 3.15762,-3.15871 c 1.7367,-1.73729 5.8039,-4.40303 9.03823,-5.92386 6.23683,-2.93267 8.16844,-2.18724 8.21531,3.17038 0.0219,2.49432 1.40903,2.94584 3.33815,1.08649 0.67991,-0.65532 5.92075,-1.50542 11.64631,-1.88911 9.69528,-0.64974 10.64773,-0.97941 13.87063,-4.80113 3.34704,-3.9689305 3.50704,-4.0165005 4.87974,-1.45073 2.97571,5.56209 0.81781,15.38399 -4.3164,19.64647 -1.7883,1.48468 -1.79393,2.06853 -0.0524,5.43747 l 1.95105,3.7742 h -4.82763 c -4.62444,0 -16.05942,4.49409 -16.05942,6.31155 0,0.47986 1.17114,1.6041 2.60252,2.49833 5.0353,3.14568 3.06372,4.90635 -5.53037,4.93876 -4.4731,0.0169 -9.82845,0.75575 -11.9008,1.64196 l -3.7679,1.61129 2.79195,2.97292 c 1.53558,1.63511 2.79195,4.56235 2.79195,6.50499 v 3.53206 l -8.3051,-0.85118 c -6.67859,-0.68448 -9.06509,-0.40209 -12.18563,1.4419 -6.00399,3.54786 -8.73061,9.2202 -8.63287,17.959394 0.0773,6.91237 -0.0924,7.381035 -1.98704,5.485786 -1.57244,-1.572988 -2.07158,-4.761403 -2.07158,-13.23302 z M 265.86347,93.582333 c -6.2232,-1.729281 -9.3615,-5.455257 -9.5664,-11.357822 -0.1333,-3.83888 -0.6982,-4.8728 -2.7181,-4.97523 -6.8303,-0.34639 -8.3833,-0.85552 -14.0381,-4.60243 -3.3433,-2.21529 -6.0788,-4.51059 -6.0788,-5.10068 0,-2.04888 8.7883,-6.49205 12.8409,-6.49205 5.0318,0 5.249,-1.92953 0.494,-4.38929 -4.2677,-2.20769 -8.867,-7.02258 -7.763,-8.12695 0.4315,-0.43169 2.575,0.49044 4.7633,2.04918 2.1883,1.55874 3.9787,2.50497 3.9787,2.10273 0,-0.40222 -2.4887,-2.56001 -5.5304,-4.79506 -5.7688,-4.23897 -4.3117,-4.314 5.5304,-0.28475 5.1085,2.09134 3.9317,0.30993 -1.7235,-2.60919 -2.0215,-1.04343 -3.1926,-2.17751 -2.6025,-2.52017 1.4565,-0.84578 16.5609,5.43373 25.2396,10.49309 l 7.0636,4.11784 -5.8557,0.0414 c -3.4014,0.024 -8.7191,1.37499 -12.6873,3.2231 -8.1572,3.79903 -8.972,5.2431 -1.463,2.59286 5.7057,-2.01377 22.9107,-2.37227 28.4642,-0.59311 2.5245,0.80875 2.6958,1.07126 0.7649,1.17196 -3.8742,0.20203 -13.32,6.24449 -16.295,10.42398 -4.213,5.91855 -3.1941,5.99358 3.3338,0.24551 8.5752,-7.55085 17.3276,-9.56875 28.2928,-6.52307 3.71656,1.03231 4.65397,1.78061 3.57845,2.85651 -0.8015,0.80177 -1.43435,3.24437 -1.40634,5.42799 l 0.051,3.97022 1.75626,-4.03575 c 1.96875,-4.52403 4.17524,-5.72709 10.50389,-5.72709 2.38785,0 5.26444,-0.35426 6.39242,-0.78725 3.19983,-1.22831 1.05524,-3.11767 -3.54138,-3.1199 -12.3972,-0.006 -19.0396,-11.37949 -11.59708,-19.85706 3.37841,-3.84823 0.65695,-4.10429 -2.89326,-0.27223 -3.53456,3.81512 -4.11686,7.46519 -2.05616,12.88716 2.01779,5.30907 -1.9386,4.23811 -5.7768,-1.5637 -4.4809,-6.77346 -5.2171,-11.87198 -3.318,-22.97833 1.1897,-6.95689 1.2476,-10.20298 0.2138,-11.98309 -1.2383,-2.13242 -1.4228,-1.91399 -1.4574,1.72557 -0.022,2.29188 -0.8829,7.40608 -1.9137,11.36489 -1.9945,7.66003 -1.4984,14.75157 1.4405,20.59055 2.0782,4.12882 0.8653,4.543 -4.7687,1.6285 -4.6513,-2.40611 -9.4101,-8.51017 -12.7974,-16.4151 -2.2258,-5.19425 -8.2241,-12.87477 -10.055,-12.87477 -0.3355,0 0.8395,2.19664 2.6111,4.88142 2.5783,3.90739 7.226,14.65491 7.226,16.70965 0,0.24 -4.2454,-1.60356 -9.4342,-4.09679 -5.1888,-2.49323 -11.6776,-4.89591 -14.4195,-5.33929 -7.581,-1.22584 -2.9159,-3.10788 5.636,-2.27372 6.1859,0.60337 6.8038,0.46922 4.5544,-0.98876 -1.4442,-0.93605 -6.3897,-1.69714 -11.1113,-1.70997 -7.4458,-0.0202 -9.4489,0.54609 -16.0323,4.53286 -9.1408,5.53548 -13.4955,11.74222 -11.7407,16.73382 0.6608,1.87958 2.3418,3.63711 3.7357,3.90562 2.1982,0.4235 2.3029,0.20944 0.7897,-1.61449 -1.0447,-1.25922 -1.1894,-2.1027 -0.3607,-2.1027 2.1296,0 3.1597,2.44842 2.3641,5.61937 -1.0553,4.20591 -7.9527,7.84902 -13.2365,6.99128 -2.9739,-0.48274 -4.8585,-0.087 -5.9709,1.25378 -0.894,1.07756 -4.59,3.50961 -8.2135,5.40456 -5.3915,2.81963 -8.3605,3.45132 -16.3475,3.47816 -8.9187,0.03 -10.2837,-0.33134 -15.8442,-4.19405 -4.3808,-3.04313 -7.0495,-6.26685 -9.5297,-11.51137 -1.8948,-4.00648 -3.2556,-7.44827 -3.0241,-7.64843 0.2314,-0.20015 2.2948,-1.31707 4.5853,-2.48203 4.8042,-2.4435 8.6123,-2.6843 12.1869,-0.7706 3.6273,1.94195 3.1836,5.16104 -0.7114,5.16104 -4.6618,0 -5.5012,4.79667 -1.906,10.89213 3.3192,5.6275 8.8896,8.89389 15.1676,8.89389 5.4627,0 7.5118,-1.52599 2.2203,-1.65355 -8.271,-0.19938 -8.6886,-1.92105 -0.8584,-3.5389 8.7974,-1.8177 16.6881,-7.69952 21.2702,-15.85498 l 2.8374,-5.0504 2.7436,5.36886 c 1.5089,2.95287 3.4163,5.57369 4.2388,5.82404 0.8534,0.25979 0.3999,-1.7595 -1.0564,-4.704 -2.1681,-4.3837 -2.3388,-5.94982 -1.1358,-10.41922 3.9413,-14.64159 18.0131,-20.00494 39.4094,-15.02052 3.0652,0.71406 3.5785,0.42617 3.5785,-2.00711 0,-1.56242 -0.5871,-3.93823 -1.3048,-5.27959 -3.2532,-6.08084 8.2343,-4.55964 15.5594,2.06039 l 4.9905,4.51014 1.2773,-3.60741 c 0.7025,-1.98407 3.1064,-5.50583 5.342,-7.82612 2.2356,-2.32029 4.0647,-5.1027 4.0647,-6.18312 0,-2.70236 3.7378,-2.4528 8.7128,0.58172 5.4659,3.33391 8.54758,8.22599 8.90486,14.13618 0.28176,4.6613 0.46072,4.82059 6.37556,5.67501 9.69227,1.40007 13.5301,6.4937 8.60492,11.42058 -1.468,1.4685 -2.66909,3.572 -2.66909,4.67442 0,4.36879 5.18846,12.00989 9.56591,14.08784 4.60467,2.18581 14.62828,2.84329 17.31105,1.13549 0.82628,-0.52599 -0.93043,-0.97874 -3.90379,-1.00611 -2.97336,-0.0273 -7.01642,-0.47784 -8.98459,-1.00108 -7.05523,-1.87563 -3.37604,-3.02783 7.79547,-2.44127 8.45052,0.4437 11.77009,1.13651 12.91519,2.6955 2.05031,2.79137 -1.1756,3.6877 -19.72201,5.47985 -8.01268,0.77427 -14.73521,2.0518 -15.28821,2.90533 -1.61763,2.4967 -0.51674,5.34393 2.59579,6.71349 3.9329,1.73055 3.68577,2.8424 -1.30886,5.888722 -5.65552,3.449424 -15.8153,3.449424 -21.4709,0 -2.326,-1.418672 -4.2291,-3.404022 -4.2291,-4.411852 0,-3.30293 -3.5183,-3.34179 -5.0152,-0.0553 -1.1429,2.5092 -2.4352,3.15969 -6.3429,3.19266 -6.0843,0.0513 -10.1413,2.828175 -8.8817,6.079189 0.8614,2.223495 0.9906,2.226619 2.5838,0.06258 1.9678,-2.672771 4.6434,-3.010301 4.6434,-0.58577 0,4.528198 -4.8218,5.812284 -13.1429,3.500055 z M 599.69328,82.638781 c -1.38814,-1.01537 -2.20645,-2.16368 -1.81847,-2.55179 1.29919,-1.29965 6.44745,0.77419 6.44745,2.59719 0,2.29768 -1.44511,2.28352 -4.62898,-0.0454 z m 2.55464,-6.72933 c -7.50448,-3.5514 -8.76229,-5.75262 -1.92465,-3.36818 2.21529,0.77252 4.25144,0.87273 4.64927,0.22881 0.3893,-0.63012 2.72571,-0.30225 5.19203,0.7286 5.83065,2.43704 10.38595,2.3767 12.93306,-0.17128 4.56376,-4.56533 0.60471,-6.99479 -7.19983,-4.41817 -6.20702,2.04921 -8.59599,0.55269 -5.70617,-3.5745 6.41341,-9.15958 25.34094,-0.3043 20.13767,9.42144 -3.51891,6.57739 -15.57356,7.07247 -28.08138,1.15328 z m -13.14296,0.22509 c -2.00807,-1.72895 -3.25239,-3.54334 -2.76517,-4.03197 1.24781,-1.25144 8.87362,3.47825 8.87362,5.5036 0,2.51785 -2.04792,2.02448 -6.10845,-1.47163 z m -439.02829,-3.42095 c -1.2798,-0.68517 -4.1221,-1.24579 -6.3162,-1.24579 -4.4256,0 -5.0263,-1.38015 -1.9434,-4.46417 1.3104,-1.31079 3.1819,-1.76154 5.2051,-1.25358 3.9932,1.00259 4.1886,-1.47928 0.4313,-5.4801 -1.9925,-2.12166 -2.3991,-3.49203 -1.5084,-5.08418 1.0372,-1.85399 1.4738,-1.5653 2.922,1.93219 1.2708,3.06893 2.005,3.67687 2.8949,2.39687 0.7879,-1.13334 0.8954,-0.66637 0.3169,1.37688 -0.5511,1.94695 -0.3887,2.79105 0.4387,2.27953 0.7226,-0.44678 1.9463,1.00236 2.7192,3.22031 0.7729,2.21795 3.6114,6.06626 6.3077,8.5518 l 4.9025,4.51917 -7.0216,-2.75157 c -3.8619,-1.51336 -8.0688,-3.31217 -9.3487,-3.99736 z m -69.805488,-0.48388 c -8.3489,-2.22343 -13.7622,-5.50195 -20.4666,-12.39533 -3.9625,-4.07425 -4.6032,-5.28882 -2.7898,-5.28882 1.2947,0 3.4257,1.36291 4.7356,3.0287 1.3098,1.66578 6.0787,5.01071 10.5974,7.43318 7.3892,3.96137 9.4986,4.45792 20.9659,4.9355 12.732298,0.53026 23.769188,-1.39804 32.143488,-5.61592 1.8062,-0.90974 4.4069,-1.22126 5.8471,-0.7004 2.3218,0.8397 2.1171,1.18702 -1.9519,3.31101 -13.2962,6.94059 -34.362188,9.21199 -49.081188,5.29208 z m 100.490188,-2.56596 c 2.1474,-0.93619 4.7739,-2.75033 5.8368,-4.03142 1.4629,-1.76331 0.2364,-1.46953 -5.0478,1.2091 l -6.9802,3.53836 5.6838,-6.74297 c 3.1261,-3.70864 7.3677,-7.61407 9.4259,-8.67875 3.8265,-1.97943 3.4416,-3.71172 -1.0036,-4.51672 -9.3312,-1.68984 6.4689,-12.00925 24.5809,-16.0544 l 3.8684,-0.86398 -2.5651,2.83541 c -1.4108,1.55948 -6.665,5.1652 -11.676,8.01272 l -9.1109,5.1773 5.5023,-0.76659 c 5.4431,-0.75835 5.4889,-0.73139 4.2579,2.50742 -4.6991,12.36385 -13.5919,20.22057 -22.7729,20.11961 l -3.9038,-0.043 z m -11.0612,-6.08304 c 0,-2.40721 1.2739,-3.09216 4.8797,-2.62376 2.0798,0.27017 2.1654,-6.6534 0.1077,-8.71179 -1.1576,-1.15804 -1.0046,-1.71676 0.6432,-2.34931 1.1891,-0.45646 1.8422,-1.34762 1.4513,-1.98034 -1.101,-1.78207 3.7228,0.29205 6.0726,2.6111 1.9219,1.89672 1.7722,2.4939 -1.824,7.27323 -7.2666,9.65719 -11.3305,11.73064 -11.3305,5.78087 z m 60.698,-1.19542 c 0.6696,-3.34906 0.2243,-4.18921 -3.2774,-6.18313 -4.7289,-2.69268 -5.1552,-4.88853 -1.3451,-6.92833 3.8098,-2.03962 7.7607,-0.72225 12.2769,4.0935 2.8255,3.01288 3.3861,4.29718 2.0803,4.76593 -0.9831,0.3529 -3.6181,2.30884 -5.8557,4.34652 -2.2375,2.03768 -4.2,3.72204 -4.361,3.74302 -0.1611,0.021 0.056,-1.70589 0.482,-3.83751 z m 321.51579,-2.68687 c -13.97865,-6.54364 -26.25485,-8.42759 -43.35973,-6.65412 -14.8628,1.54101 -17.10075,2.0715 -32.11575,7.6129 -8.49148,3.13384 -8.9455,3.17091 -12.2563,1.00085 l -3.43817,-2.25355 3.14746,-1.63889 c 5.89397,-3.06905 22.63806,-8.27931 33.70369,-10.48758 18.17409,-3.62684 44.74481,-1.04175 58.58034,5.69934 3.6168,1.76221 4.63837,3.08998 4.96218,6.44961 0.22427,2.3268 0.14363,4.23056 -0.17922,4.23056 -0.32284,0 -4.39286,-1.7816 -9.0445,-3.95912 z m -431.64189,1.03027 c 0.011,-0.89492 0.515,-2.40847 1.1202,-3.36343 0.8776,-1.38504 1.2685,-1.29767 1.9319,0.4319 1.292,3.36791 0.9994,4.55867 -1.1202,4.55867 -1.0735,0 -1.9429,-0.73221 -1.9319,-1.62714 z m -11.77519,-2.85782 c -12.121398,-7.64284 -14.681598,-11.98827 -11.189098,-18.99152 1.7125,-3.43405 1.6694,-3.82839 -0.4935,-4.51511 -2.5365,-0.80532 -5.1899,-6.89193 -5.1899,-11.90485 0,-3.51173 0.9785,-3.78462 4.5901,-1.28012 1.6049,1.11287 7.696598,2.00348 16.254898,2.37645 10.46499,0.45607 14.56519,1.17149 17.41349,3.03836 3.3812,2.21619 3.4991,2.5293 1.2764,3.3884 -1.3469,0.5206 -3.9413,1.26277 -5.7653,1.64926 -5.1225,1.08541 -12.53079,7.41962 -15.01589,12.83883 -1.2345,2.69208 -1.9682,5.17112 -1.6305,5.50898 0.3378,0.33788 1.6715,-1.78322 2.964,-4.71352 5.00299,-11.34354 24.43949,-15.1127 36.93789,-7.16307 5.9426,3.77982 10.1653,10.86233 7.8631,13.18833 -0.8564,0.86528 -1.7421,0.49706 -2.6415,-1.09825 -2.0639,-3.66064 -9.4041,-6.29799 -13.3508,-4.79695 -3.8882,1.47881 -5.7327,7.1211 -3.498,10.7006 2.2673,3.6318 0.7566,4.82097 -4.5916,3.61433 -5.2833,-1.19198 -7.2709,-3.36762 -6.2055,-6.7926 0.3898,-1.25289 0.1485,-2.27799 -0.5362,-2.27799 -2.5428,0 -7.1526,4.87999 -7.4819,7.92048 -0.1874,1.72924 -0.3894,3.2905 -0.449,3.4695 -0.3342,1.00291 -2.90449,-0.15152 -9.26119,-4.15954 z m 6.966,-10.54179 c 1.26399,-2.65168 2.02359,-5.09604 1.68779,-5.4319 -0.8746,-0.8749 -4.95119,7.35688 -4.42519,8.93559 0.2415,0.72465 1.4733,-0.85201 2.7374,-3.50369 z m 4.83579,-0.80773 c 1.4901,-2.90653 1.4552,-2.94144 -0.793,-0.79334 -1.2935,1.23586 -1.9949,2.60401 -1.5587,3.04035 0.4362,0.43633 1.4945,-0.57482 2.3517,-2.24701 z m -13.64549,-0.22992 c 0.4629,-1.84496 1.6626,-4.03601 2.6659,-4.86897 1.0033,-0.83298 1.8242,-2.11933 1.8242,-2.85857 0,-0.73924 -1.1185,-0.33152 -2.4855,0.90604 -2.494,2.25783 -4.7147,8.30684 -3.4968,9.52513 0.3578,0.35797 1.0293,-0.85866 1.4922,-2.70363 z m -3.3175,-4.11213 c 0.6803,-1.78985 1.9345,-3.25427 2.7872,-3.25427 0.8527,0 1.1741,-0.37636 0.7143,-0.83636 -1.1935,-1.19395 -4.4009,1.76206 -5.1909,4.78414 -0.9549,3.65264 0.2211,3.16993 1.6894,-0.69351 z m -2.3377,-1.98209 c 1.2192,-2.13159 1.679,-3.87561 1.0217,-3.87561 -1.4747,0 -4.208598,4.9095 -3.648098,6.5512 0.2253,0.66 1.4072,-0.54401 2.626398,-2.67559 z m 38.33899,15.09438 c -0.3918,-1.02156 0.063,-2.50095 1.0101,-3.2875 1.2947,-1.07483 1.923,-0.9076 2.5294,0.67315 0.8697,2.26726 0.011,4.47175 -1.7417,4.47175 -0.5969,0 -1.4059,-0.83584 -1.7978,-1.8574 z m -92.086788,-4.85424 c -6.7079,-2.28202 -13.2634,-8.00074 -20.7466,-18.09856 -7.4142,-10.00463 -11.6834,-12.93943 -18.8229028,-12.93943 -2.7992,0 -4.3711,-0.52576 -3.8917,-1.30172 1.3454,-2.17756 10.1576028,-1.44603 14.5018028,1.20386 2.2505,1.3727 5.7639,4.69128 7.8076,7.37463 5.9699,7.83816 15.1026,17.53865 17.9447,19.06021 8.2445,4.41383 20.2547,2.82448 20.2547,-2.68037 0,-6.12631 -8.1503,-6.82698 -9.6549,-0.83002 -0.4997,1.99162 -1.7358,3.20764 -3.2607,3.20764 -3.3626,0 -2.1195,-4.45041 2.1903,-7.84168 4.1783,-3.28773 8.7204,-3.27587 12.0266,0.0314 8.4255,8.42837 -4.5678,17.5023 -18.3489,12.81404 z m 114.642388,-1.72756 c 0,-2.55313 27.885,-12.26346 29.7782,-10.3696 0.886,0.88631 -4.0555,4.3896 -6.3555,4.50571 -1.0735,0.0542 -4.2941,1.00302 -7.1569,2.10852 -4.3805,1.69156 -11.4186,3.64081 -15.2899,4.2346 -0.5367,0.0823 -0.9759,-0.13332 -0.9759,-0.47923 z"
 />
</svg>
