<?xml version="1.0" encoding="UTF-8"?>
<svg width="10" height="10" version="1.1" viewBox="0 0 10 10" xmlns="http://www.w3.org/2000/svg">
	<path d="m3.7892 7.6825c0 0.35167-0.31917 0.42958-0.60542 0.42958-0.28 0-0.69667-0.045417-0.69667-0.41 0-0.35792 0.35167-0.41667 0.63792-0.41667 0.27333 0 0.66417 0.045417 0.66417 0.39708zm-0.23458-3.0342c0 0.32542-0.13042 0.55333-0.48167 0.55333-0.35792 0-0.50125-0.20833-0.50125-0.54708s0.13042-0.58583 0.50125-0.58583c0.33208 0 0.48167 0.27333 0.48167 0.57958zm1.0808-0.48833v-0.81375c-0.28 0.10417-0.57958 0.18875-0.87875 0.18875-0.215-0.12375-0.46208-0.18875-0.71625-0.18875-0.74208 0-1.3279 0.54708-1.3279 1.3021 0 0.40375 0.26708 0.96333 0.67042 1.1004v0.019583c-0.20833 0.09125-0.2475 0.345-0.2475 0.55333 0 0.215 0.077917 0.39083 0.26708 0.50125v0.019583c-0.4425 0.14333-0.73583 0.42333-0.73583 0.905 0 0.82667 0.78792 1.0612 1.4779 1.0612 0.83333 0 1.4583-0.30583 1.4583-1.2242 0-0.65125-0.5925-0.84625-1.1329-0.94417-0.1825-0.0325-0.495-0.16292-0.495-0.39083 0-0.215 0.11708-0.30583 0.31917-0.33833 0.66417-0.13042 1.0871-0.64458 1.0871-1.3279 0-0.11708-0.02625-0.22792-0.065-0.33833 0.10417-0.02625 0.215-0.052083 0.31917-0.084583zm0.38417 2.7279h0.89208c-0.012917-0.17583-0.012917-0.35792-0.012917-0.53375v-2.5196c0-0.14958 0-0.29958 0.012917-0.44917h-0.89208c0.019583 0.14958 0.019583 0.3125 0.019583 0.46208v2.5521c0 0.16292 0 0.32542-0.019583 0.48833zm3.3138-0.10417v-0.78792c-0.13042 0.09125-0.28667 0.13667-0.4425 0.13667-0.29292 0-0.345-0.29292-0.345-0.53375v-1.465h0.33833c0.11708 0 0.22792 0.012917 0.345 0.012917v-0.76167h-0.68375c0-0.22125-0.012917-0.4425 0.019583-0.66417h-0.91167c0.019583 0.11708 0.02625 0.23417 0.02625 0.35792v0.30583h-0.39083v0.76167c0.077917-0.00667 0.15625-0.019583 0.24083-0.019583 0.045417 0 0.0975 0.00667 0.14958 0.00667v0.012917h-0.012917v1.4129c0 0.70292 0.10417 1.3804 0.96333 1.3804 0.24083 0 0.48833-0.039167 0.70292-0.15625zm-2.3175-4.5962c0-0.30583-0.22792-0.5925-0.54708-0.5925s-0.55333 0.28-0.55333 0.5925c0 0.30583 0.24083 0.57958 0.55333 0.57958s0.54708-0.28 0.54708-0.57958zm3.9842-0.3125v6.25c0 1.035-0.84 1.875-1.875 1.875h-6.25c-1.035 0-1.875-0.84-1.875-1.875v-6.25c0-1.035 0.84-1.875 1.875-1.875h6.25c1.035 0 1.875 0.84 1.875 1.875z" fill="#222"/>
</svg>
