<?xml version="1.0" encoding="UTF-8" standalone="no"?>
<svg
   xmlns="http://www.w3.org/2000/svg"
   version="1.1"
   width="10"
   height="10"
   viewBox="0 0 10 10">
  <path
     d="m 3.7891667,7.6825 c 0,0.3516667 -0.3191667,0.4295833 -0.6054167,0.4295833 -0.28,0 -0.6966667,-0.045417 -0.6966667,-0.41 0,-0.3579166 0.3516667,-0.4166666 0.6379167,-0.4166666 0.2733333,0 0.6641667,0.045417 0.6641667,0.3970833 z M 3.5545833,4.6483333 c 0,0.3254167 -0.1304166,0.5533334 -0.4816666,0.5533334 -0.3579167,0 -0.50125,-0.2083334 -0.50125,-0.5470834 0,-0.33875 0.1304166,-0.5858333 0.50125,-0.5858333 0.3320833,0 0.4816666,0.2733333 0.4816666,0.5795833 z M 4.6354167,4.16 l 0,-0.81375 C 4.3554167,3.4504167 4.0558333,3.535 3.7566667,3.535 3.5416667,3.41125 3.2945833,3.34625 3.0404167,3.34625 2.2983333,3.34625 1.7125,3.8933333 1.7125,4.6483333 c 0,0.40375 0.2670833,0.9633334 0.6704167,1.1004167 l 0,0.019583 c -0.2083334,0.09125 -0.2475,0.345 -0.2475,0.5533334 0,0.215 0.077917,0.3908333 0.2670833,0.50125 l 0,0.019583 C 1.96,6.9858333 1.6666667,7.2658333 1.6666667,7.7475 c 0,0.8266667 0.7879166,1.06125 1.4779166,1.06125 0.8333334,0 1.4583334,-0.3058333 1.4583334,-1.2241667 0,-0.65125 -0.5925,-0.84625 -1.1329167,-0.9441666 C 3.2875,6.6079167 2.975,6.4775 2.975,6.2495833 2.975,6.0345833 3.0920833,5.94375 3.2941667,5.91125 3.9583333,5.7808333 4.38125,5.2666667 4.38125,4.5833333 4.38125,4.46625 4.355,4.3554167 4.31625,4.245 4.4204167,4.21875 4.53125,4.1929167 4.6354167,4.1604167 Z m 0.3841666,2.7279167 0.8920834,0 C 5.89875,6.7120833 5.89875,6.53 5.89875,6.3541667 l 0,-2.5195834 c 0,-0.1495833 0,-0.2995833 0.012917,-0.4491666 l -0.8920834,0 C 5.0391667,3.535 5.0391667,3.6979167 5.0391667,3.8475 l 0,2.5520833 c 0,0.1629167 0,0.3254167 -0.019583,0.4883334 z m 3.31375,-0.1041667 0,-0.7879167 C 8.2029167,6.0870833 8.0466667,6.1325 7.8908333,6.1325 c -0.2929166,0 -0.345,-0.2929167 -0.345,-0.53375 l 0,-1.465 0.3383334,0 c 0.1170833,0 0.2279166,0.012917 0.345,0.012917 l 0,-0.7616667 -0.68375,0 C 7.5454167,3.16375 7.5325,2.9425 7.565,2.7208333 l -0.9116667,0 C 6.6729167,2.8379167 6.6795833,2.955 6.6795833,3.07875 l 0,0.3058333 -0.3908333,0 0,0.7616667 C 6.366667,4.13958 6.445,4.126667 6.5295833,4.126667 c 0.045417,0 0.0975,0.00667 0.1495834,0.00667 l 0,0.012917 -0.012917,0 0,1.4129167 c 0,0.7029166 0.1041667,1.3804166 0.9633333,1.3804166 0.2408334,0 0.4883334,-0.039167 0.7029167,-0.15625 z m -2.3175,-4.59625 c 0,-0.3058333 -0.2279166,-0.5925 -0.5470833,-0.5925 -0.3191667,0 -0.5533333,0.28 -0.5533333,0.5925 0,0.3058333 0.2408333,0.5795833 0.5533333,0.5795833 0.3125,0 0.5470833,-0.28 0.5470833,-0.5795833 z M 10,1.875 10,8.125 C 10,9.16 9.16,10 8.125,10 l -6.25,0 C 0.84,10 0,9.16 0,8.125 L 0,1.875 C 0,0.84 0.84,0 1.875,0 l 6.25,0 C 9.16,0 10,0.84 10,1.875 Z"
     style="fill:#222222" />
</svg>
