<?xml version="1.0" encoding="UTF-8" standalone="no"?>
<svg
   xmlns:dc="http://purl.org/dc/elements/1.1/"
   xmlns:cc="http://creativecommons.org/ns#"
   xmlns:rdf="http://www.w3.org/1999/02/22-rdf-syntax-ns#"
   xmlns:svg="http://www.w3.org/2000/svg"
   xmlns="http://www.w3.org/2000/svg"
   id="svg4"
   viewBox="0 0 10 10"
   version="1.1"
   height="10"
   width="10">
  <metadata
     id="metadata10">
    <rdf:RDF>
      <cc:Work
         rdf:about="">
        <dc:format>image/svg+xml</dc:format>
        <dc:type
           rdf:resource="http://purl.org/dc/dcmitype/StillImage" />
        <dc:title></dc:title>
      </cc:Work>
    </rdf:RDF>
  </metadata>
  <defs
     id="defs8" />
  <path
     id="path2"
     d="M 1.875 0 C 0.84 0 0 0.84 0 1.875 L 0 8.125 C 0 9.16 0.84 10 1.875 10 L 8.125 10 C 9.16 10 10 9.16 10 8.125 L 10 1.875 C 10 0.84 9.16 0 8.125 0 L 1.875 0 z M 4.9941406 2 C 5.0930322 2 5.1921606 2.0378311 5.2675781 2.1132812 L 7.8867188 4.7324219 C 8.037619 4.8833222 8.037619 5.1283966 7.8867188 5.2792969 L 5.2792969 7.8867188 C 5.128266 8.037619 4.8832569 8.037619 4.7324219 7.8867188 L 2.1132812 5.2675781 C 1.962381 5.1166778 1.962381 4.871734 2.1132812 4.7207031 L 3.9101562 2.9238281 L 4.5898438 3.6054688 C 4.520107 3.7724974 4.5534404 3.9714746 4.6894531 4.1074219 C 4.7339853 4.1520848 4.7849948 4.1845693 4.8398438 4.2070312 L 4.8398438 5.8554688 C 4.7849947 5.8779304 4.7338551 5.9107421 4.6894531 5.9550781 C 4.5098876 6.1345783 4.5098876 6.425642 4.6894531 6.6054688 C 4.8688879 6.7849688 5.1583251 6.7849689 5.3378906 6.6054688 C 5.5174561 6.4257073 5.5174561 6.1346436 5.3378906 5.9550781 C 5.3014548 5.9186431 5.2605459 5.8908196 5.2167969 5.8691406 L 5.2167969 4.2363281 L 5.8378906 4.8574219 C 5.7693945 5.0237975 5.8024668 5.2222581 5.9375 5.3574219 C 6.1172613 5.5370527 6.4081946 5.5370527 6.5878906 5.3574219 C 6.7674561 5.1777259 6.7674561 4.8865967 6.5878906 4.7070312 C 6.459387 4.5783318 6.2742372 4.5421543 6.1132812 4.5976562 L 5.4472656 3.9316406 C 5.502833 3.7706847 5.4664595 3.5856654 5.3378906 3.4570312 C 5.2101053 3.3291806 5.0275558 3.2934602 4.8671875 3.3476562 L 4.1777344 2.65625 L 4.7207031 2.1132812 C 4.7961859 2.0378311 4.895249 2 4.9941406 2 z "
     style="fill:#222222;fill-opacity:1" />
</svg>
