<?xml version="1.0" encoding="UTF-8" standalone="no"?>
<svg
   xmlns:dc="http://purl.org/dc/elements/1.1/"
   xmlns:cc="http://creativecommons.org/ns#"
   xmlns:rdf="http://www.w3.org/1999/02/22-rdf-syntax-ns#"
   xmlns:svg="http://www.w3.org/2000/svg"
   xmlns="http://www.w3.org/2000/svg"
   id="svg4"
   viewBox="0 0 10 10"
   version="1.1"
   height="10"
   width="10">
  <metadata
     id="metadata10">
    <rdf:RDF>
      <cc:Work
         rdf:about="">
        <dc:format>image/svg+xml</dc:format>
        <dc:type
           rdf:resource="http://purl.org/dc/dcmitype/StillImage" />
        <dc:title></dc:title>
      </cc:Work>
    </rdf:RDF>
  </metadata>
  <defs
     id="defs8" />
  <path
     id="path2"
     d="M 1.875 0 C 0.84 0 0 0.84 0 1.875 L 0 8.125 C 0 9.16 0.84 10 1.875 10 L 8.125 10 C 9.16 10 10 9.16 10 8.125 L 10 1.875 C 10 0.84 9.16 0 8.125 0 L 1.875 0 z M 5 2 C 6.65625 2 8 3.34375 8 5 C 8 6.65625 6.65625 8 5 8 C 3.3437499 8 2 6.65625 2 5 C 2 3.34375 3.3437499 2 5 2 z M 4.6210938 2.5859375 C 4.5468447 2.6756935 4.6992808 2.6874385 4.7382812 2.7109375 C 4.7500303 2.7186775 4.7967822 2.746123 4.7695312 2.765625 C 4.7460302 2.777374 4.6757197 2.796995 4.6679688 2.8125 C 4.6444677 2.847749 4.6951563 2.8866266 4.6601562 2.921875 C 4.6249053 2.886626 4.6249042 2.8280657 4.5976562 2.7890625 C 4.6329072 2.8320635 4.4571862 2.8085937 4.4609375 2.8085938 C 4.4024365 2.8085938 4.3086249 2.8475685 4.265625 2.7890625 C 4.257875 2.7733155 4.25775 2.6836233 4.28125 2.703125 C 4.245999 2.675871 4.2227177 2.6483165 4.1992188 2.6328125 C 4.0702184 2.6758135 3.9492813 2.7304696 3.8320312 2.7929688 C 3.8477813 2.7969788 3.8594052 2.7970825 3.8789062 2.7890625 C 3.9101562 2.7773135 3.9375 2.7576915 3.96875 2.7421875 C 4.007751 2.7264395 4.089813 2.6795958 4.1328125 2.7148438 C 4.1368125 2.7071037 4.1485937 2.6990665 4.1523438 2.6953125 C 4.1795938 2.7265635 4.2069677 2.7577198 4.2304688 2.7929688 C 4.1992188 2.7772217 4.1485318 2.7853325 4.1132812 2.7890625 C 4.0860312 2.7968025 4.0390947 2.8049295 4.0273438 2.8359375 C 4.0390928 2.8554395 4.054625 2.886749 4.046875 2.90625 C 3.996125 2.871001 3.9572175 2.8124392 3.8867188 2.8046875 C 3.8554688 2.8046875 3.8242823 2.8045838 3.8007812 2.8085938 C 3.4257813 3.0155933 3.1093125 3.3162806 2.8828125 3.6757812 C 2.8985625 3.6915283 2.9141865 3.7030343 2.9296875 3.7070312 C 2.9686885 3.7187803 2.9296562 3.8338959 3.0039062 3.7753906 C 3.0274062 3.7948926 3.031125 3.8220974 3.015625 3.8496094 C 3.019625 3.8455994 3.1757501 3.9473255 3.1875 3.9550781 C 3.21475 3.9785781 3.2577822 4.0058584 3.2695312 4.0371094 C 3.2772813 4.0643634 3.2537198 4.0956719 3.2304688 4.1074219 C 3.2264687 4.0996819 3.1679062 4.0408936 3.1601562 4.0566406 C 3.1484072 4.0761426 3.160126 4.179779 3.203125 4.1757812 C 3.140625 4.1797913 3.1678427 4.4217498 3.1523438 4.46875 C 3.1523438 4.47276 3.1601563 4.4746094 3.1601562 4.4746094 C 3.1484072 4.5213644 3.1873755 4.7050471 3.265625 4.6855469 C 3.214875 4.6972959 3.355251 4.8771715 3.375 4.8886719 C 3.42575 4.9239209 3.4845311 4.9470505 3.5195312 4.9980469 C 3.5585322 5.0527979 3.5585333 5.134739 3.6132812 5.1777344 C 3.5975312 5.2244894 3.6951563 5.2792102 3.6914062 5.3457031 C 3.6836562 5.3497131 3.679626 5.3497856 3.671875 5.3535156 C 3.691375 5.4082666 3.7657174 5.4082318 3.7929688 5.4589844 C 3.8087188 5.4902354 3.793 5.5645758 3.84375 5.5488281 C 3.8515 5.4628231 3.793001 5.376891 3.75 5.3066406 C 3.726501 5.2676376 3.7033448 5.232363 3.6835938 5.1933594 C 3.6640938 5.1581104 3.6600322 5.1151752 3.6445312 5.0761719 C 3.6602813 5.0801819 3.7460313 5.1095878 3.7382812 5.1210938 C 3.7070312 5.1993437 3.8632495 5.3359686 3.90625 5.3867188 C 3.917999 5.3984678 4.0076875 5.515625 3.9609375 5.515625 C 4.0116875 5.515625 4.0819692 5.5938091 4.1054688 5.6328125 C 4.1407197 5.6913175 4.13275 5.7656181 4.15625 5.828125 C 4.17975 5.906375 4.2890626 5.9413177 4.3515625 5.9765625 C 4.4063125 6.0038165 4.4530623 6.0449511 4.5078125 6.0644531 C 4.5898125 6.0957041 4.6091876 6.0683906 4.6796875 6.0566406 C 4.7811875 6.0408936 4.7929999 6.1525686 4.875 6.1953125 C 4.92575 6.2225665 5.0353438 6.2617803 5.0898438 6.2382812 C 5.0663437 6.2460213 5.1719365 6.4081707 5.1796875 6.4199219 C 5.2149385 6.4666769 5.2813119 6.490111 5.3203125 6.5371094 C 5.3320615 6.5293694 5.3439073 6.5177001 5.3476562 6.5019531 C 5.3319063 6.5449531 5.4060635 6.6268926 5.4453125 6.6191406 C 5.4883115 6.6114006 5.5 6.5253919 5.5 6.4941406 C 5.42175 6.5331446 5.3515939 6.5018231 5.3085938 6.4238281 C 5.3008438 6.4043261 5.2384687 6.2949219 5.2929688 6.2949219 C 5.3672178 6.2949219 5.3163448 6.2363913 5.3085938 6.1816406 C 5.3008438 6.1268896 5.246001 6.0919209 5.21875 6.0449219 C 5.195249 6.0916779 5.1172496 6.0783215 5.09375 6.0390625 C 5.09375 6.0508115 5.0820312 6.0704335 5.0820312 6.0859375 C 5.0625313 6.0859375 5.0429375 6.0900512 5.0234375 6.0820312 C 5.0311875 6.0352903 5.035124 5.9765386 5.046875 5.9257812 C 5.066375 5.8555262 5.1953438 5.7188134 5.0273438 5.7265625 C 4.9688428 5.7305725 4.9452812 5.7536905 4.9257812 5.8046875 C 4.9062813 5.8514425 4.914126 5.8944691 4.859375 5.9179688 C 4.824124 5.9337158 4.7071249 5.925739 4.671875 5.90625 C 4.597625 5.863249 4.546875 5.7264369 4.546875 5.6484375 C 4.542875 5.5429338 4.597625 5.4493128 4.546875 5.3515625 C 4.570375 5.3320605 4.5935927 5.2931825 4.6210938 5.2734375 C 4.6445948 5.2576895 4.6718447 5.2852793 4.6835938 5.2382812 C 4.6718447 5.2305412 4.6563437 5.2148438 4.6523438 5.2148438 C 4.7108447 5.2420978 4.8203439 5.1758407 4.8710938 5.2148438 C 4.9023438 5.2383438 4.9375303 5.2460223 4.9570312 5.2070312 C 4.9610312 5.1952822 4.9298115 5.1484385 4.9453125 5.1171875 C 4.9570615 5.1836875 5.0000939 5.1953448 5.0585938 5.1523438 C 5.0820948 5.1758438 5.1445008 5.1681502 5.1875 5.1914062 C 5.230499 5.2186592 5.2383125 5.261631 5.2890625 5.203125 C 5.3203125 5.24988 5.3244375 5.249876 5.3359375 5.296875 C 5.3476865 5.339876 5.3711572 5.4490004 5.4101562 5.46875 C 5.4921562 5.519503 5.4725927 5.3826784 5.4648438 5.3359375 C 5.4608438 5.3319275 5.4607813 5.203125 5.4570312 5.203125 C 5.3320317 5.175871 5.3787187 5.0782134 5.4492188 5.0117188 C 5.4609678 5.0039787 5.5508431 4.9726572 5.5898438 4.9414062 C 5.6250947 4.9101552 5.6681865 4.8554405 5.6484375 4.8046875 C 5.6679375 4.8046875 5.6836582 4.7890322 5.6914062 4.7695312 C 5.6796572 4.7655212 5.632999 4.7264707 5.625 4.7304688 C 5.652249 4.7147207 5.6485625 4.6914677 5.6328125 4.6679688 C 5.6718135 4.6444687 5.6524053 4.6014415 5.6914062 4.5859375 C 5.7344053 4.6444425 5.820343 4.578261 5.7773438 4.53125 C 5.8163447 4.476499 5.9064378 4.504122 5.9296875 4.453125 C 5.9881885 4.468872 5.9455615 4.3945637 5.9765625 4.3515625 C 6.0038125 4.3163135 6.0506876 4.316377 6.0859375 4.296875 C 6.0859375 4.300885 6.1835938 4.2420353 6.1523438 4.2382812 C 6.2188437 4.2460213 6.3514999 4.175693 6.25 4.1171875 C 6.26575 4.0819385 6.2146865 4.0663457 6.1796875 4.0585938 C 6.2069375 4.0508537 6.242123 4.0662613 6.265625 4.0507812 C 6.316375 4.0155322 6.2812813 4.0000303 6.2382812 3.9882812 C 6.1835322 3.9725333 6.1133128 4.0079023 6.0703125 4.0351562 C 6.0390625 4.0586562 6.0194697 4.101622 5.9804688 4.109375 C 5.9999687 4.105365 6.019501 4.0350343 6.03125 4.0195312 C 6.05475 3.9922773 6.0859375 3.9764415 6.1171875 3.9609375 C 6.1836875 3.9336835 6.2500626 3.9255695 6.3203125 3.9140625 C 6.3868125 3.8983155 6.4687812 3.8982822 6.5195312 3.9570312 C 6.5077822 3.9452822 6.6015322 3.863372 6.6132812 3.859375 C 6.6485322 3.839873 6.7069673 3.847507 6.7304688 3.8125 C 6.7382187 3.800751 6.7382813 3.7265625 6.7382812 3.7265625 C 6.6717812 3.7343025 6.6485293 3.671938 6.6445312 3.6171875 C 6.6445312 3.6211975 6.6368448 3.6329335 6.6210938 3.6484375 C 6.6250937 3.5899325 6.5509375 3.632753 6.5234375 3.625 C 6.4336895 3.6015 6.4452181 3.5389044 6.4179688 3.4726562 C 6.4022188 3.4374073 6.3595 3.425874 6.34375 3.390625 C 6.328 3.367126 6.3201563 3.316498 6.2851562 3.3125 C 6.2616562 3.30849 6.2186875 3.394379 6.2109375 3.390625 C 6.1756865 3.371123 6.1603125 3.3983025 6.1328125 3.4140625 C 6.1093115 3.4298105 6.0899073 3.4218317 6.0664062 3.4335938 C 6.1366562 3.4100938 6.03525 3.3711553 6 3.3789062 C 6.05475 3.3631592 6.0273437 3.3045971 5.9960938 3.2773438 L 6.015625 3.2773438 C 6.007875 3.2420947 5.8982808 3.210756 5.8632812 3.1875 C 5.8282812 3.164244 5.6405624 3.1249375 5.6015625 3.1484375 C 5.5548115 3.1756915 5.6132812 3.2539728 5.6132812 3.2929688 C 5.6172812 3.3397238 5.5664063 3.351378 5.5664062 3.390625 C 5.5664062 3.457125 5.6914068 3.4454076 5.6601562 3.5351562 C 5.6406563 3.5899072 5.5664069 3.6015298 5.5351562 3.6445312 C 5.5039062 3.6835343 5.5390615 3.7539965 5.5703125 3.78125 C 5.6015625 3.80475 5.5156563 3.8438095 5.5039062 3.8515625 C 5.4374053 3.8828125 5.3865933 3.7850677 5.3710938 3.7265625 C 5.3593437 3.6835615 5.3553437 3.6328744 5.3085938 3.609375 C 5.2850927 3.601635 5.2108124 3.5897692 5.1953125 3.6132812 C 5.1718115 3.5547763 5.0899069 3.5312208 5.0351562 3.5117188 C 4.9569063 3.4844647 4.8905937 3.4845867 4.8085938 3.4960938 C 4.8358438 3.4920837 4.800875 3.3711234 4.734375 3.390625 C 4.753875 3.351621 4.7461553 3.3085206 4.7539062 3.2695312 C 4.7616562 3.2382802 4.7775313 3.2069415 4.8007812 3.1796875 C 4.8085312 3.1639395 4.8944365 3.0743103 4.8671875 3.0703125 C 4.9336875 3.0780525 5.0077492 3.0820927 5.0625 3.0273438 C 5.097751 2.9920948 5.1131865 2.9335345 5.1484375 2.8945312 C 5.1991875 2.8360263 5.2616562 2.9103075 5.3164062 2.9140625 C 5.3946562 2.9180725 5.3906562 2.8319722 5.3476562 2.7929688 C 5.3984062 2.7969788 5.355375 2.7031419 5.328125 2.6914062 C 5.292874 2.6796572 5.1602186 2.7149335 5.2304688 2.7421875 C 5.2147188 2.7344475 5.1209062 2.9297761 5.0664062 2.8320312 C 5.0506563 2.8125292 5.0428125 2.73056 5.0078125 2.7265625 C 4.9765625 2.7265625 4.9570625 2.7619002 4.9453125 2.7851562 C 4.9648125 2.7344033 4.8358431 2.6990665 4.8085938 2.6953125 C 4.8670947 2.6563095 4.8203428 2.6133435 4.7773438 2.5898438 C 4.7460938 2.5703417 4.6483434 2.5546985 4.6210938 2.5859375 z M 5.8339844 6.3515625 C 5.8027032 6.3701256 5.7734062 6.3985283 5.7539062 6.4101562 C 5.7304052 6.4296583 5.70325 6.4374375 5.6875 6.4609375 C 5.668 6.4881915 5.6602802 6.5235273 5.6445312 6.5507812 C 5.6327822 6.5195302 5.56625 6.5271612 5.5625 6.5039062 C 5.57825 6.5976602 5.5781552 6.6953114 5.5976562 6.7890625 C 5.6094053 6.8438135 5.5975323 6.9335629 5.5507812 6.9765625 C 5.5040322 7.0195625 5.4452505 7.0663176 5.4375 7.1328125 C 5.42975 7.1795675 5.441624 7.2226248 5.484375 7.234375 C 5.488375 7.29288 5.4217832 7.3359438 5.4257812 7.3984375 C 5.4257812 7.4024475 5.4298438 7.4414355 5.4335938 7.4609375 C 5.9688436 7.3671835 6.4454375 7.1016555 6.8046875 6.7226562 C 6.7811885 6.6991573 6.7382812 6.7069102 6.7070312 6.6914062 C 6.6757812 6.6796562 6.6522803 6.6679082 6.6132812 6.6601562 C 6.6210312 6.5819062 6.5349689 6.5546212 6.4804688 6.515625 C 6.4297188 6.476622 6.3984687 6.4337147 6.3242188 6.4492188 C 6.3164688 6.4532288 6.2381552 6.4805897 6.2539062 6.4960938 C 6.2031563 6.4530937 6.1795318 6.4296583 6.1132812 6.4101562 C 6.0507812 6.3906542 6.0078132 6.3123155 5.9453125 6.3828125 C 5.9140625 6.4140635 5.9295625 6.4609362 5.9140625 6.4921875 C 5.8633125 6.4491875 5.960874 6.3983032 5.921875 6.3515625 C 5.8984995 6.324187 5.8652655 6.3329994 5.8339844 6.3515625 z "
     style="fill:#222222;fill-opacity:1" />
</svg>
