<?xml version="1.0" encoding="UTF-8" standalone="no"?>
<svg
   xmlns="http://www.w3.org/2000/svg"
   version="1.1"
   width="10"
   height="10"
   viewBox="0 0 10 10">
  <path
     d="m 5,0 c 2.7604167,0 5,2.2395833 5,5 0,2.7604167 -2.2395833,5 -5,5 C 2.2395833,10 0,7.7604167 0,5 0,2.2395833 2.2395833,0 5,0 Z m 1.78375,3.3920833 c -0.052083,0.039167 -0.084583,0.1108334 -0.1495833,0.12375 0.0325,-0.00667 0.065,-0.12375 0.084583,-0.1495833 C 6.7579167,3.3208333 6.81,3.2945833 6.8620833,3.26875 6.9729167,3.2233333 7.0833333,3.21 7.2004167,3.1908333 7.31125,3.1645833 7.4479167,3.1645833 7.5325,3.2625 7.5129167,3.2429167 7.6691667,3.10625 7.68875,3.0995833 7.7475,3.0670833 7.845,3.08 7.8841667,3.0216667 7.8970833,3.0020833 7.8970833,2.8783333 7.8970833,2.8783333 7.78625,2.89125 7.7475,2.7870833 7.7408333,2.6958333 c 0,0.00667 -0.012917,0.02625 -0.039167,0.052083 C 7.7083333,2.6504167 7.5845833,2.7216667 7.53875,2.70875 7.3891667,2.6695833 7.4083333,2.5654167 7.3629167,2.455 7.3366667,2.39625 7.2654167,2.3770833 7.2391667,2.3183333 7.2129167,2.2791667 7.2,2.1945833 7.1416667,2.1879167 7.1025,2.18125 7.0308333,2.3245833 7.0179167,2.3183333 6.9591667,2.2858333 6.9333333,2.33125 6.8875,2.3575 6.8483333,2.38375 6.8158333,2.3704167 6.7766667,2.39 6.89375,2.3508333 6.7245833,2.2858333 6.6658333,2.29875 6.7570833,2.2725 6.71125,2.175 6.6591667,2.1295833 l 0.0325,0 C 6.67875,2.0708333 6.49625,2.01875 6.4379167,1.98 6.3795833,1.94125 6.0666667,1.8758333 6.0016667,1.915 5.92375,1.9604167 6.02125,2.0908333 6.02125,2.1558333 6.02792,2.23375 5.943333,2.2533333 5.943333,2.31875 c 0,0.1108333 0.2083334,0.09125 0.15625,0.2408333 -0.0325,0.09125 -0.15625,0.1108334 -0.2083333,0.1825 -0.052083,0.065 0.00667,0.1825 0.05875,0.2279167 0.052084,0.039167 -0.09125,0.1041667 -0.110833,0.1170833 C 5.7283333,3.1391667 5.64375,2.97625 5.6179167,2.87875 5.5983333,2.8070833 5.5916667,2.7225 5.51375,2.6833333 5.4745833,2.6704167 5.3508333,2.6508333 5.325,2.69 5.2858333,2.5925 5.1491667,2.5533333 5.0579167,2.5208333 4.9275,2.4754167 4.8170833,2.4754167 4.6804167,2.4945833 4.7258333,2.4879167 4.6675,2.28625 4.5566667,2.31875 4.5891667,2.25375 4.57625,2.1820833 4.5891667,2.1170833 4.6020833,2.065 4.6283333,2.0129167 4.6670833,1.9675 4.68,1.94125 4.8233333,1.7916667 4.7779167,1.785 c 0.1108333,0.012917 0.2341666,0.019583 0.3254166,-0.071667 0.05875,-0.05875 0.084583,-0.15625 0.1433334,-0.22125 0.084583,-0.0975 0.18875,0.02625 0.28,0.0325 0.1304166,0.00667 0.12375,-0.1366667 0.052083,-0.2016667 0.084583,0.00667 0.012917,-0.1495833 -0.0325,-0.1691666 -0.05875,-0.019583 -0.28,0.039167 -0.1629167,0.084583 -0.02625,-0.012917 -0.1825,0.3125 -0.2733333,0.1495833 -0.02625,-0.0325 -0.039167,-0.1691667 -0.0975,-0.1758333 -0.052083,0 -0.084583,0.05875 -0.1041667,0.0975 C 4.9408333,1.225 4.7258333,1.16625 4.6804167,1.16 4.7779167,1.095 4.7,1.0233333 4.6283333,0.9841667 c -0.052083,-0.0325 -0.215,-0.05875 -0.2604166,-0.00667 -0.12375,0.1495833 0.1304166,0.1691667 0.1954166,0.2083333 0.019583,0.012917 0.0975,0.05875 0.052083,0.09125 -0.039167,0.019583 -0.15625,0.052083 -0.1691667,0.077917 -0.039167,0.05875 0.045417,0.12375 -0.012917,0.1825 -0.05875,-0.05875 -0.05875,-0.15625 -0.1041666,-0.22125 0.05875,0.071667 -0.2341667,0.0325 -0.2279167,0.0325 -0.0975,0 -0.25375,0.065 -0.3254167,-0.0325 -0.012917,-0.02625 -0.012917,-0.1758333 0.02625,-0.1433333 -0.05875,-0.045417 -0.0975,-0.09125 -0.1366666,-0.1170833 -0.215,0.071667 -0.4166667,0.1629166 -0.6120834,0.2670833 0.02625,0.00667 0.045417,0.00667 0.077917,-0.00667 0.052083,-0.019583 0.0975,-0.052083 0.1495833,-0.077917 0.065,-0.02625 0.2016667,-0.1041667 0.2733334,-0.045417 0.00667,-0.012917 0.02625,-0.02625 0.0325,-0.0325 0.045417,0.052083 0.09125,0.1041667 0.1304166,0.1629167 -0.052083,-0.02625 -0.1366666,-0.012917 -0.1954166,-0.00667 -0.045417,0.012917 -0.12375,0.02625 -0.1433334,0.077917 0.019583,0.0325 0.045417,0.084583 0.0325,0.1170833 C 3.32625,1.4529167 3.26125,1.3554167 3.14375,1.3425 c -0.052083,0 -0.1041667,0 -0.1433333,0.00667 -0.625,0.345 -1.1525,0.84625 -1.53,1.4454167 0.02625,0.02625 0.052083,0.045417 0.077917,0.052083 0.065,0.019583 0,0.2083333 0.12375,0.1108333 C 1.71125,2.99 1.7175,3.0354167 1.6916667,3.08125 1.6983333,3.0745833 1.95875,3.2441667 1.9783333,3.2570833 2.02375,3.29625 2.0954167,3.3416667 2.115,3.39375 2.1279167,3.4391667 2.08875,3.49125 2.05,3.5108333 2.0433333,3.4979167 1.9458333,3.4 1.9329167,3.42625 c -0.019583,0.0325 0,0.2083333 0.071667,0.2016667 -0.1041666,0.00667 -0.05875,0.41 -0.084583,0.4883333 0,0.00667 0.012917,0.00667 0.012917,0.00667 -0.019583,0.077917 0.045417,0.3841666 0.1758333,0.3516666 -0.084583,0.019583 0.1495833,0.3191667 0.1825,0.3383334 0.084583,0.05875 0.1825,0.0975 0.2408333,0.1825 0.065,0.09125 0.065,0.2279166 0.15625,0.2995833 -0.02625,0.077917 0.1366667,0.1691667 0.1304167,0.28 -0.012917,0.00667 -0.019583,0.00667 -0.0325,0.012917 0.0325,0.09125 0.15625,0.09125 0.2016667,0.1758333 0.02625,0.052083 0,0.1758333 0.084583,0.1495833 C 3.0854167,5.77 2.9879167,5.6266667 2.91625,5.5095833 c -0.039167,-0.065 -0.077917,-0.12375 -0.1108333,-0.18875 -0.0325,-0.05875 -0.039167,-0.1304166 -0.065,-0.1954166 0.02625,0.00667 0.1691666,0.05875 0.15625,0.077917 -0.052083,0.1304167 0.2083333,0.3579167 0.28,0.4425 0.019583,0.019583 0.1691666,0.215 0.09125,0.215 0.084583,0 0.2016666,0.1304167 0.2408333,0.1954167 0.05875,0.0975 0.045417,0.22125 0.084583,0.3254167 0.039167,0.1304166 0.22125,0.18875 0.3254167,0.2475 C 4.01,6.6745833 4.0879167,6.74 4.1791667,6.7725 4.3158333,6.8245833 4.3483333,6.7791667 4.4658333,6.7595833 4.635,6.7333333 4.6545833,6.9225 4.79125,6.99375 4.8758333,7.0391667 5.0583333,7.1045833 5.1491667,7.0654167 5.11,7.0783333 5.2858333,7.3454167 5.29875,7.365 5.3575,7.4429167 5.4679167,7.4820833 5.5329167,7.5604167 5.5525,7.5475 5.5720833,7.5279167 5.5783333,7.5016667 5.5520833,7.5733333 5.6758333,7.71 5.74125,7.6970833 5.8129167,7.6841667 5.8325,7.5408333 5.8325,7.48875 5.7020833,7.55375 5.585,7.5016667 5.5133333,7.3716667 c -0.012917,-0.0325 -0.1170833,-0.215 -0.02625,-0.215 0.12375,0 0.039167,-0.0975 0.02625,-0.18875 C 5.5004167,6.8766667 5.4091667,6.8183333 5.36375,6.74 5.324583,6.817917 5.1945833,6.79875 5.1554167,6.73333 c 0,0.019583 -0.019583,0.052083 -0.019583,0.077917 -0.0325,0 -0.065,0.00667 -0.0975,-0.00667 C 5.05125,6.7266667 5.0579167,6.62875 5.0775,6.5441667 5.11,6.4270833 5.325,6.1991667 5.045,6.2120833 4.9475,6.21875 4.9083333,6.2575 4.8758333,6.3425 4.8433333,6.4204167 4.85625,6.4920833 4.765,6.53125 4.70625,6.5575 4.51125,6.5441667 4.4525,6.5116667 4.32875,6.44 4.2441667,6.2120833 4.2441667,6.0820833 4.2375,5.90625 4.32875,5.75 4.2441667,5.5870833 c 0.039167,-0.0325 0.077917,-0.0975 0.12375,-0.1304166 C 4.4070833,5.4304167 4.4525,5.47625 4.4720833,5.3979167 4.4525,5.385 4.4266667,5.35875 4.42,5.35875 c 0.0975,0.045417 0.28,-0.065 0.3645833,0 0.052083,0.039167 0.1108334,0.052083 0.1433334,-0.012917 0.00667,-0.019583 -0.045417,-0.0975 -0.019583,-0.1495833 0.019583,0.1108333 0.09125,0.1304167 0.18875,0.05875 0.039167,0.039167 0.1433334,0.02625 0.215,0.065 C 5.38375,5.3654167 5.3966667,5.4370833 5.48125,5.3395833 5.5333333,5.4175 5.54,5.4175 5.5591667,5.4958333 5.57875,5.5675 5.6179167,5.7495833 5.6829167,5.7825 5.8195833,5.8670833 5.7870833,5.6391667 5.7741667,5.56125 5.7675,5.5545833 5.7675,5.34 5.76125,5.34 5.5529167,5.2945833 5.6308333,5.1316667 5.7483333,5.0208333 5.7679167,5.0079167 5.9175,4.9558333 5.9825,4.90375 6.04125,4.8516667 6.1129167,4.7604167 6.08,4.6758333 c 0.0325,0 0.05875,-0.02625 0.071667,-0.05875 -0.019583,-0.00667 -0.0975,-0.071667 -0.1108334,-0.065 C 6.08625,4.5258333 6.08,4.4870833 6.05375,4.4479167 6.11875,4.40875 6.08625,4.3370833 6.15125,4.31125 6.222917,4.40875 6.36625,4.298333 6.2945833,4.22 c 0.065,-0.09125 0.215,-0.045417 0.25375,-0.1304167 0.0975,0.02625 0.02625,-0.0975 0.077917,-0.1691666 0.045417,-0.05875 0.12375,-0.05875 0.1825,-0.09125 0,0.00667 0.1629167,-0.09125 0.1108333,-0.0975 C 7.0304167,3.7445833 7.2516667,3.6275 7.0825,3.53 7.10875,3.47125 7.02375,3.4454167 6.9654167,3.4325 7.0108333,3.4195833 7.0695833,3.4454167 7.10875,3.4195833 7.1933333,3.3608333 7.135,3.335 7.0633333,3.3154167 c -0.09125,-0.02625 -0.2083333,0.0325 -0.28,0.077917 z M 5.7225,9.1016667 C 6.6145833,8.9454167 7.40875,8.5029167 8.0075,7.87125 7.9683333,7.8320833 7.8966667,7.845 7.8445833,7.8191667 7.7925,7.7995833 7.7533333,7.78 7.6883333,7.7670833 7.70125,7.6366667 7.5579167,7.59125 7.4670833,7.52625 7.3825,7.46125 7.3304167,7.3895833 7.2066667,7.4154167 7.19375,7.4220833 7.0633333,7.4675 7.0895833,7.4933333 7.005,7.4216667 6.9658333,7.3825 6.8554167,7.35 6.75125,7.3175 6.6795833,7.1870833 6.5754167,7.3045833 6.5233333,7.3566667 6.5491667,7.435 6.5233333,7.4870833 6.43875,7.4154167 6.60125,7.3308333 6.53625,7.2529167 c -0.077917,-0.09125 -0.215,0.05875 -0.28,0.0975 C 6.2170833,7.3829167 6.1716667,7.3958333 6.1454167,7.435 6.1129167,7.4804167 6.1,7.5391667 6.07375,7.5845833 6.0541667,7.5325 5.9433333,7.5454167 5.9370833,7.5066667 c 0.02625,0.15625 0.02625,0.3191666 0.05875,0.4754166 0.019583,0.09125 0,0.2408334 -0.077917,0.3125 C 5.84,8.36625 5.7420833,8.4441667 5.7291667,8.555 c -0.012917,0.077917 0.00667,0.1495833 0.077917,0.1691667 0.00667,0.0975 -0.1041666,0.1691666 -0.0975,0.2733333 0,0.00667 0.00667,0.071667 0.012917,0.1041667 z"
     style="fill:#222222" />
</svg>
