<?xml version="1.0" encoding="UTF-8"?>
<svg width="10" height="10" version="1.1" viewBox="0 0 10 10" xmlns="http://www.w3.org/2000/svg">
	<path d="m2.0215 0c-1.0133-0.091265-1.9888 0.75513-2.0137 1.7773-0.0057 2.0683-0.0023062 4.1367-0.0039062 6.2051-0.09126 1.0133 0.75709 1.9908 1.7793 2.0156 2.0683 0.0057001 4.1367 2.931e-4 6.2051 0.0019531 1.0133 0.09126 1.9888-0.75709 2.0137-1.7793 0.0057-2.1154 2.56e-4 -4.2302 0.001953-6.3457 0.01746-0.97499-0.8036-1.8402-1.7773-1.873-2.0683-0.00568-4.1367-3.4023e-4 -6.2051-0.0019531zm3.043 1.8105c0.85952 0 1.5821 0.31492 2.1387 0.83398l-0.86719 0.83594c-0.23681-0.2283-0.65276-0.49414-1.2715-0.49414-1.0881 0-1.9766 0.90087-1.9766 2.0137 0 1.1128 0.88847 2.0137 1.9766 2.0137 1.2624 0 1.7356-0.90369 1.8105-1.373h-1.8105v-1.0977h3.0117c0.02897 0.16186 0.048828 0.31943 0.048828 0.53125 0 1.819-1.2208 3.1152-3.0605 3.1152-1.765 0-3.1895-1.4244-3.1895-3.1895 0-1.765 1.4244-3.1895 3.1895-3.1895z" fill="#222"/>
</svg>
