<?xml version="1.0" encoding="UTF-8" standalone="no"?>
<svg
   xmlns:dc="http://purl.org/dc/elements/1.1/"
   xmlns:cc="http://creativecommons.org/ns#"
   xmlns:rdf="http://www.w3.org/1999/02/22-rdf-syntax-ns#"
   xmlns:svg="http://www.w3.org/2000/svg"
   xmlns="http://www.w3.org/2000/svg"
   id="svg4"
   viewBox="0 0 10 10"
   version="1.1"
   height="10"
   width="10">
  <metadata
     id="metadata10">
    <rdf:RDF>
      <cc:Work
         rdf:about="">
        <dc:format>image/svg+xml</dc:format>
        <dc:type
           rdf:resource="http://purl.org/dc/dcmitype/StillImage" />
        <dc:title></dc:title>
      </cc:Work>
    </rdf:RDF>
  </metadata>
  <defs
     id="defs8" />
  <path
     id="path2"
     d="M 1.875 0 C 0.84 0 0 0.84 0 1.875 L 0 8.125 C 0 9.16 0.84 10 1.875 10 L 8.125 10 C 9.16 10 10 9.16 10 8.125 L 10 1.875 C 10 0.84 9.16 0 8.125 0 L 1.875 0 z M 5.0605469 2 C 5.8058316 1.9911807 6.5259332 2.2699455 7.0683594 2.7792969 L 6.2109375 3.6367188 C 5.9011366 3.3412503 5.4883127 3.18094 5.0605469 3.1875 C 4.2777747 3.1875 3.612038 3.7146723 3.375 4.4257812 C 3.2493167 4.7984236 3.2493167 5.2015763 3.375 5.5742188 L 3.3769531 5.5742188 C 3.6150926 6.2842252 4.2777775 6.8125 5.0605469 6.8125 C 5.464417 6.8125 5.8112775 6.7097267 6.0800781 6.5273438 L 6.0800781 6.5253906 C 6.3960154 6.3158879 6.614451 5.9875339 6.6816406 5.6152344 L 5.0605469 5.6152344 L 5.0605469 4.4589844 L 7.890625 4.4589844 C 7.925905 4.6596373 7.9414062 4.8643988 7.9414062 5.0683594 C 7.9414063 5.9812243 7.6146607 6.7528096 7.046875 7.2753906 C 6.5497153 7.7335848 5.8693502 8 5.0605469 8 C 3.926079 8 2.8882579 7.3608471 2.3789062 6.3476562 C 1.9533441 5.4998382 1.9533441 4.5001612 2.3789062 3.6523438 C 2.8882579 2.6380507 3.926079 2 5.0605469 2 z "
     style="fill:#222222;fill-opacity:1" />
</svg>
