<?xml version="1.0" encoding="UTF-8" standalone="no"?>
<svg
   xmlns="http://www.w3.org/2000/svg"
   version="1.1"
   width="10"
   height="10"
   viewBox="0 0 10 10">
  <path
     d="m 5.10125,4.28375 4.7200001,0 C 9.8666666,4.5375 9.8991667,4.785 9.8991667,5.1170833 9.8991667,7.96875 7.985,10 5.1008333,10 2.33375,10 0.10083335,7.7670833 0.10083335,5 c 0,-2.7670833 2.23291665,-5 4.99999995,-5 1.3475,0 2.4804167,0.495 3.3529168,1.30875 L 7.0929166,2.6175 C 6.7216666,2.2595833 6.0708333,1.8429167 5.1008333,1.8429167 c -1.7058333,0 -3.0991667,1.4129166 -3.0991667,3.1575 0,1.7445833 1.3933334,3.1575 3.0991667,3.1575 1.9791667,0 2.72125,-1.4191667 2.83875,-2.155 l -2.83875,0 0,-1.71875 z"
     style="fill:#222222" />
</svg>
