<?xml version="1.0" encoding="UTF-8" standalone="no"?>
<svg
   xmlns:dc="http://purl.org/dc/elements/1.1/"
   xmlns:cc="http://creativecommons.org/ns#"
   xmlns:rdf="http://www.w3.org/1999/02/22-rdf-syntax-ns#"
   xmlns:svg="http://www.w3.org/2000/svg"
   xmlns="http://www.w3.org/2000/svg"
   id="svg4"
   viewBox="0 0 10 10"
   version="1.1"
   height="10"
   width="10">
  <metadata
     id="metadata10">
    <rdf:RDF>
      <cc:Work
         rdf:about="">
        <dc:format>image/svg+xml</dc:format>
        <dc:type
           rdf:resource="http://purl.org/dc/dcmitype/StillImage" />
        <dc:title></dc:title>
      </cc:Work>
    </rdf:RDF>
  </metadata>
  <defs
     id="defs8" />
  <path
     id="path2"
     d="M 1.875 0 C 0.84 0 0 0.84 0 1.875 L 0 8.125 C 0 9.16 0.84 10 1.875 10 L 8.125 10 C 9.16 10 10 9.16 10 8.125 L 10 1.875 C 10 0.84 9.16 0 8.125 0 L 1.875 0 z M 3.4199219 2.2050781 C 3.5095612 2.211765 3.600793 2.2270694 3.6601562 2.2285156 C 3.9036938 2.2346664 4.1470874 2.2420291 4.390625 2.2480469 C 4.482155 2.250341 4.482488 2.3909619 4.390625 2.3886719 L 3.328125 2.3632812 C 3.1092618 2.3577143 2.7948543 2.6483049 2.5683594 2.8945312 C 2.8749615 2.7719015 3.2143263 2.7225323 3.5410156 2.7714844 C 3.6314154 2.7851158 3.5936744 2.9216351 3.5039062 2.9082031 C 3.1849303 2.8604265 2.8358371 2.9090395 2.5449219 3.0449219 C 2.5061001 3.0630282 2.4723264 3.043241 2.453125 3.015625 C 2.4374236 3.0345203 2.4057266 3.0612488 2.3925781 3.078125 C 1.8979226 3.7131513 2.2964636 4.4360326 3.0429688 4.5917969 C 3.3722181 4.6604529 3.4639506 5.0206206 3.8085938 5.1132812 C 3.9658875 5.155572 4.0974353 5.1166829 4.2558594 5.0878906 C 4.2774704 5.0839643 4.2842684 5.1032322 4.2988281 5.1132812 C 4.3239747 5.0512465 4.3376959 4.9906446 4.3222656 4.9140625 C 4.3176776 4.8908885 4.3216489 4.8617951 4.3417969 4.8457031 C 4.5029469 4.7166365 4.4395473 4.3630713 4.4101562 4.1894531 C 4.3949621 4.0997847 4.5316144 4.0621433 4.546875 4.1523438 C 4.7195803 5.1703912 4.0564822 5.8209264 3.1601562 6.0800781 C 3.664017 6.0561087 4.1344898 5.8038619 4.4453125 5.3808594 C 4.4654605 5.3534334 4.4913116 5.3405764 4.5253906 5.3476562 C 4.8078942 5.40687 4.8339753 6.0426768 4.84375 6.2558594 C 4.8612049 6.6399672 4.8263075 7.1360245 4.3964844 7.2890625 C 4.0948636 7.3965183 3.6665774 7.3270682 3.6054688 6.9433594 C 3.5542344 6.6220228 3.7990107 6.445411 4.1015625 6.5605469 C 4.2160667 6.6040678 4.3385849 6.6334481 4.1855469 6.4863281 C 3.6206395 5.9432643 3.2813002 6.8538292 3.5761719 7.2792969 C 3.9731464 7.8520839 5.0423463 7.7351585 5.3320312 7.109375 C 5.5149919 6.7142291 5.4444578 6.269367 5.4277344 5.8476562 C 5.4216168 5.6937871 5.3354805 5.3841554 5.5332031 5.3261719 C 5.5648879 5.3168293 5.5958264 5.3328768 5.6132812 5.359375 C 5.8971918 5.7905239 6.3454557 6.0539268 6.8359375 6.0859375 C 5.941469 5.8261149 5.2808566 5.1768263 5.453125 4.1601562 C 5.4683856 4.0699891 5.6069578 4.1074975 5.5917969 4.1972656 C 5.5623729 4.3707841 5.4990058 4.7225291 5.6601562 4.8515625 C 5.6803041 4.8676875 5.6824223 4.8986018 5.6777344 4.921875 C 5.6629221 4.9958478 5.6762065 5.0582271 5.7011719 5.1230469 C 5.7160152 5.1120056 5.7215146 5.0896263 5.7441406 5.09375 C 5.8924907 5.1207469 6.0437876 5.1764507 6.1914062 5.1210938 C 6.5188936 4.9980781 6.6467576 4.7009144 6.9589844 4.5996094 C 7.6252633 4.3836008 8.2068402 3.7639945 7.6074219 3.0839844 C 7.5931596 3.0678105 7.563152 3.0416656 7.546875 3.0234375 C 7.5276913 3.0510638 7.4938374 3.0708879 7.4550781 3.0527344 C 7.1640632 2.9168168 6.8150366 2.8682386 6.4960938 2.9160156 C 6.4062924 2.9294143 6.3685844 2.7908426 6.4589844 2.7773438 C 6.7845593 2.7286369 7.1220215 2.778852 7.4277344 2.9003906 C 7.1990626 2.6558575 6.899784 2.3654846 6.671875 2.3710938 C 6.3176899 2.3799377 5.9635601 2.3875444 5.609375 2.3964844 C 5.517612 2.3987786 5.517845 2.2561963 5.609375 2.2539062 C 5.8851294 2.2470572 6.1597925 2.241255 6.4355469 2.234375 C 6.5576315 2.2313827 6.7302269 2.1882256 6.8398438 2.2578125 C 7.2643803 2.5274493 7.9503785 2.9845198 7.9960938 3.5410156 C 8.0407784 4.0868723 7.6505914 4.5248365 7.1367188 4.6914062 C 6.7666415 4.8113962 6.5549697 5.2080561 6.1601562 5.2773438 C 6.0284117 5.3004637 5.9040021 5.2723728 5.7753906 5.2460938 C 5.8079134 5.2920991 5.8318097 5.3340783 5.8828125 5.3886719 C 6.2652579 5.7980145 6.7703169 5.9774876 7.3164062 6.046875 C 7.3901823 6.0563173 7.4204858 6.1672523 7.3359375 6.1875 C 6.8074028 6.3138403 6.3373364 6.2076655 5.90625 5.8769531 C 5.7744239 5.7757811 5.6553608 5.6517897 5.5546875 5.5195312 C 5.4521524 5.3848791 5.5560918 5.4848229 5.5605469 5.5957031 C 5.5944261 6.4506613 5.7403679 7.241593 4.8359375 7.6933594 C 4.2892165 7.9662877 3.5054761 7.6820063 3.3183594 7.0839844 C 3.0981948 6.3798699 4.0262158 5.8274681 4.3945312 6.5390625 C 4.4080292 6.5652615 4.4082805 6.60452 4.3828125 6.625 C 4.3346034 6.6635334 4.2864902 6.7016014 4.2382812 6.7402344 C 4.2147082 6.7589494 4.1801718 6.7717021 4.1523438 6.7519531 C 4.1064955 6.7196701 4.0465056 6.6804279 3.9941406 6.6699219 C 3.5804093 6.587435 3.802754 7.350421 4.265625 7.1855469 C 4.6286539 7.0563806 4.723123 6.7384604 4.7070312 6.3828125 C 4.6959933 6.1416687 4.6733855 5.8915252 4.5996094 5.6601562 C 4.5237719 5.4222043 4.6015553 5.4256958 4.4882812 5.5527344 C 4.0139067 6.0853253 3.3695069 6.3487176 2.6640625 6.1796875 C 2.579481 6.1594066 2.6097511 6.0503582 2.6835938 6.0410156 C 3.2102666 5.973889 3.7625617 5.8019299 4.1191406 5.3828125 C 4.1686871 5.3245792 4.191981 5.2839633 4.2246094 5.2382812 C 4.0730438 5.2701488 3.9228986 5.306917 3.7714844 5.25 C 3.4193607 5.1178414 3.1906371 4.8272482 2.8476562 4.6777344 C 2.3492438 4.4603958 1.9566285 4.1125315 2.0039062 3.5351562 C 2.0498542 2.9758676 2.7524571 2.4961987 3.1875 2.234375 C 3.2421921 2.2014932 3.3302826 2.1983912 3.4199219 2.2050781 z M 4.3554688 2.4023438 C 4.4363264 2.3590224 4.508559 2.4820691 4.4277344 2.5253906 C 4.162985 2.6674237 3.9670746 2.9464671 4.0253906 3.2539062 C 4.0424133 3.3435747 3.9058276 3.3829364 3.8886719 3.2929688 C 3.8184533 2.9223593 4.0302752 2.5766935 4.3554688 2.4023438 z M 5.6445312 2.4082031 C 5.9698242 2.5827523 6.1815467 2.9301717 6.1113281 3.3007812 C 6.0941724 3.3907485 5.9576534 3.3513868 5.9746094 3.2617188 C 6.0328922 2.9542796 5.8389349 2.6732831 5.5742188 2.53125 C 5.4933609 2.4879286 5.5638065 2.3648817 5.6445312 2.4082031 z M 3.3652344 3.2089844 C 3.4567644 3.2023349 3.4561334 3.3429594 3.3652344 3.3496094 C 3.0442968 3.3731819 2.7118645 3.4978892 2.4589844 3.6953125 C 2.3876019 3.7511018 2.287161 3.650171 2.359375 3.59375 C 2.6445716 3.3710918 3.0033359 3.2355824 3.3652344 3.2089844 z M 6.6347656 3.2148438 C 6.9966308 3.2413418 7.3555281 3.3789376 7.640625 3.6015625 C 7.7128052 3.6579834 7.6123979 3.7569612 7.5410156 3.7011719 C 7.288202 3.5037818 6.9557032 3.3808946 6.6347656 3.3574219 C 6.5438336 3.3507724 6.5432356 3.2081936 6.6347656 3.2148438 z M 4.2636719 3.4980469 C 4.3285044 3.5447928 4.3852702 3.6148458 4.4140625 3.6894531 C 4.4296556 3.7299817 4.4515891 3.7910613 4.4316406 3.8339844 C 4.4242596 3.8496734 4.4043649 3.8600154 4.3886719 3.8496094 C 4.3388009 3.8168939 4.3143797 3.7315205 4.2929688 3.6796875 C 4.2715577 3.6275222 4.2512399 3.5746804 4.2324219 3.5214844 C 4.2276668 3.5079817 4.2428595 3.5172729 4.2539062 3.515625 C 4.2591239 3.5072411 4.2532308 3.4906052 4.2636719 3.4980469 z M 5.7480469 3.5175781 C 5.7595893 3.5092276 5.753305 3.526921 5.7578125 3.5371094 C 5.7674532 3.539881 5.7816475 3.5287931 5.7773438 3.5410156 A 2.9013055 2.9013055 0 0 1 5.7128906 3.7089844 C 5.6943056 3.7530372 5.6681806 3.8494826 5.6191406 3.8710938 C 5.5403776 3.9058042 5.5915994 3.7233641 5.5996094 3.7050781 C 5.6311612 3.6323327 5.6834139 3.5641241 5.7480469 3.5175781 z M 3.4335938 3.5820312 C 3.523262 3.5683333 3.5630561 3.7067724 3.4726562 3.7207031 C 3.1859968 3.7645565 2.9885459 4.0350103 2.9042969 4.2910156 C 2.8757041 4.3775588 2.7368327 4.3413138 2.765625 4.2539062 C 2.8639044 3.955311 3.0985258 3.6334651 3.4335938 3.5820312 z M 6.5664062 3.5898438 C 6.9015073 3.6412775 7.1360623 3.9630241 7.234375 4.2617188 C 7.2630343 4.3490938 7.1242961 4.3854711 7.0957031 4.2988281 C 7.0115538 4.0428228 6.8158567 3.7705155 6.5292969 3.7265625 C 6.4388971 3.7127316 6.476771 3.5761124 6.5664062 3.5898438 z M 4.3164062 3.6191406 C 4.3371343 3.6735211 4.3564287 3.7294741 4.3847656 3.7792969 C 4.3815304 3.7393817 4.3751395 3.6945656 4.3574219 3.6640625 C 4.347344 3.6467019 4.3287721 3.6355835 4.3164062 3.6191406 z M 5.6914062 3.6425781 C 5.6770311 3.661965 5.6565047 3.676564 5.6464844 3.6972656 C 5.6365268 3.7177552 5.6307947 3.7624456 5.6269531 3.7988281 C 5.6539634 3.7493252 5.6708204 3.6955728 5.6914062 3.6425781 z M 3.6777344 4.0136719 C 3.7275946 4.0031195 3.7885331 4.0597522 3.7578125 4.1210938 L 3.4980469 4.640625 C 3.4571196 4.7227125 3.334072 4.6521015 3.375 4.5703125 L 3.6347656 4.0488281 C 3.6449975 4.0283061 3.6611143 4.0171893 3.6777344 4.0136719 z M 6.3222656 4.0214844 C 6.338894 4.0249891 6.3549691 4.0361269 6.3652344 4.0566406 L 6.6269531 4.5761719 C 6.667781 4.6578569 6.5449673 4.7304925 6.5039062 4.6484375 L 6.2421875 4.1269531 C 6.2115666 4.0656896 6.2723804 4.0109703 6.3222656 4.0214844 z "
     style="fill:#222222;fill-opacity:1" />
</svg>
