<?xml version="1.0" encoding="UTF-8"?>
<svg width="10" height="10" version="1.0" viewBox="0 0 100 100" xmlns="http://www.w3.org/2000/svg">
	<path transform="scale(10)" d="m2.0215 0c-1.0133-0.091265-1.9888 0.75513-2.0137 1.7773-0.005681 2.0683-0.0022902 4.1367-0.0039062 6.2051-0.091265 1.0133 0.75709 1.9908 1.7793 2.0156 2.0683 0.0056811 4.1367 3.401e-4 6.2051 0.0019531 1.0133 0.091264 1.9888-0.75709 2.0137-1.7793 0.00568-2.1154 3.03e-4 -4.2302 0.001953-6.3457 0.017508-0.97494-0.8036-1.8402-1.7773-1.873-2.0683-0.0056811-4.1367-3.3702e-4 -6.2051-0.0019531zm5.2949 1.293c0.15813 0.025817 0.76713 0.46635 1.0898 0.78906 0.25817 0.25494 0.33177 0.35494 0.45117 0.59375 0.13554 0.2743 0.14258 0.30306 0.14258 0.56445 0 0.36789-0.091184 0.57293-0.39453 0.87305-0.24203 0.23881-0.5218 0.40981-0.85742 0.51953-0.18072 0.058088-0.26162 0.10979-0.47461 0.30664-0.14845 0.13877-0.34935 0.28371-0.46875 0.3418-0.1904 0.093586-0.22409 0.099525-0.46289 0.089844-0.14522-0.0096811-0.26172-0.0057748-0.26172 0.0039062s0.090176 0.10512 0.20312 0.21484c0.39371 0.38725 0.83581 0.60461 1.4941 0.73047 0.26462 0.051634 0.38298 0.086275 0.40234 0.125 0.045179 0.083905-0.040407 0.14487-0.26953 0.18359-0.72287 0.12586-1.4437-0.13736-2.002-0.73438l-0.15234-0.16211 0.023438 0.33008c0.038725 0.51956 0.028875 1.2133-0.019531 1.4102-0.064542 0.26462-0.18112 0.49311-0.3457 0.67383-0.35498 0.39371-1.0194 0.63273-1.5293 0.54883-0.28076-0.045179-0.56784-0.20651-0.80664-0.44531-0.54861-0.55183-0.49273-1.2878 0.11719-1.5879 0.36789-0.17749 0.75474-0.049361 1 0.33789l0.058594 0.09375-0.14062 0.12305c-0.16136 0.14522-0.19004 0.14768-0.33203 0.060547-0.23558-0.14199-0.47037-0.018697-0.43164 0.22656 0.074223 0.45502 0.71966 0.53883 1.0488 0.13867 0.16781-0.20331 0.21221-0.38941 0.20898-0.84766-0.003227-0.32594-0.018848-0.46517-0.089844-0.72656-0.045179-0.17749-0.083984-0.34596-0.083984-0.375 0-0.032271-0.087202 0.036421-0.23242 0.18164-0.56797 0.56474-1.2581 0.83136-1.9648 0.75391-0.37112-0.041952-0.46808-0.092809-0.39062-0.20898 0.012908-0.02259 0.15437-0.0608 0.3125-0.089844 0.74869-0.13554 1.3493-0.44308 1.6914-0.85938l0.09375-0.11328h-0.28125c-0.24849 0-0.29984-0.0079763-0.49023-0.10156-0.14199-0.070996-0.28659-0.18112-0.45117-0.3457-0.20331-0.20653-0.26485-0.24898-0.40039-0.28125-0.28076-0.064542-0.65522-0.28472-0.91016-0.5332-0.30335-0.29367-0.41016-0.51323-0.41016-0.83594-0.0032271-0.60024 0.42989-1.1779 1.3496-1.791l0.25391-0.16992 0.61719 0.0058594c0.63897 0.003227 1.0482 0.028955 1.0547 0.064453 0.003227 0.009681 0.010444 0.089924 0.013672 0.17383 0.006454 0.13877-6.746e-4 0.15922-0.078125 0.20117-0.13877 0.070996-0.3457 0.29304-0.41992 0.45117-0.048406 0.10004-0.066406 0.21025-0.066406 0.35547 0 0.17104-0.010866 0.21314-0.0625 0.24219-0.048406 0.025817-0.077188 0.018515-0.11914-0.023438-0.07745-0.080678-0.047901-0.4278 0.058594-0.66016 0.080678-0.17426 0.28973-0.41686 0.44141-0.51367 0.074223-0.048406 0.026111-0.052903-0.63867-0.072266l-0.7207-0.021484-0.19531 0.13477c-0.1904 0.12908-0.63672 0.47478-0.63672 0.49414 0 0.006454 0.06776-0.0093392 0.14844-0.035156 0.3808-0.11295 1.0941-0.12603 1.1328-0.019531 0.048406 0.1194-0.0246 0.14198-0.45703 0.14844-0.37112 0.006454-0.45269 0.019611-0.70117 0.10352-0.17104 0.058088-0.30103 0.086448-0.33008 0.070312-0.032271-0.019363-0.080158 0.020543-0.16406 0.13672-0.37757 0.51311-0.32603 1.0636 0.13867 1.4863 0.21299 0.19363 0.54856 0.36829 0.81641 0.41992 0.17426 0.035498 0.20091 0.051362 0.39453 0.26758 0.23558 0.2614 0.51867 0.43691 0.71875 0.44336 0.070996 0.003227 0.20787-0.0066227 0.30469-0.019531 0.096813-0.016136 0.19684-0.025986 0.22266-0.019531 0.032271 0.0064541 0.037025-0.026318 0.027344-0.13281-0.012908-0.10972 5.06e-4 -0.15752 0.058594-0.22852 0.10004-0.11618 0.1233-0.31707 0.078125-0.61719-0.038725-0.25817-0.019283-0.3418 0.083984-0.3418 0.090359 0 0.12177 0.14213 0.125 0.53906 0 0.35498-0.0057703 0.39988-0.070313 0.49023-0.045179 0.058088-0.074219 0.14512-0.074219 0.21289 0 0.23235-0.28318 0.62549-0.6543 0.90625-0.20331 0.15167-0.73709 0.43359-0.82422 0.43359-0.029044 0-0.042205 0.0098496-0.029297 0.019531 0.035498 0.038725 0.54941-0.14172 0.76562-0.26758 0.1194-0.067769 0.33211-0.24617 0.49023-0.4043 0.1549-0.15813 0.30426-0.2832 0.33008-0.2832 0.074223 0 0.22902 0.20931 0.28711 0.39648 0.16136 0.51311 0.19226 1.2642 0.066406 1.6191-0.15813 0.45179-0.52494 0.69498-0.99609 0.65625-0.29044-0.025817-0.51638-0.23325-0.60352-0.55273-0.04518-0.17749-0.015803-0.2967 0.11328-0.42578 0.13877-0.13554 0.29949-0.16475 0.52539-0.09375 0.096813 0.029044 0.18436 0.044838 0.19727 0.035156 0.032271-0.035498-0.093656-0.15744-0.23242-0.21875-0.17749-0.080678-0.29729-0.076603-0.49414 0.023437-0.31303 0.1549-0.41017 0.4728-0.26172 0.86328 0.17749 0.47761 0.73349 0.79713 1.3047 0.75195 0.46793-0.041952 0.99065-0.39884 1.1875-0.81836 0.1194-0.25817 0.1357-0.49341 0.09375-1.3809-0.016136-0.35498-0.020721-0.68138-0.0078125-0.72656 0.009681-0.045179 0.062922-0.10309 0.11133-0.12891 0.087132-0.048406 0.089924-0.045268 0.17383 0.064453 0.28076 0.3808 0.70352 0.6959 1.123 0.83789 0.25817 0.090359 0.25163 0.062252-0.0097656-0.041016-0.63251-0.24849-1.2695-0.90062-1.2695-1.3008 0-0.041952-0.028955-0.12355-0.064453-0.18164-0.083905-0.14845-0.11159-0.41591-0.066406-0.70312 0.048406-0.30657 0.10181-0.38061 0.20508-0.27734 0.035498 0.035498 0.042121 0.081006 0.019531 0.1875-0.038725 0.20331-0.03414 0.56776 0.0078126 0.64844 0.02259 0.038725 0.058168 0.084748 0.083984 0.097656 0.032271 0.019363 0.04161 0.074467 0.035156 0.17773l-0.0097656 0.14844 0.20898 0.037109c0.11618 0.02259 0.25501 0.042969 0.30664 0.042969 0.17426 0.003227 0.49446-0.17797 0.75586-0.42969 0.21622-0.20653 0.27801-0.24482 0.50391-0.32227 0.35175-0.12263 0.58406-0.27037 0.81641-0.51562 0.3808-0.40661 0.40202-0.83684 0.066406-1.3145-0.090359-0.12908-0.15132-0.18674-0.18359-0.17383-0.025817 0.009681-0.15149-0.020548-0.27734-0.0625-0.31948-0.10972-0.66455-0.16058-0.94531-0.13477-0.21622 0.019363-0.23599 0.015714-0.27148-0.048828-0.032271-0.061315-0.028196-0.079736 0.023438-0.11523 0.090359-0.064542 0.68306-0.054692 0.99609 0.019531l0.25781 0.060547-0.14453-0.125c-0.23881-0.20976-0.70941-0.51936-0.75781-0.5-0.025817 0.009681-0.34891 0.018257-0.7168 0.021484-0.62606 0.003227-0.66407 0.0062808-0.58984 0.054688 0.18717 0.1194 0.4127 0.38509 0.48047 0.57227 0.10649 0.28076 0.090785 0.66338-0.025391 0.66016-0.074223-0.0032271-0.10487-0.074036-0.11133-0.27734-0.012908-0.28721-0.1322-0.51978-0.36133-0.69727-0.24203-0.18394-0.24525-0.18588-0.22266-0.22461 0.012908-0.019363 0.024117-0.087802 0.027344-0.15234l0.0019532-0.11523 0.74219-0.042969c0.40984-0.02259 0.78558-0.031166 0.83398-0.021484zm-4.5898 1.3223c0.17104-0.025817 0.25145 0.032178 0.19336 0.13867-0.02259 0.04518-0.084486 0.067849-0.2168 0.083984-0.2743 0.032271-0.64418 0.16677-0.90234 0.32812-0.2614 0.16136-0.24524 0.15515-0.29688 0.10352-0.070996-0.070996-0.039666-0.13892 0.11523-0.24219 0.31948-0.21299 0.70726-0.35725 1.1074-0.41211zm4.5957 0.039062c0.2614 0.006454 0.60027 0.11217 0.90039 0.2832 0.30657 0.17426 0.36422 0.22911 0.32227 0.29688-0.058088 0.090359-0.11378 0.084757-0.32031-0.050781-0.2614-0.16458-0.56325-0.2804-0.87305-0.33203-0.23881-0.041952-0.25586-0.048824-0.25586-0.12305 0-0.07745 0.0071195-0.080673 0.22656-0.074219zm-3.3301 0.3418c0.035498-0.032271 0.18597 0.12211 0.23438 0.23828 0.096813 0.22267 0.0061213 0.3323-0.11328 0.13867-0.07745-0.12908-0.14691-0.34791-0.12109-0.37695zm2.043 0.03125c0.025817 0.02259-0.06895 0.29135-0.13672 0.4043-0.058088 0.090359-0.14258 0.092991-0.14258 0.0058594 0-0.15167 0.21798-0.47147 0.2793-0.41016zm1.0684 0.091797c0.054457 0.0044373 0.12516 0.02836 0.21875 0.070312 0.36144 0.16781 0.80946 0.862 0.60938 0.93945-0.090359 0.035498-0.10257 0.022688-0.21875-0.21289-0.13877-0.29044-0.30297-0.45533-0.55469-0.55859-0.20331-0.080678-0.2371-0.11914-0.17578-0.19336 0.02743-0.033885 0.066636-0.049359 0.12109-0.044922zm-4.1777 0.0019532c0.083905 0.006454 0.10352 0.022669 0.10352 0.083984s-0.034552 0.091029-0.18945 0.15234c-0.24849 0.10004-0.38535 0.23623-0.52734 0.52344-0.12263 0.24526-0.15701 0.28015-0.24414 0.22852-0.074223-0.038725-0.070659-0.074884 0.039062-0.30078 0.18072-0.3808 0.5731-0.71009 0.81836-0.6875zm0.3457 0.55078c0.014925-4.034e-4 0.029466 0.0073019 0.048828 0.023438 0.025817 0.02259 0.048828 0.061395 0.048828 0.083984 0 0.025817-0.083554 0.21466-0.18359 0.41797-0.15167 0.30657-0.20168 0.37109-0.25977 0.37109-0.041952 0-0.076935-0.027002-0.089844-0.0625-0.019363-0.067769 0.29441-0.73242 0.38477-0.80664 0.020976-0.017749 0.035856-0.02694 0.050781-0.027344zm3.4668 0.023438c0.058088 0 0.10359 0.072416 0.26172 0.38867 0.15167 0.30335 0.18402 0.39945 0.1582 0.44141-0.045179 0.074223-0.094087 0.083563-0.13281 0.035156-0.087132-0.10972-0.39504-0.77123-0.37891-0.81641 0.009681-0.025817 0.053072-0.048828 0.091797-0.048828z" fill="#222"/>
</svg>
