<?xml version="1.0" encoding="UTF-8" standalone="no"?>
<svg
   xmlns="http://www.w3.org/2000/svg"
   version="1.0"
   width="10"
   height="10"
   viewBox="0 0 100 100"
   preserveAspectRatio="xMidYMid meet"
   >
  <path
     style="fill:#222222;fill-opacity:1;stroke:none;stroke-width:1;stroke-miterlimit:4;stroke-dasharray:none;stroke-dashoffset:0;stroke-opacity:1"
     d="M 2.0214844 0 C 1.0081363 -0.091264911 0.0326516 0.75513497 0.0078125 1.7773438 C 0.0021314999 3.8456218 0.00552225 5.9140924 0.00390625 7.9824219 C -0.08735885 8.9957698 0.76099322 9.9732076 1.7832031 9.9980469 C 3.8514813 10.003728 5.9199516 9.998387 7.9882812 10 C 9.0016292 10.091264 9.9771135 9.242912 10.001953 8.2207031 C 10.007633 6.1052846 10.002256 3.99047 10.003906 1.875 C 10.021414 0.90005908 9.2003093 0.034763895 8.2265625 0.001953125 C 6.1582847 -0.0037279751 4.0898138 0.0016161003 2.0214844 0 z M 7.3164062 1.2929688 C 7.4745342 1.3187856 8.08354 1.7593212 8.40625 2.0820312 C 8.664418 2.3369722 8.7380192 2.4369758 8.8574219 2.6757812 C 8.9929601 2.9500848 9 2.9788393 9 3.2402344 C 9 3.6081238 8.9088162 3.8131609 8.6054688 4.1132812 C 8.3634362 4.3520867 8.0836653 4.5230911 7.7480469 4.6328125 C 7.5673293 4.6909003 7.4864261 4.7426 7.2734375 4.9394531 C 7.1249909 5.0782184 6.9240902 5.2231622 6.8046875 5.28125 C 6.6142886 5.3748359 6.5806023 5.3807751 6.3417969 5.3710938 C 6.1965774 5.3614127 6.0800781 5.365319 6.0800781 5.375 C 6.0800781 5.384681 6.1702546 5.4801223 6.2832031 5.5898438 C 6.6769093 5.9770958 7.1190153 6.1944556 7.7773438 6.3203125 C 8.041966 6.3719461 8.1603249 6.4065873 8.1796875 6.4453125 C 8.2248669 6.5292171 8.1392804 6.590181 7.9101562 6.6289062 C 7.1872858 6.7547632 6.4664914 6.4915448 5.9082031 5.8945312 L 5.7558594 5.7324219 L 5.7792969 6.0625 C 5.8180221 6.5820631 5.8081721 7.2758031 5.7597656 7.4726562 C 5.6952236 7.7372785 5.5786446 7.9657668 5.4140625 8.1464844 C 5.0590815 8.5401906 4.3946474 8.7792171 3.8847656 8.6953125 C 3.6040079 8.6501331 3.3169304 8.4888054 3.078125 8.25 C 2.529518 7.6981659 2.5853906 6.9622297 3.1953125 6.6621094 C 3.5632019 6.4846189 3.9500529 6.612748 4.1953125 7 L 4.2539062 7.09375 L 4.1132812 7.2167969 C 3.9519262 7.3620164 3.9232424 7.3644755 3.78125 7.2773438 C 3.5456717 7.1353513 3.3108842 7.2586466 3.3496094 7.5039062 C 3.4238327 7.9589274 4.0692733 8.0427385 4.3984375 7.6425781 C 4.5662467 7.4392708 4.610649 7.2531701 4.6074219 6.7949219 C 4.6041949 6.4689848 4.5885743 6.3297545 4.5175781 6.0683594 C 4.4723987 5.8908689 4.4335937 5.7224033 4.4335938 5.6933594 C 4.4335938 5.6610884 4.3463914 5.7297805 4.2011719 5.875 C 3.6332023 6.4397425 2.943063 6.7063567 2.2363281 6.6289062 C 1.8652116 6.5869539 1.7682527 6.5360975 1.8457031 6.4199219 C 1.8586115 6.3973322 2.0000752 6.359122 2.1582031 6.3300781 C 2.9068903 6.1945399 3.5075368 5.886999 3.8496094 5.4707031 L 3.9433594 5.3574219 L 3.6621094 5.3574219 C 3.4136227 5.3574219 3.3622739 5.3494456 3.171875 5.2558594 C 3.0298826 5.1848632 2.8852852 5.0747384 2.7207031 4.9101562 C 2.5173958 4.7036218 2.4558507 4.6611773 2.3203125 4.6289062 C 2.0395548 4.5643642 1.6650972 4.3441898 1.4101562 4.0957031 C 1.1068088 3.802037 1 3.5824756 1 3.2597656 C 0.9967729 2.659525 1.4298859 2.081899 2.3496094 1.46875 L 2.6035156 1.2988281 L 3.2207031 1.3046875 C 3.8596689 1.3079145 4.2689364 1.3336425 4.2753906 1.3691406 C 4.2786176 1.3788216 4.2858351 1.4590641 4.2890625 1.5429688 C 4.2955165 1.6817341 4.2883879 1.7021883 4.2109375 1.7441406 C 4.0721722 1.8151368 3.8652389 2.0371846 3.7910156 2.1953125 C 3.7426091 2.2953526 3.7246094 2.4055617 3.7246094 2.5507812 C 3.7246094 2.7218176 3.7137433 2.7639248 3.6621094 2.7929688 C 3.6137029 2.8187856 3.5849211 2.8114836 3.5429688 2.7695312 C 3.4655183 2.6888537 3.4950682 2.3417262 3.6015625 2.109375 C 3.68224 1.9351116 3.891295 1.6925161 4.0429688 1.5957031 C 4.1171921 1.5472966 4.0690795 1.5428001 3.4042969 1.5234375 L 2.6835938 1.5019531 L 2.4882812 1.6367188 C 2.2978823 1.7658028 1.8515625 2.1114968 1.8515625 2.1308594 C 1.8515625 2.1373134 1.9193225 2.1215202 2 2.0957031 C 2.3807978 1.9827546 3.0940873 1.9696776 3.1328125 2.0761719 C 3.181219 2.1955746 3.1082127 2.2181552 2.6757812 2.2246094 C 2.3046647 2.2310634 2.2230961 2.2442204 1.9746094 2.328125 C 1.8035731 2.3862128 1.6735752 2.414573 1.6445312 2.3984375 C 1.6122602 2.3790749 1.5643734 2.4189806 1.4804688 2.5351562 C 1.102898 3.0482652 1.1544382 3.5987343 1.6191406 4.0214844 C 1.8321292 4.2151104 2.1676976 4.3897726 2.4355469 4.4414062 C 2.6098103 4.4769044 2.6364521 4.4927687 2.8300781 4.7089844 C 3.0656564 4.9703795 3.3487479 5.1458895 3.5488281 5.1523438 C 3.6198243 5.1555708 3.7567026 5.1457211 3.8535156 5.1328125 C 3.9503286 5.116677 4.0503551 5.106827 4.0761719 5.1132812 C 4.1084429 5.1197353 4.1131969 5.0869631 4.1035156 4.9804688 C 4.0906072 4.8707473 4.1040216 4.8229493 4.1621094 4.7519531 C 4.2621495 4.6357775 4.2854138 4.4348859 4.2402344 4.1347656 C 4.2015092 3.8765976 4.2209515 3.7929688 4.3242188 3.7929688 C 4.4145776 3.7929688 4.4459916 3.9350979 4.4492188 4.3320312 C 4.4492188 4.6870123 4.4434485 4.7319068 4.3789062 4.8222656 C 4.3337268 4.8803534 4.3046875 4.9673871 4.3046875 5.0351562 C 4.3046875 5.2675075 4.0215071 5.6606485 3.6503906 5.9414062 C 3.4470833 6.09308 2.9133036 6.375 2.8261719 6.375 C 2.797128 6.375 2.7839666 6.3848496 2.796875 6.3945312 C 2.8323731 6.4332565 3.3462843 6.25281 3.5625 6.1269531 C 3.6819027 6.059184 3.8946065 5.8807842 4.0527344 5.7226562 C 4.2076352 5.5645283 4.3569957 5.4394531 4.3828125 5.4394531 C 4.4570358 5.4394531 4.6118341 5.6487657 4.6699219 5.8359375 C 4.8312769 6.3490464 4.862185 7.1000971 4.7363281 7.4550781 C 4.5782002 7.9068721 4.211391 8.1500533 3.7402344 8.1113281 C 3.4497954 8.0855113 3.2238505 7.8780767 3.1367188 7.5585938 C 3.0915393 7.3811032 3.120916 7.2618965 3.25 7.1328125 C 3.3887653 6.9972743 3.5494936 6.9680663 3.7753906 7.0390625 C 3.8722036 7.0681064 3.9597478 7.0839001 3.9726562 7.0742188 C 4.0049273 7.0387206 3.8789997 6.9167837 3.7402344 6.8554688 C 3.5627439 6.7747912 3.4429469 6.7788661 3.2460938 6.8789062 C 2.933065 7.0338071 2.8359284 7.3517084 2.984375 7.7421875 C 3.1618655 8.2197983 3.7178658 8.53932 4.2890625 8.4941406 C 4.756992 8.4521883 5.2797094 8.0953043 5.4765625 7.6757812 C 5.5959652 7.4176132 5.6122648 7.1823744 5.5703125 6.2949219 C 5.554177 5.9399409 5.5495914 5.6135388 5.5625 5.5683594 C 5.572181 5.52318 5.6254216 5.4652699 5.6738281 5.4394531 C 5.7609598 5.3910466 5.7637516 5.3941848 5.8476562 5.5039062 C 6.128414 5.8847041 6.5511801 6.1998045 6.9707031 6.3417969 C 7.2288711 6.4321557 7.2223323 6.4040485 6.9609375 6.3007812 C 6.3284259 6.0522945 5.6914063 5.4001604 5.6914062 5 C 5.6914062 4.9580477 5.6624512 4.8764472 5.6269531 4.8183594 C 5.5430485 4.6699128 5.5153675 4.4024463 5.5605469 4.1152344 C 5.6089534 3.8086599 5.6623578 3.7346234 5.765625 3.8378906 C 5.8011231 3.8733887 5.807746 3.9188963 5.7851562 4.0253906 C 5.746431 4.2286979 5.7510166 4.5931506 5.7929688 4.6738281 C 5.8155585 4.7125533 5.8511363 4.758576 5.8769531 4.7714844 C 5.9092241 4.790847 5.9185636 4.8459515 5.9121094 4.9492188 L 5.9023438 5.0976562 L 6.1113281 5.1347656 C 6.2275037 5.1573553 6.3663351 5.1777344 6.4179688 5.1777344 C 6.5922322 5.1809614 6.912433 4.9997607 7.1738281 4.7480469 C 7.3900438 4.5415125 7.4518374 4.5032317 7.6777344 4.4257812 C 8.0294883 4.3031514 8.2617894 4.1554159 8.4941406 3.9101562 C 8.8749384 3.5035416 8.8961653 3.0733139 8.5605469 2.5957031 C 8.4701881 2.4666191 8.4092241 2.4089666 8.3769531 2.421875 C 8.3511363 2.431556 8.2254663 2.4013273 8.0996094 2.359375 C 7.7801265 2.2496536 7.4350546 2.1987926 7.1542969 2.2246094 C 6.9380812 2.243972 6.9183106 2.2403233 6.8828125 2.1757812 C 6.8505415 2.1144663 6.8546164 2.096045 6.90625 2.0605469 C 6.9966088 1.9960049 7.589315 2.0058548 7.9023438 2.0800781 L 8.1601562 2.140625 L 8.015625 2.015625 C 7.7768196 1.8058635 7.306219 1.4962624 7.2578125 1.515625 C 7.2319957 1.525306 6.908905 1.5338823 6.5410156 1.5371094 C 5.9149582 1.5403364 5.8769486 1.5433902 5.9511719 1.5917969 C 6.1383437 1.7111996 6.3638715 1.9768907 6.4316406 2.1640625 C 6.5381349 2.4448202 6.5224256 2.8274459 6.40625 2.8242188 C 6.3320267 2.8209917 6.3013761 2.7501823 6.2949219 2.546875 C 6.2820135 2.2596631 6.1627179 2.0270999 5.9335938 1.8496094 C 5.6915612 1.6656647 5.6883478 1.6637252 5.7109375 1.625 C 5.7238459 1.6056374 5.7350541 1.5371983 5.7382812 1.4726562 L 5.7402344 1.3574219 L 6.4824219 1.3144531 C 6.8922636 1.2918634 7.2679997 1.2832874 7.3164062 1.2929688 z M 2.7265625 2.6152344 C 2.8975988 2.5894176 2.9780097 2.6474119 2.9199219 2.7539062 C 2.8973322 2.7990857 2.8354361 2.8217551 2.703125 2.8378906 C 2.4288215 2.8701616 2.0589493 3.0046606 1.8007812 3.1660156 C 1.5393861 3.3273706 1.5555399 3.3211649 1.5039062 3.2695312 C 1.43291 3.198535 1.4642398 3.130611 1.6191406 3.0273438 C 1.9386235 2.8143551 2.3264021 2.6700951 2.7265625 2.6152344 z M 7.3222656 2.6542969 C 7.5836607 2.6607509 7.9225359 2.7664637 8.2226562 2.9375 C 8.5292308 3.1117634 8.5868742 3.1666059 8.5449219 3.234375 C 8.4868341 3.3247338 8.4311438 3.319132 8.2246094 3.1835938 C 7.9632143 3.0190116 7.6613641 2.9031961 7.3515625 2.8515625 C 7.1127571 2.8096102 7.0957031 2.8027389 7.0957031 2.7285156 C 7.0957031 2.6510652 7.1028226 2.6478427 7.3222656 2.6542969 z M 3.9921875 2.9960938 C 4.0276856 2.9638227 4.178156 3.1181994 4.2265625 3.234375 C 4.3233755 3.4570449 4.2326838 3.5666729 4.1132812 3.3730469 C 4.0358308 3.2439629 3.9663707 3.0251377 3.9921875 2.9960938 z M 6.0351562 3.0273438 C 6.0609731 3.0499335 5.9662066 3.3186921 5.8984375 3.4316406 C 5.8403497 3.5219994 5.7558594 3.5246319 5.7558594 3.4375 C 5.7558594 3.2858263 5.9738413 2.9660288 6.0351562 3.0273438 z M 7.1035156 3.1191406 C 7.1579729 3.1235779 7.2286797 3.1475008 7.3222656 3.1894531 C 7.6837008 3.3572623 8.1317208 4.0514558 7.9316406 4.1289062 C 7.8412818 4.1644044 7.8290662 4.1515939 7.7128906 3.9160156 C 7.5741253 3.6255766 7.4099169 3.4606891 7.1582031 3.3574219 C 6.9548958 3.2767444 6.921107 3.2382858 6.9824219 3.1640625 C 7.0098522 3.1301779 7.0490583 3.1147034 7.1035156 3.1191406 z M 2.9257812 3.1210938 C 3.0096859 3.1275478 3.0292969 3.1437632 3.0292969 3.2050781 C 3.0292969 3.266393 2.9947446 3.296107 2.8398438 3.3574219 C 2.591357 3.457462 2.4544924 3.5936475 2.3125 3.8808594 C 2.1898702 4.126119 2.1554911 4.1610086 2.0683594 4.109375 C 1.9941361 4.0706498 1.9977005 4.0344908 2.1074219 3.8085938 C 2.2881395 3.4277959 2.6805216 3.098504 2.9257812 3.1210938 z M 3.2714844 3.671875 C 3.2864097 3.6714716 3.3009499 3.6791769 3.3203125 3.6953125 C 3.3461293 3.7179022 3.3691406 3.7567072 3.3691406 3.7792969 C 3.3691406 3.8051137 3.285587 3.9939583 3.1855469 4.1972656 C 3.0338732 4.5038401 2.9838691 4.5683594 2.9257812 4.5683594 C 2.8838289 4.5683594 2.8488459 4.5413575 2.8359375 4.5058594 C 2.8165749 4.4380903 3.1303443 3.7734421 3.2207031 3.6992188 C 3.2416793 3.6814697 3.256559 3.6722784 3.2714844 3.671875 z M 6.7382812 3.6953125 C 6.7963691 3.6953125 6.8418721 3.7677286 7 4.0839844 C 7.1516737 4.3873318 7.1840199 4.4834383 7.1582031 4.5253906 C 7.1130237 4.5996139 7.0641158 4.6089534 7.0253906 4.5605469 C 6.9382589 4.4508255 6.6303489 3.78932 6.6464844 3.7441406 C 6.6561654 3.7183238 6.699556 3.6953125 6.7382812 3.6953125 z "
     transform="scale(9.9999999,9.9999999)" />
</svg>
