<?xml version="1.0" encoding="utf-8"?>
<svg xmlns="http://www.w3.org/2000/svg" xmlns:svg="http://www.w3.org/2000/svg" height="99.44px" version="1.1" width="99.441px" viewBox="0 0 99.441 99.44">
	<path d="M69.708,27.509h-6.66c-1.229,0-2.221,0.995-2.221,2.221v6.664c0,1.225,0.992,2.221,2.221,2.221h6.66   c1.229,0,2.223-0.996,2.223-2.221V29.73C71.931,28.504,70.937,27.509,69.708,27.509z"/>
	<path d="M67.487,49.719c0,9.813-7.953,17.766-17.766,17.766s-17.767-7.952-17.767-17.766   c0-1.536,0.217-3.021,0.584-4.444h-5.027v24.433c0,1.225,0.993,2.219,2.223,2.219h39.974c1.229,0,2.223-0.994,2.223-2.219V45.275   h-5.025C67.271,46.698,67.487,48.183,67.487,49.719z"/>
	<path d="M88.701,0h-77.96C4.809,0,0,4.809,0,10.74v77.962c0,5.93,4.809,10.738,10.74,10.738h77.96   c5.932,0,10.74-4.809,10.74-10.738V10.74C99.441,4.809,94.633,0,88.701,0z M78.593,71.926c0,3.682-2.982,6.666-6.662,6.666H27.511   c-3.68,0-6.662-2.984-6.662-6.666V27.509c0-3.68,2.982-6.661,6.662-6.661h44.419c3.68,0,6.662,2.981,6.662,6.661V71.926z"/>
	<circle cx="49.722" cy="49.719" r="11.104"/>
</svg>
