<?xml version="1.0" encoding="utf-8"?>
<svg xmlns="http://www.w3.org/2000/svg" height="99.44px" version="1.1" width="99.44px" viewBox="0 0 99.44 99.44">
	<path d="M63.048 27.509c-1.229 0-2.221.995-2.221 2.221v6.664c0 1.225.992 2.221 2.221 2.221h6.66c1.229 0 2.223-.996 2.223-2.221V29.73c0-1.226-.994-2.221-2.223-2.221z"/>
	<path d="M27.511 45.275v24.433c0 1.225.993 2.219 2.223 2.219h39.974c1.229 0 2.223-.994 2.223-2.219V45.275h-5.025c.365 1.423.581 2.908.581 4.444 0 9.813-7.953 17.766-17.766 17.766s-17.767-7.952-17.767-17.766c0-1.536.217-3.021.584-4.444z"/>
	<path d="M10.741 0C4.809 0 0 4.809 0 10.74v77.962c0 5.93 4.809 10.738 10.74 10.738H88.7c5.932 0 10.74-4.809 10.74-10.738V10.74C99.44 4.809 94.633 0 88.701 0zM71.93 20.848c3.68 0 6.662 2.981 6.662 6.661l.001 44.417c0 3.682-2.982 6.666-6.662 6.666H27.511c-3.68 0-6.662-2.984-6.662-6.666V27.509c0-3.68 2.982-6.661 6.662-6.661z"/>
	<circle cx="49.722" cy="49.719" r="11.104"/>
</svg>
