<?xml version="1.0" encoding="UTF-8" standalone="no"?>
<svg
   xmlns:dc="http://purl.org/dc/elements/1.1/"
   xmlns:cc="http://creativecommons.org/ns#"
   xmlns:rdf="http://www.w3.org/1999/02/22-rdf-syntax-ns#"
   xmlns:svg="http://www.w3.org/2000/svg"
   xmlns="http://www.w3.org/2000/svg"
   id="svg4"
   viewBox="0 0 10 10"
   version="1.1"
   height="10"
   width="10">
  <metadata
     id="metadata10">
    <rdf:RDF>
      <cc:Work
         rdf:about="">
        <dc:format>image/svg+xml</dc:format>
        <dc:type
           rdf:resource="http://purl.org/dc/dcmitype/StillImage" />
        <dc:title></dc:title>
      </cc:Work>
    </rdf:RDF>
  </metadata>
  <defs
     id="defs8" />
  <path
     id="path2"
     d="M 1.875 0 C 0.84 0 0 0.84 0 1.875 L 0 8.125 C 0 9.16 0.84 10 1.875 10 L 8.125 10 C 9.16 10 10 9.16 10 8.125 L 10 1.875 C 10 0.84 9.16 0 8.125 0 L 1.875 0 z M 4.9609375 2 L 7.5117188 2.5957031 L 7.3652344 2.7578125 L 4.9609375 2.7578125 L 2.5566406 2.7578125 L 2.4101562 2.5957031 L 4.9609375 2 z M 2.5253906 2.9160156 L 7.3964844 2.9160156 L 7.3964844 3.4394531 L 2.5253906 3.4394531 L 2.5253906 2.9160156 z M 2.9277344 3.546875 C 2.9997556 3.5469938 3.0712329 3.5547704 3.1425781 3.5703125 C 3.1598625 3.574097 3.1689507 3.5787385 3.1699219 3.5996094 C 3.1816923 3.8414231 3.1975278 4.0823276 3.2070312 4.3242188 C 3.2171093 4.5809448 3.2243578 4.8368471 3.2285156 5.09375 C 3.2315856 5.2758117 3.2294325 5.45851 3.2265625 5.640625 C 3.2233645 5.8426501 3.2191575 6.0442187 3.2109375 6.2460938 C 3.2021665 6.4627456 3.1876703 6.679973 3.1757812 6.8964844 C 3.1735013 6.9379653 3.1692856 6.9792054 3.1660156 7.0195312 C 3.0860629 7.0403412 3.0069494 7.0517631 2.9277344 7.0527344 C 2.8485192 7.0517454 2.7693911 7.0403303 2.6894531 7.0195312 C 2.6861831 6.9792053 2.6818675 6.9379774 2.6796875 6.8964844 C 2.6677885 6.679973 2.6552944 6.4627456 2.6464844 6.2460938 C 2.6383454 6.0442187 2.6320763 5.8426501 2.6289062 5.640625 C 2.6260364 5.45851 2.6259363 5.2758117 2.6289062 5.09375 C 2.6330932 4.8368471 2.6383595 4.5809448 2.6484375 4.3242188 C 2.6579115 4.0823276 2.6737869 3.8414231 2.6855469 3.5996094 C 2.6865669 3.5787564 2.6955766 3.5740725 2.7128906 3.5703125 C 2.7842328 3.5547555 2.8557164 3.5469888 2.9277344 3.546875 z M 4.2539062 3.546875 C 4.3259137 3.5469938 4.3974148 3.5547704 4.46875 3.5703125 C 4.4860344 3.574097 4.4951226 3.5787385 4.4960938 3.5996094 C 4.5078542 3.8414231 4.5236996 4.0823276 4.5332031 4.3242188 C 4.543251 4.5809448 4.5505298 4.8368471 4.5546875 5.09375 C 4.5577575 5.2758117 4.5556044 5.45851 4.5527344 5.640625 C 4.5495364 5.8426501 4.5453294 6.0442187 4.5371094 6.2460938 C 4.5283384 6.4627456 4.5138421 6.679973 4.5019531 6.8964844 C 4.4996731 6.9379653 4.4954575 6.9792054 4.4921875 7.0195312 C 4.4122348 7.0403412 4.3331212 7.0517631 4.2539062 7.0527344 C 4.1747049 7.0517454 4.095583 7.0403303 4.015625 7.0195312 C 4.012355 6.9792053 4.0080394 6.9379774 4.0058594 6.8964844 C 3.9939604 6.679973 3.9814662 6.4627456 3.9726562 6.2460938 C 3.9645173 6.0442187 3.9582481 5.8426501 3.9550781 5.640625 C 3.9522081 5.45851 3.9521081 5.2758117 3.9550781 5.09375 C 3.9592651 4.8368471 3.9645314 4.5809448 3.9746094 4.3242188 C 3.9840834 4.0823276 3.9999487 3.8414231 4.0117188 3.5996094 C 4.0127388 3.5787564 4.0217485 3.5740725 4.0390625 3.5703125 C 4.1104046 3.5547555 4.1818883 3.5469888 4.2539062 3.546875 z M 5.7929688 3.546875 C 5.8649889 3.5469938 5.9364773 3.5547704 6.0078125 3.5703125 C 6.0251068 3.574097 6.0341842 3.5787385 6.0351562 3.5996094 C 6.0469069 3.8414231 6.060809 4.0823276 6.0703125 4.3242188 C 6.0803802 4.5809448 6.0876392 4.8368471 6.0917969 5.09375 C 6.0948669 5.2758117 6.0927137 5.45851 6.0898438 5.640625 C 6.0866457 5.8426501 6.0823387 6.0442187 6.0742188 6.2460938 C 6.0654386 6.4627456 6.0529046 6.679973 6.0410156 6.8964844 C 6.0387356 6.9379653 6.03452 6.9792054 6.03125 7.0195312 C 5.9512974 7.0403412 5.8721837 7.0517631 5.7929688 7.0527344 C 5.7137555 7.0517454 5.6326824 7.0403303 5.5527344 7.0195312 C 5.5494644 6.9792053 5.5451488 6.9379774 5.5429688 6.8964844 C 5.5310698 6.679973 5.5185756 6.4627456 5.5097656 6.2460938 C 5.5016266 6.0442187 5.4973106 5.8426501 5.4941406 5.640625 C 5.4912706 5.45851 5.4892175 5.2758117 5.4921875 5.09375 C 5.4963745 4.8368471 5.5035939 4.5809448 5.5136719 4.3242188 C 5.5231259 4.0823276 5.5370581 3.8414231 5.5488281 3.5996094 C 5.5498381 3.5787564 5.5588579 3.5740725 5.5761719 3.5703125 C 5.647517 3.5547555 5.7209508 3.5469888 5.7929688 3.546875 z M 7.0859375 3.546875 C 7.1579578 3.5469938 7.229456 3.5547704 7.3007812 3.5703125 C 7.3180755 3.574097 7.3271588 3.5787385 7.328125 3.5996094 C 7.3398855 3.8414231 7.3557309 4.0823276 7.3652344 4.3242188 C 7.3753021 4.5809448 7.3825609 4.8368471 7.3867188 5.09375 C 7.3897888 5.2758117 7.3876356 5.45851 7.3847656 5.640625 C 7.3815676 5.8426501 7.3773606 6.0442187 7.3691406 6.2460938 C 7.3603696 6.4627456 7.3458734 6.679973 7.3339844 6.8964844 C 7.3317044 6.9379653 7.3274887 6.9792054 7.3242188 7.0195312 C 7.2442789 7.0403412 7.1651525 7.0517631 7.0859375 7.0527344 C 7.0067362 7.0517454 6.9276232 7.0403303 6.8476562 7.0195312 C 6.8443862 6.9792053 6.8400706 6.9379774 6.8378906 6.8964844 C 6.8260016 6.679973 6.8134975 6.4627456 6.8046875 6.2460938 C 6.7965485 6.0442187 6.7922325 5.8426501 6.7890625 5.640625 C 6.7861925 5.45851 6.7841394 5.2758117 6.7871094 5.09375 C 6.7912964 4.8368471 6.7965626 4.5809448 6.8066406 4.3242188 C 6.8161046 4.0823276 6.831989 3.8414231 6.84375 3.5996094 C 6.84476 3.5787564 6.8537598 3.5740725 6.8710938 3.5703125 C 6.942424 3.5547555 7.0139295 3.5469888 7.0859375 3.546875 z M 2.5566406 7.2050781 L 7.453125 7.2050781 L 7.453125 7.5820312 L 2.5566406 7.5820312 L 2.5566406 7.2050781 z M 2.3476562 7.7285156 L 7.6523438 7.7285156 L 7.6523438 8 L 2.3476562 8 L 2.3476562 7.7285156 z "
     style="fill:#222222;fill-opacity:1" />
</svg>
