<?xml version="1.0" encoding="UTF-8" standalone="no"?>
<svg
   xmlns="http://www.w3.org/2000/svg"
   version="1.1"
   width="10"
   height="10"
   viewBox="0 0 10 10">
  <path
     d="M 5,0.33333334 10,2.3333334 10,3 9.3333333,3 C 9.3333333,3.1823334 9.172,3.3333334 8.974,3.3333334 l -7.948,0 C 0.828,3.3333334 0.66666667,3.1823334 0.66666667,3 L 0,3 0,2.3333334 Z m -3.6666667,3.33333336 1.3333334,0 0,4 0.6666666,0 0,-4 1.3333334,0 0,4 0.6666666,0 0,-4 1.3333334,0 0,4 0.6666666,0 0,-4 1.3333334,0 0,4 0.3073333,0 c 0.198,0 0.3593333,0.151 0.3593333,0.3333333 l 0,0.3333334 -8.66666663,0 0,-0.3333334 C 0.66666667,7.8176667 0.828,7.6666667 1.026,7.6666667 l 0.3073333,0 0,-4 z m 8.3073334,5 C 9.8386667,8.6666667 10,8.8176667 10,9 l 0,0.6666667 -10,0 L 0,9 C 0,8.8176667 0.16133333,8.6666667 0.35933333,8.6666667 l 9.28133337,0 z"
     style="fill:#222222" />
</svg>
