<?xml version="1.0" encoding="UTF-8"?>
<svg width="10" height="10" version="1.1" viewBox="0 0 10 10" xmlns="http://www.w3.org/2000/svg">
	<path d="m2.0215 0c-1.0133-0.091265-1.9888 0.75513-2.0137 1.7773-0.0057 2.0683-0.0023062 4.1367-0.0039062 6.2051-0.09126 1.0133 0.75709 1.9908 1.7793 2.0156 2.0683 0.0057001 4.1367 2.461e-4 6.2051 0.0019531 1.0133 0.09126 1.9888-0.75709 2.0137-1.7793 0.0057-2.1154 2.09e-4 -4.2302 0.001953-6.3457 0.01741-0.97503-0.8036-1.8402-1.7773-1.873-2.0683-0.00568-4.1367-3.4333e-4 -6.2051-0.0019531zm2.9785 1.7324 3.5 1.4004v0.4668h-0.4668c0 0.12763-0.11335 0.23438-0.25195 0.23438h-5.5625c-0.1386 0-0.25195-0.10674-0.25195-0.23438h-0.4668v-0.4668l3.5-1.4004zm-2.5664 2.334h0.93359v2.8008h0.4668v-2.8008h0.93359v2.8008h0.46484v-2.8008h0.93359v2.8008h0.4668v-2.8008h0.93359v2.8008h0.21484c0.1386 0 0.25195 0.10479 0.25195 0.23242v0.23438h-6.0664v-0.23438c0-0.12763 0.11335-0.23242 0.25195-0.23242h0.21484v-2.8008zm-0.68164 3.5h6.4961c0.1386 0 0.25195 0.10674 0.25195 0.23438v0.4668h-7v-0.4668c0-0.12763 0.11335-0.23438 0.25195-0.23438z" fill="#222"/>
</svg>
