<?xml version="1.0" encoding="UTF-8" standalone="no"?>
<svg
   xmlns:dc="http://purl.org/dc/elements/1.1/"
   xmlns:cc="http://creativecommons.org/ns#"
   xmlns:rdf="http://www.w3.org/1999/02/22-rdf-syntax-ns#"
   xmlns:svg="http://www.w3.org/2000/svg"
   xmlns="http://www.w3.org/2000/svg"
   height="10"
   width="10"
   id="svg4"
   version="1.1"
   viewBox="0 0 10 10">
  <metadata
     id="metadata10">
    <rdf:RDF>
      <cc:Work
         rdf:about="">
        <dc:format>image/svg+xml</dc:format>
        <dc:type
           rdf:resource="http://purl.org/dc/dcmitype/StillImage" />
        <dc:title></dc:title>
      </cc:Work>
    </rdf:RDF>
  </metadata>
  <defs
     id="defs8" />
  <!-- Font Awesome Free 5.15.1 by @fontawesome - https://fontawesome.com License - https://fontawesome.com/license/free (Icons: CC BY 4.0, Fonts: SIL OFL 1.1, Code: MIT License) -->
  <path
     style="stroke-width:0.01953125"
     id="path2"
     d="M 0.9375,0.9375 A 0.9375,0.9375 0 1 0 1.875,1.875 0.9375,0.9375 0 0 0 0.9375,0.9375 Z m 0,3.125 A 0.9375,0.9375 0 1 0 1.875,5 0.9375,0.9375 0 0 0 0.9375,4.0625 Z m 0,3.125 A 0.9375,0.9375 0 1 0 1.875,8.125 0.9375,0.9375 0 0 0 0.9375,7.1875 Z M 9.6875,7.5 h -6.25 A 0.3125,0.3125 0 0 0 3.125,7.8125 v 0.625 A 0.3125,0.3125 0 0 0 3.4375,8.75 h 6.25 A 0.3125,0.3125 0 0 0 10,8.4375 V 7.8125 A 0.3125,0.3125 0 0 0 9.6875,7.5 Z m 0,-6.25 h -6.25 A 0.3125,0.3125 0 0 0 3.125,1.5625 v 0.625 A 0.3125,0.3125 0 0 0 3.4375,2.5 h 6.25 A 0.3125,0.3125 0 0 0 10,2.1875 V 1.5625 A 0.3125,0.3125 0 0 0 9.6875,1.25 Z m 0,3.125 h -6.25 A 0.3125,0.3125 0 0 0 3.125,4.6875 v 0.625 A 0.3125,0.3125 0 0 0 3.4375,5.625 h 6.25 A 0.3125,0.3125 0 0 0 10,5.3125 V 4.6875 A 0.3125,0.3125 0 0 0 9.6875,4.375 Z" />
</svg>
