<?xml version="1.0" encoding="UTF-8" standalone="no"?>
<svg
   xmlns:dc="http://purl.org/dc/elements/1.1/"
   xmlns:cc="http://creativecommons.org/ns#"
   xmlns:rdf="http://www.w3.org/1999/02/22-rdf-syntax-ns#"
   xmlns:svg="http://www.w3.org/2000/svg"
   xmlns="http://www.w3.org/2000/svg"
   id="svg4"
   viewBox="0 0 10 10"
   version="1.1"
   height="10"
   width="10">
  <metadata
     id="metadata10">
    <rdf:RDF>
      <cc:Work
         rdf:about="">
        <dc:format>image/svg+xml</dc:format>
        <dc:type
           rdf:resource="http://purl.org/dc/dcmitype/StillImage" />
        <dc:title></dc:title>
      </cc:Work>
    </rdf:RDF>
  </metadata>
  <defs
     id="defs8" />
  <path
     id="path2"
     d="M 1.875 0 C 0.84 0 0 0.84 0 1.875 L 0 8.125 C 0 9.16 0.84 10 1.875 10 L 8.125 10 C 9.16 10 10 9.16 10 8.125 L 10 1.875 C 10 0.84 9.16 0 8.125 0 L 1.875 0 z M 2.5625 2.5625 A 0.5625 0.5625 0 0 1 3.125 3.125 A 0.5625 0.5625 0 1 1 2.5625 2.5625 z M 4.0429688 2.75 A 0.1875 0.1875 0 0 1 4.0625 2.75 L 7.8125 2.75 A 0.1875 0.1875 0 0 1 8 2.9375 L 8 3.3125 A 0.1875 0.1875 0 0 1 7.8125 3.5 L 4.0625 3.5 A 0.1875 0.1875 0 0 1 3.875 3.3125 L 3.875 2.9375 A 0.1875 0.1875 0 0 1 4.0429688 2.75 z M 2.5625 4.4375 A 0.5625 0.5625 0 0 1 3.125 5 A 0.5625 0.5625 0 1 1 2.5625 4.4375 z M 4.0429688 4.625 A 0.1875 0.1875 0 0 1 4.0625 4.625 L 7.8125 4.625 A 0.1875 0.1875 0 0 1 8 4.8125 L 8 5.1875 A 0.1875 0.1875 0 0 1 7.8125 5.375 L 4.0625 5.375 A 0.1875 0.1875 0 0 1 3.875 5.1875 L 3.875 4.8125 A 0.1875 0.1875 0 0 1 4.0429688 4.625 z M 2.5625 6.3125 A 0.5625 0.5625 0 0 1 3.125 6.875 A 0.5625 0.5625 0 1 1 2.5625 6.3125 z M 4.0429688 6.5 A 0.1875 0.1875 0 0 1 4.0625 6.5 L 7.8125 6.5 A 0.1875 0.1875 0 0 1 8 6.6875 L 8 7.0625 A 0.1875 0.1875 0 0 1 7.8125 7.25 L 4.0625 7.25 A 0.1875 0.1875 0 0 1 3.875 7.0625 L 3.875 6.6875 A 0.1875 0.1875 0 0 1 4.0429688 6.5 z "
     style="fill:#222222;fill-opacity:1" />
</svg>
