<svg width="100" height="100" fill="#fff" xmlns="http://www.w3.org/2000/svg" xmlns:xlink="http://www.w3.org/1999/xlink">
  <defs>
    <g id="laurel">
      <path d="M25.45 72.74c-3.25-1.16-6.7-2.71-9.36-5.05-3.43-3.02-6.6-6.7-7.96-11.07a19 19 0 0 1-.59-8.42 32 32 0 0 1 2.28-7.23c.77-1.86 1.67-3.3 2.76-4.83a54 54 0 0 1 4.54-5.54 22 22 0 0 1 5.78-4.23 21 21 0 0 0-5.76 3.9 58 58 0 0 0-5.03 6 35 35 0 0 0-3.07 5.1 27 27 0 0 0-2.06 5.83c-.74 3.23-.64 6.54.12 9.67 1.1 4.6 4.66 8.44 8.22 11.56 2.78 2.44 6.51 4.03 9.8 5.2Z"/>
      <path d="M19.85 63.67c-2.1.19-2.12 4.25-.88 6.36 1.46-.76 2.1-3.84.88-6.36m-2.93-2.62c-2.6.5-2.1 4.95-1.22 6.35 1.48-.53 2.48-3.77 1.2-6.36zm-4.52 3.24c2.57-1.68 3.1-3.1 3.08-5.87-.94.27-1.95.55-2.66 2.51-.43 1.2-.02 1.7-.42 3.35zm-2.25-2.92c2.96-1.14 3.25-2.1 4.34-5.56-.98.09-2.02.16-3.09 1.96-.65 1.1-.53 2.06-1.25 3.6M8.3 57.9c3.2-.48 4.48-1.48 5.76-5.18-3.47.13-3.66 1.56-5.76 5.18m-.97-3.53c2.6 0 4.83-1.28 6.22-4.93-1.2.18-3.2-1.01-6.22 4.93m-.11-4.43c2.76-.08 4.55-.31 6.82-4.48-3.73-.8-4.78 1.58-6.82 4.48m.81-4.82c2.85.54 5.51-.17 7.17-3.31-.9-.38-4.28-1-7.17 3.31m1.54-4.04a6.3 6.3 0 0 0 7.39-2.8c-1.04-.61-4.56-1-7.39 2.8m2.6-4.56c.57.4 4.55 1.47 6.85-1.35-.77-.76-4.29-1.32-6.85 1.35m2.68-3.5c1.47.71 5.22 1.05 7.4-1.44-1.95-1.04-5.17-.84-7.4 1.44m2.98-3.26s2.7.1 4.06-.69c1.5-.87 2.98-2.77 3.1-3.32-3-1.03-5.4.9-7.16 4.01m-2.3 2.41c-.23-.25-1.7-5.3 1.47-7.62.74 1.4.85 5.1-1.47 7.62m-3.17 3.92c-.75-1.1-2.11-5.93.92-7.79.66 1.69 1.5 3.73-.92 7.8zm-2.58 4.08c-1.67-.4-3.76-5.14-1.35-7.75 1.48 1.06 3.04 3.4 1.35 7.74zm-2.03 4.95c-.83-.14-3.65-3.13-2.48-7.61.05-.01 3.98.82 2.48 7.61m-1.01 4.66c-1.38-.36-4.62-3-4.03-7.49 3.97.9 4.03 5.57 3.99 7.44Zm.18 4.72C1.48 53.25.84 49.1.76 48.03c5.22.19 4.82 4.8 6.16 6.47m.48 3.04c-1.64.8-5.5-.1-7.4-3.41 1.01-.86 4.53-.76 7.4 3.42Zm1.56 3.48c-1.4 1.66-5.86.92-7.94-1.46 2.44-2.46 6.1-.37 7.94 1.46m3.28 4.36c-1.8 2.14-6.15.76-7.75-1.05.95-1.49 4.1-2.07 7.75 1.05m2.91 2.83c-.83 2.08-5.55 1.9-7.17.81.3-1.66 3.6-2.43 7.17-.82zm3.92 2.69c-1.08 2.34-5.68 2.55-7.31 1.63.34-1.62 2.94-2.97 7.31-1.63"/>
    </g>
  </defs>
  <rect width="100" height="100" ry="10" fill="#394451"/>
  <path d="M50.75 75.08c0 .2.17.37.37.37.21 0 .37-.16.37-.37v-1.51h.93q.12 0 .13-.13V72c0-1.23-.86-2.25-2-2.5l-1.1-.01c-1.15.26-2 1.28-2 2.5v1.45q0 .12.13.13h.93v1.51c0 .5.74.5.74 0v-1.51h1.5Z"/>
  <path d="M50 70v-1.82s-8.3-3.27-11.44-1.9a1.2 1.2 0 0 0 0 2.22c6.3 2.74 15.78-7.19 22.07-4.45 1.98.87 2.16 3.75 0 4.45C56.73 69.76 50 64.55 50 64.55V63" fill="none" stroke="#fff" stroke-width="1.09"/>
  <path d="M35.09 59.71h12.46c.39.26 1.86 1.01 2.45 1.01.43 0 1.8-.58 2.45-1.01h12.46v-21.9H52.75q-.96.61-2.02.99v13.75c0 .28-.44.55-.73.55s-.73-.27-.73-.55V38.8c-.73-.19-1.37-.6-2.02-.98H35.09Zm12.47-23.35a5 5 0 0 0 2.45 1.07c.49 0 2.07-.8 2.43-1.07h13.92v2.19c.96 0 1.82.86 1.82 1.81V60a1.9 1.9 0 0 1-1.78 1.84H53.64c0 1.19-.74 1.8-1.46 1.8h-4.36c-.64 0-1.45-.53-1.45-1.82H33.64c-.96 0-1.82-.87-1.82-1.82V40.36c0-.95.86-1.81 1.82-1.81v-2.19z"/>
  <path d="M45.55 44.63s-1.35-1-3.27-1c-1.7 0-3.43 1.26-3.43 3.22 0 2.93 4.38 3 4.38 4.44 0 1.28-2.02 1.57-4.1-.16l-1.2 2.02s1.5 1.4 3.96 1.4c2.05 0 3.99-.88 3.96-3.4-.03-3.04-4.66-3.1-4.66-4.39 0-1.22 1.92-1.2 3.39-.21zm15.53-.99h-6.24v10.9h6.24v-2.18h-3.75v-2.2h3.6V48h-3.6v-2.17h3.75z"/>
  <use xlink:href="#laurel" x="10"/>
  <use xlink:href="#laurel" x="-90" transform="scale(-1 1)"/>
</svg>
