<svg width="100" height="100" fill="#fff" xmlns="http://www.w3.org/2000/svg" xmlns:xlink="http://www.w3.org/1999/xlink">
  <defs>
    <g id="half">
      <path d="M35.45 72.74c-3.25-1.16-6.7-2.71-9.36-5.05-3.43-3.02-6.6-6.7-7.96-11.07a19 19 0 01-.59-8.42 32 32 0 012.28-7.23c.77-1.86 1.67-3.3 2.76-4.83a54 54 0 014.54-5.54 22 22 0 015.78-4.23 21 21 0 00-5.76 3.9 58 58 0 00-5.03 6 35 35 0 00-3.07 5.1 27 27 0 00-2.06 5.83c-.74 3.23-.64 6.54.12 9.67 1.1 4.6 4.66 8.44 8.22 11.56 2.78 2.44 6.51 4.03 9.8 5.2Z"/>
      <path d="M29.07 70.9c-1.08 2.34-5.68 2.55-7.31 1.63.34-1.62 2.94-2.97 7.31-1.63m.78-7.23c-2.1.19-2.12 4.25-.88 6.36 1.46-.76 2.1-3.84.88-6.36m-4.7 4.54c-.83 2.08-5.55 1.9-7.17.81.3-1.66 3.6-2.43 7.17-.82Zm1.77-7.16c-2.6.5-2.1 4.95-1.22 6.35 1.48-.53 2.48-3.77 1.2-6.36Zm-4.68 4.33c-1.8 2.14-6.15.76-7.75-1.05.95-1.49 4.1-2.07 7.75 1.05m.16-1.09c2.57-1.68 3.1-3.1 3.08-5.87-.94.27-1.95.55-2.66 2.51-.43 1.2-.02 1.7-.42 3.35Zm-2.25-2.92c2.96-1.14 3.25-2.1 4.34-5.56-.98.09-2.02.16-3.09 1.96-.65 1.1-.53 2.06-1.25 3.6m-1.19-.35c-1.4 1.66-5.86.92-7.94-1.46 2.44-2.46 6.1-.37 7.94 1.46M18.3 57.9c3.2-.48 4.48-1.48 5.76-5.18-3.47.13-3.66 1.56-5.76 5.18m-.9-.36c-1.64.8-5.5-.1-7.4-3.41 1.087-.821 4.53-.76 7.4 3.42Zm-.07-3.17c2.6 0 4.83-1.28 6.22-4.93-1.2.18-3.2-1.01-6.22 4.93m-.41.13c-5.44-1.25-6.08-5.4-6.16-6.47 5.22.19 4.82 4.8 6.16 6.47m.3-4.56c2.76-.08 4.55-.31 6.82-4.48-3.73-.8-4.78 1.58-6.82 4.48m-.48-.16c-1.38-.36-4.62-3-4.03-7.49 3.97.9 4.03 5.57 3.99 7.44Zm1.01-4.66c-.83-.14-3.65-3.13-2.48-7.61.05-.01 3.98.82 2.48 7.61m.28 0c2.85.54 5.51-.17 7.17-3.31-.896-.397-4.374-.957-7.17 3.31m1.54-4.04c3.616.993 6.253-.699 7.39-2.8-1.04-.61-4.56-1-7.39 2.8m.21-.91c-1.67-.4-3.76-5.14-1.35-7.75 1.48 1.06 3.04 3.4 1.35 7.74Zm2.39-3.65c.57.4 4.55 1.47 6.85-1.35-.77-.76-4.29-1.32-6.85 1.35m.19-.43c-.75-1.1-2.11-5.93.92-7.79.66 1.69 1.5 3.73-.92 7.8Zm2.49-3.07c1.47.71 5.22 1.05 7.4-1.44-1.95-1.04-5.17-.84-7.4 1.44m.68-.85c-.23-.25-1.7-5.3 1.47-7.62.74 1.4.85 5.1-1.47 7.62m2.3-2.41s2.7.1 4.06-.69c1.5-.87 2.98-2.77 3.1-3.32-2.8-1.28-5.4.9-7.16 4.01"/>
      <path d="M50.1 60.72c-.53 0-1.9-.58-2.55-1.01H35.09V37.81H47.25q.96.61 2.02.99V52.55c0 .28.44.55.83.55V37.43c-.6 0-2.18-.8-2.54-1.07H33.64v2.19c-.96 0-1.82.86-1.82 1.81V60a1.9 1.9 90 001.78 1.84H46.36c0 1.19.74 1.8 1.46 1.8H50.1Z" />
    </g>
  </defs>
  <rect width="100" height="100" ry="10" fill="#394451"/>
  <path d="M50.75 75.08c0 .2.17.37.37.37.21 0 .37-.16.37-.37v-1.51h.93q.12 0 .13-.13V72c0-1.23-.86-2.25-2-2.5l-1.1-.01c-1.15.26-2 1.28-2 2.5v1.45q0 .12.13.13h.93v1.51c0 .5.74.5.74 0v-1.51h1.5Z"/>
  <path d="M50 70v-1.82s-8.3-3.27-11.44-1.9a1.2 1.2 0 0 0 0 2.22c6.3 2.74 15.78-7.19 22.07-4.45 1.98.87 2.16 3.75 0 4.45C56.73 69.76 50 64.55 50 64.55V63" fill="none" stroke="#fff" stroke-width="1.09"/>
  <path d="M45.55 44.63s-1.35-1-3.27-1c-1.7 0-3.43 1.26-3.43 3.22 0 2.93 4.38 3 4.38 4.44 0 1.28-2.02 1.57-4.1-.16l-1.2 2.02s1.5 1.4 3.96 1.4c2.05 0 3.99-.88 3.96-3.4-.02-2.98-4.66-3.1-4.66-4.39 0-1.22 1.92-1.2 3.39-.21zm15.53-.99h-6.24v10.9h6.24v-2.18h-3.75v-2.2h3.6V48h-3.6v-2.17h3.75z"/>
  <use xlink:href="#half"/>
  <use xlink:href="#half" x="-100" transform="scale(-1 1)"/>
</svg>
