<?xml version="1.0" encoding="UTF-8" standalone="yes"?>
<svg width="100" height="100" fill="#fff" version="1.2" baseProfile="tiny-ps" xmlns="http://www.w3.org/2000/svg">
  <title>The Standard Ebooks Logo</title>
  <rect width="100" height="100" fill="#394451"/>
  <path d="M51.12 75.45c.21 0 .37-.16.37-.37v-1.51h.93c.07 0 .13-.06.13-.13V72c0-1.23-.86-2.25-2-2.5v-.76a.55.55 0 10-1.1 0v.75c-1.15.26-2 1.28-2 2.5v1.45c0 .07.06.13.13.13h.93v1.51a.37.37 0 10.74 0v-1.51h1.5v1.51c0 .2.17.37.37.37z"/>
  <path d="M50 70.73v-2.55s-8.3-3.27-11.44-1.9c-.99.43-.99 1.78 0 2.22 6.3 2.74 15.78-7.19 22.07-4.45 1.98.87 2.16 3.75 0 4.45C56.73 69.76 50 64.55 50 64.55v-1.82" fill="none" stroke="#fff" stroke-width="1.09"/>
  <path d="M33.64 38.55c-.96 0-1.82.86-1.82 1.81V60c0 .95.86 1.82 1.82 1.82h12.73v.12a1.45 1.7 0 001.45 1.7h4.36a1.45 1.7 0 001.46-1.7v-.1H66.4c.92-.02 1.78-.89 1.78-1.84V40.36c0-.95-.86-1.81-1.82-1.81h-1.1v21.13l-6.49.07-6.5.07-.83.4c-1.06.51-1.35.57-1.99.37a9.4 9.4 0 01-1.19-.5l-.67-.34H34.73v-21.2z"/>
  <path d="M33.64 36.36v24.45h13.62c.1.06.37.23.85.45.57.27 1.23.56 1.89.56.66 0 1.32-.3 1.89-.56.48-.22.74-.4.85-.45h13.62V36.36H52.44l-.13.1s-.4.25-.9.5a4.5 4.5 0 01-1.36.48h-.08a4.48 4.48 0 01-1.38-.47c-.5-.26-.9-.52-.9-.52l-.13-.09h-9.93zm1.45 1.46h12.16c.11.07.37.23.84.48.41.2.7.4 1.18.5v13.75c0 .28.44.55.73.55s.73-.27.73-.55V38.8c.48-.11.77-.3 1.18-.51.47-.25.73-.41.84-.48h12.16v21.9H52.45l-.12.08s-.4.23-.91.47c-.5.24-1.15.46-1.42.46s-.91-.22-1.42-.46c-.5-.24-.91-.47-.91-.47l-.12-.08H35.09z"/>
  <path d="M42.28 43.64c-1.7 0-3.43 1.25-3.43 3.21 0 1.1.74 2.08 2 2.7 1.25.63 2.38.98 2.38 1.74 0 .98-1 1.04-1.52 1.04-1.18 0-2.58-1.2-2.58-1.2l-1.2 2.02s1.5 1.4 3.96 1.4c2.05 0 3.96-.88 3.96-3.4 0-1.38-1.28-2.37-2.46-2.87-1.2-.51-2.2-.93-2.2-1.52 0-.57.44-.94 1.26-.94 1.08 0 2.13.73 2.13.73l.97-1.92s-1.35-1-3.27-1z"/>
  <path d="M61.08 43.64h-6.24v10.9h6.24v-2.18h-3.75v-2.2h3.6V48h-3.6v-2.17h3.75v-2.18z"/>
  <path d="m30.5 27.55a20.81 20.81 0 0 0-3.36 2.72 58.17 58.17 0 0 0-5.03 6 34.94 34.94 0 0 0-3.07 5.1 26.83 26.83 0 0 0-2.06 5.83c-0.74 3.23-0.64 6.54 0.12 9.67 1.1 4.6 4.66 8.44 8.22 11.56 2.78 2.44 6.51 4.03 9.8 5.2l0.33-0.89c-3.25-1.16-6.7-2.71-9.36-5.05-3.43-3.02-6.6-6.7-7.96-11.07a18.85 18.85 0 0 1-0.59-8.42 32.32 32.32 0 0 1 2.28-7.23c0.77-1.86 1.67-3.3 2.76-4.83a54.35 54.35 0 0 1 4.54-5.54 21.5 21.5 0 0 1 3.58-2.88z"/>
  <path d="m29.07 70.9s-2.3-0.73-4.13-0.52c-2.9 0.35-3.18 2.15-3.18 2.15s1.17 0.72 3.67 0.45c2.93-0.33 3.64-2.08 3.64-2.08z"/>
  <path d="m25.15 68.2s-1.95-0.91-3.8-0.9c-3.18 0.02-3.37 1.72-3.37 1.72s1.15 0.83 3.7 0.8c2.95-0.05 3.47-1.61 3.47-1.61z"/>
  <path d="m22.24 65.38s-1.85-1.62-3.64-2.07c-3.09-0.78-4.11 1.02-4.11 1.02s1.15 1.38 3.63 1.99c2.86 0.7 4.12-0.94 4.12-0.94z"/>
  <path d="m18.96 61.02s-1.58-1.67-3.74-2.33c-2.83-0.87-4.16 0.83-4.2 0.87 0 0 1.16 1.46 3.58 2.1 3.23 0.85 4.36-0.64 4.36-0.64z"/>
  <path d="m17.4 57.55s-1.48-2.24-3.67-3.3c-2.13-1.03-3.7-0.15-3.73-0.12 0 0 1.1 2 3.11 2.96 2.74 1.3 4.29 0.45 4.29 0.45z"/>
  <path d="m16.92 54.5c-0.78-0.74-0.84-2.75-1.96-4.37a4.88 4.88 0 0 0-4.2-2.1s0.28 2.84 2.24 4.55c2.08 1.82 3.92 1.92 3.92 1.92z"/>
  <path d="m16.7 49.73s0.08-2.46-0.57-4.33a4.8 4.8 0 0 0-3.42-3.11s-0.4 2.79 1.03 4.96c1.53 2.3 2.97 2.48 2.97 2.48z"/>
  <path d="m17.75 45.12s0.5-2.07 0.25-4.03c-0.38-2.96-2.68-3.59-2.73-3.58 0 0-0.79 2.74 0.34 5.08 1.19 2.5 2.14 2.53 2.14 2.53z"/>
  <path d="m19.78 40.16s0.8-1.86 0.7-3.84a4.8 4.8 0 0 0-2.05-3.9s-1.79 1.61-0.76 5.1c0.63 2.1 2.11 2.65 2.11 2.65z"/>
  <path d="m22.36 36.1s1.2-1.84 1.52-3.8a7.2 7.2 0 0 0-0.6-4s-1.94 0.85-1.86 4.12a8 8 0 0 0 0.94 3.67z"/>
  <path d="m25.53 32.17s1.42-1.52 1.8-3.58c0.3-1.72 0-3.58-0.33-4.04 0 0-1.85 1.15-1.99 4.06-0.1 2.2 0.38 3.24 0.52 3.56z"/>
  <path d="m27.83 29.76s2.71 0.1 4.06-0.69c1.5-0.87 2.98-2.77 3.1-3.32 0 0-2.37-1.04-4.58 0.86a10.06 10.06 0 0 0-2.58 3.15z"/>
  <path d="m24.85 33.02s1.3-1.51 3.52-1.9a5.76 5.76 0 0 1 3.88 0.46s-1.3 1.68-3.8 1.9c-2.2 0.21-3.28-0.32-3.6-0.46z"/>
  <path d="m22.17 36.52s1.24-1.46 3.46-1.85c1.72-0.3 2.54 0 3.39 0.5 0 0-1.04 1.6-3.55 1.83-2.19 0.2-2.98-0.35-3.3-0.48z"/>
  <path d="m19.57 41.08s1.16-1.8 3.24-2.67c2.13-0.9 3.23-0.47 4.15-0.13-0.3 0.44-1.5 2.27-3.43 2.82-2.12 0.6-3.62 0.06-3.96-0.02z"/>
  <path d="m18.03 45.12s1.02-1.87 3.04-2.89c2.06-1.05 3.19-0.7 4.13-0.42-0.26 0.46-1.33 2.37-3.23 3.06-2.06 0.74-3.6 0.31-3.94 0.25z"/>
  <path d="m17.22 49.94c0.88-1.14 1.37-2.35 2.72-3.56 1.68-1.5 3.12-1.02 4.1-0.92-0.49 0.9-1.2 2.32-2.7 3.4-1.78 1.28-3.77 1.07-4.12 1.08z"/>
  <path d="m17.33 54.37c0.75-1.22 1.1-2.18 2.32-3.53 1.5-1.67 2.92-1.38 3.9-1.4a9.28 9.28 0 0 1-2.37 3.61c-1.63 1.48-3.5 1.27-3.85 1.32z"/>
  <path d="m18.3 57.9c1.13-1.74 0.99-2.13 2.1-3.58 1.18-1.55 2.68-1.51 3.66-1.6-0.3 0.97-0.75 2.3-2.02 3.62-1.35 1.42-2.75 1.24-3.74 1.56z"/>
  <path d="m20.15 61.37c0.72-1.54 0.6-2.5 1.25-3.6 1.07-1.8 2.11-1.87 3.09-1.96-0.78 2.23-0.6 2.24-1.45 3.6-0.84 1.32-1.97 1.5-2.89 1.96z"/>
  <path d="m22.4 64.28c0.4-1.65-0.01-2.15 0.42-3.35 0.71-1.96 1.72-2.24 2.66-2.51-0.1 1.31 0.06 2.15-0.68 3.57-0.52 1.01-1.6 1.66-2.4 2.3z"/>
  <path d="m26.9 61.04s0.82 1.57 0.55 3.4c-0.38 2.56-1.75 2.96-1.75 2.96s-0.79-1.17-0.7-3.55c0.08-2.54 1.92-2.8 1.92-2.8z"/>
  <path d="m29.85 63.67s0.81 1.6 0.63 3.42c-0.22 2.35-1.51 2.94-1.51 2.94s-0.81-1.31-0.85-3.29c-0.05-3.02 1.73-3.07 1.73-3.07z"/>
  <path d="m69.5 27.55a20.81 20.81 0 0 1 3.36 2.72 58.17 58.17 0 0 1 5.03 6 34.94 34.94 0 0 1 3.07 5.1 26.83 26.83 0 0 1 2.06 5.83c0.74 3.23 0.64 6.54-0.12 9.67-1.1 4.6-4.66 8.44-8.22 11.56-2.78 2.44-6.51 4.03-9.8 5.2l-0.33-0.89c3.25-1.16 6.7-2.71 9.36-5.05 3.43-3.02 6.6-6.7 7.96-11.07a18.85 18.85 0 0 0 0.59-8.42 32.32 32.32 0 0 0-2.28-7.23c-0.77-1.86-1.67-3.3-2.76-4.83a54.35 54.35 0 0 0-4.54-5.54 21.5 21.5 0 0 0-3.58-2.88z"/>
  <path d="m70.93 70.9s2.3-0.73 4.13-0.52c2.9 0.35 3.18 2.15 3.18 2.15s-1.17 0.72-3.67 0.45c-2.93-0.33-3.64-2.08-3.64-2.08z"/>
  <path d="m74.85 68.2s1.95-0.91 3.8-0.9c3.18 0.02 3.37 1.72 3.37 1.72s-1.15 0.83-3.7 0.8c-2.95-0.05-3.47-1.61-3.47-1.61z"/>
  <path d="m77.76 65.38s1.85-1.62 3.64-2.07c3.09-0.78 4.11 1.02 4.11 1.02s-1.15 1.38-3.63 1.99c-2.86 0.7-4.12-0.94-4.12-0.94z"/>
  <path d="m81.04 61.02s1.58-1.67 3.74-2.33c2.83-0.87 4.16 0.83 4.2 0.87 0 0-1.16 1.46-3.58 2.1-3.23 0.85-4.36-0.64-4.36-0.64z"/>
  <path d="m82.6 57.55s1.48-2.24 3.67-3.3c2.13-1.03 3.7-0.15 3.73-0.12 0 0-1.1 2-3.11 2.96-2.74 1.3-4.29 0.45-4.29 0.45z"/>
  <path d="m83.08 54.5c0.78-0.74 0.84-2.75 1.96-4.37a4.88 4.88 0 0 1 4.2-2.1s-0.28 2.84-2.24 4.55c-2.08 1.82-3.92 1.92-3.92 1.92z"/>
  <path d="m83.3 49.73s-0.08-2.46 0.57-4.33a4.8 4.8 0 0 1 3.42-3.11s0.4 2.79-1.03 4.96c-1.53 2.3-2.97 2.48-2.97 2.48z"/>
  <path d="m82.25 45.12s-0.5-2.07-0.25-4.03c0.38-2.96 2.68-3.59 2.73-3.58 0 0 0.79 2.74-0.34 5.08-1.19 2.5-2.14 2.53-2.14 2.53z"/>
  <path d="m80.22 40.16s-0.8-1.86-0.7-3.84a4.8 4.8 0 0 1 2.05-3.9s1.79 1.61 0.76 5.1c-0.63 2.1-2.11 2.65-2.11 2.65z"/>
  <path d="m77.64 36.1s-1.2-1.84-1.52-3.8a7.2 7.2 0 0 1 0.6-4s1.94 0.85 1.86 4.12a8 8 0 0 1-0.94 3.67z"/>
  <path d="m74.47 32.17s-1.42-1.52-1.8-3.58c-0.3-1.72 0-3.58 0.33-4.04 0 0 1.85 1.15 1.99 4.06 0.1 2.2-0.38 3.24-0.52 3.56z"/>
  <path d="m72.17 29.76s-2.71 0.1-4.06-0.69c-1.5-0.87-2.98-2.77-3.1-3.32 0 0 2.37-1.04 4.58 0.86a10.06 10.06 0 0 1 2.58 3.15z"/>
  <path d="m75.15 33.02s-1.3-1.51-3.52-1.9a5.76 5.76 0 0 0-3.88 0.46s1.3 1.68 3.8 1.9c2.2 0.21 3.28-0.32 3.6-0.46z"/>
  <path d="m77.83 36.52s-1.24-1.46-3.46-1.85c-1.72-0.3-2.54 0-3.39 0.5 0 0 1.04 1.6 3.55 1.83 2.19 0.2 2.98-0.35 3.3-0.48z"/>
  <path d="m80.43 41.08s-1.16-1.8-3.24-2.67c-2.13-0.9-3.23-0.47-4.15-0.13 0.3 0.44 1.5 2.27 3.43 2.82 2.12 0.6 3.62 0.06 3.96-0.02z"/>
  <path d="m81.97 45.12s-1.02-1.87-3.04-2.89c-2.06-1.05-3.19-0.7-4.13-0.42 0.26 0.46 1.33 2.37 3.23 3.06 2.06 0.74 3.6 0.31 3.94 0.25z"/>
  <path d="m82.78 49.94c-0.88-1.14-1.37-2.35-2.72-3.56-1.68-1.5-3.12-1.02-4.1-0.92 0.49 0.9 1.2 2.32 2.7 3.4 1.78 1.28 3.77 1.07 4.12 1.08z"/>
  <path d="m82.67 54.37c-0.75-1.22-1.1-2.18-2.32-3.53-1.5-1.67-2.92-1.38-3.9-1.4a9.28 9.28 0 0 0 2.37 3.61c1.63 1.48 3.5 1.27 3.85 1.32z"/>
  <path d="m81.7 57.9c-1.13-1.74-0.99-2.13-2.1-3.58-1.18-1.55-2.68-1.51-3.66-1.6 0.3 0.97 0.75 2.3 2.02 3.62 1.35 1.42 2.75 1.24 3.74 1.56z"/>
  <path d="m79.85 61.37c-0.72-1.54-0.6-2.5-1.25-3.6-1.07-1.8-2.11-1.87-3.09-1.96 0.78 2.23 0.6 2.24 1.45 3.6 0.84 1.32 1.97 1.5 2.89 1.96z"/>
  <path d="m77.6 64.28c-0.4-1.65 0.01-2.15-0.42-3.35-0.71-1.96-1.72-2.24-2.66-2.51 0.1 1.31-0.06 2.15 0.68 3.57 0.52 1.01 1.6 1.66 2.4 2.3z"/>
  <path d="m73.1 61.04s-0.82 1.57-0.55 3.4c0.38 2.56 1.75 2.96 1.75 2.96s0.79-1.17 0.7-3.55c-0.08-2.54-1.92-2.8-1.92-2.8z"/>
  <path d="m70.15 63.67s-0.81 1.6-0.63 3.42c0.22 2.35 1.51 2.94 1.51 2.94s0.81-1.31 0.85-3.29c0.05-3.02-1.73-3.07-1.73-3.07z"/>
</svg>
