<svg width="600" height="140" fill="#222" xmlns="http://www.w3.org/2000/svg" xmlns:xlink="http://www.w3.org/1999/xlink">
  <defs>
    <path id="a" d="M0 0h11.21l2.75-7.88H31.4L34.13 0h11.2l-16-43.2h-13.3zm22.68-33.11 5.91 17.2H16.74z"/>
    <path id="d" d="M0 0v-43.2h11.76q9.85 0 14.66 1.42 4.84 1.39 8.29 4.75 3.04 2.93 4.52 6.75t1.47 8.66q0 4.9-1.48 8.75-1.47 3.83-4.51 6.75-3.48 3.36-8.35 4.78Q21.5.06 11.76.06zm11.15-8.43h4q6.84 0 10.43-3.39 3.62-3.39 3.62-9.85 0-6.43-3.6-9.8-3.58-3.35-10.45-3.35h-4z"/>
    <path id="o" d="M0 1.2c19.44 0 34.04-15.33 34.04-35.1 0-19.76-15.25-35.02-34.03-35.02-18.62 0-34.12 15.26-34.12 35.02C-34.1-14.13-20 1.2 0 1.2m0-55.27c23.16 0 23.6 40.35 0 40.35-24.25 0-22.82-40.35 0-40.35"/>
    <g id="half">
      <path d="M70.14 132.47c-8.93-3.19-18.41-7.45-25.72-13.88-9.43-8.3-18.14-18.41-21.88-30.42a52 52 0 0 1-1.62-23.14 88 88 0 0 1 6.27-19.87 64 64 0 0 1 7.58-13.27 148 148 0 0 1 12.48-15.23A61 61 0 0 1 63.13 5.04a58 58 0 0 0-15.81 10.72 159 159 0 0 0-13.83 16.49 96 96 0 0 0-8.44 14.01 74 74 0 0 0-5.66 16.02 58 58 0 0 0 .33 26.59c3.03 12.64 12.81 23.2 22.6 31.77 7.63 6.7 17.88 11.07 26.93 14.29Z"/>
      <path d="M52.61 127.41c-2.97 6.44-15.61 7.01-20.09 4.48.93-4.45 8.08-8.16 20.09-4.48m2.14-19.86c-5.77.52-5.82 11.68-2.42 17.47 4.02-2.08 5.78-10.55 2.42-17.47m-12.91 12.47c-2.28 5.72-15.26 5.22-19.7 2.23.82-4.56 9.89-6.68 19.7-2.26Zm4.86-19.67c-7.14 1.37-5.77 13.6-3.35 17.45 4.06-1.46 6.81-10.36 3.3-17.48Zm-12.86 11.9c-4.95 5.88-16.9 2.08-21.3-2.9 2.61-4.09 11.27-5.68 21.3 2.9m.44-3c7.06-4.62 8.52-8.52 8.46-16.13-2.58.74-5.36 1.5-7.3 6.9-1.19 3.3-.06 4.67-1.16 9.2Zm-6.18-8.03c8.13-3.13 8.93-5.77 11.92-15.28-2.7.25-5.55.44-8.49 5.4-1.79 3.01-1.46 5.65-3.43 9.88m-3.27-.96c-3.85 4.56-16.1 2.53-21.83-4.01 6.71-6.76 16.77-1.02 21.83 4.01m-1.82-8.57c8.8-1.32 12.31-4.07 15.83-14.24-9.54.36-10.06 4.29-15.83 14.24m-2.47-1c-4.5 2.2-15.12-.27-20.34-9.36 3-2.26 12.45-2.1 20.34 9.4Zm-.2-8.7c7.15 0 13.28-3.52 17.1-13.55-3.3.5-8.8-2.78-17.1 13.55m-1.12.35C4.27 78.91 2.51 67.5 2.29 64.56c14.35.53 13.25 13.2 16.93 17.78m.82-12.53c7.59-.22 12.5-.85 18.75-12.3-10.25-2.2-13.14 4.33-18.75 12.3m-1.32-.44c-3.79-.99-12.7-8.24-11.07-20.58 10.9 2.47 11.07 15.3 10.96 20.45Zm2.78-12.8c-2.28-.39-10.03-8.6-6.82-20.92.14-.02 10.94 2.26 6.82 20.92m.77 0c7.83 1.48 15.14-.47 19.7-9.1-2.47-1.1-12-2.64-19.7 9.1m4.23-11.1c9.95 2.74 17.18-1.93 20.31-7.7-2.86-1.68-12.53-2.75-20.3 7.7m.57-2.5c-4.6-1.1-10.33-14.13-3.71-21.3 4.07 2.9 8.35 9.34 3.7 21.27Zm6.57-10.04c1.56 1.1 12.5 4.04 18.82-3.7-2.11-2.1-11.79-3.63-18.82 3.7m.52-1.18c-2.06-3.02-5.8-16.3 2.53-21.4 1.81 4.64 4.12 10.24-2.53 21.43Zm6.84-8.44c4.04 1.96 14.35 2.89 20.34-3.95-5.36-2.86-14.21-2.31-20.34 3.95m1.87-2.33c-.63-.69-4.67-14.57 4.04-20.94 2.03 3.84 2.34 14.01-4.04 20.94m6.32-6.62s7.42.27 11.16-1.9c4.12-2.4 8.19-7.61 8.52-9.12C62.22.04 54.04 5.81 49.2 14.36m61.2 85.08c-1.45 0-5.22-1.6-7-2.78H69.15V36.48h33.42q2.64 1.67 5.55 2.72v37.79c0 .77 1.21 1.5 2.28 1.5V35.43c-1.65 0-5.99-2.2-6.98-2.94H65.17v6.02c-2.64 0-5 2.36-5 4.98v53.97a5.2 5.2 0 0 0 4.89 5.06h35.06c0 3.27 2.04 4.94 4.02 4.94h6.26Z"/>
    </g>
  </defs>
  <path d="M112.19 138.9c0 .55.46 1.02 1.01 1.02a1 1 0 0 0 1.02-1.02v-4.15h2.56q.33 0 .35-.35v-3.96a7 7 0 0 0-5.5-6.87l-3.02-.03a7.04 7.04 0 0 0-5.5 6.87v3.99q0 .33.37.35h2.55v4.15c0 1.38 2.04 1.38 2.04 0v-4.15h4.12z"/>
  <path fill="none" stroke="#222" stroke-width="3.05" d="M110.13 124.94v-5s-22.81-8.99-31.44-5.22a3.3 3.3 0 0 0 0 6.1c17.31 7.53 43.36-19.76 60.65-12.23 5.44 2.4 5.94 10.3 0 12.23-10.72 3.46-29.21-10.85-29.21-10.85v-4.26"/>
  <path d="M97.9 55.22s-3.71-2.75-8.99-2.75c-4.67 0-9.43 3.47-9.43 8.85 0 8.06 12.04 8.25 12.04 12.2 0 3.52-5.55 4.32-11.27-.43l-3.3 5.55s4.13 3.84 10.89 3.84c5.63 0 10.96-2.41 10.88-9.34-.05-8.19-12.8-8.52-12.8-12.06 0-3.36 5.27-3.3 9.31-.58zm42.68-2.72h-17.15v29.96h17.15v-6h-10.31v-6.04h9.9v-5.94h-9.9v-5.96h10.3z"/>
  <use xlink:href="#half"/>
  <use xlink:href="#half" x="-220.2" transform="scale(-1 1)"/>
  <g transform="translate(243.5 54)">
    <path d="M0-2.22A48 48 0 0 0 16.54.88c10.15 0 17.21-3.5 17.21-14.14q0-5.44-3.04-8.4t-10.26-4.4c-3.71-.75-10.58-.94-10.72-5.33-.18-6 10.57-4.59 14.23-3.71q3.4.81 6.95 2.4v-9.15C23.36-43.86-.38-48.74-.38-30.58c0 7.15 4.22 10.74 12.49 12.63 3.75.82 10.67.96 10.9 6.05 0 5.77-10.77 6.77-23.01.26zM52.8 0v-34.8H38.45v-8.4h39.87v8.4H63.97V0zm72.5 0v-43.2h12.45l15.73 29.66V-43.2h10.58V0h-12.45l-15.8-29.7V0zm144.8 0v-43.2h17.03q8.55 0 12.52 2.87 4 2.86 4 9.06 0 4.28-2.09 7.04-2.06 2.76-6.23 4.06a8 8 0 0 1 4.09 2.37 21 21 0 0 1 3.68 5.57L309.15 0h-11.88L292-10.75q-1.59-3.24-3.24-4.43c-2.22-1.5-4.96-1.19-7.5-1.19V0zm11.15-24.07h4.7c4.49 0 6.54-1.53 6.54-5.6 0-3.96-1.98-5.5-6.54-5.5h-4.7z"/>
    <use xlink:href="#a" x="74.24"/>
    <use xlink:href="#d" x="175"/>
    <use xlink:href="#a" x="219.1"/>
    <use xlink:href="#d" x="315.8"/>
  </g>
  <g transform="translate(243 128.8)">
    <path d="M0 0v-67.66h38.71v13.53H15.42v13.45h22.3v13.54h-22.3v13.61H38.7V0zm47.6 0h25.67c14.02 0 22.14-7.7 22.14-18.86 0-10.9-5.99-15.58-14.43-17.06 5.74-2.95 8.44-8.28 8.44-14.51 0-12.88-9.18-17.23-20.83-17.23H47.6zm15.42-41.16v-14.61c5.17 0 11.48.38 11.48 6.88 0 7.41-6.13 7.64-11.48 7.73m0 29.27v-16h4.83c7.3 0 11.32 2.22 11.32 8.45 0 5.33-4.02 7.55-11.31 7.55zM246 0v-67.66h15.42v27.64l23.2-27.64h18.7L276.09-35.6 307.59 0h-21.24l-24.93-28.7V0zm60-7.8s9.59 8.94 25.41 8.94c13.2 0 25.51-5.66 25.51-21.81 0-8.86-8.28-15.26-15.83-18.46-7.7-3.28-14.1-5.98-14.1-9.75 0-3.7 2.78-6.07 8.03-6.07 6.97 0 13.7 4.67 13.7 4.67l6.23-12.3s-8.7-6.4-21-6.4h.01c-10.9 0-22.06 8.04-22.06 20.67 0 7.05 4.75 13.37 12.87 17.39 8.04 4.01 15.26 6.23 15.26 11.15 0 6.31-6.4 6.64-9.76 6.64-7.55 0-16.57-7.63-16.57-7.63z"/>
    <use xlink:href="#o" x="133.3"/>
    <use xlink:href="#o" x="205.2"/>
  </g>
</svg>
