<svg width="100" height="100" fill="#fff" xmlns="http://www.w3.org/2000/svg" xmlns:xlink="http://www.w3.org/1999/xlink">
  <defs>
    <g id="laurel">
      <path d="M20.5 27.55a20.81 20.81 0 00-3.36 2.72 58.17 58.17 0 00-5.03 6 34.94 34.94 0 00-3.07 5.1 26.83 26.83 0 00-2.06 5.83c-.74 3.23-.64 6.54.12 9.67 1.1 4.6 4.66 8.44 8.22 11.56 2.78 2.44 6.51 4.03 9.8 5.2l.33-.89c-3.25-1.16-6.7-2.71-9.36-5.05-3.43-3.02-6.6-6.7-7.96-11.07a18.85 18.85 0 01-.59-8.42 32.32 32.32 0 012.28-7.23c.77-1.86 1.67-3.3 2.76-4.83a54.35 54.35 0 014.54-5.54 21.5 21.5 0 013.58-2.88z"/>
      <path d="M19.07 70.9s-2.3-.73-4.13-.52c-2.9.35-3.18 2.15-3.18 2.15s1.17.72 3.67.45c2.93-.33 3.64-2.08 3.64-2.08z"/>
      <path d="M15.15 68.2s-1.95-.91-3.8-.9c-3.18.02-3.37 1.72-3.37 1.72s1.15.83 3.7.8c2.95-.05 3.47-1.61 3.47-1.61z"/>
      <path d="M12.24 65.38s-1.85-1.62-3.64-2.07c-3.09-.78-4.11 1.02-4.11 1.02s1.15 1.38 3.63 1.99c2.86.7 4.12-.94 4.12-.94z"/>
      <path d="M8.96 61.02s-1.58-1.67-3.74-2.33c-2.83-.87-4.16.83-4.2.87 0 0 1.16 1.46 3.58 2.1 3.23.85 4.36-.64 4.36-.64z"/>
      <path d="M7.4 57.55s-1.48-2.24-3.67-3.3C1.6 53.22.03 54.1 0 54.13c0 0 1.1 2 3.11 2.96 2.74 1.3 4.29.45 4.29.45z"/>
      <path d="M6.92 54.5c-.78-.74-.84-2.75-1.96-4.37a4.88 4.88 0 00-4.2-2.1s.28 2.84 2.24 4.55c2.08 1.82 3.92 1.92 3.92 1.92z"/>
      <path d="M6.7 49.73s.08-2.46-.57-4.33a4.8 4.8 0 00-3.42-3.11s-.4 2.79 1.03 4.96c1.53 2.3 2.97 2.48 2.97 2.48z"/>
      <path d="M7.75 45.12s.5-2.07.25-4.03c-.38-2.96-2.68-3.59-2.73-3.58 0 0-.79 2.74.34 5.08 1.19 2.5 2.14 2.53 2.14 2.53z"/>
      <path d="M9.78 40.16s.8-1.86.7-3.84a4.8 4.8 0 00-2.05-3.9s-1.79 1.61-.76 5.1c.63 2.1 2.11 2.65 2.11 2.65z"/>
      <path d="M12.36 36.1s1.2-1.84 1.52-3.8a7.2 7.2 0 00-.6-4s-1.94.85-1.86 4.12a8 8 0 00.94 3.67z"/>
      <path d="M15.53 32.17s1.42-1.52 1.8-3.58c.3-1.72 0-3.58-.33-4.04 0 0-1.85 1.15-1.99 4.06-.1 2.2.38 3.24.52 3.56z"/>
      <path d="M17.83 29.76s2.71.1 4.06-.69c1.5-.87 2.98-2.77 3.1-3.32 0 0-2.37-1.04-4.58.86a10.06 10.06 0 00-2.58 3.15z"/>
      <path d="M14.85 33.02s1.3-1.51 3.52-1.9a5.76 5.76 0 013.88.46s-1.3 1.68-3.8 1.9c-2.2.21-3.28-.32-3.6-.46z"/>
      <path d="M12.17 36.52s1.24-1.46 3.46-1.85c1.72-.3 2.54 0 3.39.5 0 0-1.04 1.6-3.55 1.83-2.19.2-2.98-.35-3.3-.48z"/>
      <path d="M9.57 41.08s1.16-1.8 3.24-2.67c2.13-.9 3.23-.47 4.15-.13-.3.44-1.5 2.27-3.43 2.82-2.12.6-3.62.06-3.96-.02z"/>
      <path d="M8.03 45.12s1.02-1.87 3.04-2.89c2.06-1.05 3.19-.7 4.13-.42-.26.46-1.33 2.37-3.23 3.06-2.06.74-3.6.31-3.94.25z"/>
      <path d="M7.22 49.94c.88-1.14 1.37-2.35 2.72-3.56 1.68-1.5 3.12-1.02 4.1-.92-.49.9-1.2 2.32-2.7 3.4-1.78 1.28-3.77 1.07-4.12 1.08z"/>
      <path d="M7.33 54.37c.75-1.22 1.1-2.18 2.32-3.53 1.5-1.67 2.92-1.38 3.9-1.4a9.28 9.28 0 01-2.37 3.61c-1.63 1.48-3.5 1.27-3.85 1.32z"/>
      <path d="M8.3 57.9c1.13-1.74.99-2.13 2.1-3.58 1.18-1.55 2.68-1.51 3.66-1.6-.3.97-.75 2.3-2.02 3.62-1.35 1.42-2.75 1.24-3.74 1.56z"/>
      <path d="M10.15 61.37c.72-1.54.6-2.5 1.25-3.6 1.07-1.8 2.11-1.87 3.09-1.96-.78 2.23-.6 2.24-1.45 3.6-.84 1.32-1.97 1.5-2.89 1.96z"/>
      <path d="M12.4 64.28c.4-1.65-.01-2.15.42-3.35.71-1.96 1.72-2.24 2.66-2.51-.1 1.31.06 2.15-.68 3.57-.52 1.01-1.6 1.66-2.4 2.3z"/>
      <path d="M16.9 61.04s.82 1.57.55 3.4C17.07 67 15.7 67.4 15.7 67.4s-.79-1.17-.7-3.55c.08-2.54 1.92-2.8 1.92-2.8z"/>
      <path d="M19.85 63.67s.81 1.6.63 3.42c-.22 2.35-1.51 2.94-1.51 2.94s-.81-1.31-.85-3.29c-.05-3.02 1.73-3.07 1.73-3.07z"/>
    </g>
  </defs>
  <rect width="100" height="100" ry="10" fill="#394451"/>
  <path d="M51.12 75.45c.21 0 .37-.16.37-.37v-1.51h.93c.07 0 .13-.06.13-.13V72c0-1.23-.86-2.25-2-2.5v-.76a.55.55 0 10-1.1 0v.75c-1.15.26-2 1.28-2 2.5v1.45c0 .07.06.13.13.13h.93v1.51a.37.37 0 10.74 0v-1.51h1.5v1.51c0 .2.17.37.37.37z"/>
  <path d="M50 70.73v-2.55s-8.3-3.27-11.44-1.9c-.99.43-.99 1.78 0 2.22 6.3 2.74 15.78-7.19 22.07-4.45 1.98.87 2.16 3.75 0 4.45C56.73 69.76 50 64.55 50 64.55v-1.82" fill="none" stroke="#fff" stroke-width="1.09" stroke-linejoin="round"/>
  <path d="M33.64 38.55c-.96 0-1.82.86-1.82 1.81V60c0 .95.86 1.82 1.82 1.82h12.73v.12a1.45 1.7 0 001.45 1.7h4.36a1.45 1.7 0 001.46-1.7v-.1H66.4c.92-.02 1.78-.89 1.78-1.84V40.36c0-.95-.86-1.81-1.82-1.81h-1.1v21.13l-6.49.07-6.5.07-.83.4c-1.06.51-1.35.57-1.99.37a9.4 9.4 0 01-1.19-.5l-.67-.34H34.73v-21.2z"/>
  <path d="M33.64 36.36v24.45h13.62c.1.06.37.23.85.45.57.27 1.23.56 1.89.56.66 0 1.32-.3 1.89-.56.48-.22.74-.4.85-.45h13.62V36.36H52.44l-.13.1s-.4.25-.9.5a4.5 4.5 0 01-1.36.48h-.08a4.48 4.48 0 01-1.38-.47c-.5-.26-.9-.52-.9-.52l-.13-.09h-9.93zm1.45 1.46h12.16c.11.07.37.23.84.48.41.2.7.4 1.18.5v13.75c0 .28.44.55.73.55s.73-.27.73-.55V38.8c.48-.11.77-.3 1.18-.51.47-.25.73-.41.84-.48h12.16v21.9H52.45l-.12.08s-.4.23-.91.47c-.5.24-1.15.46-1.42.46s-.91-.22-1.42-.46c-.5-.24-.91-.47-.91-.47l-.12-.08H35.09z"/>
  <path d="M42.28 43.64c-1.7 0-3.43 1.25-3.43 3.21 0 1.1.74 2.08 2 2.7 1.25.63 2.38.98 2.38 1.74 0 .98-1 1.04-1.52 1.04-1.18 0-2.58-1.2-2.58-1.2l-1.2 2.02s1.5 1.4 3.96 1.4c2.05 0 3.96-.88 3.96-3.4 0-1.38-1.28-2.37-2.46-2.87-1.2-.51-2.2-.93-2.2-1.52 0-.57.44-.94 1.26-.94 1.08 0 2.13.73 2.13.73l.97-1.92s-1.35-1-3.27-1z" font-weight="700" font-size="35.09" font-family="League Spartan"/>
  <path d="M61.08 43.64h-6.24v10.9h6.24v-2.18h-3.75v-2.2h3.6V48h-3.6v-2.17h3.75v-2.18z" font-weight="700" font-size="36.36" font-family="League Spartan"/>
  <use xlink:href="#laurel" x="10"/>
  <use xlink:href="#laurel" transform="scale(-1, 1)" x="-90"/>
</svg>
