<?xml version="1.0" encoding="utf-8"?>
<svg xmlns="http://www.w3.org/2000/svg" xmlns:svg="http://www.w3.org/2000/svg" height="99.44px" id="svg1" version="1.1" width="99.441px" xml:space="preserve" viewBox="0 0 99.441 99.44">
	<defs id="defs1"/>
	<path d="M 14.207031 0 C 6.3716913 0 2.3684758e-15 6.3697395 0 14.205078 L 0 85.234375 C 0 93.069715 6.3716912 99.439453 14.207031 99.439453 L 85.234375 99.439453 C 93.069715 99.439453 99.441406 93.069715 99.441406 85.234375 L 99.441406 14.205078 C 99.441406 6.3697395 93.069715 0 85.234375 0 L 14.207031 0 z M 49.625 17.220703 L 49.828125 17.220703 C 58.138039 17.288642 66.136901 18.186795 70.794922 20.326172 C 70.794922 20.326172 80.033203 24.460063 80.033203 38.560547 C 80.033203 38.560547 80.150399 48.964609 78.746094 56.1875 C 77.854833 60.772679 70.76341 65.789211 62.619141 66.761719 C 58.372256 67.268459 54.189225 67.735767 49.730469 67.53125 C 42.43859 67.197158 36.685547 65.791016 36.685547 65.791016 C 36.685547 66.500873 36.728856 67.176481 36.816406 67.808594 C 37.7644 75.004869 43.953142 75.435704 49.814453 75.636719 C 55.730395 75.839135 60.998047 74.177734 60.998047 74.177734 L 61.240234 79.525391 C 61.240234 79.525391 57.101845 81.747566 49.730469 82.15625 C 45.66569 82.379678 40.618705 82.053989 34.740234 80.498047 C 21.990825 77.123512 19.798383 63.533646 19.462891 49.744141 C 19.360632 45.649943 19.423828 41.789398 19.423828 38.560547 C 19.423828 24.460063 28.662109 20.326172 28.662109 20.326172 C 33.32048 18.186795 41.315085 17.288642 49.625 17.220703 z M 40.220703 28.238281 C 37.228938 28.238281 34.818821 29.288368 32.978516 31.339844 C 31.193892 33.39132 30.304688 36.164896 30.304688 39.654297 L 30.304688 56.728516 L 37.068359 56.728516 L 37.068359 40.15625 C 37.068359 36.662997 38.53858 34.890625 41.478516 34.890625 C 44.729079 34.890625 46.359375 36.993359 46.359375 41.152344 L 46.359375 50.222656 L 53.082031 50.222656 L 53.082031 41.152344 C 53.082031 36.993359 54.712327 34.890625 57.962891 34.890625 C 60.902826 34.890625 62.373047 36.662997 62.373047 40.15625 L 62.373047 56.728516 L 69.136719 56.728516 L 69.136719 39.654297 C 69.136719 36.164896 68.247164 33.39132 66.462891 31.339844 C 64.622235 29.288368 62.212118 28.238281 59.220703 28.238281 C 55.758968 28.238281 53.139043 29.56734 51.40625 32.228516 L 49.720703 35.052734 L 48.035156 32.228516 C 46.302012 29.56734 43.682088 28.238281 40.220703 28.238281 z" id="path1"/>
	<g id="g1" transform="matrix(0.28016062,0,0,0.28016062,19.405103,17.220002)"/>
</svg>
