<?xml version="1.0" encoding="utf-8"?>
<svg xmlns="http://www.w3.org/2000/svg" height="99.44px" version="1.1" width="99.44px" viewBox="0 0 99.44 99.44">
	<path d="M14.2 0C6.38 0 0 6.37 0 14.2v71.03c0 7.84 6.37 14.2 14.2 14.2h71.03c7.84 0 14.21-6.36 14.21-14.2V14.21C99.44 6.37 93.07 0 85.24 0Zm47.04 79.53c-10.12 5.14-25.17 1.32-26.5.97-12.75-3.38-14.94-16.97-15.28-30.76-.1-4.09-.04-7.95-.04-11.18 0-14.1 9.24-18.23 9.24-18.23 4.66-2.14 12.66-3.04 21.06-3.11 8.42.07 16.42.97 21.07 3.1 0 0 9.24 4.14 9.24 18.24 0 0 .12 10.4-1.28 17.63-.9 4.58-7.99 9.6-16.13 10.57-5.4.6-12.38 1.87-25.93-.97q0 1.07.13 2.02c.94 7.2 7.13 7.63 13 7.83 5.91.2 11.18-1.46 11.18-1.46ZM30.31 56.74h6.77V40.16q0-5.25 4.4-5.27 4.89.01 4.89 6.26v9.07h6.72v-9.07q0-6.25 4.88-6.26 4.41 0 4.41 5.27v16.57h6.77V39.65c0-8.8-5.83-11.54-9.92-11.41q-5.2 0-7.81 3.99l-1.69 2.82-1.68-2.82q-2.62-4-7.82-3.99c-5.65.03-9.92 3.96-9.92 11.42z"/>
</svg>
