<?xml version="1.0" encoding="UTF-8" standalone="no"?>
<svg
   xmlns:dc="http://purl.org/dc/elements/1.1/"
   xmlns:cc="http://creativecommons.org/ns#"
   xmlns:rdf="http://www.w3.org/1999/02/22-rdf-syntax-ns#"
   xmlns:svg="http://www.w3.org/2000/svg"
   xmlns="http://www.w3.org/2000/svg"
   xmlns:sodipodi="http://sodipodi.sourceforge.net/DTD/sodipodi-0.dtd"
   xmlns:inkscape="http://www.inkscape.org/namespaces/inkscape"
   width="400"
   height="100"
   viewBox="0 0 399.99998 99.999995"
   id="svg2"
   version="1.1"
   inkscape:version="0.91 r13725"
   sodipodi:docname="modernization.svg">
  <sodipodi:namedview
     pagecolor="#ffffff"
     bordercolor="#666666"
     borderopacity="1"
     objecttolerance="10"
     gridtolerance="10"
     guidetolerance="10"
     inkscape:pageopacity="0"
     inkscape:pageshadow="2"
     inkscape:window-width="3200"
     inkscape:window-height="1667"
     id="namedview203"
     showgrid="false"
     inkscape:zoom="3.337544"
     inkscape:cx="201.53367"
     inkscape:cy="12.1101"
     inkscape:window-x="0"
     inkscape:window-y="0"
     inkscape:window-maximized="1"
     inkscape:current-layer="text4254" />
  <defs
     id="defs4" />
  <metadata
     id="metadata7">
    <rdf:RDF>
      <cc:Work
         rdf:about="">
        <dc:format>image/svg+xml</dc:format>
        <dc:type
           rdf:resource="http://purl.org/dc/dcmitype/StillImage" />
        <dc:title></dc:title>
      </cc:Work>
    </rdf:RDF>
  </metadata>
  <rect
     y="3.3378615e-06"
     x="6.6757229e-06"
     height="99.999985"
     width="399.99994"
     id="rect4298"
     style="fill:#ffffff;fill-opacity:1;stroke:none;stroke-width:1.79999995;stroke-miterlimit:4;stroke-dasharray:none;stroke-dashoffset:0;stroke-opacity:1" />
  <g
     id="text4254"
     style="font-style:normal;font-weight:normal;font-size:19.90604019px;line-height:125%;font-family:sans-serif;letter-spacing:0px;word-spacing:0px;fill:#000000;fill-opacity:1;stroke:none;stroke-width:1px;stroke-linecap:butt;stroke-linejoin:miter;stroke-opacity:1"
     transform="translate(0,-99.999988)">
    <g
       style="font-style:normal;font-weight:normal;font-size:40px;line-height:125%;font-family:sans-serif;letter-spacing:0px;word-spacing:0px;fill:#000000;fill-opacity:1;stroke:none;stroke-width:1px;stroke-linecap:butt;stroke-linejoin:miter;stroke-opacity:1"
       id="text4331">
      <path
         d="m 22.107971,122.26561 q -0.576172,-0.14648 -0.986328,-0.50781 -0.40039,-0.36133 -0.654297,-0.81055 -0.253906,-0.45898 -0.371093,-0.9375 -0.107422,-0.48828 -0.107422,-0.88867 0,-0.83008 0.263672,-1.54297 0.273437,-0.71289 0.71289,-1.2793 0.439453,-0.5664 0.996094,-0.97656 0.55664,-0.41015 1.132812,-0.64453 l 0.458985,0.58594 0,0.2539 q -0.351563,0.11719 -0.673828,0.40039 -0.3125,0.28321 -0.556641,0.67383 -0.234375,0.39063 -0.380859,0.84961 -0.136719,0.45899 -0.136719,0.92774 0,0.37109 0.107422,0.72265 0.117187,0.35157 0.302734,0.63477 0.195313,0.2832 0.449219,0.46875 0.253906,0.18555 0.537109,0.21484 l 0,0.43946 -1.09375,1.41601 z m -5.146484,0 q -0.576171,-0.14648 -0.986328,-0.50781 -0.40039,-0.36133 -0.654296,-0.81055 -0.253907,-0.45898 -0.371094,-0.9375 -0.107422,-0.48828 -0.107422,-0.88867 0,-0.83008 0.263672,-1.54297 0.273437,-0.71289 0.71289,-1.2793 0.439453,-0.5664 0.996094,-0.97656 0.556641,-0.41015 1.132812,-0.64453 l 0.458985,0.58594 0,0.2539 q -0.351563,0.11719 -0.673828,0.40039 -0.3125,0.28321 -0.556641,0.67383 -0.234375,0.39063 -0.380859,0.84961 -0.136719,0.45899 -0.136719,0.92774 0,0.37109 0.107422,0.72265 0.117187,0.35157 0.302734,0.63477 0.195313,0.2832 0.449219,0.46875 0.253906,0.18555 0.537109,0.21484 l 0,0.43946 -1.09375,1.41601 z"
         style="font-style:normal;font-variant:normal;font-weight:normal;font-stretch:normal;font-size:19.99999809px;font-family:Merriweather;-inkscape-font-specification:Merriweather"
         id="path4524" />
      <path
         d="m 26.902893,117.40233 -1.269531,-0.15625 0,-0.9668 5.224609,0 0,0.9668 -1.845703,0.16602 3.05664,10.04882 q 0.146484,0.47852 0.292969,0.94727 0.146484,0.46875 0.302734,0.94726 l 0.605469,-1.77734 2.070312,-8.41797 -0.546875,-1.75781 -1.582031,-0.15625 0,-0.9668 5.322265,0 0,0.9668 -1.699218,0.15625 2.656249,10.25391 0.478516,1.86523 0.498047,-2.23633 2.548828,-9.88281 -1.689453,-0.15625 0,-0.9668 4.726562,0 0,0.9668 -1.445313,0.15625 -4.169921,14.23828 -1.572266,0 -2.802734,-9.91211 -2.773437,9.91211 -1.601562,0 -4.785156,-14.23828 z"
         style="font-style:normal;font-variant:normal;font-weight:normal;font-stretch:normal;font-size:19.99999809px;font-family:Merriweather;-inkscape-font-specification:Merriweather"
         id="path4526" />
      <path
         d="m 49.344296,118.01756 q -0.234375,0 -0.458984,-0.0781 -0.22461,-0.0879 -0.400391,-0.23438 -0.166015,-0.15625 -0.273437,-0.38086 -0.09766,-0.2246 -0.09766,-0.50781 0,-0.30273 0.126953,-0.5664 0.136718,-0.26368 0.341796,-0.44922 0.205079,-0.19531 0.458985,-0.30274 0.263672,-0.10742 0.527343,-0.10742 0.644532,0 0.9375,0.36133 0.302735,0.35156 0.302735,0.84961 0,0.32226 -0.126953,0.58594 -0.126953,0.26367 -0.332032,0.44921 -0.205078,0.17579 -0.46875,0.28321 -0.263671,0.0977 -0.537109,0.0977 z m -2.158203,12.59766 1.660156,-0.20508 0,-7.99805 -1.347656,-0.71289 0,-0.60546 2.705078,-0.77149 0.439453,0.19531 0,9.89258 1.582031,0.20508 0,0.83008 -5.039062,0 0,-0.83008 z"
         style="font-style:normal;font-variant:normal;font-weight:normal;font-stretch:normal;font-size:19.99999809px;font-family:Merriweather;-inkscape-font-specification:Merriweather"
         id="path4528" />
      <path
         d="m 53.826718,130.61522 1.660156,-0.20508 0,-13.22265 -1.5625,-0.35157 0,-0.84961 3.056641,-0.41015 0.390625,0.22461 0,14.60937 1.738281,0.20508 0,0.83008 -5.283203,0 0,-0.83008 z"
         style="font-style:normal;font-variant:normal;font-weight:normal;font-stretch:normal;font-size:19.99999809px;font-family:Merriweather;-inkscape-font-specification:Merriweather"
         id="path4530" />
      <path
         d="m 60.662656,130.61522 1.660156,-0.20508 0,-13.22265 -1.5625,-0.35157 0,-0.84961 3.05664,-0.41015 0.390625,0.22461 0,14.60937 1.738281,0.20508 0,0.83008 -5.283202,0 0,-0.83008 z"
         style="font-style:normal;font-variant:normal;font-weight:normal;font-stretch:normal;font-size:19.99999809px;font-family:Merriweather;-inkscape-font-specification:Merriweather"
         id="path4532" />
      <path
         d="m 72.713437,128.30077 q 0.06836,-0.6836 0.439453,-1.19141 0.371094,-0.51758 0.917969,-0.88867 0.546875,-0.3711 1.210937,-0.61524 0.673828,-0.24414 1.347656,-0.39062 0.673828,-0.14649 1.298828,-0.20508 0.625,-0.0586 1.083984,-0.0586 l 0,-0.84961 q 0,-0.77149 -0.205078,-1.25 -0.205078,-0.48828 -0.566406,-0.76172 -0.361328,-0.27344 -0.849609,-0.37109 -0.488281,-0.0977 -1.054688,-0.0977 -0.283203,0 -0.634765,0.0586 -0.351563,0.0488 -0.732422,0.14649 -0.371094,0.0977 -0.751953,0.23437 -0.380859,0.13672 -0.722656,0.30274 l -0.361328,-0.87891 q 0.361328,-0.29297 0.878906,-0.50781 0.527344,-0.22461 1.074219,-0.3711 0.55664,-0.14648 1.074218,-0.21484 0.527344,-0.0684 0.898438,-0.0684 0.771484,0 1.464843,0.16602 0.703125,0.15625 1.230469,0.5664 0.527344,0.40039 0.830078,1.09375 0.3125,0.6836 0.3125,1.74805 l -0.01953,6.71875 1.25,0 0,0.64453 q -0.341797,0.18555 -0.84961,0.30273 -0.498047,0.11719 -1.005859,0.11719 -0.175781,0 -0.380859,-0.0293 -0.205078,-0.0195 -0.38086,-0.11719 -0.166015,-0.0977 -0.283203,-0.30274 -0.107422,-0.20507 -0.107422,-0.5664 l 0,-0.27344 q -0.224609,0.27344 -0.537109,0.50781 -0.302734,0.23438 -0.703125,0.41016 -0.390625,0.17578 -0.898437,0.27344 -0.498047,0.0976 -1.113281,0.0976 -0.761719,0 -1.386719,-0.27344 -0.615234,-0.27343 -1.035156,-0.73242 -0.410156,-0.46875 -0.615235,-1.07422 -0.195312,-0.61523 -0.117187,-1.29882 z m 1.894531,0.0391 q 0,0.57617 0.15625,0.97656 0.15625,0.40039 0.449219,0.6543 0.302734,0.24414 0.732422,0.36133 0.429687,0.10742 0.966796,0.10742 0.292969,0 0.595703,-0.0781 0.302735,-0.0781 0.576172,-0.19531 0.283203,-0.11719 0.517578,-0.26367 0.244141,-0.15625 0.390625,-0.30274 0,-0.91796 0,-1.8164 0.0098,-0.9082 0.01953,-1.82617 -0.410156,0 -0.898437,0.0488 -0.488281,0.0391 -0.976562,0.14649 -0.488282,0.10742 -0.947266,0.2832 -0.458984,0.17578 -0.810547,0.44922 -0.351562,0.26367 -0.566406,0.625 -0.205078,0.36133 -0.205078,0.83008 z"
         style="font-style:normal;font-variant:normal;font-weight:normal;font-stretch:normal;font-size:19.99999809px;font-family:Merriweather;-inkscape-font-specification:Merriweather"
         id="path4534" />
      <path
         d="m 89.490777,128.61327 0.86914,0 0.38086,1.1914 q 0.24414,0.20508 0.478515,0.36133 0.244141,0.14648 0.488282,0.24414 0.253906,0.0977 0.537109,0.15625 0.283203,0.0488 0.625,0.0586 0.546875,0.0195 1.005859,-0.0781 0.458984,-0.10742 0.791016,-0.33203 0.332031,-0.23438 0.517578,-0.58594 0.185547,-0.35156 0.185547,-0.83984 0,-0.43946 -0.244141,-0.75196 -0.234375,-0.3125 -0.625,-0.55664 -0.390625,-0.2539 -0.888672,-0.45898 -0.498047,-0.21484 -1.015625,-0.46875 -0.576172,-0.27344 -1.132812,-0.5957 -0.546875,-0.33203 -0.976562,-0.73243 -0.419922,-0.41015 -0.673829,-0.91796 -0.253906,-0.50782 -0.24414,-1.16211 0.0098,-0.50782 0.175781,-0.91797 0.175781,-0.41016 0.458984,-0.73242 0.292969,-0.32227 0.673828,-0.55664 0.38086,-0.24414 0.810547,-0.40039 0.429688,-0.16602 0.878906,-0.24415 0.458985,-0.0879 0.898438,-0.0977 0.488281,-0.01 0.9375,0.0488 0.458984,0.0488 0.849609,0.14648 0.400391,0.0977 0.712891,0.22461 0.322265,0.12695 0.546875,0.25391 l 0,2.08984 -0.830078,0 -0.419922,-1.09375 q -0.136719,-0.14648 -0.302735,-0.26367 -0.15625,-0.12695 -0.361328,-0.21485 -0.195312,-0.0977 -0.449218,-0.15625 -0.253907,-0.0586 -0.576172,-0.0586 -0.46875,0 -0.869141,0.0977 -0.390625,0.0879 -0.683594,0.2832 -0.292968,0.19531 -0.468749,0.50781 -0.166016,0.3125 -0.175782,0.75196 -0.01953,0.43945 0.214844,0.77148 0.234375,0.32227 0.615234,0.58594 0.38086,0.26367 0.869141,0.49804 0.498047,0.22461 1.015625,0.47852 0.537109,0.25391 1.083984,0.52734 0.556641,0.26368 0.996094,0.63477 0.439453,0.36133 0.71289,0.85937 0.283203,0.48829 0.283203,1.17188 0,0.83008 -0.332031,1.45508 -0.332031,0.625 -0.917969,1.04492 -0.576171,0.41992 -1.357421,0.625 -0.771485,0.21484 -1.660156,0.21484 -0.888672,0 -1.777344,-0.21484 -0.888672,-0.20508 -1.630859,-0.61524 l 0,-2.23632 z"
         style="font-style:normal;font-variant:normal;font-weight:normal;font-stretch:normal;font-size:19.99999809px;font-family:Merriweather;-inkscape-font-specification:Merriweather"
         id="path4536" />
      <path
         d="m 100.66265,128.8867 q 0,-1.79687 0,-3.56445 0.01,-1.77734 0.01,-3.57422 l -1.494143,0 0,-0.73242 q 0.429687,-0.10742 0.71289,-0.16601 0.292973,-0.0684 0.478513,-0.14649 0.19532,-0.0879 0.32227,-0.21484 0.12695,-0.12696 0.23437,-0.3711 0.0684,-0.16601 0.16602,-0.48828 0.10742,-0.32226 0.19531,-0.65429 0.0977,-0.3418 0.16602,-0.63477 0.0684,-0.30273 0.0879,-0.42969 l 0.96679,0 0,2.60742 3.28125,0 0,1.23047 -3.28125,0 0,4.92188 q 0,1.13281 0.0293,1.8457 0.0293,0.70312 0.14649,1.10352 0.11718,0.40039 0.34179,0.54687 0.22461,0.13672 0.625,0.13672 0.24414,0 0.53711,-0.0488 0.30274,-0.0488 0.57617,-0.11719 0.28321,-0.0684 0.51758,-0.14648 0.23438,-0.0879 0.35156,-0.16602 l 0.30274,0.85938 q -0.22461,0.24414 -0.5957,0.42969 -0.3711,0.18554 -0.81055,0.3125 -0.42969,0.12695 -0.86914,0.18554 -0.42969,0.0684 -0.76172,0.0684 -1.06445,0 -1.65039,-0.65429 -0.58594,-0.6543 -0.58594,-2.13868 z"
         style="font-style:normal;font-variant:normal;font-weight:normal;font-stretch:normal;font-size:19.99999809px;font-family:Merriweather;-inkscape-font-specification:Merriweather"
         id="path4538" />
      <path
         d="m 107.52789,125.7617 q 0.0195,-1.30859 0.44922,-2.33398 0.43945,-1.03516 1.15234,-1.74805 0.71289,-0.71289 1.64062,-1.09375 0.9375,-0.38086 1.95313,-0.39062 1.24023,-0.01 2.1582,0.42969 0.91797,0.43945 1.51367,1.21093 0.60547,0.76172 0.89844,1.79688 0.29297,1.03515 0.2832,2.21679 -0.01,1.29883 -0.41992,2.37305 -0.40039,1.07422 -1.09375,1.8457 -0.68359,0.76172 -1.61133,1.19141 -0.91796,0.41992 -1.97265,0.41992 -1.34766,0 -2.29492,-0.48828 -0.94727,-0.48828 -1.54297,-1.30859 -0.59571,-0.82032 -0.86914,-1.88477 -0.26367,-1.07422 -0.24414,-2.23633 z m 5.03906,4.82422 q 0.83008,0.0195 1.39648,-0.2832 0.57617,-0.30274 0.92774,-0.88867 0.36132,-0.59571 0.51757,-1.46485 0.16602,-0.8789 0.16602,-2.01171 0,-0.98633 -0.17578,-1.83594 -0.16602,-0.85938 -0.53711,-1.49414 -0.36133,-0.63477 -0.92773,-0.9961 -0.55664,-0.37109 -1.32813,-0.39062 -0.83008,-0.01 -1.41601,0.29297 -0.57618,0.29297 -0.94727,0.86914 -0.37109,0.57617 -0.54688,1.40625 -0.16601,0.83008 -0.16601,1.88476 0,0.94727 0.18555,1.82618 0.18554,0.8789 0.55664,1.56249 0.37109,0.67383 0.9375,1.09375 0.57617,0.41016 1.35742,0.42969 z"
         style="font-style:normal;font-variant:normal;font-weight:normal;font-stretch:normal;font-size:19.99999809px;font-family:Merriweather;-inkscape-font-specification:Merriweather"
         id="path4540" />
      <path
         d="m 119.64703,130.61522 1.58203,-0.20508 0,-7.94922 -1.38672,-0.76172 0,-0.60546 2.57812,-0.77149 0.45899,0.19531 0,1.50391 q 0.18555,-0.27344 0.55664,-0.57617 0.38086,-0.30274 0.84961,-0.54688 0.46875,-0.2539 0.97656,-0.41015 0.50781,-0.16602 0.95703,-0.16602 0.32227,0 0.57617,0.0195 0.26368,0.01 0.3711,0.0488 l 0,2.00195 q -0.15625,-0.0586 -0.32227,-0.11718 -0.16601,-0.0684 -0.37109,-0.10743 -0.19531,-0.0488 -0.44922,-0.0781 -0.25391,-0.0293 -0.58594,-0.0293 -0.79101,0 -1.32812,0.20508 -0.53711,0.19531 -0.98633,0.47852 l 0,7.63671 2.7832,0.23438 0,0.83008 -6.25976,0 0,-0.83008 z"
         style="font-style:normal;font-variant:normal;font-weight:normal;font-stretch:normal;font-size:19.99999809px;font-family:Merriweather;-inkscape-font-specification:Merriweather"
         id="path4542" />
      <path
         d="m 128.92437,130.61522 1.32813,-0.21484 0,-7.93946 -1.38672,-0.76172 0,-0.60546 2.59765,-0.77149 0.43946,0.19531 0,1.39649 q 0.32226,-0.2832 0.78125,-0.55664 0.45898,-0.28321 0.97656,-0.50781 0.52734,-0.22461 1.07422,-0.36133 0.54687,-0.14649 1.04492,-0.16602 1.05469,-0.0391 1.69922,0.2832 0.65429,0.3125 1.01562,1.10352 0.35156,-0.26367 0.83008,-0.50781 0.47852,-0.24414 1.00586,-0.42969 0.52734,-0.19531 1.06445,-0.3125 0.53711,-0.11719 1.00586,-0.13672 0.9082,-0.0293 1.5332,0.22461 0.625,0.25391 1.00586,0.82031 0.38086,0.56641 0.54688,1.46485 0.16601,0.89843 0.16601,2.1582 l 0,5.41992 1.6504,0.20508 0,0.83008 -4.85352,0 0,-0.83008 1.32812,-0.20508 0,-5.07812 q 0,-0.9375 -0.0879,-1.6211 -0.0879,-0.69336 -0.35156,-1.13281 -0.2539,-0.44922 -0.71289,-0.6543 -0.45898,-0.20507 -1.20117,-0.17578 -0.66406,0.0293 -1.31836,0.25391 -0.6543,0.21484 -1.28906,0.57617 0.10742,0.46875 0.16601,1.07422 0.0586,0.5957 0.0586,1.24023 l 0,5.52735 1.49414,0.19531 0,0.83008 -4.83399,0 0,-0.83008 1.46485,-0.21484 0,-5.22461 q 0,-0.92774 -0.0977,-1.5918 -0.0879,-0.66406 -0.35156,-1.08398 -0.26367,-0.41993 -0.73242,-0.59571 -0.45899,-0.18554 -1.20117,-0.15625 -0.52735,0.0293 -1.21094,0.27344 -0.67383,0.23437 -1.41602,0.74219 l 0,1.78711 q 0,1.47461 -0.01,2.92968 -0.01,1.45508 0,2.92969 l 1.45507,0.20508 0,0.83008 -4.67773,0 0,-0.83008 z"
         style="font-style:normal;font-variant:normal;font-weight:normal;font-stretch:normal;font-size:19.99999809px;font-family:Merriweather;-inkscape-font-specification:Merriweather"
         id="path4544" />
      <path
         d="m 158.17241,131.67967 q -0.82031,0 -1.5918,-0.32226 -0.77148,-0.33203 -1.36718,-1.00586 -0.58594,-0.6836 -0.94727,-1.71875 -0.36133,-1.04492 -0.36133,-2.47071 0,-1.30859 0.43945,-2.40234 0.43946,-1.10351 1.20118,-1.89453 0.76172,-0.79102 1.78711,-1.23047 1.03515,-0.44922 2.21679,-0.44922 0.51758,0 1.00586,0.0684 0.48828,0.0684 0.83985,0.18555 l 0,-3.25195 -2.08008,-0.35157 0,-0.84961 3.51562,-0.41015 0.43946,0.22461 0,14.81445 1.31835,0 0,0.73242 q -0.16601,0.0879 -0.41992,0.16602 -0.24414,0.0781 -0.52734,0.13672 -0.27344,0.0586 -0.56641,0.0879 -0.2832,0.0293 -0.53711,0.0293 -0.17578,0 -0.37109,-0.0293 -0.18555,-0.0195 -0.3418,-0.11719 -0.15625,-0.0977 -0.26367,-0.30274 -0.0977,-0.20507 -0.0977,-0.5664 l 0,-0.24414 q -0.14648,0.16601 -0.42968,0.37109 -0.28321,0.20508 -0.70313,0.38086 -0.41992,0.17578 -0.96679,0.29297 -0.53711,0.12695 -1.19141,0.12695 z m 0.75195,-1.33789 q 0.3125,0 0.57617,-0.0293 0.27344,-0.0391 0.50782,-0.0976 0.47851,-0.11719 0.82031,-0.3125 0.3418,-0.19531 0.56641,-0.41992 l 0,-7.47071 q -0.10743,-0.12695 -0.26368,-0.26367 -0.15625,-0.13672 -0.41015,-0.2539 -0.24414,-0.11719 -0.59571,-0.18555 -0.34179,-0.0781 -0.81054,-0.0781 -0.3711,0 -0.77149,0.0977 -0.40039,0.0879 -0.79101,0.30274 -0.39063,0.21484 -0.74219,0.55664 -0.35156,0.34179 -0.625,0.83984 -0.27344,0.48828 -0.43945,1.15234 -0.16602,0.6543 -0.17578,1.50391 -0.0195,1.20117 0.24414,2.08008 0.26367,0.8789 0.70312,1.45507 0.44922,0.56641 1.02539,0.84961 0.57617,0.27344 1.18164,0.27344 z"
         style="font-style:normal;font-variant:normal;font-weight:normal;font-stretch:normal;font-size:19.99999809px;font-family:Merriweather;-inkscape-font-specification:Merriweather"
         id="path4546" />
      <path
         d="m 166.28764,126.01561 q 0,-1.25 0.39063,-2.30469 0.40039,-1.05468 1.10351,-1.82617 0.7129,-0.77148 1.70899,-1.21094 0.99609,-0.44921 2.19726,-0.47851 0.85938,-0.0195 1.55274,0.2539 0.69336,0.26368 1.18164,0.79102 0.48828,0.52734 0.76172,1.28906 0.2832,0.76172 0.32226,1.72852 0.0195,0.61523 -0.0293,1.06445 -0.0391,0.44922 -0.0879,0.80078 l -7.23633,0 q 0,0.0586 0,0.11719 0,0.0488 0.01,0.10742 0.0391,1.18164 0.40039,1.95313 0.36133,0.77148 0.89844,1.23046 0.54688,0.44922 1.20117,0.63477 0.6543,0.17578 1.2793,0.17578 0.38086,0 0.80078,-0.0391 0.41992,-0.0488 0.81055,-0.12695 0.40039,-0.0879 0.73242,-0.19532 0.3418,-0.10742 0.54688,-0.22461 l 0.36132,0.83008 q -0.2832,0.25391 -0.74218,0.45899 -0.44922,0.20507 -0.98633,0.35156 -0.53711,0.13672 -1.12305,0.20508 -0.58594,0.0781 -1.14258,0.0781 -1.18164,0 -2.09961,-0.40039 -0.9082,-0.41015 -1.5332,-1.14258 -0.625,-0.74218 -0.95703,-1.78711 -0.32227,-1.04492 -0.32227,-2.33398 z m 7.22657,-1.04492 q 0.0293,-0.49805 0.01,-0.9961 -0.01,-0.50781 -0.11719,-0.95703 -0.10742,-0.45898 -0.33203,-0.83007 -0.21484,-0.38086 -0.58593,-0.61524 -0.25391,-0.16601 -0.57618,-0.24414 -0.32226,-0.0879 -0.73242,-0.0879 -0.54687,0 -1.06445,0.20508 -0.50781,0.20508 -0.91797,0.6543 -0.40039,0.44921 -0.67383,1.1621 -0.27344,0.70313 -0.35156,1.70899 l 5.3418,0 z"
         style="font-style:normal;font-variant:normal;font-weight:normal;font-stretch:normal;font-size:19.99999809px;font-family:Merriweather;-inkscape-font-specification:Merriweather"
         id="path4548" />
      <path
         d="m 177.44975,121.7285 -0.94726,-0.18555 0,-1.02539 4.29687,0 0,1.02539 -1.20117,0.20508 2.13867,5.21485 0.91797,2.79296 0.89844,-2.67578 1.86523,-5.33203 -1.25,-0.19531 0,-1.03516 3.89649,0 0,1.02539 -1.03516,0.21485 -3.97461,9.92187 -1.31836,0 -4.28711,-9.95117 z"
         style="font-style:normal;font-variant:normal;font-weight:normal;font-stretch:normal;font-size:19.99999809px;font-family:Merriweather;-inkscape-font-specification:Merriweather"
         id="path4550" />
      <path
         d="m 189.06108,126.01561 q 0,-1.25 0.39063,-2.30469 0.40039,-1.05468 1.10351,-1.82617 0.71289,-0.77148 1.70899,-1.21094 0.99609,-0.44921 2.19726,-0.47851 0.85938,-0.0195 1.55274,0.2539 0.69336,0.26368 1.18164,0.79102 0.48828,0.52734 0.76172,1.28906 0.2832,0.76172 0.32226,1.72852 0.0195,0.61523 -0.0293,1.06445 -0.0391,0.44922 -0.0879,0.80078 l -7.23632,0 q 0,0.0586 0,0.11719 0,0.0488 0.01,0.10742 0.0391,1.18164 0.40039,1.95313 0.36133,0.77148 0.89844,1.23046 0.54687,0.44922 1.20117,0.63477 0.6543,0.17578 1.2793,0.17578 0.38086,0 0.80078,-0.0391 0.41992,-0.0488 0.81055,-0.12695 0.40039,-0.0879 0.73242,-0.19532 0.34179,-0.10742 0.54687,-0.22461 l 0.36133,0.83008 q -0.2832,0.25391 -0.74219,0.45899 -0.44922,0.20507 -0.98632,0.35156 -0.53711,0.13672 -1.12305,0.20508 -0.58594,0.0781 -1.14258,0.0781 -1.18164,0 -2.09961,-0.40039 -0.9082,-0.41015 -1.5332,-1.14258 -0.625,-0.74218 -0.95703,-1.78711 -0.32227,-1.04492 -0.32227,-2.33398 z m 7.22656,-1.04492 q 0.0293,-0.49805 0.01,-0.9961 -0.01,-0.50781 -0.11719,-0.95703 -0.10742,-0.45898 -0.33203,-0.83007 -0.21484,-0.38086 -0.58594,-0.61524 -0.2539,-0.16601 -0.57617,-0.24414 -0.32226,-0.0879 -0.73242,-0.0879 -0.54688,0 -1.06445,0.20508 -0.50782,0.20508 -0.91797,0.6543 -0.40039,0.44921 -0.67383,1.1621 -0.27344,0.70313 -0.35156,1.70899 l 5.34179,0 z"
         style="font-style:normal;font-variant:normal;font-weight:normal;font-stretch:normal;font-size:19.99999809px;font-family:Merriweather;-inkscape-font-specification:Merriweather"
         id="path4552" />
      <path
         d="m 200.31108,130.61522 1.66016,-0.20508 0,-13.22265 -1.5625,-0.35157 0,-0.84961 3.05664,-0.41015 0.39062,0.22461 0,14.60937 1.73828,0.20508 0,0.83008 -5.2832,0 0,-0.83008 z"
         style="font-style:normal;font-variant:normal;font-weight:normal;font-stretch:normal;font-size:19.99999809px;font-family:Merriweather;-inkscape-font-specification:Merriweather"
         id="path4554" />
      <path
         d="m 207.09819,125.7617 q 0.0195,-1.30859 0.44922,-2.33398 0.43945,-1.03516 1.15234,-1.74805 0.71289,-0.71289 1.64063,-1.09375 0.9375,-0.38086 1.95312,-0.39062 1.24024,-0.01 2.15821,0.42969 0.91796,0.43945 1.51367,1.21093 0.60547,0.76172 0.89844,1.79688 0.29296,1.03515 0.2832,2.21679 -0.01,1.29883 -0.41992,2.37305 -0.40039,1.07422 -1.09375,1.8457 -0.6836,0.76172 -1.61133,1.19141 -0.91797,0.41992 -1.97266,0.41992 -1.34765,0 -2.29492,-0.48828 -0.94726,-0.48828 -1.54297,-1.30859 -0.5957,-0.82032 -0.86914,-1.88477 -0.26367,-1.07422 -0.24414,-2.23633 z m 5.03906,4.82422 q 0.83008,0.0195 1.39649,-0.2832 0.57617,-0.30274 0.92773,-0.88867 0.36133,-0.59571 0.51758,-1.46485 0.16602,-0.8789 0.16602,-2.01171 0,-0.98633 -0.17579,-1.83594 -0.16601,-0.85938 -0.53711,-1.49414 -0.36132,-0.63477 -0.92773,-0.9961 -0.55664,-0.37109 -1.32812,-0.39062 -0.83008,-0.01 -1.41602,0.29297 -0.57617,0.29297 -0.94727,0.86914 -0.37109,0.57617 -0.54687,1.40625 -0.16602,0.83008 -0.16602,1.88476 0,0.94727 0.18555,1.82618 0.18555,0.8789 0.55664,1.56249 0.3711,0.67383 0.9375,1.09375 0.57617,0.41016 1.35742,0.42969 z"
         style="font-style:normal;font-variant:normal;font-weight:normal;font-stretch:normal;font-size:19.99999809px;font-family:Merriweather;-inkscape-font-specification:Merriweather"
         id="path4556" />
      <path
         d="m 220.70171,135.39061 0,-12.92969 -1.38672,-0.76172 0,-0.60546 2.58789,-0.77149 0.44922,0.20508 0,1.13281 q 0.20508,-0.23437 0.53711,-0.48828 0.34179,-0.26367 0.78125,-0.47851 0.43945,-0.21485 0.97656,-0.35157 0.53711,-0.14648 1.14258,-0.14648 0.82031,0 1.59179,0.29297 0.77149,0.2832 1.36719,0.92773 0.60547,0.64453 0.9668,1.68945 0.36133,1.03516 0.36133,2.5293 0,1.25 -0.41016,2.35352 -0.40039,1.09375 -1.14258,1.91406 -0.73242,0.82031 -1.75781,1.29883 -1.02539,0.46875 -2.25586,0.46875 -0.54687,0 -1.03516,-0.0977 -0.48828,-0.0879 -0.95703,-0.21484 l 0.0586,2.62695 0,1.41601 1.91406,0.20508 0,0.83008 -5.15625,0 0,-0.83008 1.36719,-0.21484 z m 1.875,-5.60547 q 0.22461,0.39063 0.76172,0.625 0.54687,0.23438 1.39648,0.23438 0.63476,0 1.25,-0.25391 0.61523,-0.26367 1.10351,-0.83008 0.48829,-0.57617 0.79102,-1.47461 0.3125,-0.9082 0.33203,-2.19726 0.0195,-1.23047 -0.2539,-2.07032 -0.26368,-0.8496 -0.72266,-1.37695 -0.44922,-0.52734 -1.03516,-0.75195 -0.57617,-0.23438 -1.1914,-0.23438 -0.46875,0 -0.84961,0.10743 -0.3711,0.10742 -0.67383,0.26367 -0.30273,0.15625 -0.53711,0.33203 -0.22461,0.17578 -0.38086,0.3125 l 0.01,3.79883 0,3.51562 z"
         style="font-style:normal;font-variant:normal;font-weight:normal;font-stretch:normal;font-size:19.99999809px;font-family:Merriweather;-inkscape-font-specification:Merriweather"
         id="path4558" />
      <path
         d="m 232.02983,126.01561 q 0,-1.25 0.39063,-2.30469 0.40039,-1.05468 1.10351,-1.82617 0.71289,-0.77148 1.70899,-1.21094 0.99609,-0.44921 2.19726,-0.47851 0.85938,-0.0195 1.55274,0.2539 0.69336,0.26368 1.18164,0.79102 0.48828,0.52734 0.76172,1.28906 0.2832,0.76172 0.32226,1.72852 0.0195,0.61523 -0.0293,1.06445 -0.0391,0.44922 -0.0879,0.80078 l -7.23632,0 q 0,0.0586 0,0.11719 0,0.0488 0.01,0.10742 0.0391,1.18164 0.40039,1.95313 0.36133,0.77148 0.89844,1.23046 0.54687,0.44922 1.20117,0.63477 0.6543,0.17578 1.2793,0.17578 0.38086,0 0.80078,-0.0391 0.41992,-0.0488 0.81055,-0.12695 0.40039,-0.0879 0.73242,-0.19532 0.34179,-0.10742 0.54687,-0.22461 l 0.36133,0.83008 q -0.2832,0.25391 -0.74219,0.45899 -0.44922,0.20507 -0.98632,0.35156 -0.53711,0.13672 -1.12305,0.20508 -0.58594,0.0781 -1.14258,0.0781 -1.18164,0 -2.09961,-0.40039 -0.9082,-0.41015 -1.5332,-1.14258 -0.625,-0.74218 -0.95703,-1.78711 -0.32227,-1.04492 -0.32227,-2.33398 z m 7.22656,-1.04492 q 0.0293,-0.49805 0.01,-0.9961 -0.01,-0.50781 -0.11719,-0.95703 -0.10742,-0.45898 -0.33203,-0.83007 -0.21484,-0.38086 -0.58594,-0.61524 -0.2539,-0.16601 -0.57617,-0.24414 -0.32226,-0.0879 -0.73242,-0.0879 -0.54688,0 -1.06445,0.20508 -0.50782,0.20508 -0.91797,0.6543 -0.40039,0.44921 -0.67383,1.1621 -0.27344,0.70313 -0.35156,1.70899 l 5.34179,0 z"
         style="font-style:normal;font-variant:normal;font-weight:normal;font-stretch:normal;font-size:19.99999809px;font-family:Merriweather;-inkscape-font-specification:Merriweather"
         id="path4560" />
      <path
         d="m 249.92046,128.8867 q 0,-1.79687 0,-3.56445 0.01,-1.77734 0.01,-3.57422 l -1.49414,0 0,-0.73242 q 0.42969,-0.10742 0.71289,-0.16601 0.29297,-0.0684 0.47852,-0.14649 0.19531,-0.0879 0.32226,-0.21484 0.12696,-0.12696 0.23438,-0.3711 0.0684,-0.16601 0.16601,-0.48828 0.10743,-0.32226 0.19532,-0.65429 0.0977,-0.3418 0.16601,-0.63477 0.0684,-0.30273 0.0879,-0.42969 l 0.9668,0 0,2.60742 3.28125,0 0,1.23047 -3.28125,0 0,4.92188 q 0,1.13281 0.0293,1.8457 0.0293,0.70312 0.14648,1.10352 0.11719,0.40039 0.3418,0.54687 0.22461,0.13672 0.625,0.13672 0.24414,0 0.53711,-0.0488 0.30273,-0.0488 0.57617,-0.11719 0.2832,-0.0684 0.51758,-0.14648 0.23437,-0.0879 0.35156,-0.16602 l 0.30273,0.85938 q -0.22461,0.24414 -0.5957,0.42969 -0.37109,0.18554 -0.81055,0.3125 -0.42968,0.12695 -0.86914,0.18554 -0.42968,0.0684 -0.76172,0.0684 -1.06445,0 -1.65039,-0.65429 -0.58593,-0.6543 -0.58593,-2.13868 z"
         style="font-style:normal;font-variant:normal;font-weight:normal;font-stretch:normal;font-size:19.99999809px;font-family:Merriweather;-inkscape-font-specification:Merriweather"
         id="path4562" />
      <path
         d="m 256.78569,125.7617 q 0.0195,-1.30859 0.44922,-2.33398 0.43945,-1.03516 1.15234,-1.74805 0.71289,-0.71289 1.64063,-1.09375 0.9375,-0.38086 1.95312,-0.39062 1.24024,-0.01 2.15821,0.42969 0.91796,0.43945 1.51367,1.21093 0.60547,0.76172 0.89844,1.79688 0.29296,1.03515 0.2832,2.21679 -0.01,1.29883 -0.41992,2.37305 -0.40039,1.07422 -1.09375,1.8457 -0.6836,0.76172 -1.61133,1.19141 -0.91797,0.41992 -1.97266,0.41992 -1.34765,0 -2.29492,-0.48828 -0.94726,-0.48828 -1.54297,-1.30859 -0.5957,-0.82032 -0.86914,-1.88477 -0.26367,-1.07422 -0.24414,-2.23633 z m 5.03906,4.82422 q 0.83008,0.0195 1.39649,-0.2832 0.57617,-0.30274 0.92773,-0.88867 0.36133,-0.59571 0.51758,-1.46485 0.16602,-0.8789 0.16602,-2.01171 0,-0.98633 -0.17579,-1.83594 -0.16601,-0.85938 -0.53711,-1.49414 -0.36132,-0.63477 -0.92773,-0.9961 -0.55664,-0.37109 -1.32812,-0.39062 -0.83008,-0.01 -1.41602,0.29297 -0.57617,0.29297 -0.94727,0.86914 -0.37109,0.57617 -0.54687,1.40625 -0.16602,0.83008 -0.16602,1.88476 0,0.94727 0.18555,1.82618 0.18555,0.8789 0.55664,1.56249 0.3711,0.67383 0.9375,1.09375 0.57617,0.41016 1.35742,0.42969 z"
         style="font-style:normal;font-variant:normal;font-weight:normal;font-stretch:normal;font-size:19.99999809px;font-family:Merriweather;-inkscape-font-specification:Merriweather"
         id="path4564" />
      <path
         d="m 269.54936,122.91014 8.64258,0 0,1.43555 -8.64258,0 0,-1.43555 z"
         style="font-style:normal;font-variant:normal;font-weight:normal;font-stretch:normal;font-size:19.99999809px;font-family:Merriweather;-inkscape-font-specification:Merriweather"
         id="path4566" />
      <path
         d="m 281.2681,130.61522 1.32812,-0.19531 0,-7.95899 -1.38672,-0.76172 0,-0.60546 2.59766,-0.77149 0.43945,0.19531 0,1.39649 q 0.33203,-0.2832 0.80078,-0.55664 0.46875,-0.28321 0.9961,-0.50781 0.52734,-0.22461 1.08398,-0.36133 0.55664,-0.14649 1.05469,-0.16602 0.9082,-0.0293 1.52344,0.22461 0.61523,0.24414 0.99609,0.81055 0.38086,0.55664 0.54688,1.43554 0.16601,0.87891 0.16601,2.10938 l 0,5.51758 1.57227,0.19531 0,0.83008 -4.92188,0 0,-0.83008 1.47461,-0.20508 0,-5.16601 q 0,-0.88868 -0.0879,-1.5625 -0.0879,-0.67383 -0.35156,-1.11329 -0.25391,-0.43945 -0.71289,-0.64453 -0.45899,-0.20507 -1.20117,-0.17578 -0.60547,0.0293 -1.2793,0.27344 -0.67383,0.23437 -1.41602,0.74219 l 0,7.64648 1.45508,0.20508 0,0.83008 -4.67773,0 0,-0.83008 z"
         style="font-style:normal;font-variant:normal;font-weight:normal;font-stretch:normal;font-size:19.99999809px;font-family:Merriweather;-inkscape-font-specification:Merriweather"
         id="path4568" />
      <path
         d="m 296.80521,118.01756 q -0.23438,0 -0.45899,-0.0781 -0.22461,-0.0879 -0.40039,-0.23438 -0.16601,-0.15625 -0.27344,-0.38086 -0.0976,-0.2246 -0.0976,-0.50781 0,-0.30273 0.12695,-0.5664 0.13672,-0.26368 0.3418,-0.44922 0.20508,-0.19531 0.45898,-0.30274 0.26367,-0.10742 0.52735,-0.10742 0.64453,0 0.9375,0.36133 0.30273,0.35156 0.30273,0.84961 0,0.32226 -0.12695,0.58594 -0.12696,0.26367 -0.33203,0.44921 -0.20508,0.17579 -0.46875,0.28321 -0.26368,0.0977 -0.53711,0.0977 z m -2.15821,12.59766 1.66016,-0.20508 0,-7.99805 -1.34766,-0.71289 0,-0.60546 2.70508,-0.77149 0.43945,0.19531 0,9.89258 1.58204,0.20508 0,0.83008 -5.03907,0 0,-0.83008 z"
         style="font-style:normal;font-variant:normal;font-weight:normal;font-stretch:normal;font-size:19.99999809px;font-family:Merriweather;-inkscape-font-specification:Merriweather"
         id="path4570" />
      <path
         d="m 301.47318,133.72069 q 0,-0.44922 0.15625,-0.85938 0.16601,-0.41015 0.41015,-0.75195 0.24414,-0.3418 0.52735,-0.61523 0.29296,-0.26368 0.55664,-0.42969 -0.43946,-0.15625 -0.66407,-0.36133 -0.22461,-0.20508 -0.32226,-0.42969 -0.0879,-0.22461 -0.0977,-0.45898 -0.01,-0.23438 -0.01,-0.43946 0,-0.17578 0.0781,-0.45898 0.0781,-0.2832 0.22461,-0.60547 0.15625,-0.32226 0.38086,-0.65429 0.23438,-0.33204 0.52734,-0.59571 -0.73242,-0.43945 -1.16211,-1.17187 -0.41992,-0.74219 -0.41992,-1.80664 0,-1.00586 0.38086,-1.74805 0.39063,-0.74219 1.01563,-1.23047 0.63476,-0.48828 1.43554,-0.73242 0.80078,-0.24414 1.6211,-0.26367 0.83008,-0.0195 1.55273,0.17578 0.73242,0.18555 1.28906,0.60547 0.19532,-0.22461 0.56641,-0.36133 0.38086,-0.14648 1.00586,-0.14648 l 1.18164,0 0,1.4746 -1.91406,0 q 0.20508,0.3711 0.3125,0.83985 0.11719,0.46875 0.11719,1.02539 0,0.9668 -0.36133,1.71875 -0.35157,0.74219 -0.95703,1.25 -0.59571,0.50781 -1.38672,0.77148 -0.78125,0.26367 -1.64063,0.26367 -1.15234,0 -2.06054,-0.36132 -0.0586,0.15625 -0.0879,0.34179 -0.0195,0.17578 -0.0293,0.35157 0,0.16601 0,0.32226 0.01,0.14649 0.01,0.24414 0,0.52735 0.27344,0.82031 0.2832,0.29297 0.97656,0.35157 0.43946,0.0391 1.05469,0.0488 0.61524,0 1.46484,0 0.90821,0 1.55274,0.14649 0.64453,0.13672 1.06445,0.37109 0.42969,0.23438 0.67383,0.54688 0.24414,0.3125 0.37109,0.65429 0.12696,0.3418 0.15625,0.6836 0.0293,0.35156 0.0293,0.66406 0,0.83984 -0.35156,1.52344 -0.35156,0.68359 -1.01563,1.17187 -0.65429,0.48828 -1.61132,0.75196 -0.94727,0.27343 -2.15821,0.27343 -0.8789,0 -1.72851,-0.13672 -0.83985,-0.13671 -1.50391,-0.47851 -0.66406,-0.33203 -1.07422,-0.89844 -0.41015,-0.55664 -0.41015,-1.39648 z m 4.6875,-7.04102 q 0.60546,0 1.02539,-0.16601 0.41992,-0.16602 0.67382,-0.49805 0.26368,-0.3418 0.38086,-0.83984 0.11719,-0.50782 0.11719,-1.18164 0,-1.45508 -0.625,-2.15821 -0.625,-0.70312 -1.875,-0.70312 -0.48828,0 -0.91797,0.12695 -0.41992,0.12695 -0.74219,0.42969 -0.31249,0.29297 -0.49804,0.79101 -0.17578,0.48829 -0.17578,1.23047 0,0.60547 0.14648,1.15235 0.14649,0.53711 0.45899,0.94726 0.32226,0.40039 0.82031,0.63477 0.50781,0.23437 1.21094,0.23437 z m -2.8711,6.41602 q 0,0.66406 0.25391,1.12304 0.2539,0.46875 0.68359,0.75196 0.42969,0.29297 0.9961,0.41992 0.5664,0.13672 1.20117,0.13672 0.79101,0 1.41601,-0.13672 0.63477,-0.12695 1.07422,-0.39063 0.43945,-0.26367 0.67383,-0.67382 0.23437,-0.40039 0.23437,-0.94727 0,-0.46875 -0.10742,-0.83984 -0.10742,-0.36133 -0.41992,-0.61524 -0.3125,-0.2539 -0.87891,-0.39062 -0.55664,-0.12696 -1.46484,-0.12696 l -1.23047,-0.0195 q -0.57617,0 -1.03515,-0.0293 -0.44922,-0.0391 -0.81055,-0.0977 -0.11719,0.13672 -0.22461,0.30273 -0.0977,0.17579 -0.18555,0.39063 -0.0781,0.22461 -0.12695,0.49805 -0.0488,0.2832 -0.0488,0.64453 z"
         style="font-style:normal;font-variant:normal;font-weight:normal;font-stretch:normal;font-size:19.99999809px;font-family:Merriweather;-inkscape-font-specification:Merriweather"
         id="path4572" />
      <path
         d="m 313.20169,130.61522 1.46485,-0.20508 0,-13.22265 -1.66993,-0.35157 0,-0.84961 3.08594,-0.41015 0.45898,0.22461 -0.0195,4.3164 -0.0293,1.68946 q 0.42968,-0.35157 0.92773,-0.625 0.50781,-0.27344 1.01563,-0.45899 0.50781,-0.19531 0.98632,-0.29297 0.48829,-0.10742 0.87891,-0.10742 0.99609,0 1.63086,0.30274 0.63476,0.30273 0.99609,0.9375 0.3711,0.625 0.50782,1.61132 0.13671,0.98633 0.12695,2.34375 l 0,4.89258 1.46484,0.20508 0,0.83008 -4.98047,0 0,-0.83008 1.64063,-0.20508 0,-4.0625 q 0,-1.13281 -0.0586,-1.99219 -0.0488,-0.85937 -0.28321,-1.43554 -0.22461,-0.58594 -0.68359,-0.87891 -0.45899,-0.29297 -1.26953,-0.29297 -0.32227,0 -0.6836,0.0391 -0.36132,0.0391 -0.73242,0.13671 -0.36133,0.0879 -0.73242,0.24414 -0.36133,0.15625 -0.70313,0.40039 l 0,7.8418 1.43555,0.20508 0,0.83008 -4.77539,0 0,-0.83008 z"
         style="font-style:normal;font-variant:normal;font-weight:normal;font-stretch:normal;font-size:19.99999809px;font-family:Merriweather;-inkscape-font-specification:Merriweather"
         id="path4574" />
      <path
         d="m 328.27982,128.8867 q 0,-1.79687 0,-3.56445 0.01,-1.77734 0.01,-3.57422 l -1.49414,0 0,-0.73242 q 0.42969,-0.10742 0.71289,-0.16601 0.29297,-0.0684 0.47852,-0.14649 0.19531,-0.0879 0.32226,-0.21484 0.12696,-0.12696 0.23438,-0.3711 0.0684,-0.16601 0.16601,-0.48828 0.10743,-0.32226 0.19532,-0.65429 0.0977,-0.3418 0.16601,-0.63477 0.0684,-0.30273 0.0879,-0.42969 l 0.9668,0 0,2.60742 3.28125,0 0,1.23047 -3.28125,0 0,4.92188 q 0,1.13281 0.0293,1.8457 0.0293,0.70312 0.14648,1.10352 0.11719,0.40039 0.3418,0.54687 0.22461,0.13672 0.625,0.13672 0.24414,0 0.53711,-0.0488 0.30273,-0.0488 0.57617,-0.11719 0.2832,-0.0684 0.51758,-0.14648 0.23437,-0.0879 0.35156,-0.16602 l 0.30273,0.85938 q -0.22461,0.24414 -0.5957,0.42969 -0.37109,0.18554 -0.81055,0.3125 -0.42968,0.12695 -0.86914,0.18554 -0.42968,0.0684 -0.76172,0.0684 -1.06445,0 -1.65039,-0.65429 -0.58593,-0.6543 -0.58593,-2.13868 z"
         style="font-style:normal;font-variant:normal;font-weight:normal;font-stretch:normal;font-size:19.99999809px;font-family:Merriweather;-inkscape-font-specification:Merriweather"
         id="path4576" />
      <path
         d="m 338.74857,126.66014 q -0.23438,-0.17578 -0.53711,-0.5664 -0.29297,-0.39063 -0.56641,-0.85938 -0.27344,-0.47852 -0.46875,-0.97656 -0.19531,-0.50781 -0.22461,-0.91797 -0.0195,-0.41016 0.30274,-0.74219 0.33203,-0.3418 0.83984,-0.625 0.50781,-0.29297 1.10351,-0.53711 0.60547,-0.2539 1.14258,-0.48828 0.53711,-0.23437 0.91797,-0.45898 0.39063,-0.22461 0.46875,-0.45899 0.0391,-0.63476 -0.12695,-1.24023 -0.15625,-0.60547 -0.46875,-1.13281 -0.30274,-0.53711 -0.75195,-0.97657 -0.43946,-0.44922 -0.97657,-0.76172 -0.53711,-0.32226 -1.14258,-0.49804 -0.60546,-0.17578 -1.24023,-0.17578 -0.18555,0 -0.41016,0.01 -0.2246,0.01 -0.44921,0.0391 -0.21485,0.0195 -0.41993,0.0684 -0.19531,0.0391 -0.33203,0.0977 l 0,-1.48437 q 0.0781,-0.0977 0.26367,-0.17579 0.19532,-0.0879 0.44922,-0.14648 0.25391,-0.0586 0.54688,-0.0879 0.30273,-0.0391 0.5957,-0.0391 1.2207,0 2.1582,0.29297 0.9375,0.29296 1.6211,0.79101 0.68359,0.49805 1.13281,1.15234 0.44922,0.64454 0.69336,1.35743 0.25391,0.70312 0.3125,1.42578 0.0684,0.71289 -0.0195,1.34765 0,0.36133 -0.29297,0.66407 -0.29297,0.30273 -0.74219,0.57617 -0.44922,0.27344 -0.98633,0.52734 -0.52734,0.24414 -1.01562,0.49805 -0.47852,0.2539 -0.83984,0.52734 -0.35157,0.26367 -0.44922,0.56641 -0.0586,0.40039 0.01,0.81055 0.0781,0.41015 0.22461,0.83984 0.15625,0.42969 0.3418,0.86914 0.19531,0.43945 0.36133,0.88867 l -1.02539,0 z m -0.64454,3.79883 q 0,-0.30274 0.12696,-0.56641 0.13672,-0.26367 0.34179,-0.44922 0.20508,-0.19531 0.45899,-0.30273 0.26367,-0.10742 0.52734,-0.10742 0.64453,0 0.9375,0.36133 0.30274,0.35156 0.30274,0.84961 0,0.32226 -0.12696,0.58593 -0.12695,0.26367 -0.33203,0.44922 -0.20508,0.17578 -0.46875,0.27344 -0.26367,0.10742 -0.53711,0.10742 -0.23437,0 -0.45898,-0.0879 -0.22461,-0.0781 -0.40039,-0.22461 -0.16602,-0.15625 -0.27344,-0.38086 -0.0977,-0.22461 -0.0977,-0.50781 z"
         style="font-style:normal;font-variant:normal;font-weight:normal;font-stretch:normal;font-size:19.99999809px;font-family:Merriweather;-inkscape-font-specification:Merriweather"
         id="path4578" />
      <path
         d="m 351.44388,121.48436 0,-0.25391 q 0.35156,-0.11718 0.66406,-0.40039 0.32227,-0.2832 0.55664,-0.67382 0.24414,-0.39063 0.38086,-0.84961 0.14649,-0.45899 0.14649,-0.92774 0,-0.37109 -0.11719,-0.72265 -0.10742,-0.35157 -0.30274,-0.63477 -0.18554,-0.2832 -0.43945,-0.46875 -0.25391,-0.18555 -0.53711,-0.21484 l 0,-0.43946 1.09375,-1.41601 q 0.57617,0.14648 0.97656,0.50781 0.41016,0.36133 0.66407,0.82031 0.2539,0.44922 0.36132,0.9375 0.11719,0.48828 0.11719,0.87891 0,0.83008 -0.27344,1.54297 -0.27343,0.71289 -0.71289,1.27929 -0.43945,0.56641 -0.99609,0.97657 -0.55664,0.41015 -1.12305,0.64453 l -0.45898,-0.58594 z m -5.38086,0 0,-0.25391 q 0.35156,-0.11718 0.66406,-0.40039 0.32227,-0.2832 0.55664,-0.67382 0.24414,-0.39063 0.38086,-0.84961 0.14649,-0.45899 0.14649,-0.92774 0,-0.37109 -0.11719,-0.72265 -0.10742,-0.35157 -0.30274,-0.63477 -0.18554,-0.2832 -0.43945,-0.46875 -0.2539,-0.18555 -0.53711,-0.21484 l 0,-0.43946 1.09375,-1.41601 q 0.57617,0.14648 0.97656,0.50781 0.41016,0.36133 0.66407,0.82031 0.2539,0.44922 0.36132,0.9375 0.11719,0.48828 0.11719,0.87891 0,0.83008 -0.27344,1.54297 -0.27343,0.71289 -0.71289,1.27929 -0.43945,0.56641 -0.99609,0.97657 -0.55664,0.41015 -1.12305,0.64453 l -0.45898,-0.58594 z"
         style="font-style:normal;font-variant:normal;font-weight:normal;font-stretch:normal;font-size:19.99999809px;font-family:Merriweather;-inkscape-font-specification:Merriweather"
         id="path4580" />
      <path
         d="m 363.27982,130.61522 1.46484,-0.20508 0,-13.22265 -1.66992,-0.35157 0,-0.84961 3.08594,-0.41015 0.45898,0.22461 -0.0195,4.3164 -0.0293,1.68946 q 0.42969,-0.35157 0.92774,-0.625 0.50781,-0.27344 1.01562,-0.45899 0.50781,-0.19531 0.98633,-0.29297 0.48828,-0.10742 0.87891,-0.10742 0.99609,0 1.63085,0.30274 0.63477,0.30273 0.9961,0.9375 0.37109,0.625 0.50781,1.61132 0.13672,0.98633 0.12695,2.34375 l 0,4.89258 1.46485,0.20508 0,0.83008 -4.98047,0 0,-0.83008 1.64062,-0.20508 0,-4.0625 q 0,-1.13281 -0.0586,-1.99219 -0.0488,-0.85937 -0.2832,-1.43554 -0.22461,-0.58594 -0.6836,-0.87891 -0.45898,-0.29297 -1.26953,-0.29297 -0.32226,0 -0.68359,0.0391 -0.36133,0.0391 -0.73242,0.13671 -0.36133,0.0879 -0.73243,0.24414 -0.36132,0.15625 -0.70312,0.40039 l 0,7.8418 1.43555,0.20508 0,0.83008 -4.77539,0 0,-0.83008 z"
         style="font-style:normal;font-variant:normal;font-weight:normal;font-stretch:normal;font-size:19.99999809px;font-family:Merriweather;-inkscape-font-specification:Merriweather"
         id="path4582" />
      <path
         d="m 376.75638,126.01561 q 0,-1.25 0.39062,-2.30469 0.40039,-1.05468 1.10352,-1.82617 0.71289,-0.77148 1.70898,-1.21094 0.9961,-0.44921 2.19727,-0.47851 0.85937,-0.0195 1.55273,0.2539 0.69336,0.26368 1.18164,0.79102 0.48829,0.52734 0.76172,1.28906 0.28321,0.76172 0.32227,1.72852 0.0195,0.61523 -0.0293,1.06445 -0.0391,0.44922 -0.0879,0.80078 l -7.23633,0 q 0,0.0586 0,0.11719 0,0.0488 0.01,0.10742 0.0391,1.18164 0.40039,1.95313 0.36133,0.77148 0.89844,1.23046 0.54687,0.44922 1.20117,0.63477 0.6543,0.17578 1.2793,0.17578 0.38085,0 0.80078,-0.0391 0.41992,-0.0488 0.81054,-0.12695 0.40039,-0.0879 0.73243,-0.19532 0.34179,-0.10742 0.54687,-0.22461 l 0.36133,0.83008 q -0.2832,0.25391 -0.74219,0.45899 -0.44922,0.20507 -0.98633,0.35156 -0.53711,0.13672 -1.12304,0.20508 -0.58594,0.0781 -1.14258,0.0781 -1.18164,0 -2.09961,-0.40039 -0.9082,-0.41015 -1.5332,-1.14258 -0.625,-0.74218 -0.95704,-1.78711 -0.32226,-1.04492 -0.32226,-2.33398 z m 7.22656,-1.04492 q 0.0293,-0.49805 0.01,-0.9961 -0.01,-0.50781 -0.11719,-0.95703 -0.10742,-0.45898 -0.33203,-0.83007 -0.21485,-0.38086 -0.58594,-0.61524 -0.25391,-0.16601 -0.57617,-0.24414 -0.32227,-0.0879 -0.73242,-0.0879 -0.54688,0 -1.06446,0.20508 -0.50781,0.20508 -0.91796,0.6543 -0.4004,0.44921 -0.67383,1.1621 -0.27344,0.70313 -0.35157,1.70899 l 5.3418,0 z"
         style="font-style:normal;font-variant:normal;font-weight:normal;font-stretch:normal;font-size:19.99999809px;font-family:Merriweather;-inkscape-font-specification:Merriweather"
         id="path4584" />
      <path
         d="m 14.041566,153.30076 q 0.06836,-0.68359 0.439453,-1.1914 0.371094,-0.51758 0.917969,-0.88867 0.546874,-0.3711 1.210937,-0.61524 0.673828,-0.24414 1.347656,-0.39062 0.673828,-0.14649 1.298828,-0.20508 0.625,-0.0586 1.083984,-0.0586 l 0,-0.8496 q 0,-0.77149 -0.205078,-1.25 -0.205078,-0.48829 -0.566406,-0.76172 -0.361328,-0.27344 -0.849609,-0.3711 -0.488281,-0.0976 -1.054688,-0.0976 -0.283203,0 -0.634765,0.0586 -0.351563,0.0488 -0.732422,0.14649 -0.371094,0.0977 -0.751953,0.23437 -0.380859,0.13672 -0.722656,0.30273 l -0.361328,-0.8789 q 0.361328,-0.29297 0.878906,-0.50781 0.527343,-0.22461 1.074218,-0.3711 0.556641,-0.14648 1.074219,-0.21484 0.527344,-0.0684 0.898437,-0.0684 0.771485,0 1.464844,0.16601 0.703125,0.15625 1.230469,0.56641 0.527343,0.40039 0.830078,1.09375 0.3125,0.68359 0.3125,1.74805 l -0.01953,6.71875 1.249999,0 0,0.64453 q -0.341796,0.18554 -0.849609,0.30273 -0.498047,0.11719 -1.005859,0.11719 -0.175781,0 -0.38086,-0.0293 -0.205078,-0.0195 -0.380859,-0.11718 -0.166015,-0.0977 -0.283203,-0.30274 -0.107422,-0.20508 -0.107422,-0.56641 l 0,-0.27343 q -0.224609,0.27343 -0.537109,0.50781 -0.302734,0.23437 -0.703125,0.41016 -0.390625,0.17578 -0.898437,0.27343 -0.498047,0.0977 -1.113282,0.0977 -0.761718,0 -1.386718,-0.27344 -0.615235,-0.27344 -1.035156,-0.73242 -0.410157,-0.46875 -0.615235,-1.07422 -0.195312,-0.61523 -0.117187,-1.29883 z m 1.894531,0.0391 q 0,0.57617 0.15625,0.97656 0.15625,0.40039 0.449219,0.6543 0.302734,0.24414 0.732421,0.36132 0.429688,0.10743 0.966797,0.10743 0.292969,0 0.595703,-0.0781 0.302735,-0.0781 0.576172,-0.19531 0.283203,-0.11719 0.517578,-0.26367 0.244141,-0.15625 0.390625,-0.30274 0,-0.91797 0,-1.8164 0.0098,-0.90821 0.01953,-1.82618 -0.410156,0 -0.898437,0.0488 -0.488281,0.0391 -0.976563,0.14649 -0.488281,0.10742 -0.947265,0.2832 -0.458984,0.17578 -0.810547,0.44922 -0.351562,0.26367 -0.566406,0.625 -0.205078,0.36133 -0.205078,0.83008 z"
         style="font-style:normal;font-variant:normal;font-weight:normal;font-stretch:normal;font-size:19.99999809px;font-family:Merriweather;-inkscape-font-specification:Merriweather"
         id="path4586" />
      <path
         d="m 25.701721,153.61326 0.869141,0 0.380859,1.19141 q 0.244141,0.20508 0.478515,0.36133 0.244141,0.14648 0.488282,0.24414 0.253906,0.0976 0.537109,0.15625 0.283203,0.0488 0.625,0.0586 0.546875,0.0195 1.005859,-0.0781 0.458985,-0.10742 0.791016,-0.33203 0.332031,-0.23438 0.517578,-0.58594 0.185547,-0.35156 0.185547,-0.83984 0,-0.43946 -0.244141,-0.75196 -0.234375,-0.3125 -0.625,-0.55664 -0.390625,-0.2539 -0.888672,-0.45898 -0.498046,-0.21485 -1.015625,-0.46875 -0.576171,-0.27344 -1.132812,-0.59571 -0.546875,-0.33203 -0.976562,-0.73242 -0.419922,-0.41015 -0.673828,-0.91797 -0.253907,-0.50781 -0.244141,-1.16211 0.0098,-0.50781 0.175781,-0.91796 0.175781,-0.41016 0.458985,-0.73243 0.292968,-0.32226 0.673828,-0.55664 0.380859,-0.24414 0.810546,-0.40039 0.429688,-0.16601 0.878907,-0.24414 0.458984,-0.0879 0.898437,-0.0976 0.488281,-0.01 0.9375,0.0488 0.458984,0.0488 0.849609,0.14649 0.400391,0.0976 0.712891,0.22461 0.322265,0.12695 0.546875,0.2539 l 0,2.08985 -0.830078,0 -0.419922,-1.09375 q -0.136719,-0.14649 -0.302734,-0.26367 -0.15625,-0.12696 -0.361329,-0.21485 -0.195312,-0.0976 -0.449218,-0.15625 -0.253907,-0.0586 -0.576172,-0.0586 -0.46875,0 -0.869141,0.0976 -0.390625,0.0879 -0.683593,0.28321 -0.292969,0.19531 -0.46875,0.50781 -0.166016,0.3125 -0.175782,0.75195 -0.01953,0.43946 0.214844,0.77149 0.234375,0.32226 0.615235,0.58593 0.380859,0.26368 0.86914,0.49805 0.498047,0.22461 1.015625,0.47852 0.537109,0.2539 1.083984,0.52734 0.556641,0.26367 0.996094,0.63477 0.439453,0.36132 0.71289,0.85937 0.283204,0.48828 0.283204,1.17188 0,0.83007 -0.332032,1.45507 -0.332031,0.625 -0.917968,1.04493 -0.576172,0.41992 -1.357422,0.625 -0.771484,0.21484 -1.660156,0.21484 -0.888672,0 -1.777344,-0.21484 -0.888672,-0.20508 -1.630859,-0.61524 l 0,-2.23633 z"
         style="font-style:normal;font-variant:normal;font-weight:normal;font-stretch:normal;font-size:19.99999809px;font-family:Merriweather;-inkscape-font-specification:Merriweather"
         id="path4588" />
      <path
         d="m 35.369689,155.61522 1.601562,-0.21485 0,-13.21289 -1.757812,-0.35156 0,-0.84961 3.242187,-0.41015 0.390625,0.22461 0,8.76953 -0.04883,1.5039 4.345703,-4.48242 -1.47461,-0.13672 0,-1.03515 4.609375,0 0,1.03515 -1.484375,0.15625 -3.320312,3.33984 4.130859,5.45899 1.328125,0.20508 0,0.83007 -4.736328,0 0,-0.83007 1.357422,-0.22461 -3.21289,-4.50196 -1.552735,1.54297 0.05859,1.89453 0,1.09375 1.40625,0.19532 0,0.83007 -4.882812,0 0,-0.83007 z"
         style="font-style:normal;font-variant:normal;font-weight:normal;font-stretch:normal;font-size:19.99999809px;font-family:Merriweather;-inkscape-font-specification:Merriweather"
         id="path4590" />
      <path
         d="m 47.732968,151.01561 q 0,-1.25 0.390625,-2.30469 0.400391,-1.05469 1.103516,-1.82617 0.71289,-0.77149 1.708984,-1.21094 0.996094,-0.44922 2.197265,-0.47851 0.859375,-0.0195 1.552735,0.2539 0.693359,0.26367 1.18164,0.79102 0.488281,0.52734 0.761719,1.28906 0.283203,0.76172 0.322265,1.72852 0.01953,0.61523 -0.0293,1.06445 -0.03906,0.44922 -0.08789,0.80078 l -7.236328,0 q 0,0.0586 0,0.11719 0,0.0488 0.0098,0.10742 0.03906,1.18164 0.400391,1.95312 0.361328,0.77149 0.898437,1.23047 0.546875,0.44922 1.201172,0.63477 0.654297,0.17578 1.279297,0.17578 0.380859,0 0.800781,-0.0391 0.419922,-0.0488 0.810547,-0.12696 0.40039,-0.0879 0.732421,-0.19531 0.341797,-0.10742 0.546875,-0.22461 l 0.361328,0.83008 q -0.283203,0.25391 -0.742187,0.45898 -0.449219,0.20508 -0.986328,0.35157 -0.537109,0.13672 -1.123047,0.20507 -0.585937,0.0781 -1.142578,0.0781 -1.18164,0 -2.099609,-0.40039 -0.908203,-0.41016 -1.533203,-1.14258 -0.625,-0.74219 -0.957031,-1.78711 -0.322266,-1.04492 -0.322266,-2.33398 z m 7.226562,-1.04492 q 0.0293,-0.49805 0.0098,-0.9961 -0.0098,-0.50781 -0.117188,-0.95703 -0.107422,-0.45898 -0.332031,-0.83008 -0.214844,-0.38086 -0.585937,-0.61523 -0.253907,-0.16602 -0.576172,-0.24414 -0.322266,-0.0879 -0.732422,-0.0879 -0.546875,0 -1.064453,0.20508 -0.507813,0.20507 -0.917969,0.65429 -0.40039,0.44922 -0.673828,1.16211 -0.273437,0.70313 -0.351562,1.70899 l 5.341796,0 z"
         style="font-style:normal;font-variant:normal;font-weight:normal;font-stretch:normal;font-size:19.99999809px;font-family:Merriweather;-inkscape-font-specification:Merriweather"
         id="path4592" />
      <path
         d="m 63.172421,156.67967 q -0.820312,0 -1.591797,-0.32227 -0.771484,-0.33203 -1.367187,-1.00586 -0.585938,-0.68359 -0.947266,-1.71874 -0.361328,-1.04493 -0.361328,-2.47071 0,-1.30859 0.439453,-2.40234 0.439453,-1.10352 1.201172,-1.89453 0.761719,-0.79102 1.787109,-1.23047 1.035156,-0.44922 2.216797,-0.44922 0.517578,0 1.005859,0.0684 0.488281,0.0684 0.839844,0.18555 l 0,-3.25196 -2.080078,-0.35156 0,-0.84961 3.515625,-0.41015 0.439453,0.22461 0,14.81445 1.318359,0 0,0.73242 q -0.166016,0.0879 -0.419922,0.16601 -0.24414,0.0781 -0.527344,0.13672 -0.273437,0.0586 -0.566406,0.0879 -0.283203,0.0293 -0.537109,0.0293 -0.175781,0 -0.371094,-0.0293 -0.185547,-0.0195 -0.341797,-0.11718 -0.15625,-0.0977 -0.263671,-0.30274 -0.09766,-0.20508 -0.09766,-0.5664 l 0,-0.24415 q -0.146484,0.16602 -0.429687,0.3711 -0.283203,0.20508 -0.703125,0.38086 -0.419922,0.17578 -0.966797,0.29297 -0.537109,0.12695 -1.191406,0.12695 z m 0.751953,-1.33789 q 0.3125,0 0.576172,-0.0293 0.273437,-0.0391 0.507812,-0.0976 0.478516,-0.11719 0.820313,-0.3125 0.341797,-0.19532 0.566406,-0.41993 l 0,-7.4707 q -0.107422,-0.12695 -0.263672,-0.26367 -0.15625,-0.13672 -0.410156,-0.25391 -0.244141,-0.11718 -0.595703,-0.18554 -0.341797,-0.0781 -0.810547,-0.0781 -0.371094,0 -0.771484,0.0977 -0.400391,0.0879 -0.791016,0.30273 -0.390625,0.21485 -0.742187,0.55664 -0.351563,0.3418 -0.625,0.83985 -0.273438,0.48828 -0.439453,1.15234 -0.166016,0.6543 -0.175782,1.50391 -0.01953,1.20117 0.244141,2.08007 0.263672,0.87891 0.703125,1.45508 0.449219,0.56641 1.02539,0.84961 0.576172,0.27344 1.181641,0.27344 z"
         style="font-style:normal;font-variant:normal;font-weight:normal;font-stretch:normal;font-size:19.99999809px;font-family:Merriweather;-inkscape-font-specification:Merriweather"
         id="path4594" />
      <path
         d="m 72.225156,155.1367 1.09375,-1.41601 q 0.576171,0.14648 0.976562,0.50781 0.410156,0.36133 0.664062,0.82031 0.253907,0.44922 0.361328,0.9375 0.117188,0.48828 0.117188,0.87891 0,0.83007 -0.273438,1.54297 -0.273437,0.71289 -0.71289,1.27929 -0.439453,0.56641 -0.996094,0.97656 -0.55664,0.41016 -1.123046,0.64454 l -0.458985,-0.58594 0,-0.25391 q 0.351563,-0.11719 0.664063,-0.40039 0.322265,-0.2832 0.55664,-0.67383 0.244141,-0.39062 0.38086,-0.84961 0.146484,-0.45898 0.146484,-0.92773 0,-0.37109 -0.117188,-0.72266 -0.107421,-0.35156 -0.302734,-0.63476 -0.185547,-0.28321 -0.439453,-0.46875 -0.253906,-0.18555 -0.537109,-0.21485 l 0,-0.43945 z"
         style="font-style:normal;font-variant:normal;font-weight:normal;font-stretch:normal;font-size:19.99999809px;font-family:Merriweather;-inkscape-font-specification:Merriweather"
         id="path4596" />
      <path
         d="m 78.729058,147.91014 19.999998,0 0,1.43555 -19.999998,0 0,-1.43555 z"
         style="font-style:normal;font-variant:normal;font-weight:normal;font-stretch:normal;font-size:19.99999809px;font-family:Merriweather;-inkscape-font-specification:Merriweather"
         id="path4598" />
      <path
         d="m 103.04546,153.8867 q 0,-1.79687 0,-3.56445 0.01,-1.77735 0.01,-3.57422 l -1.49414,0 0,-0.73242 q 0.42969,-0.10742 0.71289,-0.16602 0.29297,-0.0684 0.47852,-0.14648 0.19531,-0.0879 0.32226,-0.21485 0.12695,-0.12695 0.23438,-0.37109 0.0684,-0.16601 0.16601,-0.48828 0.10742,-0.32227 0.19531,-0.6543 0.0977,-0.34179 0.16602,-0.63476 0.0684,-0.30274 0.0879,-0.42969 l 0.9668,0 0,2.60742 3.28125,0 0,1.23047 -3.28125,0 0,4.92187 q 0,1.13282 0.0293,1.84571 0.0293,0.70312 0.14649,1.10351 0.11719,0.40039 0.3418,0.54688 0.2246,0.13672 0.625,0.13672 0.24414,0 0.5371,-0.0488 0.30274,-0.0488 0.57618,-0.11719 0.2832,-0.0684 0.51757,-0.14648 0.23438,-0.0879 0.35157,-0.16602 l 0.30273,0.85938 q -0.22461,0.24414 -0.5957,0.42968 -0.3711,0.18555 -0.81055,0.3125 -0.42969,0.12696 -0.86914,0.18555 -0.42969,0.0684 -0.76172,0.0684 -1.06445,0 -1.65039,-0.6543 -0.58594,-0.65429 -0.58594,-2.13867 z"
         style="font-style:normal;font-variant:normal;font-weight:normal;font-stretch:normal;font-size:19.99999809px;font-family:Merriweather;-inkscape-font-specification:Merriweather"
         id="path4600" />
      <path
         d="m 110.05718,153.30076 q 0.0684,-0.68359 0.43946,-1.1914 0.37109,-0.51758 0.91796,-0.88867 0.54688,-0.3711 1.21094,-0.61524 0.67383,-0.24414 1.34766,-0.39062 0.67383,-0.14649 1.29883,-0.20508 0.625,-0.0586 1.08398,-0.0586 l 0,-0.8496 q 0,-0.77149 -0.20508,-1.25 -0.20508,-0.48829 -0.5664,-0.76172 -0.36133,-0.27344 -0.84961,-0.3711 -0.48828,-0.0976 -1.05469,-0.0976 -0.2832,0 -0.63477,0.0586 -0.35156,0.0488 -0.73242,0.14649 -0.37109,0.0977 -0.75195,0.23437 -0.38086,0.13672 -0.72266,0.30273 l -0.36133,-0.8789 q 0.36133,-0.29297 0.87891,-0.50781 0.52734,-0.22461 1.07422,-0.3711 0.55664,-0.14648 1.07422,-0.21484 0.52734,-0.0684 0.89844,-0.0684 0.77148,0 1.46484,0.16601 0.70312,0.15625 1.23047,0.56641 0.52734,0.40039 0.83008,1.09375 0.3125,0.68359 0.3125,1.74805 l -0.0195,6.71875 1.25,0 0,0.64453 q -0.34179,0.18554 -0.8496,0.30273 -0.49805,0.11719 -1.00586,0.11719 -0.17579,0 -0.38086,-0.0293 -0.20508,-0.0195 -0.38086,-0.11718 -0.16602,-0.0977 -0.28321,-0.30274 -0.10742,-0.20508 -0.10742,-0.56641 l 0,-0.27343 q -0.22461,0.27343 -0.53711,0.50781 -0.30273,0.23437 -0.70312,0.41016 -0.39063,0.17578 -0.89844,0.27343 -0.49805,0.0977 -1.11328,0.0977 -0.76172,0 -1.38672,-0.27344 -0.61523,-0.27344 -1.03516,-0.73242 -0.41015,-0.46875 -0.61523,-1.07422 -0.19531,-0.61523 -0.11719,-1.29883 z m 1.89453,0.0391 q 0,0.57617 0.15625,0.97656 0.15625,0.40039 0.44922,0.6543 0.30274,0.24414 0.73242,0.36132 0.42969,0.10743 0.9668,0.10743 0.29297,0 0.5957,-0.0781 0.30274,-0.0781 0.57618,-0.19531 0.2832,-0.11719 0.51757,-0.26367 0.24415,-0.15625 0.39063,-0.30274 0,-0.91797 0,-1.8164 0.01,-0.90821 0.0195,-1.82618 -0.41016,0 -0.89844,0.0488 -0.48828,0.0391 -0.97656,0.14649 -0.48828,0.10742 -0.94726,0.2832 -0.45899,0.17578 -0.81055,0.44922 -0.35156,0.26367 -0.56641,0.625 -0.20508,0.36133 -0.20508,0.83008 z"
         style="font-style:normal;font-variant:normal;font-weight:normal;font-stretch:normal;font-size:19.99999809px;font-family:Merriweather;-inkscape-font-specification:Merriweather"
         id="path4602" />
      <path
         d="m 122.65484,160.39061 0,-12.92969 -1.38672,-0.76172 0,-0.60547 2.58789,-0.77148 0.44922,0.20508 0,1.13281 q 0.20508,-0.23438 0.53711,-0.48828 0.3418,-0.26367 0.78125,-0.47852 0.43945,-0.21484 0.97656,-0.35156 0.53711,-0.14648 1.14258,-0.14648 0.82031,0 1.5918,0.29296 0.77148,0.28321 1.36718,0.92774 0.60547,0.64453 0.9668,1.68945 0.36133,1.03516 0.36133,2.5293 0,1.25 -0.41016,2.35351 -0.40039,1.09375 -1.14258,1.91407 -0.73242,0.82031 -1.75781,1.29882 -1.02539,0.46875 -2.25586,0.46875 -0.54687,0 -1.03515,-0.0977 -0.48828,-0.0879 -0.95703,-0.21485 l 0.0586,2.62696 0,1.41601 1.91406,0.20508 0,0.83008 -5.15625,0 0,-0.83008 1.36719,-0.21484 z m 1.875,-5.60547 q 0.22461,0.39062 0.76172,0.625 0.54687,0.23437 1.39648,0.23437 0.63477,0 1.25,-0.2539 0.61524,-0.26367 1.10352,-0.83008 0.48828,-0.57617 0.79101,-1.47461 0.3125,-0.9082 0.33203,-2.19727 0.0195,-1.23046 -0.2539,-2.07031 -0.26367,-0.84961 -0.72266,-1.37695 -0.44922,-0.52734 -1.03515,-0.75195 -0.57618,-0.23438 -1.19141,-0.23438 -0.46875,0 -0.84961,0.10742 -0.37109,0.10743 -0.67383,0.26368 -0.30273,0.15625 -0.53711,0.33203 -0.22461,0.17578 -0.38086,0.3125 l 0.01,3.79882 0,3.51563 z"
         style="font-style:normal;font-variant:normal;font-weight:normal;font-stretch:normal;font-size:19.99999809px;font-family:Merriweather;-inkscape-font-specification:Merriweather"
         id="path4604" />
      <path
         d="m 135.58453,160.39061 0,-12.92969 -1.38672,-0.76172 0,-0.60547 2.58789,-0.77148 0.44922,0.20508 0,1.13281 q 0.20508,-0.23438 0.53711,-0.48828 0.34179,-0.26367 0.78125,-0.47852 0.43945,-0.21484 0.97656,-0.35156 0.53711,-0.14648 1.14258,-0.14648 0.82031,0 1.59179,0.29296 0.77149,0.28321 1.36719,0.92774 0.60547,0.64453 0.9668,1.68945 0.36133,1.03516 0.36133,2.5293 0,1.25 -0.41016,2.35351 -0.40039,1.09375 -1.14258,1.91407 -0.73242,0.82031 -1.75781,1.29882 -1.02539,0.46875 -2.25586,0.46875 -0.54687,0 -1.03516,-0.0977 -0.48828,-0.0879 -0.95703,-0.21485 l 0.0586,2.62696 0,1.41601 1.91406,0.20508 0,0.83008 -5.15625,0 0,-0.83008 1.36719,-0.21484 z m 1.875,-5.60547 q 0.22461,0.39062 0.76172,0.625 0.54687,0.23437 1.39648,0.23437 0.63477,0 1.25,-0.2539 0.61523,-0.26367 1.10351,-0.83008 0.48829,-0.57617 0.79102,-1.47461 0.3125,-0.9082 0.33203,-2.19727 0.0195,-1.23046 -0.2539,-2.07031 -0.26368,-0.84961 -0.72266,-1.37695 -0.44922,-0.52734 -1.03516,-0.75195 -0.57617,-0.23438 -1.1914,-0.23438 -0.46875,0 -0.84961,0.10742 -0.3711,0.10743 -0.67383,0.26368 -0.30273,0.15625 -0.53711,0.33203 -0.22461,0.17578 -0.38086,0.3125 l 0.01,3.79882 0,3.51563 z"
         style="font-style:normal;font-variant:normal;font-weight:normal;font-stretch:normal;font-size:19.99999809px;font-family:Merriweather;-inkscape-font-specification:Merriweather"
         id="path4606" />
      <path
         d="m 149.18803,143.01756 q -0.23437,0 -0.45898,-0.0781 -0.22461,-0.0879 -0.40039,-0.23438 -0.16602,-0.15625 -0.27344,-0.38086 -0.0976,-0.22461 -0.0976,-0.50781 0,-0.30273 0.12695,-0.56641 0.13672,-0.26367 0.3418,-0.44921 0.20507,-0.19532 0.45898,-0.30274 0.26367,-0.10742 0.52734,-0.10742 0.64454,0 0.9375,0.36133 0.30274,0.35156 0.30274,0.84961 0,0.32226 -0.12695,0.58593 -0.12696,0.26368 -0.33204,0.44922 -0.20507,0.17578 -0.46875,0.28321 -0.26367,0.0977 -0.53711,0.0977 z m -2.1582,12.59766 1.66016,-0.20508 0,-7.99805 -1.34766,-0.71289 0,-0.60547 2.70508,-0.77148 0.43945,0.19531 0,9.89258 1.58203,0.20508 0,0.83007 -5.03906,0 0,-0.83007 z"
         style="font-style:normal;font-variant:normal;font-weight:normal;font-stretch:normal;font-size:19.99999809px;font-family:Merriweather;-inkscape-font-specification:Merriweather"
         id="path4608" />
      <path
         d="m 153.96343,155.61522 1.32812,-0.19532 0,-7.95898 -1.38672,-0.76172 0,-0.60547 2.59766,-0.77148 0.43945,0.19531 0,1.39649 q 0.33203,-0.28321 0.80078,-0.55664 0.46875,-0.28321 0.9961,-0.50782 0.52734,-0.22461 1.08398,-0.36133 0.55664,-0.14648 1.05469,-0.16601 0.9082,-0.0293 1.52343,0.22461 0.61524,0.24414 0.9961,0.81055 0.38086,0.55664 0.54687,1.43554 0.16602,0.87891 0.16602,2.10938 l 0,5.51757 1.57226,0.19532 0,0.83007 -4.92187,0 0,-0.83007 1.47461,-0.20508 0,-5.16602 q 0,-0.88867 -0.0879,-1.5625 -0.0879,-0.67382 -0.35156,-1.11328 -0.25391,-0.43945 -0.71289,-0.64453 -0.45899,-0.20508 -1.20118,-0.17578 -0.60546,0.0293 -1.27929,0.27344 -0.67383,0.23437 -1.41602,0.74219 l 0,7.64648 1.45508,0.20508 0,0.83007 -4.67773,0 0,-0.83007 z"
         style="font-style:normal;font-variant:normal;font-weight:normal;font-stretch:normal;font-size:19.99999809px;font-family:Merriweather;-inkscape-font-specification:Merriweather"
         id="path4610" />
      <path
         d="m 167.48882,158.72069 q 0,-0.44922 0.15625,-0.85938 0.16601,-0.41016 0.41015,-0.75195 0.24414,-0.3418 0.52735,-0.61524 0.29296,-0.26367 0.55664,-0.42968 -0.43946,-0.15625 -0.66407,-0.36133 -0.22461,-0.20508 -0.32226,-0.42969 -0.0879,-0.22461 -0.0977,-0.45898 -0.01,-0.23438 -0.01,-0.43946 0,-0.17578 0.0781,-0.45898 0.0781,-0.2832 0.22461,-0.60547 0.15625,-0.32227 0.38086,-0.6543 0.23438,-0.33203 0.52734,-0.5957 -0.73242,-0.43945 -1.16211,-1.17188 -0.41992,-0.74218 -0.41992,-1.80664 0,-1.00585 0.38086,-1.74804 0.39063,-0.74219 1.01563,-1.23047 0.63476,-0.48828 1.43554,-0.73242 0.80079,-0.24414 1.6211,-0.26367 0.83008,-0.0195 1.55273,0.17578 0.73242,0.18554 1.28906,0.60547 0.19532,-0.22461 0.56641,-0.36133 0.38086,-0.14649 1.00586,-0.14649 l 1.18164,0 0,1.47461 -1.91406,0 q 0.20508,0.3711 0.3125,0.83985 0.11719,0.46875 0.11719,1.02539 0,0.96679 -0.36133,1.71875 -0.35157,0.74218 -0.95703,1.25 -0.59571,0.50781 -1.38672,0.77148 -0.78125,0.26367 -1.64063,0.26367 -1.15234,0 -2.06054,-0.36133 -0.0586,0.15625 -0.0879,0.3418 -0.0195,0.17578 -0.0293,0.35156 0,0.16602 0,0.32227 0.01,0.14648 0.01,0.24414 0,0.52734 0.27344,0.82031 0.2832,0.29297 0.97656,0.35156 0.43946,0.0391 1.05469,0.0488 0.61524,0 1.46484,0 0.90821,0 1.55274,0.14649 0.64453,0.13672 1.06445,0.37109 0.42969,0.23438 0.67383,0.54688 0.24414,0.3125 0.37109,0.65429 0.12696,0.3418 0.15625,0.6836 0.0293,0.35156 0.0293,0.66406 0,0.83984 -0.35156,1.52344 -0.35156,0.68359 -1.01563,1.17187 -0.65429,0.48828 -1.61132,0.75195 -0.94727,0.27344 -2.15821,0.27344 -0.8789,0 -1.72851,-0.13672 -0.83985,-0.13672 -1.50391,-0.47851 -0.66406,-0.33203 -1.07422,-0.89844 -0.41015,-0.55664 -0.41015,-1.39648 z m 4.6875,-7.04102 q 0.60546,0 1.02539,-0.16602 0.41992,-0.16601 0.67382,-0.49804 0.26368,-0.3418 0.38086,-0.83985 0.11719,-0.50781 0.11719,-1.18164 0,-1.45507 -0.625,-2.1582 -0.625,-0.70312 -1.875,-0.70312 -0.48828,0 -0.91797,0.12695 -0.41992,0.12695 -0.74218,0.42969 -0.3125,0.29297 -0.49805,0.79101 -0.17578,0.48828 -0.17578,1.23047 0,0.60547 0.14648,1.15234 0.14649,0.53711 0.45899,0.94727 0.32226,0.40039 0.82031,0.63477 0.50781,0.23437 1.21094,0.23437 z m -2.8711,6.41602 q 0,0.66406 0.25391,1.12304 0.2539,0.46875 0.68359,0.75196 0.42969,0.29296 0.9961,0.41992 0.5664,0.13672 1.20117,0.13672 0.79101,0 1.41601,-0.13672 0.63477,-0.12696 1.07422,-0.39063 0.43945,-0.26367 0.67383,-0.67383 0.23437,-0.40039 0.23437,-0.94726 0,-0.46875 -0.10742,-0.83985 -0.10742,-0.36132 -0.41992,-0.61523 -0.3125,-0.25391 -0.87891,-0.39062 -0.55664,-0.12696 -1.46484,-0.12696 l -1.23047,-0.0195 q -0.57617,0 -1.03515,-0.0293 -0.44922,-0.0391 -0.81055,-0.0977 -0.11719,0.13672 -0.22461,0.30273 -0.0977,0.17578 -0.18555,0.39063 -0.0781,0.22461 -0.12695,0.49804 -0.0488,0.28321 -0.0488,0.64454 z"
         style="font-style:normal;font-variant:normal;font-weight:normal;font-stretch:normal;font-size:19.99999809px;font-family:Merriweather;-inkscape-font-specification:Merriweather"
         id="path4612" />
      <path
         d="m 184.33452,155.61522 1.46484,-0.20508 0,-13.22266 -1.66992,-0.35156 0,-0.84961 3.08594,-0.41015 0.45898,0.22461 -0.0195,4.3164 -0.0293,1.68945 q 0.42969,-0.35156 0.92774,-0.625 0.50781,-0.27343 1.01562,-0.45898 0.50782,-0.19531 0.98633,-0.29297 0.48828,-0.10742 0.87891,-0.10742 0.99609,0 1.63086,0.30273 0.63476,0.30274 0.99609,0.9375 0.37109,0.625 0.50781,1.61133 0.13672,0.98633 0.12696,2.34375 l 0,4.89258 1.46484,0.20508 0,0.83007 -4.98047,0 0,-0.83007 1.64063,-0.20508 0,-4.0625 q 0,-1.13281 -0.0586,-1.99219 -0.0488,-0.85937 -0.2832,-1.43554 -0.22461,-0.58594 -0.68359,-0.87891 -0.45899,-0.29297 -1.26954,-0.29297 -0.32226,0 -0.68359,0.0391 -0.36133,0.0391 -0.73242,0.13672 -0.36133,0.0879 -0.73242,0.24414 -0.36133,0.15625 -0.70313,0.40039 l 0,7.8418 1.43555,0.20508 0,0.83007 -4.77539,0 0,-0.83007 z"
         style="font-style:normal;font-variant:normal;font-weight:normal;font-stretch:normal;font-size:19.99999809px;font-family:Merriweather;-inkscape-font-specification:Merriweather"
         id="path4614" />
      <path
         d="m 200.08647,143.01756 q -0.23437,0 -0.45898,-0.0781 -0.22461,-0.0879 -0.40039,-0.23438 -0.16602,-0.15625 -0.27344,-0.38086 -0.0977,-0.22461 -0.0977,-0.50781 0,-0.30273 0.12696,-0.56641 0.13672,-0.26367 0.34179,-0.44921 0.20508,-0.19532 0.45899,-0.30274 0.26367,-0.10742 0.52734,-0.10742 0.64453,0 0.9375,0.36133 0.30274,0.35156 0.30274,0.84961 0,0.32226 -0.12696,0.58593 -0.12695,0.26368 -0.33203,0.44922 -0.20508,0.17578 -0.46875,0.28321 -0.26367,0.0977 -0.53711,0.0977 z m -2.1582,12.59766 1.66016,-0.20508 0,-7.99805 -1.34766,-0.71289 0,-0.60547 2.70508,-0.77148 0.43945,0.19531 0,9.89258 1.58203,0.20508 0,0.83007 -5.03906,0 0,-0.83007 z"
         style="font-style:normal;font-variant:normal;font-weight:normal;font-stretch:normal;font-size:19.99999809px;font-family:Merriweather;-inkscape-font-specification:Merriweather"
         id="path4616" />
      <path
         d="m 205.15483,153.61326 0.86914,0 0.38086,1.19141 q 0.24414,0.20508 0.47852,0.36133 0.24414,0.14648 0.48828,0.24414 0.2539,0.0976 0.53711,0.15625 0.2832,0.0488 0.625,0.0586 0.54687,0.0195 1.00586,-0.0781 0.45898,-0.10742 0.79101,-0.33203 0.33203,-0.23438 0.51758,-0.58594 0.18555,-0.35156 0.18555,-0.83984 0,-0.43946 -0.24414,-0.75196 -0.23438,-0.3125 -0.625,-0.55664 -0.39063,-0.2539 -0.88867,-0.45898 -0.49805,-0.21485 -1.01563,-0.46875 -0.57617,-0.27344 -1.13281,-0.59571 -0.54688,-0.33203 -0.97656,-0.73242 -0.41993,-0.41015 -0.67383,-0.91797 -0.25391,-0.50781 -0.24414,-1.16211 0.01,-0.50781 0.17578,-0.91796 0.17578,-0.41016 0.45898,-0.73243 0.29297,-0.32226 0.67383,-0.55664 0.38086,-0.24414 0.81055,-0.40039 0.42968,-0.16601 0.8789,-0.24414 0.45899,-0.0879 0.89844,-0.0976 0.48828,-0.01 0.9375,0.0488 0.45898,0.0488 0.84961,0.14649 0.40039,0.0976 0.71289,0.22461 0.32227,0.12695 0.54688,0.2539 l 0,2.08985 -0.83008,0 -0.41992,-1.09375 q -0.13672,-0.14649 -0.30274,-0.26367 -0.15625,-0.12696 -0.36133,-0.21485 -0.19531,-0.0976 -0.44922,-0.15625 -0.2539,-0.0586 -0.57617,-0.0586 -0.46875,0 -0.86914,0.0976 -0.39062,0.0879 -0.68359,0.28321 -0.29297,0.19531 -0.46875,0.50781 -0.16602,0.3125 -0.17578,0.75195 -0.0195,0.43946 0.21484,0.77149 0.23438,0.32226 0.61524,0.58593 0.38085,0.26368 0.86914,0.49805 0.49804,0.22461 1.01562,0.47852 0.53711,0.2539 1.08398,0.52734 0.55665,0.26367 0.9961,0.63477 0.43945,0.36132 0.71289,0.85937 0.2832,0.48828 0.2832,1.17188 0,0.83007 -0.33203,1.45507 -0.33203,0.625 -0.91797,1.04493 -0.57617,0.41992 -1.35742,0.625 -0.77148,0.21484 -1.66016,0.21484 -0.88867,0 -1.77734,-0.21484 -0.88867,-0.20508 -1.63086,-0.61524 l 0,-2.23633 z"
         style="font-style:normal;font-variant:normal;font-weight:normal;font-stretch:normal;font-size:19.99999809px;font-family:Merriweather;-inkscape-font-specification:Merriweather"
         id="path4618" />
      <path
         d="m 219.89116,151.19139 q -0.01,-1.34766 0.40039,-2.43164 0.41016,-1.08399 1.12305,-1.85547 0.72265,-0.77148 1.68945,-1.20117 0.97656,-0.42969 2.09961,-0.47852 0.41016,-0.01 0.83008,0.0195 0.42968,0.0195 0.80078,0.0879 0.38086,0.0586 0.69336,0.15625 0.3125,0.0977 0.50781,0.22461 l 0,2.34375 -0.92773,0 -0.49805,-1.23046 q -0.15625,-0.12696 -0.36133,-0.21485 -0.20508,-0.0879 -0.41992,-0.14648 -0.21484,-0.0586 -0.42969,-0.0781 -0.21484,-0.0293 -0.39062,-0.0293 -0.6543,0 -1.25,0.24414 -0.59571,0.24414 -1.05469,0.74218 -0.45898,0.48828 -0.73242,1.24024 -0.27344,0.74218 -0.28321,1.74804 -0.01,1.32813 0.3125,2.27539 0.32227,0.94727 0.83985,1.55274 0.51758,0.5957 1.15234,0.8789 0.63477,0.27344 1.25,0.27344 0.38086,0 0.79102,-0.0488 0.41015,-0.0488 0.79101,-0.12695 0.38086,-0.0781 0.70313,-0.18555 0.32226,-0.11718 0.52734,-0.23437 l 0.33203,0.86914 q -0.2832,0.25391 -0.70312,0.44922 -0.41992,0.19531 -0.92774,0.33203 -0.49804,0.13672 -1.05468,0.20508 -0.54688,0.0781 -1.10352,0.0781 -1.13281,0 -2.00195,-0.41015 -0.86914,-0.41016 -1.47461,-1.14258 -0.5957,-0.73242 -0.9082,-1.72852 -0.3125,-1.00586 -0.32227,-2.17773 z"
         style="font-style:normal;font-variant:normal;font-weight:normal;font-stretch:normal;font-size:19.99999809px;font-family:Merriweather;-inkscape-font-specification:Merriweather"
         id="path4620" />
      <path
         d="m 232.31303,143.01756 q -0.23437,0 -0.45898,-0.0781 -0.22461,-0.0879 -0.40039,-0.23438 -0.16602,-0.15625 -0.27344,-0.38086 -0.0976,-0.22461 -0.0976,-0.50781 0,-0.30273 0.12695,-0.56641 0.13672,-0.26367 0.3418,-0.44921 0.20507,-0.19532 0.45898,-0.30274 0.26367,-0.10742 0.52734,-0.10742 0.64454,0 0.9375,0.36133 0.30274,0.35156 0.30274,0.84961 0,0.32226 -0.12695,0.58593 -0.12696,0.26368 -0.33204,0.44922 -0.20507,0.17578 -0.46875,0.28321 -0.26367,0.0977 -0.53711,0.0977 z m -2.1582,12.59766 1.66016,-0.20508 0,-7.99805 -1.34766,-0.71289 0,-0.60547 2.70508,-0.77148 0.43945,0.19531 0,9.89258 1.58203,0.20508 0,0.83007 -5.03906,0 0,-0.83007 z"
         style="font-style:normal;font-variant:normal;font-weight:normal;font-stretch:normal;font-size:19.99999809px;font-family:Merriweather;-inkscape-font-specification:Merriweather"
         id="path4622" />
      <path
         d="m 236.981,158.72069 q 0,-0.44922 0.15625,-0.85938 0.16602,-0.41016 0.41016,-0.75195 0.24414,-0.3418 0.52734,-0.61524 0.29297,-0.26367 0.55664,-0.42968 -0.43945,-0.15625 -0.66406,-0.36133 -0.22461,-0.20508 -0.32226,-0.42969 -0.0879,-0.22461 -0.0977,-0.45898 -0.01,-0.23438 -0.01,-0.43946 0,-0.17578 0.0781,-0.45898 0.0781,-0.2832 0.22461,-0.60547 0.15625,-0.32227 0.38086,-0.6543 0.23437,-0.33203 0.52734,-0.5957 -0.73242,-0.43945 -1.16211,-1.17188 -0.41992,-0.74218 -0.41992,-1.80664 0,-1.00585 0.38086,-1.74804 0.39062,-0.74219 1.01562,-1.23047 0.63477,-0.48828 1.43555,-0.73242 0.80078,-0.24414 1.6211,-0.26367 0.83007,-0.0195 1.55273,0.17578 0.73242,0.18554 1.28906,0.60547 0.19531,-0.22461 0.56641,-0.36133 0.38086,-0.14649 1.00586,-0.14649 l 1.18164,0 0,1.47461 -1.91406,0 q 0.20507,0.3711 0.3125,0.83985 0.11718,0.46875 0.11718,1.02539 0,0.96679 -0.36133,1.71875 -0.35156,0.74218 -0.95703,1.25 -0.5957,0.50781 -1.38672,0.77148 -0.78124,0.26367 -1.64062,0.26367 -1.15234,0 -2.06055,-0.36133 -0.0586,0.15625 -0.0879,0.3418 -0.0195,0.17578 -0.0293,0.35156 0,0.16602 0,0.32227 0.01,0.14648 0.01,0.24414 0,0.52734 0.27344,0.82031 0.2832,0.29297 0.97656,0.35156 0.43945,0.0391 1.05469,0.0488 0.61523,0 1.46484,0 0.90821,0 1.55274,0.14649 0.64453,0.13672 1.06445,0.37109 0.42969,0.23438 0.67383,0.54688 0.24414,0.3125 0.37109,0.65429 0.12695,0.3418 0.15625,0.6836 0.0293,0.35156 0.0293,0.66406 0,0.83984 -0.35156,1.52344 -0.35157,0.68359 -1.01563,1.17187 -0.6543,0.48828 -1.61133,0.75195 -0.94726,0.27344 -2.1582,0.27344 -0.87891,0 -1.72852,-0.13672 -0.83984,-0.13672 -1.5039,-0.47851 -0.66406,-0.33203 -1.07422,-0.89844 -0.41016,-0.55664 -0.41016,-1.39648 z m 4.6875,-7.04102 q 0.60547,0 1.02539,-0.16602 0.41993,-0.16601 0.67383,-0.49804 0.26367,-0.3418 0.38086,-0.83985 0.11719,-0.50781 0.11719,-1.18164 0,-1.45507 -0.625,-2.1582 -0.625,-0.70312 -1.875,-0.70312 -0.48828,0 -0.91797,0.12695 -0.41992,0.12695 -0.74219,0.42969 -0.3125,0.29297 -0.49804,0.79101 -0.17579,0.48828 -0.17579,1.23047 0,0.60547 0.14649,1.15234 0.14648,0.53711 0.45898,0.94727 0.32227,0.40039 0.82032,0.63477 0.50781,0.23437 1.21093,0.23437 z m -2.87109,6.41602 q 0,0.66406 0.25391,1.12304 0.2539,0.46875 0.68359,0.75196 0.42969,0.29296 0.99609,0.41992 0.56641,0.13672 1.20118,0.13672 0.79101,0 1.41601,-0.13672 0.63477,-0.12696 1.07422,-0.39063 0.43945,-0.26367 0.67383,-0.67383 0.23437,-0.40039 0.23437,-0.94726 0,-0.46875 -0.10742,-0.83985 -0.10742,-0.36132 -0.41992,-0.61523 -0.3125,-0.25391 -0.87891,-0.39062 -0.55664,-0.12696 -1.46484,-0.12696 l -1.23047,-0.0195 q -0.57617,0 -1.03516,-0.0293 -0.44921,-0.0391 -0.81054,-0.0977 -0.11719,0.13672 -0.22461,0.30273 -0.0977,0.17578 -0.18555,0.39063 -0.0781,0.22461 -0.12695,0.49804 -0.0488,0.28321 -0.0488,0.64454 z"
         style="font-style:normal;font-variant:normal;font-weight:normal;font-stretch:normal;font-size:19.99999809px;font-family:Merriweather;-inkscape-font-specification:Merriweather"
         id="path4624" />
      <path
         d="m 248.65093,153.30076 q 0.0684,-0.68359 0.43945,-1.1914 0.37109,-0.51758 0.91797,-0.88867 0.54687,-0.3711 1.21093,-0.61524 0.67383,-0.24414 1.34766,-0.39062 0.67383,-0.14649 1.29883,-0.20508 0.625,-0.0586 1.08398,-0.0586 l 0,-0.8496 q 0,-0.77149 -0.20508,-1.25 -0.20507,-0.48829 -0.5664,-0.76172 -0.36133,-0.27344 -0.84961,-0.3711 -0.48828,-0.0976 -1.05469,-0.0976 -0.2832,0 -0.63476,0.0586 -0.35157,0.0488 -0.73243,0.14649 -0.37109,0.0977 -0.75195,0.23437 -0.38086,0.13672 -0.72265,0.30273 l -0.36133,-0.8789 q 0.36133,-0.29297 0.8789,-0.50781 0.52735,-0.22461 1.07422,-0.3711 0.55664,-0.14648 1.07422,-0.21484 0.52734,-0.0684 0.89844,-0.0684 0.77148,0 1.46484,0.16601 0.70313,0.15625 1.23047,0.56641 0.52734,0.40039 0.83008,1.09375 0.3125,0.68359 0.3125,1.74805 l -0.0195,6.71875 1.25,0 0,0.64453 q -0.3418,0.18554 -0.84961,0.30273 -0.49805,0.11719 -1.00586,0.11719 -0.17578,0 -0.38086,-0.0293 -0.20508,-0.0195 -0.38086,-0.11718 -0.16602,-0.0977 -0.2832,-0.30274 -0.10743,-0.20508 -0.10743,-0.56641 l 0,-0.27343 q -0.2246,0.27343 -0.5371,0.50781 -0.30274,0.23437 -0.70313,0.41016 -0.39062,0.17578 -0.89844,0.27343 -0.49804,0.0977 -1.11328,0.0977 -0.76172,0 -1.38672,-0.27344 -0.61523,-0.27344 -1.03515,-0.73242 -0.41016,-0.46875 -0.61524,-1.07422 -0.19531,-0.61523 -0.11718,-1.29883 z m 1.89453,0.0391 q 0,0.57617 0.15625,0.97656 0.15625,0.40039 0.44922,0.6543 0.30273,0.24414 0.73242,0.36132 0.42968,0.10743 0.96679,0.10743 0.29297,0 0.59571,-0.0781 0.30273,-0.0781 0.57617,-0.19531 0.2832,-0.11719 0.51758,-0.26367 0.24414,-0.15625 0.39062,-0.30274 0,-0.91797 0,-1.8164 0.01,-0.90821 0.0195,-1.82618 -0.41015,0 -0.89843,0.0488 -0.48829,0.0391 -0.97657,0.14649 -0.48828,0.10742 -0.94726,0.2832 -0.45899,0.17578 -0.81055,0.44922 -0.35156,0.26367 -0.56641,0.625 -0.20507,0.36133 -0.20507,0.83008 z"
         style="font-style:normal;font-variant:normal;font-weight:normal;font-stretch:normal;font-size:19.99999809px;font-family:Merriweather;-inkscape-font-specification:Merriweather"
         id="path4626" />
      <path
         d="m 259.76421,155.61522 1.58203,-0.20508 0,-7.94922 -1.38672,-0.76172 0,-0.60547 2.57812,-0.77148 0.45899,0.19531 0,1.50391 q 0.18555,-0.27344 0.55664,-0.57617 0.38086,-0.30274 0.84961,-0.54688 0.46875,-0.25391 0.97656,-0.41016 0.50781,-0.16601 0.95703,-0.16601 0.32227,0 0.57617,0.0195 0.26368,0.01 0.3711,0.0488 l 0,2.00195 q -0.15625,-0.0586 -0.32227,-0.11719 -0.16601,-0.0684 -0.37109,-0.10742 -0.19531,-0.0488 -0.44922,-0.0781 -0.25391,-0.0293 -0.58594,-0.0293 -0.79101,0 -1.32812,0.20508 -0.53711,0.19531 -0.98633,0.47851 l 0,7.63672 2.7832,0.23438 0,0.83007 -6.25976,0 0,-0.83007 z"
         style="font-style:normal;font-variant:normal;font-weight:normal;font-stretch:normal;font-size:19.99999809px;font-family:Merriweather;-inkscape-font-specification:Merriweather"
         id="path4628" />
      <path
         d="m 276.06302,143.01756 q -0.23438,0 -0.45898,-0.0781 -0.22461,-0.0879 -0.4004,-0.23438 -0.16601,-0.15625 -0.27343,-0.38086 -0.0977,-0.22461 -0.0977,-0.50781 0,-0.30273 0.12695,-0.56641 0.13672,-0.26367 0.3418,-0.44921 0.20508,-0.19532 0.45899,-0.30274 0.26367,-0.10742 0.52734,-0.10742 0.64453,0 0.9375,0.36133 0.30273,0.35156 0.30273,0.84961 0,0.32226 -0.12695,0.58593 -0.12695,0.26368 -0.33203,0.44922 -0.20508,0.17578 -0.46875,0.28321 -0.26367,0.0977 -0.53711,0.0977 z m -2.1582,12.59766 1.66015,-0.20508 0,-7.99805 -1.34765,-0.71289 0,-0.60547 2.70507,-0.77148 0.43946,0.19531 0,9.89258 1.58203,0.20508 0,0.83007 -5.03906,0 0,-0.83007 z"
         style="font-style:normal;font-variant:normal;font-weight:normal;font-stretch:normal;font-size:19.99999809px;font-family:Merriweather;-inkscape-font-specification:Merriweather"
         id="path4630" />
      <path
         d="m 280.83841,155.61522 1.32813,-0.19532 0,-7.95898 -1.38672,-0.76172 0,-0.60547 2.59765,-0.77148 0.43946,0.19531 0,1.39649 q 0.33203,-0.28321 0.80078,-0.55664 0.46875,-0.28321 0.99609,-0.50782 0.52734,-0.22461 1.08398,-0.36133 0.55665,-0.14648 1.05469,-0.16601 0.90821,-0.0293 1.52344,0.22461 0.61523,0.24414 0.99609,0.81055 0.38086,0.55664 0.54688,1.43554 0.16601,0.87891 0.16601,2.10938 l 0,5.51757 1.57227,0.19532 0,0.83007 -4.92188,0 0,-0.83007 1.47461,-0.20508 0,-5.16602 q 0,-0.88867 -0.0879,-1.5625 -0.0879,-0.67382 -0.35156,-1.11328 -0.25391,-0.43945 -0.71289,-0.64453 -0.45898,-0.20508 -1.20117,-0.17578 -0.60547,0.0293 -1.2793,0.27344 -0.67383,0.23437 -1.41601,0.74219 l 0,7.64648 1.45507,0.20508 0,0.83007 -4.67773,0 0,-0.83007 z"
         style="font-style:normal;font-variant:normal;font-weight:normal;font-stretch:normal;font-size:19.99999809px;font-family:Merriweather;-inkscape-font-specification:Merriweather"
         id="path4632" />
      <path
         d="m 295.70169,153.8867 q 0,-1.79687 0,-3.56445 0.01,-1.77735 0.01,-3.57422 l -1.49414,0 0,-0.73242 q 0.42968,-0.10742 0.71289,-0.16602 0.29297,-0.0684 0.47851,-0.14648 0.19532,-0.0879 0.32227,-0.21485 0.12695,-0.12695 0.23437,-0.37109 0.0684,-0.16601 0.16602,-0.48828 0.10742,-0.32227 0.19531,-0.6543 0.0977,-0.34179 0.16602,-0.63476 0.0684,-0.30274 0.0879,-0.42969 l 0.96679,0 0,2.60742 3.28125,0 0,1.23047 -3.28125,0 0,4.92187 q 0,1.13282 0.0293,1.84571 0.0293,0.70312 0.14649,1.10351 0.11718,0.40039 0.34179,0.54688 0.22461,0.13672 0.625,0.13672 0.24414,0 0.53711,-0.0488 0.30274,-0.0488 0.57617,-0.11719 0.28321,-0.0684 0.51758,-0.14648 0.23438,-0.0879 0.35156,-0.16602 l 0.30274,0.85938 q -0.22461,0.24414 -0.5957,0.42968 -0.3711,0.18555 -0.81055,0.3125 -0.42969,0.12696 -0.86914,0.18555 -0.42969,0.0684 -0.76172,0.0684 -1.06445,0 -1.65039,-0.6543 -0.58594,-0.65429 -0.58594,-2.13867 z"
         style="font-style:normal;font-variant:normal;font-weight:normal;font-stretch:normal;font-size:19.99999809px;font-family:Merriweather;-inkscape-font-specification:Merriweather"
         id="path4634" />
      <path
         d="m 302.56693,150.7617 q 0.0195,-1.30859 0.44921,-2.33398 0.43946,-1.03516 1.15235,-1.74805 0.71289,-0.71289 1.64062,-1.09375 0.9375,-0.38086 1.95313,-0.39062 1.24023,-0.01 2.1582,0.42968 0.91797,0.43946 1.51367,1.21094 0.60547,0.76172 0.89844,1.79688 0.29297,1.03515 0.2832,2.21679 -0.01,1.29883 -0.41992,2.37305 -0.40039,1.07422 -1.09375,1.8457 -0.68359,0.76172 -1.61133,1.19141 -0.91797,0.41992 -1.97265,0.41992 -1.34766,0 -2.29492,-0.48828 -0.94727,-0.48828 -1.54297,-1.30859 -0.59571,-0.82032 -0.86914,-1.88477 -0.26368,-1.07422 -0.24414,-2.23633 z m 5.03906,4.82422 q 0.83008,0.0195 1.39648,-0.2832 0.57617,-0.30274 0.92774,-0.88867 0.36132,-0.59571 0.51757,-1.46485 0.16602,-0.8789 0.16602,-2.01172 0,-0.98633 -0.17578,-1.83593 -0.16602,-0.85938 -0.53711,-1.49414 -0.36133,-0.63477 -0.92773,-0.9961 -0.55665,-0.37109 -1.32813,-0.39062 -0.83008,-0.01 -1.41602,0.29297 -0.57617,0.29296 -0.94726,0.86914 -0.37109,0.57617 -0.54688,1.40625 -0.16601,0.83007 -0.16601,1.88476 0,0.94727 0.18555,1.82617 0.18554,0.87891 0.55664,1.5625 0.37109,0.67383 0.9375,1.09375 0.57617,0.41016 1.35742,0.42969 z"
         style="font-style:normal;font-variant:normal;font-weight:normal;font-stretch:normal;font-size:19.99999809px;font-family:Merriweather;-inkscape-font-specification:Merriweather"
         id="path4636" />
      <path
         d="m 321.28763,153.8867 q 0,-1.79687 0,-3.56445 0.01,-1.77735 0.01,-3.57422 l -1.49414,0 0,-0.73242 q 0.42969,-0.10742 0.71289,-0.16602 0.29297,-0.0684 0.47852,-0.14648 0.19531,-0.0879 0.32227,-0.21485 0.12695,-0.12695 0.23437,-0.37109 0.0684,-0.16601 0.16602,-0.48828 0.10742,-0.32227 0.19531,-0.6543 0.0977,-0.34179 0.16601,-0.63476 0.0684,-0.30274 0.0879,-0.42969 l 0.96679,0 0,2.60742 3.28125,0 0,1.23047 -3.28125,0 0,4.92187 q 0,1.13282 0.0293,1.84571 0.0293,0.70312 0.14648,1.10351 0.11719,0.40039 0.3418,0.54688 0.22461,0.13672 0.625,0.13672 0.24414,0 0.53711,-0.0488 0.30273,-0.0488 0.57617,-0.11719 0.2832,-0.0684 0.51758,-0.14648 0.23437,-0.0879 0.35156,-0.16602 l 0.30274,0.85938 q -0.22461,0.24414 -0.59571,0.42968 -0.37109,0.18555 -0.81054,0.3125 -0.42969,0.12696 -0.86914,0.18555 -0.42969,0.0684 -0.76172,0.0684 -1.06446,0 -1.65039,-0.6543 -0.58594,-0.65429 -0.58594,-2.13867 z"
         style="font-style:normal;font-variant:normal;font-weight:normal;font-stretch:normal;font-size:19.99999809px;font-family:Merriweather;-inkscape-font-specification:Merriweather"
         id="path4638" />
      <path
         d="m 328.35794,155.61522 1.46485,-0.20508 0,-13.22266 -1.66993,-0.35156 0,-0.84961 3.08594,-0.41015 0.45898,0.22461 -0.0195,4.3164 -0.0293,1.68945 q 0.42968,-0.35156 0.92773,-0.625 0.50781,-0.27343 1.01563,-0.45898 0.50781,-0.19531 0.98632,-0.29297 0.48829,-0.10742 0.87891,-0.10742 0.99609,0 1.63086,0.30273 0.63476,0.30274 0.99609,0.9375 0.3711,0.625 0.50782,1.61133 0.13671,0.98633 0.12695,2.34375 l 0,4.89258 1.46484,0.20508 0,0.83007 -4.98047,0 0,-0.83007 1.64063,-0.20508 0,-4.0625 q 0,-1.13281 -0.0586,-1.99219 -0.0488,-0.85937 -0.28321,-1.43554 -0.22461,-0.58594 -0.68359,-0.87891 -0.45899,-0.29297 -1.26953,-0.29297 -0.32227,0 -0.6836,0.0391 -0.36132,0.0391 -0.73242,0.13672 -0.36133,0.0879 -0.73242,0.24414 -0.36133,0.15625 -0.70313,0.40039 l 0,7.8418 1.43555,0.20508 0,0.83007 -4.77539,0 0,-0.83007 z"
         style="font-style:normal;font-variant:normal;font-weight:normal;font-stretch:normal;font-size:19.99999809px;font-family:Merriweather;-inkscape-font-specification:Merriweather"
         id="path4640" />
      <path
         d="m 341.8345,151.01561 q 0,-1.25 0.39063,-2.30469 0.40039,-1.05469 1.10351,-1.82617 0.7129,-0.77149 1.70899,-1.21094 0.99609,-0.44922 2.19726,-0.47851 0.85938,-0.0195 1.55274,0.2539 0.69336,0.26367 1.18164,0.79102 0.48828,0.52734 0.76172,1.28906 0.2832,0.76172 0.32226,1.72852 0.0195,0.61523 -0.0293,1.06445 -0.0391,0.44922 -0.0879,0.80078 l -7.23633,0 q 0,0.0586 0,0.11719 0,0.0488 0.01,0.10742 0.0391,1.18164 0.40039,1.95312 0.36133,0.77149 0.89844,1.23047 0.54688,0.44922 1.20117,0.63477 0.6543,0.17578 1.2793,0.17578 0.38086,0 0.80078,-0.0391 0.41992,-0.0488 0.81055,-0.12696 0.40039,-0.0879 0.73242,-0.19531 0.3418,-0.10742 0.54688,-0.22461 l 0.36132,0.83008 q -0.2832,0.25391 -0.74218,0.45898 -0.44922,0.20508 -0.98633,0.35157 -0.53711,0.13672 -1.12305,0.20507 -0.58594,0.0781 -1.14258,0.0781 -1.18164,0 -2.09961,-0.40039 -0.9082,-0.41016 -1.5332,-1.14258 -0.625,-0.74219 -0.95703,-1.78711 -0.32227,-1.04492 -0.32227,-2.33398 z m 7.22657,-1.04492 q 0.0293,-0.49805 0.01,-0.9961 -0.01,-0.50781 -0.11719,-0.95703 -0.10742,-0.45898 -0.33203,-0.83008 -0.21484,-0.38086 -0.58593,-0.61523 -0.25391,-0.16602 -0.57618,-0.24414 -0.32226,-0.0879 -0.73242,-0.0879 -0.54687,0 -1.06445,0.20508 -0.50781,0.20507 -0.91797,0.65429 -0.40039,0.44922 -0.67383,1.16211 -0.27344,0.70313 -0.35156,1.70899 l 5.3418,0 z"
         style="font-style:normal;font-variant:normal;font-weight:normal;font-stretch:normal;font-size:19.99999809px;font-family:Merriweather;-inkscape-font-specification:Merriweather"
         id="path4642" />
      <path
         d="m 14.041566,178.30076 q 0.06836,-0.68359 0.439453,-1.1914 0.371094,-0.51758 0.917969,-0.88868 0.546874,-0.37109 1.210937,-0.61523 0.673828,-0.24414 1.347656,-0.39063 0.673828,-0.14648 1.298828,-0.20507 0.625,-0.0586 1.083984,-0.0586 l 0,-0.84961 q 0,-0.77148 -0.205078,-1.25 -0.205078,-0.48828 -0.566406,-0.76172 -0.361328,-0.27343 -0.849609,-0.37109 -0.488281,-0.0977 -1.054688,-0.0977 -0.283203,0 -0.634765,0.0586 -0.351563,0.0488 -0.732422,0.14648 -0.371094,0.0977 -0.751953,0.23438 -0.380859,0.13672 -0.722656,0.30273 l -0.361328,-0.8789 q 0.361328,-0.29297 0.878906,-0.50782 0.527343,-0.22461 1.074218,-0.37109 0.556641,-0.14648 1.074219,-0.21484 0.527344,-0.0684 0.898437,-0.0684 0.771485,0 1.464844,0.16601 0.703125,0.15625 1.230469,0.56641 0.527343,0.40039 0.830078,1.09375 0.3125,0.68359 0.3125,1.74805 l -0.01953,6.71874 1.249999,0 0,0.64454 q -0.341796,0.18554 -0.849609,0.30273 -0.498047,0.11719 -1.005859,0.11719 -0.175781,0 -0.38086,-0.0293 -0.205078,-0.0195 -0.380859,-0.11719 -0.166015,-0.0976 -0.283203,-0.30273 -0.107422,-0.20508 -0.107422,-0.56641 l 0,-0.27343 q -0.224609,0.27343 -0.537109,0.50781 -0.302734,0.23437 -0.703125,0.41015 -0.390625,0.17578 -0.898437,0.27344 -0.498047,0.0977 -1.113282,0.0977 -0.761718,0 -1.386718,-0.27344 -0.615235,-0.27344 -1.035156,-0.73242 -0.410157,-0.46875 -0.615235,-1.07422 -0.195312,-0.61523 -0.117187,-1.29883 z m 1.894531,0.0391 q 0,0.57618 0.15625,0.97657 0.15625,0.40039 0.449219,0.65429 0.302734,0.24414 0.732421,0.36133 0.429688,0.10742 0.966797,0.10742 0.292969,0 0.595703,-0.0781 0.302735,-0.0781 0.576172,-0.19531 0.283203,-0.11719 0.517578,-0.26368 0.244141,-0.15625 0.390625,-0.30273 0,-0.91797 0,-1.81641 0.0098,-0.9082 0.01953,-1.82617 -0.410156,0 -0.898437,0.0488 -0.488281,0.0391 -0.976563,0.14648 -0.488281,0.10743 -0.947265,0.28321 -0.458984,0.17578 -0.810547,0.44922 -0.351562,0.26367 -0.566406,0.625 -0.205078,0.36132 -0.205078,0.83007 z"
         style="font-style:normal;font-variant:normal;font-weight:normal;font-stretch:normal;font-size:19.99999809px;font-family:Merriweather;-inkscape-font-specification:Merriweather"
         id="path4644" />
      <path
         d="m 25.701721,178.61326 0.869141,0 0.380859,1.19141 q 0.244141,0.20508 0.478515,0.36133 0.244141,0.14648 0.488282,0.24414 0.253906,0.0976 0.537109,0.15625 0.283203,0.0488 0.625,0.0586 0.546875,0.0195 1.005859,-0.0781 0.458985,-0.10743 0.791016,-0.33204 0.332031,-0.23437 0.517578,-0.58593 0.185547,-0.35157 0.185547,-0.83985 0,-0.43945 -0.244141,-0.75195 -0.234375,-0.3125 -0.625,-0.55664 -0.390625,-0.25391 -0.888672,-0.45899 -0.498046,-0.21484 -1.015625,-0.46875 -0.576171,-0.27343 -1.132812,-0.5957 -0.546875,-0.33203 -0.976562,-0.73242 -0.419922,-0.41016 -0.673828,-0.91797 -0.253907,-0.50781 -0.244141,-1.16211 0.0098,-0.50781 0.175781,-0.91797 0.175781,-0.41015 0.458985,-0.73242 0.292968,-0.32226 0.673828,-0.55664 0.380859,-0.24414 0.810546,-0.40039 0.429688,-0.16602 0.878907,-0.24414 0.458984,-0.0879 0.898437,-0.0977 0.488281,-0.01 0.9375,0.0488 0.458984,0.0488 0.849609,0.14649 0.400391,0.0976 0.712891,0.22461 0.322265,0.12695 0.546875,0.2539 l 0,2.08985 -0.830078,0 -0.419922,-1.09375 q -0.136719,-0.14649 -0.302734,-0.26368 -0.15625,-0.12695 -0.361329,-0.21484 -0.195312,-0.0977 -0.449218,-0.15625 -0.253907,-0.0586 -0.576172,-0.0586 -0.46875,0 -0.869141,0.0976 -0.390625,0.0879 -0.683593,0.28321 -0.292969,0.19531 -0.46875,0.50781 -0.166016,0.3125 -0.175782,0.75195 -0.01953,0.43945 0.214844,0.77149 0.234375,0.32226 0.615235,0.58593 0.380859,0.26367 0.86914,0.49805 0.498047,0.22461 1.015625,0.47851 0.537109,0.25391 1.083984,0.52735 0.556641,0.26367 0.996094,0.63476 0.439453,0.36133 0.71289,0.85938 0.283204,0.48828 0.283204,1.17187 0,0.83008 -0.332032,1.45508 -0.332031,0.625 -0.917968,1.04492 -0.576172,0.41993 -1.357422,0.625 -0.771484,0.21485 -1.660156,0.21485 -0.888672,0 -1.777344,-0.21485 -0.888672,-0.20507 -1.630859,-0.61523 l 0,-2.23633 z"
         style="font-style:normal;font-variant:normal;font-weight:normal;font-stretch:normal;font-size:19.99999809px;font-family:Merriweather;-inkscape-font-specification:Merriweather"
         id="path4646" />
      <path
         d="m 35.506408,180.61521 1.464843,-0.20507 0,-13.22266 -1.669921,-0.35156 0,-0.84961 3.085937,-0.41016 0.458984,0.22461 -0.01953,4.31641 -0.0293,1.68945 q 0.429687,-0.35156 0.927734,-0.625 0.507813,-0.27344 1.015625,-0.45898 0.507813,-0.19532 0.986328,-0.29297 0.488281,-0.10742 0.878906,-0.10742 0.996094,0 1.63086,0.30273 0.634765,0.30274 0.996093,0.9375 0.371094,0.625 0.507813,1.61133 0.136718,0.98633 0.126953,2.34375 l 0,4.89258 1.464843,0.20507 0,0.83008 -4.980468,0 0,-0.83008 1.640625,-0.20507 0,-4.0625 q 0,-1.13282 -0.05859,-1.99219 -0.04883,-0.85938 -0.283203,-1.43555 -0.224609,-0.58593 -0.683594,-0.8789 -0.458984,-0.29297 -1.269531,-0.29297 -0.322265,0 -0.683593,0.0391 -0.361328,0.0391 -0.732422,0.13672 -0.361328,0.0879 -0.732422,0.24414 -0.361328,0.15625 -0.703125,0.40039 l 0,7.8418 1.435547,0.20507 0,0.83008 -4.77539,0 0,-0.83008 z"
         style="font-style:normal;font-variant:normal;font-weight:normal;font-stretch:normal;font-size:19.99999809px;font-family:Merriweather;-inkscape-font-specification:Merriweather"
         id="path4648" />
      <path
         d="m 49.744687,172.91014 8.642577,0 0,1.43554 -8.642577,0 0,-1.43554 z"
         style="font-style:normal;font-variant:normal;font-weight:normal;font-stretch:normal;font-size:19.99999809px;font-family:Merriweather;-inkscape-font-specification:Merriweather"
         id="path4650" />
      <path
         d="m 62.693906,178.8867 q 0,-1.79688 0,-3.56445 0.0098,-1.77735 0.0098,-3.57422 l -1.49414,0 0,-0.73242 q 0.429687,-0.10743 0.71289,-0.16602 0.292969,-0.0684 0.478516,-0.14648 0.195312,-0.0879 0.322265,-0.21485 0.126954,-0.12695 0.234375,-0.37109 0.06836,-0.16602 0.166016,-0.48828 0.107422,-0.32227 0.195313,-0.6543 0.09766,-0.3418 0.166015,-0.63477 0.06836,-0.30273 0.08789,-0.42968 l 0.966797,0 0,2.60742 3.281249,0 0,1.23047 -3.281249,0 0,4.92187 q 0,1.13281 0.0293,1.84571 0.0293,0.70312 0.146485,1.10351 0.117187,0.40039 0.341797,0.54688 0.224609,0.13671 0.625,0.13671 0.24414,0 0.537109,-0.0488 0.302734,-0.0488 0.576172,-0.11719 0.283203,-0.0684 0.517578,-0.14649 0.234375,-0.0879 0.351562,-0.16601 l 0.302735,0.85937 q -0.22461,0.24414 -0.595703,0.42969 -0.371094,0.18555 -0.810547,0.3125 -0.429688,0.12695 -0.869141,0.18555 -0.429687,0.0684 -0.761719,0.0684 -1.064453,0 -1.65039,-0.6543 -0.585937,-0.6543 -0.585937,-2.13867 z"
         style="font-style:normal;font-variant:normal;font-weight:normal;font-stretch:normal;font-size:19.99999809px;font-family:Merriweather;-inkscape-font-specification:Merriweather"
         id="path4652" />
      <path
         d="m 69.647031,180.61521 1.582031,-0.20507 0,-7.94922 -1.386719,-0.76172 0,-0.60547 2.578125,-0.77148 0.458984,0.19531 0,1.50391 q 0.185547,-0.27344 0.556641,-0.57618 0.380859,-0.30273 0.849609,-0.54687 0.46875,-0.25391 0.976563,-0.41016 0.507812,-0.16601 0.957031,-0.16601 0.322265,0 0.576172,0.0195 0.263671,0.01 0.371093,0.0488 l 0,2.00195 q -0.15625,-0.0586 -0.322265,-0.11719 -0.166016,-0.0684 -0.371094,-0.10742 -0.195313,-0.0488 -0.449219,-0.0781 -0.253906,-0.0293 -0.585937,-0.0293 -0.791016,0 -1.328125,0.20508 -0.537109,0.19531 -0.986328,0.47851 l 0,7.63672 2.783203,0.23437 0,0.83008 -6.259765,0 0,-0.83008 z"
         style="font-style:normal;font-variant:normal;font-weight:normal;font-stretch:normal;font-size:19.99999809px;font-family:Merriweather;-inkscape-font-specification:Merriweather"
         id="path4654" />
      <path
         d="m 78.729058,178.30076 q 0.06836,-0.68359 0.439453,-1.1914 0.371094,-0.51758 0.917969,-0.88868 0.546875,-0.37109 1.210937,-0.61523 0.673828,-0.24414 1.347656,-0.39063 0.673828,-0.14648 1.298828,-0.20507 0.625,-0.0586 1.083985,-0.0586 l 0,-0.84961 q 0,-0.77148 -0.205078,-1.25 -0.205079,-0.48828 -0.566407,-0.76172 -0.361328,-0.27343 -0.849609,-0.37109 -0.488281,-0.0977 -1.054687,-0.0977 -0.283203,0 -0.634766,0.0586 -0.351562,0.0488 -0.732422,0.14648 -0.371093,0.0977 -0.751953,0.23438 -0.380859,0.13672 -0.722656,0.30273 l -0.361328,-0.8789 q 0.361328,-0.29297 0.878906,-0.50782 0.527344,-0.22461 1.074219,-0.37109 0.55664,-0.14648 1.074218,-0.21484 0.527344,-0.0684 0.898438,-0.0684 0.771484,0 1.464843,0.16601 0.703125,0.15625 1.230469,0.56641 0.527344,0.40039 0.830078,1.09375 0.3125,0.68359 0.3125,1.74805 l -0.01953,6.71874 1.25,0 0,0.64454 q -0.341797,0.18554 -0.84961,0.30273 -0.498046,0.11719 -1.005859,0.11719 -0.175781,0 -0.380859,-0.0293 -0.205078,-0.0195 -0.380859,-0.11719 -0.166016,-0.0976 -0.283204,-0.30273 -0.107421,-0.20508 -0.107421,-0.56641 l 0,-0.27343 q -0.22461,0.27343 -0.53711,0.50781 -0.302734,0.23437 -0.703125,0.41015 -0.390625,0.17578 -0.898437,0.27344 -0.498047,0.0977 -1.113281,0.0977 -0.761719,0 -1.386719,-0.27344 -0.615234,-0.27344 -1.035156,-0.73242 -0.410156,-0.46875 -0.615234,-1.07422 -0.195313,-0.61523 -0.117188,-1.29883 z m 1.894531,0.0391 q 0,0.57618 0.15625,0.97657 0.15625,0.40039 0.449219,0.65429 0.302734,0.24414 0.732422,0.36133 0.429687,0.10742 0.966797,0.10742 0.292968,0 0.595703,-0.0781 0.302734,-0.0781 0.576171,-0.19531 0.283203,-0.11719 0.517578,-0.26368 0.244141,-0.15625 0.390625,-0.30273 0,-0.91797 0,-1.81641 0.0098,-0.9082 0.01953,-1.82617 -0.410157,0 -0.898438,0.0488 -0.488281,0.0391 -0.976562,0.14648 -0.488281,0.10743 -0.947266,0.28321 -0.458984,0.17578 -0.810546,0.44922 -0.351563,0.26367 -0.566407,0.625 -0.205078,0.36132 -0.205078,0.83007 z"
         style="font-style:normal;font-variant:normal;font-weight:normal;font-stretch:normal;font-size:19.99999809px;font-family:Merriweather;-inkscape-font-specification:Merriweather"
         id="path4656" />
      <path
         d="m 90.213433,184.75584 q 0.166016,0.0488 0.380859,0.0781 0.22461,0.0293 0.400391,0.0293 0.351563,0 0.761719,-0.12695 0.410156,-0.12696 0.830078,-0.49805 0.419922,-0.36133 0.810547,-1.03516 0.40039,-0.67382 0.722656,-1.75781 l -0.419922,0 -3.916015,-9.71679 -1.015625,-0.17578 0,-1.03516 4.521484,0 0,1.03516 -1.40625,0.19531 2.294921,6.55273 0.654297,1.99219 0.566407,-1.99219 1.982421,-6.58203 -1.523437,-0.16601 0,-1.03516 4.218746,0 0,1.03516 -1.093746,0.15625 q -0.654297,1.89453 -1.152344,3.33007 -0.488281,1.43555 -0.859375,2.49024 -0.361328,1.05468 -0.625,1.78711 -0.253906,0.73242 -0.429687,1.2207 -0.175782,0.48828 -0.283204,0.79101 -0.107421,0.29297 -0.185546,0.48829 -0.38086,0.97656 -0.771485,1.75781 -0.380859,0.78125 -0.810546,1.34765 -0.429688,0.57618 -0.927735,0.9375 -0.488281,0.3711 -1.09375,0.51758 -0.390625,0.0977 -0.859375,0.0977 -0.09766,0 -0.214843,-0.01 -0.117188,-0.01 -0.234375,-0.0293 -0.107422,-0.0195 -0.195313,-0.0488 -0.08789,-0.0293 -0.126953,-0.0586 l 0,-1.57226 z"
         style="font-style:normal;font-variant:normal;font-weight:normal;font-stretch:normal;font-size:19.99999809px;font-family:Merriweather;-inkscape-font-specification:Merriweather"
         id="path4658" />
      <path
         d="m 102.0982,180.45896 q 0,-0.30273 0.12695,-0.5664 0.13672,-0.26367 0.3418,-0.44922 0.20508,-0.19531 0.45898,-0.30273 0.26367,-0.10743 0.52735,-0.10743 0.64453,0 0.9375,0.36133 0.30273,0.35156 0.30273,0.84961 0,0.32227 -0.12695,0.58594 -0.12696,0.26367 -0.33203,0.44922 -0.20508,0.17578 -0.46875,0.27343 -0.26368,0.10743 -0.53711,0.10743 -0.23438,0 -0.45899,-0.0879 -0.22461,-0.0781 -0.40039,-0.22461 -0.16601,-0.15625 -0.27344,-0.38086 -0.0976,-0.22461 -0.0976,-0.50782 z"
         style="font-style:normal;font-variant:normal;font-weight:normal;font-stretch:normal;font-size:19.99999809px;font-family:Merriweather;-inkscape-font-specification:Merriweather"
         id="path4660" />
    </g>
    <g
       style="font-style:normal;font-weight:normal;font-size:23.84621239px;line-height:125%;font-family:sans-serif;letter-spacing:0px;word-spacing:0px;fill:#000000;fill-opacity:1;stroke:none;stroke-width:1px;stroke-linecap:butt;stroke-linejoin:miter;stroke-opacity:1"
       id="text4241">
      <path
         d="m 243.77413,120.44558 -5.32116,5.34444 5.32116,5.32115 -1.3856,1.40888 -5.34444,-5.34444 -5.34444,5.34444 -1.37395,-1.40888 5.30951,-5.32115 -5.30951,-5.34444 1.37395,-1.40889 5.34444,5.34444 5.34444,-5.34444 1.3856,1.40889 z"
         style="fill:#ff0000;fill-opacity:1"
         id="path4663" />
    </g>
    <g
       style="font-style:normal;font-weight:normal;font-size:23.84621239px;line-height:125%;font-family:sans-serif;letter-spacing:0px;word-spacing:0px;fill:#000000;fill-opacity:1;stroke:none;stroke-width:1px;stroke-linecap:butt;stroke-linejoin:miter;stroke-opacity:1"
       id="text4241-8">
      <path
         d="m 280.66487,118.18413 -5.32115,5.34444 5.32115,5.32115 -1.38559,1.40889 -5.34444,-5.34444 -5.34444,5.34444 -1.37395,-1.40889 5.30951,-5.32115 -5.30951,-5.34444 1.37395,-1.40888 5.34444,5.34444 5.34444,-5.34444 1.38559,1.40888 z"
         style="fill:#ff0000;fill-opacity:1"
         id="path4666" />
    </g>
    <g
       style="font-style:normal;font-weight:normal;font-size:23.84621239px;line-height:125%;font-family:sans-serif;letter-spacing:0px;word-spacing:0px;fill:#000000;fill-opacity:1;stroke:none;stroke-width:1px;stroke-linecap:butt;stroke-linejoin:miter;stroke-opacity:1"
       id="text4241-9">
      <path
         d="m 80.453013,152.08243 -5.321152,5.34444 5.321152,5.32115 -1.385595,1.40889 -5.34444,-5.34444 -5.344439,5.34444 -1.373952,-1.40889 5.309509,-5.32115 -5.309509,-5.34444 1.373952,-1.40888 5.344439,5.34444 5.34444,-5.34444 1.385595,1.40888 z"
         style="fill:#ff0000;fill-opacity:1"
         id="path4669" />
    </g>
    <g
       style="font-style:normal;font-weight:normal;font-size:23.84621239px;line-height:125%;font-family:sans-serif;letter-spacing:0px;word-spacing:0px;fill:#000000;fill-opacity:1;stroke:none;stroke-width:1px;stroke-linecap:butt;stroke-linejoin:miter;stroke-opacity:1"
       id="text4241-93">
      <path
         d="m 60.749632,168.60785 -5.321152,5.34444 5.321152,5.32116 -1.385595,1.40888 -5.344439,-5.34444 -5.344439,5.34444 -1.373952,-1.40888 5.309508,-5.32116 -5.309508,-5.34444 1.373952,-1.40888 5.344439,5.34444 5.344439,-5.34444 1.385595,1.40888 z"
         style="fill:#ff0000;fill-opacity:1"
         id="path4672" />
    </g>
  </g>
  <text
     id="text4153"
     y="-361.5817"
     x="1305.7712"
     style="font-style:normal;font-weight:normal;font-size:40px;line-height:125%;font-family:sans-serif;letter-spacing:0px;word-spacing:0px;fill:#000000;fill-opacity:1;stroke:none;stroke-width:1.99999976;stroke-linecap:butt;stroke-linejoin:miter;stroke-miterlimit:4;stroke-dasharray:none;stroke-opacity:1"
     xml:space="preserve"
     sodipodi:linespacing="125%"><tspan
       y="-361.5817"
       x="1305.7712"
       id="tspan4155" /></text>
  <text
     id="text4163"
     y="-178.5817"
     x="1335.7712"
     style="font-style:normal;font-weight:normal;font-size:40px;line-height:125%;font-family:sans-serif;letter-spacing:0px;word-spacing:0px;fill:#000000;fill-opacity:1;stroke:none;stroke-width:1.99999976;stroke-linecap:butt;stroke-linejoin:miter;stroke-miterlimit:4;stroke-dasharray:none;stroke-opacity:1"
     xml:space="preserve"
     sodipodi:linespacing="125%"><tspan
       y="-178.5817"
       x="1335.7712"
       id="tspan4165" /><tspan
       id="tspan4167"
       y="-128.5817"
       x="1335.7712" /></text>
  <text
     id="text4268"
     y="160.88896"
     x="1110.3281"
     style="font-style:normal;font-weight:normal;font-size:40px;line-height:125%;font-family:sans-serif;letter-spacing:0px;word-spacing:0px;fill:#000000;fill-opacity:1;stroke:none;stroke-width:1px;stroke-linecap:butt;stroke-linejoin:miter;stroke-opacity:1"
     xml:space="preserve"
     sodipodi:linespacing="125%"><tspan
       y="160.88896"
       x="1110.3281"
       id="tspan4270" /><tspan
       id="tspan4272"
       y="210.88896"
       x="1110.3281" /></text>
</svg>
