<?xml version="1.0" encoding="UTF-8" standalone="no"?>
<svg
   xmlns="http://www.w3.org/2000/svg"
   viewBox="0 0 196 196"
   version="1.0"
   width="100%"
   height="100%">
  <g
     id="g2538"
     transform="translate(-1.2155218e-5,0)">
    <path
       style="fill:#303944;fill-opacity:1"
       d="M 98 0 C 43.876095 -9.4739031e-15 1.5222578e-16 43.876095 0 98 C -9.4739031e-15 152.12391 43.876095 196 98 196 C 152.12391 196 196 152.12391 196 98 C 196 43.876095 152.12391 -2.8269484e-14 98 0 z M 98 20 C 141.07821 20 176 54.92179 176 98 C 176 141.07821 141.07821 176 98 176 C 54.92179 176 20 141.07821 20 98 C 20 54.92179 54.92179 20 98 20 z "
       transform="translate(1.2155218e-5,0)" />
    <path
       style="fill:#303944;fill-opacity:1"
       d="M 98 43 C 67.624339 43 43 67.624339 43 98 C 43 107.92431 45.619887 117.243 50.21875 125.28125 L 69.1875 106.3125 C 68.425094 103.66844 68 100.88949 68 98 C 68 81.431458 81.431458 68 98 68 C 100.88711 68 103.6713 68.425749 106.3125 69.1875 L 125.25 50.25 C 117.21491 45.651058 107.9241 43 98 43 z M 145.75 70.75 L 131.5 85 L 151.4375 85 C 150.2109 79.939155 148.26715 75.155627 145.75 70.75 z M 125.5 110 C 120.8707 120.59553 110.30199 128 98 128 C 95.110511 128 92.331564 127.57491 89.6875 126.8125 L 70.71875 145.78125 C 78.756997 150.38011 88.075686 153 98 153 C 124.25599 153 146.21414 134.60747 151.6875 110 L 125.5 110 z "
       id="circle2520" />
    <rect
       transform="matrix(0.70710678,0.70710678,-0.70710678,0.70710678,0,0)"
       height="169.70563"
       width="24.748737"
       y="-84.852806"
       x="126.21857"
       style="fill:#303944;fill-opacity:1" />
  </g>
</svg>
