<?xml version="1.0" encoding="UTF-8"?>
<svg version="1.0" viewBox="0 0 196 196" xmlns="http://www.w3.org/2000/svg">
	<path d="m98 0c-54.124 0-98 43.876-98 98 0 54.124 43.876 98 98 98 54.124 0 98-43.876 98-98 0-54.124-43.876-98-98-98zm0 20c43.078 0 78 34.922 78 78s-34.922 78-78 78-78-34.922-78-78 34.922-78 78-78z" fill="#303944"/>
	<path d="m98 43c-30.376 0-55 24.624-55 55 0 9.9243 2.6199 19.243 7.2188 27.281l18.969-18.969c-0.76241-2.6441-1.1875-5.423-1.1875-8.3125 0-16.569 13.431-30 30-30 2.8871 0 5.6713 0.42575 8.3125 1.1875l18.938-18.938c-8.0351-4.5989-17.326-7.25-27.25-7.25zm47.75 27.75-14.25 14.25h19.938c-1.2266-5.0608-3.1704-9.8444-5.6875-14.25zm-20.25 39.25c-4.6293 10.596-15.198 18-27.5 18-2.8895 0-5.6684-0.42509-8.3125-1.1875l-18.969 18.969c8.0382 4.5989 17.357 7.2188 27.281 7.2188 26.256 0 48.214-18.393 53.688-43z" fill="#303944"/>
	<path transform="rotate(45)" d="m126.22-84.853h24.749v169.71h-24.749z" fill="#303944"/>
</svg>
