<?xml version="1.0" encoding="UTF-8" standalone="no"?>
<svg xmlns="http://www.w3.org/2000/svg" fill="#303944" width="150" height="137">
  <path d="M63.63 10.26c-.02-.68 4.27-6.72 6.5-9.17 1-1.1 1-1.11 2.33-1.08 2.36.05 4.24 1.51 5.2 4.05l.47 1.25-.82 1.6c-1.4 2.74-4.7 7.43-5.19 7.4-2.7-1.48-5.97-2.26-8.5-4.05"/>
  <path d="M79.44 23.56c-.02-1.6-.1-2.83-.32-5.48l-2.64-1.57c-1.61-.95-2.62-1.69-2.58-1.87.04-.17 1.34-2.11 5.75-8.33h1.37c2.4 0 3.88 1.08 5.43 3.98.81 1.53.81 2.67 0 4.36-.7 1.4-3.69 5.34-5.7 7.5Z"/>
  <path d="M42.85 29c.85-2.58 1.86-4.23 2.07-4.23s1.57 1.63 1.57 1.86c0 .12-3.46 2.37-3.64 2.37"/>
  <path d="M71.18 30.25c-3.48-1-6.2-1.91-6.34-2.14-.17-.3.9-.4 5.12-.54 2.08-.08 4.56-.26 5.51-.42s1.8-.21 1.86-.11c.36.6-2.29 3.98-3.1 3.96-.26-.01-.58-.1-3.05-.75"/>
  <path d="M36.93 31.9c.13 0 2.67-4.35 2.67-4.56 0-.16-1.97-.19-4.16.16.48 1.47.87 2.98 1.5 4.4"/>
  <path d="M113.08 31.12c-1.1 1.67-1.18 1.73-1.18 1.06 0-.83.45-5.26.55-5.36.03-.04.63.25 2.58 1.34z"/>
  <path d="M105.05 32a9 9 0 0 1-1.17-1.6c0-.22 2-1.24 2.16-1.1.15.15.44 4.15.3 4.14q-.7-.67-1.29-1.43"/>
  <path d="m88.65 14.08 1.27.11c1.9.17 2.74.6 3.5 1.82.8 1.25 1.6 3.28 1.65 4.14.02.5-1.01 1.84-5.53 7.17-3.06 3.6-5.72 6.55-5.9 6.55-.93 0-7.33-2.49-7.09-3.62.05-.2 2.79-3.9 6.09-8.26z"/>
  <path d="M42.48 35.79q1.18-1.45 2.47-2.77c.13-.01.88 2.44.88 2.87 0 .25-1.12.26-2.51.03Z"/>
  <path d="M91 28.23c6.26-6.85 5.86-6.53 7.38-5.76s3.33 3.47 3.65 5.46c.12.72 0 .85-2.07 2.86a77 77 0 0 1-10.1 8.07c-.56.36-.57.35-2.06-1.3-.7-.76-1.39-1.54-2.61-2.96Z"/>
  <path d="M102.12 37.45c2.06 1.4 2.66 1.84 2.66 1.9 0 .1-2.91 1-3.22 1-.1 0-.1-.28-.02-.62Z"/>
  <path d="M32.47 42.44c0-.63 3.6-5.87 4.05-5.87.23 0 .43.24.51.65.12.52.29.67.8.72l.66.07c-3.59 5.29-3.99 5.57-4.58 5.63-1.09.11-1.4-.82-1.44-1.2"/>
  <path d="M117.24 42.74c-1.49-2.14-1.88-2.53-2.65-2.7q-.66-.11-1.34-1.12a5 5 0 0 1-.69-1.22c0-.14.43-.25.97-.25.96 0 .96 0 1.17-.98l.2-.98 2.17 3.23c1.47 2.2 2.16 3.44 2.16 3.87 0 .7-.42 1.76-.68 1.76-.11 0-.7-.73-1.3-1.6z"/>
  <path d="M111.7 47.63c-.44-.21-3.82-4.93-4.16-5.8-.08-.2.15-.25.79-.19.88.08.9.08.92-.66.01-.4.09-.98.17-1.28.13-.48.24-.38 1.2 1.06a9 9 0 0 1 1.05 1.9c0 .46 1.78 2.82 2.67 4.56 0 .26-1.04.7-1.62.68q-.53-.04-1.02-.27"/>
  <path d="M29.44 44.63a27 27 0 0 0 2.02-2.9q.38-.81.91-1.52c.71-1 .74-1.11.4-1.36-.53-.39-1.87-.35-2.48.07-.78.55-6.93 8.94-6.93 9.46 0 .26.15.22 4.2-1.26Z"/>
  <path d="M119.05 51.99c-.44-.18-6.27-9.15-6.27-9.65 0-.55.77-1.33 1.3-1.33.22 0 .56.13.75.29.62.47 6.19 9.06 6.19 9.52 0 .88-1.07 1.52-1.97 1.17"/>
  <path d="M130.96 52.24c-1.3-.78-2.71-1.02-3.18-.54-.16.15-1-.1-2.63-.78q-1.35-.61-2.79-1c-.23 0-.8-.61-1.42-1.56-.97-1.45-1-1.56-.6-1.78.75-.4 1.29-.26 5.74 1.57 5.77 2.38 5.8 2.4 6.18 3.12.34.66.44 1.76.15 1.75-.08 0-.74-.36-1.45-.78"/>
  <path d="m37.12 41.88.33.51c.58.89.63 1.58.2 2.43-.23.44-1.71 2.56-3.3 4.72-3.27 4.46-3.9 4.97-5.38 4.37-.46-.22-.89-.49-2.07-1.39 1.8-.7 2.29-.97 2.71-1.32.2-.34.67-1.01 2.87-4.06 1.01-1.4 1.91-2.42 2.3-2.58a5 5 0 0 0 1.47-1.47Z"/>
  <path d="M17.52 52.1c-.84.72-.22 2.23.77 2.26.73 0 10.28-3.57 10.57-3.95.64-.83.1-2.11-.9-2.11-.72 0-9.9 3.34-10.44 3.8"/>
  <path d="M8.17 54.4c-1.18 1.4.69 4.26.95 4.15q.7-.7 1.25-1.5c.86-1.14 1.55-1.73 3.3-2.82 1.5-.95 2.27-1.58 2.46-2.01.36-.87.73-1.14 2.6-1.86a6 6 0 0 0 1.68-.85c.15-.42-1.1-1.15-1.94-1.15-.66 0-1.7.54-5.36 2.8-2.5 1.53-4.72 3-4.94 3.24"/>
  <path d="M124.91 58.24c-7.38-3.1-7.24-3.02-7.57-3.67-.37-.72-.42-1.93-.1-2.43.17-.28.26-.26.55.15.4.59 1.71 1.05 2.35.85.28-.1.61-.02.84.19.47.43 5.74 2.6 6.3 2.6.5 0 3.3 1.55 3.3 1.83 0 .76-1.37 1.74-2.38 1.7-.23 0-3.29-1.22-3.29-1.22"/>
  <path d="M127.94 54.7c-.55-.53-.4-2.17.91-2.17.3 0 2.6 1.19 5.13 2.64 4.27 2.46 5.05 3.06 5.05 3.87 0 .4-.88 1.1-1.38 1.1-.48 0-9.22-4.95-9.7-5.44"/>
  <path d="M12.4 62.37h.6c.66 0 9.06-5.04 9.87-5.93.5-.56.71-2.14.3-2.4-.3-.19-3.38 1.06-4.7 1.91q-1.05.69-2.15 1.33c-.52.29-.99.74-1.06.99q-.32.78-.85 1.45z"/>
  <path d="M144.08 65.93a3.4 3.4 0 0 0-.94-1.47c-.3-.2-.55-.47-.55-.61s-.53-1.22-1.2-2.43q-.8-1.36-1.35-2.83c-.23-1-.87-1.67-2.45-2.55q-.76-.38-1.45-.9c0-.06.5-.35 1.11-.66 1.28-.65 2.58-.72 3.26-.17.27.22 1.65 2.52 3.1 5.13 2.43 4.42 2.6 4.8 2.47 5.66-.1.85-.92 1.95-1.44 1.95-.09 0-.34-.5-.56-1.12"/>
  <path d="M5.56 65.77c0-.4 5.02-7.48 6.3-8.9.83-.92 2.37-.41 2.37.77 0 .4-4.96 7.42-6.3 8.9-.9 1.02-2.35.3-2.37-.77"/>
  <path d="M138.08 69.04c-.6-.47-5.72-9.49-5.72-10.09 0-.24.54-.03 1.95.78 1.07.62 2.07 1.22 2.21 1.35.48.4 2.74 4.7 2.74 5.23 0 .28.2 1.04.44 1.68s.44 1.24.44 1.33c0 .36-1.53.15-2.07-.28z"/>
  <path d="M6.21 60.72c-.8-.38-2.22-.3-2.97.8C2.77 62.26 0 71.44 0 72.31c0 .9.9 2 1.85 2.27.4.12.8.22.9.23.11 0 .15-.52.08-1.18q-.12-1.2.2-1.8c.16-.34.3-.77.3-.98q.22-1.1.59-2.14c.32-.98.56-2.19.56-2.7-.03-.94.1-1.17 2.14-3.96l.73-1Z"/>
  <path d="M7.78 75.05c0-.5-.1-1.6-.23-2.44a5.3 5.3 0 0 1 .25-3.12c.39-1.29.86-2.08 2.32-4.03 1.86-2.44 2.12-2.57 2.12-1.15 0 .73-2.83 10.02-3.25 10.67-.17.28-.52.6-.76.74-.4.22-.45.17-.45-.67"/>
  <path d="M145.87 76.73c-.75.65-1.07.68-1.67.16-.44-.39-3.83-9.88-3.83-10.74 0-.5.8-1.1 1.46-1.1.26 0 .62.17.82.38.18.22 1.12 2.72 2.08 5.58l1.76 5.18Z"/>
  <path d="m7.21 83.33-.51.42c-.71.57-1.24.52-1.78-.17-.3-.37-.47-.92-.47-1.5-.01-.51-.15-2.87-.33-5.26-.27-3.79-.27-4.4.01-4.84.39-.6 1.66-.69 2.1-.15.2.24.4 2.13.64 5.92Z"/>
  <path d="m142.8 81.13-1.36 1.63q-.68.85-1.43 1.63c-.19-2.39.02-4.82.15-7.22.17-3.01.3-4.12.58-4.53.35-.55.37-.54 1.34 2.1.95 2.57.97 2.7.84 4.52z"/>
  <path d="M145.3 86.21c-.2-.14-.04-.48.65-1.34l.92-1.16c.06-2.41 0-5.23.37-7.22.22-.57.16-.95-.42-2.65q-.38-1-.58-2.06a6 6 0 0 1 2.34.34c.57.27.98.75 1.42 1.18l-.16 4.94c-.2 6.02-.3 6.73-1.23 7.54-.56.5-.9.62-1.85.62-.64 0-1.3-.09-1.45-.19"/>
  <path d="M12.67 87.87c-.9-.61-1.99-1.64-2.9-2.8l-1.47-1.8-.16-2.36c-.07-1.3-.1-2.39-.07-2.43.06-.05 3.66 4.37 5.66 6.97.93 1.2 1.18 2.11.82 3.05-.2.5-.25.48-1.88-.62"/>
  <path d="M137.3 91.47c-.72-.71-.32-1.47 2.88-5.45 3.67-4.58 3.83-4.74 4.42-4.74.6 0 1.33.77 1.33 1.4 0 .32-1.26 2.06-3.46 4.78-3.2 3.97-3.5 4.28-4.18 4.28-.4 0-.84-.13-1-.27z"/>
  <path d="M6.54 91.93q.5.56 1.14.92c1.07.51 1.79-.02 2.57-.6a7 7 0 0 0-1.44-1.15c-1.46-.99-1.91-1.62-1.91-2.65 0-.42-.49-1.22-1.58-2.57-1.77-2.19-1.98-2.73-1.98-4.87 0-.83-.07-1.5-.15-1.5q-.72.4-1.35.92c-1.7 1.31-2.2 2.43-1.59 3.59.29.55 5.22 6.75 6.29 7.91"/>
  <path d="M124.52 79.09c.22.27-.15.76-2.17 2.9a31 31 0 0 1-3.64 3.38c-3.03 2-7.76 3.3-16.82 4.6-8.75 1.25-14.75 4-20.32 9.3-1.32 1.27-2.02 1.83-1.71 1.37 3.36-4.9 8.2-8.6 13.8-10.58 3.07-1.03 9.39-1.88 15.07-4.1 4.93-1.62 8.73-5.5 10.87-11.39z"/>
  <path d="M32.78 74.57c2.46 7.16 6.99 9.9 10.93 11.45 7.47 2.91 12.1 2.36 18.47 5.54a26 26 0 0 1 8.12 6.3c1.12 1.26 2.8 3.44 2.63 3.42-.04 0-1.06-.95-2.26-2.11-5.44-5.22-11.44-7.97-20.17-9.21-9.07-1.3-13.8-2.59-16.82-4.59-1.3-1.03-2.52-2.16-6.1-5.95z"/>
  <path d="M77.1 101.95q.6-.86 1.17-1.73c2.85-4.33 6.95-8.14 11-10.18l1.1-.56-.2-9.28c-.1-5.1-.19-12.01-.19-15.38V58.7c4.47-7.1 7.68-14.17 7.86-23.39-.06-.4-.58-.12-4.38 2.3l-4.31 2.75c-2.35-2.3-4.68-4.7-7.74-6.05a25 25 0 0 0-10.8-2.64c2.16 2.21 4.4 4.37 6.16 6.93 4.14 5.9 6.2 13.87 6.2 14.1q0 1.32-1.76-2.4c-2.84-5.99-4.7-9.56-5.81-11.17-2.79-4.04-7.19-7.87-13.02-11.36-.33-.2-.17-.32 1.03-.76.8-.29 1.5-.58 1.58-.65 0-1.43-.37-2.86-.63-4.27l1.23 1.27a8.3 8.3 0 0 0 6.21 2.71c1.92.09 6.34.25 6.68-5.3.07-1.25.03-1.74-.2-1.93-.46-.37-14.61-6.66-16.47-7.31l-.84-.3-12.09 17a126 126 0 0 0 6.7 11.72c2.6 4.1 4 6.24 9.33 13.41L56.96 87.5c0 .09.72.4 1.6.67A29 29 0 0 1 68.6 93.8a37 37 0 0 1 5.24 6.01c.29.46.57.8.62.75.24-.24 4.82-34.91 5.4-40.97.37-3.73.41-3.9.92-3.9.39 0 .43.1.33.72-.25 1.43-2.56 23.56-4 38.21-.31 3.12-.6 6-.67 6.39-.07.52 0 .72.28.8z"/>
  <path d="M130.84 86c-2.42 2.34-5.8 5.4-13.27 7.1-1.73.39-3.17.48-10.56.63-8.88.18-10.44.33-14.24 1.37-3.28.88-6 2.37-9.24 5.06-2.62 2.18-2.89 2.3-.9.38a33 33 0 0 1 14.56-7.9c3.5-.92 11.28-1.5 17.33-3.48 3.84-1.26 4.68-1.8 8.25-5.37 3.08-3.1 3.21-3.2 3.6-2.8z"/>
  <path d="M21.56 86.07c4.32 3.95 8.28 5.93 13.25 7.04 1.72.39 3.23.47 10.57.62 6.39.13 9.07.27 10.56.55 5.92 1.08 8.76 2.45 13.69 6.56a28 28 0 0 0 1.99 1.57c.21 0-1.53-1.67-3.1-2.98a30 30 0 0 0-6.35-4.19c-3.88-1.95-6.82-2.78-12.72-3.63-7.02-1.01-11.41-2.12-14.75-3.7-1.72-.81-2.19-1.2-8.34-7.35Z"/>
  <path d="M130.65 88.43c-3.47 3.25-7.58 5.3-12.86 6.47-5.28 1.19-16.93-.21-24.36 1.87-2.65.7-5.63 1.66-11.57 6.98-.98.91-.48.59 1.16-.72 3.88-3.12 9.59-5.27 15.8-5.94q5.82-.48 11.63.1c4.65.43 11.35.43 14.23-.01 4-.47 7.83-1.77 10.69-4.52l-.81-1.46.57-.42c.32-.24.74-.74.94-1.12s.81-1.24 1.34-1.9c1.03-1.27 1-1.57-.11-1.59-.66 0-1.17.28-2.93 1.61l-1.44 1.1-1.19-1.47z"/>
  <path d="M68.4 104.94c-3.32-1.9-7.23-3.28-9.1-3.44a67 67 0 0 0-4.8-.07c-12.28.05-16.1 2.1-26.25 2.3-5.04.05-10.57-.42-15.04-2.53-.42-.2-.38-.33.01-1.37.73-1.79 1.64-3.5 2.5-5.2l-1.02-.75c-2-1.45-5.57-3.77-6.28-4.45a1.3 1.3 0 0 1 .15-2.06c.74-.49.96-.38 4.95 2.4a61 61 0 0 0 3.46 2.31c.14.06.73-.63 1.3-1.51q.8-1.23 1.7-2.38l.64-.77a27.4 27.4 0 0 0 15.7 7.75c5.39.81 13.48-.3 20.73 1.16 4.14.83 7 2.14 10.07 4.6 3.63 2.9 4.95 4.2 1.82 1.78-3.79-2.93-9.37-4.97-15.38-5.62a63 63 0 0 0-11.78.13c-5.3.49-12.94.32-16.04-.35-3.63-.79-6.25-1.98-8.2-3.73-.71-.65-.97-.77-1.26-.58-1.05.65-.3 1.76 2.26 3.44 4.88 3.17 12.35 4.01 25.28 2.85 7.42-.68 14.66.34 19.98 2.8 1.8.83 5.02 2.88 5.7 3.64.56.61.47.59-1.1-.35"/>
  <path d="M82.74 105.46c.87-.97 3.66-2.79 5.86-3.83 5.5-2.6 12.51-3.48 21.36-2.68 5.07.46 12 .46 14.95.01 4.37-.66 7.53-1.83 10.01-3.73.78-.6 1.42-.94 1.53-.81.2.17 1.92-.98 2.1-1.4.05-.1.24-.17.44-.17.19 0 .87-.56 2.65-2.49 1.28 1.68 1.08 2.57.67 3.31-1.27 1.35-2.83 2.4-4.3 3.52.52 1.2 1.07 2.38 1.47 3.62 0 .46-4.5 2.56-11.95 2.97-7.82.43-16.2-1.73-26.44-2.36-5.19-.33-8.47-.03-11.66 1.02a42 42 0 0 0-6.56 3.14l-.68.48z"/>
  <path d="m140.93 107.2-28.93.06c-19.38.04-28.34-.02-28.24-.18a24 24 0 0 1 13.41-4c3.77 0 8.9.47 16.29 1.48 3.11.42 7.01.87 8.67 1 5.2.39 11.11-.32 15.33-1.83 2.7-.97 2.7-.96 3.05.35.28 1.02.35 2.07.42 3.12"/>
  <path d="M11.36 106.7c.01-.34.19-1.32.4-2.17.44-1.83.35-1.81 3.17-.8 5.97 2.14 12.61 2.45 22.36 1.03 7.94-1.15 12.23-1.53 17.32-1.55 4.76-.02 4.95 0 6.9.61 1.1.34 3 1.1 4.23 1.7 4.07 1.96 6.77 1.78-25.64 1.78H11.34Z"/>
  <path d="M71.63 107.24c0-.41 1.53-3.48 4.26-3.65 1.84-.12 3.96 1.46 4.83 3.94 0 0-9.06.16-9.09-.29"/>
  <path d="M17 121.12h.07l9.88 15.42h5.66v-24.85h-5.66v15.42h-.06L17 111.68h-5.66v24.86H17V121.1zm18.12 2.98c0 7.26 5.18 12.89 12.53 12.89 7.14 0 12.5-5.63 12.5-12.9 0-7.25-5.6-12.85-12.5-12.85-6.84 0-12.53 5.6-12.53 12.85zm6.11 0c0-3.71 2.05-7.41 6.42-7.41 4.4 0 6.39 3.7 6.39 7.4s-1.87 7.42-6.4 7.42c-4.63 0-6.4-3.7-6.4-7.42zm29.65-12.41v24.85h7.2c6.85 0 12.54-5.18 12.54-12.45 0-7.22-5.72-12.4-12.54-12.4H70.9zm5.67 19.79v-14.73h.88c4.2 0 7.08 3.22 7.08 7.38-.04 4.15-2.9 7.34-7.08 7.34zm16.58-19.8v24.86h5.66v-9.82l7.59 9.81h7.2l-8.56-10.27c3.04-.96 5.1-3.47 5.1-7.2 0-4.88-3.5-7.39-8.12-7.39zm5.66 11.03v-6.5h.66c2.14 0 4.7.15 4.7 3.25s-2.56 3.25-4.7 3.25z"/>
  <path d="M135.27 136.54h5.66l-2.23-24.85h-6.03l-5.5 14.33-5.52-14.33h-6.03l-2.22 24.85h5.66l1.17-14.73h.15l5.1 14.58h3.37l5.09-14.58h.15z"/>
</svg>
