<?xml version="1.0" encoding="UTF-8" standalone="no"?>
<svg xmlns="http://www.w3.org/2000/svg" width="196" height="179">
  <path fill="#303944" d="M93.598 140.128c0-.753 1.737-3.096 2.82-3.802 2.427-1.585 4.954-1.242 7.09.963.735.757 1.48 1.79 1.657 2.297l.32.92h-5.943c-4.693 0-5.944-.08-5.944-.38zm-78.75-.71c.012-.44.245-1.716.517-2.835.58-2.39.465-2.362 4.148-1.04 7.797 2.796 16.477 3.197 29.21 1.348 10.372-1.505 15.986-2.01 22.638-2.03 6.218-.02 6.47.004 9.012.795 1.44.448 3.924 1.446 5.523 2.217 5.327 2.57 8.856 2.325-33.5 2.335l-37.572.01zm94.596.5c.28-.452 4.935-2.72 7.404-3.607 3.462-1.243 5.797-1.617 10.12-1.617 4.917 0 11.62.606 21.278 1.923 4.077.556 9.178 1.144 11.336 1.307 6.798.513 14.52-.407 20.04-2.388 3.517-1.262 3.532-1.26 3.98.466.21.8.416 2.043.46 2.763l.083 1.308-37.443.075c-25.685.05-37.385-.02-37.258-.226zm-1.337-2.117c1.143-1.262 4.784-3.64 7.66-5 7.185-3.397 16.357-4.55 27.915-3.513 6.615.594 15.67.605 19.534.024 5.716-.86 9.842-2.396 13.08-4.87 1.027-.785 1.853-1.227 2.01-1.075.24.235 2.493-1.266 2.738-1.823.054-.12.307-.22.564-.22.257 0 1.143-.732 1.97-1.627l1.502-1.627.623 1.007c.692 1.12.784 2.355.246 3.322-.196.35-1.54 1.53-2.99 2.616l-2.632 1.977.955 2.18c.526 1.2.96 2.35.964 2.554.016.676-4.22 2.174-8.738 3.09-3.644.738-9.582 1.066-13.782.76-2.08-.15-7.18-.73-11.337-1.29-18.253-2.45-25.08-2.543-31.534-.424-2.028.666-7.108 3.1-8.565 4.105l-.885.61.702-.774zm-18.724-.683c-2.333-1.396-5.55-2.792-8.727-3.786-2.562-.802-2.733-.816-9.44-.793-7.15.025-11.71.44-22.674 2.06-7.394 1.093-16.446 1.27-21.51.417-3.66-.615-8.815-2.08-9.767-2.777-.49-.36-.49-.44.013-1.794.29-.78 1.147-2.63 1.902-4.112l1.374-2.694-1.34-.965c-.736-.53-3.006-2.106-5.045-3.5-3.528-2.415-3.707-2.586-3.707-3.53 0-.74.187-1.112.74-1.474.97-.636 1.247-.502 6.47 3.127 2.296 1.597 4.328 2.96 4.515 3.028.186.07.955-.82 1.708-1.98.754-1.157 1.75-2.558 2.212-3.11l.842-1.007 1.858 1.684c5.018 4.548 11.187 7.342 18.664 8.453 2.185.324 5.342.45 11.282.453 8.383.002 11.65.22 15.793 1.05 5.398 1.082 9.143 2.794 13.155 6.014 4.746 3.807 6.465 5.495 2.376 2.33-4.95-3.83-12.24-6.495-20.086-7.346-4.022-.436-9.588-.38-15.404.16-6.928.64-16.903.426-20.958-.45-4.742-1.024-8.162-2.583-10.703-4.878-.935-.846-1.275-1-1.66-.76-1.362.854-.403 2.31 2.962 4.498 6.376 4.144 16.128 5.243 33.033 3.723 9.707-.874 19.15.45 26.098 3.66 2.355 1.09 6.56 3.773 7.45 4.758.73.807.624.773-1.427-.453zm17.586-1.55c2.12-1.945 6.355-5.253 7.977-6.23 1.773-1.067 4.452-2.157 7.138-2.904 4.225-1.176 6.705-1.4 18.022-1.63 9.5-.192 11.587-.313 13.807-.802 6.905-1.517 12.27-4.216 16.797-8.452l1.426-1.332.78.954.778.954 1.883-1.423c2.304-1.74 2.96-2.1 3.825-2.094 1.46.01 1.49.412.152 2.057-.704.865-1.492 1.984-1.752 2.487-.26.503-.812 1.162-1.228 1.465l-.756.55.53.955.53.953-1.265 1.103c-2.628 2.29-7.028 3.958-12.688 4.81-3.772.567-12.524.57-18.603.007-5.482-.51-11.267-.56-15.2-.132-8.115.88-15.573 3.682-20.642 7.754-2.144 1.72-2.795 2.133-1.51.954zM90.98 131.76c-6.44-5.373-10.15-7.154-17.877-8.574-1.95-.358-5.463-.54-13.807-.71-9.594-.194-11.565-.31-13.81-.81-6.49-1.452-11.665-4.032-15.94-7.95l-1.378-1.26 2.004-2.325c1.102-1.278 2.516-2.896 3.142-3.593l1.138-1.27 4.21 4.217c3.815 3.82 4.442 4.326 6.68 5.39 4.356 2.068 10.098 3.506 19.272 4.826 7.714 1.11 11.546 2.205 16.628 4.75 3.144 1.575 5.37 3.044 8.284 5.47 2.067 1.718 4.335 3.902 4.054 3.9-.07 0-1.24-.927-2.6-2.06zm17.005-.39c5.108-4.884 11.698-8.464 19.02-10.334 1.267-.323 4.567-.917 7.335-1.32 6.677-.97 11.64-2.013 15.304-3.214 5.016-1.643 6.106-2.354 10.778-7.027 4.032-4.034 4.202-4.167 4.698-3.655.284.293 1.712 1.905 3.175 3.584l2.66 3.052-1.383 1.26c-4.32 3.94-9.357 6.446-15.95 7.94-2.26.513-4.14.625-13.808.82-11.6.238-13.63.432-18.603 1.78-4.267 1.155-7.82 3.106-12.064 6.623-3.43 2.84-3.776 2.987-1.163.49zm-7.755 1.674c-.365-.097-.455-.362-.357-1.057.072-.51.46-4.263.86-8.34 1.887-19.144 4.916-48.07 5.23-49.924.135-.804.072-.945-.423-.945-.667 0-.72.225-1.196 5.087-.777 7.927-6.757 53.225-7.068 53.536-.07.07-.432-.37-.806-.974-1.215-1.966-4.827-6.1-6.854-7.843-3.896-3.352-8.427-5.91-13.098-7.392-1.16-.367-2.107-.76-2.107-.875l10.413-44.583-3.134-4.218C75.967 57.808 68.74 46.4 65.207 39.494l-1.34-2.617 15.8-22.2 1.093.384c2.435.86 20.92 9.07 21.52 9.56.294.24.363.887.266 2.512-.154 2.576-.87 4.19-2.43 5.475-1.485 1.224-3.11 1.602-6.29 1.462-3.49-.154-5.79-1.16-8.128-3.554l-1.605-1.644.512 2.696c.282 1.482.425 2.773.32 2.868-.106.095-1.033.48-2.06.854-1.578.575-1.788.73-1.353.99 7.62 4.56 13.366 9.574 17.01 14.846 1.46 2.11 3.886 6.776 7.594 14.603 1.535 3.24 2.307 4.285 2.307 3.126 0-1.086-2.778-8.71-4.33-11.888-2.47-5.05-4.91-8.535-8.618-12.313l-3.21-3.27H93.5c1.647 0 6.463.95 8.816 1.738 2.315.776 5.887 2.535 7.76 3.823.77.527 2.526 2.046 3.906 3.375l2.508 2.417 5.63-3.596c4.955-3.163 5.643-3.523 5.732-2.996.056.328-.05 2.04-.232 3.806-.897 8.654-3.644 16.638-8.204 23.846l-1.84 2.907v7.993c0 4.397.115 13.445.255 20.107l.253 12.113-1.446.733c-5.275 2.672-10.637 7.64-14.367 13.307-.827 1.256-1.514 2.268-1.528 2.25-.014-.02-.245-.092-.513-.163zm-7.894-3.448c-7.105-6.827-14.95-10.412-26.355-12.043-11.847-1.695-18.034-3.385-21.976-6-.868-.577-3.015-2.562-4.772-4.413l-3.194-3.364.656-.713c.36-.392 1.888-1.817 3.395-3.166l2.74-2.452.632 1.743c.834 2.303 4.143 7.237 5.878 8.765 3.843 3.384 10.06 5.814 20.46 8 5.47 1.15 7.955 1.953 11.444 3.7 4.18 2.096 7.346 4.55 10.61 8.226 1.454 1.636 3.655 4.506 3.433 4.475-.05-.007-1.377-1.248-2.95-2.76zm12.01 1.9c4.32-6.343 10.91-11.386 18.043-13.813 1.11-.377 4.53-1.227 7.605-1.89 9.515-2.05 16.148-4.656 19.63-7.71 1.854-1.626 5.04-6.327 5.976-8.82l.688-1.825 3.028 2.737c1.665 1.505 3.187 2.93 3.38 3.167.295.357-.183.997-2.825 3.794-1.748 1.85-3.89 3.836-4.76 4.414-3.946 2.618-10.13 4.307-21.98 6.003-11.43 1.635-19.267 5.228-26.55 12.17-1.723 1.645-2.64 2.373-2.23 1.773zm-94.32-10.163c-.32-.134-.987-.682-1.48-1.217C7.154 118.608.705 110.5.33 109.786c-.797-1.517-.152-2.975 2.074-4.693.864-.666 1.657-1.212 1.762-1.212.105 0 .19.885.19 1.965 0 2.808.283 3.502 2.59 6.37 1.42 1.762 2.062 2.806 2.062 3.35 0 1.358.592 2.18 2.506 3.478 1.02.69 1.854 1.353 1.854 1.47 0 .314-1.632 1.103-2.238 1.08-.288-.01-.785-.127-1.105-.26zm169.38-1.813c-.935-.934-.414-1.918 3.762-7.117 4.803-5.98 5.006-6.196 5.77-6.196.782 0 1.745 1.007 1.745 1.822 0 .418-1.655 2.707-4.52 6.25-4.193 5.186-4.586 5.59-5.464 5.59-.52 0-1.1-.158-1.293-.35zm-162.844-4.7c-1.187-.8-2.597-2.152-3.805-3.65l-1.92-2.38-.19-3.085c-.102-1.695-.15-3.12-.107-3.163.076-.076 4.787 5.71 7.405 9.095 1.217 1.573 1.532 2.76 1.06 3.993-.247.642-.327.615-2.444-.81zm173.313-2.173c-.278-.176-.064-.624.833-1.75l1.205-1.515.076-4.277c.043-2.352.226-4.67.408-5.152.283-.75.205-1.252-.544-3.466-.48-1.424-.825-2.638-.765-2.7.06-.06.81-.016 1.665.098 1.162.154 1.77.42 2.4 1.05l.845.845-.21 6.45c-.256 7.873-.405 8.793-1.596 9.857-.744.665-1.167.805-2.423.8-.836 0-1.688-.11-1.893-.24zm-7.034-4.478c.003-1.16.135-4.456.294-7.326.22-3.943.404-5.392.76-5.935.467-.713.48-.69 1.752 2.746 1.244 3.362 1.276 3.536 1.105 5.91l-.177 2.445-1.764 2.133c-.97 1.173-1.812 2.133-1.87 2.133-.06 0-.105-.948-.1-2.107zM6.415 109.22c-.382-.485-.607-1.205-.613-1.963-.006-.657-.194-3.746-.418-6.864-.356-4.954-.354-5.75.017-6.322.51-.782 2.17-.903 2.753-.2.257.31.52 2.775.823 7.74l.446 7.283-.674.546c-.927.75-1.622.684-2.333-.22zm182.008-8.754c-.58-.507-5.005-12.91-5.005-14.03 0-.652 1.05-1.45 1.91-1.45.34 0 .815.23 1.057.51.243.28 1.473 3.557 2.734 7.283l2.292 6.774-.816.71c-.968.844-1.393.883-2.173.202zM10.173 98.06c0-.654-.14-2.083-.31-3.176-.272-1.76-.235-2.226.33-4.084.51-1.68 1.113-2.724 3.04-5.26 2.422-3.186 2.753-3.368 2.753-1.51 0 .947-3.69 13.103-4.238 13.955-.227.354-.674.783-.994.955-.538.287-.582.22-.582-.88zM2.42 97.46C1.18 97.098 0 95.648 0 94.484c.002-1.13 3.617-13.133 4.244-14.09.248-.378.886-.87 1.418-1.092.836-.35 1.17-.344 2.457.038l1.488.442-.953 1.296c-2.68 3.643-2.846 3.95-2.81 5.178.017.66-.308 2.248-.723 3.527-.416 1.28-.757 2.54-.76 2.8 0 .263-.188.834-.415 1.27-.28.538-.36 1.296-.25 2.36.09.86.045 1.552-.097 1.538-.142-.014-.673-.145-1.18-.292zm178-7.25c-.79-.62-7.466-12.406-7.466-13.178 0-.324.7-.043 2.543 1.02 1.4.808 2.7 1.596 2.89 1.753.632.52 3.578 6.144 3.578 6.83 0 .37.26 1.36.58 2.202.32.84.582 1.628.583 1.748 0 .464-1.993.19-2.708-.374zM7.747 87.072c-.265-.29-.48-.8-.48-1.133 0-.52 6.55-9.78 8.228-11.633 1.087-1.2 3.107-.54 3.107 1.016 0 .518-6.492 9.686-8.235 11.63-.71.792-1.96.85-2.62.12zm180.523-.922c-.293-.824-.826-1.657-1.23-1.923-.393-.257-.716-.616-.718-.798-.002-.18-.71-1.608-1.577-3.17-.866-1.564-1.658-3.225-1.76-3.693-.287-1.3-1.133-2.183-3.203-3.34-1.038-.58-1.887-1.112-1.887-1.182 0-.07.65-.455 1.444-.858 1.674-.848 3.374-.935 4.265-.216.342.276 2.157 3.29 4.033 6.697 3.18 5.78 3.4 6.277 3.246 7.412-.148 1.104-1.212 2.526-1.89 2.526-.114 0-.44-.655-.724-1.455zm-171.245-5.74l1.786-2.376c.534-.708 1.038-1.56 1.12-1.89.085-.333.703-.92 1.375-1.302.672-.383 1.94-1.164 2.82-1.735 1.722-1.118 5.73-2.738 6.143-2.483.53.328.264 2.402-.402 3.128-1.062 1.16-12.024 7.75-12.89 7.75h-.768zm156.365-5.185c-3.198-1.847-5.994-3.534-6.213-3.748-.534-.52-.508-1.838.046-2.392.246-.246.763-.447 1.15-.447.385 0 3.398 1.553 6.694 3.452 5.58 3.214 6.607 4.002 6.607 5.064 0 .522-1.162 1.44-1.817 1.435-.36-.003-3.27-1.517-6.467-3.364zm-10.174.876c-9.647-4.037-9.453-3.943-9.895-4.797-.48-.933-.55-2.527-.136-3.176.237-.37.344-.342.723.196.536.762 2.237 1.374 3.076 1.107.37-.117.796-.022 1.094.246.624.56 7.505 3.393 8.242 3.393.65 0 4.308 2.042 4.308 2.405 0 .996-1.793 2.276-3.115 2.225-.285-.012-2.22-.732-4.297-1.6zm-152.282-.817c-.9-1.537-1.007-3.315-.253-4.2.28-.326 3.18-2.238 6.446-4.246 4.787-2.944 6.144-3.65 7.01-3.65 1.096 0 2.72.964 2.538 1.51-.052.155-1.044.652-2.205 1.104-2.44.95-2.92 1.293-3.397 2.427-.24.566-1.252 1.39-3.226 2.627-2.28 1.426-3.173 2.192-4.296 3.68-.778 1.033-1.514 1.916-1.635 1.963-.12.047-.562-.5-.98-1.214zm11.928-4.78c-.627-.694-.614-1.88.028-2.43.7-.6 12.697-4.96 13.648-4.96 1.304 0 2.015 1.668 1.176 2.76-.383.5-12.86 5.16-13.814 5.16-.306 0-.773-.238-1.038-.53zm14.984-.064c-.367-.15-1.123-.617-1.68-1.04l-1.012-.773 1.663-.676c.914-.37 1.758-.843 1.875-1.048.253-.447.872-1.324 3.746-5.31 1.32-1.83 2.5-3.16 2.993-3.37.448-.193 1.322-1.06 1.943-1.928l1.13-1.577.436.673c.748 1.16.82 2.06.248 3.172-.295.574-2.23 3.35-4.297 6.167-4.28 5.828-5.096 6.49-7.044 5.71zm133.278-2.178c-1.708-1.02-3.54-1.334-4.163-.71-.198.198-1.306-.13-3.427-1.02-1.723-.72-3.363-1.31-3.644-1.31-.312 0-1.042-.797-1.86-2.028-1.267-1.905-1.314-2.044-.79-2.325.99-.53 1.687-.34 7.514 2.053 7.534 3.095 7.576 3.116 8.067 4.067.447.862.577 2.308.206 2.29-.12-.007-.976-.465-1.902-1.018zm-15.567-.336c-.58-.23-8.183-11.942-8.183-12.603 0-.712.993-1.73 1.688-1.73.29 0 .735.164.99.364.79.62 8.077 11.844 8.077 12.442 0 1.155-1.407 1.99-2.573 1.526zM30.52 63.224c0-.68 8.04-11.65 9.065-12.368.786-.55 2.547-.603 3.236-.097.453.332.41.482-.52 1.786-.556.783-1.09 1.672-1.188 1.975-.096.304-1.286 2.015-2.644 3.802l-2.47 3.25-2.18.794c-3.106 1.133-3.298 1.183-3.298.858zm115.44-.99c-.58-.277-5.003-6.44-5.437-7.57-.1-.26.187-.33 1.03-.25 1.15.11 1.17.097 1.2-.863.015-.535.115-1.285.222-1.666.177-.63.316-.508 1.57 1.377.756 1.14 1.375 2.254 1.375 2.478 0 .224.785 1.603 1.745 3.064.96 1.46 1.744 2.762 1.744 2.892 0 .34-1.37.914-2.122.89-.353-.01-.95-.168-1.33-.35zm7.232-6.388c-1.94-2.793-2.45-3.308-3.465-3.512-.584-.116-1.14-.583-1.75-1.47-.49-.715-.894-1.44-.894-1.61 0-.174.56-.312 1.26-.312 1.254 0 1.26-.005 1.526-1.28l.265-1.283 2.835 4.222c1.925 2.87 2.834 4.487 2.834 5.047 0 .92-.548 2.304-.91 2.304-.132 0-.897-.95-1.702-2.108zm-110.26.718c-.272-.3-.495-.797-.496-1.104-.004-.834 4.704-7.676 5.284-7.678.302 0 .557.32.673.853.15.68.364.873 1.043.945l.856.09-2.548 3.633c-2.218 3.164-2.66 3.644-3.433 3.72-.58.057-1.054-.1-1.378-.46zm89.747-4.642c.105-.44.32-1.29.48-1.892l.285-1.093 1.732 1.176c.953.647 1.732 1.232 1.732 1.3 0 .123-3.807 1.308-4.206 1.308-.12 0-.13-.358-.025-.798zm-17.967-2.842c-1.084-1.196-2.292-2.558-2.686-3.026l-.715-.85 7.596-8.315c8.18-8.953 7.65-8.54 9.64-7.527 1.988 1.012 4.35 4.542 4.77 7.133.15.937.018 1.12-2.71 3.736-3.818 3.664-9.468 8.185-13.186 10.553-.736.468-.747.46-2.71-1.705zm-58.108-2.14l-1.094-.178 1.53-1.798c.842-.99 1.608-1.806 1.7-1.817.17-.018 1.14 3.183 1.14 3.756 0 .313-1.462.33-3.275.036zm49.924-3.474c-3.467-1.187-6.668-3.13-6.49-3.937.054-.247 3.63-5.1 7.947-10.788l7.848-10.34 1.67.15c2.48.224 3.566.788 4.577 2.382 1.033 1.63 2.082 4.28 2.14 5.41.035.65-1.318 2.402-7.224 9.358-3.997 4.707-7.464 8.56-7.703 8.56-.24 0-1.485-.358-2.766-.796zm30.743-1.645c-.84-1.016-1.526-1.962-1.526-2.1 0-.29 2.62-1.625 2.812-1.433.19.19.572 5.426.394 5.404-.086-.01-.842-.85-1.68-1.87zm8.938.228c0-1.077.603-6.868.73-7.005.046-.05.822.325 1.724.834l1.64.925-.497.765c-.273.42-1.194 1.81-2.046 3.09-1.453 2.178-1.55 2.264-1.55 1.39zm-99-3.247l-.893-2.873 1.298-.178c1.595-.22 4.125-.234 4.125-.025 0 .275-3.317 5.95-3.478 5.95-.085 0-.558-1.293-1.05-2.874zm45.804.725c-4.552-1.296-8.098-2.494-8.287-2.8-.23-.372 1.187-.523 6.69-.71 2.72-.092 5.962-.34 7.21-.547 1.245-.21 2.33-.272 2.412-.14.48.78-2.98 5.197-4.05 5.167-.346-.01-2.136-.447-3.976-.97zm-36.45-3.26c1.16-2.623 1.855-3.89 2.134-3.89.253 0 2.053 2.114 2.053 2.41 0 .16-4.52 3.112-4.763 3.112-.08 0 .18-.735.576-1.632zm47.22-6.827c-.006-.735-.097-2.345-.202-3.578l-.19-2.24-3.46-2.05c-2.105-1.245-3.424-2.2-3.37-2.443.048-.22 1.758-2.756 3.8-5.64l3.712-5.24h1.792c3.136 0 5.062 1.414 7.092 5.21 1.068 1.995 1.065 3.48-.01 5.678-.892 1.82-4.808 6.984-7.435 9.8l-1.715 1.84-.013-1.337zM83.14 13.404c-.017-.88 5.578-8.776 8.49-11.984C92.94-.025 92.95-.03 94.68.01c3.09.07 5.537 1.982 6.797 5.307l.614 1.622-1.075 2.102c-1.824 3.57-6.132 9.707-6.776 9.652-3.53-1.936-7.793-2.94-11.102-5.29z"/>
  <g fill="#303944" style="line-height:125%" font-size="39.362" font-family="League Spartan" letter-spacing="0" word-spacing="0" font-weight="bold">
    <path d="M22.223 158.256h.08l12.91 20.154h7.4v-32.474h-7.4v20.153h-.08l-12.91-20.154h-7.4v32.474h7.4v-20.154zM45.887 162.153c0 9.486 6.77 16.847 16.374 16.847 9.33 0 16.337-7.36 16.337-16.847 0-9.486-7.322-16.808-16.336-16.808-8.934 0-16.373 7.322-16.373 16.808zm7.99 0c0-4.842 2.677-9.683 8.384-9.683 5.748 0 8.346 4.84 8.346 9.683 0 4.842-2.44 9.683-8.345 9.683-6.06 0-8.383-4.84-8.383-9.683zM92.625 145.936v32.474h9.408c8.935 0 16.374-6.77 16.374-16.257 0-9.447-7.48-16.217-16.374-16.217h-9.408zm7.4 25.86V152.55h1.142c5.51 0 9.25 4.21 9.25 9.642-.04 5.432-3.78 9.605-9.25 9.605h-1.142zM121.685 145.936v32.474h7.4v-12.833l9.92 12.833h9.407l-11.18-13.423c3.977-1.26 6.654-4.527 6.654-9.408 0-6.377-4.566-9.644-10.59-9.644h-11.61zm7.4 14.406v-8.502h.866c2.796 0 6.142.197 6.142 4.25 0 4.056-3.346 4.252-6.14 4.252h-.867z" style="-inkscape-font-specification:'League Spartan Bold'"/>
    <path d="M176.745 178.41h7.4l-2.913-32.474h-7.872l-7.203 18.736-7.204-18.736h-7.872l-2.912 32.474h7.4l1.535-19.25h.197l6.652 19.053h4.41l6.65-19.052h.198l1.535 19.25z" style="-inkscape-font-specification:'League Spartan Bold'"/>
  </g>
</svg>
