<?xml version="1.0" encoding="UTF-8" standalone="no"?>
<svg
   width="150"
   height="137"
   fill="#303944"
   version="1.1"
   id="svg8"
   sodipodi:docname="no-drm.svg"
   inkscape:version="1.1.1 (3bf5ae0, 2021-09-20)"
   xmlns:inkscape="http://www.inkscape.org/namespaces/inkscape"
   xmlns:sodipodi="http://sodipodi.sourceforge.net/DTD/sodipodi-0.dtd"
   xmlns="http://www.w3.org/2000/svg"
   xmlns:svg="http://www.w3.org/2000/svg">
  <defs
     id="defs12" />
  <sodipodi:namedview
     id="namedview10"
     pagecolor="#505050"
     bordercolor="#eeeeee"
     borderopacity="1"
     inkscape:pageshadow="0"
     inkscape:pageopacity="0"
     inkscape:pagecheckerboard="0"
     showgrid="false"
     inkscape:zoom="2.0810056"
     inkscape:cx="118.93289"
     inkscape:cy="128.78389"
     inkscape:window-width="2560"
     inkscape:window-height="1355"
     inkscape:window-x="0"
     inkscape:window-y="0"
     inkscape:window-maximized="1"
     inkscape:current-layer="svg8" />
  <path
     d="m 71.632634,107.24238 c 0,-0.58163 1.331632,-2.37245 2.158163,-2.90816 1.85204,-1.21685 3.788264,-0.95664 5.426018,0.73469 a 6.596937,6.596937 0 0 1 1.262755,1.7602 l 0.244898,0.70408 h -4.545917 c -3.596938,0 -4.545917,-0.0613 -4.545917,-0.29081 z m -60.267841,-0.54337 c 0.0077,-0.33674 0.183673,-1.31632 0.390306,-2.17347 0.443877,-1.82908 0.359694,-1.80612 3.176019,-0.79592 5.969387,2.14286 12.612242,2.44898 22.354587,1.03316 7.943875,-1.14795 12.237241,-1.53061 17.326525,-1.55356 4.760203,-0.0153 4.95153,0 6.895407,0.61224 1.10204,0.33673 3.007651,1.10204 4.232141,1.69133 4.071428,1.96684 6.772958,1.78316 -25.637748,1.79081 H 11.341834 Z m 72.39794,0.38265 c 0.206632,-0.34438 3.772958,-2.08163 5.663264,-2.7551 2.647958,-0.95663 4.438774,-1.24744 7.744895,-1.24744 3.765308,0 8.892858,0.46683 16.285718,1.47703 3.11479,0.42092 7.01785,0.87245 8.67091,0.9949 5.20408,0.39796 11.11224,-0.30612 15.33673,-1.82143 2.69388,-0.97193 2.70152,-0.96428 3.04591,0.35204 0.16072,0.61225 0.32144,1.56123 0.35204,2.11225 l 0.0689,1.00255 -28.66071,0.0613 c -19.653058,0.0382 -28.607137,-0.0153 -28.5153,-0.17602 z m -1.02551,-1.62245 c 0.872448,-0.96429 3.658162,-2.78571 5.862243,-3.82653 5.494897,-2.602041 12.512754,-3.482131 21.359684,-2.686221 5.06633,0.45919 11.99235,0.45919 14.95408,0.0153 4.3699,-0.65817 7.53062,-1.83673 10.0102,-3.72704 0.78061,-0.59694 1.41582,-0.94133 1.53062,-0.81888 0.19132,0.17602 1.91326,-0.97193 2.09694,-1.40051 0.0459,-0.0918 0.23723,-0.16836 0.43622,-0.16836 0.19132,0 0.87245,-0.55868 1.50765,-1.2398 l 1.14796,-1.24745 0.47449,0.76531 c 0.53571,0.86479 0.60459,1.80612 0.19133,2.54847 -0.15307,0.26785 -1.17858,1.17091 -2.29592,1.99744 l -2.00511,1.51531 0.72705,1.66837 c 0.40561,0.91837 0.7347,1.798461 0.74234,1.959171 0.008,0.51276 -3.22958,1.66072 -6.68877,2.3648 a 45.413253,45.413253 0 0 1 -10.54592,0.58164 188.80097,188.80097 0 0 1 -8.67856,-0.9949 c -13.966837,-1.86735 -19.193877,-1.94388 -24.137753,-0.32143 -1.545919,0.51276 -5.433673,2.37245 -6.551019,3.13775 l -0.681123,0.47449 0.535715,-0.59694 z m -14.33418,-0.5204 a 32.785706,32.785706 0 0 0 -6.673467,-2.90051 c -1.966836,-0.61225 -2.096939,-0.6199 -7.224488,-0.61225 -5.471938,0.0229 -8.961733,0.34439 -17.357138,1.58418 -5.663264,0.84184 -12.58163,0.97194 -16.454078,0.32144 -2.808673,-0.47449 -6.749998,-1.59185 -7.484692,-2.12756 -0.375,-0.27551 -0.375,-0.33673 0.01531,-1.377551 0.221939,-0.59694 0.872449,-2.01275 1.454082,-3.13775 l 1.048469,-2.06633 -1.02551,-0.74234 c -0.558674,-0.40562 -2.295918,-1.60714 -3.857142,-2.67858 -2.70153,-1.84438 -2.8316321,-1.97449 -2.8316321,-2.70152 0,-0.56634 0.1377551,-0.84184 0.5586733,-1.12501 0.7423468,-0.48979 0.9566325,-0.38264 4.9515288,2.39542 1.760204,1.22448 3.313775,2.2653 3.459184,2.31121 0.137755,0.0536 0.727039,-0.62754 1.30102,-1.51529 a 32.426012,32.426012 0 0 1 1.698979,-2.37246 l 0.642857,-0.77296 1.423468,1.28572 c 3.834183,3.48214 8.55612,5.61734 14.280609,6.46684 1.67602,0.25254 4.086733,0.34439 8.63265,0.35203 6.420917,0 8.915814,0.16837 12.091834,0.80357 4.132652,0.82653 6.994896,2.14286 10.063773,4.599491 3.635203,2.90816 4.95153,4.20919 1.821428,1.78317 -3.788264,-2.931131 -9.367345,-4.974491 -15.374996,-5.617351 -3.07653,-0.33673 -7.339284,-0.29082 -11.785711,0.12245 -5.30357,0.4898 -12.93367,0.32143 -16.040812,-0.34439 -3.62755,-0.78826 -6.244897,-1.98214 -8.188774,-3.73469 -0.719387,-0.65051 -0.97959,-0.76531 -1.270407,-0.58164 -1.048469,0.65052 -0.306123,1.76021 2.265305,3.44388 4.874999,3.16837 12.344385,4.010201 25.278054,2.84695 7.423468,-0.67348 14.655609,0.34438 19.974485,2.801011 1.79847,0.83418 5.020407,2.8852 5.701529,3.64286 0.558674,0.61224 0.47449,0.58928 -1.094387,-0.35204 z m 13.461731,-1.18623 a 57.022944,57.022944 0 0 1 6.107141,-4.767861 23.624994,23.624994 0 0 1 5.456632,-2.21938 c 3.237243,-0.90306 5.127549,-1.07143 13.798463,-1.2551 7.27041,-0.14541 8.86225,-0.22959 10.56122,-0.61225 5.28061,-1.16326 9.3903,-3.22193 12.85714,-6.46683 l 1.09439,-1.01786 0.59694,0.72704 0.58928,0.73469 1.44643,-1.09438 c 1.76021,-1.33164 2.26531,-1.60714 2.92347,-1.60714 1.11735,0.0153 1.14796,0.32142 0.11479,1.58418 -0.53571,0.65816 -1.1403,1.51531 -1.33928,1.89796 -0.19898,0.38265 -0.6199,0.88775 -0.94133,1.125 l -0.57398,0.42091 0.40562,0.72705 0.40561,0.73469 -0.97193,0.84184 c -2.01276,1.75255 -5.38011,3.03061 -9.71174,3.67346 -2.8852,0.44388 -9.58163,0.44388 -14.23469,0.0153 A 63.520391,63.520391 0 0 0 98.8163,97.086729 c -6.206631,0.67347 -11.915813,2.82397 -15.795914,5.938771 -1.637755,1.31633 -2.142857,1.6301 -1.155612,0.72704 z m -12.237242,-2.91582 c -4.92857,-4.109691 -7.767855,-5.471931 -13.683669,-6.558671 -1.492347,-0.2755 -4.178571,-0.41326 -10.561222,-0.54336 -7.346937,-0.15307 -8.85459,-0.23725 -10.568875,-0.6199 -4.974488,-1.11735 -8.93112,-3.09184 -12.198976,-6.08419 l -1.056122,-0.96427 1.530612,-1.78317 a 237.37493,237.37493 0 0 1 2.40306,-2.7551 l 0.872449,-0.96428 3.221938,3.22194 c 2.923469,2.92346 3.397958,3.31377 5.112243,4.13265 3.336734,1.57652 7.72959,2.67856 14.747445,3.68877 5.908162,0.84949 8.839284,1.68367 12.727038,3.6352 a 30.153054,30.153054 0 0 1 6.344385,4.18623 c 1.576531,1.316321 3.313775,2.984691 3.09949,2.984691 -0.05358,0 -0.94898,-0.71174 -1.989796,-1.57654 z m 13.010201,-0.29846 a 32.778052,32.778052 0 0 1 14.556118,-7.905611 c 0.971939,-0.25255 3.497449,-0.70408 5.617339,-1.01021 5.11225,-0.74234 8.90817,-1.54591 11.70918,-2.46428 3.84184,-1.2551 4.67603,-1.79848 8.25001,-5.37244 3.08418,-3.09185 3.21428,-3.19134 3.59693,-2.80103 0.21429,0.22959 1.30868,1.45408 2.42602,2.7398 l 2.04337,2.34184 -1.06377,0.96427 c -3.30612,3.01531 -7.15562,4.92857 -12.20663,6.07653 -1.7296,0.38266 -3.16838,0.47449 -10.56122,0.62756 -8.877556,0.17602 -10.438779,0.32908 -14.234697,1.36224 -3.275509,0.88011 -5.992345,2.37246 -9.237242,5.066331 -2.625,2.17346 -2.892856,2.28826 -0.895408,0.375 z m -5.931121,1.27806 c -0.27551,-0.0765 -0.352041,-0.27551 -0.27551,-0.80357 0.06123,-0.39031 0.352041,-3.267861 0.658163,-6.382661 1.446428,-14.6556 3.765305,-36.788249 4.00255,-38.211719 0.107143,-0.612244 0.06123,-0.719387 -0.321429,-0.719387 -0.512754,0 -0.55102,0.168367 -0.918367,3.895406 -0.589285,6.06122 -5.165815,40.729581 -5.403059,40.966831 -0.05358,0.0536 -0.336735,-0.28317 -0.619898,-0.742351 a 36.581623,36.581623 0 0 0 -5.242346,-6.00766 29.005094,29.005094 0 0 0 -10.025507,-5.6556 c -0.887755,-0.27551 -1.607142,-0.58163 -1.607142,-0.66582 L 64.913248,53.36484 62.51784,50.142902 C 58.140291,44.23474 52.607129,35.510253 49.905598,30.221989 l -1.025509,-1.997448 12.091833,-16.989792 0.834184,0.290816 c 1.859693,0.658163 16.0102,6.941325 16.469383,7.316325 0.229592,0.183673 0.27551,0.681122 0.206633,1.920917 -0.122449,1.97449 -0.665816,3.214286 -1.859693,4.193877 -1.140306,0.933673 -2.380102,1.224489 -4.821428,1.117346 -2.663264,-0.114796 -4.423468,-0.887754 -6.214284,-2.716835 l -1.224489,-1.262756 0.382652,2.066327 c 0.221939,1.132652 0.329082,2.119898 0.244898,2.196428 -0.07653,0.07653 -0.788264,0.367347 -1.57653,0.65051 -1.20153,0.443878 -1.362244,0.558674 -1.033163,0.757652 5.831631,3.489796 10.23214,7.323979 13.017854,11.364793 1.117346,1.607143 2.97704,5.181122 5.816325,11.173467 1.170918,2.479592 1.760204,3.275509 1.760204,2.395408 0,-0.841837 -2.12755,-6.665815 -3.313775,-9.10714 A 33.290808,33.290808 0 0 0 73.063756,34.17862 l -2.448979,-2.510203 h 0.941326 c 1.262755,0 4.943876,0.727041 6.749998,1.331632 1.767857,0.596938 4.499999,1.943877 5.938774,2.931122 0.589286,0.397959 1.928571,1.561224 2.984694,2.579081 l 1.920918,1.85204 4.308672,-2.755101 c 3.795917,-2.418367 4.316325,-2.693877 4.385203,-2.295918 a 41.801009,41.801009 0 0 1 -6.459183,21.160709 l -1.400509,2.227047 v 6.12244 c 0,3.36735 0.08418,10.28571 0.191327,15.38265 l 0.191326,9.27551 -1.102041,0.55867 c -4.040815,2.04336 -8.142854,5.84693 -10.997446,10.178571 a 36.130092,36.130092 0 0 1 -1.170917,1.72959 c -0.0077,-0.0153 -0.183674,-0.0765 -0.390307,-0.1301 z m -6.045917,-2.632651 c -5.433672,-5.22704 -11.43367,-7.97449 -20.165811,-9.22194 -9.068874,-1.30102 -13.798465,-2.58674 -16.821423,-4.59183 a 31.538257,31.538257 0 0 1 -3.65051,-3.37501 l -2.448979,-2.57143 0.505102,-0.55102 c 0.27551,-0.29846 1.454082,-1.3852 2.60204,-2.41836 l 2.096938,-1.88265 0.482144,1.33928 c 0.642857,1.76021 3.168366,5.54082 4.499998,6.70409 2.938775,2.59438 7.698977,4.45407 15.658159,6.12244 4.186223,0.8801 6.091835,1.5 8.7551,2.83163 a 25.660707,25.660707 0 0 1 8.119895,6.29847 c 1.117347,1.2551 2.801021,3.443871 2.632653,3.420911 -0.03827,0 -1.056122,-0.94897 -2.257653,-2.112231 z m 9.198977,1.454081 A 28.025503,28.025503 0 0 1 93.665791,90.061259 c 0.841837,-0.28317 3.466836,-0.93367 5.816326,-1.44642 7.285713,-1.56889 12.359693,-3.55869 15.022963,-5.89286 1.42346,-1.24745 3.85713,-4.84439 4.57652,-6.75765 l 0.52806,-1.39286 2.31888,2.09693 a 60.780596,60.780596 0 0 1 2.58674,2.41837 c 0.22959,0.27551 -0.14541,0.76531 -2.16583,2.90816 a 31.102032,31.102032 0 0 1 -3.64285,3.37501 c -3.02296,2.00509 -7.75255,3.29081 -16.82143,4.59183 -8.74744,1.2551 -14.747438,4.00255 -20.318865,9.31377 -1.316327,1.262761 -2.020408,1.821431 -1.706633,1.362251 z M 7.6760184,92.854629 a 4.6071416,4.6071416 0 0 1 -1.1326528,-0.92602 c -1.0714283,-1.16327 -6.00765146,-7.36224 -6.29081465,-7.90562 -0.61224473,-1.16326 -0.11479589,-2.28061 1.58418325,-3.59693 a 8.6479569,8.6479569 0 0 1 1.3545915,-0.91837 c 0.07653,0 0.1454081,0.67347 0.1454081,1.5 0,2.14286 0.2142857,2.67857 1.9821423,4.875 1.0867344,1.34694 1.5765302,2.14286 1.5765302,2.56377 0,1.03317 0.4515305,1.66838 1.9132648,2.65562 a 6.7346921,6.7346921 0 0 1 1.4234689,1.12499 c 0,0.2449 -1.2474485,0.84184 -1.7142851,0.82654 a 2.9387747,2.9387747 0 0 1 -0.8418365,-0.19898 z m 129.6275116,-1.3852 c -0.71938,-0.71174 -0.32143,-1.46939 2.87755,-5.44899 3.67347,-4.57652 3.82653,-4.7449 4.41582,-4.7449 0.59694,0 1.33163,0.77297 1.33163,1.40052 0,0.32142 -1.26276,2.06632 -3.45918,4.78316 -3.20664,3.97194 -3.5051,4.27806 -4.17857,4.27806 -0.39796,0 -0.84184,-0.12245 -0.9949,-0.26785 z M 12.673466,87.872479 c -0.903061,-0.61224 -1.989796,-1.64541 -2.9081624,-2.79336 L 8.2959162,83.257689 8.142855,80.900549 c -0.07653,-1.30102 -0.1071429,-2.38776 -0.07653,-2.42602 0.061225,-0.0536 3.665815,4.3699 5.663263,6.96428 0.933673,1.20153 1.178571,2.11225 0.818877,3.05358 -0.191326,0.48978 -0.252551,0.47448 -1.874999,-0.61991 z m 132.635174,-1.66071 c -0.20663,-0.13775 -0.0459,-0.48214 0.64285,-1.33929 l 0.91837,-1.16326 0.0613,-3.26785 c 0.0306,-1.80613 0.16836,-3.57398 0.30612,-3.94898 0.22193,-0.57398 0.16071,-0.95664 -0.41327,-2.64796 a 11.525507,11.525507 0 0 1 -0.58163,-2.06633 c 0.0459,-0.0459 0.61224,-0.0153 1.27041,0.0765 0.88775,0.1148 1.35459,0.32143 1.83673,0.80357 l 0.65051,0.64286 -0.16072,4.93623 c -0.19898,6.02295 -0.30612,6.73468 -1.22448,7.54591 -0.56633,0.5051 -0.89541,0.61225 -1.85205,0.61225 -0.64285,0 -1.29336,-0.0842 -1.45407,-0.18368 z m -5.3801,-3.42857 c 0,-0.88775 0.10714,-3.41326 0.22959,-5.60969 0.16836,-3.01531 0.30612,-4.125 0.58162,-4.53827 0.35204,-0.54337 0.36735,-0.53571 1.3393,2.09694 0.94898,2.57908 0.97193,2.70919 0.84183,4.52296 l -0.1301,1.875 -1.3546,1.6301 a 19.867342,19.867342 0 0 1 -1.43111,1.6301 c -0.0459,0 -0.0765,-0.71938 -0.0765,-1.60714 z M 4.9056109,83.586769 c -0.2908162,-0.36735 -0.4591836,-0.91837 -0.4591836,-1.5 -0.00765,-0.5051 -0.1530611,-2.8699 -0.3290814,-5.25765 -0.2678572,-3.78826 -0.2678572,-4.40051 0.015306,-4.83673 0.3903061,-0.59694 1.6607139,-0.68878 2.1045914,-0.15307 0.1989795,0.23725 0.397959,2.12756 0.6352038,5.92347 l 0.3367347,5.57143 -0.5127551,0.42092 c -0.7117344,0.57398 -1.2397955,0.5204 -1.7831627,-0.16837 z M 144.19894,76.890339 c -0.44388,-0.3903 -3.82653,-9.8801 -3.82653,-10.73724 0,-0.5051 0.80358,-1.1097 1.45408,-1.1097 0.26786,0 0.62756,0.17603 0.81888,0.38266 0.18367,0.22194 1.125,2.72449 2.08929,5.57909 l 1.76019,5.18112 -0.62754,0.54336 c -0.74235,0.65051 -1.07143,0.68112 -1.66837,0.15307 z M 7.7831612,75.045959 c 0,-0.49745 -0.1071428,-1.59184 -0.2295918,-2.43367 a 5.2959169,5.2959169 0 0 1 0.2448979,-3.12245 c 0.390306,-1.28572 0.8571426,-2.08163 2.3265307,-4.02551 1.859693,-2.44133 2.112243,-2.57909 2.112243,-1.15561 0,0.72704 -2.8316313,10.02551 -3.2448965,10.67601 -0.1760203,0.27552 -0.520408,0.6046 -0.7653059,0.7347 -0.4056122,0.22194 -0.4438774,0.16836 -0.4438774,-0.67347 z M 1.8520403,74.586779 C 0.90306098,74.311259 0,73.201569 0,72.306159 c 0,-0.86479 2.7704075,-10.04846 3.2448971,-10.78316 0.1913265,-0.28316 0.6811223,-0.66581 1.0867344,-0.83418 0.6428569,-0.26786 0.8954079,-0.2602 1.8826526,0.0306 l 1.1403057,0.33673 -0.7346936,0.9949 c -2.0510199,2.78571 -2.1734689,3.02296 -2.1428566,3.96429 0.00765,0.5051 -0.2372448,1.71428 -0.5586733,2.69388 a 15.061221,15.061221 0 0 0 -0.5816325,2.14285 c 0,0.20663 -0.1454081,0.64285 -0.3137754,0.97194 -0.2142857,0.41327 -0.2755101,0.9949 -0.1913265,1.80612 0.068877,0.65816 0.030612,1.18623 -0.07653,1.17858 -0.1071428,-0.008 -0.5127549,-0.10715 -0.903061,-0.22959 z M 138.0765,69.038309 c -0.6046,-0.47449 -5.71684,-9.4898 -5.71684,-10.08674 0,-0.24489 0.53572,-0.0306 1.95152,0.78062 1.07144,0.61989 2.06633,1.22449 2.21174,1.34694 0.48215,0.39795 2.73979,4.69897 2.73979,5.22703 0,0.28317 0.19899,1.04082 0.44388,1.68368 0.2449,0.64285 0.44389,1.23979 0.44389,1.33163 0,0.35969 -1.53062,0.15306 -2.07398,-0.28316 z M 5.9311209,66.635249 c -0.2066327,-0.22194 -0.3673469,-0.61225 -0.3673469,-0.8648 0,-0.39796 5.012754,-7.48469 6.298468,-8.900508 0.82653,-0.918367 2.372449,-0.413266 2.372449,0.772959 0,0.397958 -4.9668363,7.415809 -6.2984686,8.900499 -0.5433672,0.61225 -1.4999996,0.65052 -2.0051015,0.0918 z M 144.08414,65.931169 a 3.3673461,3.3673461 0 0 0 -0.94132,-1.46939 c -0.30613,-0.19899 -0.55103,-0.47449 -0.55103,-0.61225 0,-0.13775 -0.53571,-1.22449 -1.20152,-2.42602 a 18.459178,18.459178 0 0 1 -1.34694,-2.83163 c -0.22959,-0.994898 -0.87245,-1.668366 -2.44898,-2.548469 a 9.0688751,9.0688751 0 0 1 -1.45408,-0.910714 c 0,-0.05358 0.5051,-0.344387 1.1097,-0.650509 1.27806,-0.650511 2.57907,-0.719389 3.26019,-0.168368 0.26786,0.214286 1.65307,2.517857 3.09185,5.12755 2.43366,4.42347 2.60203,4.79846 2.47958,5.66326 -0.10714,0.8495 -0.91836,1.94388 -1.44642,1.94388 -0.0842,0 -0.33673,-0.50511 -0.55103,-1.11734 z m -131.058633,-4.39286 1.37755,-1.82143 a 6.0841821,6.0841821 0 0 0 0.84949,-1.446432 c 0.06887,-0.252548 0.535714,-0.704077 1.056122,-0.994894 a 54.489781,54.489781 0 0 0 2.158163,-1.323979 c 1.316326,-0.857142 4.385202,-2.096939 4.698978,-1.905612 0.405612,0.252551 0.19898,1.836734 -0.306122,2.395407 -0.811225,0.887755 -9.206631,5.93112 -9.872447,5.93112 H 12.405609 Z M 132.69639,57.574022 c -2.44897,-1.415816 -4.59184,-2.709182 -4.75254,-2.869896 -0.41328,-0.39796 -0.39031,-1.408164 0.0306,-1.836735 0.19133,-0.183674 0.58929,-0.336735 0.88011,-0.336735 0.29846,0 2.60204,1.186224 5.12754,2.640306 4.27041,2.456631 5.05102,3.061227 5.05102,3.872447 0,0.40561 -0.88775,1.10204 -1.3852,1.10204 -0.27551,0 -2.50255,-1.16327 -4.95153,-2.579079 z m -7.78316,0.66582 c -7.3852,-3.091839 -7.23979,-3.015309 -7.57653,-3.673472 -0.36734,-0.711735 -0.42091,-1.928571 -0.0995,-2.42602 0.17601,-0.283163 0.2602,-0.260204 0.55101,0.153061 0.40561,0.581633 1.71429,1.04847 2.3495,0.841837 0.28315,-0.09184 0.61224,-0.01531 0.84183,0.191326 0.47449,0.428572 5.73979,2.594388 6.30612,2.594388 0.49745,0 3.29082,1.561224 3.29082,1.836734 0,0.765303 -1.3699,1.744903 -2.37246,1.706633 -0.22959,-0.008 -1.70663,-0.55867 -3.29081,-1.224487 z M 8.3647937,57.612288 C 7.6760184,56.441369 7.5994877,55.079125 8.1734672,54.398003 8.3877528,54.153104 10.60714,52.69137 13.10969,51.153105 c 3.658162,-2.257652 4.698979,-2.793366 5.357142,-2.793366 0.841836,0 2.089285,0.734694 1.943877,1.147959 -0.03827,0.122449 -0.795918,0.505101 -1.683673,0.849489 -1.867347,0.727041 -2.234694,0.994898 -2.60204,1.859694 -0.183674,0.436224 -0.956633,1.063775 -2.464286,2.012755 -1.744897,1.086734 -2.433672,1.676019 -3.290815,2.816325 a 11.63265,11.63265 0 0 1 -1.2474485,1.499998 c -0.091837,0.0383 -0.4362243,-0.382654 -0.7499998,-0.926018 z m 9.1300993,-3.658162 c -0.482142,-0.528061 -0.466836,-1.438776 0.02296,-1.859694 0.535715,-0.459184 9.719385,-3.795918 10.446426,-3.795918 0.994897,0 1.538265,1.278061 0.895408,2.112245 -0.290816,0.382652 -9.841834,3.948978 -10.568874,3.948978 -0.229592,0 -0.589286,-0.17602 -0.795919,-0.405611 z m 11.471936,-0.04592 a 7.4540797,7.4540797 0 0 1 -1.285714,-0.795918 l -0.780612,-0.589286 1.278061,-0.520408 a 4.4923458,4.4923458 0 0 0 1.431122,-0.803571 c 0.191326,-0.336734 0.665816,-1.010204 2.869897,-4.056121 1.010204,-1.408164 1.913265,-2.42602 2.295918,-2.586734 a 5.2576516,5.2576516 0 0 0 1.47704,-1.469388 l 0.864796,-1.209183 0.336735,0.512755 c 0.573979,0.887755 0.62755,1.57653 0.191326,2.42602 -0.229592,0.443878 -1.706632,2.563774 -3.290816,4.721938 -3.275509,4.461733 -3.903059,4.966835 -5.387753,4.369896 z M 130.95915,52.23984 c -1.30102,-0.780612 -2.70918,-1.017857 -3.18368,-0.535714 -0.15305,0.145408 -0.99489,-0.107143 -2.62499,-0.788265 a 18.2602,18.2602 0 0 0 -2.78572,-0.994898 c -0.23724,0 -0.79592,-0.612244 -1.42346,-1.561224 -0.97194,-1.454082 -1.00256,-1.561224 -0.6046,-1.77551 0.75765,-0.405612 1.29337,-0.260204 5.74745,1.568877 5.77041,2.372449 5.80101,2.387754 6.17602,3.114795 0.34438,0.658164 0.44387,1.760204 0.15306,1.752551 -0.0842,0 -0.74235,-0.359694 -1.45408,-0.780612 z m -11.90816,-0.252551 c -0.44388,-0.17602 -6.26785,-9.145405 -6.26785,-9.642854 0,-0.551021 0.7653,-1.331633 1.30101,-1.331633 0.21429,0 0.55867,0.130102 0.75001,0.283163 0.61223,0.47449 6.18367,9.061222 6.18367,9.520407 0,0.880101 -1.07144,1.522958 -1.96684,1.170917 z M 23.357136,48.390351 c 0,-0.528061 6.153061,-8.923467 6.933673,-9.466834 0.612244,-0.420918 1.951529,-0.459184 2.47959,-0.07653 0.344388,0.252551 0.313776,0.367347 -0.397958,1.362245 a 8.9540793,8.9540793 0 0 0 -0.910715,1.515306 c -0.07653,0.229592 -0.979591,1.538264 -2.020407,2.908162 l -1.890306,2.487245 -1.668367,0.612245 c -2.372448,0.864794 -2.52551,0.90306 -2.52551,0.650509 z m 88.346914,-0.765306 c -0.44387,-0.206632 -3.82653,-4.92857 -4.16326,-5.793365 -0.0765,-0.19898 0.14541,-0.252551 0.78826,-0.191327 0.88011,0.08418 0.89541,0.07653 0.91837,-0.658163 0.0153,-0.405612 0.0918,-0.979591 0.16837,-1.27806 0.13776,-0.482144 0.2449,-0.382654 1.20152,1.056122 a 8.5943854,8.5943854 0 0 1 1.05613,1.897958 c 0,0.168367 0.59694,1.224489 1.33164,2.341836 a 18.704077,18.704077 0 0 1 1.33928,2.219387 c 0,0.260205 -1.04847,0.696429 -1.62245,0.681122 a 3.0459175,3.0459175 0 0 1 -1.01786,-0.267857 z m 5.53317,-4.882652 c -1.4847,-2.142856 -1.87501,-2.533162 -2.64796,-2.693876 -0.45153,-0.08418 -0.87246,-0.443878 -1.33929,-1.125 a 4.8596926,4.8596926 0 0 1 -0.68878,-1.224489 c 0,-0.137755 0.42858,-0.244898 0.96429,-0.244898 0.96429,0 0.96429,0 1.17092,-0.979592 l 0.19898,-0.979592 2.17346,3.229592 c 1.46939,2.196428 2.16582,3.436223 2.16582,3.864795 0,0.704081 -0.42092,1.760203 -0.68878,1.760203 -0.10714,0 -0.68877,-0.727041 -1.30101,-1.607143 z M 32.854583,43.285761 A 1.5306118,1.5306118 0 0 1 32.47193,42.443924 c 0,-0.635203 3.604591,-5.877549 4.048468,-5.877549 0.229592,0 0.428572,0.244898 0.512756,0.65051 0.114796,0.520408 0.283163,0.673469 0.803571,0.727041 l 0.650509,0.06887 -1.951529,2.77806 c -1.691326,2.42602 -2.035714,2.793367 -2.625,2.846939 -0.443877,0.04592 -0.803571,-0.07653 -1.056122,-0.352041 z m 68.686207,-3.55102 c 0.0765,-0.336734 0.2449,-0.987244 0.36735,-1.446427 l 0.21428,-0.841837 1.33164,0.90306 c 0.72703,0.497449 1.32397,0.941326 1.32397,0.994898 0,0.09949 -2.90816,1.002551 -3.21428,1.002551 -0.0995,0 -0.10714,-0.27551 -0.0229,-0.612245 z M 87.788242,37.561273 a 123.10711,123.10711 0 0 1 -2.05102,-2.318878 l -0.551021,-0.650509 5.816326,-6.359692 c 6.260202,-6.849489 5.85459,-6.535713 7.377548,-5.762754 1.515311,0.772959 3.329085,3.474489 3.650505,5.456631 0.1148,0.719388 0.008,0.857143 -2.073974,2.862245 a 76.660693,76.660693 0 0 1 -10.094385,8.073977 c -0.566327,0.359693 -0.573979,0.35204 -2.066327,-1.30102 z M 43.323968,35.923518 42.482132,35.785763 43.65305,34.408212 c 0.642856,-0.757653 1.224489,-1.37755 1.30102,-1.385204 0.130102,-0.01531 0.872448,2.433673 0.872448,2.869898 0,0.244898 -1.117347,0.252551 -2.510203,0.03061 z m 38.204071,-2.655612 c -2.655611,-0.918367 -5.10459,-2.395408 -4.974488,-3.015305 0.04592,-0.191326 2.785714,-3.90306 6.084182,-8.257651 l 6.007652,-7.913263 1.27806,0.114796 c 1.897958,0.168367 2.732142,0.604591 3.505102,1.821428 0.788264,1.247448 1.591835,3.275509 1.637754,4.140305 0.02296,0.497449 -1.010204,1.836734 -5.525508,7.163263 -3.061224,3.596938 -5.716836,6.551019 -5.892856,6.551019 -0.191326,0 -1.147959,-0.275511 -2.119898,-0.612244 z m 23.525511,-1.262754 a 9.2755077,9.2755077 0 0 1 -1.17092,-1.607142 c 0,-0.221939 2.00509,-1.239797 2.15816,-1.094388 0.14541,0.145408 0.43622,4.147958 0.30612,4.132651 a 12.015302,12.015302 0 0 1 -1.29336,-1.431121 z m 6.84183,0.17602 c 0,-0.826531 0.45918,-5.257651 0.55867,-5.357142 0.0306,-0.04592 0.62755,0.244898 1.31633,0.635204 l 1.2551,0.704082 -0.38266,0.589286 -1.56122,2.364795 c -1.10969,1.668367 -1.18622,1.729591 -1.18622,1.063775 z M 36.130092,29.693928 35.441317,27.4975 36.436214,27.359745 c 1.22449,-0.168368 3.160715,-0.176021 3.160715,-0.01531 0,0.206633 -2.540816,4.553571 -2.663266,4.553571 -0.06122,0 -0.428571,-0.994898 -0.803571,-2.20408 z m 35.051012,0.558673 c -3.482142,-0.994897 -6.198978,-1.913264 -6.336733,-2.142856 -0.176021,-0.290817 0.90306,-0.405612 5.119896,-0.543367 2.081632,-0.07653 4.561223,-0.260205 5.510203,-0.420919 0.956632,-0.160715 1.790815,-0.206633 1.85204,-0.107142 0.367347,0.596938 -2.280612,3.97959 -3.099489,3.956631 -0.267857,-0.0077 -1.637755,-0.344388 -3.045917,-0.742347 z M 43.285703,27.757704 c 0.887755,-2.012755 1.423468,-2.984693 1.637755,-2.984693 0.191326,0 1.568876,1.622449 1.568876,1.85204 0,0.122449 -3.459182,2.372448 -3.642856,2.372448 -0.06122,0 0.137755,-0.558673 0.436225,-1.239795 z m 36.137745,-5.227039 c 0,-0.566327 -0.07653,-1.798469 -0.153061,-2.739796 L 79.124979,18.076584 76.47702,16.507707 c -1.607142,-0.948979 -2.617346,-1.683673 -2.57908,-1.867347 0.03827,-0.168367 1.346938,-2.112244 2.908162,-4.316325 l 2.839285,-4.010203 h 1.37755 c 2.395408,0 3.872449,1.079082 5.42602,3.97959 0.811224,1.530612 0.811224,2.670918 -0.0077,4.354592 -0.688775,1.392856 -3.681121,5.341834 -5.693876,7.499998 l -1.308673,1.408162 z M 63.627534,10.255158 c -0.01531,-0.67347 4.270407,-6.711734 6.497448,-9.168365 1.00255,-1.10204098 1.010203,-1.10969398 2.334183,-1.07908098 2.364794,0.05358 4.239794,1.51530498 5.204079,4.05612098 l 0.466837,1.247448 -0.818877,1.607143 c -1.40051,2.732141 -4.698979,7.423467 -5.188774,7.385202 -2.70153,-1.477041 -5.969386,-2.25 -8.494896,-4.048468 z"
     id="path2"
     style="stroke-width:0.765305" />
  <path
     d="m 17.005098,121.11737 h 0.06122 l 9.880099,15.42092 h 5.663264 v -24.84948 h -5.663264 v 15.42091 h -0.06122 l -9.872446,-15.42857 h -5.663265 v 24.85714 h 5.663265 v -15.42857 z m 18.114791,2.9847 c 0,7.2551 5.18112,12.88775 12.528058,12.88775 7.140304,0 12.505099,-5.63265 12.505099,-12.89541 0,-7.2551 -5.60204,-12.85713 -12.505099,-12.85713 -6.834182,0 -12.528058,5.60203 -12.528058,12.85713 z m 6.114794,0 c 0,-3.71174 2.043367,-7.41581 6.413264,-7.41581 4.400508,0 6.390304,3.70407 6.390304,7.40815 0,3.70409 -1.867346,7.41582 -6.390304,7.41582 -4.637754,0 -6.413264,-3.70408 -6.413264,-7.41582 z m 29.647951,-12.41326 v 24.84948 h 7.201529 c 6.841835,0 12.535711,-5.18112 12.535711,-12.44388 0,-7.22448 -5.724488,-12.4056 -12.535711,-12.4056 h -7.193876 z m 5.663263,19.79081 V 116.74748 H 77.426 c 4.209182,0 7.07908,3.22194 7.07908,7.37755 -0.03062,4.15561 -2.892857,7.34693 -7.07908,7.34693 h -0.880103 z m 16.58418,-19.79081 v 24.84948 h 5.663263 v -9.81888 l 7.58418,9.81122 h 7.19388 l -8.55612,-10.2704 c 3.04592,-0.96428 5.09694,-3.46684 5.09694,-7.20153 0,-4.88265 -3.49745,-7.3852 -8.11225,-7.3852 h -8.877546 z m 5.663263,11.0204 v -6.5051 h 0.658164 c 2.142856,0 4.698986,0.15306 4.698986,3.25255 0,3.10714 -2.55613,3.25255 -4.698986,3.25255 z"
     font-family="'League Spartan'"
     id="path4"
     style="stroke-width:0.765305" />
  <path
     d="m 135.26782,136.53829 h 5.66327 l -2.2347,-24.84948 h -6.02295 l -5.5102,14.33417 -5.51022,-14.33417 h -6.0306 l -2.22704,24.84948 h 5.66326 l 1.17092,-14.73214 h 0.15306 l 5.08928,14.57907 h 3.37501 l 5.08928,-14.57907 h 0.15306 z"
     font-family="'League Spartan'"
     id="path6"
     style="stroke-width:0.765305" />
</svg>
