<?xml version="1.0" encoding="UTF-8" standalone="no"?>
<svg width="196" height="179" fill="#303944" xmlns="http://www.w3.org/2000/svg">
  <path d="M93.6 140.13c0-.76 1.74-3.1 2.82-3.8 2.42-1.59 4.95-1.25 7.09.96a8.62 8.62 0 011.65 2.3l.32.92h-5.94c-4.7 0-5.94-.08-5.94-.38zm-78.75-.71c.01-.44.24-1.72.51-2.84.58-2.39.47-2.36 4.15-1.04 7.8 2.8 16.48 3.2 29.21 1.35 10.38-1.5 15.99-2 22.64-2.03 6.22-.02 6.47 0 9.01.8 1.44.44 3.93 1.44 5.53 2.21 5.32 2.57 8.85 2.33-33.5 2.34H14.82zm94.6.5c.27-.45 4.93-2.72 7.4-3.6 3.46-1.25 5.8-1.63 10.12-1.63 4.92 0 11.62.61 21.28 1.93 4.07.55 9.17 1.14 11.33 1.3 6.8.52 14.52-.4 20.04-2.38 3.52-1.27 3.53-1.26 3.98.46.21.8.42 2.04.46 2.76l.09 1.31-37.45.08c-25.68.05-37.38-.02-37.26-.23zm-1.34-2.12c1.14-1.26 4.78-3.64 7.66-5 7.18-3.4 16.35-4.55 27.91-3.51 6.62.6 15.67.6 19.54.02 5.71-.86 9.84-2.4 13.08-4.87 1.02-.78 1.85-1.23 2-1.07.25.23 2.5-1.27 2.74-1.83.06-.12.31-.22.57-.22.25 0 1.14-.73 1.97-1.62l1.5-1.63.62 1c.7 1.13.79 2.36.25 3.33-.2.35-1.54 1.53-3 2.61l-2.62 1.98.95 2.18c.53 1.2.96 2.35.97 2.56.01.67-4.22 2.17-8.74 3.09a59.34 59.34 0 01-13.78.76 246.7 246.7 0 01-11.34-1.3c-18.25-2.44-25.08-2.54-31.54-.42-2.02.67-7.1 3.1-8.56 4.1l-.89.62.7-.78zm-18.73-.68a42.84 42.84 0 00-8.72-3.79c-2.57-.8-2.74-.81-9.44-.8-7.15.03-11.71.45-22.68 2.07-7.4 1.1-16.44 1.27-21.5.42-3.67-.62-8.82-2.08-9.78-2.78-.49-.36-.49-.44.02-1.8.29-.78 1.14-2.63 1.9-4.1l1.37-2.7-1.34-.97c-.73-.53-3-2.1-5.04-3.5-3.53-2.41-3.7-2.58-3.7-3.53 0-.74.18-1.1.73-1.47.97-.64 1.25-.5 6.47 3.13 2.3 1.6 4.33 2.96 4.52 3.02.18.07.95-.82 1.7-1.98a42.37 42.37 0 012.22-3.1l.84-1.01 1.86 1.68c5.01 4.55 11.18 7.34 18.66 8.45 2.19.33 5.34.45 11.28.46 8.39 0 11.65.22 15.8 1.05 5.4 1.08 9.14 2.8 13.15 6.01 4.75 3.8 6.47 5.5 2.38 2.33-4.95-3.83-12.24-6.5-20.09-7.34-4.02-.44-9.59-.38-15.4.16-6.93.64-16.9.42-20.96-.45-4.74-1.03-8.16-2.59-10.7-4.88-.94-.85-1.28-1-1.66-.76-1.37.85-.4 2.3 2.96 4.5 6.37 4.14 16.13 5.24 33.03 3.72 9.7-.88 19.15.45 26.1 3.66 2.35 1.09 6.56 3.77 7.45 4.76.73.8.62.77-1.43-.46zm17.59-1.55a74.51 74.51 0 017.98-6.23 30.87 30.87 0 017.13-2.9c4.23-1.18 6.7-1.4 18.03-1.64 9.5-.19 11.58-.3 13.8-.8 6.9-1.52 12.27-4.21 16.8-8.45l1.43-1.33.78.95.77.96 1.89-1.43c2.3-1.74 2.96-2.1 3.82-2.1 1.46.02 1.5.42.15 2.07-.7.86-1.49 1.98-1.75 2.48s-.81 1.16-1.23 1.47l-.75.55.53.95.53.96-1.27 1.1c-2.63 2.29-7.03 3.96-12.69 4.8-3.77.58-12.52.58-18.6.02a83 83 0 00-15.2-.14c-8.11.88-15.57 3.69-20.64 7.76-2.14 1.72-2.8 2.13-1.51.95zm-15.99-3.81c-6.44-5.37-10.15-7.15-17.88-8.57-1.95-.36-5.46-.54-13.8-.71-9.6-.2-11.57-.31-13.81-.81-6.5-1.46-11.67-4.04-15.94-7.95l-1.38-1.26 2-2.33a310.17 310.17 0 013.14-3.6l1.14-1.26 4.21 4.21c3.82 3.82 4.44 4.33 6.68 5.4 4.36 2.06 10.1 3.5 19.27 4.82 7.72 1.11 11.55 2.2 16.63 4.75a39.4 39.4 0 018.29 5.47c2.06 1.72 4.33 3.9 4.05 3.9-.07 0-1.24-.93-2.6-2.06zm17-.39A42.83 42.83 0 01127 121.04c1.27-.33 4.57-.92 7.34-1.32 6.68-.97 11.64-2.02 15.3-3.22 5.02-1.64 6.11-2.35 10.78-7.02 4.03-4.04 4.2-4.17 4.7-3.66.28.3 1.71 1.9 3.17 3.58l2.67 3.06-1.39 1.26c-4.32 3.94-9.35 6.44-15.95 7.94-2.26.5-4.14.62-13.8.82-11.6.23-13.64.43-18.6 1.78-4.28 1.15-7.83 3.1-12.07 6.62-3.43 2.84-3.78 2.99-1.17.49zm-7.75 1.67c-.36-.1-.46-.36-.36-1.05.08-.51.46-4.27.86-8.34 1.89-19.15 4.92-48.07 5.23-49.93.14-.8.08-.94-.42-.94-.67 0-.72.22-1.2 5.09-.77 7.92-6.75 53.22-7.06 53.53-.07.07-.44-.37-.81-.97a47.8 47.8 0 00-6.85-7.85 37.9 37.9 0 00-13.1-7.39c-1.16-.36-2.1-.76-2.1-.87l10.4-44.59-3.13-4.21C75.97 57.8 68.74 46.4 65.21 39.49l-1.34-2.61 15.8-22.2 1.09.38c2.43.86 20.92 9.07 21.52 9.56.3.24.36.89.27 2.51-.16 2.58-.87 4.2-2.43 5.48-1.49 1.22-3.11 1.6-6.3 1.46-3.48-.15-5.78-1.16-8.12-3.55l-1.6-1.65.5 2.7c.29 1.48.43 2.77.32 2.87-.1.1-1.03.48-2.06.85-1.57.58-1.78.73-1.35.99 7.62 4.56 13.37 9.57 17.01 14.85 1.46 2.1 3.89 6.77 7.6 14.6 1.53 3.24 2.3 4.28 2.3 3.13 0-1.1-2.78-8.71-4.33-11.9a43.5 43.5 0 00-8.62-12.3l-3.2-3.28h1.23c1.65 0 6.46.95 8.82 1.74 2.31.78 5.88 2.54 7.76 3.83.77.52 2.52 2.04 3.9 3.37l2.51 2.42 5.63-3.6c4.96-3.16 5.64-3.52 5.73-3a54.62 54.62 0 01-8.44 27.65l-1.83 2.91v8c0 4.4.11 13.44.25 20.1l.25 12.12-1.44.73c-5.28 2.67-10.64 7.64-14.37 13.3a47.21 47.21 0 01-1.53 2.26c-.01-.02-.24-.1-.51-.17zm-7.9-3.44c-7.1-6.83-14.94-10.42-26.35-12.05-11.85-1.7-18.03-3.38-21.98-6a41.21 41.21 0 01-4.77-4.41l-3.2-3.36.66-.72c.36-.39 1.9-1.81 3.4-3.16l2.74-2.46.63 1.75c.84 2.3 4.14 7.24 5.88 8.76 3.84 3.39 10.06 5.82 20.46 8 5.47 1.15 7.96 1.96 11.44 3.7a33.53 33.53 0 0110.61 8.23c1.46 1.64 3.66 4.5 3.44 4.47-.05 0-1.38-1.24-2.95-2.76zm12.02 1.9a36.62 36.62 0 0118.04-13.82c1.1-.37 4.53-1.22 7.6-1.89 9.52-2.05 16.15-4.65 19.63-7.7 1.86-1.63 5.04-6.33 5.98-8.83l.69-1.82 3.03 2.74a79.42 79.42 0 013.38 3.16c.3.36-.19 1-2.83 3.8a40.64 40.64 0 01-4.76 4.41c-3.95 2.62-10.13 4.3-21.98 6-11.43 1.64-19.27 5.23-26.55 12.17-1.72 1.65-2.64 2.38-2.23 1.78zm-94.32-10.17a6.02 6.02 0 01-1.48-1.21C7.15 118.6.7 110.5.33 109.79c-.8-1.52-.15-2.98 2.07-4.7a11.3 11.3 0 011.77-1.2c.1 0 .19.88.19 1.96 0 2.8.28 3.5 2.59 6.37 1.42 1.76 2.06 2.8 2.06 3.35 0 1.35.59 2.18 2.5 3.47a8.8 8.8 0 011.86 1.47c0 .32-1.63 1.1-2.24 1.08a3.84 3.84 0 01-1.1-.26zm169.38-1.81c-.94-.93-.42-1.92 3.76-7.12 4.8-5.98 5-6.2 5.77-6.2.78 0 1.74 1.01 1.74 1.83 0 .42-1.65 2.7-4.52 6.25-4.19 5.19-4.58 5.59-5.46 5.59-.52 0-1.1-.16-1.3-.35zm-162.85-4.7c-1.18-.8-2.6-2.15-3.8-3.65l-1.92-2.38-.2-3.08c-.1-1.7-.14-3.12-.1-3.17.08-.07 4.79 5.71 7.4 9.1 1.22 1.57 1.54 2.76 1.07 3.99-.25.64-.33.62-2.45-.81zm173.31-2.17c-.27-.18-.06-.63.84-1.75l1.2-1.52.08-4.27c.04-2.36.22-4.67.4-5.16.29-.75.21-1.25-.54-3.46a15.06 15.06 0 01-.76-2.7c.06-.06.8-.02 1.66.1 1.16.15 1.77.42 2.4 1.05l.85.84-.21 6.45c-.26 7.87-.4 8.8-1.6 9.86-.74.66-1.17.8-2.42.8-.84 0-1.69-.11-1.9-.24zm-7.03-4.48c0-1.16.14-4.46.3-7.33.22-3.94.4-5.39.76-5.93.46-.71.48-.7 1.75 2.74 1.24 3.37 1.27 3.54 1.1 5.91l-.17 2.45-1.77 2.13a25.96 25.96 0 01-1.87 2.13c-.06 0-.1-.94-.1-2.1zM6.41 109.22c-.38-.48-.6-1.2-.6-1.96-.01-.66-.2-3.75-.43-6.87-.35-4.95-.35-5.75.02-6.32.51-.78 2.17-.9 2.75-.2.26.31.52 2.78.83 7.74l.44 7.28-.67.55c-.93.75-1.62.68-2.33-.22zm182.01-8.75c-.58-.51-5-12.91-5-14.03 0-.66 1.05-1.45 1.9-1.45.35 0 .82.23 1.07.5.24.29 1.47 3.56 2.73 7.29l2.3 6.77-.82.71c-.97.85-1.4.89-2.18.2zM10.17 98.06c0-.65-.14-2.08-.3-3.18a6.92 6.92 0 01.32-4.08c.51-1.68 1.12-2.72 3.04-5.26 2.43-3.19 2.76-3.37 2.76-1.51 0 .95-3.7 13.1-4.24 13.95-.23.36-.68.79-1 .96-.53.29-.58.22-.58-.88zm-7.75-.6C1.18 97.1 0 95.65 0 94.48c0-1.13 3.62-13.13 4.24-14.09.25-.37.89-.87 1.42-1.09.84-.35 1.17-.34 2.46.04l1.49.44-.96 1.3c-2.68 3.64-2.84 3.95-2.8 5.18.01.66-.31 2.24-.73 3.52a19.68 19.68 0 00-.76 2.8c0 .27-.19.84-.41 1.27-.28.54-.36 1.3-.25 2.36.09.86.04 1.55-.1 1.54-.14-.01-.67-.14-1.18-.3zm178-7.25c-.79-.62-7.47-12.4-7.47-13.18 0-.32.7-.04 2.55 1.02 1.4.81 2.7 1.6 2.89 1.76.63.52 3.58 6.14 3.58 6.83 0 .37.26 1.36.58 2.2.32.84.58 1.62.58 1.74 0 .47-2 .2-2.71-.37zM7.75 87.07c-.27-.29-.48-.8-.48-1.13 0-.52 6.55-9.78 8.23-11.63 1.08-1.2 3.1-.54 3.1 1.01 0 .52-6.49 9.69-8.23 11.63-.71.8-1.96.85-2.62.12zm180.52-.92a4.4 4.4 0 00-1.23-1.92c-.4-.26-.72-.62-.72-.8 0-.18-.7-1.6-1.57-3.17a24.12 24.12 0 01-1.76-3.7c-.3-1.3-1.14-2.18-3.2-3.33a11.85 11.85 0 01-1.9-1.19c0-.07.66-.45 1.45-.85 1.67-.85 3.37-.94 4.26-.22.35.28 2.16 3.29 4.04 6.7 3.18 5.78 3.4 6.27 3.24 7.4-.14 1.11-1.2 2.54-1.89 2.54-.11 0-.44-.66-.72-1.46zM17.02 80.41l1.8-2.38a7.95 7.95 0 001.11-1.89c.09-.33.7-.92 1.38-1.3a71.2 71.2 0 002.82-1.73c1.72-1.12 5.73-2.74 6.14-2.49.53.33.26 2.4-.4 3.13-1.06 1.16-12.03 7.75-12.9 7.75h-.76zm156.37-5.18c-3.2-1.85-6-3.54-6.21-3.75-.54-.52-.51-1.84.04-2.4.25-.24.77-.44 1.15-.44.39 0 3.4 1.55 6.7 3.45 5.58 3.21 6.6 4 6.6 5.06 0 .53-1.16 1.44-1.81 1.44-.36 0-3.27-1.52-6.47-3.37zm-10.17.87c-9.65-4.04-9.46-3.94-9.9-4.8-.48-.93-.55-2.52-.13-3.17.23-.37.34-.34.72.2.53.76 2.24 1.37 3.07 1.1.37-.12.8-.02 1.1.25.62.56 7.5 3.39 8.24 3.39.65 0 4.3 2.04 4.3 2.4 0 1-1.79 2.28-3.1 2.23-.3-.01-2.23-.73-4.3-1.6zm-152.29-.82c-.9-1.53-1-3.31-.25-4.2.28-.32 3.18-2.23 6.45-4.24 4.78-2.95 6.14-3.65 7-3.65 1.1 0 2.73.96 2.54 1.5-.05.16-1.04.66-2.2 1.11-2.44.95-2.92 1.3-3.4 2.43-.24.57-1.25 1.39-3.22 2.63-2.28 1.42-3.18 2.19-4.3 3.68a15.2 15.2 0 01-1.63 1.96c-.12.05-.57-.5-.98-1.21zm11.93-4.78c-.63-.69-.61-1.88.03-2.43.7-.6 12.7-4.96 13.65-4.96 1.3 0 2.01 1.67 1.17 2.76-.38.5-12.86 5.16-13.81 5.16-.3 0-.77-.23-1.04-.53zm14.99-.06a9.74 9.74 0 01-1.68-1.04l-1.02-.77 1.67-.68a5.87 5.87 0 001.87-1.05c.25-.44.87-1.32 3.75-5.3 1.32-1.84 2.5-3.17 3-3.38a6.87 6.87 0 001.93-1.92l1.13-1.58.44.67c.75 1.16.82 2.06.25 3.17-.3.58-2.23 3.35-4.3 6.17-4.28 5.83-5.1 6.49-7.04 5.71zm133.27-2.18c-1.7-1.02-3.54-1.33-4.16-.7-.2.19-1.3-.14-3.43-1.03a23.86 23.86 0 00-3.64-1.3c-.31 0-1.04-.8-1.86-2.04-1.27-1.9-1.31-2.04-.79-2.32.99-.53 1.69-.34 7.51 2.05 7.54 3.1 7.58 3.12 8.07 4.07.45.86.58 2.3.2 2.29-.11 0-.97-.47-1.9-1.02zm-15.56-.33c-.58-.23-8.19-11.95-8.19-12.6 0-.72 1-1.74 1.7-1.74.28 0 .73.17.98.37.8.62 8.08 11.84 8.08 12.44 0 1.15-1.4 1.99-2.57 1.53zm-125.04-4.7c0-.69 8.04-11.66 9.06-12.37.8-.55 2.55-.6 3.24-.1.45.33.41.48-.52 1.78a11.7 11.7 0 00-1.19 1.98c-.1.3-1.28 2.01-2.64 3.8L36 61.57l-2.18.8c-3.1 1.13-3.3 1.18-3.3.85zm115.44-1c-.58-.27-5-6.44-5.44-7.57-.1-.26.19-.33 1.03-.25 1.15.11 1.17.1 1.2-.86.02-.53.12-1.28.22-1.67.18-.63.32-.5 1.57 1.38a11.23 11.23 0 011.38 2.48c0 .22.78 1.6 1.74 3.06a24.44 24.44 0 011.75 2.9c0 .34-1.37.91-2.12.89a3.98 3.98 0 01-1.33-.35zm7.23-6.38c-1.94-2.8-2.45-3.31-3.46-3.52-.59-.11-1.14-.58-1.75-1.47a6.35 6.35 0 01-.9-1.6c0-.18.56-.32 1.26-.32 1.26 0 1.26 0 1.53-1.28l.26-1.28 2.84 4.22c1.92 2.87 2.83 4.49 2.83 5.05 0 .92-.55 2.3-.9 2.3-.14 0-.9-.95-1.7-2.1zm-110.26.71a2 2 0 01-.5-1.1c0-.83 4.71-7.68 5.29-7.68.3 0 .56.32.67.85.15.68.37.88 1.05.95l.85.09-2.55 3.63c-2.21 3.17-2.66 3.65-3.43 3.72-.58.06-1.05-.1-1.38-.46zm89.75-4.64c.1-.44.32-1.29.48-1.89l.28-1.1 1.74 1.18c.95.65 1.73 1.23 1.73 1.3 0 .13-3.8 1.31-4.2 1.31-.13 0-.14-.36-.03-.8zm-17.97-2.84a160.86 160.86 0 01-2.68-3.03l-.72-.85 7.6-8.31c8.18-8.95 7.65-8.54 9.64-7.53 1.98 1.01 4.35 4.54 4.77 7.13.15.94.01 1.12-2.71 3.74a100.17 100.17 0 01-13.19 10.55c-.74.47-.75.46-2.7-1.7zm-58.1-2.14l-1.1-.18 1.53-1.8c.84-.99 1.6-1.8 1.7-1.81.17-.02 1.14 3.18 1.14 3.75 0 .32-1.46.33-3.28.04zm49.92-3.47c-3.47-1.2-6.67-3.13-6.5-3.94.06-.25 3.64-5.1 7.95-10.79l7.85-10.34 1.67.15c2.48.22 3.57.79 4.58 2.38 1.03 1.63 2.08 4.28 2.14 5.41.03.65-1.32 2.4-7.22 9.36-4 4.7-7.47 8.56-7.7 8.56-.25 0-1.5-.36-2.77-.8zm30.74-1.65a12.12 12.12 0 01-1.53-2.1c0-.29 2.62-1.62 2.82-1.43.19.19.57 5.42.4 5.4a15.7 15.7 0 01-1.69-1.87zm8.94.23c0-1.08.6-6.87.73-7 .04-.06.82.32 1.72.83l1.64.92-.5.77-2.04 3.09c-1.45 2.18-1.55 2.26-1.55 1.39zm-99-3.25l-.9-2.87 1.3-.18c1.6-.22 4.13-.23 4.13-.02 0 .27-3.32 5.95-3.48 5.95-.08 0-.56-1.3-1.05-2.88zm45.8.73c-4.55-1.3-8.1-2.5-8.28-2.8-.23-.38 1.18-.53 6.69-.71 2.72-.1 5.96-.34 7.2-.55 1.25-.21 2.34-.27 2.42-.14.48.78-2.98 5.2-4.05 5.17-.35-.01-2.14-.45-3.98-.97zm-36.45-3.26c1.16-2.63 1.86-3.9 2.14-3.9.25 0 2.05 2.12 2.05 2.42 0 .16-4.52 3.1-4.76 3.1-.08 0 .18-.73.57-1.62zm47.22-6.83c0-.74-.1-2.35-.2-3.58l-.19-2.24-3.46-2.05c-2.1-1.24-3.42-2.2-3.37-2.44.05-.22 1.76-2.76 3.8-5.64l3.71-5.24h1.8c3.13 0 5.06 1.41 7.09 5.2 1.06 2 1.06 3.49-.01 5.69-.9 1.82-4.81 6.98-7.44 9.8l-1.71 1.84-.02-1.34zM83.14 13.4c-.02-.88 5.58-8.77 8.49-11.98C92.94-.02 92.95-.03 94.68.01c3.09.07 5.54 1.98 6.8 5.3l.61 1.63-1.07 2.1c-1.83 3.57-6.14 9.7-6.78 9.65-3.53-1.93-7.8-2.94-11.1-5.29z"/>
  <path d="M22.22 158.26h.08l12.91 20.15h7.4v-32.47h-7.4v20.15h-.08l-12.9-20.16h-7.4v32.48h7.4v-20.16zm23.67 3.9c0 9.48 6.77 16.84 16.37 16.84 9.33 0 16.34-7.36 16.34-16.85 0-9.48-7.32-16.8-16.34-16.8-8.93 0-16.37 7.32-16.37 16.8zm7.99 0c0-4.85 2.67-9.69 8.38-9.69 5.75 0 8.35 4.84 8.35 9.68s-2.44 9.69-8.35 9.69c-6.06 0-8.38-4.84-8.38-9.69zm38.74-16.22v32.47h9.41c8.94 0 16.38-6.77 16.38-16.26 0-9.44-7.48-16.21-16.38-16.21h-9.4zm7.4 25.86v-19.25h1.15c5.5 0 9.25 4.21 9.25 9.64-.04 5.43-3.78 9.6-9.25 9.6h-1.15zm21.67-25.86v32.47h7.4v-12.83L139 178.4h9.4l-11.18-13.42c3.98-1.26 6.66-4.53 6.66-9.41 0-6.38-4.57-9.65-10.6-9.65h-11.6zm7.4 14.4v-8.5h.86c2.8 0 6.14.2 6.14 4.25 0 4.06-3.34 4.25-6.14 4.25h-.86z" font-family="League Spartan"/>
  <path d="M176.75 178.41h7.4l-2.92-32.47h-7.87l-7.2 18.73-7.2-18.73h-7.88l-2.91 32.47h7.4l1.53-19.25h.2l6.65 19.05h4.41l6.65-19.05h.2l1.54 19.25z" font-family="League Spartan"/>
</svg>
