<?xml version="1.0" encoding="UTF-8" standalone="no"?>
<svg
   width="150"
   height="137"
   fill="#303944"
   version="1.1"
   id="svg8"
   sodipodi:docname="no-drm.svg"
   inkscape:version="1.4.2 (f4327f4, 2025-05-13)"
   xmlns:inkscape="http://www.inkscape.org/namespaces/inkscape"
   xmlns:sodipodi="http://sodipodi.sourceforge.net/DTD/sodipodi-0.dtd"
   xmlns="http://www.w3.org/2000/svg"
   xmlns:svg="http://www.w3.org/2000/svg">
  <defs
     id="defs12" />
  <sodipodi:namedview
     id="namedview10"
     pagecolor="#505050"
     bordercolor="#eeeeee"
     borderopacity="1"
     inkscape:pageshadow="0"
     inkscape:pageopacity="0"
     inkscape:pagecheckerboard="0"
     showgrid="false"
     inkscape:zoom="22.627417"
     inkscape:cx="55.110135"
     inkscape:cy="93.890522"
     inkscape:window-width="2560"
     inkscape:window-height="1406"
     inkscape:window-x="-11"
     inkscape:window-y="-11"
     inkscape:window-maximized="1"
     inkscape:current-layer="svg8"
     inkscape:showpageshadow="2"
     inkscape:deskcolor="#d1d1d1" />
  <path
     style="stroke-width:0.765305"
     d="m 63.627534,10.255158 c -0.01531,-0.67347 4.270407,-6.711734 6.497448,-9.168365 1.00255,-1.10204098 1.010203,-1.10969398 2.334183,-1.07908098 2.364794,0.05358 4.239794,1.51530498 5.204079,4.05612098 l 0.466837,1.247448 -0.818877,1.607143 c -1.40051,2.732141 -4.698979,7.423467 -5.188774,7.385202 -2.70153,-1.477041 -5.969386,-2.25 -8.494896,-4.048468 z"
     id="path48" />
  <path
     style="stroke-width:0.765305"
     d="M79.439 23.556c-.0156-1.5917-.0921-2.8238-.314-5.4794l-2.648-1.5689c-1.6071-.949-2.6173-1.6837-2.5791-1.8673.0383-.1684 1.3469-2.1122 5.7475-8.3266h1.3775c2.3954 0 3.8724 1.0791 5.426 3.9796.8112 1.5306.8112 2.6709-.0077 4.3546-.6888 1.3929-3.6811 5.3418-5.6939 7.5Z"
     id="path47" />
  <path
     style="stroke-width:0.765305"
     d="M42.85 29c.85-2.58 1.8592-4.227 2.0735-4.227.1913 0 1.5688 1.6225 1.5688 1.8521 0 .1224-3.4591 2.3724-3.6428 2.3724Z"
     id="path46" />
  <path
     style="stroke-width:0.765305"
     d="m71.18 30.253c-3.4821-.9949-6.199-1.9133-6.3367-2.1429-.176-.2908.9031-.4056 5.1199-.5434 2.0816-.0765 4.5612-.2602 5.5102-.4209.9566-.1607 1.7908-.2066 1.852-.1071.3673.5969-2.2806 3.9796-3.0995 3.9566-.2552-.0072-.5739-.0865-3.0459-.7423z"
     id="path45"
     sodipodi:nodetypes="ccccscc" />
  <path
     style="stroke-width:0.765305"
     d="m 36.9336,31.898 c 0.1225,0 2.6633,-4.347 2.6633,-4.5536 0,-0.1607 -1.9639,-0.1944 -4.1556,0.1531 0.47895,1.472188 0.872167,2.984863 1.4923,4.4005 z"
     id="path44"
     sodipodi:nodetypes="sscs" />
  <path
     style="stroke-width:0.765305"
     d="m113.0816 31.1174c-1.1097 1.6684-1.1862 1.7296-1.1862 1.0638 0-.8266.4592-5.2577.5587-5.3572.0306-.0459.6275.2449 2.5714 1.3393z"
     id="path43" />
  <path
     style="stroke-width:0.765305"
     d="m 105.05355,32.005152 c -0.44677,-0.492209 -0.83933,-1.031018 -1.17092,-1.607142 0,-0.221939 2.00509,-1.239797 2.15816,-1.094388 0.14541,0.145408 0.43622,4.147958 0.30612,4.132651 -0.46878,-0.441607 -0.90129,-0.920189 -1.29336,-1.431121 z"
     id="path42" />
  <path
     style="stroke-width:0.765305"
     d="m 88.6454,14.082 1.278,0.11 c 1.898,0.1679 2.7322,0.6041 3.5051,1.8209 0.7883,1.2475 1.5919,3.2755 1.6378,4.1403 0.023,0.4975 -1.0102,1.8368 -5.5255,7.1633 -3.0612,3.5969 -5.7168,6.551 -5.8929,6.551 -0.935814,0 -7.332982,-2.483504 -7.0943,-3.6199 0.0459,-0.1913 2.7857,-3.9031 6.0841,-8.2576 z"
     id="path41"
     sodipodi:nodetypes="cccccsccc" />
  <path
     style="stroke-width:0.765305"
     d="M42.4821 35.7858c.7945-.9482 1.5887-1.9018 2.472-2.7628.1301-.0153.8724 2.4337.8724 2.8699 0 .2449-1.1173.2526-2.5102.0306Z"
     id="path40" />
  <path
     style="stroke-width:0.765305"
     d="M91.0025 28.2322c6.2602-6.8495 5.8546-6.5357 7.3776-5.7628 1.5153.773 3.3291 3.4745 3.6505 5.4567.1148.7194.008.8571-2.074 2.8622-3.1315 2.9707-6.5083 5.6717-10.0944 8.074-.5663.3597-.574.352-2.0663-1.301-.701-.7644-1.3848-1.5374-2.6059-2.9613Z"
     id="path39" />
  <path
     style="stroke-width:0.765305"
     d="M102.1224 37.4465C104.1811 38.847 104.778 39.2909 104.778 39.3444 104.778 39.4439 101.8699 40.347 101.5637 40.347 101.4642 40.347 101.4566 40.0715 101.54 39.73Z"
     id="path38" />
  <path
     style="stroke-width:0.765305"
     d="M32.4719 42.4439c0-.6352 3.6046-5.8775 4.0485-5.8775.2296 0 .4286.2449.5128.6505.1148.5204.2831.6735.8035.727l.6505.0689C34.9 43.3 34.5 43.5842 33.9107 43.6378c-1.0909.1128-1.3938-.8194-1.4388-1.1939Z"
     id="path37"
     sodipodi:nodetypes="cscccccc" />
  <path
     style="stroke-width:0.765305"
     d="m 117.23722,42.742393 c -1.4847,-2.142856 -1.87501,-2.533162 -2.64796,-2.693876 -0.45153,-0.08418 -0.87246,-0.443878 -1.33929,-1.125 -0.28769,-0.372646 -0.51971,-0.785118 -0.68878,-1.224489 0,-0.137755 0.42858,-0.244898 0.96429,-0.244898 0.96429,0 0.96429,0 1.17092,-0.979592 l 0.19898,-0.979592 2.17346,3.229592 c 1.46939,2.196428 2.16582,3.436223 2.16582,3.864795 0,0.704081 -0.42092,1.760203 -0.68878,1.760203 -0.10714,0 -0.68877,-0.727041 -1.30101,-1.607143 z"
     id="path36" />
  <path
     style="stroke-width:0.765305"
     d="m 111.70405,47.625045 c -0.44387,-0.206632 -3.82653,-4.92857 -4.16326,-5.793365 -0.0765,-0.19898 0.14541,-0.252551 0.78826,-0.191327 0.88011,0.08418 0.89541,0.07653 0.91837,-0.658163 0.0153,-0.405612 0.0918,-0.979591 0.16837,-1.27806 0.13776,-0.482144 0.2449,-0.382654 1.20152,1.056122 0.43089,0.585443 0.78577,1.223187 1.05613,1.897958 0,0.457644 1.77765,2.818255 2.67092,4.561223 0,0.260205 -1.04847,0.696429 -1.62245,0.681122 -0.35226,-0.02954 -0.69669,-0.120184 -1.01786,-0.267857 z"
     id="path35"
     sodipodi:nodetypes="ccccccccccc" />
  <path
     style="stroke-width:0.765305"
     d="M29.4413 44.6327c1.0408-1.3699 1.9439-2.6786 2.0204-2.9082.2529-.5339.5579-1.0414.9107-1.5153.7118-.9949.7424-1.1097.398-1.3622-.5281-.3827-1.8673-.3444-2.4796.0765-.7806.5434-6.9337 8.9388-6.9337 9.4592 0 .2526.1531.2143 4.1939-1.2628Z"
     id="path34" />
  <path
     style="stroke-width:0.765305"
     d="m 119.05099,51.987289 c -0.44388,-0.17602 -6.26785,-9.145405 -6.26785,-9.642854 0,-0.551021 0.7653,-1.331633 1.30101,-1.331633 0.21429,0 0.55867,0.130102 0.75001,0.283163 0.61223,0.47449 6.18367,9.061222 6.18367,9.520407 0,0.880101 -1.07144,1.522958 -1.96684,1.170917 z"
     id="path33" />
  <path
     style="stroke-width:0.765305"
     d="m 130.95915,52.23984 c -1.30102,-0.780612 -2.70918,-1.017857 -3.18368,-0.535714 -0.15305,0.145408 -0.99489,-0.107143 -2.62499,-0.788265 -0.90014,-0.406423 -1.83177,-0.739147 -2.78572,-0.994898 -0.23724,0 -0.79592,-0.612244 -1.42346,-1.561224 -0.97194,-1.454082 -1.00256,-1.561224 -0.6046,-1.77551 0.75765,-0.405612 1.29337,-0.260204 5.74745,1.568877 5.77041,2.372449 5.80101,2.387754 6.17602,3.114795 0.34438,0.658164 0.44387,1.760204 0.15306,1.752551 -0.0842,0 -0.74235,-0.359694 -1.45408,-0.780612 z"
     id="path32" />
  <path
     style="stroke-width:0.765305"
     d="M37.1173 41.8776l.3368.5128c.574.8877.6275 1.5765.1913 2.426-.2296.4438-1.7066 2.5637-3.2908 4.7219-3.2755 4.4617-3.9031 4.9668-5.3878 4.3699-.4544-.221-.8852-.4877-2.0668-1.3852 1.8009-.6981 2.286-.9705 2.7097-1.324.1913-.3367.6658-1.0102 2.8699-4.0561 1.0102-1.4082 1.9132-2.426 2.2959-2.5867.5854-.3864 1.0876-.886 1.477-1.4694Z"
     id="path31" />
  <path
     style="stroke-width:0.765305"
     d="m 17.52,52.1 c -0.83749,0.718828 -0.218607,2.22845 0.7708,2.2597 0.7271,0 10.2781,-3.5663 10.5689,-3.9489 0.6428,-0.8342 0.0995,-2.1123 -0.8954,-2.1123 -0.7271,0 -9.907323,3.340606 -10.4443,3.8015 z"
     id="path30"
     sodipodi:nodetypes="scscs" />
  <path
     style="stroke-width:0.765305"
     d="m 8.1735,54.398 c -1.1831034,1.403853 0.6834867,4.258733 0.9489,4.148 0.4571,-0.4642 0.8744,-0.966 1.2475,-1.5 0.8571,-1.1403 1.5459,-1.7296 3.2908,-2.8164 1.5077,-0.9489 2.2806,-1.5765 2.4643,-2.0127 0.3673,-0.8648 0.7347,-1.1327 2.602,-1.8597 0.8878,-0.3444 1.6454,-0.7271 1.6837,-0.8495 0.1454,-0.4133 -1.102,-1.148 -1.9439,-1.148 -0.6581,0 -1.6989,0.5358 -5.3571,2.7934 -2.5026,1.5383 -4.7219,3 -4.9397,3.2469 z"
     id="path29"
     sodipodi:nodetypes="cccccccsccc" />
  <path
     style="stroke-width:0.765305"
     d="m 124.91323,58.239842 c -7.3852,-3.091839 -7.23979,-3.015309 -7.57653,-3.673472 -0.36734,-0.711735 -0.42091,-1.928571 -0.0995,-2.42602 0.17601,-0.283163 0.2602,-0.260204 0.55101,0.153061 0.40561,0.581633 1.71429,1.04847 2.3495,0.841837 0.28315,-0.09184 0.61224,-0.01531 0.84183,0.191326 0.47449,0.428572 5.73979,2.594388 6.30612,2.594388 0.49745,0 3.29082,1.561224 3.29082,1.836734 0,0.765303 -1.3699,1.744903 -2.37246,1.706633 -0.22959,-0.008 -3.29079,-1.224487 -3.29079,-1.224487 z"
     id="path28"
     sodipodi:nodetypes="ccccccsscc" />
  <path
     style="stroke-width:0.765305"
     d="m 127.94385,54.704126 c -0.55583,-0.535228 -0.40298,-2.17347 0.91071,-2.17347 0.29846,0 2.60204,1.186224 5.12754,2.640306 4.27041,2.456631 5.05102,3.061227 5.05102,3.872447 0,0.40561 -0.88775,1.10204 -1.3852,1.10204 -0.47381,0 -9.21444,-4.951651 -9.70407,-5.441323 z"
     id="path27"
     sodipodi:nodetypes="scscss" />
  <path
     style="stroke-width:0.765305"
     d="m 12.4056,62.3725 h 0.5816 c 0.6658,0 9.0612,-5.0434 9.8724,-5.9311 0.5051,-0.5587 0.7117,-2.1429 0.3061,-2.3954 -0.3138,-0.1913 -3.381612,1.050173 -4.699,1.9056 -0.707915,0.459675 -1.4286,0.8994 -2.1582,1.324 -0.5204,0.2908 -0.9873,0.7423 -1.0561,0.9949 -0.215,0.5191 -0.5009,1.0058 -0.8525,1.4496 z"
     id="path26"
     sodipodi:nodetypes="csccscccc" />
  <path
     style="stroke-width:0.765305"
     d="m 144.08414,65.931169 c -0.1792,-0.564003 -0.50388,-1.070818 -0.94132,-1.46939 -0.30613,-0.19899 -0.55103,-0.47449 -0.55103,-0.61225 0,-0.13775 -0.53571,-1.22449 -1.20152,-2.42602 -0.52848,-0.903965 -0.97909,-1.851259 -1.34694,-2.83163 -0.22959,-0.994898 -0.87245,-1.668366 -2.44898,-2.548469 -0.51238,-0.256937 -0.99926,-0.561872 -1.45408,-0.910714 0,-0.05358 0.5051,-0.344387 1.1097,-0.650509 1.27806,-0.650511 2.57907,-0.719389 3.26019,-0.168368 0.26786,0.214286 1.65307,2.517857 3.09185,5.12755 2.43366,4.42347 2.60203,4.79846 2.47958,5.66326 -0.10714,0.8495 -0.91836,1.94388 -1.44642,1.94388 -0.0842,0 -0.33673,-0.50511 -0.55103,-1.11734 z"
     id="path25" />
  <path
     style="stroke-width:0.765305"
     d="m 5.56,65.77 c 0.0038,-0.3975 5.0165,-7.4842 6.3022,-8.9001 0.8266,-0.9183 2.3725,-0.4132 2.3725,0.773 0,0.398 -4.9668,7.4158 -6.2985,8.9005 C 7.037048,67.55658 5.5760357,66.837639 5.56,65.77 Z"
     id="path24"
     sodipodi:nodetypes="ccscc" />
  <path
     style="stroke-width:0.765305"
     d="m138.08 69.04c-.6-.47-5.72-9.49-5.72-10.09 0-.24.54-.03 1.95.78 1.07.62 2.07 1.22 2.21 1.35.48.4 2.74 4.7 2.74 5.23 0 .28.2 1.04.44 1.68.24.64.44 1.24.44 1.33 0 .36-1.53.15-2.07-.28z"
     id="path23" />
  <path
     style="stroke-width:0.765305"
     d="M6.2143 60.7194c-.8044-.3836-2.2273-.2949-2.9694.8036C2.7704 62.2577 0 71.4414 0 72.3062c0 .8954.9031 2.0051 1.852 2.2729.3903.1225.796.2216.9031.2296.1071.0077.1454-.5204.0765-1.1786-.0842-.8112-.0229-1.3928.1914-1.8061.1683-.3291.3137-.7653.3137-.9719.1409-.7277.3353-1.4439.5817-2.1429.3214-.9796.5663-2.1888.5586-2.6939-.0306-.9413.1-1.1785 2.1429-3.9643l.735-1Z"
     id="path22"
     sodipodi:nodetypes="cscccccccccccc" />
  <path
     style="stroke-width:0.765305"
     d="m 7.7831612,75.045959 c 0,-0.49745 -0.1071428,-1.59184 -0.2295918,-2.43367 -0.2350465,-1.041703 -0.1496797,-2.130129 0.2448979,-3.12245 0.390306,-1.28572 0.8571426,-2.08163 2.3265307,-4.02551 1.859693,-2.44133 2.112243,-2.57909 2.112243,-1.15561 0,0.72704 -2.8316313,10.02551 -3.2448965,10.67601 -0.1760203,0.27552 -0.520408,0.6046 -0.7653059,0.7347 -0.4056122,0.22194 -0.4438774,0.16836 -0.4438774,-0.67347 z"
     id="path21" />
  <path
     style="stroke-width:0.765305"
     d="M145.8673 76.7296c-.7423.6505-1.0714.6811-1.6673.1604-.4449-.39-3.8276-9.8798-3.8276-10.7369 0-.5051.8036-1.1097 1.4541-1.1097.2679 0 .6275.176.8189.3827.1836.2219 1.125 2.7244 2.0893 5.579l1.7602 5.1812Z"
     id="path20" />
  <path
     style="stroke-width:0.765305"
     d="m7.21 83.33-.51.42c-.71.57-1.24.52-1.78-.17-.3-.37-.47-.92-.47-1.5-.01-.51-.15-2.87-.33-5.26-.27-3.79-.27-4.4.01-4.84.39-.6 1.66-.69 2.1-.15.2.24.4 2.13.64 5.92Z"
     id="path19"
     sodipodi:nodetypes="cccccccc" />
  <path
     style="stroke-width:0.765305"
     d="m 142.7908,81.1301 -1.3546,1.6301 c -0.447,0.5691 -0.9248,1.1132 -1.4311,1.6301 -0.18525,-2.389846 0.0265,-4.821265 0.153,-7.2168 0.1684,-3.0153 0.3061,-4.125 0.5816,-4.5383 0.3521,-0.5433 0.3674,-0.5357 1.3393,2.097 0.949,2.5791 0.972,2.7092 0.8419,4.5229 z"
     id="path18"
     sodipodi:nodetypes="cccccccc" />
  <path
     style="stroke-width:0.765305"
     d="m 145.30864,86.211769 c -0.20663,-0.13775 -0.0459,-0.48214 0.64285,-1.33929 l 0.91837,-1.16326 c 0.0584,-2.409451 -0.007,-5.229636 0.36742,-7.21683 0.22193,-0.57398 0.16071,-0.95664 -0.41327,-2.64796 -0.25774,-0.669183 -0.45246,-1.360959 -0.58163,-2.06633 0.0541,-0.05408 1.59487,0.01338 2.34088,0.340533 0.56813,0.26705 0.97721,0.748011 1.41677,1.182397 l -0.16072,4.93623 c -0.19898,6.02295 -0.30612,6.73468 -1.22448,7.54591 -0.56633,0.5051 -0.89541,0.61225 -1.85205,0.61225 -0.64285,0 -1.29336,-0.0842 -1.45407,-0.18368 z"
     id="path17"
     sodipodi:nodetypes="scccccccccccs" />
  <path
     style="stroke-width:0.765305"
     d="m 12.673466,87.872479 c -0.903061,-0.61224 -1.989796,-1.64541 -2.9081624,-2.79336 L 8.2959162,83.257689 8.142855,80.900549 c -0.07653,-1.30102 -0.1071429,-2.38776 -0.07653,-2.42602 0.061225,-0.0536 3.665815,4.3699 5.663263,6.96428 0.933673,1.20153 1.178571,2.11225 0.818877,3.05358 -0.191326,0.48978 -0.252551,0.47448 -1.874999,-0.61991 z"
     id="path16" />
  <path
     style="stroke-width:0.765305"
     d="m 137.30353,91.469429 c -0.71938,-0.71174 -0.32143,-1.46939 2.87755,-5.44899 3.67347,-4.57652 3.82653,-4.7449 4.41582,-4.7449 0.59694,0 1.33163,0.77297 1.33163,1.40052 0,0.32142 -1.26276,2.06632 -3.45918,4.78316 -3.20664,3.97194 -3.5051,4.27806 -4.17857,4.27806 -0.39796,0 -0.84184,-0.12245 -0.9949,-0.26785 z"
     id="path15" />
  <path
     style="stroke-width:0.765305"
     d="m 6.54,91.93 c 0.33,0.37 0.71,0.68 1.14,0.92 1.0707825,0.514585 1.785004,-0.01522 2.569531,-0.600469 C 9.8295313,91.809531 9.33,91.41 8.81,91.1 7.35,90.11 6.9,89.48 6.9,88.45 6.9,88.03 6.41,87.23 5.32,85.88 3.55,83.69 3.34,83.15 3.34,81.01 c 0,-0.83 -0.07,-1.5 -0.15,-1.5 -0.48,0.26 -0.93,0.57 -1.35,0.92 -1.7,1.31 -2.2,2.43 -1.59,3.59 0.29,0.55 5.22,6.75 6.29,7.91 z"
     id="path14"
     sodipodi:nodetypes="ccsccscsccc" />
  <path
     style="stroke-width:0.765305"
     d="m124.5153 79.0867c.2296.2755-.1454.7653-2.1658 2.9082-1.1224 1.2203-2.3405 2.3489-3.6428 3.375-3.023 2.0051-7.7525 3.2908-16.8214 4.5918-8.7474 1.2551-14.7474 4.0025-20.3189 9.3138-1.3163 1.2628-2.0204 1.8214-1.7066 1.3623 3.3639-4.9004 8.1988-8.6043 13.806-10.5765 3.0602-1.0294 9.3829-1.8786 15.0612-4.1059 4.9303-1.62 8.7303-5.5027 10.873-11.3854z"
     id="path13"
     sodipodi:nodetypes="cccscccccc" />
  <path
     style="stroke-width:0.765305"
     d="m 32.78,74.57 c 2.462364,7.160434 6.987981,9.905462 10.9275,11.445 7.471134,2.919669 12.094982,2.368184 18.4725,5.545 3.1,1.53 5.87,3.67 8.12,6.3 1.12,1.26 2.8,3.44 2.63,3.42 -0.04,0 -1.06,-0.95 -2.26,-2.11 C 65.23,93.95 59.23,91.2 50.5,89.96 41.43,88.66 36.7,87.37 33.68,85.37 c -1.3,-1.03 -2.52,-2.16 -6.1,-5.95 z"
     id="path12"
     sodipodi:nodetypes="cccccccccc" />
  <path
     style="stroke-width:0.765305"
     d="m 77.0969,101.9465 c 0.4069,-0.5651 0.7974,-1.1419 1.1709,-1.7296 2.8546,-4.3316 6.9566,-8.1352 10.9974,-10.1786 l 1.102,-0.5587 -0.1913,-9.2755 C 90.0688,75.1072 89.9846,68.1888 89.9846,64.8215 V 58.699 c 4.4607,-7.0933 7.6729,-14.1646 7.8597,-23.3878 -0.0689,-0.398 -0.5893,-0.1224 -4.3852,2.2959 l -4.3087,2.7551 c -2.355,-2.2975 -4.6809,-4.7111 -7.7426,-6.0562 -4.6118,-2.1911 -8.4459,-2.6377 -10.7931,-2.6377 2.158,2.212 4.3932,4.3764 6.1568,6.93 4.1341,5.899 6.2029,13.8753 6.2029,14.1007 0,0.8801 -0.5893,0.0842 -1.7602,-2.3954 -2.8393,-5.9923 -4.699,-9.5663 -5.8163,-11.1735 -2.7857,-4.0408 -7.1862,-7.875 -13.0179,-11.3648 -0.3291,-0.199 -0.1684,-0.3138 1.0332,-0.7577 0.7883,-0.2832 1.5,-0.574 1.5765,-0.6505 -0.0074,-1.424331 -0.367299,-2.857262 -0.6276,-4.2627 l 1.2245,1.2628 c 1.7908,1.8291 3.551,2.602 6.2143,2.7168 1.920789,0.08426 6.336563,0.242179 6.6811,-5.3112 0.0689,-1.2398 0.023,-1.7372 -0.2066,-1.9209 C 77.8162,18.4669 63.6657,12.1837 61.806,11.5256 L 60.9718,11.2348 48.8801,28.2245 c 2.7611,5.378 4.243,7.8418 6.7031,11.7254 2.5916,4.0913 3.9925,6.2357 9.33,13.4149 l -7.9557,34.1287 c 0,0.0842 0.7194,0.3903 1.6071,0.6658 3.6861,1.1965 7.0951,3.1196 10.0255,5.6556 1.9611,1.8056 3.719,3.8201 5.2423,6.0077 0.2832,0.4592 0.5663,0.796 0.6199,0.7424 0.2372,-0.2372 4.8138,-34.9056 5.4031,-40.9668 0.3673,-3.727 0.4056,-3.8954 0.9184,-3.8954 0.3827,0 0.4251,0.1065 0.3214,0.7194 -0.2407,1.4229 -2.5561,23.5561 -4.0025,38.2117 -0.3061,3.1148 -0.5969,5.9924 -0.6582,6.3827 -0.0765,0.5281 0,0.7271 0.2755,0.8036 z"
     id="path11"
     sodipodi:nodetypes="cccsscscccccscccccccccccccscccccccscccccc" />
  <path
     style="stroke-width:0.765305"
     d="m 130.8367,86 c -2.41552,2.340133 -5.79973,5.409254 -13.2704,7.1072 -1.7296,0.3826 -3.1684,0.4745 -10.5612,0.6275 -8.8776,0.176 -10.4388,0.3291 -14.2347,1.3623 -3.2755,0.8801 -5.9924,2.3724 -9.2373,5.0663 -2.625,2.1735 -2.8928,2.2883 -0.8954,0.375 4.0952,-3.838 9.1073,-6.5601 14.5562,-7.9056 3.4941,-0.9079 11.2751,-1.4904 17.3265,-3.4745 3.8418,-1.2551 4.676,-1.7985 8.25,-5.3724 3.0842,-3.0919 3.2143,-3.1914 3.5969,-2.8011 z"
     id="path10"
     sodipodi:nodetypes="ccccccccccc" />
  <path
     style="stroke-width:0.765305"
     d="M21.56 86.07c4.3226 3.953 8.2793 5.9275 13.2538 7.0448 1.7143.3827 3.2219.4669 10.5688.6199 6.3827.1301 9.0689.2679 10.5613.5434 5.9158 1.0867 8.7551 2.449 13.6836 6.5587 1.0408.8648 1.9362 1.5765 1.9898 1.5765.2143 0-1.5229-1.6684-3.0995-2.9847-1.9297-1.6574-4.0614-3.064-6.3443-4.1862-3.8878-1.9516-6.8189-2.7857-12.7271-3.6352-7.0178-1.0102-11.4107-2.1123-14.7474-3.6888-1.7143-.8189-2.1888-1.2092-8.339-7.3584Z"
     id="path9"
     sodipodi:nodetypes="cccccccsccccsc" />
  <path
     style="stroke-width:0.765305"
     d="m 130.65,88.43 c -3.47,3.25 -7.58,5.3 -12.86,6.47 -5.28,1.19 -16.93,-0.21 -24.36,1.87 -2.65,0.7 -5.63,1.66 -11.57,6.98 -0.98,0.91 -0.48,0.59 1.16,-0.72 3.88,-3.12 9.59,-5.27 15.8,-5.94 3.87,-0.32 7.76,-0.29 11.63,0.1 4.65,0.43 11.35,0.43 14.23,-0.01 3.99329,-0.46688 7.83216,-1.769675 10.69,-4.52 l -0.81,-1.46 0.57,-0.42 c 0.32,-0.24 0.74,-0.74 0.94,-1.12 0.2,-0.39 0.81,-1.24 1.34,-1.9 1.03,-1.27 1,-1.57 -0.11,-1.59 -0.66,0 -1.17,0.28 -2.93,1.61 l -1.44,1.1 -1.19,-1.47 z"
     id="path8"
     sodipodi:nodetypes="ccccccccccsccccccc" />
  <path
     style="stroke-width:0.765305"
     d="m 68.403043,104.93881 c -3.318325,-1.90524 -7.22921,-3.28137 -9.100444,-3.4391 -0.919324,-0.0775 -2.233737,-0.0775 -4.797511,-0.0737 -12.280098,0.0514 -16.106633,2.10853 -26.255733,2.30453 -5.043406,0.0451 -10.572572,-0.41619 -15.040175,-2.52647 -0.420755,-0.19874 -0.375,-0.33673 0.01531,-1.377551 0.722291,-1.785669 1.631765,-3.48793 2.502551,-5.20408 l -1.02551,-0.74234 c -1.99208,-1.446331 -5.5726459,-3.766298 -6.2860318,-4.448346 -0.6357254,-0.607799 -0.5496171,-1.587945 0.155931,-2.056764 0.7407464,-0.492207 0.9566325,-0.38264 4.9515288,2.39542 1.760204,1.22448 3.313775,2.2653 3.459184,2.31121 0.137755,0.0536 0.727039,-0.62754 1.30102,-1.51529 0.530438,-0.815914 1.097338,-1.607536 1.698979,-2.37246 l 0.642857,-0.77296 c 4.293212,4.333656 9.746625,6.866565 15.704077,7.75256 5.379461,0.810569 13.472883,-0.294711 20.724484,1.1556 4.132652,0.82653 6.994896,2.14286 10.063773,4.599491 3.635203,2.90816 4.95153,4.20919 1.821428,1.78317 -3.788264,-2.931131 -9.367345,-4.974491 -15.374996,-5.617351 -3.07653,-0.33673 -7.339284,-0.29082 -11.785711,0.12245 -5.30357,0.4898 -12.93367,0.32143 -16.040812,-0.34439 -3.62755,-0.78826 -6.244897,-1.98214 -8.188774,-3.73469 -0.719387,-0.65051 -0.97959,-0.76531 -1.270407,-0.58164 -1.048469,0.65052 -0.306123,1.76021 2.265305,3.44388 4.874999,3.16837 12.344385,4.010201 25.278054,2.84695 7.423468,-0.67348 14.655609,0.34438 19.974485,2.801011 1.79847,0.83418 5.020407,2.8852 5.701529,3.64286 0.558674,0.61224 0.47449,0.58928 -1.094387,-0.35204 z"
     id="path7"
     sodipodi:nodetypes="cscssscccsscccccccsccccccccccc" />
  <path
     style="stroke-width:0.765305"
     d="m 82.7372,105.4592 c 0.8724,-0.9643 3.6582,-2.7857 5.8622,-3.8265 5.4949,-2.602 12.5128,-3.4821 21.3597,-2.6862 5.0663,0.4592 11.9924,0.4592 14.9541,0.0153 4.3699,-0.6582 7.5306,-1.8367 10.0102,-3.727 0.7806,-0.5969 1.4158,-0.9413 1.5306,-0.8189 0.1913,0.176 1.9133,-0.9719 2.0969,-1.4005 0.0459,-0.0918 0.2372,-0.1684 0.4362,-0.1684 0.1913,0 0.8724,-0.5587 2.6556,-2.4873 1.2762,1.6803 1.0791,2.5714 0.6658,3.3138 -1.2682,1.3464 -2.8277,2.3993 -4.301,3.5127 0.524,1.1963 1.0725,2.3839 1.4694,3.6275 0.007,0.45854 -4.49609,2.55245 -11.9448,2.96325 -7.82502,0.43154 -16.20567,-1.7228 -26.44004,-2.36194 -5.189203,-0.32406 -8.467366,-0.0247 -11.66626,1.02874 -1.547002,0.50947 -5.4337,2.3725 -6.551,3.1377 l -0.6811,0.4745 z"
     id="path5"
     sodipodi:nodetypes="cccccccsccccccsccc" />
  <path
     style="stroke-width:0.765305"
     d="M 140.9311,107.1965 112,107.26 c -19.3827,0.036 -28.3367,-0.0175 -28.2449,-0.1783 4.012307,-2.65763 8.788718,-4.08106 13.4158,-4.0026 3.7653,0 8.8928,0.4669 16.2857,1.4771 3.1148,0.4209 7.0179,0.8724 8.6709,0.9949 5.2041,0.3979 11.1123,-0.3062 15.3367,-1.8215 2.6939,-0.9719 2.7016,-0.9643 3.046,0.3521 0.28341,1.017 0.34895,2.06787 0.4209,3.1148 z"
     id="path3"
     sodipodi:nodetypes="csscccccc" />
  <path
     style="stroke-width:0.765305"
     d="m 11.364793,106.69901 c 0.0077,-0.33674 0.183673,-1.31632 0.390306,-2.17347 0.443877,-1.82908 0.359694,-1.80612 3.176019,-0.79592 5.969387,2.14286 12.612242,2.44898 22.354587,1.03316 7.943875,-1.14795 12.237241,-1.53061 17.326525,-1.55356 4.760203,-0.0153 4.95153,0 6.895407,0.61224 1.10204,0.33673 3.007651,1.10204 4.232141,1.69133 4.071428,1.96684 6.772958,1.78316 -25.637748,1.79081 H 11.341834 Z"
     id="path1" />
  <path
     style="stroke-width:0.765305"
     d="m 71.6326,107.2424 c 0,-0.41522 1.528841,-3.48721 4.257072,-3.65641 1.841061,-0.11417 3.957009,1.46072 4.834828,3.94721 0,0 -9.0675,0.15264 -9.0919,-0.2908 z"
     id="path2"
     sodipodi:nodetypes="cccc" />
  <path
     d="m 17.005098,121.11737 h 0.06122 l 9.880099,15.42092 h 5.663264 v -24.84948 h -5.663264 v 15.42091 h -0.06122 l -9.872446,-15.42857 h -5.663265 v 24.85714 h 5.663265 v -15.42857 z m 18.114791,2.9847 c 0,7.2551 5.18112,12.88775 12.528058,12.88775 7.140304,0 12.505099,-5.63265 12.505099,-12.89541 0,-7.2551 -5.60204,-12.85713 -12.505099,-12.85713 -6.834182,0 -12.528058,5.60203 -12.528058,12.85713 z m 6.114794,0 c 0,-3.71174 2.043367,-7.41581 6.413264,-7.41581 4.400508,0 6.390304,3.70407 6.390304,7.40815 0,3.70409 -1.867346,7.41582 -6.390304,7.41582 -4.637754,0 -6.413264,-3.70408 -6.413264,-7.41582 z m 29.647951,-12.41326 v 24.84948 h 7.201529 c 6.841835,0 12.535711,-5.18112 12.535711,-12.44388 0,-7.22448 -5.724488,-12.4056 -12.535711,-12.4056 h -7.193876 z m 5.663263,19.79081 V 116.74748 H 77.426 c 4.209182,0 7.07908,3.22194 7.07908,7.37755 -0.03062,4.15561 -2.892857,7.34693 -7.07908,7.34693 h -0.880103 z m 16.58418,-19.79081 v 24.84948 h 5.663263 v -9.81888 l 7.58418,9.81122 h 7.19388 l -8.55612,-10.2704 c 3.04592,-0.96428 5.09694,-3.46684 5.09694,-7.20153 0,-4.88265 -3.49745,-7.3852 -8.11225,-7.3852 h -8.877546 z m 5.663263,11.0204 v -6.5051 h 0.658164 c 2.142856,0 4.698986,0.15306 4.698986,3.25255 0,3.10714 -2.55613,3.25255 -4.698986,3.25255 z"
     font-family="'League Spartan'"
     id="path4"
     style="stroke-width:0.765305"
     sodipodi:nodetypes="ccccccccccccccsssssscsssccccsssccccscscccccccccssccccsssc" />
  <path
     d="m 135.26782,136.53829 h 5.66327 l -2.2347,-24.84948 h -6.02295 l -5.5102,14.33417 -5.51022,-14.33417 h -6.0306 l -2.22704,24.84948 h 5.66326 l 1.17092,-14.73214 h 0.15306 l 5.08928,14.57907 h 3.37501 l 5.08928,-14.57907 h 0.15306 z"
     font-family="'League Spartan'"
     id="path6"
     style="stroke-width:0.765305" />
</svg>
