<?xml version="1.0" encoding="UTF-8" standalone="no"?>
<svg
   xmlns:dc="http://purl.org/dc/elements/1.1/"
   xmlns:cc="http://creativecommons.org/ns#"
   xmlns:rdf="http://www.w3.org/1999/02/22-rdf-syntax-ns#"
   xmlns:svg="http://www.w3.org/2000/svg"
   xmlns="http://www.w3.org/2000/svg"
   id="svg4"
   viewBox="0 0 10 10"
   version="1.1"
   height="10"
   width="10">
  <metadata
     id="metadata10">
    <rdf:RDF>
      <cc:Work
         rdf:about="">
        <dc:format>image/svg+xml</dc:format>
        <dc:type
           rdf:resource="http://purl.org/dc/dcmitype/StillImage" />
        <dc:title></dc:title>
      </cc:Work>
    </rdf:RDF>
  </metadata>
  <defs
     id="defs8" />
  <path
     id="path2"
     d="M 1.875 0 C 0.84 0 0 0.84 0 1.875 L 0 8.125 C 0 9.16 0.84 10 1.875 10 L 8.125 10 C 9.16 10 10 9.16 10 8.125 L 10 1.875 C 10 0.84 9.16 0 8.125 0 L 1.875 0 z M 3.3125 2 L 5.7050781 2 C 5.8539062 2 5.9960936 2.0605471 6.1015625 2.1660156 L 7.0839844 3.1484375 C 7.1894531 3.2527344 7.25 3.3960938 7.25 3.5449219 L 7.25 7.4375 C 7.25 7.7480468 6.9980468 8 6.6875 8 L 3.3125 8 C 3.0019531 8 2.75 7.7480468 2.75 7.4375 L 2.75 2.5625 C 2.75 2.2519531 3.0019531 2 3.3125 2 z M 3.3125 2.5625 L 3.3125 7.4375 L 6.6875 7.4375 L 6.6875 4.0625 L 5.46875 4.0625 C 5.3128906 4.0625 5.1875 3.9371094 5.1875 3.78125 L 5.1875 2.5625 L 3.3125 2.5625 z M 5.75 2.6074219 L 5.75 3.5 L 6.6425781 3.5 L 5.75 2.6074219 z M 4.015625 4.765625 L 5.984375 4.765625 C 6.061718 4.765625 6.125 4.828907 6.125 4.90625 L 6.125 5.234375 C 6.125 5.3117182 6.0617185 5.375 5.984375 5.375 L 4.015625 5.375 C 3.9382818 5.375 3.875 5.3117185 3.875 5.234375 L 3.875 4.90625 C 3.875 4.828907 3.938281 4.765625 4.015625 4.765625 z M 4.015625 5.75 L 5.984375 5.75 C 6.0617185 5.75 6.125 5.8132818 6.125 5.890625 L 6.125 6.21875 C 6.125 6.2960935 6.0617182 6.359375 5.984375 6.359375 L 4.015625 6.359375 C 3.938281 6.359375 3.875 6.296093 3.875 6.21875 L 3.875 5.890625 C 3.875 5.8132815 3.9382818 5.75 4.015625 5.75 z "
     style="fill:#222222;fill-opacity:1" />
</svg>
