<?xml version="1.0" encoding="UTF-8" standalone="no"?>
<svg
   xmlns:dc="http://purl.org/dc/elements/1.1/"
   xmlns:cc="http://creativecommons.org/ns#"
   xmlns:rdf="http://www.w3.org/1999/02/22-rdf-syntax-ns#"
   xmlns:svg="http://www.w3.org/2000/svg"
   xmlns="http://www.w3.org/2000/svg"
   height="10"
   width="10"
   id="svg4"
   version="1.1"
   viewBox="0 0 10 10">
  <metadata
     id="metadata10">
    <rdf:RDF>
      <cc:Work
         rdf:about="">
        <dc:format>image/svg+xml</dc:format>
        <dc:type
           rdf:resource="http://purl.org/dc/dcmitype/StillImage" />
        <dc:title></dc:title>
      </cc:Work>
    </rdf:RDF>
  </metadata>
  <defs
     id="defs8" />
  <!-- Font Awesome Free 5.15.1 by @fontawesome - https://fontawesome.com License - https://fontawesome.com/license/free (Icons: CC BY 4.0, Fonts: SIL OFL 1.1, Code: MIT License) -->
  <path
     style="stroke-width:0.01953125"
     id="path2"
     d="M 6.875,4.84375 V 5.390625 C 6.875,5.5195312 6.7695312,5.625 6.640625,5.625 H 3.359375 C 3.2304687,5.625 3.125,5.5195312 3.125,5.390625 V 4.84375 c 0,-0.1289063 0.1054687,-0.234375 0.234375,-0.234375 h 3.28125 C 6.7695312,4.609375 6.875,4.7148437 6.875,4.84375 Z M 6.640625,6.25 H 3.359375 C 3.2304687,6.25 3.125,6.3554687 3.125,6.484375 V 7.03125 c 0,0.1289062 0.1054687,0.234375 0.234375,0.234375 h 3.28125 C 6.7695312,7.265625 6.875,7.1601562 6.875,7.03125 V 6.484375 C 6.875,6.3554687 6.7695312,6.25 6.640625,6.25 Z M 8.75,2.5761719 V 9.0625 C 8.75,9.5800781 8.3300781,10 7.8125,10 H 2.1875 C 1.6699219,10 1.25,9.5800781 1.25,9.0625 V 0.9375 C 1.25,0.41992188 1.6699219,0 2.1875,0 H 6.1738281 C 6.421875,0 6.6601562,0.09960937 6.8359375,0.27539063 L 8.4746094,1.9140625 C 8.6503906,2.0878906 8.75,2.328125 8.75,2.5761719 Z m -2.5,-1.5625 V 2.5 H 7.7363281 Z M 7.8125,9.0625 V 3.4375 H 5.78125 C 5.5214844,3.4375 5.3125,3.2285156 5.3125,2.96875 V 0.9375 h -3.125 v 8.125 z" />
</svg>
