<?xml version="1.0" encoding="UTF-8" standalone="no"?>
<svg
   xmlns:dc="http://purl.org/dc/elements/1.1/"
   xmlns:cc="http://creativecommons.org/ns#"
   xmlns:rdf="http://www.w3.org/1999/02/22-rdf-syntax-ns#"
   xmlns:svg="http://www.w3.org/2000/svg"
   xmlns="http://www.w3.org/2000/svg"
   xmlns:xlink="http://www.w3.org/1999/xlink"
   id="svg4"
   viewBox="0 0 10 10"
   version="1.1"
   height="10"
   width="10">
  <metadata
     id="metadata10">
    <rdf:RDF>
      <cc:Work
         rdf:about="">
        <dc:format>image/svg+xml</dc:format>
        <dc:type
           rdf:resource="http://purl.org/dc/dcmitype/StillImage" />
        <dc:title></dc:title>
      </cc:Work>
    </rdf:RDF>
  </metadata>
  <defs
     id="defs8">
    <linearGradient
       gradientTransform="matrix(0.01140518,0,0,0.01140518,0.80663714,-2.0231441)"
       gradientUnits="userSpaceOnUse"
       xlink:href="#linearGradient4651"
       id="linearGradient4657"
       y2="615.79572"
       x2="612.8244"
       y1="615.79572"
       x1="122.51934" />
    <linearGradient
       id="linearGradient4651">
      <stop
         offset="0"
         style="stop-color:#ffffff;stop-opacity:1"
         id="stop4653" />
      <stop
         offset="1"
         style="stop-color:#c4c4c4;stop-opacity:1"
         id="stop4655" />
    </linearGradient>
  </defs>
  <path
     id="path2"
     d="M 1.875 0 C 0.84 0 0 0.84 0 1.875 L 0 8.125 C 0 9.16 0.84 10 1.875 10 L 8.125 10 C 9.16 10 10 9.16 10 8.125 L 10 1.875 C 10 0.84 9.16 0 8.125 0 L 1.875 0 z M 4.9667969 2.203125 A 0.37655092 0.37655092 0 0 1 5.2402344 2.8496094 L 3.1132812 4.9765625 L 5.0253906 6.8886719 L 6.8867188 5.0273438 L 6.2519531 4.3925781 L 5.0527344 5.59375 A 0.37655092 0.37655092 0 1 1 4.5195312 5.0605469 L 5.9863281 3.59375 A 0.37655092 0.37655092 0 0 1 6.5175781 3.59375 L 7.6855469 4.7617188 A 0.37655092 0.37655092 0 0 1 7.6855469 5.2949219 L 5.2929688 7.6875 A 0.37655092 0.37655092 0 0 1 4.7597656 7.6875 L 2.3144531 5.2421875 A 0.37655092 0.37655092 0 0 1 2.3144531 4.7089844 L 4.7070312 2.3164062 A 0.37655092 0.37655092 0 0 1 4.9667969 2.203125 z "
     style="fill:#222222;fill-opacity:1" />
</svg>
