<?xml version="1.0" encoding="UTF-8" standalone="no"?>
<svg
   xmlns="http://www.w3.org/2000/svg"
   version="1.0"
   width="10"
   height="10"
   viewBox="0 0 100 100"
   preserveAspectRatio="xMidYMid meet">
  <path
     style="fill:#222222;fill-opacity:1;stroke:none;stroke-width:1;stroke-miterlimit:4;stroke-dasharray:none;stroke-dashoffset:0;stroke-opacity:1"
     d="M 2.0214844 0 C 1.0081363 -0.091264911 0.0326516 0.75513485 0.0078125 1.7773438 C 0.0021314999 3.8456218 0.00552225 5.9140924 0.00390625 7.9824219 C -0.08735885 8.9957698 0.76099326 9.9732076 1.7832031 9.9980469 C 3.8514813 10.003728 5.9199516 9.998387 7.9882812 10 C 9.0016294 10.091264 9.9771137 9.242912 10.001953 8.2207031 C 10.007633 6.1052846 10.002256 3.99047 10.003906 1.875 C 10.021414 0.90005908 9.2003093 0.034763895 8.2265625 0.001953125 C 6.1582847 -0.0037279751 4.0898138 0.0016161003 2.0214844 0 z M 5.0214844 2.0039062 C 5.08472 2.0072602 5.1459201 2.0288446 5.203125 2.0683594 C 5.3786721 2.1897109 5.4324936 2.3661102 5.3515625 2.5546875 C 5.3287138 2.6079 4.8875916 3.066669 4.1484375 3.8046875 C 3.4454079 4.5066185 2.9804688 4.9887482 2.9804688 5.015625 C 2.9804688 5.0701903 4.9458375 7.0507812 5 7.0507812 C 5.0551245 7.0507812 7.0214844 5.0711035 7.0214844 5.015625 C 7.0214844 4.9677112 6.3571575 4.2851562 6.3105469 4.2851562 C 6.2961649 4.2851562 6.0517867 4.5161595 5.7675781 4.7988281 C 5.0806866 5.4820445 4.8685135 5.5639289 4.6621094 5.2246094 C 4.5179968 4.9877012 4.5702496 4.8973086 5.2773438 4.1855469 C 6.3934947 3.0620313 6.222657 3.0722322 7.2265625 4.0722656 C 8.0226208 4.8652213 8.0465403 4.8986837 7.9726562 5.1210938 C 7.924915 5.2648126 5.3257804 7.8838784 5.1640625 7.9511719 C 4.8926248 8.0641581 4.9199607 8.0856781 3.40625 6.5742188 C 1.905839 5.07604 1.9527962 5.1318002 2.03125 4.8945312 C 2.0740846 4.7650288 4.6516259 2.1462565 4.8320312 2.0488281 C 4.8935653 2.0156267 4.9582487 2.0005523 5.0214844 2.0039062 z "
     transform="scale(9.9999999,9.9999999)" />
</svg>
