<?xml version="1.0" encoding="UTF-8"?>
<svg width="10" height="10" version="1.0" viewBox="0 0 100 100" xmlns="http://www.w3.org/2000/svg">
	<path transform="scale(10)" d="m2.0215 0c-1.0133-0.091265-1.9888 0.75513-2.0137 1.7773-0.005681 2.0683-0.0022902 4.1367-0.0039062 6.2051-0.091265 1.0133 0.75709 1.9908 1.7793 2.0156 2.0683 0.0056811 4.1367 3.401e-4 6.2051 0.0019531 1.0133 0.091264 1.9888-0.75709 2.0137-1.7793 0.00568-2.1154 3.03e-4 -4.2302 0.001953-6.3457 0.017508-0.97494-0.8036-1.8402-1.7773-1.873-2.0683-0.0056811-4.1367-3.3702e-4 -6.2051-0.0019531zm3 2.0039c0.063236 0.003354 0.12444 0.024938 0.18164 0.064453 0.17555 0.12135 0.22937 0.29775 0.14844 0.48633-0.022849 0.053212-0.46397 0.51198-1.2031 1.25-0.70303 0.70193-1.168 1.1841-1.168 1.2109 0 0.054565 1.9654 2.0352 2.0195 2.0352 0.055124 0 2.0215-1.9797 2.0215-2.0352 0-0.047914-0.66433-0.73047-0.71094-0.73047-0.014382 0-0.25876 0.231-0.54297 0.51367-0.68689 0.68322-0.89906 0.7651-1.1055 0.42578-0.14411-0.23691-0.09186-0.3273 0.61523-1.0391 1.1162-1.1235 0.94531-1.1133 1.9492-0.11328 0.79606 0.79296 0.81998 0.82642 0.74609 1.0488-0.047741 0.14372-2.6469 2.7628-2.8086 2.8301-0.27144 0.11299-0.2441 0.13451-1.7578-1.377-1.5004-1.4982-1.4535-1.4424-1.375-1.6797 0.042835-0.1295 2.6204-2.7483 2.8008-2.8457 0.061534-0.033201 0.12622-0.048276 0.18945-0.044922z" fill="#222"/>
</svg>
