<?xml version="1.0" encoding="UTF-8" standalone="no"?>
<svg
   xmlns="http://www.w3.org/2000/svg"
   height="16"
   width="16"
   version="1.1">
  <path
     d="M 14.857143,0 1.1428571,0 C 0.51160714,0 0,0.59687 0,1.33333 L 0,14.66667 C 0,15.40313 0.51160714,16 1.1428571,16 L 14.857143,16 C 15.488393,16 16,15.40313 16,14.66667 L 16,1.33333 C 16,0.59687 15.488393,0 14.857143,0 Z M 2.2857143,9.33333 4.5714286,6.66667 2.2857143,4 3.4285714,2.66667 l 3.4285715,4 -3.4285715,4 -1.1428571,-1.33334 z m 9.1428567,1.33334 -4.5714281,0 0,-1.33334 4.5714281,0 0,1.33334 z"
     style="fill:#ffffff;fill-opacity:1" />
</svg>
