<?xml version="1.0" encoding="UTF-8" standalone="no"?>
<svg
   xmlns:dc="http://purl.org/dc/elements/1.1/"
   xmlns:cc="http://creativecommons.org/ns#"
   xmlns:rdf="http://www.w3.org/1999/02/22-rdf-syntax-ns#"
   xmlns:svg="http://www.w3.org/2000/svg"
   xmlns="http://www.w3.org/2000/svg"
   id="svg4"
   viewBox="0 0 10 10"
   version="1.1"
   height="10"
   width="10">
  <metadata
     id="metadata10">
    <rdf:RDF>
      <cc:Work
         rdf:about="">
        <dc:format>image/svg+xml</dc:format>
        <dc:type
           rdf:resource="http://purl.org/dc/dcmitype/StillImage" />
        <dc:title></dc:title>
      </cc:Work>
    </rdf:RDF>
  </metadata>
  <defs
     id="defs8" />
  <path
     id="path2"
     d="M 1.875 0 C 0.84 0 0 0.84 0 1.875 L 0 8.125 C 0 9.16 0.84 10 1.875 10 L 8.125 10 C 9.16 10 10 9.16 10 8.125 L 10 1.875 C 10 0.84 9.16 0 8.125 0 L 1.875 0 z M 1.9980469 3.0644531 L 3.5175781 3.0644531 L 3.5175781 3.1953125 C 3.339133 3.2036244 3.0295724 3.3186377 3.109375 3.515625 C 3.3236078 3.977943 4.0821872 5.7679209 4.2871094 6.2226562 C 4.4301526 5.9427904 4.8297972 5.1963092 4.9941406 4.8808594 C 4.8652814 4.6164122 4.4402027 3.62961 4.3125 3.3808594 C 4.2161891 3.2187525 3.9732835 3.1980932 3.7871094 3.1953125 C 3.7871712 3.1536635 3.7900025 3.1233205 3.7890625 3.0664062 L 5.125 3.0703125 L 5.125 3.1914062 C 4.9441111 3.1964324 4.7721458 3.2627171 4.8496094 3.4355469 C 5.0292949 3.8085331 5.1336177 4.0749949 5.2988281 4.4199219 C 5.351595 4.318915 5.6231948 3.7651007 5.7519531 3.4726562 C 5.8298022 3.2784088 5.7121672 3.2060139 5.3867188 3.1972656 C 5.3909487 3.1653046 5.387845 3.1008994 5.390625 3.0703125 C 5.8059576 3.0687525 6.4338707 3.0661231 6.5449219 3.0644531 L 6.5449219 3.1914062 C 6.3329118 3.1996323 6.1145761 3.3130058 6 3.4882812 L 5.4433594 4.640625 C 5.5043564 4.7931788 6.0394146 5.9778062 6.0957031 6.109375 L 7.2441406 3.4589844 C 7.1624691 3.2443278 6.9007427 3.1977305 6.7988281 3.1953125 C 6.7996105 3.1611865 6.8004436 3.1078919 6.8007812 3.0644531 L 8 3.0742188 L 8.0019531 3.0800781 L 8 3.1933594 C 7.7369826 3.2012772 7.5737714 3.3436566 7.4765625 3.5742188 C 7.2376655 4.113869 6.5069857 5.8215994 6.0195312 6.9355469 C 6.0188626 6.9361036 5.8909015 6.9356585 5.890625 6.9355469 L 5.1230469 5.125 C 4.8184743 5.7225792 4.4801975 6.3445617 4.1914062 6.9355469 C 4.1897877 6.9386212 4.0527995 6.9354332 4.0527344 6.9335938 C 3.6113811 5.9036752 3.1544087 4.8806874 2.7109375 3.8515625 C 2.6080876 3.5999917 2.2463778 3.1949653 2 3.1972656 C 2 3.1680326 1.9985469 3.1039534 1.9980469 3.0644531 z "
     style="fill:#222222;fill-opacity:1" />
</svg>
