<?xml version="1.0" encoding="UTF-8" standalone="no"?>
<svg
   xmlns="http://www.w3.org/2000/svg"
   width="10"
   height="10"
   version="1.1">
  <g
     transform="matrix(0.02338593,0,0,0.02326758,0.21063462,-0.00505942)">
    <path
       style="opacity:1;fill:#222222;fill-opacity:1;fill-rule:evenodd;stroke:none;stroke-width:0.56465685;stroke-linecap:butt;stroke-linejoin:round;stroke-miterlimit:4;stroke-dasharray:none;stroke-dashoffset:0;stroke-opacity:1"
       d="M 4.96875 0 C 3.3810105 0.010558153 1.9764357 0.8358205 1.1171875 2.0976562 L 3.125 2.0976562 C 3.1550392 1.9243102 3.203171 1.7395162 3.359375 1.578125 C 3.453498 1.4645535 3.679634 1.4810592 3.8398438 1.4511719 C 3.9940189 1.4153072 4.2523507 0.99271391 4.5 0.8671875 C 4.8079024 1.0285786 5.1438293 1.2787705 5.3105469 1.4042969 C 5.6115208 1.1611015 5.8660981 0.738546 5.984375 1.0820312 C 6.0759534 0.91476081 6.233862 0.80842213 6.4082031 0.76367188 C 6.4892969 0.74285646 6.5976301 0.74649624 6.65625 0.74023438 C 6.723674 0.70735062 6.860674 0.6064892 6.9726562 0.57226562 C 6.9203819 0.6557039 6.8843652 0.78572509 6.8554688 0.93164062 C 6.8459057 0.9799873 6.8397125 1.0336799 6.8320312 1.0859375 C 6.8181817 1.1818521 6.8068493 1.2665043 6.7988281 1.3671875 C 6.7648097 1.7534907 6.7621929 2.1447914 6.7636719 2.2773438 C 6.7636719 2.2773438 6.765625 2.2773438 6.765625 2.2773438 C 7.0246625 2.3347989 7.3396783 2.2832743 7.4550781 2.0976562 L 8.8828125 2.0976562 C 8.0180095 0.82766291 6.6003747 -5.9211895e-16 5 0 C 4.9897202 0 4.9790146 -6.8267081e-05 4.96875 0 z M 4.8007812 1.2480469 C 4.8789992 1.4831599 4.9458038 1.7199651 4.9199219 1.9550781 C 4.8918852 2.1005294 4.9541607 2.089032 5.0703125 2.03125 C 5.1844618 1.969483 5.2458426 1.9034458 5.4140625 1.8476562 C 5.5442326 1.8117916 5.4507531 1.7161426 5.3886719 1.6503906 C 5.2030206 1.4746882 5.0020008 1.3617919 4.8007812 1.2480469 z M 0.84179688 2.5546875 C 0.45400753 3.2779065 0.23242188 4.1117155 0.23242188 5 C 0.23242188 7.7600031 2.3683877 10 5 10 C 5.7271693 10 6.4085172 9.8155392 7.0253906 9.5097656 C 7.1858455 9.5720955 7.3690277 9.5722079 7.578125 9.5 C 7.7935375 9.4065206 7.9190562 9.3215753 8.0527344 9.2207031 C 8.1690146 9.1109665 8.3079306 8.9042556 8.0898438 8.890625 C 8.0587711 8.8824425 8.0418316 8.8737671 8.0332031 8.8652344 C 8.0332031 8.8652344 8.03125 8.8632812 8.03125 8.8632812 C 8.03125 8.8632812 8.0292969 8.8613281 8.0292969 8.8613281 C 8.0284129 8.859825 8.0278068 8.857027 8.0273438 8.8554688 C 8.0273438 8.8554688 8.0273438 8.8535156 8.0273438 8.8535156 C 8.0273438 8.8535156 8.0273438 8.8515625 8.0273438 8.8515625 C 8.0273438 8.8515625 8.0273438 8.8496094 8.0273438 8.8496094 C 8.0274344 8.8430548 8.0333201 8.8322444 8.0371094 8.8242188 C 9.085714 7.9068048 9.767578 6.5430404 9.7675781 5 C 9.7675781 4.1117155 9.5459926 3.2779065 9.1582031 2.5546875 L 1.5625 2.5546875 C 1.6245834 2.6905641 1.679059 2.8114025 1.7402344 2.9140625 C 1.8013827 3.0167312 1.8690932 3.1001407 1.9550781 3.1640625 C 1.9550781 3.1640625 1.9550781 3.1660156 1.9550781 3.1660156 C 2.1271201 3.293836 2.374835 3.337722 2.8007812 3.2773438 C 3.0963249 3.232819 3.2775564 3.1994845 3.2753906 3.5195312 C 3.3152141 3.7132903 3.457999 3.778195 3.8261719 3.7109375 C 3.9672127 3.6526103 4.0964358 3.5716803 4.203125 3.6386719 C 4.204635 3.6391628 4.2077192 3.6400224 4.2089844 3.640625 C 4.2099689 3.6412625 4.2121914 3.6420313 4.2128906 3.6425781 L 4.2148438 3.6445312 L 4.2148438 3.6464844 L 4.2167969 3.6464844 C 4.2172786 3.6472708 4.2164461 3.6495297 4.2167969 3.6503906 L 4.21875 3.6523438 L 4.21875 3.6542969 C 4.2187715 3.6553893 4.2187467 3.6572375 4.21875 3.6582031 C 4.2180405 3.7037994 4.1271175 3.810127 4.2363281 3.9394531 C 4.5098617 4.2158545 4.7713883 4.4599267 5.0449219 4.7363281 C 5.061172 4.816719 5.0909313 4.8740743 5.1289062 4.9140625 C 5.1664126 4.9537321 5.2149429 4.9756245 5.265625 4.9863281 C 5.3680798 5.0064128 5.4893944 4.9799679 5.5957031 4.9472656 C 5.920113 4.8529179 5.7742785 4.9980064 5.8925781 5.1542969 C 5.9386658 5.225461 6.0201332 5.3763661 6.1210938 5.4433594 C 6.1713547 5.4767585 6.2266707 5.4900082 6.2851562 5.4609375 C 6.3438063 5.43194 6.4056291 5.360975 6.46875 5.2285156 C 6.5282311 5.0840584 6.6015921 4.9793266 6.6777344 4.8945312 C 6.6018052 4.9794136 6.5280028 5.0846131 6.46875 5.2285156 C 6.4095742 5.3526963 6.3501223 5.4228902 6.2949219 5.4550781 C 6.3004541 5.9960242 6.4300143 6.3806582 6.6972656 6.5917969 C 6.6180084 6.9047575 6.5399396 7.3364449 6.6835938 7.5976562 C 6.4408677 7.5212646 6.538624 8.0064038 6.4667969 8.2109375 C 6.3454337 8.5510055 6.2389325 8.5368352 6.125 8.5664062 C 6.2290253 8.6846909 6.3638327 8.8108378 6.5644531 8.8847656 C 6.56486 8.8865107 6.5653071 8.8888595 6.5664062 8.890625 C 6.5673618 8.8920689 6.5728583 8.8930713 6.5742188 8.8945312 C 6.5739162 8.9144675 6.5789674 8.9303753 6.5800781 8.9492188 C 6.5816837 8.9751463 6.5829499 9.0017075 6.5878906 9.0253906 C 6.5908281 9.0395528 6.5893955 9.0570093 6.59375 9.0703125 C 6.5945802 9.0719854 6.5948776 9.0744985 6.5957031 9.0761719 C 6.60585 9.0967116 6.6154286 9.1181322 6.625 9.1386719 C 6.625 9.1386719 6.6269531 9.140625 6.6269531 9.140625 C 6.6351615 9.1533469 6.6438128 9.1662623 6.6542969 9.1777344 C 6.5300416 9.1433275 6.3837768 8.9689908 6.1464844 9.0839844 C 5.87535 9.2071888 5.8207308 9.1258033 5.9160156 8.9414062 C 6.0412209 8.6558733 5.7678674 8.5514379 5.4921875 8.4824219 L 5.4921875 8.3710938 C 5.5561297 8.348026 5.6108114 8.3271437 5.6953125 8.3144531 C 5.8151401 8.2910364 5.8971618 8.2444394 5.890625 8.0625 C 5.8814797 7.8140206 5.8738413 7.5685346 5.8867188 7.3242188 C 5.8974169 7.120465 5.9208729 6.9184971 5.9707031 6.71875 C 6.0024528 6.6200138 6.182759 6.5319243 6.0332031 6.4003906 C 5.427537 5.7369114 4.8445662 5.2154764 4.1894531 4.6503906 C 4.1794975 4.6460943 4.1693006 4.6431505 4.1601562 4.640625 C 4.144632 4.6363375 4.1304897 4.6342496 4.1171875 4.6347656 C 4.1171875 4.6347656 4.1152344 4.6347656 4.1152344 4.6347656 C 3.8697205 4.6507018 3.9965163 5.4667977 4.0234375 5.8535156 C 4.059811 6.2341993 4.1449836 6.1444619 4.4121094 5.9785156 C 4.534947 6.2263935 4.4609536 6.3649739 4.2871094 6.5253906 C 4.1576806 6.6470833 4.0830006 6.8279562 4.1953125 7.0371094 C 4.2296643 7.0940726 4.258982 7.1192234 4.2988281 7.2089844 C 4.3255461 7.2621501 4.3521883 7.3159744 4.3789062 7.3691406 C 4.4097312 7.4866931 4.3738517 7.5601572 4.3222656 7.6230469 C 4.2744959 7.6911139 4.2660124 7.7589397 4.328125 7.9472656 C 4.3620145 8.0566458 4.2683381 8.1878879 4.4121094 8.3027344 C 4.4758227 8.3519746 4.5396283 8.3886702 4.6035156 8.4160156 C 4.6603331 8.4401769 4.7174741 8.4564328 4.7792969 8.4667969 C 4.8306272 8.47137 4.8739846 8.4797407 4.9296875 8.4824219 C 4.7242828 8.755763 4.4724904 8.6759636 4.3261719 8.4199219 C 4.0611864 7.9819316 3.7962355 7.5668964 3.53125 7.1289062 C 3.568504 5.8735133 3.5945615 5.0288412 3.5058594 3.9785156 C 3.0695586 4.0213854 2.6267853 3.9863204 2.1601562 3.6972656 C 2.0534674 3.4952453 1.9346218 3.5216947 1.7363281 3.5703125 C 1.7571466 3.3874624 1.6824109 3.2043345 1.5820312 3.0214844 C 1.5671162 2.8656672 1.5520246 2.7105047 1.5371094 2.5546875 L 0.84179688 2.5546875 z M 7.7617188 3.0625 C 7.8565829 3.0602033 7.9352309 3.0809968 8.0019531 3.1191406 C 8.0019531 3.1191406 8.0039062 3.1191406 8.0039062 3.1191406 C 8.4709565 3.3860594 8.3045443 4.5396247 8.3046875 5.1386719 C 8.3061222 5.1383834 8.3071695 5.1389976 8.3085938 5.1386719 C 8.2888813 5.2544709 8.2685402 5.3705562 8.2480469 5.4902344 C 8.2181293 5.6730847 8.176402 5.912853 8.1464844 6.0957031 C 8.1852702 6.3911153 8.1094594 6.4373287 8.0566406 6.6074219 C 8.0576013 7.2632361 7.9671727 7.4512741 7.4414062 7.9589844 C 7.0149807 7.7205387 6.8138939 7.2659371 6.8828125 6.828125 C 6.9026267 6.7073765 6.9815021 6.5716297 6.875 6.3769531 C 6.7482536 5.8445091 6.829081 5.2272739 6.9453125 4.7109375 C 6.9794288 4.7019475 7.014871 4.6906852 7.0449219 4.6933594 C 7.1722714 4.6875646 7.2775205 4.5821885 7.3085938 4.4550781 C 7.3190105 4.4126862 7.3202979 4.3688418 7.3125 4.3242188 C 7.4114449 4.2991767 7.5065281 4.263115 7.5957031 4.2207031 C 7.499539 4.1260888 7.4369452 4.0065247 7.4023438 3.8808594 C 7.3679996 3.7558477 7.3620626 3.6220415 7.3808594 3.5019531 C 7.4191579 3.2607726 7.5565687 3.0667524 7.7617188 3.0625 z M 6.9335938 4.7128906 C 6.8639068 4.7344784 6.7882683 4.7799036 6.7148438 4.8515625 C 6.7780825 4.789881 6.8429938 4.7411294 6.9042969 4.7167969 C 6.9042969 4.7167969 6.90625 4.7167969 6.90625 4.7167969 C 6.9158555 4.7130712 6.924184 4.7157257 6.9335938 4.7128906 z M 4.9023438 6.671875 C 4.9065138 6.6968194 4.9221032 6.7186392 4.9335938 6.7421875 C 4.9229883 6.7204931 4.9067613 6.7006387 4.9023438 6.6777344 C 4.9023438 6.6777344 4.9023438 6.6757812 4.9023438 6.6757812 C 4.9021567 6.6747133 4.9025308 6.6729455 4.9023438 6.671875 z "
       transform="matrix(42.760754,0,0,42.978256,-9.0068952,0.21744505)" />
  </g>
</svg>
