<?xml version="1.0" encoding="UTF-8"?>
<svg width="10" height="10" version="1.1" viewBox="0 0 10 10" xmlns="http://www.w3.org/2000/svg">
	<path d="m2.0215 0c-1.0133-0.091265-1.9888 0.75513-2.0137 1.7773-0.0057 2.0683-0.0023062 4.1367-0.0039062 6.2051-0.09126 1.0133 0.75709 1.9908 1.7793 2.0156 2.0683 0.0057001 4.1367 2.461e-4 6.2051 0.0019531 1.0133 0.09126 1.9888-0.75709 2.0137-1.7793 0.0057-2.1154 2.09e-4 -4.2302 0.001953-6.3457 0.01741-0.97504-0.8036-1.8402-1.7773-1.873-2.0683-0.00568-4.1367-3.4332e-4 -6.2051-0.0019531zm-1.0215 2.4199h2.0234v0.17383c-0.23955 0.014-0.65902 0.16534-0.54102 0.42578 0.27422 0.62156 1.2959 3.0034 1.5703 3.6074 0.18756-0.37156 0.72079-1.3632 0.93945-1.7832-0.17355-0.35422-0.73109-1.6736-0.9082-2-0.12156-0.22222-0.45255-0.24471-0.69922-0.24805v-0.17188l1.7812 0.0019531v0.16406c-0.24311 0.0068909-0.47497 0.097059-0.36719 0.32617 0.236 0.5 0.38094 0.85015 0.59961 1.3086 0.069555-0.13533 0.4349-0.86732 0.60156-1.2598 0.11111-0.25689-0.04842-0.35674-0.48242-0.36719 0.00356-0.045111 3.463e-4 -0.1301 0.0039063-0.17188 0.55556-0.0035599 1.3878-0.0025293 1.5371-0.0058593v0.16992c-0.28133 0.010451-0.57172 0.16048-0.72461 0.39648l-0.74023 1.5332c0.079778 0.20133 0.79235 1.7852 0.86523 1.959l1.5312-3.5312c-0.10756-0.28822-0.45646-0.34996-0.5918-0.35352v-0.17383l1.5977 0.013672 0.0039062 0.0078124-0.0039062 0.15234c-0.35067 0.010442-0.56171 0.19835-0.69727 0.50391-0.31245 0.72223-1.2921 2.9997-1.9414 4.4824h-0.16992l-1.0234-2.4141c-0.40622 0.79511-0.8549 1.6261-1.2402 2.4141-0.00356 0.00356-0.1875-3.462e-4 -0.1875-0.0039062-0.58689-1.3716-1.2022-2.7325-1.7891-4.1074-0.14245-0.33333-0.61691-0.8766-0.94336-0.87305 0-0.038223-0.0039062-0.12356-0.0039062-0.17578z" fill="#222"/>
</svg>
