<?xml version="1.0" encoding="UTF-8" standalone="no"?>
<svg
   xmlns="http://www.w3.org/2000/svg"
   version="1.1"
   width="10"
   height="10"
   viewBox="0 0 10 10">
  <path
     d="M 6.4844466,8.2239416 5.2041689,5.2075527 C 4.6963911,6.2014416 4.1363911,7.2389416 3.6547244,8.2239416 c -0.00444,0.00444 -0.2344444,0 -0.2344444,-0.00444 C 2.6866689,6.5050527 1.9186133,4.8036638 1.1850022,3.0850527 1.0069466,2.668386 0.4125022,1.9911638 0.00444664,1.9956082 0.00444664,1.9478305 2.2e-6,1.8394971 2.2e-6,1.7742193 l 2.5302778,0 0,0.2169445 C 2.2308355,2.0086638 1.7055578,2.1994971 1.8530578,2.5250527 2.1958355,3.3019971 3.4719466,6.2794971 3.8150022,7.0344971 4.0494466,6.5700527 4.71778,5.3286638 4.9911133,4.8036638 4.7741689,4.360886 4.07528,2.7117193 3.8538911,2.3036638 3.7019466,2.025886 3.2897244,1.9997749 2.9813911,1.9956082 l 0,-0.2169444 2.2266667,0.00444 0,0.2038889 c -0.3038889,0.00861 -0.5947223,0.1216667 -0.46,0.4080556 0.295,0.625 0.4775,1.0633333 0.7508333,1.6363889 0.086944,-0.1691667 0.5425,-1.085 0.7508333,-1.5755556 0.1388889,-0.3211111 -0.060833,-0.4469444 -0.6033333,-0.46 0.00444,-0.056389 0,-0.1605555 0.00444,-0.2127778 0.6944445,-0.00444 1.7361111,-0.00444 1.9227778,-0.00861 l 0,0.2127778 C 7.2219466,2.0003305 6.8575022,2.1869971 6.6663911,2.4819971 L 5.7419466,4.4003305 C 5.8416689,4.6519971 6.7316689,6.6311638 6.82278,6.848386 L 8.7369466,2.4342193 C 8.6025022,2.0739416 8.1683355,1.995886 7.9991689,1.9914416 l 0,-0.2169445 1.9963889,0.0175 0.00444,0.00861 -0.00444,0.1911111 c -0.4383334,0.013056 -0.7030556,0.2475 -0.8725,0.6294445 -0.3905556,0.9027778 -1.6144445,3.75 -2.4261112,5.6033333 l -0.2127777,0 z"
     style="fill:#222222" />
</svg>
