<?xml version="1.0" encoding="UTF-8"?>
<svg width="10" height="10" version="1.1" xmlns="http://www.w3.org/2000/svg">
	<path d="m2.0215 0c-1.0133-0.091265-1.9888 0.75513-2.0137 1.7773-0.0057 2.0683-0.0023062 4.1367-0.0039062 6.2051-0.09126 1.0133 0.75709 1.9908 1.7793 2.0156 2.0683 0.0057001 4.1367 1.991e-4 6.2051 0.0019531 1.0133 0.09126 1.9888-0.75709 2.0137-1.7793 0.0057-2.1154 1.62e-4 -4.2302 0.001953-6.3457 0.01736-0.97508-0.8036-1.8402-1.7773-1.873-2.0683-0.00568-4.1367-3.4642e-4 -6.2051-0.0019531zm2.957 1.5918c0.006997-4.44e-5 0.014474 0 0.021484 0 1.091 0 2.057 0.56395 2.6465 1.4297h-0.97266c-0.078667 0.12653-0.29412 0.16221-0.4707 0.12305-0.001008-0.090359 2.475e-4 -0.35776 0.023438-0.62109 0.005468-0.068634 0.012044-0.12602 0.021484-0.19141 0.005236-0.035623 0.011058-0.072512 0.017578-0.10547 0.019698-0.099469 0.044443-0.18726 0.080078-0.24414-0.076337 0.02333-0.17083 0.090865-0.2168 0.11328-0.03996 0.0042686-0.11464 0.0014353-0.16992 0.015625-0.11885 0.030506-0.22468 0.10472-0.28711 0.21875-0.080628-0.23415-0.25577 0.052967-0.46094 0.21875-0.11365-0.08557-0.34284-0.25522-0.55273-0.36523-0.16882 0.08557-0.34412 0.37204-0.44922 0.39648-0.10921 0.020374-0.26396 0.01047-0.32812 0.087891-0.10648 0.11002-0.13773 0.23535-0.1582 0.35352h-1.3691c0.58574-0.86018 1.5427-1.4225 2.625-1.4297zm-0.11523 0.84961c0.13717 0.077538 0.27579 0.15562 0.40234 0.27539 0.04232 0.044823 0.10631 0.11032 0.017578 0.13477-0.11467 0.038031-0.15656 0.082895-0.23438 0.125-0.079179 0.03939-0.12263 0.046418-0.10352-0.052734 0.017643-0.16027-0.028711-0.32215-0.082031-0.48242zm-2.6973 0.89258h0.47266c0.010167 0.10622 0.021082 0.21019 0.03125 0.31641 0.068428 0.12465 0.11966 0.25035 0.10547 0.375 0.13517-0.033142 0.21633-0.051777 0.28906 0.085938 0.3181 0.19705 0.62055 0.22063 0.91797 0.19141 0.060467 0.71599 0.041021 1.2927 0.015625 2.1484 0.18064 0.29857 0.36233 0.58229 0.54297 0.88086 0.099744 0.17454 0.27014 0.22735 0.41016 0.041016-0.037973-0.001831-0.066572-0.0066456-0.10156-0.0097657-0.042144-0.0070649-0.080409-0.018685-0.11914-0.035156-0.043551-0.018641-0.087426-0.042606-0.13086-0.076172-0.098007-0.07829-0.035492-0.16762-0.058594-0.24219-0.042337-0.12838-0.03647-0.1743-0.0039062-0.2207 0.035161-0.042871 0.060076-0.093694 0.039062-0.17383-0.018213-0.036242-0.036474-0.073133-0.054688-0.10938-0.027162-0.061189-0.046896-0.078356-0.070312-0.11719-0.076562-0.14258-0.02573-0.26665 0.0625-0.34961 0.11851-0.10935 0.16967-0.20212 0.085938-0.37109-0.1821 0.11312-0.24083 0.17357-0.26562-0.085938-0.018352-0.26362-0.10486-0.81922 0.0625-0.83008h0.0019531c0.009068-3.6e-4 0.018714 9.863e-4 0.029297 0.0039063 0.006233 0.00172 0.012741 0.0029293 0.019531 0.0058594 0.44658 0.38521 0.84494 0.74107 1.2578 1.1934 0.10195 0.089665-0.021325 0.14949-0.042969 0.2168-0.033969 0.13617-0.051301 0.27321-0.058594 0.41211-0.0087784 0.16655-0.0023279 0.33452 0.0039063 0.50391 0.0044562 0.12403-0.051128 0.15591-0.13281 0.17188-0.057603 0.008651-0.095083 0.023338-0.13867 0.039062v0.074219c0.18793 0.047047 0.37441 0.11981 0.28906 0.31445-0.064954 0.1257-0.028579 0.17969 0.15625 0.095703 0.16176-0.07839 0.261 0.041012 0.3457 0.064453-0.007147-0.0078199-0.011978-0.016721-0.017578-0.025391l-0.0019531-0.0019531c-0.006524-0.014002-0.012611-0.027014-0.019531-0.041016-5.623e-4 -0.00114-0.0013863-0.0027663-0.0019531-0.0039063-0.00296-0.009069-0.0019063-0.0216-0.0039063-0.03125-0.0033699-0.016144-0.0047693-0.035059-0.0058593-0.052734-7.5e-4 -0.012846-0.0041071-0.023519-0.0039063-0.037109-9.3e-4 -9.9e-4 -0.0032546-9.696e-4 -0.0039062-0.0019531-7.475e-4 -0.0012-0.0016764-0.0027163-0.0019532-0.0039063-0.13676-0.050396-0.22792-0.13616-0.29883-0.2168 0.077666-0.020158 0.14969-0.010367 0.23242-0.24219 0.048964-0.13943-0.017026-0.47004 0.14844-0.41797-0.097927-0.17806-0.04621-0.4722 0.0078125-0.68555-0.18218-0.14393-0.26967-0.40663-0.27344-0.77539 0.037629-0.021942 0.078802-0.069645 0.11914-0.1543-0.043029 0.090296-0.085019 0.13844-0.125 0.1582-0.039868 0.019817-0.079019 0.011049-0.11328-0.011719-0.068823-0.045668-0.12288-0.14875-0.1543-0.19727-0.080643-0.10654 0.018021-0.20494-0.20312-0.14062-0.072469 0.022288-0.15477 0.039083-0.22461 0.025391-0.034549-0.007297-0.068182-0.021786-0.09375-0.048828-0.025887-0.027259-0.045563-0.066293-0.056641-0.12109-0.18646-0.18842-0.36627-0.35455-0.55273-0.54297-0.074448-0.08816-0.012203-0.16032-0.011719-0.19141-2.2e-6 -6.5e-4 1.47e-5 -0.0031624 0-0.0039063v-0.0019531-0.0019531h-0.0019531v-0.0019531l-0.0019532-0.0019531h-0.0019531c-8.6e-4 -4.086e-4 -0.0028762-0.0016179-0.0039063-0.0019532-0.072729-0.045667-0.16167 0.0090671-0.25781 0.048828-0.25098 0.045848-0.34785 0.0012236-0.375-0.13086 0.0014762-0.21817-0.12275-0.19441-0.32422-0.16406-0.29036 0.041159-0.45889 0.010962-0.57617-0.076172v-0.0019531c-0.058614-0.043575-0.1048-0.099934-0.14648-0.16992-0.041703-0.069982-0.078772-0.15151-0.12109-0.24414h5.1777c0.26435 0.49301 0.41602 1.0605 0.41602 1.666 0 1.0519-0.46487 1.982-1.1797 2.6074-0.00259 0.005471-0.0057925 0.013108-0.0058594 0.017578v0.0019531 0.0019531c3.1e-4 0.0010601-6.025e-4 0.0028863 0 0.0039063h0.0019531l0.0019532 0.0019531c0.005882 0.005816 0.015927 0.011998 0.037109 0.017578 0.14867 0.009292 0.053876 0.1498-0.025391 0.22461-0.091127 0.068764-0.17542 0.12768-0.32227 0.19141-0.14254 0.049226-0.26757 0.048349-0.37695 0.0058594-0.42052 0.20844-0.88516 0.33398-1.3809 0.33398-1.7939 0-3.25-1.5267-3.25-3.4082 0-0.60553 0.15166-1.173 0.41602-1.666zm4.7168 0.3457c-0.13985 0.0028988-0.23366 0.13442-0.25977 0.29883-0.012814 0.081863-0.0097402 0.17259 0.013672 0.25781 0.023587 0.085664 0.067259 0.16792 0.13281 0.23242-0.060789 0.028911-0.12591 0.053242-0.19336 0.070312 0.00532 0.030419 0.0051469 0.060946-0.0019531 0.089844-0.021182 0.08665-0.092874 0.15816-0.17969 0.16211-0.020485-0.001823-0.045102 0.0055888-0.068359 0.011719-0.079233 0.35198-0.13523 0.77376-0.048828 1.1367 0.072601 0.13271 0.019366 0.22433 0.0058593 0.30664-0.046981 0.29845 0.09017 0.60894 0.38086 0.77148 0.35841-0.3461 0.42058-0.47481 0.41992-0.92188 0.036006-0.11595 0.086987-0.14823 0.060547-0.34961 0.020395-0.12465 0.049919-0.28746 0.070313-0.41211 0.01397-0.081583 0.027578-0.1613 0.041016-0.24023-9.7e-4 2.22e-4 -0.0029288-1.998e-4 -0.0039063 0-9.75e-5 -0.40836 0.1133-1.193-0.20508-1.375-0.045484-0.026002-0.099394-0.040632-0.16406-0.039062zm-0.56445 1.125c-0.006415 0.0019294-0.012981-5.869e-4 -0.019531 0.0019531-0.04179 0.016587-0.085797 0.04975-0.12891 0.091797 0.050052-0.048849 0.10093-0.079034 0.14844-0.09375z" fill="#222"/>
</svg>
