<?xml version="1.0" encoding="UTF-8" standalone="no"?>
<svg
   xmlns:dc="http://purl.org/dc/elements/1.1/"
   xmlns:cc="http://creativecommons.org/ns#"
   xmlns:rdf="http://www.w3.org/1999/02/22-rdf-syntax-ns#"
   xmlns:svg="http://www.w3.org/2000/svg"
   xmlns="http://www.w3.org/2000/svg"
   id="svg4"
   viewBox="0 0 10 10"
   version="1.1"
   height="10"
   width="10">
  <metadata
     id="metadata10">
    <rdf:RDF>
      <cc:Work
         rdf:about="">
        <dc:format>image/svg+xml</dc:format>
        <dc:type
           rdf:resource="http://purl.org/dc/dcmitype/StillImage" />
        <dc:title></dc:title>
      </cc:Work>
    </rdf:RDF>
  </metadata>
  <defs
     id="defs8" />
  <path
     id="path2"
     d="M 1.875 0 C 0.84 0 0 0.84 0 1.875 L 0 8.125 C 0 9.16 0.84 10 1.875 10 L 8.125 10 C 9.16 10 10 9.16 10 8.125 L 10 1.875 C 10 0.84 9.16 0 8.125 0 L 1.875 0 z M 4.9824219 2 C 4.9885709 1.9999588 4.99383 2 5 2 C 5.9602239 2 6.8111959 2.4977689 7.3300781 3.2597656 L 6.4726562 3.2597656 C 6.4026788 3.3700139 6.2133947 3.4015226 6.0585938 3.3671875 C 6.0584156 3.3512143 6.062482 3.2871097 6.0625 3.2597656 L 2.6699219 3.2597656 C 3.1854712 2.5026638 4.0297775 2.0063323 4.9824219 2 z M 2.5058594 3.5332031 L 7.4960938 3.5332031 C 7.7287676 3.9671347 7.8613281 4.4670302 7.8613281 5 C 7.8613281 6.6560024 6.5789669 8 5 8 C 3.4210311 8 2.1386719 6.6560024 2.1386719 5 C 2.1386719 4.4670302 2.2731866 3.9671347 2.5058594 3.5332031 z "
     style="fill:#222222;fill-opacity:1" />
  <path
     style="opacity:1;fill:#222222;fill-opacity:1;fill-rule:evenodd;stroke:none;stroke-width:0.00790294;stroke-linecap:butt;stroke-linejoin:round;stroke-miterlimit:4;stroke-dasharray:none;stroke-dashoffset:0;stroke-opacity:1"
     d="M 2.670543,3.2590859 C 2.610796,3.3468259 2.5558557,3.4382139 2.5052327,3.5326237 H 7.4952058 C 7.4445858,3.4382143 7.3892035,3.3468254 7.329457,3.2590859 Z"
     id="path2361" />
  <path
     id="path2230"
     d="M 6.1837028,2.3433605 C 6.1165147,2.3638928 6.0347227,2.424846 5.9942671,2.444576 5.9590972,2.4483157 5.8938502,2.4456362 5.8451935,2.4580908 5.7405897,2.484941 5.6453803,2.5488271 5.5904346,2.6491879 5.5194683,2.4430986 5.3671571,2.6965223 5.1865741,2.8424395 5.0865437,2.7671234 4.8850419,2.6168719 4.7003,2.5200377 4.5517111,2.5953538 4.3959755,2.8497266 4.3034706,2.8712446 c -0.096122,0.017933 -0.2316165,0.00733 -0.2880908,0.075465 -0.093722,0.096834 -0.1227372,0.2079291 -0.1407616,0.3119359 0.2198877,0.077706 0.4505615,0.080061 0.6704493,0.050173 0.1249626,-0.029885 0.2138908,0.012192 0.3424601,0.00742 0.3902165,0.016717 0.81286,-0.030865 1.1707567,0.050171 C 6.0566443,3.220654 6.0562643,2.5467615 6.1837028,2.343364 Z M 4.8803875,2.7494001 c 0.1207315,0.068247 0.241862,0.1348677 0.3532521,0.2402886 0.037252,0.039449 0.092517,0.096841 0.014409,0.1183608 C 5.147117,3.1415235 5.1110787,3.1821805 5.0425884,3.2192412 4.9728944,3.2539112 4.9356415,3.2598832 4.9524614,3.1726102 4.9679984,3.0315426 4.9273054,2.8904677 4.8803774,2.7494 Z"
     style="fill:#222222;fill-opacity:1;fill-rule:evenodd;stroke:none;stroke-width:0.013996px;stroke-linecap:butt;stroke-linejoin:miter;stroke-opacity:1" />
  <path
     id="path2370"
     d="m 2.9226754,3.532622 c 0.00896,0.093491 0.017792,0.1870228 0.026736,0.2805137 0.060229,0.1097097 0.1050144,0.2192334 0.092527,0.3289431 0.1189754,-0.029169 0.1898742,-0.044414 0.2538885,0.076798 0.2799773,0.1734321 0.5459127,0.1941166 0.807694,0.1683956 0.053222,0.6301957 0.037695,1.1371065 0.015344,1.8903431 0.1589914,0.2627932 0.3180975,0.5120062 0.4770879,0.7747994 0.088595,0.1550355 0.2419921,0.2071248 0.3658174,0.037526 -0.035642,-0.00143 -0.061839,-0.00672 -0.093973,-0.0096 C 4.8306992,7.0741209 4.7957612,7.0642879 4.7616734,7.0497929 4.7616185,7.049625 4.7615626,7.0494354 4.7615115,7.0492641 4.723239,7.0328693 4.6858522,7.0107987 4.6476761,6.981296 4.5614139,6.9123894 4.6171519,6.8340247 4.5968248,6.7683964 4.5595634,6.6554009 4.5650861,6.6142421 4.5937406,6.5734019 4.624689,6.5356692 4.6455654,6.4916716 4.6270696,6.421139 4.6110316,6.3892403 4.595302,6.3570534 4.5792639,6.3251556 4.5553611,6.2712981 4.5380412,6.2568061 4.517425,6.2226293 4.4500344,6.0971369 4.4946017,5.9880691 4.5722569,5.9150537 4.6765619,5.8188024 4.7213682,5.7357098 4.6476665,5.5869829 4.4873923,5.6865505 4.4362065,5.7403651 4.4143826,5.511957 4.3982193,5.2799245 4.32147,4.7898867 4.4687808,4.7803239 c 5.282e-4,-4.11e-5 0.00106,2.85e-5 0.00183,0 0.008,-3.576e-4 0.016549,8.95e-4 0.025869,0.0035 l 0.4713657,0.8777887 c 0.059121,0.1472855 0.166436,0.3006588 -0.026303,0.3411503 1.128e-4,7.323e-4 -1.108e-4,0.00163 0,0.0022 -8.944e-4,-7.323e-4 -0.00222,-0.00143 -0.00308,-0.0022 0.00106,0.00106 0.00241,0.00163 0.00357,0.0026 6.94e-5,5.57e-5 -6.94e-5,3.576e-4 0,3.576e-4 4.24e-5,1.79e-4 -4.14e-5,1.79e-4 0,3.576e-4 0.019527,0.1012408 0.1461648,0.1885658 0.2863472,0.1766805 0.1475374,-0.00946 0.254836,0.1002953 0.303433,0.2111564 -0.00771,0.1465881 -0.00328,0.2945888 0.00222,0.4436766 0.00395,0.1091629 -0.04475,0.1364676 -0.116643,0.150518 -0.046822,0.00703 -0.085568,0.01873 -0.1214659,0.031371 v 0.069413 c 0.1654076,0.041409 0.3290109,0.1043961 0.2538876,0.2757168 -0.057174,0.1106375 -0.025002,0.1598783 0.1376813,0.085955 0.1437013,-0.069638 0.2323885,0.03836 0.3073865,0.057588 -0.040413,-0.042823 -0.052384,-0.1013789 -0.051478,-0.1700299 -0.00125,-0.00126 -0.00251,-0.0024 -0.00337,-0.00358 -7.325e-4,-0.00106 -0.00145,-0.00244 -0.00183,-0.0035 -4.33e-5,-1.786e-4 1.26e-5,-7.322e-4 0,-8.95e-4 C 5.8178132,7.2857973 5.7375016,7.2104634 5.6750863,7.1394935 5.7434503,7.1217399 5.8074829,7.1306263 5.8802998,6.9265923 5.9233923,6.8038728 5.8640112,6.5125446 6.009643,6.5583785 5.9234482,6.4016515 5.9708684,6.1428041 6.0184138,5.9550267 5.8580634,5.8283398 5.7805729,5.5972606 5.7772526,5.2726921 c 8.954e-4,-5.289e-4 0.00193,-0.00126 0.00289,-0.00191 C 5.670724,5.3386022 5.5787743,5.1589284 5.5360672,5.0929856 5.4650912,4.9992113 5.5522595,4.9120485 5.3576153,4.9686571 5.2293004,5.0081315 5.066446,5.0341885 5.0274478,4.8412502 4.8633259,4.6754091 4.7061378,4.529838 4.5420189,4.3639969 c -0.06553,-0.077596 -0.010939,-0.1415001 -0.010515,-0.168859 -3.9e-6,-5.288e-4 1.25e-5,-0.00163 0,-0.0022 -6.8e-6,-9.84e-5 1.06e-5,-3.576e-4 0,-3.576e-4 -8.39e-5,-3.575e-4 -3.576e-4,-0.00106 -3.576e-4,-0.00126 -8.39e-5,-3.576e-4 -3.576e-4,-0.00106 -3.576e-4,-0.00126 -1.793e-4,-5.288e-4 -5.291e-4,-0.00126 -8.954e-4,-0.00179 -6.94e-5,-1.537e-4 -3.566e-4,-7.322e-4 -3.566e-4,-8.95e-4 -1.128e-4,-1.11e-4 -3.576e-4,-3.576e-4 -3.576e-4,-3.576e-4 -3.575e-4,-3.576e-4 -8.954e-4,-8.95e-4 -0.00125,-0.00126 -3.567e-4,-3.576e-4 -0.00125,-8.95e-4 -0.00183,-0.00126 -1.793e-4,-1.432e-4 -7.325e-4,-3.576e-4 -8.944e-4,-3.576e-4 -7.325e-4,-3.576e-4 -0.00183,-5.288e-4 -0.0026,-8.95e-4 -0.064017,-0.040194 -0.141629,0.0082 -0.2262547,0.043195 C 4.0754405,4.2667865 3.9891975,4.2280581 3.9653034,4.1116961 3.9665563,3.9196711 3.8580539,3.9396962 3.6807277,3.966411 3.1695926,4.0388626 3.0869226,3.8588665 2.9379222,3.5327622 Z M 6.6568131,3.8375822 C 6.4106332,3.8426711 6.326927,4.305483 6.5577224,4.5325579 6.5042205,4.5580048 6.4469491,4.5790421 6.3875814,4.5940672 6.4062989,4.701163 6.328528,4.8110533 6.2266527,4.815689 c -0.018264,-0.00163 -0.03809,3.576e-4 -0.058841,0.00599 -0.070244,0.3106271 -0.1188183,0.6839542 -0.042428,1.0048418 0.063902,0.116807 0.016269,0.1980354 0.00434,0.2704858 -0.041348,0.2626858 0.079573,0.5353119 0.335429,0.6783783 0.3154605,-0.3046257 0.369798,-0.4179667 0.3692226,-0.8114543 0.03169,-0.1020565 0.077202,-0.1289947 0.053935,-0.306242 0.017956,-0.1097096 0.042987,-0.2532715 0.060943,-0.3629811 0.012298,-0.071807 0.024125,-0.1421115 0.035951,-0.2115908 -8.954e-4,1.789e-4 -0.00183,1.789e-4 -0.0026,3.575e-4 C 6.9825007,4.6726957 7.1121389,3.8264703 6.65679,3.837494 Z M 6.144268,4.8293156 c -0.00106,3.575e-4 -0.00212,8.95e-4 -0.00308,0.00126 0.00106,-3.576e-4 0.00212,-8.95e-4 0.00308,-0.00126 z m -0.021994,0.00976 c -0.00106,5.289e-4 -0.00212,0.00106 -0.00318,0.00163 0.00106,-5.288e-4 0.00212,-0.00106 0.00318,-0.00163 z m -0.069983,0.046739 c -0.00125,0.00106 -0.0026,0.00236 -0.00395,0.00354 0.00125,-0.00106 0.0026,-0.0024 0.00395,-0.00354 z M 6.03101,4.9051386 c -0.00212,0.00207 -0.00434,0.00422 -0.00646,0.00638 0.00212,-0.00216 0.00434,-0.00429 0.00646,-0.00638 z M 6.0097,4.9270216 c -0.00231,0.00256 -0.00472,0.0051 -0.00704,0.00776 0.00231,-0.00264 0.00472,-0.00519 0.00704,-0.00776 z m -0.024558,0.028616 c -0.00106,0.00126 -0.00212,0.00248 -0.00308,0.00383 0.00106,-0.00126 0.00212,-0.00253 0.00308,-0.00383 z m -0.023623,0.031505 c -0.00183,0.00256 -0.00357,0.00533 -0.0053,0.00796 0.00183,-0.00264 0.00357,-0.0054 0.0053,-0.00796 z m -0.019681,0.029979 c -0.00231,0.00379 -0.00463,0.00769 -0.00694,0.011586 0.00231,-0.0039 0.00463,-0.00781 0.00694,-0.011586 z m -0.019325,0.03303 c -0.00231,0.0041 -0.00453,0.0082 -0.00675,0.012425 0.00222,-0.0042 0.00453,-0.00833 0.00675,-0.012425 z m -0.019595,0.037879 c -0.00164,0.00346 -0.00337,0.00683 -0.00511,0.010353 0.00164,-0.00354 0.00337,-0.00688 0.00511,-0.010353 z m -0.022216,0.049192 c -0.00463,0.00964 -0.00916,0.018677 -0.013763,0.027253 0.00453,-0.00857 0.00916,-0.017611 0.013763,-0.027253 z m -0.018014,0.034857 c -0.00318,0.00571 -0.00626,0.011387 -0.00945,0.01659 0.00308,-0.0052 0.00626,-0.010907 0.00945,-0.01659 z m -0.015479,0.026106 c -0.00241,0.00374 -0.00482,0.00757 -0.00713,0.011029 0.00231,-0.00346 0.00472,-0.00732 0.00713,-0.011029 z m -0.014804,0.021558 c -0.00183,0.00253 -0.00376,0.00517 -0.00569,0.00755 0.00183,-0.00236 0.00376,-0.00501 0.00569,-0.00755 z m -0.013031,0.016358 c -0.00202,0.00236 -0.00405,0.00477 -0.00607,0.00695 0.00202,-0.0022 0.00405,-0.00458 0.00607,-0.00695 z m -0.013407,0.014284 c -0.00183,0.00179 -0.00376,0.00362 -0.00559,0.00529 0.00183,-0.00163 0.00366,-0.0035 0.00559,-0.00529 z m -0.013156,0.011603 c -0.00183,0.00143 -0.00366,0.00289 -0.00549,0.0042 0.00183,-0.00126 0.00366,-0.00273 0.00549,-0.0042 z"
     style="fill:#222222;fill-opacity:1;fill-rule:evenodd;stroke:none;stroke-width:0.013996px;stroke-linecap:butt;stroke-linejoin:miter;stroke-opacity:1" />
</svg>
