<?xml version="1.0" encoding="UTF-8" standalone="no"?>
<svg
   width="657.82202"
   height="102.42928"
   viewBox="0 0 657.82202 102.42928"
   version="1.1"
   xmlns="http://www.w3.org/2000/svg"><path
     d="m 108.41562,101.21518 c -3.59459,-1.4506 -7.14266,-6.42361 -7.14266,-10.01123 0,-1.50699 0.96706,-4.12065 2.14902,-5.80815 2.03065,-2.89915 1.96533,-3.26437 -1.18574,-6.63 -1.83412,-1.95902 -4.45118,-6.09012 -5.81569,-9.18022 l -2.48093,-5.61837 -6,3.05475 c -5.95697,3.03285 -6.00682,3.11617 -6.95122,11.61837 -1.80108,16.21482 -6.45915,23.42362 -12.90606,19.97334 -2.23237,-1.19473 -2.43919,-2.05144 -1.3837,-5.73173 1.9029,-6.63501 1.51452,-9.35615 -1.90241,-13.3291 l -3.14015,-3.65112 -4.67516,4.17521 c -6.52449,5.82676 -16.16512,9.39501 -19.26304,7.12976 -1.53355,-1.12136 -4.86636,-1.46984 -9.78864,-1.02351 -5.88584,0.53371 -8.62233,0.0855 -12.94626,-2.12039 -13.45883,-6.86618 -8.56677,-22.3352 7.55334,-23.88414 5.2273,-0.50228 6.83562,-0.0526 10.33108,2.88865 l 4.13996,3.48355 1.41782,-4.06717 c 1.77736,-5.09852 0.29159,-5.84024 -9.99073,-4.98755 -8.41041,0.69745 -9.62672,-0.46022 -7.34883,-6.99458 1.29845,-3.72472 1.13336,-4.17752 -1.95055,-5.35002 -1.85297,-0.7045 -6.11154,-1.28091 -9.46348,-1.28091 H 3.57716 L 4.40064,37.86269 C 5.04044,33.19485 4.63587,30.88996 2.58686,27.52936 -2.70149,18.85588 0.51922,4.64606 8.60886,0.96018 c 4.28723,-1.95339 5.16745,-0.98643 3.14422,3.45406 -2.54927,5.59505 0.85787,7.97877 12.56347,8.78971 9.08359,0.62929 9.90303,0.44888 14.61678,-3.21809 l 4.99371,-3.88476 3.00629,2.9864 c 1.65346,1.64252 5.24802,4.41696 7.98791,6.16543 4.65557,2.97097 5.32234,3.05882 10.18759,1.34226 l 5.20597,-1.83677 4.14574,7.90892 c 2.28016,4.34991 4.14575,9.40015 4.14575,11.22277 0,2.97726 0.5417,3.31384 5.33333,3.31384 6.11064,0 6.2614,0.285 2.75532,5.20883 -2.5082,3.52245 -5.02471,10.79117 -3.73602,10.79117 2.5696,0 14.0175,-6.27337 15.57415,-8.53453 1.05973,-1.53934 5.63681,-6.6988 10.17129,-11.46547 4.53448,-4.76667 8.67974,-10.16667 9.21167,-12 4.68855,-16.15913 18.13258,-23.59896 26.62544,-14.73432 3.16318,3.30165 3.65846,4.74512 3.08809,9 l -0.67933,5.06765 12.82803,0.0972 c 14.43444,0.10935 22.74034,1.58332 42.511,7.54401 12.03009,3.62697 14.08253,3.91147 16.99057,2.35514 l 3.30759,-1.77017 -3.83495,-2.33218 c -11.65226,-7.08616 -10.59804,-20.9793 1.76796,-23.29917 4.96671,-0.93176 9.8748,0.7988 17.23335,6.07639 l 5.51917,3.95837 11.91629,-1.35749 c 13.2418,-1.50849 22.06392,-0.32599 33.32737,4.46713 5.49253,2.33733 6.68268,2.48177 7.21795,0.87596 0.35253,-1.05757 2.29672,-3.57863 4.32044,-5.60234 3.12315,-3.12316 4.78587,-3.67949 10.99686,-3.67949 6.53413,0 7.68686,0.43911 10.76923,4.1023 5.67438,6.74361 4.81141,12.42244 -3.3364,21.95541 -3.73355,4.36826 -8.78539,12.07386 -11.22631,17.12356 l -4.43804,9.18126 11.24677,-0.70166 c 6.18573,-0.38591 12.16652,-1.46498 13.29065,-2.39792 2.85545,-2.36982 1.88163,-7.17254 -1.55381,-7.66311 -2.25801,-0.32244 -2.67441,-1.09939 -2.14376,-4 1.1583,-6.33142 5.41648,-10.89091 11.75428,-12.58601 5.21697,-1.39533 6.06461,-2.16104 7.24502,-6.54477 1.30796,-4.85738 9.62646,-14.16341 14.33968,-16.04201 1.25058,-0.49846 4.22378,-0.94846 6.60711,-1 3.75728,-0.0813 4.33334,0.34899 4.33334,3.23652 0,1.94952 1.8609,5.30315 4.48841,8.08881 l 4.48841,4.75856 4.51159,-2.75049 c 3.15797,-1.92525 6.78821,-2.75198 12.09956,-2.75547 8.20958,-0.005 10.4472,1.48366 7.1637,4.76715 -3.23482,3.23482 -2.6968,6.38018 0.91499,5.34923 6.79226,-1.93879 15.35564,-2.25735 21,-0.78121 3.3,0.86303 10.2,2.06137 15.33333,2.66297 5.13334,0.60161 11.0224,1.74701 13.0868,2.54535 2.06441,0.79834 6.28835,1.45153 9.38654,1.45153 7.35003,0 19.27952,3.15419 27.29886,7.2179 l 6.39406,3.24012 3.76385,-4.71708 c 2.07011,-2.59439 6.5327,-5.93184 9.91686,-7.41656 3.38417,-1.48472 8.08663,-4.38236 10.44992,-6.4392 5.52089,-4.805 11.92922,-6.53072 24.36978,-6.56262 12.59324,-0.0323 15.2484,-0.76017 17.39344,-4.7682 2.3019,-4.30116 3.23149,-4.07357 5.8434,1.43063 1.83797,3.87322 1.9542,5.60246 0.69455,10.33333 -0.83204,3.12493 -2.37024,6.64357 -3.41823,7.81922 -1.34696,1.51105 -1.56026,3.0706 -0.72777,5.32104 1.26717,3.42549 -0.003,9.59072 -2.62785,12.75323 -2.39766,2.88901 -15.15104,11.12152 -17.22888,11.12152 -1.43626,0 -1.462,0.33334 -0.12866,1.66667 1.13492,1.13492 6.43111,1.66667 16.6,1.66667 13.10889,0 15.66636,-0.38444 20.93333,-3.14669 3.3,-1.73068 7.61624,-4.6606 9.59165,-6.51092 l 3.59164,-3.36422 -3.92498,-3.92499 c -7.02183,-7.02183 -4.04239,-16.36834 5.71586,-17.93067 5.76393,-0.92282 10.94834,1.78544 13.30056,6.94801 0.81765,1.79454 2.20823,3.26281 3.09016,3.26281 1.62178,0 9.53841,-8.27068 17.82254,-18.61961 8.47609,-10.58872 18.65622,-13.70023 25.97879,-7.94029 4.58182,3.60406 3.40138,5.22657 -3.80253,5.22657 -3.19674,0 -6.74047,0.35618 -7.87495,0.79153 -1.13448,0.43534 -6.27201,6.12052 -11.41673,12.63374 -9.00718,11.4031 -15.67653,17.03773 -22.73868,19.21088 -1.83333,0.56414 -6.44948,4.19111 -10.2581,8.05991 -11.0682,11.2431 -25.00231,16.63727 -42.97708,16.63727 -13.8118,0 -30.73335,-5.759 -38.57249,-13.12757 -2.46089,-2.31317 -5.46089,-4.16515 -6.66667,-4.11552 -1.74216,0.0717 -1.64278,0.35767 0.48404,1.39267 3.12871,1.52257 7.67615,8.86802 6.58402,10.63513 -0.4131,0.66841 -2.50866,1.21529 -4.65679,1.21529 -2.14814,0 -9.16273,2.18406 -15.58798,4.85347 -18.97996,7.88532 -35.79073,7.62586 -47.68228,-0.73596 -3.63636,-2.55699 -7.57445,-3.95986 -12.37684,-4.409 -4.63902,-0.43387 -8.06139,-1.61501 -10.02521,-3.45992 l -2.9817,-2.80116 -6.64146,5.29546 c -3.6528,2.9125 -9.34145,6.09591 -12.64145,7.07425 -5.27636,1.56425 -6.04994,2.27948 -6.41404,5.93021 -0.76296,7.64995 -13.79082,14.92427 -23.07605,12.88489 -4.07886,-0.89587 -8.66539,-6.22329 -7.2832,-8.45972 0.43445,-0.70295 -0.84166,-1.82194 -2.83579,-2.48665 -2.84985,-0.94996 -4.77748,-0.54979 -9.00831,1.87005 -7.21833,4.12858 -18.6158,4.25993 -25.34085,0.29205 -7.31663,-4.31691 -9.98794,-11.25314 -4.65561,-12.08857 1.49571,-0.23433 2.84571,-1.02606 3,-1.7594 0.16017,-0.7613 -4.86781,-1.71166 -11.71948,-2.21517 -6.6,-0.48501 -14.89767,-1.54823 -18.43927,-2.36272 -6.04776,-1.39085 -6.68685,-1.27256 -10.51137,1.94557 -2.23966,1.88455 -6.44176,4.63536 -9.338,6.11291 -4.0276,2.05473 -5.03878,3.21551 -4.30006,4.93627 3.52564,8.21256 0.31218,13.80573 -8.87077,15.43996 -5.09482,0.90669 -6.86643,-0.0443 -17.46098,-9.37342 -2.81278,-2.4768 -7.09626,-4.70438 -10,-5.20038 -13.19743,-2.25432 -30.0483,-6.62415 -39.58544,-10.26544 l -10.50589,-4.01116 -4.82744,2.86369 c -9.41264,5.58367 -20.96283,10.53926 -31.2677,13.41536 -5.74215,1.60263 -15.31041,5.26902 -21.26281,8.14754 -10.81408,5.22957 -17.21053,6.31015 -23.15427,3.91155 z m 19.18026,-6.27096 6.13111,-3.59307 -5.22702,-2.30805 c -6.18598,-2.73149 -9.15382,-2.9956 -12.648,-1.12557 -2.81732,1.50779 -3.54257,4.15541 -0.99153,3.61976 2.51055,-0.52716 2.79243,3.90224 0.30897,4.85523 -2.48117,0.95212 -5.89645,-1.27128 -5.89645,-3.83868 0,-0.91131 1.24354,-3.23785 2.76344,-5.17007 3.26961,-4.15664 8.54628,-4.59091 17.40225,-1.4322 6.32184,2.25485 11.67996,1.9183 26.50097,-1.66457 14.81457,-3.5813 25.81514,-9.98937 46.31975,-26.98227 12.09689,-10.02512 13.30983,-11.41798 11.28372,-12.95759 -2.09583,-1.59259 -2.06538,-1.72368 0.39653,-1.70731 3.51066,0.0234 11.49343,3.64208 8.35874,3.78916 -3.83035,0.17973 -4.47701,6.39158 -1.13583,10.91077 3.10411,4.19853 2.62265,7.83578 -0.67495,5.09901 -1.03471,-0.85873 -1.88129,-2.34501 -1.88129,-3.30284 0,-2.68824 -3.84725,-5.9069 -6.0501,-5.06159 -1.08511,0.4164 -2.33279,2.1909 -2.77262,3.94335 -0.49059,1.95466 -1.77459,3.18626 -3.32183,3.18626 -4.30131,0 -2.78481,2.27202 3.08384,4.62019 3.44914,1.38006 8.19425,2.077 12.33334,1.81144 5.62418,-0.36085 6.7299,-0.0574 6.74284,1.85051 0.0227,3.35425 1.98034,4.63044 8.31786,5.42253 4.31365,0.53914 5.66667,0.26101 5.66667,-1.16488 0,-1.03021 -1.02,-1.87312 -2.26667,-1.87312 -1.71686,0 -1.89228,-0.37439 -0.72318,-1.54349 1.1691,-1.1691 2.0799,-1.09832 3.75489,0.29181 1.21627,1.00941 4.29828,2.55273 6.8489,3.42959 4.29711,1.47728 4.58853,1.40702 3.97029,-0.95714 -0.93813,-3.5874 1.31948,-4.51487 3.06245,-1.25811 1.8728,3.49936 5.896,3.34571 13.26139,-0.5065 l 5.90808,-3.09001 -4.82503,-1.5924 c -2.78545,-0.91928 -6.97369,-1.21012 -9.90808,-0.68803 -4.13028,0.73487 -4.77751,0.58103 -3.45298,-0.82073 1.30863,-1.38494 0.5569,-2.20558 -3.81228,-4.16172 -6.67769,-2.98969 -11.81778,-3.17959 -11.81778,-0.4366 0,1.12263 -1.1904,2 -2.71358,2 -2.33756,0 -2.50735,-0.38535 -1.22531,-2.78087 0.81855,-1.52947 1.28966,-2.89154 1.04691,-3.02681 -0.81466,-0.45399 -9.74953,-3.74679 -12.10802,-4.46221 -1.55189,-0.47075 -2.33334,0.0141 -2.33334,1.44771 0,2.39757 -2.05208,2.89528 -3.3407,0.81024 -1.58172,-2.55927 0.78058,-6.65473 3.83851,-6.65473 1.64163,0 10.1512,2.6455 18.91015,5.87889 8.75896,3.23339 20.62406,7.24002 26.36691,8.90362 8.88398,2.57354 10.62123,2.74077 11.64625,1.12111 0.66259,-1.04699 1.21386,-2.20362 1.22503,-2.57029 0.0112,-0.36666 -7.92964,-3.23523 -17.64625,-6.3746 -9.71661,-3.13936 -22.76656,-7.85041 -28.9999,-10.469 -18.64833,-7.83406 -43.4678,-16.20529 -55.08787,-18.58031 -8.07447,-1.65033 -15.26149,-2.07443 -27.63748,-1.63086 l -16.72535,0.59946 3.05869,-3.30037 c 4.11134,-4.43622 3.97083,-9.99994 -0.33815,-13.38938 -6.08682,-4.7879 -14.62096,0.52496 -18.49896,11.51636 -1.65677,4.6958 -1.68256,5.6287 -0.1556,5.6287 3.29146,0 13.64875,-5.02756 14.4022,-6.99101 1.0424,-2.71646 -0.62266,-4.85846 -3.5601,-4.57982 -3.55273,0.33701 -4.14343,-2.63485 -0.87173,-4.38581 3.99525,-2.13819 8.08102,0.41015 8.08102,5.04021 0,3.7852 -3.2417,9.5831 -5.35806,9.5831 -0.66377,0 -5.68454,2.12538 -11.15726,4.72306 -9.0321,4.28718 -20.81801,13.7941 -20.81801,16.79254 0,2.24689 7.30923,-0.46629 14.66667,-5.44426 9.66204,-6.53724 16.90234,-9.24644 28.71289,-10.74387 15.21486,-1.92906 40.83953,1.98034 58.00847,8.84998 9.69772,3.88026 5.90958,7.10372 -8.38803,7.13768 -5.76874,0.0137 -7.66667,-0.45395 -7.66667,-1.88906 0,-1.049 1.35,-2.099 3,-2.33334 1.65,-0.23433 3,-1.02606 3,-1.7594 0,-1.22655 -1.90122,-1.72568 -15.33333,-4.02545 l -4.66667,-0.799 3.21344,2.79878 c 2.24959,1.9593 2.79243,3.2198 1.80981,4.20242 -2.03659,2.03659 -6.73647,-0.81854 -7.26346,-4.4125 -0.34219,-2.33359 -1.87285,-3.23281 -7.74619,-4.55068 -8.07667,-1.81225 -10.32487,-1.33181 -7.83075,1.67342 2.94053,3.54312 -1.45401,4.6722 -5.89019,1.51336 -5.42665,-3.86412 -15.05369,-2.61196 -23.40817,3.04462 l -6.21782,4.20992 6.99772,-0.76435 c 4.40345,-0.48099 9.34653,-0.0516 13.33333,1.15812 8.1775,2.48138 10.91931,2.43973 13.84763,-0.21037 3.10345,-2.80858 7.60042,-1.45193 5.11482,1.54304 -0.92043,1.10905 -1.438,2.21845 -1.15017,2.46535 1.52707,1.30987 11.8032,1.98519 12.52155,0.82288 0.97899,-1.58404 6.00178,-1.80962 6.00178,-0.26956 0,0.58667 -0.66772,1.73439 -1.48382,2.55049 -2.3923,2.39231 -0.35662,3.95087 6.36338,4.87195 7.08865,0.97161 9.66522,-0.94049 6.29119,-4.66876 -1.87492,-2.07176 -1.41761,-2.27496 6.07015,-2.69712 4.45381,-0.25111 7.94662,-0.1024 7.7618,0.33046 -0.18482,0.43286 -5.13603,5.09162 -11.0027,10.3528 -11.30458,10.13786 -24.48063,17.64086 -36.66666,20.87955 -10.15033,2.69766 -27.14223,2.60414 -31.38025,-0.17271 -3.69962,-2.42409 -4.34626,-7.30721 -1.3022,-9.83356 2.12546,-1.76397 2.71661,-1.00356 3.61777,4.65357 0.36389,2.28431 1.61774,2.72358 8.74474,3.06362 8.52505,0.40675 9.92083,-0.26571 6.19954,-2.98678 -1.783,-1.30376 -1.82893,-1.79238 -0.28862,-3.07072 2.07048,-1.71835 3.7162,-0.88747 5.93,2.99388 1.01911,1.78676 2.72243,2.57652 5.1621,2.39345 4.12891,-0.30981 6.14699,-1.79541 3.65025,-2.6871 -0.91667,-0.32738 -1.66667,-1.21337 -1.66667,-1.96885 0,-0.87167 2.18469,-1.046 5.97849,-0.47709 4.65322,0.6978 6.67338,0.37238 9.11321,-1.46799 l 3.13472,-2.36452 -4.44171,-2.38062 c -5.42133,-2.90566 -10.23369,-3.05276 -12.45137,-0.38061 -1.84588,2.22414 -5.33334,2.70339 -5.33334,0.73292 0,-0.6969 1.04501,-1.8519 2.32223,-2.56667 3.30172,-1.84773 1.71598,-2.79612 -6.25335,-3.73997 -6.45024,-0.76394 -7.21879,-0.54454 -10.50414,2.99857 -3.0175,3.25423 -3.61216,3.47261 -3.99816,1.46826 -0.24939,-1.295 0.22769,-3.17527 1.06019,-4.17837 1.80697,-2.17727 -0.99245,-3.24673 -7.29343,-2.7863 -2.96753,0.21684 -4.10998,1.03815 -4.42607,3.18192 -0.53415,3.62264 -2.45685,3.74259 -3.57393,0.22297 -0.95839,-3.01961 -4.4523,-3.47797 -7.62274,-1 -1.57214,1.22876 -1.82268,2.46267 -0.95354,4.69622 1.42326,3.65757 4.86149,5.21857 6.93257,3.14749 2.71702,-2.71702 3.52379,-1.60424 3.24829,4.48035 -0.14919,3.2949 -0.71071,5.9949 -1.24784,6 -2.00826,0.0191 -13.02341,-11.62092 -13.02341,-13.76217 0,-1.38337 -1.07455,-2.22856 -2.83333,-2.22856 -2.45422,0 -2.72329,0.55024 -2.01089,4.11221 1.11812,5.59063 5.53019,11.48455 10.53418,14.07221 l 4.14638,2.14418 -3.49327,1.83031 c -4.35171,2.28009 -5.80436,6.53164 -3.62382,10.60602 3.00796,5.62041 12.27422,6.05207 20.93701,0.97534 z m 143.58183,1.49783 c 3.76627,-3.76627 2.08551,-9.0887 -3.90476,-12.36512 -1.85935,-1.01699 -2.06118,-1.47115 -0.66667,-1.50015 4.58708,-0.0954 18.56923,-8.11771 24.90596,-14.28988 11.80219,-11.4957 14.95785,-20.6909 12.51162,-36.45727 -1.27396,-8.21088 -1.18882,-10.10955 0.57403,-12.79999 3.11602,-4.75566 13.62024,-3.92442 10.67283,0.84458 -0.54468,0.88132 -1.65977,0.89087 -3.27201,0.028 -4.13804,-2.21461 -5.67633,1.29605 -4.62801,10.56197 0.50606,4.47301 1.44109,8.45473 2.07785,8.84827 0.63675,0.39354 1.15773,0.16458 1.15773,-0.50878 0,-0.67337 2.5168,-4.08354 5.59288,-7.57815 4.43629,-5.03989 5.56526,-7.32792 5.45935,-11.06419 C 321.34124,8.96858 304.55489,8.25423 299.4504,19.21626 l -2.48922,5.34566 -9.42627,-4.67899 c -9.01168,-4.4732 -10.04576,-4.6771 -23.51079,-4.63583 -13.10523,0.0402 -14.69606,0.34146 -22.88029,4.33333 -9.6751,4.71905 -10.94837,4.93784 -16.82147,2.89047 -7.2588,-2.53043 -8.67328,-13.26697 -1.74785,-13.26697 3.81776,0 4.43818,2.2308 1.24287,4.46888 -5.71887,4.00566 2.65919,8.73531 10.02324,5.65841 2.44207,-1.02036 4.80353,-2.4432 5.24769,-3.16187 1.1351,-1.83662 -9.16277,-8.3605 -14.58615,-9.2406 -8.30304,-1.3474 -13.55008,4.78057 -9.91274,11.577 1.93264,3.61117 10.38143,8.42154 13.40337,7.63128 3.89351,-1.01818 3.20545,-0.0293 -2.69797,3.87736 -5.51808,3.65169 -5.85697,5.0653 -1.4882,6.20776 1.61291,0.42179 4.9838,-1.07137 9.02078,-3.99582 11.98887,-8.68492 19.86899,-11.54279 31.77888,-11.52522 12.11973,0.0179 22.84648,3.01752 26.98586,7.54637 4.02644,4.40527 7.01414,10.98472 7.01414,15.44637 0,4.92473 -4.15563,14.76687 -7.49388,17.74841 -2.40342,2.1466 -2.50865,2.03733 -2.56798,-2.66667 -0.034,-2.69774 -0.53042,-6.48065 -1.10309,-8.40647 -0.9573,-3.2193 -0.76924,-3.44948 2.33374,-2.85631 2.71433,0.51888 3.53195,0.0196 4.17703,-2.55057 1.0369,-4.13134 -1.17544,-9.88318 -4.48204,-11.65282 -1.99189,-1.06603 -2.7739,-0.92954 -3.35531,0.5856 -0.41696,1.08657 -1.67694,1.97558 -2.79995,1.97558 -2.44387,0 -2.74993,-3.53946 -0.37518,-4.33873 3.22868,-1.08667 -1.49269,-4.61993 -7.35468,-5.50391 -3.10493,-0.46821 -7.89532,-1.2108 -10.64532,-1.6502 -4.07084,-0.65045 -5,-0.39236 -5,1.38881 0,1.20325 0.9,2.53309 2,2.95519 3.38856,1.30032 2.21446,3.14884 -2,3.14884 -3.06037,0 -4,-0.60346 -4,-2.5689 0,-5.37767 -11.16399,-3.61023 -12.56954,1.98995 -0.65805,2.62189 -1.66383,3.24562 -5.23364,3.24562 -7.031,0 -6.67867,1.44776 1.32014,5.42463 7.49179,3.72478 10.56005,3.74972 13.29023,0.10802 0.8344,-1.11299 2.42523,-1.60085 3.66666,-1.12447 3.01541,1.15712 2.74979,3.23534 -0.54725,4.28178 -3.94073,1.25074 -2.63162,3.31132 3.4534,5.43579 5.97706,2.08677 8.62,1.61817 8.62,-1.52835 0,-1.18413 0.75,-1.88682 1.66666,-1.56154 0.91667,0.32528 1.52083,1.89172 1.34259,3.48097 -0.22822,2.03482 0.68484,3.27313 3.0868,4.18635 5.86932,2.23152 7.62669,1.69653 6.68976,-2.03652 -1.13589,-4.52574 2.26528,-4.4765 4.3335,0.0627 4.47829,9.82878 -0.343,18.62529 -12.75331,23.26858 -15.76963,5.90018 -35.03566,4.78167 -60.29683,-3.50059 -11.76574,-3.85758 -14.6146,-4.36501 -17.40059,-3.09933 l -3.33143,1.51345 3.6144,1.89378 c 9.32882,4.88786 36.57956,11.37194 52.38178,12.46379 18.3291,1.26645 20.39659,1.85727 21.47037,6.13554 1.0339,4.11941 -0.25264,5.92872 -4.21572,5.92872 -2.40112,0 -3.25465,-0.7229 -3.25465,-2.75652 0,-2.14975 0.58699,-2.57022 2.66667,-1.91015 1.50908,0.47896 2.66666,0.2396 2.66666,-0.55142 0,-1.5162 -2.40798,-2.1788 -12.66666,-3.48548 -7.38791,-0.94101 -7.34387,-0.79574 2,6.59714 6.49121,5.13585 11.84011,6.07584 15.23809,2.67785 z M 75.27296,81.67686 c 0,-11.41026 -0.009,-11.43914 -4.6163,-15.28572 -3.82477,-3.19305 -5.88235,-3.86835 -12,-3.93837 -6.35893,-0.0728 -6.92108,-0.27382 -4.05037,-1.44851 1.83333,-0.75019 6.18417,-1.04033 9.66854,-0.64475 l 6.3352,0.71925 -1.97523,-3.81968 C 64.17776,48.64012 54.65169,44.51413 41.62373,45.55989 31.78448,46.34969 31.99234,44.59225 41.93962,42.889 l 6.66667,-1.14152 -6.66667,-2.42313 C 31.23803,35.43464 19.58762,29.54992 15.27296,25.8548 c -3.81999,-3.27149 -3.66999,-3.24606 3.33333,0.56496 8.72386,4.74731 24.36293,10.78419 27.93737,10.78419 2.23417,0 2.39247,-0.5254 1.30289,-4.32453 -0.68214,-2.37849 -1.17293,-6.12849 -1.09063,-8.33333 0.11825,-3.16823 0.46772,-2.61092 1.66666,2.65786 2.09099,9.1889 4.10085,12.23009 10.10789,15.29466 l 5.16836,2.6367 0.87511,-6.36278 c 1.30292,-9.4734 2.74214,-10.41987 2.75315,-1.81055 0.008,6.121 0.85426,9.04715 4.40896,15.24197 2.41961,4.21667 4.87167,7.66667 5.44904,7.66667 0.57737,0 1.41739,-3.10406 1.86671,-6.8979 0.44933,-3.79385 1.4329,-7.51385 2.18572,-8.26667 2.34891,-2.34891 1.5048,-3.83897 -1.81522,-3.20431 -2.88452,0.55141 -3.2445,0.0718 -3.82738,-5.09955 -0.35387,-3.13951 -2.26471,-8.47475 -4.24631,-11.85609 l -3.60291,-6.1479 -4.1024,2.59745 -4.1024,2.59746 -3.23544,-3.23545 c -1.7795,-1.77949 -5.94694,-4.50999 -9.26098,-6.06777 -6.39053,-3.00391 -8.36975,-2.24037 -8.41777,3.2474 -0.0224,2.55492 -1.44376,3.0174 -3.42042,1.11289 -0.69667,-0.67124 -6.06667,-1.54199 -11.93333,-1.93501 -9.93422,-0.66552 -10.91015,-1.0032 -14.21247,-4.91776 -3.42953,-4.06534 -3.59348,-4.11407 -5,-1.48597 -3.04905,5.69721 -0.83797,15.75771 4.42277,20.12374 1.83238,1.52074 1.83814,2.11878 0.0537,5.56956 l -1.99913,3.86588 h 4.94661 c 4.7384,0 16.4552,4.60327 16.4552,6.46488 0,0.49151 -1.2,1.64307 -2.66666,2.55902 -5.1594,3.2221 -3.13923,5.02554 5.66666,5.05873 4.58334,0.0173 10.07068,0.77411 12.1941,1.68185 l 3.86076,1.65044 -2.86076,3.04514 c -1.57342,1.67483 -2.86076,4.67318 -2.86076,6.66301 v 3.61786 l 8.50978,-0.87185 c 6.84319,-0.70111 9.2885,-0.41186 12.48595,1.47692 6.15195,3.63405 8.94577,9.44419 8.84562,18.39568 -0.0792,7.08029 0.0947,7.56034 2.03601,5.61905 1.6112,-1.6112 2.12264,-4.87707 2.12264,-13.55449 z M 385.4064,95.8557 c 6.37657,-1.77129 9.59221,-5.58778 9.80216,-11.63374 0.13655,-3.93213 0.71532,-4.99117 2.78504,-5.09609 6.99866,-0.3548 8.58987,-0.8763 14.38409,-4.71423 3.42572,-2.26911 6.22859,-4.62017 6.22859,-5.22459 0,-2.09866 -9.00493,-6.64976 -13.15738,-6.64976 -5.15584,0 -5.37834,-1.97641 -0.50614,-4.49592 4.37291,-2.26132 9.08553,-7.19318 7.95434,-8.32438 -0.44218,-0.44217 -2.6385,0.50236 -4.88072,2.09897 -2.24222,1.5966 -4.07677,2.56582 -4.07677,2.15381 0,-0.412 2.55,-2.6222 5.66667,-4.91155 5.91101,-4.34195 4.41797,-4.4188 -5.66667,-0.29167 -5.23434,2.14215 -4.02863,0.31746 1.76597,-2.67257 2.07128,-1.06878 3.27128,-2.23041 2.66667,-2.58139 -1.49237,-0.86633 -16.96907,5.56573 -25.8616,10.74799 l -7.2377,4.21788 6,0.0424 c 3.48517,0.0246 8.93397,1.40839 13,3.3014 8.35821,3.89131 9.19308,5.37046 1.49903,2.65584 -5.84629,-2.06269 -23.4753,-2.4299 -29.1657,-0.60752 -2.58669,0.8284 -2.76225,1.09729 -0.78381,1.20043 3.96978,0.20694 13.64833,6.39619 16.69668,10.67721 4.31676,6.06233 3.27281,6.13918 -3.41598,0.25147 -8.7866,-7.73428 -17.75466,-9.8012 -28.99008,-6.68153 -3.80817,1.05739 -4.76869,1.82387 -3.66666,2.9259 0.82125,0.82125 1.4697,3.32319 1.441,5.55985 l -0.0522,4.06667 -1.79954,-4.13379 c -2.01727,-4.63393 -4.27814,-5.86621 -10.76275,-5.86621 -2.44671,0 -5.39419,-0.36287 -6.54996,-0.80638 -3.27869,-1.25815 -1.08126,-3.1934 3.62865,-3.19569 12.70273,-0.006 19.50885,-11.65593 11.88289,-20.33944 -3.46167,-3.94172 -0.67314,-4.204 2.96457,-0.27884 3.62163,3.9078 4.21835,7.64654 2.10685,13.20022 -2.06754,5.43804 1.98638,4.34107 5.91911,-1.60169 4.59136,-6.938 5.3457,-12.16038 3.39975,-23.53653 -1.21892,-7.1259 -1.27826,-10.45084 -0.21904,-12.2742 1.26886,-2.18422 1.45789,-1.96048 1.4933,1.76749 0.0223,2.34756 0.9047,7.586 1.96089,11.64098 2.04365,7.84611 1.5353,15.10992 -1.47601,21.09075 -2.12934,4.22912 -0.88663,4.65336 4.88629,1.66806 4.76594,-2.46456 9.64201,-8.71691 13.11277,-16.81387 2.28061,-5.32043 8.4268,-13.18753 10.3028,-13.18753 0.34373,0 -0.8602,2.25 -2.67542,5 -2.64184,4.00231 -7.40411,15.01092 -7.40411,17.11557 0,0.24583 4.35,-1.64251 9.66667,-4.19631 5.31666,-2.55379 11.96539,-5.01484 14.77494,-5.46899 7.76781,-1.25562 2.98769,-3.18338 -5.77494,-2.32896 -6.33837,0.61803 -6.97153,0.48062 -4.66667,-1.01278 1.47976,-0.95879 6.5472,-1.73837 11.3852,-1.75151 7.62926,-0.0207 9.68167,0.55936 16.42733,4.64298 9.36609,5.66995 13.82816,12.02747 12.03007,17.14033 -0.67707,1.92524 -2.39954,3.72546 -3.82771,4.0005 -2.2524,0.43378 -2.35968,0.21452 -0.80919,-1.65371 1.07045,-1.28981 1.2187,-2.15378 0.36958,-2.15378 -2.1821,0 -3.23755,2.50789 -2.42236,5.75588 1.08126,4.30808 8.14872,8.03969 13.56275,7.16111 3.0471,-0.49447 4.97823,-0.0891 6.11801,1.28424 0.91601,1.10374 4.70317,3.59487 8.4159,5.53585 5.52444,2.88813 8.56657,3.53516 16.75042,3.56266 9.13851,0.0307 10.53711,-0.33939 16.2347,-4.29594 4.4887,-3.11706 7.22323,-6.41909 9.76455,-11.79101 1.94142,-4.10381 3.3358,-7.62921 3.09863,-7.83423 -0.23717,-0.20502 -2.35142,-1.34907 -4.69833,-2.54233 -4.92265,-2.50286 -8.82457,-2.74951 -12.48721,-0.78932 -3.71672,1.98913 -3.26207,5.28642 0.72892,5.28642 4.77668,0 5.63671,4.91319 1.95294,11.15673 -3.40097,5.76421 -9.10872,9.10994 -15.54138,9.10994 -5.59737,0 -7.69692,-1.56306 -2.27504,-1.69372 8.47483,-0.20422 8.90271,-1.96771 0.87952,-3.62487 -9.01416,-1.86185 -17.09933,-7.88656 -21.79431,-16.24014 l -2.90743,-5.17308 -2.81112,5.49928 c -1.54611,3.0246 -3.50059,5.70909 -4.34329,5.96552 -0.87446,0.2661 -0.40982,-1.80224 1.08239,-4.81827 2.22157,-4.49019 2.3965,-6.09436 1.16378,-10.67233 -4.03835,-14.99728 -18.457,-20.49092 -40.38065,-15.38541 -3.14074,0.73141 -3.66667,0.43652 -3.66667,-2.05587 0,-1.60037 0.60162,-4.0339 1.33694,-5.40785 3.33342,-6.22856 -8.43724,-4.6704 -15.94283,2.11045 l -5.11346,4.6197 -1.30879,-3.69504 c -0.71983,-2.03227 -3.18298,-5.63958 -5.47366,-8.01624 -2.29067,-2.37666 -4.16486,-5.22666 -4.16486,-6.33333 0,-2.768 -3.82991,-2.51238 -8.92756,0.59586 -5.6006,3.4149 -8.75822,8.42582 -9.1243,14.47958 -0.28871,4.77454 -0.47208,4.9377 -6.5327,5.81287 -9.93113,1.43409 -13.86354,6.65145 -8.81698,11.69802 1.50418,1.50417 2.73487,3.65877 2.73487,4.78798 0,4.47491 -5.31633,12.30164 -9.80167,14.43007 -4.71815,2.23891 -14.98878,2.91236 -17.73767,1.16307 -0.84664,-0.53877 0.95336,-1.00252 4,-1.03055 3.04664,-0.028 7.18934,-0.48945 9.20601,-1.0254 7.22911,-1.92119 3.45924,-3.10138 -7.98759,-2.50057 -8.65878,0.45447 -12.06016,1.16412 -13.23348,2.76098 -2.10084,2.85918 1.20458,3.77728 20.20805,5.61297 8.21016,0.79308 15.09836,2.10164 15.66499,2.97591 1.6575,2.55735 0.52948,5.47374 -2.65976,6.87658 -4.02982,1.77258 -3.77661,2.91144 1.34112,6.03177 5.79489,3.53322 16.20511,3.53322 22,0 2.38333,-1.45314 4.33333,-3.48671 4.33333,-4.51903 0,-3.38317 3.60505,-3.42297 5.13881,-0.0567 1.17104,2.57016 2.49524,3.23645 6.49927,3.27022 6.23418,0.0526 10.39116,2.89688 9.1006,6.22687 -0.88267,2.27751 -1.01506,2.28071 -2.64756,0.0641 -2.01623,-2.7377 -4.75778,-3.08343 -4.75778,-0.6 0,4.6382 4.94063,5.95348 13.46678,3.58508 z M 43.34935,84.6463 c 1.42235,-1.04004 2.26082,-2.21624 1.86328,-2.61378 -1.33121,-1.33122 -6.60634,0.793 -6.60634,2.66028 0,2.3535 1.48072,2.33899 4.74306,-0.0465 z m -2.6176,-6.8928 c 7.68942,-3.63768 8.97823,-5.89237 1.97208,-3.45001 -2.26989,0.79129 -4.35622,0.89393 -4.76385,0.23437 -0.3989,-0.64543 -2.79289,-0.30959 -5.31999,0.7463 -5.97434,2.49624 -10.64191,2.43444 -13.25179,-0.17544 -4.67623,-4.67623 -0.61961,-7.16471 7.37727,-4.5255 6.35999,2.09899 8.80783,0.56612 5.8468,-3.66133 C 26.0208,57.5398 6.6268,66.61019 11.95831,76.5722 c 3.60563,6.73717 15.95736,7.24428 28.77344,1.1813 z m 13.46686,0.23055 c 2.05756,-1.77095 3.33255,-3.62941 2.83332,-4.12991 -1.27856,-1.28184 -9.09231,3.56274 -9.09231,5.63729 0,2.57902 2.09839,2.07366 6.25899,-1.50738 z M 504.04665,74.48 c 1.31137,-0.70182 4.22376,-1.27605 6.47197,-1.27605 4.53456,0 5.15017,-1.41368 1.99122,-4.57262 -1.34263,-1.34263 -3.26031,-1.80433 -5.33333,-1.28403 -4.09168,1.02694 -4.29183,-1.51522 -0.44195,-5.61323 2.04162,-2.1732 2.45819,-3.57686 1.54553,-5.20769 -1.06275,-1.89903 -1.51008,-1.60333 -2.99398,1.97913 -1.30208,3.14348 -2.05442,3.76619 -2.96621,2.45509 -0.80731,-1.16087 -0.91747,-0.68255 -0.32479,1.41033 0.56476,1.99425 0.39833,2.85886 -0.44944,2.33491 -0.74046,-0.45763 -1.99426,1.02671 -2.78623,3.29854 -0.79196,2.27183 -3.70041,6.21363 -6.46321,8.75955 l -5.02328,4.62895 7.19469,-2.81841 c 3.95708,-1.55013 8.26763,-3.39264 9.57901,-4.09447 z m 71.52593,-0.49563 c 8.55458,-2.27745 14.10132,-5.63561 20.97096,-12.69645 4.06021,-4.17323 4.71668,-5.4173 2.85856,-5.4173 -1.32662,0 -3.51015,1.39602 -4.85229,3.10227 -1.34213,1.70625 -6.22849,5.13244 -10.85856,7.61376 -7.57136,4.0576 -9.73267,4.56621 -21.48261,5.05539 -13.04607,0.54314 -24.35498,-1.432 -32.9357,-5.75234 -1.85074,-0.93184 -4.51548,-1.25093 -5.99118,-0.71742 -2.37904,0.8601 -2.16924,1.21586 2,3.39145 13.62385,7.10919 35.20908,9.43577 50.29082,5.42064 z m -102.96682,-2.6283 c -2.20028,-0.95893 -4.89155,-2.81714 -5.98059,-4.12935 -1.49897,-1.80615 -0.24227,-1.50523 5.17217,1.23847 l 7.15224,3.62432 -5.82388,-6.90678 c -3.20313,-3.79873 -7.54932,-7.79904 -9.65819,-8.88958 -3.9208,-2.02752 -3.52643,-3.80189 1.02828,-4.62644 9.56116,-1.73089 -6.62825,-12.30099 -25.18664,-16.44441 l -3.96379,-0.88497 2.62835,2.90429 c 1.44559,1.59737 6.8293,5.29068 11.96379,8.20737 l 9.33545,5.30307 -5.63791,-0.78521 c -5.5773,-0.77677 -5.6242,-0.74916 -4.3629,2.56833 4.81493,12.66421 13.92692,20.71179 23.33414,20.60837 l 4,-0.044 z m 11.33385,-6.23081 c 0,-2.46569 -1.30528,-3.16728 -5,-2.6875 -2.13106,0.27673 -2.21878,-6.81503 -0.11037,-8.92343 1.18616,-1.18617 1.02943,-1.75846 -0.65901,-2.40638 -1.21842,-0.46755 -1.88758,-1.38035 -1.48704,-2.02844 1.12814,-1.82537 -3.81458,0.29914 -6.22233,2.67453 -1.96927,1.94279 -1.81581,2.55448 1.86902,7.44991 7.44562,9.89179 11.60973,12.01561 11.60973,5.92131 z M 421.74565,63.9008 c -0.68608,-3.43042 -0.22978,-4.29098 3.35824,-6.33334 4.84539,-2.75809 5.2822,-5.00728 1.3782,-7.09664 -3.90363,-2.08916 -7.95191,-0.73979 -12.57942,4.19295 -2.89511,3.08607 -3.46952,4.40157 -2.13159,4.8817 1.00731,0.36148 3.70731,2.36493 6,4.45211 2.29269,2.08718 4.30353,3.81246 4.46853,3.83395 0.165,0.0215 -0.0573,-1.74733 -0.49396,-3.93073 z M 92.30618,61.14866 c 14.32315,-6.70261 26.90189,-8.63232 44.42832,-6.81577 15.22909,1.57844 17.52219,2.12182 32.90724,7.79784 8.70075,3.20997 9.16596,3.24794 12.55835,1.02516 l 3.5229,-2.30829 -3.22502,-1.67871 c -6.03923,-3.1436 -23.19597,-8.48043 -34.53432,-10.74235 -18.62199,-3.71495 -45.84753,-1.06706 -60.02403,5.83779 -3.70594,1.80502 -4.75268,3.16505 -5.08447,6.60629 -0.2298,2.38333 -0.14717,4.33333 0.18363,4.33333 0.3308,0 4.50112,-1.82488 9.2674,-4.05529 z m 442.27968,1.05529 c -0.0112,-0.91666 -0.52773,-2.46697 -1.14778,-3.44513 -0.89931,-1.41869 -1.29976,-1.3292 -1.97958,0.44239 -1.32379,3.44972 -1.02398,4.66941 1.14778,4.66941 1.1,0 1.99081,-0.75 1.97958,-1.66667 z m 12.06538,-2.92724 c 12.42017,-7.82851 15.04343,-12.2795 11.46488,-19.45288 -1.75475,-3.51747 -1.71058,-3.92139 0.50564,-4.62479 2.59898,-0.82489 5.31785,-7.05936 5.31785,-12.19405 0,-3.59704 -1.00266,-3.87656 -4.70332,-1.31122 -1.64438,1.1399 -7.88625,2.05215 -16.65543,2.43418 -10.72295,0.46715 -14.92424,1.19995 -17.84266,3.11217 -3.46451,2.27003 -3.58536,2.59074 -1.30791,3.47071 1.38013,0.53325 4.03845,1.29345 5.90738,1.68933 5.24876,1.11178 12.83964,7.59986 15.38598,13.15072 1.26494,2.75748 2.01674,5.29674 1.67066,5.64281 -0.34607,0.34608 -1.7127,-1.82654 -3.03696,-4.82803 -5.12633,-11.6191 -25.0419,-15.47983 -37.84827,-7.33708 -6.08905,3.87164 -10.41583,11.12621 -8.05688,13.50871 0.87754,0.8863 1.785,0.50914 2.70662,-1.12493 2.11475,-3.74956 9.63586,-6.45098 13.67978,-4.91348 3.98405,1.51474 5.87397,7.29409 3.58423,10.96055 -2.3232,3.72003 -0.77528,4.93808 4.70473,3.70213 5.41352,-1.22094 7.45009,-3.44943 6.35843,-6.95761 -0.39934,-1.28333 -0.15212,-2.33333 0.54939,-2.33333 2.60547,0 7.3289,4.99854 7.66637,8.11289 0.19194,1.77125 0.39897,3.37044 0.46008,3.55378 0.34243,1.02728 2.97609,-0.15519 9.48941,-4.26058 z m -7.13765,-10.79788 c -1.29522,-2.7161 -2.07347,-5.21984 -1.72944,-5.56386 0.89615,-0.89615 5.07325,7.5356 4.53424,9.15266 -0.24742,0.74226 -1.50958,-0.8727 -2.8048,-3.5888 z m -4.95504,-0.82735 c -1.52682,-2.97714 -1.49106,-3.0129 0.81261,-0.81261 1.32535,1.26588 2.04405,2.66726 1.59711,3.1142 -0.44693,0.44693 -1.53131,-0.58878 -2.40972,-2.30159 z m 13.9818,-0.23551 c -0.47431,-1.88978 -1.70351,-4.13405 -2.73156,-4.98725 -1.02805,-0.85321 -1.86918,-2.17081 -1.86918,-2.92801 0,-0.7572 1.14604,-0.33957 2.54675,0.92805 2.55548,2.31268 4.83091,8.50864 3.58303,9.75652 -0.36667,0.36667 -1.05473,-0.87952 -1.52904,-2.76931 z m 3.39926,-4.21202 c -0.69703,-1.83333 -1.98218,-3.33333 -2.85589,-3.33333 -0.8737,0 -1.20305,-0.3855 -0.73189,-0.85667 1.22297,-1.22296 4.50938,1.80486 5.31887,4.90035 0.97839,3.74138 -0.22653,3.24694 -1.73109,-0.71035 z m 2.39535,-2.03024 c -1.24923,-2.18337 -1.72034,-3.96976 -1.04691,-3.96976 1.51105,0 4.31235,5.02876 3.73803,6.71034 -0.23089,0.67604 -1.4419,-0.55722 -2.69112,-2.74058 z m -39.28392,15.46106 c 0.40153,-1.04638 -0.0642,-2.5617 -1.03497,-3.36736 -1.32655,-1.10094 -1.97041,-0.92965 -2.59174,0.6895 -0.89116,2.32234 -0.0114,4.58038 1.78465,4.58038 0.6116,0 1.44052,-0.85614 1.84206,-1.90252 z m 94.35627,-4.97216 c 6.87326,-2.33746 13.59027,-8.1951 21.25795,-18.53823 7.59691,-10.24766 11.97137,-13.25376 19.28682,-13.25376 2.86819,0 4.47874,-0.53853 3.98753,-1.33334 -1.37851,-2.23046 -10.40789,-1.48116 -14.8592,1.2331 -2.30589,1.40605 -5.90589,4.80525 -8,7.55378 -6.11697,8.02857 -15.47481,17.96472 -18.38692,19.52324 -8.44767,4.52105 -20.75388,2.89309 -20.75388,-2.74549 0,-6.27513 8.35114,-6.99282 9.89285,-0.85018 0.512,2.04 1.7786,3.28556 3.34106,3.28556 3.44544,0 2.17172,-4.55852 -2.24431,-8.03217 -4.28121,-3.3676 -8.93532,-3.35545 -12.32294,0.0322 -8.63312,8.63312 4.68035,17.92748 18.80104,13.12532 z m -117.4677,-1.76953 c 0,-2.61515 -28.5722,-12.56137 -30.51207,-10.6215 -0.90784,0.90784 4.15545,4.49623 6.51207,4.61516 1.1,0.0555 4.4,1.02739 7.33334,2.15974 4.48846,1.73266 11.70003,3.72926 15.66666,4.33747 0.55,0.0843 1,-0.13656 1,-0.49087 z"
     /></svg>
