<?xml version="1.0" encoding="utf-8"?>
<svg xmlns="http://www.w3.org/2000/svg" xmlns:svg="http://www.w3.org/2000/svg" height="99.44px" version="1.1" width="99.441px" viewBox="0 0 99.441 99.44">
	<path d="M 14.20621,-2e-6 C 6.37087,-2e-6 5e-4,6.3703734 5e-4,14.205712 v 71.02857 c 0,7.83534 6.37037,14.205722 14.20571,14.205722 h 71.028576 c 7.83534,0 14.205711,-6.370382 14.205711,-14.205722 V 14.205712 C 99.440497,6.3703734 93.070126,-2e-6 85.234786,-2e-6 Z m 65.945596,18.645 -23.0399,26.324964 27.10184,35.82503 h -21.21978 l -16.60293,-21.7303 -19.022346,21.7303 H 16.82539 L 41.463426,52.627732 15.47141,18.644998 h 21.752496 l 15.02698,19.865804 17.35761,-19.865804 z M 71.761556,74.491212 34.049816,24.615839 H 27.76823 l 38.133456,49.875373 h 5.83767 z"/>
</svg>
