<svg version="1" xmlns="http://www.w3.org/2000/svg" width="666.667" height="666.667" viewBox="0 0 500.000000 500.000000"><path d="M38.7 1.6C22 5.6 9 17.2 2.8 33.6L.5 39.5v420l2.4 6.5c4.7 13 12.8 22.3 24.3 28.1 12.5 6.3-1.4 6 226 5.7l207.3-.3 5.9-2.3c15-5.7 25.1-15.9 30.7-31.2l2.4-6.5v-419l-2.4-6.5c-5.6-15.3-15.7-25.5-30.7-31.2L460.5.5l-208-.2C76.7.2 43.6.4 38.7 1.6zm98.1 132.2c.4 8.2-.1 10.7-3.3 18.7-1.1 2.6 4.3-3 10.1-10.6 9.2-11.9 20.2-17.2 28.9-13.9l2.6 1-1.8 3.1c-2.7 4.5-10.8 11.8-15.6 13.9-2.3 1.1-7.4 2.2-11.2 2.6-7.8.7-8 .9-13.5 7.4l-3.9 4.6 4.9-2.4c6.1-3 16.1-4 22.5-2.2 2.5.7 4.4 1.8 4.2 2.4-.2.6-2.4 2.5-5 4.3-7.5 5-16.5 6.2-28.2 3.8-2.8-.6-3.4-.2-7.9 5.4-2.6 3.4-4.5 6.1-4.1 6.1.3 0 2.5-1 4.8-2.1 5.1-2.7 15.9-3.6 21.1-1.9 2 .6 3.6 1.5 3.6 2 0 1.5-6.4 5.9-10.9 7.5-5 1.7-15.7 2-19.7.4-3.3-1.2-4.1-.4-10 10.5l-3.8 7.1 3.9-3.4c8-7 19.7-10.4 27-7.8l4 1.4-6.1 6.1c-7.4 7.3-13.9 9.8-24.1 8.9-3.5-.2-6.6-.1-6.8.4-.3.4-1.7 3.8-3.1 7.6l-2.5 6.8 4.3-4.2c5.9-5.7 13.8-9.3 20.8-9.3 8 0 8.6.8 5 5.8-6.2 8.5-14.3 12.5-25.7 12.5h-6.1l-1.6 6.6c-.8 3.6-1.8 8.6-2.1 11.1l-.7 4.5 3.8-5.5c8.1-12.1 14.3-16.4 23.2-16.3 3 .1 5.6.4 5.9.7.9.8-5.2 9.7-9.4 13.8-4.6 4.5-11 7.4-18 8.4l-5.3.7v8.8c0 4.9.4 8.9.9 8.9s2.1-2.1 3.6-4.6c6.3-10.8 13.9-16.3 22.3-16.4h4.2l-3.1 6.1c-4.3 8.6-11.3 15.3-18 17.3-2.9.9-6.1 1.6-7.1 1.6-1.5 0-1.7.5-1.2 2.7.8 4 3.5 12.3 3.9 12.3.2 0 2.1-3.3 4.3-7.3 6-10.8 12.1-15.7 19.8-15.7 3.2 0 3.5.2 2.8 2.2-3.1 10-11 19-18.7 21.3-2.8.8-5.7 1.5-6.4 1.5-1.8 0-1.7.2 1.6 6.8 5.3 10.3 5.4 10.3 7.8 2 3.3-11.3 8.1-17 15.2-18.4 3.3-.7 3.4-.6 2.7 2-2.9 11.8-7.9 19.2-15.3 23l-4.4 2.2 4.6 6.2c2.6 3.4 5.1 6 5.6 5.6.5-.3.9-3.1.9-6.2.1-9.1 4.5-16.5 11.3-19.1l2.7-1.1v5.8c0 7.7-3.6 15.1-9.7 19.7l-4.6 3.5 7.3 7.2c4 4 6.9 6.4 6.5 5.3-1.5-4-1.8-17.4-.5-20.5 1.2-2.9 6.3-8 8-8 1.5 0 3.3 7.4 3.3 13.5-.1 6.5-2.1 12.6-5.5 16.2-1.7 1.9-1.9 2.5-.8 3.8 1.9 2.2 11 8.8 11.6 8.3.2-.3-.1-1.9-.7-3.7-.6-1.7-.9-6.7-.8-11 .4-8.1 1.7-10.8 6.2-13.2 4.4-2.4 7.1 16.8 3.3 24.1-1 1.9-2.5 4.2-3.2 5.1-1.3 1.4-.4 2.1 7.8 6.1 5.1 2.5 12.1 5.6 15.6 6.9 6.2 2.4 6.9 3.2 5.3 5.8-.8 1.2-2.4.8-9.3-1.9-4.5-1.8-11.2-4.8-14.8-6.6l-6.5-3.2-4.2 3.8c-4.9 4.3-10.4 6-19.1 6-12.4 0-15.5-2-10.7-7 4.6-4.8 10.1-6.4 20.4-5.8l8.9.5-7.5-5.3-7.5-5.4-2.9 2.4c-4.5 3.8-9.3 4.9-18.3 4.3-8.9-.6-14.6-2.2-14.6-4.1 0-1.5 3.5-4.9 7-6.7 3.4-1.7 16.5-1.5 21.9.5 2.4.9 4.5 1.6 4.6 1.6.2 0-2.5-2.7-6-6l-6.3-6.1-4.2 2.2c-7.6 4-19.2 2.4-29.4-4.2-5.5-3.4-5.7-5.4-.8-8.2 6.3-3.7 17.8-2.1 27.3 3.8l4.4 2.8-2.6-2.9c-2-2.2-10.1-12.9-11.5-15.2-.1-.2-1.3.3-2.6 1.1-7.7 4.9-26.4 1-34.3-7.3l-2.6-2.8 3.8-2.3c7.5-4.7 19.2-2.7 30.4 5.2l2.6 1.8-2.5-6.7-2.6-6.7h-7.5c-5.9-.1-8.7-.6-12.6-2.5-4.8-2.3-16.5-12.8-16.5-14.8 0-1.3 3.6-2.2 9-2.2 6.1 0 13.9 3.8 20.5 10.1 3 2.9 5.5 4.7 5.5 4.1 0-3.5-2.4-11.2-3.4-11.2-2.8 0-13.7-6.3-17.7-10.3-4.5-4.5-8.3-11.8-9.5-18.1l-.7-3.9 4.3.7c10.2 1.6 17.3 8.3 21.7 20.6l2.8 7.7-.1-9.9c-.1-9.9-.1-10-3-11.7-8.5-5.2-15-16.5-16-27.9-.6-6.7-.6-7.2 1.3-7.2 3.4 0 11 5.7 13.6 10.2 2.2 3.7 3.9 9.8 5 17.3.1 1.1 1.1-1.6 2.2-6l2-8.1-2.7-2.2c-6.6-5.5-11.3-21.4-9.4-31.6.9-4.5 2.4-4.6 7.2-.4 5.4 4.8 7.3 9.8 7.4 19.3l.1 8 2.3-5.5c1.2-3 3-6.9 3.9-8.6 1.6-3.1 1.6-3.2-2.2-7.2-4.7-4.9-7.1-11.6-7.1-19.6 0-5.9 2.5-13.5 4.8-15 1.3-.8 7.1 5.8 8.9 10.3 1.6 3.7 2.1 16 .8 20.2-.3 1.3 1.7-1 4.5-5.2l5.1-7.7-1.8-5.3c-2.4-7.1-2.4-21.2-.1-25.4 1.9-3.5 5.5-7.5 6.7-7.5 1.4 0 3.1 5.9 3.7 12.5.4 4.4 0 7.7-1.5 12.5l-2 6.5 3-3.5c7.8-9 8.1-9.6 7-13.7-2.9-10.2-.3-24.4 5.6-30.5 3.8-3.9 4.7-2.4 5.1 8zm231.5-8c5.9 6.1 8.5 20.3 5.6 30.5-1.1 4.1-.8 4.7 7 13.7l3 3.5-2-6.3c-1-3.5-1.9-8.3-1.9-10.6 0-4.8 2.6-14.6 3.9-14.6 1.9 0 7.1 7.2 8.2 11.2 1.4 5.2.6 15.5-1.7 22.1l-1.6 4.8 5.2 7.7c2.8 4.2 4.8 6.6 4.5 5.3-1.3-4.2-.8-16.5.8-20.2 1.8-4.5 7.6-11.1 8.9-10.3 2.3 1.5 4.8 9.1 4.8 15 0 8-2.4 14.7-7.1 19.6-3.8 4-3.8 4.1-2.2 7.2.9 1.7 2.7 5.6 3.9 8.6l2.3 5.5.1-8c.1-9.5 2-14.5 7.4-19.3 4.8-4.2 6.3-4.1 7.2.4 1.9 10.2-2.8 26.1-9.4 31.6l-2.7 2.2 1.9 8 2 7.9 1.2-7.1c.7-4.1 2.4-9.2 3.9-11.8 2.8-4.7 10.3-10.4 13.8-10.4 1.9 0 1.9.5 1.3 7.2-1 11.4-7.5 22.7-16 27.9-2.8 1.7-2.9 1.8-3 11.7l-.1 9.9 2.8-7.7c4.4-12.2 11.5-19 21.6-20.6 4.8-.8 5-.2 2.5 7.3-3.5 10.6-13.3 20.4-23.5 23.4-4.1 1.3-4.3 1.7-5.5 8.9l-.6 4.4 5.8-5.4c8.2-7.4 14.9-10.4 22.5-9.8 3.2.2 6.2.7 6.5 1.1 1 1-6.2 9.3-11 12.6-6.1 4.2-13.6 6.4-20 5.9-5.3-.4-5.4-.4-6.4 2.6-.5 1.7-1.7 4.8-2.6 7l-1.7 3.8 2.8-2c11.5-8.1 23-10 30.7-5.3l3.9 2.5-4.1 3.7c-8.4 7.4-25.9 10.9-32.6 6.5-1.5-1-2.9-1.6-3-1.4-1.4 2.3-9.5 13-11.5 15.2l-2.6 2.9 4-2.5c10.1-6.2 21.3-7.8 27.7-4.1 4.9 2.8 4.7 4.8-.8 8.2-10.2 6.6-21.8 8.2-29.4 4.2l-4.2-2.2-6.3 6.1c-3.5 3.3-6.2 6-6 6 .1 0 2.2-.7 4.6-1.6 5.4-2 18.5-2.2 21.9-.5 3.5 1.8 7 5.2 7 6.7 0 1.9-5.7 3.5-14.6 4.1-9 .6-13.8-.5-18.3-4.3l-2.9-2.4-7.5 5.4-7.5 5.3 8.9-.5c10.3-.6 15.8 1 20.4 5.8 3.6 3.8 2.8 5.7-3 6.6-11.6 1.7-22.9-1.1-28.4-7l-2.4-2.5-6.6 3.3c-3.6 1.8-10.4 4.8-14.9 6.6-7 2.8-8.5 3.1-9.3 1.9-1.6-2.6-.9-3.4 5.4-5.8 3.4-1.3 10.4-4.4 15.5-6.9 8.2-4 9.1-4.7 7.8-6.1-5.1-5.9-6.7-18.4-3.3-26.4 1.8-4.2 3.2-4.1 7.2.3 2.4 2.6 3.3 14.4 1.6 20.5-.6 2.1-.9 4.1-.6 4.3.5.5 9.7-6.1 11.5-8.3 1.1-1.3.9-1.9-.8-3.8-3.4-3.6-5.5-9.8-5.5-16.2 0-6.1 1.8-13.5 3.3-13.5 1.7 0 6.8 5.1 8 8 1.3 3.1 1 16.5-.5 20.5-.4 1.1 2.5-1.3 6.5-5.3l7.3-7.2-4.6-3.5c-6.1-4.6-9.7-12-9.7-19.7V292l2.8 1.1c6.7 2.6 11.1 10 11.2 19.1 0 3.1.4 5.9.9 6.2.5.4 3-2.2 5.6-5.6l4.6-6.2-4.4-2.2c-7.4-3.8-12.4-11.2-15.3-23-.7-2.6-.6-2.7 2.7-2 7.1 1.4 11.9 7.1 15.2 18.4 2.4 8.3 2.5 8.3 7.8-2 3.3-6.6 3.4-6.8 1.6-6.8-.7 0-3.6-.7-6.3-1.5-7.7-2.3-15.8-11.4-18.8-21.3-.7-1.9-.4-2.2 2.4-2.2 4.1 0 9.9 2.5 13.3 5.8 1.6 1.5 4.7 6 6.9 9.9 2.2 4 4.1 7.3 4.3 7.3.4 0 3.1-8.3 3.9-12.1.5-2.5.3-2.7-3.7-3.3-9.7-1.6-17.1-7.7-22.8-18.9L382 247h4.2c8.4.1 16 5.6 22.3 16.4 1.5 2.5 3.1 4.6 3.6 4.6s.9-4 .9-8.9v-8.8l-5-.6c-10.2-1.2-18.7-6.9-25.1-16.8-1.6-2.5-2.9-4.8-2.9-5.1 0-.3 1.7-.8 3.7-1.1 8.9-1.5 17 3.5 25 15.2l4.5 6.6-.7-4.5c-.3-2.5-1.3-7.5-2.1-11.1l-1.6-6.6h-6.1c-11.4 0-19.5-4-25.7-12.5-3.6-5-3-5.8 5-5.8 7 0 14.9 3.6 20.8 9.3l4.3 4.2-2.5-6.8c-1.4-3.8-2.8-7.2-3.1-7.6-.2-.5-3.3-.6-6.8-.4-10.2.9-16.7-1.6-24.1-8.9l-6.1-6.1 4-1.4c7.3-2.6 19 .8 27 7.8l3.9 3.4-3.8-7.1c-5.9-10.9-6.7-11.7-10-10.5-4 1.6-14.7 1.3-19.7-.4-4.5-1.6-10.9-6-10.9-7.5 0-1.8 7.4-3.2 14-2.8 4.8.4 8.2 1.3 11.4 3.1 2.5 1.4 4.6 2.3 4.6 2 0-.2-2.1-3.2-4.7-6.5-4.4-5.5-5-5.9-7.8-5.3-11.7 2.4-20.7 1.2-28.2-3.8-2.6-1.8-4.8-3.7-5-4.3-.2-.6 1.7-1.7 4.2-2.4 6.4-1.8 16.4-.8 22.5 2.2l4.9 2.4-3.9-4.6c-5.5-6.5-5.7-6.7-13.5-7.4-3.8-.4-8.9-1.5-11.2-2.6-4.8-2.1-12.9-9.4-15.6-13.9l-1.8-3.1 2.6-1c8.9-3.4 19.8 2 29.2 14.3 5.9 7.8 11 13 9.9 10.2-2.9-6.9-3.5-9.8-3.6-16.1 0-7.6.8-13.4 1.9-13.4.4 0 2 1.3 3.4 2.8zM243 184.5c2.7 1.4 5.9 2.5 7 2.5 1.1 0 4.3-1.1 7-2.5l4.9-2.5H332v5.5c0 4.3.3 5.5 1.6 5.5.8 0 2.9 1.3 4.5 2.9l2.9 2.9v104.4l-2.9 2.9-2.9 2.9h-33.6c-32.1 0-33.6.1-33.6 1.9 0 1-.9 3-2.1 4.5-1.8 2.2-2.8 2.6-7.5 2.6s-5.4.3-5.4 2c0 4 3.5 4.3 12 1 15.7-6 26.2-7.3 35.8-4.5 13.1 3.9 17.4 18.7 7.5 26.2-8.9 6.8-26.6 3.2-48.4-9.8l-3.6-2.1-5.1 2.2c-2.9 1.2-5.2 2.5-5.2 2.9 0 .3 1.5 1.3 3.3 2.1 2.7 1.3 3.2 2.1 3.5 5.5.3 3.3.8 4.3 3.4 5.5 4.3 2.2 6.8 7.3 6.8 13.7 0 5-.2 5.3-2.4 5.3-2.2 0-2.5.5-2.8 4.2-.2 3.1-.8 4.4-2 4.6-1.5.3-1.8-.4-1.8-4.2V368h-8v4.6c0 3.8-.3 4.5-1.7 4.2-1.3-.2-1.9-1.5-2.1-4.6-.3-3.7-.6-4.2-2.8-4.2-2.2 0-2.4-.3-2.4-5.3 0-6.5 2.6-11.6 6.9-13.7 2.4-1.1 3.1-2.1 2.9-4-.2-1.9-1.2-2.7-5-3.9-4.5-1.4-4.9-1.3-16 2.4-14 4.7-25.3 5.3-32.9 1.9-7.8-3.6-8.9-11.5-2-16.1 4.3-3 21.8-2.4 35.5 1.1l10.8 2.9 6.2-2.9c3.3-1.6 6.3-3 6.5-3.1.2-.2-.3-1.1-1.2-2.1-1-1-1.7-3.1-1.7-4.5 0-2.6-.2-2.7-5.4-2.7-4.7 0-5.7-.4-7.5-2.6-1.2-1.5-2.1-3.5-2.1-4.5 0-1.8-1.5-1.9-33.6-1.9h-33.6l-2.9-2.9-2.9-2.9V198.8l2.9-2.9c1.6-1.6 3.7-2.9 4.5-2.9 1.3 0 1.6-1.2 1.6-5.5V182h70.1l4.9 2.5z"/><path d="M176 243.5V298h30.4c30.3 0 30.4 0 35.8 2.5 6.6 3.1 8.4 3.1 15.8 0 5.9-2.5 6.2-2.5 36-2.5h30V189h-59.5l-5.2 2.7-5.3 2.8v34.2c0 29.7-.2 34.4-1.6 35.7-1.8 1.9-2 1.9-4.5.6-1.8-1-1.9-2.5-1.9-35.8v-34.7l-5.3-2.8-5.2-2.7H176v54.5zm47.5-22.6l4.6 2-2.5 5-2.6 5-3-1.5c-5.2-2.6-9.3-2.8-12-.6-3.5 2.9-2.1 4.8 8.1 10.2 10 5.4 12.9 9 12.9 16 0 9.9-7.2 15.5-20 15.5-6.2 0-8.6-.6-13.3-2.8-3.1-1.6-5.7-3.3-5.7-3.8 0-1.1 4.9-9.9 5.5-9.9.2 0 2.3 1.1 4.6 2.5 5.1 2.9 12.9 3.4 14.9 1 2.6-3.1.3-6.1-7.9-10.4-11.1-5.7-14.7-11.6-12.2-19.3 1.4-4.2 6.7-9.5 10.7-10.8 4.2-1.4 12.5-.5 17.9 1.9zm82.3 2.8l.3 5.3H287v11h18v11h-18v11h19.1l-.3 5.2-.3 5.3-15.7.3-15.8.3v-55.2l15.8.3 15.7.3.3 5.2zM281.5 321.7c-5.6 1.2-17.5 5.6-17.5 6.4 0 1.2 14.1 8.2 20.5 10.2 11.1 3.4 18.9 2.9 22-1.6 3.4-4.8.8-11.6-5.5-14.1-3.8-1.5-14.6-2-19.5-.9zM193.6 334.2c-2.7 2.1-1.6 4.9 2.4 6.4 6.8 2.4 18.6 1.3 28.5-2.7l3-1.2-5-1.4c-7.5-2.1-26.5-2.9-28.9-1.1z"/></svg>