<?xml version="1.0" encoding="utf-8"?>
<svg xmlns="http://www.w3.org/2000/svg" height="22.956055" version="1.1" width="253.34375" viewBox="0 0 253.34375 22.956055">&gt; <path d="m 0,14.630859 q 0,-0.708984 0.38671875,-1.267578 0.39746094,-0.558593 0.85937495,-0.730468 0.397461,-0.139649 1.1494141,-0.397461 0.7519531,-0.268555 1.2998047,-0.451172 0.5478516,-0.19336 1.0957031,-0.397461 0.5585938,-0.214844 0.8164063,-0.322266 0.09668,-0.04297 0.1503906,-0.0752 0.053711,-0.03223 0.085937,-0.09668 0.042969,-0.0752 0.053711,-0.171875 0.010742,-0.107422 0.010742,-0.279297 V 9.7646484 q 0,-0.5585937 -0.2792969,-1.1064453 Q 5.3496094,8.1103516 4.8447266,7.7451172 4.3505859,7.3798828 3.7597656,7.3798828 q -0.6230468,0 -0.9238281,0.3867188 -0.3007812,0.3759765 -0.4404297,1.149414 -0.118164,0.6230469 -0.4082031,0.913086 -0.2900391,0.2900394 -0.7626953,0.2900394 -0.37597659,0 -0.61230471,-0.322266 -0.23632813,-0.3222656 -0.23632813,-0.7304687 0,-0.053711 0.0214844,-0.1611329 0.0214844,-0.118164 0.0644531,-0.2470703 Q 0.50488281,8.5292969 0.54785156,8.4755859 0.87011719,8.1748047 1.3320312,7.8525391 1.8046875,7.5195312 2.40625,7.1865234 3.0185547,6.8535156 3.7275391,6.6386719 4.4365234,6.4238281 5.0810547,6.4238281 q 1.0849609,0 1.9013672,0.9990235 0.8164062,0.9990234 0.8164062,2.4169922 v 5.1347652 q 0,1.170899 0.7734375,1.170899 0.1074219,0 0.2148438,-0.02148 0.1074219,-0.02148 0.1826172,-0.04297 0.075195,-0.03223 0.1503906,-0.0752 0.085937,-0.04297 0.1289062,-0.0752 0.042969,-0.03223 0.085937,-0.06445 0.053711,-0.03223 0.053711,-0.04297 0.1074219,0 0.1074219,0.204102 0,0.257812 -0.1289063,0.472656 -0.2900391,0.257812 -0.9023437,0.601562 -0.6123047,0.34375 -0.9667969,0.34375 -0.515625,0 -0.9560547,-0.504882 -0.4404297,-0.504883 -0.5585938,-1.117188 -0.3652343,0.365235 -1.4394531,1.020508 -1.0634765,0.655273 -1.6328125,0.655273 -1.2353516,0 -2.07324217,-0.827148 Q 0,15.844727 0,14.630859 Z m 2.0625,-0.225586 q 0,0.451172 0.2148438,0.859375 0.2255859,0.397461 0.6123046,0.644532 0.3867188,0.236328 0.8486329,0.236328 0.3115234,0 0.6982421,-0.118164 0.397461,-0.128906 0.7089844,-0.290039 Q 5.4677734,15.56543 5.6826172,15.393555 5.9082031,15.22168 5.9082031,15.125 V 11.741211 Q 3.9746094,12.310547 3.5878906,12.460938 2.8789063,12.729492 2.4707031,13.223633 2.0625,13.717773 2.0625,14.405273 Z"/> <path d="m 10.333984,16.650391 q 0.354493,0 0.934571,-0.107422 0.580078,-0.118164 0.633789,-0.290039 0.118164,-0.408203 0.118164,-1.847657 V 3.3837891 q 0,-0.9882813 -0.118164,-1.2890625 -0.19336,-0.4511719 -1.525391,-0.4511719 -0.01074,0 -0.02148,-0.1503906 -0.01074,-0.1611329 -0.01074,-0.3222657 0.01074,-0.1611328 0.06445,-0.17187496 Q 12.117188,0.82714844 13.943359,0 q 0.09668,0 0.182618,0.13964844 0.09668,0.12890625 0.09668,0.2578125 Q 13.943359,1.203125 13.943359,2.5673828 V 14.405273 q 0,1.439454 0.128907,1.847657 0.02148,0.08594 0.225586,0.171875 0.204101,0.08594 0.472656,0.128906 0.268555,0.04297 0.504883,0.0752 0.236328,0.02148 0.365234,0.02148 0.0752,0.107421 0.0752,0.365234 0,0.01074 0.01074,0.02148 0,0.236328 -0.08594,0.333008 -0.34375,-0.02148 -0.880859,-0.05371 -0.53711,-0.03223 -0.945313,-0.05371 -0.408203,-0.02148 -0.848633,-0.02148 -0.429687,0 -0.83789,0.02148 -0.397461,0.02148 -0.923828,0.05371 -0.526368,0.03223 -0.870118,0.05371 -0.09668,-0.09668 -0.09668,-0.333008 0,-0.279297 0.09668,-0.386718 z"/> <path d="m 17.155273,12.310547 q 0,-0.816406 0.204102,-1.600586 0.214844,-0.7841797 0.580078,-1.4179688 0.365234,-0.6445313 0.848633,-1.1923828 0.483398,-0.5585938 1.020508,-0.9238282 0.547851,-0.3759765 1.127929,-0.5800781 0.580079,-0.2148437 1.12793,-0.2148437 0.612305,0 1.138672,0.1396484 0.537109,0.1289063 0.913086,0.3544922 0.375976,0.2255859 0.666016,0.5263672 0.300781,0.3007812 0.483398,0.6123047 0.193359,0.3115234 0.311523,0.6445312 0.128907,0.3330078 0.171875,0.6123047 0.05371,0.2685547 0.05371,0.4941406 0,0.5800786 -0.128906,0.8701176 -0.128906,0.290039 -0.472656,0.300781 -0.504883,0.03223 -3.233399,0.107422 -2.717773,0.0752 -3.040039,0.0752 v 0.171875 q 0,0.891602 0.214844,1.654297 0.214844,0.751953 0.59082,1.299805 0.375977,0.537109 0.891602,0.913086 0.515625,0.375976 1.106445,0.558593 0.601563,0.182618 1.256836,0.182618 0.472656,0 0.945313,-0.139649 0.472656,-0.150391 0.827148,-0.375976 0.354492,-0.236329 0.580078,-0.429688 0.236328,-0.204102 0.386719,-0.375977 0.01074,0 0.05371,0.04297 0.05371,0.04297 0.09668,0.128906 0.04297,0.08594 0.04297,0.182618 0,0.193359 -0.139648,0.440429 -0.204102,0.322266 -0.504883,0.644532 -0.300781,0.322265 -0.751953,0.676757 -0.44043,0.354493 -1.074219,0.580078 -0.623047,0.225586 -1.310547,0.225586 -1.450195,0 -2.599609,-0.676757 -1.138672,-0.6875 -1.761719,-1.869141 -0.623047,-1.181641 -0.623047,-2.642578 z m 1.890625,-2.116211 h 4.060547 q 0.580078,0 0.580078,-0.5800782 0,-0.2255859 -0.06445,-0.515625 Q 23.557617,8.8085938 23.396484,8.4863281 23.246094,8.1533203 23.020508,7.8955078 22.794922,7.6269531 22.429687,7.4550781 22.075195,7.2724609 21.634766,7.2724609 q -0.418946,0 -0.794922,0.1611328 -0.375977,0.1611329 -0.644532,0.4189454 -0.257812,0.2578125 -0.472656,0.5693359 -0.204101,0.3115234 -0.333008,0.6230469 -0.128906,0.3115234 -0.214843,0.5693359 -0.08594,0.2578125 -0.118164,0.4189452 -0.02148,0.161133 -0.01074,0.161133 z"/> <path d="m 27.124023,16.972656 q 0.02148,-0.236328 0.06445,-0.322265 0.05371,-0.01074 0.300781,-0.04297 0.24707,-0.04297 0.333008,-0.05371 0.08594,-0.02148 0.311523,-0.06445 0.225586,-0.04297 0.333008,-0.08594 0.107422,-0.04297 0.290039,-0.107422 0.193359,-0.0752 0.311523,-0.161132 0.118164,-0.08594 0.247071,-0.204102 0.139648,-0.118164 0.24707,-0.257812 2.30957,-3.340821 2.438477,-3.512696 L 29.111328,7.8525391 Q 28.928711,7.5625 28.423828,7.4335937 27.918945,7.3046875 27.435547,7.3046875 q -0.02148,0 -0.03223,-0.1503906 0,-0.1503907 0.01074,-0.3222657 0.01074,-0.1826171 0.05371,-0.2578125 1.364258,0.1289063 2.459961,0.1289063 1.149414,0 2.524414,-0.1289063 0.03223,0.1289063 0.03223,0.3867188 0,0.2470703 -0.08594,0.34375 -0.999023,0 -0.999023,0.4189453 0,0.09668 0.128906,0.3007813 l 1.643555,2.6210939 q 0.204102,-0.322266 0.719727,-1.0312502 0.515625,-0.7197265 0.784179,-1.1601562 0.268555,-0.4511719 0.268555,-0.6767579 0,-0.1396484 -0.128906,-0.2363281 -0.128907,-0.09668 -0.333008,-0.1396484 -0.19336,-0.042969 -0.375977,-0.064453 -0.182617,-0.021484 -0.365234,-0.021484 -0.171875,-0.010742 -0.193359,-0.010742 -0.04297,-0.021484 -0.05371,-0.3330078 0,-0.3115235 0.05371,-0.397461 0.365234,0.021484 0.827148,0.053711 0.472656,0.032227 0.848633,0.053711 0.386719,0.021484 0.83789,0.021484 1.117188,0 1.998047,-0.1289063 0.02148,0.09668 0.01074,0.4189454 0,0.3115234 -0.04297,0.3115234 -1.557617,0.075195 -1.91211,0.5478516 -0.322265,0.4296875 -0.956054,1.3320312 -0.633789,0.8916013 -1.041993,1.4501953 -0.39746,0.558593 -0.49414,0.676757 l 2.986328,4.436524 q 0.623047,0.902344 1.922852,0.902344 0.02148,0 0.03223,0.15039 0,0.06445 0,0.128906 -0.01074,0.09668 -0.01074,0.214844 -0.02148,0.182617 -0.05371,0.225586 -0.311523,-0.02148 -0.762695,-0.05371 -0.451172,-0.03223 -0.805664,-0.05371 -0.354493,-0.02148 -0.773438,-0.02148 -0.472656,0 -0.902344,0.02148 -0.418945,0.02148 -0.956054,0.05371 -0.53711,0.03223 -0.902344,0.05371 -0.05371,-0.128906 -0.04297,-0.418945 0.01074,-0.300781 0.06445,-0.300781 0.214844,-0.02148 0.429688,-0.06445 0.225586,-0.04297 0.418945,-0.139648 0.204102,-0.107422 0.204102,-0.24707 0,-0.05371 -0.05371,-0.150391 -1.299805,-2.116211 -1.965821,-3.115234 -0.139648,0.204101 -0.773437,1.127929 -0.623047,0.923829 -1.020508,1.56836 -0.150391,0.236328 -0.150391,0.472656 0,0.150391 0.09668,0.257813 0.107422,0.09668 0.322266,0.161132 0.214844,0.05371 0.365234,0.0752 0.161133,0.01074 0.451172,0.04297 0.08594,0 0.128906,0.01074 0.03223,0 0.04297,0.15039 0.01074,0.150391 -0.01074,0.333008 -0.01074,0.182617 -0.05371,0.236328 -0.34375,-0.02148 -0.78418,-0.05371 -0.440429,-0.03223 -0.794922,-0.05371 -0.354492,-0.02148 -0.784179,-0.02148 -0.429688,0 -0.78418,0.02148 -0.354492,0.02148 -0.794922,0.05371 -0.429687,0.03223 -0.762695,0.05371 -0.03223,-0.107422 -0.03223,-0.268555 0.01074,-0.06445 0.01074,-0.128906 z"/> <path d="m 39.950195,13.0625 q 0,-1.224609 0.279297,-2.449219 0.279297,-1.2353513 0.805664,-2.363281 0.53711,-1.1279297 1.342774,-2.1054688 0.816406,-0.977539 1.804687,-1.6972656 0.999024,-0.7304687 2.277344,-1.1386718 1.27832,-0.4189454 2.685547,-0.4189454 1.020508,0 1.933594,0.225586 0.923828,0.2148437 1.654296,0.6230469 0.730469,0.3974609 1.342774,0.9560546 0.612305,0.5478516 1.052734,1.2246094 0.44043,0.6660156 0.741211,1.4287109 0.300781,0.7626954 0.451172,1.5791016 0.150391,0.8056641 0.150391,1.6435552 0,1.407226 -0.397461,2.685546 Q 55.676758,14.523438 55,15.458008 q -0.676758,0.923828 -1.632813,1.471679 -0.956054,0.53711 -2.030273,0.53711 -0.966797,0 -1.525391,-0.515625 -0.547851,-0.526367 -0.547851,-1.62207 0,-0.225586 0.05371,-0.612305 0.06445,-0.386719 0.128906,-0.537109 -0.161133,0.311523 -0.408203,0.698242 -0.24707,0.375976 -0.623047,0.83789 -0.375977,0.461914 -0.762695,0.837891 -0.386719,0.365234 -0.848633,0.623047 -0.461914,0.24707 -0.880859,0.24707 -0.741211,0 -1.289063,-0.483398 -0.547852,-0.483399 -0.816406,-1.235352 -0.257813,-0.751953 -0.257813,-1.654297 0,-0.880859 0.290039,-1.815429 0.300782,-0.934571 0.794922,-1.761719 0.504883,-0.8378908 1.203125,-1.5791017 0.698242,-0.741211 1.47168,-1.2783204 0.78418,-0.5371093 1.654297,-0.8486328 0.880859,-0.3115234 1.71875,-0.3115234 0.93457,0 1.815429,0.3222656 l -1.52539,7.8740237 q -0.0752,0.300781 -0.0752,0.623047 0,0.569336 0.333007,0.848632 0.333008,0.268555 0.870118,0.268555 0.580078,0 1.18164,-0.461914 0.612305,-0.472656 1.084961,-1.235351 0.483399,-0.773438 0.78418,-1.847657 0.311523,-1.074218 0.311523,-2.202148 0,-1.0312502 -0.236328,-1.9980471 Q 55,7.6806641 54.484375,6.8105469 53.979492,5.9404297 53.249023,5.2958984 52.518555,4.6513672 51.455078,4.2753906 50.402344,3.8886719 49.145508,3.8886719 q -1.235352,0 -2.374024,0.3759765 -1.127929,0.3759766 -2.019531,1.0419922 -0.880859,0.6552735 -1.611328,1.546875 -0.730469,0.8808594 -1.213867,1.9013672 -0.472656,1.0205078 -0.730469,2.1269532 -0.257812,1.095703 -0.257812,2.180664 0,1.052734 0.257812,2.041016 0.268555,0.977539 0.730469,1.750976 0.461914,0.773438 1.052734,1.375 0.59082,0.612305 1.27832,1.009766 0.601563,0.354492 1.009766,0.483398 0.408203,0.139649 0.859375,0.214844 0,0.09668 -0.161133,0.204102 -0.161133,0.107421 -0.375976,0.171875 -0.214844,0.0752 -0.354492,0.0752 -0.590821,0 -0.97754,-0.150391 -0.859375,-0.322265 -1.643554,-0.999023 -0.773438,-0.666016 -1.375,-1.589844 -0.590821,-0.913086 -0.945313,-2.105469 -0.34375,-1.203125 -0.34375,-2.481445 z m 5.457032,0.472656 q 0,2.438477 1.267578,2.438477 0.601562,0 1.342773,-0.870117 0.741211,-0.88086 1.321289,-2.15918 0.59082,-1.289063 0.827149,-2.481445 l 0.49414,-2.5351566 q -0.290039,-0.3222657 -1.020508,-0.3222657 -0.558593,0 -1.170898,0.3330079 -0.612305,0.3330078 -1.149414,0.9345703 -0.537109,0.5908203 -0.977539,1.3320311 -0.429688,0.741211 -0.6875,1.62207 -0.24707,0.870118 -0.24707,1.708008 z"/> <path d="m 58.383789,14.501953 q 0.204102,-0.15039 0.451172,-0.15039 0.150391,0 0.225586,0.05371 0.08594,0.322266 0.257812,0.655274 0.182618,0.322266 0.44043,0.633789 0.257813,0.300781 0.558594,0.547851 0.300781,0.236329 0.676758,0.386719 0.375976,0.139649 0.751953,0.139649 0.794922,0 1.289062,-0.472657 0.504883,-0.483398 0.504883,-1.321289 0,-0.365234 -0.139648,-0.676757 -0.128907,-0.322266 -0.322266,-0.53711 -0.182617,-0.225586 -0.526367,-0.472656 -0.333008,-0.24707 -0.612305,-0.386719 -0.268555,-0.15039 -0.719726,-0.386719 Q 60.768555,12.267578 60.5,12.106445 60.091797,11.870117 59.780273,11.633789 59.46875,11.386719 59.189453,11.064453 58.910156,10.742188 58.759766,10.333984 58.609375,9.9257813 58.609375,9.4423828 q 0,-0.8916015 0.515625,-1.5898437 0.526367,-0.7089844 1.342773,-1.0742188 0.827149,-0.3759766 1.750977,-0.3759766 0.429687,0 0.805664,0.053711 0.375977,0.053711 0.848633,0.1396484 0.483398,0.085937 0.891601,0.1289063 0.257813,1.1279297 0.300782,2.75 0,0.118164 -0.247071,0.118164 -0.268554,0 -0.429687,-0.118164 -0.09668,-0.3759766 -0.290039,-0.7519531 -0.182617,-0.3867188 -0.44043,-0.741211 -0.257812,-0.3544922 -0.623047,-0.5800781 -0.354492,-0.225586 -0.741211,-0.225586 -0.580078,0 -0.988281,0.2148438 -0.397461,0.2041016 -0.59082,0.5585937 -0.182617,0.3437501 -0.182617,0.7949219 0,0.2685547 0.05371,0.5048828 0.05371,0.225586 0.182618,0.4189454 0.128906,0.1933593 0.24707,0.3330082 0.128906,0.139648 0.365234,0.300781 0.236328,0.161133 0.386719,0.257812 0.161133,0.08594 0.461914,0.257813 0.300781,0.171875 0.461914,0.268555 0.128906,0.08594 0.44043,0.268554 0.311523,0.171875 0.483398,0.279297 0.182618,0.09668 0.472657,0.300781 0.290039,0.19336 0.461914,0.34375 0.182617,0.150391 0.397461,0.375977 0.214843,0.225586 0.333007,0.44043 0.118164,0.204101 0.19336,0.483398 0.08594,0.268555 0.08594,0.547852 0,0.988281 -0.537109,1.783203 -0.537109,0.794922 -1.417969,1.235351 -0.870117,0.429688 -1.879883,0.429688 -0.515625,0 -0.956054,-0.0752 -0.44043,-0.06445 -1.03125,-0.204101 -0.590821,-0.139649 -0.923828,-0.204102 -0.150391,-0.386718 -0.29004,-1.235351 -0.139648,-0.859375 -0.139648,-1.353516 z"/> <path d="m 67.052734,7.3261719 q 0,-0.064453 0.279297,-0.3759766 0.279297,-0.3222656 0.375977,-0.4189453 h 0.923828 V 4.9628906 Q 68.825195,4.7265625 69.201172,4.3183594 69.577148,3.9101563 69.845703,3.6201172 70.125,3.3193359 70.146484,3.2871094 q 0.06445,-0.064453 0.161133,-0.085937 0.06445,-0.021484 0.107422,-0.010742 0.03223,0.010742 0.05371,0.010742 0.06445,0.021484 0.07519,0.064453 V 6.53125 h 3.211914 q 0.05371,0 0.0752,0.021484 0.03223,0.010742 0.04297,0.064453 0.01074,0.042969 0.01074,0.075195 0,0.032227 0,0.1074219 0,0.3974609 -0.34375,0.7519531 h -2.997071 v 6.53125 q 0,0.999023 0.408203,1.52539 0.418946,0.515625 1.235352,0.515625 0.34375,0 0.719727,-0.128906 0.375976,-0.128906 0.569335,-0.236328 0.19336,-0.107422 0.333008,-0.204101 0.0752,0.03223 0.0752,0.171875 0,0.06445 -0.02148,0.15039 -0.02148,0.08594 -0.04297,0.150391 -0.02148,0.05371 -0.03223,0.0752 -0.171875,0.193359 -0.397461,0.386719 -0.214844,0.193359 -0.558594,0.440429 -0.333008,0.236329 -0.762695,0.386719 -0.418945,0.150391 -0.848633,0.150391 -0.408203,0 -0.762695,-0.0752 -0.354492,-0.06445 -0.698242,-0.247071 -0.34375,-0.193359 -0.590821,-0.483398 -0.24707,-0.300781 -0.397461,-0.78418 -0.139648,-0.483398 -0.139648,-1.095703 V 7.5517578 h -1.450195 q -0.05371,0 -0.09668,-0.075195 -0.03223,-0.085937 -0.03223,-0.1503906 z"/> <path d="m 75.227539,14.630859 q 0,-0.708984 0.386719,-1.267578 0.397461,-0.558593 0.859375,-0.730468 0.397461,-0.139649 1.149414,-0.397461 0.751953,-0.268555 1.299805,-0.451172 0.547851,-0.19336 1.095703,-0.397461 0.558593,-0.214844 0.816406,-0.322266 0.09668,-0.04297 0.150391,-0.0752 0.05371,-0.03223 0.08594,-0.09668 0.04297,-0.0752 0.05371,-0.171875 0.01074,-0.107422 0.01074,-0.279297 V 9.7646484 q 0,-0.5585937 -0.279297,-1.1064453 -0.279297,-0.5478515 -0.784179,-0.9130859 -0.494141,-0.3652344 -1.084961,-0.3652344 -0.623047,0 -0.923828,0.3867188 -0.300782,0.3759765 -0.44043,1.149414 -0.118164,0.6230469 -0.408203,0.913086 -0.290039,0.2900394 -0.762696,0.2900394 -0.375976,0 -0.612304,-0.322266 -0.236328,-0.3222656 -0.236328,-0.7304687 0,-0.053711 0.02148,-0.1611329 0.02148,-0.118164 0.06445,-0.2470703 0.04297,-0.1289062 0.08594,-0.1826172 0.322265,-0.3007812 0.784179,-0.6230468 0.472657,-0.3330079 1.074219,-0.6660157 0.612305,-0.3330078 1.321289,-0.5478515 0.708984,-0.2148438 1.353516,-0.2148438 1.084961,0 1.901367,0.9990235 0.816406,0.9990234 0.816406,2.4169922 v 5.1347652 q 0,1.170899 0.773438,1.170899 0.107422,0 0.214843,-0.02148 0.107422,-0.02148 0.182618,-0.04297 0.0752,-0.03223 0.15039,-0.0752 0.08594,-0.04297 0.128906,-0.0752 0.04297,-0.03223 0.08594,-0.06445 0.05371,-0.03223 0.05371,-0.04297 0.107422,0 0.107422,0.204102 0,0.257812 -0.128906,0.472656 -0.29004,0.257812 -0.902344,0.601562 -0.612305,0.34375 -0.966797,0.34375 -0.515625,0 -0.956055,-0.504882 -0.440429,-0.504883 -0.558594,-1.117188 -0.365234,0.365235 -1.439453,1.020508 -1.063476,0.655273 -1.632812,0.655273 -1.235352,0 -2.073242,-0.827148 -0.837891,-0.827148 -0.837891,-2.041016 z m 2.0625,-0.225586 q 0,0.451172 0.214844,0.859375 0.225586,0.397461 0.612304,0.644532 0.386719,0.236328 0.848633,0.236328 0.311524,0 0.698242,-0.118164 0.397461,-0.128906 0.708985,-0.290039 0.322265,-0.171875 0.537109,-0.34375 0.225586,-0.171875 0.225586,-0.268555 v -3.383789 q -1.933594,0.569336 -2.320312,0.719727 -0.708985,0.268554 -1.117188,0.762695 -0.408203,0.49414 -0.408203,1.18164 z"/> <path d="m 85.830078,7.734375 q 0,-0.032227 0,-0.075195 0,-0.1933594 0.05371,-0.2792969 2.126953,-0.3007812 3.566406,-1.0527344 0.08594,0 0.171875,0.1503907 0.09668,0.1503906 0.09668,0.2470703 -0.150391,1.0527343 -0.150391,1.4287109 0,0.09668 0.05371,0.09668 0.02149,0 0.0752,-0.053711 0.204101,-0.225586 0.569336,-0.515625 0.375976,-0.2900391 0.83789,-0.5908204 0.472656,-0.3007812 0.999024,-0.5048828 0.537109,-0.2041015 0.956054,-0.2041015 0.676758,0 1.170899,0.1396484 0.504883,0.1289063 0.859375,0.4296875 0.354492,0.3007813 0.580078,0.7089844 0.236328,0.4082031 0.365234,1.03125 0.139649,0.6230469 0.182617,1.3212888 0.05371,0.698242 0.05371,1.654297 v 2.739257 q 0,1.439454 0.128907,1.847657 0.03223,0.118164 0.365234,0.214843 0.34375,0.09668 0.676758,0.139649 0.333008,0.04297 0.526367,0.04297 0.08594,0.107421 0.08594,0.386718 0,0.236328 -0.08594,0.333008 -0.34375,-0.02148 -0.880859,-0.05371 -0.526368,-0.03223 -0.945313,-0.05371 -0.408203,-0.02148 -0.848633,-0.02148 -0.429687,0 -0.83789,0.02148 -0.397461,0.02148 -0.923828,0.05371 -0.526368,0.03223 -0.870118,0.05371 -0.08594,-0.09668 -0.08594,-0.354492 0.01074,-0.268555 0.08594,-0.365234 0.354493,0 0.934571,-0.107422 0.59082,-0.118164 0.633789,-0.290039 0.128906,-0.408203 0.128906,-1.847657 v -2.492187 q 0,-1.203125 -0.107422,-1.9443355 Q 94.144531,9.2167969 93.854492,8.7226563 93.575195,8.2177734 93.113281,8.0244141 92.651367,7.8203125 91.910156,7.8203125 q -0.418945,0 -0.999023,0.3007813 -0.580078,0.3007812 -0.977539,0.633789 -0.386719,0.3222656 -0.386719,0.4404297 v 5.2099605 q 0,1.439454 0.128906,1.847657 0.01074,0.06445 0.107422,0.128906 0.107422,0.05371 0.257813,0.09668 0.15039,0.03223 0.322265,0.0752 0.182617,0.03223 0.354492,0.05371 0.171875,0.02148 0.300782,0.03223 0.139648,0.01074 0.225586,0.01074 0.0752,0.09668 0.0752,0.365234 0.01074,0.257812 -0.0752,0.354492 -0.34375,-0.02148 -0.88086,-0.05371 -0.537109,-0.03223 -0.945312,-0.05371 -0.408203,-0.02148 -0.848633,-0.02148 -0.429688,0 -0.837891,0.02148 -0.397461,0.02148 -0.923828,0.05371 -0.526367,0.03223 -0.870117,0.05371 -0.09668,-0.09668 -0.09668,-0.354492 0.01074,-0.268555 0.09668,-0.365234 0.354492,0 0.93457,-0.107422 0.580078,-0.118164 0.633789,-0.290039 0.118164,-0.408203 0.118164,-1.847657 V 9.8720703 q 0,-1.0957031 -0.118164,-1.3964844 Q 87.419922,8.2822266 87.022461,8.1748047 86.625,8.0566406 86.356445,8.0458984 86.087891,8.0244141 85.883789,8.0244141 85.84082,7.9921875 85.830078,7.734375 Z"/> <path d="m 99.257812,12.160156 q 0,-0.93457 0.397461,-1.847656 0.408207,-0.9130859 1.052737,-1.6005859 0.64453,-0.6982422 1.42871,-1.2353516 0.78418,-0.5371094 1.5791,-0.8164063 0.80566,-0.2792968 1.48242,-0.2792968 0.37598,0 0.94531,0.085937 0.58008,0.085937 0.77344,0.1611328 0.11817,0 0.11817,-0.5263672 V 3.3837891 q 0,-0.9882813 -0.11817,-1.2890625 -0.19336,-0.4511719 -1.52539,-0.4511719 -0.0107,0 -0.0322,-0.1503906 -0.0108,-0.1611329 0,-0.3222657 0.0107,-0.1611328 0.0644,-0.17187496 Q 107.13184,0.82714844 108.95801,0 q 0.0967,0 0.18262,0.13964844 0.0859,0.12890625 0.0859,0.2578125 -0.26855,0.80566406 -0.26855,2.16992186 V 13.234375 q 0,2.030273 0.17187,2.438477 0.043,0.09668 0.13965,0.171875 0.0967,0.06445 0.22559,0.107421 0.1289,0.04297 0.26855,0.0752 0.15039,0.03223 0.29004,0.05371 0.13965,0.01074 0.25781,0.02148 0.11817,0.01074 0.19336,0.02148 0.0859,0 0.0967,0 0.0752,0.03223 0.0752,0.300782 0,0.06445 -0.0645,0.225586 -0.0537,0.15039 -0.13964,0.15039 -0.3545,0.02148 -0.82715,0.09668 -0.46192,0.0752 -0.87012,0.182617 -0.4082,0.09668 -0.76269,0.193359 -0.34375,0.09668 -0.5586,0.161133 l -0.21484,0.06445 q -0.0967,0 -0.15039,-0.161132 -0.0537,-0.150391 -0.0537,-0.322266 V 16.1455 q 0,-0.161133 -0.043,-0.161133 -0.0107,0 -0.0322,0.01074 -0.36523,0.397461 -1.43945,0.956055 -1.07422,0.547851 -1.86914,0.547851 -0.84864,0 -1.64356,-0.408203 -0.79492,-0.418945 -1.40722,-1.117187 -0.601567,-0.698242 -0.977543,-1.697266 -0.365235,-1.009765 -0.365235,-2.116211 z m 2.094728,-0.601562 q 0,0.891601 0.23633,1.686523 0.23633,0.78418 0.66601,1.396485 0.44043,0.601562 1.11719,0.956054 0.67676,0.354492 1.49316,0.354492 0.40821,0 0.81641,-0.09668 0.4082,-0.107422 0.69824,-0.257813 0.29004,-0.15039 0.47266,-0.322265 0.18262,-0.171875 0.18262,-0.322266 V 8.6474609 q 0,-0.4404296 -0.81641,-0.8271484 -0.80566,-0.3974609 -1.82617,-0.3974609 -0.90235,0 -1.61133,0.6015625 -0.70898,0.6015625 -1.07422,1.5361328 -0.35449,0.9345701 -0.35449,1.9980471 z"/> <path d="m 112.04102,14.630859 q 0,-0.708984 0.38671,-1.267578 0.39747,-0.558593 0.85938,-0.730468 0.39746,-0.139649 1.14941,-0.397461 0.75196,-0.268555 1.29981,-0.451172 0.54785,-0.19336 1.0957,-0.397461 0.5586,-0.214844 0.81641,-0.322266 0.0967,-0.04297 0.15039,-0.0752 0.0537,-0.03223 0.0859,-0.09668 0.043,-0.0752 0.0537,-0.171875 0.0107,-0.107422 0.0107,-0.279297 V 9.7646484 q 0,-0.5585937 -0.2793,-1.1064453 -0.27929,-0.5478515 -0.78418,-0.9130859 -0.49414,-0.3652344 -1.08496,-0.3652344 -0.62305,0 -0.92383,0.3867188 -0.30078,0.3759765 -0.44043,1.149414 -0.11816,0.6230469 -0.4082,0.913086 -0.29004,0.2900394 -0.76269,0.2900394 -0.37598,0 -0.61231,-0.322266 -0.23633,-0.3222656 -0.23633,-0.7304687 0,-0.053711 0.0215,-0.1611329 0.0215,-0.118164 0.0645,-0.2470703 0.043,-0.1289062 0.0859,-0.1826172 0.32226,-0.3007812 0.78418,-0.6230468 0.47265,-0.3330079 1.07422,-0.6660157 0.6123,-0.3330078 1.32128,-0.5478515 0.70899,-0.2148438 1.35352,-0.2148438 1.08496,0 1.90137,0.9990235 0.8164,0.9990234 0.8164,2.4169922 v 5.1347652 q 0,1.170899 0.77344,1.170899 0.10742,0 0.21485,-0.02148 0.10742,-0.02148 0.18261,-0.04297 0.0752,-0.03223 0.15039,-0.0752 0.0859,-0.04297 0.12891,-0.0752 0.043,-0.03223 0.0859,-0.06445 0.0537,-0.03223 0.0537,-0.04297 0.10742,0 0.10742,0.204102 0,0.257812 -0.12891,0.472656 -0.29004,0.257812 -0.90234,0.601562 -0.61231,0.34375 -0.9668,0.34375 -0.51562,0 -0.95605,-0.504882 -0.44043,-0.504883 -0.5586,-1.117188 -0.36523,0.365235 -1.43945,1.020508 -1.06348,0.655273 -1.63281,0.655273 -1.23535,0 -2.07324,-0.827148 -0.83789,-0.827148 -0.83789,-2.041016 z m 2.0625,-0.225586 q 0,0.451172 0.21484,0.859375 0.22559,0.397461 0.6123,0.644532 0.38672,0.236328 0.84864,0.236328 0.31152,0 0.69824,-0.118164 0.39746,-0.128906 0.70898,-0.290039 0.32227,-0.171875 0.53711,-0.34375 0.22559,-0.171875 0.22559,-0.268555 v -3.383789 q -1.93359,0.569336 -2.32031,0.719727 -0.70899,0.268554 -1.11719,0.762695 -0.4082,0.49414 -0.4082,1.18164 z"/> <path d="m 122.64355,7.734375 q 0,-0.032227 0,-0.075195 0,-0.1933594 0.0537,-0.2792969 2.12695,-0.3007812 3.5664,-1.0527344 0.0859,0 0.17188,0.1503907 0.0967,0.1503906 0.0967,0.2470703 -0.0215,0.1503906 -0.0967,1.1279297 -0.0752,0.977539 -0.0752,1.1708984 0,0.064453 0.0322,0.075195 0.043,0 0.0645,-0.032227 0.19336,-0.4082032 0.51563,-0.859375 0.32226,-0.4619141 0.70898,-0.8701172 0.39746,-0.4082032 0.85938,-0.6660157 0.46191,-0.2685547 0.85937,-0.2685547 0.4834,0 0.91309,0.2148438 0.44043,0.2041016 0.60156,0.5048828 0.10742,0.3007813 0.10742,0.6767578 0,0.6123047 -0.29004,0.9560547 -0.2793,0.34375 -0.53711,0.34375 -0.11816,0 -0.25781,-0.053711 -0.12891,-0.053711 -0.22559,-0.1181641 -0.0859,-0.064453 -0.23632,-0.1611328 -0.13965,-0.09668 -0.20411,-0.1396484 -0.44043,-0.3007813 -0.91308,-0.3007813 -0.38672,0 -0.77344,0.2685547 -0.37598,0.2685547 -0.63379,0.6445313 -0.25781,0.3652343 -0.42969,0.7412109 -0.16113,0.3652344 -0.16113,0.5908204 v 3.83496 q 0,1.439454 0.12891,1.847657 0.043,0.171875 0.87012,0.290039 0.83789,0.107422 1.26757,0.107422 0.0752,0.09668 0.0752,0.365234 0.0107,0.257812 -0.0752,0.354492 -2.55664,-0.128906 -3.09375,-0.128906 -0.42968,0 -0.87011,0.02148 -0.42969,0.02148 -1.02051,0.05371 -0.58008,0.04297 -0.8916,0.05371 -0.0967,-0.09668 -0.0967,-0.354492 0.0107,-0.268555 0.0967,-0.365234 0.35449,0 0.93457,-0.107422 0.58008,-0.118164 0.63379,-0.290039 0.11816,-0.408203 0.11816,-1.847657 V 9.7646484 q 0,-0.9882812 -0.11816,-1.2890625 -0.0859,-0.1933593 -0.4834,-0.3007812 -0.39746,-0.1181641 -0.66602,-0.1289063 -0.26855,-0.021484 -0.47265,-0.021484 -0.043,-0.032227 -0.0537,-0.2900391 z"/> <path d="m 132.18262,12.160156 q 0,-0.93457 0.39746,-1.847656 0.4082,-0.9130859 1.05273,-1.6005859 0.64453,-0.6982422 1.42871,-1.2353516 0.78418,-0.5371094 1.5791,-0.8164063 0.80567,-0.2792968 1.48243,-0.2792968 0.37597,0 0.94531,0.085937 0.58008,0.085937 0.77344,0.1611328 0.11816,0 0.11816,-0.5263672 V 3.3837891 q 0,-0.9882813 -0.11816,-1.2890625 -0.19336,-0.4511719 -1.52539,-0.4511719 -0.0108,0 -0.0322,-0.1503906 -0.0107,-0.1611329 0,-0.3222657 0.0107,-0.1611328 0.0645,-0.17187496 1.70793,-0.171875 3.5341,-0.99902344 0.0967,0 0.18262,0.13964844 0.0859,0.12890625 0.0859,0.2578125 -0.26856,0.80566406 -0.26856,2.16992186 V 13.234375 q 0,2.030273 0.17188,2.438477 0.043,0.09668 0.13965,0.171875 0.0967,0.06445 0.22558,0.107421 0.12891,0.04297 0.26856,0.0752 0.15039,0.03223 0.29004,0.05371 0.13964,0.01074 0.25781,0.02148 0.11816,0.01074 0.19336,0.02148 0.0859,0 0.0967,0 0.0752,0.03223 0.0752,0.300782 0,0.06445 -0.0644,0.225586 -0.0537,0.15039 -0.13965,0.15039 -0.35449,0.02148 -0.82715,0.09668 -0.46191,0.0752 -0.87011,0.182617 -0.40821,0.09668 -0.7627,0.193359 -0.34375,0.09668 -0.55859,0.161133 l -0.21485,0.06445 q -0.0967,0 -0.15039,-0.161132 -0.0537,-0.150391 -0.0537,-0.322266 V 16.1455 q 0,-0.161133 -0.043,-0.161133 -0.0107,0 -0.0322,0.01074 -0.36524,0.397461 -1.43946,0.956055 -1.07422,0.547851 -1.86914,0.547851 -0.84863,0 -1.64355,-0.408203 -0.79492,-0.418945 -1.40723,-1.117187 -0.60156,-0.698242 -0.97754,-1.697266 -0.36523,-1.009765 -0.36523,-2.116211 z m 2.09472,-0.601562 q 0,0.891601 0.23633,1.686523 0.23633,0.78418 0.66602,1.396485 0.44043,0.601562 1.11718,0.956054 0.67676,0.354492 1.49317,0.354492 0.4082,0 0.81641,-0.09668 0.4082,-0.107422 0.69824,-0.257813 0.29004,-0.15039 0.47265,-0.322265 0.18262,-0.171875 0.18262,-0.322266 V 8.6474609 q 0,-0.4404296 -0.81641,-0.8271484 -0.80566,-0.3974609 -1.82617,-0.3974609 -0.90234,0 -1.61133,0.6015625 -0.70898,0.6015625 -1.07421,1.5361328 -0.3545,0.9345701 -0.3545,1.9980471 z"/> <path d="m 145.04102,12.310547 q 0,-0.816406 0.2041,-1.600586 0.21484,-0.7841797 0.58008,-1.4179688 0.36523,-0.6445313 0.84863,-1.1923828 0.4834,-0.5585938 1.02051,-0.9238282 0.54785,-0.3759765 1.12793,-0.5800781 0.58007,-0.2148437 1.12793,-0.2148437 0.6123,0 1.13867,0.1396484 0.53711,0.1289063 0.91308,0.3544922 0.37598,0.2255859 0.66602,0.5263672 0.30078,0.3007812 0.4834,0.6123047 0.19336,0.3115234 0.31152,0.6445312 0.12891,0.3330078 0.17188,0.6123047 0.0537,0.2685547 0.0537,0.4941406 0,0.5800786 -0.12891,0.8701176 -0.12891,0.290039 -0.47266,0.300781 -0.50488,0.03223 -3.23339,0.107422 -2.71778,0.0752 -3.04004,0.0752 v 0.171875 q 0,0.891602 0.21484,1.654297 0.21484,0.751953 0.59082,1.299805 0.37598,0.537109 0.8916,0.913086 0.51563,0.375976 1.10645,0.558593 0.60156,0.182618 1.25683,0.182618 0.47266,0 0.94532,-0.139649 0.47265,-0.150391 0.82714,-0.375976 0.3545,-0.236329 0.58008,-0.429688 0.23633,-0.204102 0.38672,-0.375977 0.0107,0 0.0537,0.04297 0.0537,0.04297 0.0967,0.128906 0.043,0.08594 0.043,0.182618 0,0.193359 -0.13965,0.440429 -0.2041,0.322266 -0.50488,0.644532 -0.30078,0.322265 -0.75195,0.676757 -0.44043,0.354493 -1.07422,0.580078 -0.62305,0.225586 -1.31055,0.225586 -1.45019,0 -2.59961,-0.676757 -1.13867,-0.6875 -1.76172,-1.869141 -0.62304,-1.181641 -0.62304,-2.642578 z m 1.89062,-2.116211 h 4.06055 q 0.58008,0 0.58008,-0.5800782 0,-0.2255859 -0.0645,-0.515625 -0.0644,-0.290039 -0.22558,-0.6123047 -0.15039,-0.3330078 -0.37598,-0.5908203 -0.22559,-0.2685547 -0.59082,-0.4404297 -0.35449,-0.1826172 -0.79492,-0.1826172 -0.41895,0 -0.79492,0.1611328 -0.37598,0.1611329 -0.64454,0.4189454 -0.25781,0.2578125 -0.47265,0.5693359 -0.2041,0.3115234 -0.33301,0.6230469 -0.12891,0.3115234 -0.21484,0.5693359 -0.0859,0.2578125 -0.11817,0.4189452 -0.0215,0.161133 -0.0107,0.161133 z"/> <path d="m 154.84863,1.4824219 q 0,-0.075195 -0.0107,-0.1503907 0,-0.085937 0.0107,-0.1611328 0.0107,-0.1611328 0.0537,-0.17187496 Q 156.61035,0.82714844 158.43652,0 q 0.0967,0 0.18262,0.13964844 0.0967,0.12890625 0.0967,0.2578125 -0.2793,0.80566406 -0.2793,2.16992186 v 4.9091797 q 0,0.064453 0,0.1074219 0.0108,0.042969 0.0215,0.118164 0.0107,0.064453 0.043,0.053711 0.0322,-0.010742 0.0859,-0.032227 0.51563,-0.3759766 1.46094,-0.859375 0.94531,-0.4833984 1.55762,-0.4833984 0.87012,0 1.62207,0.3115234 0.75195,0.3115234 1.27832,0.8378906 0.52637,0.515625 0.90234,1.1816407 0.38672,0.6660156 0.56934,1.3750003 0.19336,0.708984 0.19336,1.396484 0,1.213868 -0.47266,2.320313 -0.47265,1.095703 -1.27832,1.901367 -0.80566,0.805664 -1.96582,1.289063 -1.14941,0.472656 -2.43848,0.472656 -0.5371,0 -1.84765,-0.375977 -0.0644,-0.01074 -0.26856,-0.06445 -0.2041,-0.06445 -0.27929,-0.0752 -0.0752,-0.02148 -0.24707,-0.05371 -0.17188,-0.04297 -0.2793,-0.03223 -0.10742,0 -0.25781,0.02148 -0.15039,0.01074 -0.29004,0.06445 -0.0859,0 -0.2041,-0.225586 -0.11817,-0.225586 -0.11817,-0.333008 0.30078,-0.655273 0.30078,-1.836914 V 3.3837891 q 0,-0.9882813 -0.1289,-1.2890625 -0.19336,-0.4511719 -1.51465,-0.4511719 -0.0215,-0.010742 -0.0322,-0.1611328 z m 3.58789,13.3740231 q 0,0.504883 0.3545,0.923828 0.35449,0.418946 0.88085,0.633789 0.52637,0.204102 1.08497,0.204102 0.87011,0 1.64355,-0.612305 0.77344,-0.623046 1.22461,-1.579101 0.45117,-0.966797 0.45117,-1.96582 0,-2.148438 -0.99902,-3.3730474 -0.98828,-1.2353515 -2.66406,-1.2353515 -0.45118,0 -1.05274,0.2363281 -0.60156,0.2363281 -0.79492,0.4296875 -0.12891,0.1289062 -0.12891,0.2792969 z"/> <path d="m 168.17969,11.988281 q 0,-1.192383 0.4082,-2.2343747 0.4082,-1.0419922 1.10645,-1.7832032 0.70898,-0.7519531 1.69726,-1.1816406 0.98828,-0.4296875 2.09473,-0.4296875 1.61133,0 2.83594,0.7089844 1.2246,0.7089843 1.85839,1.9335937 0.64454,1.2246099 0.64454,2.7822269 0,1.192383 -0.40821,2.245117 -0.4082,1.052734 -1.10644,1.81543 -0.69825,0.751953 -1.68653,1.192382 -0.97754,0.429688 -2.08398,0.429688 -1.21387,0 -2.22363,-0.418945 -1.00977,-0.418946 -1.69727,-1.149414 -0.67676,-0.730469 -1.06348,-1.740235 -0.37597,-1.009765 -0.37597,-2.169922 z m 2.14843,-0.504883 q 0,0.741211 0.13965,1.47168 0.13965,0.730469 0.42969,1.396485 0.29004,0.666015 0.69824,1.18164 0.40821,0.504883 0.97754,0.816406 0.56934,0.300782 1.21387,0.300782 0.51562,0 0.94531,-0.171875 0.44043,-0.171875 0.75195,-0.472657 0.31153,-0.300781 0.53711,-0.698242 0.23633,-0.408203 0.37598,-0.891601 0.13965,-0.494141 0.2041,-0.999024 0.0752,-0.515625 0.0752,-1.052734 0,-0.923828 -0.23633,-1.836914 -0.22559,-0.9130862 -0.65527,-1.6650393 -0.42969,-0.7519531 -1.10645,-1.2138672 -0.66601,-0.4726563 -1.46094,-0.4726563 -0.62304,0 -1.11718,0.2470704 -0.49414,0.2470703 -0.82715,0.6552734 -0.32227,0.4082031 -0.54785,0.9667969 -0.21485,0.5585937 -0.31153,1.1708981 -0.0859,0.601563 -0.0859,1.267578 z"/> <path d="m 180.85547,11.988281 q 0,-1.192383 0.4082,-2.2343747 0.4082,-1.0419922 1.10645,-1.7832032 0.70898,-0.7519531 1.69726,-1.1816406 0.98828,-0.4296875 2.09473,-0.4296875 1.61133,0 2.83594,0.7089844 1.22461,0.7089843 1.8584,1.9335937 0.64453,1.2246099 0.64453,2.7822269 0,1.192383 -0.40821,2.245117 -0.4082,1.052734 -1.10644,1.81543 -0.69824,0.751953 -1.68653,1.192382 -0.97753,0.429688 -2.08398,0.429688 -1.21387,0 -2.22363,-0.418945 -1.00977,-0.418946 -1.69727,-1.149414 -0.67676,-0.730469 -1.06347,-1.740235 -0.37598,-1.009765 -0.37598,-2.169922 z m 2.14844,-0.504883 q 0,0.741211 0.13964,1.47168 0.13965,0.730469 0.42969,1.396485 0.29004,0.666015 0.69824,1.18164 0.40821,0.504883 0.97754,0.816406 0.56934,0.300782 1.21387,0.300782 0.51563,0 0.94531,-0.171875 0.44043,-0.171875 0.75196,-0.472657 0.31152,-0.300781 0.53711,-0.698242 0.23632,-0.408203 0.37597,-0.891601 0.13965,-0.494141 0.2041,-0.999024 0.0752,-0.515625 0.0752,-1.052734 0,-0.923828 -0.23633,-1.836914 -0.22559,-0.9130862 -0.65527,-1.6650393 -0.42969,-0.7519531 -1.10645,-1.2138672 -0.66601,-0.4726563 -1.46094,-0.4726563 -0.62304,0 -1.11718,0.2470704 -0.49414,0.2470703 -0.82715,0.6552734 -0.32227,0.4082031 -0.54785,0.9667969 -0.21485,0.5585937 -0.31153,1.1708981 -0.0859,0.601563 -0.0859,1.267578 z"/> <path d="m 193.03711,16.650391 q 0.35449,0 0.93457,-0.107422 0.58008,-0.118164 0.63379,-0.290039 0.11816,-0.408203 0.11816,-1.847657 V 3.3837891 q 0,-0.9882813 -0.11816,-1.2890625 -0.19336,-0.4511719 -1.52539,-0.4511719 -0.0107,0 -0.0215,-0.1503906 -0.0107,-0.1611329 -0.0107,-0.3222657 0.0107,-0.1611328 0.0644,-0.17187496 1.70803,-0.171875 3.5342,-0.99902344 0.0967,0 0.18262,0.13964844 0.0967,0.12890625 0.0967,0.2578125 -0.2793,0.80566406 -0.2793,2.16992186 V 11.44043 q 0.29004,-0.107422 0.7627,-0.472657 0.4834,-0.375976 1.27832,-1.0527339 0.31152,-0.2578125 0.71973,-0.5908203 0.41894,-0.34375 0.65527,-0.5371094 0.24707,-0.2041016 0.47266,-0.4082031 0.23632,-0.2041016 0.34375,-0.3330079 0.10742,-0.1289062 0.10742,-0.1933593 0,-0.075195 -0.043,-0.1289063 -0.043,-0.053711 -0.11816,-0.085937 -0.0645,-0.042969 -0.16114,-0.075195 -0.0967,-0.032227 -0.19336,-0.053711 -0.0967,-0.021484 -0.21484,-0.032227 -0.10742,-0.021484 -0.19336,-0.021484 -0.0752,-0.010742 -0.16113,-0.010742 -0.0859,-0.010742 -0.11817,-0.021484 -0.0859,-0.1289063 -0.0644,-0.397461 0.0215,-0.2792969 0.11816,-0.3222656 1.20313,0.1289062 2.39551,0.1289062 1.27832,0 2.19141,-0.1289062 0.0752,0.1181641 0.0644,0.3867187 0,0.2578125 -0.0644,0.3330079 -0.33301,0 -0.95606,0.1611328 -0.6123,0.1611328 -0.96679,0.4189453 -2.75,1.9980471 -4.03907,3.0830081 0.50489,0.537109 1.11719,1.224609 0.62305,0.6875 1.10645,1.235351 0.49414,0.547852 0.95605,1.063477 0.47266,0.515625 0.80567,0.870117 0.333,0.354492 0.50488,0.494141 0.45117,0.354492 1.0957,0.526367 0.56934,0.150391 1.07422,0.150391 0.0644,0 0.12891,0 0.043,0.06445 0.0644,0.279296 0,0.05371 0,0.09668 0,0.139649 -0.043,0.214844 -0.13965,0.06445 -0.63379,0.107422 -0.49414,0.04297 -0.98828,0.04297 -0.98828,0 -1.8584,-0.354493 -0.85937,-0.365234 -1.20312,-0.741211 -2.14844,-2.320312 -3.56641,-3.856445 -0.043,-0.06445 -0.13965,-0.118164 -0.0967,-0.05371 -0.16113,-0.08594 l -0.0752,-0.02149 v 2.191406 q 0,1.439454 0.12891,1.847657 0.0215,0.08594 0.22559,0.171875 0.2041,0.08594 0.47265,0.128906 0.26856,0.04297 0.50489,0.0752 0.23632,0.02148 0.36523,0.02148 0.0752,0.09668 0.0752,0.365234 0.0107,0.257812 -0.0752,0.354492 -0.34375,-0.02148 -0.88086,-0.05371 -0.53711,-0.03223 -0.94531,-0.05371 -0.40821,-0.02148 -0.84863,-0.02148 -0.42969,0 -0.8379,0.02148 -0.39746,0.02148 -0.92382,0.05371 -0.52637,0.03223 -0.87012,0.05371 -0.0967,-0.09668 -0.0967,-0.333008 0,-0.279297 0.0967,-0.386718 z"/> <path d="m 206.43262,14.501953 q 0.2041,-0.15039 0.45117,-0.15039 0.15039,0 0.22558,0.05371 0.0859,0.322266 0.25782,0.655274 0.18261,0.322266 0.44043,0.633789 0.25781,0.300781 0.55859,0.547851 0.30078,0.236329 0.67676,0.386719 0.37598,0.139649 0.75195,0.139649 0.79492,0 1.28906,-0.472657 0.50489,-0.483398 0.50489,-1.321289 0,-0.365234 -0.13965,-0.676757 -0.12891,-0.322266 -0.32227,-0.53711 -0.18261,-0.225586 -0.52636,-0.472656 -0.33301,-0.24707 -0.61231,-0.386719 -0.26855,-0.15039 -0.71973,-0.386719 -0.45117,-0.24707 -0.71972,-0.408203 -0.40821,-0.236328 -0.71973,-0.472656 -0.31152,-0.24707 -0.59082,-0.569336 -0.2793,-0.322265 -0.42969,-0.730469 -0.15039,-0.4082027 -0.15039,-0.8916012 0,-0.8916015 0.51563,-1.5898437 0.52637,-0.7089844 1.34277,-1.0742188 0.82715,-0.3759766 1.75098,-0.3759766 0.42969,0 0.80566,0.053711 0.37598,0.053711 0.84863,0.1396484 0.4834,0.085937 0.89161,0.1289063 0.25781,1.1279297 0.30078,2.75 0,0.118164 -0.24707,0.118164 -0.26856,0 -0.42969,-0.118164 -0.0967,-0.3759766 -0.29004,-0.7519531 -0.18262,-0.3867188 -0.44043,-0.741211 -0.25781,-0.3544922 -0.62305,-0.5800781 -0.35449,-0.225586 -0.74121,-0.225586 -0.58007,0 -0.98828,0.2148438 -0.39746,0.2041016 -0.59082,0.5585937 -0.18262,0.3437501 -0.18262,0.7949219 0,0.2685547 0.0537,0.5048828 0.0537,0.225586 0.18261,0.4189454 0.12891,0.1933593 0.24707,0.3330082 0.12891,0.139648 0.36524,0.300781 0.23633,0.161133 0.38672,0.257812 0.16113,0.08594 0.46191,0.257813 0.30078,0.171875 0.46191,0.268555 0.12891,0.08594 0.44043,0.268554 0.31153,0.171875 0.4834,0.279297 0.18262,0.09668 0.47266,0.300781 0.29004,0.19336 0.46191,0.34375 0.18262,0.150391 0.39746,0.375977 0.21485,0.225586 0.33301,0.44043 0.11817,0.204101 0.19336,0.483398 0.0859,0.268555 0.0859,0.547852 0,0.988281 -0.53711,1.783203 -0.53711,0.794922 -1.41797,1.235351 -0.87012,0.429688 -1.87988,0.429688 -0.51563,0 -0.95606,-0.0752 -0.44043,-0.06445 -1.03125,-0.204101 -0.59082,-0.139649 -0.92383,-0.204102 -0.15039,-0.386718 -0.29003,-1.235351 -0.13965,-0.859375 -0.13965,-1.353516 z"/> <path d="m 215.7998,16.177734 q 0,-0.365234 0.19336,-0.676757 0.19336,-0.311524 0.51563,-0.494141 0.32226,-0.182617 0.6875,-0.182617 0.55859,0 0.95605,0.397461 0.39746,0.386718 0.39746,0.956054 0,0.558594 -0.39746,0.977539 -0.39746,0.418946 -0.95605,0.418946 -0.55859,0 -0.97754,-0.418946 -0.41895,-0.418945 -0.41895,-0.977539 z"/> <path d="m 220.78418,11.988281 q 0,-1.192383 0.4082,-2.2343747 0.40821,-1.0419922 1.10645,-1.7832032 0.70898,-0.7519531 1.69726,-1.1816406 0.98828,-0.4296875 2.09473,-0.4296875 1.61133,0 2.83594,0.7089844 1.22461,0.7089843 1.8584,1.9335937 0.64453,1.2246099 0.64453,2.7822269 0,1.192383 -0.40821,2.245117 -0.4082,1.052734 -1.10644,1.81543 -0.69824,0.751953 -1.68652,1.192382 -0.97754,0.429688 -2.08399,0.429688 -1.21387,0 -2.22363,-0.418945 -1.00977,-0.418946 -1.69727,-1.149414 -0.67676,-0.730469 -1.06347,-1.740235 -0.37598,-1.009765 -0.37598,-2.169922 z m 2.14844,-0.504883 q 0,0.741211 0.13965,1.47168 0.13964,0.730469 0.42968,1.396485 0.29004,0.666015 0.69825,1.18164 0.4082,0.504883 0.97753,0.816406 0.56934,0.300782 1.21387,0.300782 0.51563,0 0.94531,-0.171875 0.44043,-0.171875 0.75196,-0.472657 0.31152,-0.300781 0.53711,-0.698242 0.23632,-0.408203 0.37597,-0.891601 0.13965,-0.494141 0.2041,-0.999024 0.0752,-0.515625 0.0752,-1.052734 0,-0.923828 -0.23633,-1.836914 -0.22558,-0.9130862 -0.65527,-1.6650393 -0.42969,-0.7519531 -1.10645,-1.2138672 -0.66601,-0.4726563 -1.46093,-0.4726563 -0.62305,0 -1.11719,0.2470704 -0.49414,0.2470703 -0.82715,0.6552734 -0.32227,0.4082031 -0.54785,0.9667969 -0.21485,0.5585937 -0.31153,1.1708981 -0.0859,0.601563 -0.0859,1.267578 z"/> <path d="m 233.23437,7.734375 q 0,-0.032227 0,-0.075195 0,-0.1933594 0.0537,-0.2792969 2.12695,-0.3007812 3.5664,-1.0527344 0.0859,0 0.17188,0.1503907 0.0967,0.1503906 0.0967,0.2470703 -0.0215,0.1503906 -0.0967,1.1279297 -0.0752,0.977539 -0.0752,1.1708984 0,0.064453 0.0322,0.075195 0.043,0 0.0645,-0.032227 0.19336,-0.4082032 0.51563,-0.859375 0.32226,-0.4619141 0.70898,-0.8701172 0.39746,-0.4082032 0.85938,-0.6660157 0.46191,-0.2685547 0.85937,-0.2685547 0.4834,0 0.91309,0.2148438 0.44043,0.2041016 0.60156,0.5048828 0.10742,0.3007813 0.10742,0.6767578 0,0.6123047 -0.29004,0.9560547 -0.27929,0.34375 -0.53711,0.34375 -0.11816,0 -0.25781,-0.053711 -0.12891,-0.053711 -0.22559,-0.1181641 -0.0859,-0.064453 -0.23632,-0.1611328 -0.13965,-0.09668 -0.20411,-0.1396484 -0.44043,-0.3007813 -0.91308,-0.3007813 -0.38672,0 -0.77344,0.2685547 -0.37598,0.2685547 -0.63379,0.6445313 -0.25781,0.3652343 -0.42969,0.7412109 -0.16113,0.3652344 -0.16113,0.5908204 v 3.83496 q 0,1.439454 0.12891,1.847657 0.043,0.171875 0.87012,0.290039 0.83789,0.107422 1.26757,0.107422 0.0752,0.09668 0.0752,0.365234 0.0107,0.257812 -0.0752,0.354492 -2.55664,-0.128906 -3.09375,-0.128906 -0.42968,0 -0.87011,0.02148 -0.42969,0.02148 -1.02051,0.05371 -0.58008,0.04297 -0.8916,0.05371 -0.0967,-0.09668 -0.0967,-0.354492 0.0107,-0.268555 0.0967,-0.365234 0.35449,0 0.93457,-0.107422 0.58008,-0.118164 0.63379,-0.290039 0.11816,-0.408203 0.11816,-1.847657 V 9.7646484 q 0,-0.9882812 -0.11816,-1.2890625 -0.0859,-0.1933593 -0.4834,-0.3007812 -0.39746,-0.1181641 -0.66602,-0.1289063 -0.26855,-0.021484 -0.47265,-0.021484 -0.043,-0.032227 -0.0537,-0.2900391 z"/> <path d="m 242.54785,19.916016 q 0,-0.311524 0.19336,-0.655274 0.2041,-0.333008 0.4834,-0.612305 0.29004,-0.279296 0.67676,-0.558593 0.38672,-0.268555 0.6875,-0.451172 0.30078,-0.171875 0.60156,-0.322266 -0.34375,-0.107422 -0.6875,-0.300781 -0.34375,-0.204102 -0.65527,-0.483398 -0.31153,-0.29004 -0.50489,-0.6875 -0.19336,-0.397461 -0.19336,-0.837891 0.29004,-0.34375 0.99903,-0.891602 0.71972,-0.547851 1.14941,-0.805664 -0.92383,-0.504882 -1.5039,-1.385742 -0.56934,-0.891601 -0.56934,-1.804687 0,-0.7304691 0.32226,-1.4179691 0.33301,-0.6875 0.88086,-1.203125 0.5586,-0.515625 1.34278,-0.8271485 0.79492,-0.3115234 1.66504,-0.3115234 0.30078,0 0.58007,0.032227 0.29004,0.032226 0.56934,0.118164 0.29004,0.075195 0.41895,0.1181641 0.1289,0.042969 0.4082,0.1611328 0.29004,0.1181641 0.29004,0.1181641 0.32226,0.118164 0.58008,0.171875 l 2.66406,-0.3759766 q 0.24707,0.075195 0.24707,0.2470703 0,0.1074219 -0.0967,0.3222656 -0.0859,0.2041016 -0.22559,0.4189453 -0.1289,0.2148438 -0.24707,0.2792969 l -1.64355,-0.09668 q -0.10742,0 -0.10742,0.075195 0.17187,0.1718751 0.42968,0.8486329 0.26856,0.6767578 0.26856,1.4179686 0,0.655274 -0.33301,1.310547 -0.32226,0.655274 -0.87012,1.181641 -0.54785,0.515625 -1.34277,0.848633 -0.79492,0.322265 -1.66504,0.322265 -0.31152,0 -0.76269,-0.0752 -0.44043,-0.07519 -0.63379,-0.150391 -0.17188,0.09668 -0.33301,0.225586 -0.16113,0.128907 -0.30078,0.268555 -0.12891,0.139648 -0.21485,0.300781 -0.0752,0.161133 -0.0752,0.300781 0,0.257813 0.41894,0.569336 0.41895,0.311524 1.08497,0.311524 h 2.93261 q 0.97754,0 1.86914,0.354492 0.8916,0.354492 1.43946,0.966797 0.55859,0.612305 0.55859,1.289062 0,0.762696 -0.53711,1.589844 -0.52637,0.837891 -1.39648,1.525391 -0.87012,0.6875 -2.08399,1.138672 -1.21387,0.451171 -2.45996,0.461914 -0.043,0 -0.0859,0 -0.73047,0 -1.45019,-0.182618 -0.75196,-0.193359 -1.38574,-0.558593 -0.62305,-0.365235 -1.00977,-0.966797 -0.38672,-0.601563 -0.38672,-1.332031 z m 1.97656,-0.730469 q 0,1.246094 0.89161,2.019531 0.8916,0.773438 2.44921,0.773438 0.84864,0 1.71875,-0.375977 0.88086,-0.375977 1.46094,-1.009766 0.58008,-0.623046 0.58008,-1.27832 0,-0.290039 -0.19336,-0.612305 -0.18262,-0.311523 -0.55859,-0.612304 -0.36524,-0.300782 -1.03125,-0.504883 -0.66602,-0.193359 -1.50391,-0.193359 -2.10547,0 -2.32031,0.128906 -0.5586,0.311523 -1.03125,0.773437 -0.46192,0.461914 -0.46192,0.891602 z m 0.62305,-9.163086 q 0,0.773437 0.26856,1.482422 0.26855,0.698242 0.82714,1.170898 0.56934,0.461914 1.28907,0.461914 0.49414,0 0.90234,-0.24707 0.41895,-0.257812 0.67676,-0.666016 0.25781,-0.408203 0.39746,-0.902343 0.15039,-0.504883 0.15039,-1.03125 0,-0.8056644 -0.25781,-1.5146488 -0.24707,-0.7089844 -0.79492,-1.1923828 -0.53711,-0.4833985 -1.26758,-0.4833985 -0.67676,0 -1.19239,0.4404297 -0.51562,0.4404297 -0.76269,1.0957032 -0.23633,0.6445312 -0.23633,1.3857422 z"/></svg>
