<?xml version="1.0" encoding="utf-8"?>
<svg xmlns="http://www.w3.org/2000/svg" height="20.388672" version="1.1" width="239.48633" viewBox="0 0 239.48634 20.388672">
	<path d="M 0.01074219,1.4824219 Q 0.01074219,1.4072266 0,1.3320312 0,1.2460937 0.01074219,1.1708984 0.02148438,1.0097656 0.06445312,0.99902344 1.7724609,0.82714844 3.5986328,0 q 0.09668,0 0.1826172,0.13964844 0.09668,0.12890625 0.09668,0.2578125 Q 3.5986328,1.203125 3.5986328,2.5673828 v 4.9091797 q 0,0.064453 0,0.1074219 0.010742,0.042969 0.021484,0.118164 0.010742,0.064453 0.042969,0.053711 0.032227,-0.010742 0.085937,-0.032227 0.515625,-0.3759766 1.4609375,-0.859375 0.9453125,-0.4833984 1.5576172,-0.4833984 0.8701172,0 1.6220703,0.3115234 0.7519532,0.3115234 1.2783204,0.8378906 0.5263672,0.515625 0.9023442,1.1816407 0.386718,0.6660156 0.569335,1.3749999 0.19336,0.708984 0.19336,1.396484 0,1.213868 -0.472656,2.320313 -0.472657,1.095703 -1.2783207,1.901367 -0.8056641,0.805664 -1.9658204,1.289063 -1.149414,0.472656 -2.4384765,0.472656 -0.5371094,0 -1.8476563,-0.375977 -0.064453,-0.01074 -0.2685547,-0.06445 -0.2041015,-0.06445 -0.2792968,-0.0752 -0.075195,-0.02148 -0.2470703,-0.05371 -0.171875,-0.04297 -0.2792969,-0.03223 -0.1074219,0 -0.2578125,0.02148 -0.1503907,0.01074 -0.2900391,0.06445 -0.085937,0 -0.2041016,-0.225586 Q 1.3857422,16.5 1.3857422,16.392578 1.6865234,15.737305 1.6865234,14.555664 V 3.3837891 q 0,-0.9882813 -0.1289062,-1.2890625 Q 1.3642578,1.6435547 0.04296875,1.6435547 0.02148438,1.6328125 0.01074219,1.4824219 Z M 3.5986328,14.856445 q 0,0.504883 0.3544922,0.923828 0.3544922,0.418946 0.8808594,0.633789 0.5263672,0.204102 1.0849609,0.204102 0.8701172,0 1.6435547,-0.612305 0.7734375,-0.623046 1.2246094,-1.579101 0.4511719,-0.966797 0.4511719,-1.96582 0,-2.148438 -0.9990235,-3.3730474 -0.9882812,-1.2353515 -2.6640625,-1.2353515 -0.4511719,0 -1.0527344,0.2363281 Q 3.9208984,8.3251953 3.7275391,8.5185547 3.5986328,8.6474609 3.5986328,8.7978516 Z"/>
	<path d="m 13.116211,7.734375 q 0,-0.032227 0,-0.075195 0,-0.1933594 0.05371,-0.2792969 2.126953,-0.3007812 3.566406,-1.0527344 0.08594,0 0.171875,0.1503907 0.09668,0.1503906 0.09668,0.2470703 -0.02148,0.1503906 -0.09668,1.1279297 -0.0752,0.977539 -0.0752,1.1708984 0,0.064453 0.03223,0.075195 0.04297,0 0.06445,-0.032227 0.19336,-0.4082032 0.515625,-0.859375 0.322266,-0.4619141 0.708985,-0.8701172 0.397461,-0.4082032 0.859375,-0.6660157 0.461914,-0.2685547 0.859375,-0.2685547 0.483398,0 0.913086,0.2148438 0.440429,0.2041016 0.601562,0.5048828 0.107422,0.3007813 0.107422,0.6767578 0,0.6123047 -0.290039,0.9560547 -0.279297,0.34375 -0.537109,0.34375 -0.118164,0 -0.257813,-0.053711 Q 20.28125,8.9912109 20.18457,8.9267578 20.098633,8.8623047 19.948242,8.765625 19.808594,8.6689453 19.744141,8.6259766 19.303711,8.3251953 18.831055,8.3251953 q -0.386719,0 -0.773438,0.2685547 -0.375976,0.2685547 -0.633789,0.6445313 -0.257812,0.3652343 -0.429687,0.7412109 -0.161133,0.3652348 -0.161133,0.5908208 v 3.83496 q 0,1.439454 0.128906,1.847657 0.04297,0.171875 0.870117,0.290039 0.837891,0.107422 1.267578,0.107422 0.0752,0.09668 0.0752,0.365234 0.01074,0.257812 -0.0752,0.354492 -2.55664,-0.128906 -3.09375,-0.128906 -0.429687,0 -0.870117,0.02148 -0.429687,0.02148 -1.020508,0.05371 -0.580078,0.04297 -0.891601,0.05371 -0.09668,-0.09668 -0.09668,-0.354492 0.01074,-0.268555 0.09668,-0.365234 0.354492,0 0.93457,-0.107422 0.580078,-0.118164 0.633789,-0.290039 0.118164,-0.408203 0.118164,-1.847657 V 9.7646484 q 0,-0.9882812 -0.118164,-1.2890625 Q 14.706055,8.2822266 14.308594,8.1748047 13.911133,8.0566406 13.642578,8.0458984 13.374023,8.0244141 13.169922,8.0244141 13.126953,7.9921875 13.116211,7.734375 Z"/>
	<path d="m 22.214844,7.1328125 q 0,-0.2148438 0.06445,-0.3007813 2.051758,-0.085937 3.416015,-0.5048828 0.08594,0 0.182618,0.1933594 0.09668,0.1933594 0.09668,0.3115234 -0.05371,0.09668 -0.09668,0.3652344 -0.03223,0.2685547 -0.05371,0.6337891 -0.02148,0.3544922 -0.02148,0.7197266 v 1.0634765 2.5996092 q 0,1.987305 0.590821,2.921875 0.59082,0.93457 1.901367,0.93457 0.526367,0 1.063476,-0.214843 0.547852,-0.214844 0.88086,-0.53711 0.34375,-0.322265 0.34375,-0.612304 V 9.3242188 q 0,-0.9775391 -0.204102,-1.3535157 -0.161133,-0.290039 -0.580078,-0.3867187 -0.408203,-0.1074219 -0.805664,-0.1074219 -0.06445,-0.064453 -0.0752,-0.3007813 0,-0.2470703 0.0752,-0.34375 2.041016,-0.085937 3.405273,-0.5048828 0.06445,0 0.128907,0.1289063 0.06445,0.118164 0.107422,0.2685547 0.04297,0.1396484 0.04297,0.2041015 -0.171875,0.34375 -0.171875,1.6220704 v 1.1386718 4.0927739 q 0,1.074218 0.171875,1.890625 0.04297,0.161132 0.268555,0.268554 0.236328,0.09668 0.483398,0.128906 0.247071,0.02148 0.472657,0.04297 0.236328,0.01074 0.24707,0.01074 0.0752,0.03223 0.0752,0.268555 0,0.04297 -0.02148,0.128906 -0.02148,0.08594 -0.0752,0.182618 -0.05371,0.09668 -0.107422,0.09668 -0.365235,0.02148 -0.827149,0.09668 -0.461914,0.0752 -0.870117,0.182617 -0.408203,0.09668 -0.762695,0.193359 -0.34375,0.09668 -0.558594,0.161133 l -0.214844,0.06445 q -0.09668,0 -0.15039,-0.128906 -0.05371,-0.128906 -0.05371,-0.279297 v -1.138672 l -0.05371,-0.128906 q -0.569336,0.612305 -1.611328,1.12793 -1.03125,0.515625 -1.922852,0.515625 -0.429687,0 -0.805664,-0.107422 -0.365234,-0.09668 -0.655273,-0.268555 -0.279297,-0.182617 -0.526368,-0.440429 -0.236328,-0.257813 -0.408203,-0.558594 -0.161132,-0.300781 -0.290039,-0.655274 -0.128906,-0.354492 -0.214843,-0.708984 -0.0752,-0.354492 -0.128907,-0.751953 -0.04297,-0.397461 -0.06445,-0.741211 -0.02148,-0.354492 -0.02148,-0.719727 V 9.3242188 q 0,-0.9775391 -0.204102,-1.3535157 Q 23.514648,7.6806641 23.095703,7.5839844 22.6875,7.4765625 22.279297,7.4765625 q -0.06445,-0.075195 -0.06445,-0.34375 z"/>
	<path d="m 35.65332,12.460938 q 0,-0.88086 0.268555,-1.708008 0.268555,-0.8378909 0.730469,-1.4931644 0.461914,-0.6552734 1.063476,-1.203125 0.601563,-0.5478515 1.267578,-0.9130859 0.676758,-0.3652344 1.375,-0.5585938 0.708985,-0.2041015 1.353516,-0.2041015 1.353516,0 2.245117,0.6015625 0.08594,0.075195 0.161133,0.3007812 0.08594,0.2148438 0.08594,0.3867188 0,0.6230469 -0.29004,0.9130859 -0.279296,0.2900391 -0.655273,0.2900391 -0.24707,0 -0.504883,-0.1611328 Q 42.506836,8.5507813 42.227539,8.2929688 41.948242,8.0351563 41.819336,7.9492187 41.389648,7.6699219 41.121094,7.5732422 q -0.268555,-0.09668 -0.730469,-0.09668 -0.397461,0 -0.794922,0.1826172 -0.397461,0.171875 -0.762695,0.5371094 -0.354492,0.3544922 -0.633789,0.8486328 -0.268555,0.4833984 -0.44043,1.1601561 -0.161133,0.676758 -0.161133,1.428711 0,1.063477 0.311524,1.890625 0.322265,0.816406 0.870117,1.321289 0.558594,0.494141 1.27832,0.751953 0.719727,0.247071 1.579102,0.247071 0.397461,0 0.773437,-0.09668 0.375977,-0.09668 0.655274,-0.236328 0.279297,-0.139649 0.537109,-0.322266 0.268555,-0.193359 0.408203,-0.333008 0.150391,-0.139648 0.268555,-0.279297 0.02148,0 0.06445,0.04297 0.04297,0.04297 0.08594,0.128906 0.05371,0.08594 0.05371,0.182618 0,0.193359 -0.15039,0.440429 -0.204102,0.322266 -0.504883,0.644532 -0.290039,0.322265 -0.741211,0.676757 -0.451172,0.354493 -1.084961,0.580078 -0.623047,0.225586 -1.310547,0.225586 -0.880859,0 -1.675781,-0.268554 -0.794922,-0.279297 -1.407227,-0.762696 -0.601562,-0.483398 -1.052734,-1.117187 -0.44043,-0.633789 -0.676758,-1.375 -0.225586,-0.741211 -0.225586,-1.514648 z"/>
	<path d="m 46.223633,12.310547 q 0,-0.816406 0.204101,-1.600586 0.214844,-0.7841797 0.580078,-1.4179688 0.365235,-0.6445313 0.848633,-1.1923828 0.483399,-0.5585938 1.020508,-0.9238282 0.547852,-0.3759765 1.12793,-0.5800781 0.580078,-0.2148437 1.127929,-0.2148437 0.612305,0 1.138672,0.1396484 0.53711,0.1289063 0.913086,0.3544922 0.375977,0.2255859 0.666016,0.5263672 0.300781,0.3007812 0.483398,0.6123047 0.19336,0.3115234 0.311524,0.6445312 0.128906,0.3330078 0.171875,0.6123047 0.05371,0.2685547 0.05371,0.4941406 0,0.5800786 -0.128907,0.8701176 -0.128906,0.290039 -0.472656,0.300781 -0.504883,0.03223 -3.233398,0.107422 -2.717774,0.0752 -3.040039,0.0752 v 0.171875 q 0,0.891602 0.214843,1.654297 0.214844,0.751953 0.590821,1.299805 0.375976,0.537109 0.891601,0.913086 0.515625,0.375976 1.106446,0.558593 0.601562,0.182618 1.256836,0.182618 0.472656,0 0.945312,-0.139649 0.472656,-0.150391 0.827149,-0.375976 0.354492,-0.236329 0.580078,-0.429688 0.236328,-0.204102 0.386718,-0.375977 0.01074,0 0.05371,0.04297 0.05371,0.04297 0.09668,0.128906 0.04297,0.08594 0.04297,0.182618 0,0.193359 -0.139649,0.440429 -0.204101,0.322266 -0.504882,0.644532 -0.300782,0.322265 -0.751954,0.676757 -0.440429,0.354493 -1.074218,0.580078 -0.623047,0.225586 -1.310547,0.225586 -1.450196,0 -2.59961,-0.676757 -1.138671,-0.6875 -1.761718,-1.869141 -0.623047,-1.181641 -0.623047,-2.642578 z m 1.890625,-2.116211 h 4.060547 q 0.580078,0 0.580078,-0.5800782 0,-0.2255859 -0.06445,-0.515625 Q 52.625977,8.8085938 52.464844,8.4863281 52.314453,8.1533203 52.088867,7.8955078 51.863281,7.6269531 51.498047,7.4550781 51.143555,7.2724609 50.703125,7.2724609 q -0.418945,0 -0.794922,0.1611328 -0.375976,0.1611329 -0.644531,0.4189454 -0.257813,0.2578125 -0.472656,0.5693359 -0.204102,0.3115234 -0.333008,0.6230469 -0.128906,0.3115234 -0.214844,0.5693359 -0.08594,0.2578125 -0.118164,0.4189452 -0.02148,0.161133 -0.01074,0.161133 z"/>
	<path d="m 57.126953,16.177734 q 0,-0.365234 0.193359,-0.676757 0.19336,-0.311524 0.515625,-0.494141 0.322266,-0.182617 0.6875,-0.182617 0.558594,0 0.956055,0.397461 0.397461,0.386718 0.397461,0.956054 0,0.558594 -0.397461,0.977539 -0.397461,0.418946 -0.956055,0.418946 -0.558593,0 -0.977539,-0.418946 -0.418945,-0.418945 -0.418945,-0.977539 z"/>
	<path d="m 61.617187,16.650391 q 0.354493,0 0.934571,-0.107422 0.580078,-0.118164 0.633789,-0.290039 0.118164,-0.408203 0.118164,-1.847657 V 3.3837891 q 0,-0.9882813 -0.118164,-1.2890625 -0.19336,-0.4511719 -1.525391,-0.4511719 -0.01074,0 -0.02148,-0.1503906 Q 61.62793,1.3320312 61.62793,1.1708984 61.638672,1.0097656 61.692383,0.99902344 63.400391,0.82714844 65.226562,0 q 0.09668,0 0.182618,0.13964844 0.09668,0.12890625 0.09668,0.2578125 Q 65.226562,1.203125 65.226562,2.5673828 V 11.44043 q 0.29004,-0.107422 0.762696,-0.472657 0.483398,-0.375976 1.27832,-1.0527339 0.311524,-0.2578125 0.719727,-0.5908203 0.418945,-0.34375 0.655273,-0.5371094 0.24707,-0.2041016 0.472656,-0.4082031 0.236328,-0.2041016 0.34375,-0.3330079 0.107422,-0.1289062 0.107422,-0.1933593 0,-0.075195 -0.04297,-0.1289063 -0.04297,-0.053711 -0.118164,-0.085937 -0.06445,-0.042969 -0.161132,-0.075195 -0.09668,-0.032227 -0.19336,-0.053711 -0.09668,-0.021484 -0.214844,-0.032227 -0.107421,-0.021484 -0.193359,-0.021484 -0.07519,-0.010742 -0.161133,-0.010742 -0.08594,-0.010742 -0.118164,-0.021484 -0.08594,-0.1289063 -0.06445,-0.397461 0.02148,-0.2792969 0.118164,-0.3222656 1.203125,0.1289062 2.395508,0.1289062 1.27832,0 2.191406,-0.1289062 0.0752,0.1181641 0.06445,0.3867187 0,0.2578125 -0.06445,0.3330079 -0.333008,0 -0.956054,0.1611328 -0.612305,0.1611328 -0.966797,0.4189453 -2.75,1.9980473 -4.039063,3.0830083 0.504883,0.537109 1.117188,1.224609 0.623047,0.6875 1.106445,1.235351 0.494141,0.547852 0.956055,1.063477 0.472656,0.515625 0.805664,0.870117 0.333008,0.354492 0.504883,0.494141 0.451171,0.354492 1.095703,0.526367 0.569336,0.150391 1.074218,0.150391 0.06445,0 0.128907,0 0.04297,0.06445 0.06445,0.279296 0,0.05371 0,0.09668 0,0.139649 -0.04297,0.214844 -0.139648,0.06445 -0.633789,0.107422 -0.494141,0.04297 -0.988281,0.04297 -0.988282,0 -1.858399,-0.354493 -0.859375,-0.365234 -1.203125,-0.741211 -2.148437,-2.320312 -3.566406,-3.856445 -0.04297,-0.06445 -0.139648,-0.118164 -0.09668,-0.05371 -0.161133,-0.08594 l -0.0752,-0.02149 v 2.191406 q 0,1.439454 0.128907,1.847657 0.02148,0.08594 0.225586,0.171875 0.204101,0.08594 0.472656,0.128906 0.268555,0.04297 0.504883,0.0752 0.236328,0.02148 0.365234,0.02148 0.07519,0.09668 0.07519,0.365234 0.01074,0.257812 -0.07519,0.354492 -0.34375,-0.02148 -0.880859,-0.05371 -0.53711,-0.03223 -0.945313,-0.05371 -0.408203,-0.02148 -0.848633,-0.02148 -0.429687,0 -0.83789,0.02148 -0.397461,0.02148 -0.923828,0.05371 -0.526368,0.03223 -0.870118,0.05371 -0.09668,-0.09668 -0.09668,-0.333008 0,-0.279297 0.09668,-0.386718 z"/>
	<path d="m 74.045898,12.310547 q 0,-0.816406 0.204102,-1.600586 0.214844,-0.7841797 0.580078,-1.4179688 0.365234,-0.6445313 0.848633,-1.1923828 0.483398,-0.5585938 1.020508,-0.9238282 0.547851,-0.3759765 1.127929,-0.5800781 0.580079,-0.2148437 1.12793,-0.2148437 0.612305,0 1.138672,0.1396484 0.537109,0.1289063 0.913086,0.3544922 0.375976,0.2255859 0.666016,0.5263672 0.300781,0.3007812 0.483398,0.6123047 0.193359,0.3115234 0.311523,0.6445312 0.128907,0.3330078 0.171875,0.6123047 0.05371,0.2685547 0.05371,0.4941406 0,0.5800786 -0.128906,0.8701176 -0.128906,0.290039 -0.472656,0.300781 -0.504883,0.03223 -3.233399,0.107422 -2.717773,0.0752 -3.040039,0.0752 v 0.171875 q 0,0.891602 0.214844,1.654297 0.214844,0.751953 0.59082,1.299805 0.375977,0.537109 0.891602,0.913086 0.515625,0.375976 1.106445,0.558593 0.601563,0.182618 1.256836,0.182618 0.472656,0 0.945313,-0.139649 0.472656,-0.150391 0.827148,-0.375976 0.354492,-0.236329 0.580078,-0.429688 0.236328,-0.204102 0.386719,-0.375977 0.01074,0 0.05371,0.04297 0.05371,0.04297 0.09668,0.128906 0.04297,0.08594 0.04297,0.182618 0,0.193359 -0.139648,0.440429 -0.204102,0.322266 -0.504883,0.644532 -0.300781,0.322265 -0.751953,0.676757 -0.44043,0.354493 -1.074219,0.580078 -0.623047,0.225586 -1.310547,0.225586 -1.450195,0 -2.599609,-0.676757 -1.138672,-0.6875 -1.761719,-1.869141 -0.623047,-1.181641 -0.623047,-2.642578 z m 1.890625,-2.116211 h 4.060547 q 0.580078,0 0.580078,-0.5800782 0,-0.2255859 -0.06445,-0.515625 Q 80.448242,8.8085938 80.287109,8.4863281 80.136719,8.1533203 79.911133,7.8955078 79.685547,7.6269531 79.320312,7.4550781 78.96582,7.2724609 78.525391,7.2724609 q -0.418946,0 -0.794922,0.1611328 -0.375977,0.1611329 -0.644532,0.4189454 -0.257812,0.2578125 -0.472656,0.5693359 -0.204101,0.3115234 -0.333008,0.6230469 -0.128906,0.3115234 -0.214843,0.5693359 -0.08594,0.2578125 -0.118164,0.4189452 -0.02148,0.161133 -0.01074,0.161133 z"/>
	<path d="m 84.551758,7.734375 q 0,-0.032227 0,-0.075195 0,-0.1933594 0.05371,-0.2792969 2.126953,-0.3007812 3.566406,-1.0527344 0.08594,0 0.171875,0.1503907 0.09668,0.1503906 0.09668,0.2470703 -0.171875,1.2246093 -0.171875,1.6435547 v 0.8271484 5.2099605 q 0,1.439454 0.128906,1.847657 0.01074,0.06445 0.107422,0.128906 0.107422,0.05371 0.257812,0.09668 0.150391,0.03223 0.322266,0.0752 0.182617,0.03223 0.354492,0.05371 0.171875,0.02148 0.300781,0.03223 0.139649,0.01074 0.225586,0.01074 0.08594,0.107421 0.08594,0.386718 0,0.236328 -0.08594,0.333008 -0.34375,-0.02148 -0.880859,-0.05371 -0.537109,-0.03223 -0.945313,-0.05371 -0.408203,-0.02148 -0.848632,-0.02148 -0.429688,0 -0.837891,0.02148 -0.397461,0.02148 -0.923828,0.05371 -0.526367,0.03223 -0.870117,0.05371 -0.09668,-0.09668 -0.09668,-0.354492 0.01074,-0.268555 0.09668,-0.365234 0.354492,0 0.93457,-0.107422 0.580078,-0.118164 0.633789,-0.290039 0.118164,-0.408203 0.118164,-1.847657 V 9.7646484 q 0,-0.9882812 -0.118164,-1.2890625 Q 86.141602,8.2822266 85.744141,8.1748047 85.34668,8.0566406 85.078125,8.0458984 84.80957,8.0244141 84.605469,8.0244141 84.5625,7.9921875 84.551758,7.734375 Z m 1.675781,-4.3291016 q -0.354492,-0.3652343 -0.354492,-0.8808593 0,-0.5263672 0.354492,-0.8916016 0.365234,-0.3652344 0.891602,-0.3652344 0.526367,0 0.880859,0.3652344 0.365234,0.3652344 0.365234,0.8916016 0,0.515625 -0.365234,0.8808593 -0.354492,0.3544922 -0.880859,0.3544922 -0.526368,0 -0.891602,-0.3544922 z"/>
	<path d="m 90.975586,7.3261719 q 0,-0.064453 0.279297,-0.3759766 Q 91.53418,6.6279297 91.630859,6.53125 h 0.923828 V 4.9628906 Q 92.748047,4.7265625 93.124023,4.3183594 93.5,3.9101563 93.768555,3.6201172 q 0.279297,-0.3007813 0.300781,-0.3330078 0.06445,-0.064453 0.161133,-0.085937 0.06445,-0.021484 0.107422,-0.010742 0.03223,0.010742 0.05371,0.010742 0.06445,0.021484 0.07519,0.064453 V 6.53125 h 3.211914 q 0.05371,0 0.07519,0.021484 0.03223,0.010742 0.04297,0.064453 0.01074,0.042969 0.01074,0.075195 0,0.032227 0,0.1074219 0,0.3974609 -0.34375,0.7519531 h -2.99707 v 6.5312502 q 0,0.999023 0.408203,1.52539 0.418945,0.515625 1.235352,0.515625 0.34375,0 0.719726,-0.128906 0.375977,-0.128906 0.569336,-0.236328 0.193359,-0.107422 0.333008,-0.204101 0.07519,0.03223 0.07519,0.171875 0,0.06445 -0.02148,0.15039 -0.02149,0.08594 -0.04297,0.150391 -0.02148,0.05371 -0.03223,0.0752 -0.171875,0.193359 -0.39746,0.386719 -0.214844,0.193359 -0.558594,0.440429 -0.333008,0.236329 -0.762696,0.386719 -0.418945,0.150391 -0.848632,0.150391 -0.408203,0 -0.762696,-0.0752 -0.354492,-0.06445 -0.698242,-0.247071 -0.34375,-0.193359 -0.59082,-0.483398 -0.24707,-0.300781 -0.397461,-0.78418 -0.139649,-0.483398 -0.139649,-1.095703 V 7.5517578 h -1.450195 q -0.05371,0 -0.09668,-0.075195 -0.03223,-0.085937 -0.03223,-0.1503906 z"/>
	<path d="m 98.75293,16.650391 q 0.354492,0 0.93457,-0.107422 0.58008,-0.118164 0.63379,-0.290039 0.11816,-0.408203 0.11816,-1.847657 V 3.3837891 q 0,-0.9882813 -0.11816,-1.2890625 -0.19336,-0.4511719 -1.525392,-0.4511719 -0.01074,0 -0.02148,-0.1503906 -0.01074,-0.1611329 -0.01074,-0.3222657 0.01074,-0.1611328 0.06445,-0.17187496 Q 100.53613,0.82714844 102.3623,0 q 0.0967,0 0.18262,0.13964844 0.0967,0.12890625 0.0967,0.2578125 -0.2793,0.80566406 -0.2793,2.16992186 v 5.6289063 q 0,0.053711 0.0752,0.053711 0.0215,0 0.0752,-0.053711 0.2041,-0.225586 0.56933,-0.515625 0.37598,-0.2900391 0.83789,-0.5908204 0.47266,-0.3007812 0.99903,-0.5048828 0.5371,-0.2041015 0.95605,-0.2041015 0.58008,0 1.03125,0.1074218 0.45117,0.1074219 0.78418,0.3115235 0.34375,0.1933594 0.58008,0.5263672 0.24707,0.3330078 0.39746,0.7412109 0.16113,0.397461 0.25781,0.9775391 0.0967,0.5693359 0.12891,1.1923831 0.043,0.612304 0.043,1.428711 v 2.739257 q 0,1.439454 0.11816,1.847657 0.0322,0.118164 0.37598,0.214843 0.34375,0.09668 0.67675,0.139649 0.33301,0.04297 0.51563,0.04297 0.0967,0.107421 0.0967,0.365234 0,0.01074 0,0.02148 0,0.236328 -0.0967,0.333008 -0.34375,-0.02148 -0.88086,-0.05371 -0.52637,-0.03223 -0.94531,-0.05371 -0.40821,-0.02148 -0.83789,-0.02148 -0.42969,0 -0.83789,0.02148 -0.40821,0.02148 -0.93457,0.05371 -0.52637,0.03223 -0.87012,0.05371 -0.0859,-0.09668 -0.0859,-0.354492 0.0107,-0.268555 0.0859,-0.365234 0.36523,0 0.94531,-0.107422 0.58008,-0.118164 0.62305,-0.290039 0.1289,-0.408203 0.1289,-1.847657 v -2.492187 q 0,-1.203125 -0.10742,-1.944336 -0.10742,-0.7519531 -0.38672,-1.2460937 -0.27929,-0.5048829 -0.75195,-0.6982422 -0.46191,-0.2041016 -1.19238,-0.2041016 -0.42969,0 -1.00977,0.3007813 -0.58008,0.3007812 -0.97754,0.633789 -0.38672,0.3222656 -0.38672,0.4404297 v 5.2099605 q 0,1.439454 0.12891,1.847657 0.0215,0.08594 0.22559,0.171875 0.2041,0.08594 0.47265,0.128906 0.26856,0.04297 0.50489,0.0752 0.23632,0.02148 0.36523,0.02148 0.0752,0.09668 0.0752,0.365234 0.0107,0.257812 -0.0752,0.354492 -0.34375,-0.02148 -0.88086,-0.05371 -0.53711,-0.03223 -0.94531,-0.05371 -0.4082,-0.02148 -0.84863,-0.02148 -0.42969,0 -0.83789,0.02148 -0.39747,0.02148 -0.923833,0.05371 -0.526367,0.03223 -0.870117,0.05371 -0.09668,-0.09668 -0.09668,-0.333008 0,-0.279297 0.09668,-0.386718 z"/>
	<path d="m 112.30957,13.0625 q 0,-1.224609 0.2793,-2.449219 0.27929,-1.2353513 0.80566,-2.363281 0.53711,-1.1279297 1.34277,-2.1054688 0.81641,-0.977539 1.80469,-1.6972656 0.99903,-0.7304687 2.27735,-1.1386718 1.27832,-0.4189454 2.68554,-0.4189454 1.02051,0 1.9336,0.225586 0.92382,0.2148437 1.65429,0.6230469 0.73047,0.3974609 1.34278,0.9560546 0.6123,0.5478516 1.05273,1.2246094 0.44043,0.6660156 0.74121,1.4287109 0.30078,0.7626954 0.45117,1.5791016 0.15039,0.8056641 0.15039,1.6435552 0,1.407226 -0.39746,2.685546 -0.39746,1.267579 -1.07421,2.202149 -0.67676,0.923828 -1.63282,1.471679 -0.95605,0.53711 -2.03027,0.53711 -0.9668,0 -1.52539,-0.515625 -0.54785,-0.526367 -0.54785,-1.62207 0,-0.225586 0.0537,-0.612305 0.0644,-0.386719 0.1289,-0.537109 -0.16113,0.311523 -0.4082,0.698242 -0.24707,0.375976 -0.62305,0.83789 -0.37597,0.461914 -0.76269,0.837891 -0.38672,0.365234 -0.84863,0.623047 -0.46192,0.24707 -0.88086,0.24707 -0.74121,0 -1.28907,-0.483398 -0.54785,-0.483399 -0.8164,-1.235352 -0.25781,-0.751953 -0.25781,-1.654297 0,-0.880859 0.29003,-1.815429 0.30079,-0.934571 0.79493,-1.761719 0.50488,-0.8378908 1.20312,-1.5791017 0.69824,-0.741211 1.47168,-1.2783204 0.78418,-0.5371093 1.6543,-0.8486328 0.88086,-0.3115234 1.71875,-0.3115234 0.93457,0 1.81543,0.3222656 l -1.52539,7.8740237 q -0.0752,0.300781 -0.0752,0.623047 0,0.569336 0.33301,0.848632 0.33301,0.268555 0.87012,0.268555 0.58007,0 1.18164,-0.461914 0.6123,-0.472656 1.08496,-1.235351 0.4834,-0.773438 0.78418,-1.847657 0.31152,-1.074218 0.31152,-2.202148 0,-1.0312502 -0.23633,-1.9980471 -0.23632,-0.9667968 -0.75195,-1.836914 -0.50488,-0.8701172 -1.23535,-1.5146485 -0.73047,-0.6445312 -1.79395,-1.0205078 -1.05273,-0.3867187 -2.30957,-0.3867187 -1.23535,0 -2.37402,0.3759765 -1.12793,0.3759766 -2.01953,1.0419922 -0.88086,0.6552735 -1.61133,1.546875 -0.73047,0.8808594 -1.21387,1.9013672 -0.47265,1.0205078 -0.73047,2.1269532 -0.25781,1.095703 -0.25781,2.180664 0,1.052734 0.25781,2.041016 0.26856,0.977539 0.73047,1.750976 0.46192,0.773438 1.05274,1.375 0.59082,0.612305 1.27832,1.009766 0.60156,0.354492 1.00976,0.483398 0.40821,0.139649 0.85938,0.214844 0,0.09668 -0.16113,0.204102 -0.16114,0.107421 -0.37598,0.171875 -0.21484,0.0752 -0.35449,0.0752 -0.59082,0 -0.97754,-0.150391 -0.85938,-0.322265 -1.64356,-0.999023 -0.77343,-0.666016 -1.375,-1.589844 -0.59082,-0.913086 -0.94531,-2.105469 -0.34375,-1.203125 -0.34375,-2.481445 z m 5.45703,0.472656 q 0,2.438477 1.26758,2.438477 0.60156,0 1.34277,-0.870117 0.74121,-0.88086 1.32129,-2.15918 0.59082,-1.289063 0.82715,-2.481445 l 0.49414,-2.5351566 q -0.29004,-0.3222657 -1.02051,-0.3222657 -0.55859,0 -1.17089,0.3330079 -0.61231,0.3330078 -1.14942,0.9345703 -0.53711,0.5908203 -0.97754,1.3320311 -0.42969,0.741211 -0.6875,1.62207 -0.24707,0.870118 -0.24707,1.708008 z"/>
	<path d="m 130.51758,7.734375 q 0,-0.032227 0,-0.075195 0,-0.1933594 0.0537,-0.2792969 2.12695,-0.3007812 3.56641,-1.0527344 0.0859,0 0.17187,0.1503907 0.0967,0.1503906 0.0967,0.2470703 -0.17188,1.2246093 -0.17188,1.6435547 v 0.8271484 5.2099605 q 0,1.439454 0.12891,1.847657 0.0107,0.06445 0.10742,0.128906 0.10742,0.05371 0.25782,0.09668 0.15039,0.03223 0.32226,0.0752 0.18262,0.03223 0.35449,0.05371 0.17188,0.02148 0.30078,0.03223 0.13965,0.01074 0.22559,0.01074 0.0859,0.107421 0.0859,0.386718 0,0.236328 -0.0859,0.333008 -0.34375,-0.02148 -0.88086,-0.05371 -0.53711,-0.03223 -0.94531,-0.05371 -0.4082,-0.02148 -0.84863,-0.02148 -0.42969,0 -0.83789,0.02148 -0.39747,0.02148 -0.92383,0.05371 -0.52637,0.03223 -0.87012,0.05371 -0.0967,-0.09668 -0.0967,-0.354492 0.0107,-0.268555 0.0967,-0.365234 0.35449,0 0.93457,-0.107422 0.58008,-0.118164 0.63379,-0.290039 0.11816,-0.408203 0.11816,-1.847657 V 9.7646484 q 0,-0.9882812 -0.11816,-1.2890625 -0.0859,-0.1933593 -0.4834,-0.3007812 -0.39746,-0.1181641 -0.66601,-0.1289063 -0.26856,-0.021484 -0.47266,-0.021484 -0.043,-0.032227 -0.0537,-0.2900391 z m 1.67578,-4.3291016 q -0.35449,-0.3652343 -0.35449,-0.8808593 0,-0.5263672 0.35449,-0.8916016 0.36523,-0.3652344 0.8916,-0.3652344 0.52637,0 0.88086,0.3652344 0.36523,0.3652344 0.36523,0.8916016 0,0.515625 -0.36523,0.8808593 -0.35449,0.3544922 -0.88086,0.3544922 -0.52637,0 -0.8916,-0.3544922 z"/>
	<path d="m 137.41406,12.460938 q 0,-0.88086 0.26856,-1.708008 0.26855,-0.8378909 0.73047,-1.4931644 0.46191,-0.6552734 1.06347,-1.203125 0.60156,-0.5478515 1.26758,-0.9130859 0.67676,-0.3652344 1.375,-0.5585938 0.70898,-0.2041015 1.35352,-0.2041015 1.35351,0 2.24511,0.6015625 0.0859,0.075195 0.16114,0.3007812 0.0859,0.2148438 0.0859,0.3867188 0,0.6230469 -0.29004,0.9130859 -0.27929,0.2900391 -0.65527,0.2900391 -0.24707,0 -0.50488,-0.1611328 -0.24707,-0.1611328 -0.52637,-0.4189453 -0.2793,-0.2578125 -0.4082,-0.3437501 -0.42969,-0.2792968 -0.69824,-0.3759765 -0.26856,-0.09668 -0.73047,-0.09668 -0.39746,0 -0.79492,0.1826172 -0.39747,0.171875 -0.7627,0.5371094 -0.35449,0.3544922 -0.63379,0.8486328 -0.26855,0.4833984 -0.44043,1.1601561 -0.16113,0.676758 -0.16113,1.428711 0,1.063477 0.31152,1.890625 0.32227,0.816406 0.87012,1.321289 0.55859,0.494141 1.27832,0.751953 0.71973,0.247071 1.5791,0.247071 0.39746,0 0.77344,-0.09668 0.37597,-0.09668 0.65527,-0.236328 0.2793,-0.139649 0.53711,-0.322266 0.26856,-0.193359 0.4082,-0.333008 0.15039,-0.139648 0.26856,-0.279297 0.0215,0 0.0644,0.04297 0.043,0.04297 0.0859,0.128906 0.0537,0.08594 0.0537,0.182618 0,0.193359 -0.15039,0.440429 -0.2041,0.322266 -0.50488,0.644532 -0.29004,0.322265 -0.74121,0.676757 -0.45118,0.354493 -1.08496,0.580078 -0.62305,0.225586 -1.31055,0.225586 -0.88086,0 -1.67578,-0.268554 -0.79492,-0.279297 -1.40723,-0.762696 -0.60156,-0.483398 -1.05273,-1.117187 -0.44043,-0.633789 -0.67676,-1.375 -0.22559,-0.741211 -0.22559,-1.514648 z"/>
	<path d="m 147.51172,16.650391 q 0.35449,0 0.93457,-0.107422 0.58008,-0.118164 0.63379,-0.290039 0.11816,-0.408203 0.11816,-1.847657 V 3.3837891 q 0,-0.9882813 -0.11816,-1.2890625 -0.19336,-0.4511719 -1.52539,-0.4511719 -0.0107,0 -0.0215,-0.1503906 -0.0107,-0.1611329 -0.0107,-0.3222657 0.0107,-0.1611328 0.0644,-0.17187496 Q 149.29492,0.82714844 151.12109,0 q 0.0967,0 0.18262,0.13964844 0.0967,0.12890625 0.0967,0.2578125 -0.2793,0.80566406 -0.2793,2.16992186 V 14.405273 q 0,1.439454 0.12891,1.847657 0.0215,0.08594 0.22559,0.171875 0.2041,0.08594 0.47265,0.128906 0.26856,0.04297 0.50488,0.0752 0.23633,0.02148 0.36524,0.02148 0.0752,0.107421 0.0752,0.365234 0,0.01074 0.0108,0.02148 0,0.236328 -0.0859,0.333008 -0.34375,-0.02148 -0.88086,-0.05371 -0.53711,-0.03223 -0.94531,-0.05371 -0.40821,-0.02148 -0.84864,-0.02148 -0.42968,0 -0.83789,0.02148 -0.39746,0.02148 -0.92382,0.05371 -0.52637,0.03223 -0.87012,0.05371 -0.0967,-0.09668 -0.0967,-0.333008 0,-0.279297 0.0967,-0.386718 z"/>
	<path d="m 154.35449,11.988281 q 0,-1.192383 0.40821,-2.2343747 0.4082,-1.0419922 1.10644,-1.7832032 0.70898,-0.7519531 1.69727,-1.1816406 0.98828,-0.4296875 2.09472,-0.4296875 1.61133,0 2.83594,0.7089844 1.22461,0.7089843 1.8584,1.9335937 Q 165,10.226563 165,11.78418 q 0,1.192383 -0.4082,2.245117 -0.40821,1.052734 -1.10645,1.81543 -0.69824,0.751953 -1.68652,1.192382 -0.97754,0.429688 -2.08399,0.429688 -1.21386,0 -2.22363,-0.418945 -1.00976,-0.418946 -1.69726,-1.149414 -0.67676,-0.730469 -1.06348,-1.740235 -0.37598,-1.009765 -0.37598,-2.169922 z m 2.14844,-0.504883 q 0,0.741211 0.13965,1.47168 0.13965,0.730469 0.42969,1.396485 0.29003,0.666015 0.69824,1.18164 0.4082,0.504883 0.97754,0.816406 0.56933,0.300782 1.21386,0.300782 0.51563,0 0.94532,-0.171875 0.44043,-0.171875 0.75195,-0.472657 0.31152,-0.300781 0.53711,-0.698242 0.23633,-0.408203 0.37598,-0.891601 0.13964,-0.494141 0.2041,-0.999024 0.0752,-0.515625 0.0752,-1.052734 0,-0.923828 -0.23633,-1.836914 -0.22558,-0.9130862 -0.65527,-1.6650393 -0.42969,-0.7519531 -1.10644,-1.2138672 -0.66602,-0.4726563 -1.46094,-0.4726563 -0.62305,0 -1.11719,0.2470704 -0.49414,0.2470703 -0.82715,0.6552734 -0.32226,0.4082031 -0.54785,0.9667969 -0.21484,0.5585937 -0.31152,1.1708981 -0.0859,0.601563 -0.0859,1.267578 z"/>
	<path d="m 166.36426,7.1328125 q 0,-0.2148438 0.0644,-0.3007813 2.05176,-0.085937 3.41602,-0.5048828 0.0859,0 0.18261,0.1933594 0.0967,0.1933594 0.0967,0.3115234 -0.0537,0.09668 -0.0967,0.3652344 -0.0322,0.2685547 -0.0537,0.6337891 -0.0215,0.3544922 -0.0215,0.7197266 v 1.0634765 2.5996092 q 0,1.987305 0.59082,2.921875 0.59082,0.93457 1.90137,0.93457 0.52636,0 1.06347,-0.214843 0.54785,-0.214844 0.88086,-0.53711 0.34375,-0.322265 0.34375,-0.612304 V 9.3242188 q 0,-0.9775391 -0.2041,-1.3535157 -0.16113,-0.290039 -0.58008,-0.3867187 -0.4082,-0.1074219 -0.80566,-0.1074219 -0.0645,-0.064453 -0.0752,-0.3007813 0,-0.2470703 0.0752,-0.34375 2.04101,-0.085937 3.40527,-0.5048828 0.0644,0 0.12891,0.1289063 0.0644,0.118164 0.10742,0.2685547 0.043,0.1396484 0.043,0.2041015 -0.17188,0.34375 -0.17188,1.6220704 v 1.1386718 4.0927739 q 0,1.074218 0.17188,1.890625 0.043,0.161132 0.26855,0.268554 0.23633,0.09668 0.4834,0.128906 0.24707,0.02148 0.47266,0.04297 0.23633,0.01074 0.24707,0.01074 0.0752,0.03223 0.0752,0.268555 0,0.04297 -0.0215,0.128906 -0.0215,0.08594 -0.0752,0.182618 -0.0537,0.09668 -0.10742,0.09668 -0.36523,0.02148 -0.82715,0.09668 -0.46191,0.0752 -0.87011,0.182617 -0.40821,0.09668 -0.7627,0.193359 -0.34375,0.09668 -0.55859,0.161133 l -0.21485,0.06445 q -0.0967,0 -0.15039,-0.128906 -0.0537,-0.128906 -0.0537,-0.279297 v -1.138672 l -0.0537,-0.128906 q -0.56934,0.612305 -1.61133,1.12793 -1.03125,0.515625 -1.92285,0.515625 -0.42969,0 -0.80566,-0.107422 -0.36524,-0.09668 -0.65528,-0.268555 -0.27929,-0.182617 -0.52636,-0.440429 -0.23633,-0.257813 -0.40821,-0.558594 -0.16113,-0.300781 -0.29004,-0.655274 -0.1289,-0.354492 -0.21484,-0.708984 -0.0752,-0.354492 -0.12891,-0.751953 -0.043,-0.397461 -0.0644,-0.741211 -0.0215,-0.354492 -0.0215,-0.719727 V 9.3242188 q 0,-0.9775391 -0.2041,-1.3535157 -0.16114,-0.290039 -0.58008,-0.3867187 -0.40821,-0.1074219 -0.81641,-0.1074219 -0.0644,-0.075195 -0.0644,-0.34375 z"/>
	<path d="m 179.80273,12.160156 q 0,-0.93457 0.39747,-1.847656 0.4082,-0.9130859 1.05273,-1.6005859 0.64453,-0.6982422 1.42871,-1.2353516 0.78418,-0.5371094 1.5791,-0.8164063 0.80567,-0.2792968 1.48242,-0.2792968 0.37598,0 0.94532,0.085937 0.58007,0.085937 0.77343,0.1611328 0.11817,0 0.11817,-0.5263672 V 3.3837891 q 0,-0.9882813 -0.11817,-1.2890625 -0.19336,-0.4511719 -1.52539,-0.4511719 -0.0107,0 -0.0322,-0.1503906 -0.0108,-0.1611329 0,-0.3222657 0.0107,-0.1611328 0.0644,-0.17187496 Q 187.67676,0.82714844 189.50293,0 q 0.0967,0 0.18262,0.13964844 0.0859,0.12890625 0.0859,0.2578125 -0.26855,0.80566406 -0.26855,2.16992186 V 13.234375 q 0,2.030273 0.17187,2.438477 0.043,0.09668 0.13965,0.171875 0.0967,0.06445 0.22559,0.107421 0.12891,0.04297 0.26855,0.0752 0.15039,0.03223 0.29004,0.05371 0.13965,0.01074 0.25782,0.02148 0.11816,0.01074 0.19335,0.02148 0.0859,0 0.0967,0 0.0752,0.03223 0.0752,0.300782 0,0.06445 -0.0644,0.225586 -0.0537,0.15039 -0.13965,0.15039 -0.35449,0.02148 -0.82715,0.09668 -0.46191,0.0752 -0.87012,0.182617 -0.4082,0.09668 -0.76269,0.193359 -0.34375,0.09668 -0.5586,0.161133 l -0.21484,0.06445 q -0.0967,0 -0.15039,-0.161132 -0.0537,-0.150391 -0.0537,-0.322266 v -0.870117 q 0,-0.161133 -0.043,-0.161133 -0.0107,0 -0.0322,0.01074 -0.36523,0.397461 -1.43945,0.956055 -1.07422,0.547851 -1.86914,0.547851 -0.84863,0 -1.64356,-0.408203 -0.79492,-0.418945 -1.40722,-1.117187 -0.60156,-0.698242 -0.97754,-1.697266 -0.36524,-1.009765 -0.36524,-2.116211 z m 2.09473,-0.601562 q 0,0.891601 0.23633,1.686523 0.23633,0.78418 0.66601,1.396485 0.44043,0.601562 1.11719,0.956054 0.67676,0.354492 1.49317,0.354492 0.4082,0 0.8164,-0.09668 0.40821,-0.107422 0.69824,-0.257813 0.29004,-0.15039 0.47266,-0.322265 0.18262,-0.171875 0.18262,-0.322266 V 8.6474609 q 0,-0.4404296 -0.81641,-0.8271484 -0.80566,-0.3974609 -1.82617,-0.3974609 -0.90234,0 -1.61133,0.6015625 -0.70898,0.6015625 -1.07422,1.5361328 -0.35449,0.9345701 -0.35449,1.9980471 z"/>
	<path d="m 192.85449,16.177734 q 0,-0.365234 0.19336,-0.676757 0.19336,-0.311524 0.51563,-0.494141 0.32226,-0.182617 0.6875,-0.182617 0.55859,0 0.95605,0.397461 0.39746,0.386718 0.39746,0.956054 0,0.558594 -0.39746,0.977539 -0.39746,0.418946 -0.95605,0.418946 -0.5586,0 -0.97754,-0.418946 -0.41895,-0.418945 -0.41895,-0.977539 z"/>
	<path d="m 197.78516,12.460938 q 0,-0.88086 0.26855,-1.708008 0.26856,-0.8378909 0.73047,-1.4931644 0.46191,-0.6552734 1.06348,-1.203125 0.60156,-0.5478515 1.26757,-0.9130859 0.67676,-0.3652344 1.375,-0.5585938 0.70899,-0.2041015 1.35352,-0.2041015 1.35352,0 2.24512,0.6015625 0.0859,0.075195 0.16113,0.3007812 0.0859,0.2148438 0.0859,0.3867188 0,0.6230469 -0.29004,0.9130859 -0.2793,0.2900391 -0.65528,0.2900391 -0.24707,0 -0.50488,-0.1611328 -0.24707,-0.1611328 -0.52637,-0.4189453 -0.27929,-0.2578125 -0.4082,-0.3437501 -0.42969,-0.2792968 -0.69824,-0.3759765 -0.26856,-0.09668 -0.73047,-0.09668 -0.39746,0 -0.79492,0.1826172 -0.39746,0.171875 -0.7627,0.5371094 -0.35449,0.3544922 -0.63379,0.8486328 -0.26855,0.4833984 -0.44043,1.1601561 -0.16113,0.676758 -0.16113,1.428711 0,1.063477 0.31153,1.890625 0.32226,0.816406 0.87011,1.321289 0.5586,0.494141 1.27832,0.751953 0.71973,0.247071 1.5791,0.247071 0.39747,0 0.77344,-0.09668 0.37598,-0.09668 0.65528,-0.236328 0.27929,-0.139649 0.5371,-0.322266 0.26856,-0.193359 0.40821,-0.333008 0.15039,-0.139648 0.26855,-0.279297 0.0215,0 0.0645,0.04297 0.043,0.04297 0.0859,0.128906 0.0537,0.08594 0.0537,0.182618 0,0.193359 -0.15039,0.440429 -0.2041,0.322266 -0.50488,0.644532 -0.29004,0.322265 -0.74121,0.676757 -0.45117,0.354493 -1.08496,0.580078 -0.62305,0.225586 -1.31055,0.225586 -0.88086,0 -1.67578,-0.268554 -0.79492,-0.279297 -1.40723,-0.762696 -0.60156,-0.483398 -1.05273,-1.117187 -0.44043,-0.633789 -0.67676,-1.375 -0.22558,-0.741211 -0.22558,-1.514648 z"/>
	<path d="m 208.37695,11.988281 q 0,-1.192383 0.40821,-2.2343747 0.4082,-1.0419922 1.10644,-1.7832032 0.70899,-0.7519531 1.69727,-1.1816406 0.98828,-0.4296875 2.09472,-0.4296875 1.61133,0 2.83594,0.7089844 1.22461,0.7089843 1.8584,1.9335937 0.64453,1.2246099 0.64453,2.7822269 0,1.192383 -0.4082,2.245117 -0.40821,1.052734 -1.10645,1.81543 -0.69824,0.751953 -1.68652,1.192382 -0.97754,0.429688 -2.08399,0.429688 -1.21386,0 -2.22363,-0.418945 -1.00976,-0.418946 -1.69726,-1.149414 -0.67676,-0.730469 -1.06348,-1.740235 -0.37598,-1.009765 -0.37598,-2.169922 z m 2.14844,-0.504883 q 0,0.741211 0.13965,1.47168 0.13965,0.730469 0.42969,1.396485 0.29004,0.666015 0.69824,1.18164 0.4082,0.504883 0.97754,0.816406 0.56933,0.300782 1.21386,0.300782 0.51563,0 0.94532,-0.171875 0.44043,-0.171875 0.75195,-0.472657 0.31152,-0.300781 0.53711,-0.698242 0.23633,-0.408203 0.37598,-0.891601 0.13964,-0.494141 0.2041,-0.999024 0.0752,-0.515625 0.0752,-1.052734 0,-0.923828 -0.23632,-1.836914 -0.22559,-0.9130862 -0.65528,-1.6650393 -0.42969,-0.7519531 -1.10644,-1.2138672 -0.66602,-0.4726563 -1.46094,-0.4726563 -0.62305,0 -1.11719,0.2470704 -0.49414,0.2470703 -0.82715,0.6552734 -0.32226,0.4082031 -0.54785,0.9667969 -0.21484,0.5585937 -0.31152,1.1708981 -0.0859,0.601563 -0.0859,1.267578 z"/>
	<path d="m 220.82715,7.734375 q 0,-0.032227 0,-0.075195 0,-0.1933594 0.0537,-0.2792969 2.12695,-0.3007812 3.56641,-1.0527344 0.0859,0 0.17187,0.1503907 0.0967,0.1503906 0.0967,0.2470703 -0.15039,1.0527343 -0.15039,1.2998047 0,0.09668 0.0537,0.09668 0.0215,0 0.0752,-0.042969 0.0322,-0.032227 0.0859,-0.085937 0.36524,-0.3007813 0.62305,-0.4941406 0.25781,-0.2041016 0.71973,-0.5048828 0.46191,-0.3007813 0.93457,-0.4511719 0.47265,-0.1611328 0.92383,-0.1611328 1.13867,0 1.83691,0.4941406 0.70898,0.4833984 1.00976,1.5683594 2.26661,-2.0625 3.66309,-2.0625 0.79492,0 1.36426,0.2148437 0.56933,0.2041016 0.92383,0.5908203 0.36523,0.3867188 0.56933,1.0634766 0.2041,0.6767578 0.2793,1.4716797 0.0752,0.7949223 0.0752,1.9443363 v 2.739257 q 0,1.439454 0.11817,1.847657 0.0537,0.171875 0.63379,0.290039 0.58008,0.107422 0.94531,0.107422 0.0859,0.107421 0.0859,0.386718 0,0.236328 -0.0859,0.333008 -0.34375,-0.02148 -0.88086,-0.05371 -0.53711,-0.03223 -0.94531,-0.05371 -0.4082,-0.02148 -0.84863,-0.02148 -0.33301,0 -0.6875,0.02148 -0.34375,0.01074 -0.60157,0.03223 -0.25781,0.01074 -0.65527,0.03223 -0.38672,0.03223 -0.69824,0.04297 -0.0859,-0.09668 -0.0859,-0.354492 0.0107,-0.268555 0.0859,-0.365234 0.36523,0 0.94531,-0.107422 0.58008,-0.118164 0.63379,-0.290039 0.11816,-0.408203 0.11816,-1.847657 v -2.664062 q 0,-0.805664 -0.0537,-1.364258 -0.043,-0.5585936 -0.19336,-1.0742186 -0.13965,-0.515625 -0.39746,-0.8164063 -0.25781,-0.3115234 -0.67676,-0.4833984 -0.41894,-0.1826172 -1.0205,-0.1826172 -0.41895,0 -0.89161,0.2041016 -0.46191,0.1933593 -0.79492,0.4511718 -0.32226,0.2470704 -0.53711,0.4726563 Q 231,9.1738281 231,9.2490234 q 0,0.010742 0.0107,0.1503907 0.0107,0.1396484 0.0107,0.171875 0.0967,0.6337889 0.0967,1.7724609 v 3.061523 q 0,1.439454 0.12891,1.847657 0.0322,0.118164 0.36523,0.214843 0.34375,0.09668 0.67676,0.139649 0.33301,0.04297 0.52637,0.04297 0.0752,0.09668 0.0859,0.365234 0.0107,0.257812 -0.0859,0.354492 -0.30078,-0.01074 -0.69824,-0.04297 -0.39746,-0.02148 -0.66602,-0.03223 -0.25781,-0.02148 -0.6123,-0.03223 -0.3545,-0.02148 -0.6875,-0.02148 -0.42969,0 -0.83789,0.02148 -0.40821,0.02148 -0.93457,0.05371 -0.52637,0.03223 -0.87012,0.05371 -0.0859,-0.09668 -0.0859,-0.354492 0.0107,-0.268555 0.0859,-0.365234 0.35449,0 0.93457,-0.107422 0.59082,-0.118164 0.63379,-0.290039 0.1289,-0.408203 0.1289,-1.847657 v -2.545898 q 0,-1.160156 -0.11816,-1.9121094 -0.10742,-0.7519531 -0.38672,-1.2353515 -0.2793,-0.4941407 -0.71972,-0.6875 -0.44043,-0.2041016 -1.11719,-0.2041016 -0.39746,0 -0.83789,0.171875 -0.42969,0.171875 -0.75196,0.3974609 -0.31152,0.225586 -0.52636,0.4511719 -0.2041,0.225586 -0.2041,0.3544922 v 5.2099605 q 0,1.439454 0.1289,1.847657 0.0107,0.06445 0.10742,0.128906 0.10743,0.05371 0.25782,0.09668 0.15039,0.03223 0.32226,0.0752 0.18262,0.03223 0.35449,0.05371 0.17188,0.02148 0.30078,0.03223 0.13965,0.01074 0.22559,0.01074 0.0752,0.09668 0.0752,0.365234 0.0107,0.257812 -0.0752,0.354492 -0.34375,-0.02148 -0.88086,-0.05371 -0.53711,-0.03223 -0.94531,-0.05371 -0.4082,-0.02148 -0.84863,-0.02148 -0.42969,0 -0.83789,0.02148 -0.39747,0.02148 -0.92383,0.05371 -0.52637,0.03223 -0.87012,0.05371 -0.0967,-0.09668 -0.0967,-0.354492 0.0107,-0.268555 0.0967,-0.365234 0.35449,0 0.93457,-0.107422 0.58008,-0.118164 0.63379,-0.290039 0.11816,-0.408203 0.11816,-1.847657 V 9.8720703 q 0,-1.0957031 -0.11816,-1.3964844 -0.0859,-0.1933593 -0.4834,-0.3007812 -0.39746,-0.1181641 -0.66601,-0.1289063 -0.26856,-0.021484 -0.47266,-0.021484 -0.043,-0.032227 -0.0537,-0.2900391 z"/>
</svg>
