<?xml version="1.0" encoding="UTF-8" standalone="no"?>
<svg
   height="22.956017"
   version="1.1"
   width="273.10812"
   viewBox="0 0 273.10813 22.956017"
   id="svg54"
   sodipodi:docname="david-reimer-contact.svg"
   inkscape:version="1.1.1 (3bf5ae0, 2021-09-20)"
   xmlns:inkscape="http://www.inkscape.org/namespaces/inkscape"
   xmlns:sodipodi="http://sodipodi.sourceforge.net/DTD/sodipodi-0.dtd"
   xmlns="http://www.w3.org/2000/svg"
   xmlns:svg="http://www.w3.org/2000/svg">
  <defs
     id="defs58" />
  <sodipodi:namedview
     id="namedview56"
     pagecolor="#505050"
     bordercolor="#eeeeee"
     borderopacity="1"
     inkscape:pageshadow="0"
     inkscape:pageopacity="0"
     inkscape:pagecheckerboard="0"
     showgrid="false"
     fit-margin-top="0"
     fit-margin-left="0"
     fit-margin-right="0"
     fit-margin-bottom="0"
     inkscape:zoom="2.2560825"
     inkscape:cx="159.34701"
     inkscape:cy="-9.3081701"
     inkscape:window-width="1920"
     inkscape:window-height="995"
     inkscape:window-x="0"
     inkscape:window-y="0"
     inkscape:window-maximized="1"
     inkscape:current-layer="svg54" />
  <g
     aria-label="dajare+sebooks@gmail.com"
     id="text2153"
     style="font-size:21.9077px;line-height:1.25;font-family:'Crimson Text';-inkscape-font-specification:'Crimson Text';letter-spacing:0px;word-spacing:0px;stroke-width:0.746854">
    <path
       d="m -1.4901161e-8,12.109138 q 0,-0.93065 0.395793404901161,-1.839905 Q 0.80228391,9.3599782 1.444111,8.6753626 2.0859382,7.9800498 2.8668279,7.4451939 3.6477175,6.910338 4.4393043,6.6322129 5.2415883,6.3540878 5.9155068,6.3540878 q 0.3743991,0 0.9413464,0.085577 0.5776444,0.085577 0.7701926,0.1604568 0.1176683,0 0.1176683,-0.5241588 V 3.3695916 q 0,-0.984135 -0.1176683,-1.2836543 -0.1925482,-0.449279 -1.5189909,-0.449279 -0.010697,0 -0.032091,-0.1497596 -0.010697,-0.1604568 0,-0.3209136 0.010697,-0.1604568 0.064183,-0.17115392 1.7008419,-0.1711539 3.5193521,-0.99483205916851 0.096274,0 0.181851,0.13906254916851 0.085577,0.12836542 0.085577,0.25673085 Q 9.6594984,1.1980764 9.6594984,2.5566105 V 13.17885 q 0,2.021755 0.1711539,2.428246 0.042788,0.09627 0.1390625,0.171154 0.096274,0.06418 0.2246392,0.106971 0.128366,0.04279 0.267428,0.07488 0.14976,0.03209 0.288823,0.05349 0.139062,0.0107 0.25673,0.02139 0.117669,0.0107 0.192549,0.02139 0.08558,0 0.09627,0 0.07488,0.03209 0.07488,0.299519 0,0.06418 -0.06418,0.224639 -0.05349,0.14976 -0.139063,0.14976 -0.353005,0.02139 -0.823678,0.09627 -0.4599761,0.07488 -0.8664666,0.181851 -0.4064906,0.09627 -0.7594955,0.192548 -0.3423078,0.09627 -0.5562502,0.160457 l -0.2139423,0.06418 q -0.096274,0 -0.1497597,-0.160457 -0.053486,-0.14976 -0.053486,-0.320913 v -0.866467 q 0,-0.160457 -0.042789,-0.160457 -0.010697,0 -0.032091,0.0107 -0.3637021,0.395794 -1.433414,0.952044 -1.0697119,0.545553 -1.8612987,0.545553 -0.8450724,0 -1.6366592,-0.406491 Q 1.9468756,16.601928 1.3371399,15.906615 0.73810119,15.211302 0.36370203,14.21647 -1.4901161e-8,13.210941 -1.4901161e-8,12.109138 Z M 2.0859382,11.510099 q 0,0.887861 0.2353366,1.679448 0.2353366,0.780889 0.6632214,1.390625 0.4385818,0.599039 1.1125003,0.952044 0.6739185,0.353005 1.4868996,0.353005 0.4064905,0 0.812981,-0.09627 0.4064905,-0.106972 0.6953127,-0.256731 0.2888223,-0.14976 0.4706733,-0.320914 0.181851,-0.171154 0.181851,-0.320913 V 8.6111799 q 0,-0.4385819 -0.812981,-0.8236782 -0.802284,-0.3957934 -1.8185103,-0.3957934 -0.898558,0 -1.6045678,0.5990387 -0.7060099,0.5990386 -1.0697119,1.529688 -0.3530049,0.930649 -0.3530049,1.989664 z"
       id="path4609" />
    <path
       d="m 12.729571,14.569475 q 0,-0.70601 0.385097,-1.26226 0.395793,-0.55625 0.855769,-0.727404 0.395794,-0.139063 1.144592,-0.395793 0.748798,-0.267428 1.294351,-0.449279 0.545553,-0.192549 1.091106,-0.395794 0.556251,-0.213942 0.812981,-0.320913 0.09628,-0.04279 0.14976,-0.07488 0.05349,-0.03209 0.08558,-0.09627 0.04279,-0.07488 0.05349,-0.171154 0.0107,-0.106971 0.0107,-0.278125 V 9.7236802 q 0,-0.5562501 -0.278125,-1.1018032 -0.278125,-0.5455531 -0.78089,-0.9092551 -0.492067,-0.3637021 -1.080409,-0.3637021 -0.620433,0 -0.919952,0.3850963 -0.29952,0.3743992 -0.438582,1.1445917 -0.117668,0.6204329 -0.406491,0.9092551 -0.288822,0.2888221 -0.759495,0.2888221 -0.374399,0 -0.609736,-0.3209134 -0.235336,-0.3209136 -0.235336,-0.7274041 0,-0.053486 0.02139,-0.1604568 0.02139,-0.1176683 0.06418,-0.2460337 0.04279,-0.1283654 0.08558,-0.181851 0.320914,-0.2995194 0.78089,-0.6204329 0.470673,-0.3316107 1.069712,-0.6632214 0.609736,-0.3316107 1.315746,-0.5455531 0.706009,-0.2139424 1.347837,-0.2139424 1.080409,0 1.89339,0.9948321 0.812981,0.9948321 0.812981,2.4068518 v 5.1132229 q 0,1.165986 0.770192,1.165986 0.106971,0 0.213943,-0.02139 0.106971,-0.02139 0.181851,-0.04279 0.07488,-0.03209 0.149759,-0.07488 0.08558,-0.04279 0.128366,-0.07488 0.04279,-0.03209 0.08558,-0.06418 0.05348,-0.03209 0.05348,-0.04279 0.106971,0 0.106971,0.203246 0,0.25673 -0.128365,0.470673 -0.288822,0.256731 -0.898558,0.599038 -0.609736,0.342308 -0.962741,0.342308 -0.513461,0 -0.952043,-0.502764 -0.438582,-0.502765 -0.55625,-1.112501 -0.363702,0.363702 -1.433414,1.016227 -1.059015,0.652524 -1.625962,0.652524 -1.230169,0 -2.064544,-0.823678 -0.834376,-0.823678 -0.834376,-2.032453 z m 2.053847,-0.224639 q 0,0.449279 0.213943,0.855769 0.224639,0.395794 0.609735,0.641827 0.385097,0.235337 0.845073,0.235337 0.310216,0 0.695312,-0.117668 0.395794,-0.128366 0.70601,-0.288823 0.320914,-0.171154 0.534856,-0.342307 0.22464,-0.171154 0.22464,-0.267428 V 11.69195 q -1.925482,0.566947 -2.310578,0.716707 -0.70601,0.267428 -1.1125,0.759496 -0.406491,0.492067 -0.406491,1.176683 z"
       id="path4611" />
    <path
       d="m 22.078854,22.581617 q -0.02139,-0.03209 -0.02139,-0.09627 0,-0.05349 0.02139,-0.07488 0.353005,-0.256731 0.588341,-0.459976 0.246034,-0.192548 0.556251,-0.513462 0.310216,-0.320913 0.513461,-0.641827 0.203246,-0.320913 0.417188,-0.802284 0.213942,-0.470673 0.342308,-1.016226 0.128365,-0.545553 0.203245,-1.283654 0.07488,-0.727404 0.07488,-1.583174 V 9.7236802 q 0,-0.9841349 -0.117668,-1.2836542 Q 24.592677,8.2902663 24.35734,8.1939922 24.132701,8.087021 23.833181,8.0549297 23.533662,8.0121412 23.351811,8.0014441 23.16996,7.990747 23.041595,7.990747 q -0.04279,-0.042788 -0.05349,-0.2888222 -0.0107,-0.2567309 0.05349,-0.353005 2.118029,-0.2995193 3.551443,-1.0483176 0.08558,0 0.171154,0.1497596 0.09627,0.1497597 0.09627,0.2460338 -0.171154,1.2194715 -0.171154,1.6366592 v 0.8450724 6.3540888 q 0,0.994832 -0.14976,1.871996 -0.149759,0.887861 -0.40649,1.561779 -0.246034,0.684616 -0.609736,1.272957 -0.353005,0.588342 -0.727404,1.005529 -0.374399,0.417188 -0.812981,0.759496 -0.438582,0.353005 -0.823678,0.566947 -0.374399,0.22464 -0.759496,0.385096 -0.06418,-0.03209 -0.128365,-0.106971 -0.06418,-0.06418 -0.117668,-0.139062 -0.05349,-0.06418 -0.07488,-0.128366 z M 24.485706,3.3909858 q -0.353005,-0.363702 -0.353005,-0.8771637 0,-0.5241589 0.353005,-0.8878609 0.363702,-0.363702 0.88786,-0.363702 0.524159,0 0.877164,0.363702 0.363702,0.363702 0.363702,0.8878609 0,0.5134617 -0.363702,0.8771637 -0.353005,0.3530049 -0.877164,0.3530049 -0.524158,0 -0.88786,-0.3530049 z"
       id="path4613" />
    <path
       d="m 29.342196,14.569475 q 0,-0.70601 0.385097,-1.26226 0.395793,-0.55625 0.855769,-0.727404 0.395794,-0.139063 1.144592,-0.395793 0.748798,-0.267428 1.294351,-0.449279 0.545553,-0.192549 1.091107,-0.395794 0.55625,-0.213942 0.812981,-0.320913 0.09627,-0.04279 0.149759,-0.07488 0.05349,-0.03209 0.08558,-0.09627 0.04279,-0.07488 0.05349,-0.171154 0.0107,-0.106971 0.0107,-0.278125 V 9.7236802 q 0,-0.5562501 -0.278125,-1.1018032 -0.278125,-0.5455531 -0.78089,-0.9092551 -0.492067,-0.3637021 -1.080409,-0.3637021 -0.620433,0 -0.919952,0.3850963 -0.299519,0.3743992 -0.438582,1.1445917 -0.117668,0.6204329 -0.406491,0.9092551 -0.288822,0.2888221 -0.759495,0.2888221 -0.374399,0 -0.609736,-0.3209134 -0.235336,-0.3209136 -0.235336,-0.7274041 0,-0.053486 0.02139,-0.1604568 0.02139,-0.1176683 0.06418,-0.2460337 0.04279,-0.1283654 0.08558,-0.181851 0.320913,-0.2995194 0.780889,-0.6204329 0.470673,-0.3316107 1.069712,-0.6632214 0.609736,-0.3316107 1.315746,-0.5455531 0.70601,-0.2139424 1.347837,-0.2139424 1.080409,0 1.89339,0.9948321 0.812981,0.9948321 0.812981,2.4068518 v 5.1132229 q 0,1.165986 0.770192,1.165986 0.106972,0 0.213943,-0.02139 0.106971,-0.02139 0.181851,-0.04279 0.07488,-0.03209 0.149759,-0.07488 0.08558,-0.04279 0.128366,-0.07488 0.04279,-0.03209 0.08558,-0.06418 0.05348,-0.03209 0.05348,-0.04279 0.106972,0 0.106972,0.203246 0,0.25673 -0.128366,0.470673 -0.288822,0.256731 -0.898558,0.599038 -0.609736,0.342308 -0.962741,0.342308 -0.513461,0 -0.952043,-0.502764 -0.438582,-0.502765 -0.55625,-1.112501 -0.363702,0.363702 -1.433414,1.016227 -1.059015,0.652524 -1.625962,0.652524 -1.230169,0 -2.064544,-0.823678 -0.834376,-0.823678 -0.834376,-2.032453 z m 2.053847,-0.224639 q 0,0.449279 0.213943,0.855769 0.224639,0.395794 0.609735,0.641827 0.385097,0.235337 0.845073,0.235337 0.310216,0 0.695313,-0.117668 0.395793,-0.128366 0.706009,-0.288823 0.320914,-0.171154 0.534856,-0.342307 0.22464,-0.171154 0.22464,-0.267428 V 11.69195 q -1.925482,0.566947 -2.310578,0.716707 -0.70601,0.267428 -1.1125,0.759496 -0.406491,0.492067 -0.406491,1.176683 z"
       id="path4615" />
    <path
       d="m 39.900253,7.7019248 q 0,-0.032091 0,-0.07488 0,-0.1925481 0.05349,-0.2781251 2.11803,-0.2995193 3.551443,-1.0483176 0.08558,0 0.171154,0.1497596 0.09627,0.1497597 0.09627,0.2460338 -0.02139,0.1497596 -0.09627,1.1231975 -0.07488,0.9734378 -0.07488,1.1659859 0,0.064183 0.03209,0.07488 0.04279,0 0.06418,-0.032091 0.192548,-0.4064905 0.513461,-0.8557695 0.320914,-0.4599761 0.70601,-0.8664666 0.395794,-0.4064906 0.85577,-0.6632214 0.459976,-0.267428 0.855769,-0.267428 0.481371,0 0.909255,0.2139424 0.438582,0.2032452 0.599039,0.5027646 0.106971,0.2995193 0.106971,0.6739185 0,0.6097357 -0.288822,0.9520436 -0.278125,0.3423078 -0.534856,0.3423078 -0.117668,0 -0.256731,-0.053486 Q 47.035232,8.9534877 46.938958,8.889305 46.853381,8.8251222 46.703621,8.7288482 46.564558,8.6325741 46.500376,8.5897856 46.061794,8.2902663 45.591121,8.2902663 q -0.385097,0 -0.770193,0.267428 -0.374399,0.2674279 -0.63113,0.6418271 -0.256731,0.3637021 -0.427885,0.7381012 -0.160456,0.3637024 -0.160456,0.5883414 v 3.818872 q 0,1.433414 0.128365,1.839904 0.04279,0.171154 0.866467,0.288822 0.834375,0.106971 1.26226,0.106971 0.07488,0.09628 0.07488,0.363703 0.0107,0.25673 -0.07488,0.353004 -2.545915,-0.128365 -3.080771,-0.128365 -0.427884,0 -0.866466,0.02139 -0.427885,0.02139 -1.016227,0.05349 -0.577644,0.04279 -0.88786,0.05348 -0.09627,-0.09627 -0.09627,-0.353004 0.0107,-0.267428 0.09627,-0.363703 0.353005,0 0.930649,-0.106971 0.577644,-0.117668 0.63113,-0.288822 0.117668,-0.40649 0.117668,-1.839904 V 9.7236802 q 0,-0.9841349 -0.117668,-1.2836542 Q 41.483427,8.2474778 41.087634,8.1405066 40.69184,8.0228383 40.424412,8.0121412 40.156984,7.990747 39.953739,7.990747 39.910951,7.9586556 39.900253,7.7019248 Z"
       id="path4617" />
    <path
       d="m 49.516962,12.258897 q 0,-0.812981 0.203246,-1.59387 0.213942,-0.78089 0.577644,-1.41202 0.363702,-0.6418271 0.845072,-1.1873802 0.481371,-0.5562502 1.016227,-0.9199522 0.545553,-0.3743992 1.123197,-0.5776445 0.577645,-0.2139423 1.123198,-0.2139423 0.609735,0 1.133894,0.1390625 0.534856,0.1283654 0.909255,0.3530049 0.374399,0.2246395 0.663222,0.5241589 0.299519,0.2995193 0.48137,0.6097357 0.192548,0.3102165 0.310216,0.6418272 0.128366,0.3316107 0.171154,0.6097358 0.05349,0.2674279 0.05349,0.4920674 0,0.5776448 -0.128365,0.8664668 -0.128366,0.288822 -0.470674,0.299519 -0.502764,0.03209 -3.219832,0.106971 -2.706372,0.07488 -3.027285,0.07488 v 0.171154 q 0,0.887861 0.213942,1.647356 0.213943,0.748799 0.588342,1.294352 0.374399,0.534856 0.887861,0.909255 0.513461,0.374399 1.101803,0.55625 0.599039,0.181851 1.251563,0.181851 0.470673,0 0.941346,-0.139062 0.470674,-0.14976 0.823678,-0.3744 0.353005,-0.235336 0.577645,-0.427884 0.235336,-0.203246 0.385096,-0.374399 0.0107,0 0.05349,0.04279 0.05349,0.04279 0.09627,0.128365 0.04279,0.08558 0.04279,0.181851 0,0.192549 -0.139062,0.438582 -0.203246,0.320914 -0.502765,0.641827 -0.299519,0.320914 -0.748798,0.673919 -0.438582,0.353005 -1.069712,0.577644 -0.620433,0.22464 -1.305049,0.22464 -1.444111,0 -2.588702,-0.673919 -1.133895,-0.684615 -1.754328,-1.861298 -0.620433,-1.176683 -0.620433,-2.631492 z m 1.882693,-2.107332 h 4.043511 q 0.577645,0 0.577645,-0.5776444 0,-0.2246395 -0.06418,-0.5134617 Q 55.892445,8.7716366 55.731988,8.4507231 55.582229,8.1191124 55.357589,7.8623815 55.13295,7.5949536 54.769248,7.4237997 54.416243,7.2419486 53.977661,7.2419486 q -0.417188,0 -0.791587,0.1604568 -0.374399,0.1604568 -0.641827,0.4171877 -0.256731,0.2567308 -0.470673,0.5669473 -0.203246,0.3102164 -0.331611,0.6204329 -0.128365,0.3102164 -0.213942,0.5669473 -0.08558,0.2567308 -0.117669,0.4171876 -0.02139,0.1604568 -0.0107,0.1604568 z"
       id="path4619" />
    <path
       d="m 59.95735,11.563585 q 0,-0.160457 0.106972,-0.588342 0.106971,-0.427885 0.267428,-0.55625 h 4.856492 V 5.4555298 q 0.727404,-0.267428 1.069711,-0.267428 0.07488,0 0.128366,0.021394 0.06418,0.010697 0.09627,0.032091 0.03209,0.021394 0.05349,0.042788 0.03209,0.021394 0.04279,0.032091 v 0.021394 5.0811315 h 5.070434 q 0.05349,0 0.09627,0.03209 0.05349,0.03209 0.08558,0.106972 0.04279,0.06418 0.04279,0.160456 0,0.288823 -0.128366,0.620433 -0.117668,0.320914 -0.278125,0.470673 h -4.888583 v 5.016949 q -0.363702,0.267428 -1.059015,0.267428 -0.128365,0 -0.235336,-0.06418 -0.09627,-0.07488 -0.09627,-0.149759 V 11.809618 H 60.10711 q -0.14976,0 -0.14976,-0.246033 z"
       id="path4621" />
    <path
       d="m 73.649662,14.44111 q 0.203245,-0.14976 0.449279,-0.14976 0.149759,0 0.224639,0.05349 0.08558,0.320913 0.256731,0.652524 0.181851,0.320913 0.438582,0.63113 0.256731,0.299519 0.55625,0.545553 0.299519,0.235337 0.673919,0.385096 0.374399,0.139063 0.748798,0.139063 0.791587,0 1.283654,-0.470673 0.502765,-0.481371 0.502765,-1.315746 0,-0.363702 -0.139063,-0.673919 -0.128365,-0.320913 -0.320913,-0.534856 -0.181851,-0.224639 -0.524159,-0.470673 -0.331611,-0.246033 -0.609736,-0.385096 -0.267428,-0.14976 -0.716707,-0.385096 -0.449279,-0.246034 -0.716707,-0.406491 -0.40649,-0.235336 -0.716707,-0.470673 -0.310216,-0.246034 -0.588341,-0.566947 -0.278125,-0.320914 -0.427885,-0.727404 -0.14976,-0.406491 -0.14976,-0.8878613 0,-0.8878609 0.513462,-1.5831736 0.524159,-0.7060099 1.33714,-1.0697119 0.823678,-0.3743992 1.74363,-0.3743992 0.427885,0 0.802284,0.053486 0.374399,0.053486 0.845073,0.1390625 0.48137,0.085577 0.88786,0.1283655 0.256731,1.1231975 0.29952,2.7384624 0,0.1176683 -0.246034,0.1176683 -0.267428,0 -0.427885,-0.1176683 Q 79.533077,9.0604589 79.340529,8.6860597 79.158678,8.3009634 78.901947,7.9479585 78.645216,7.5949536 78.281514,7.3703141 77.928509,7.1456746 77.543413,7.1456746 q -0.577644,0 -0.984135,0.2139424 -0.395793,0.2032452 -0.588341,0.5562501 -0.181851,0.3423078 -0.181851,0.7915868 0,0.267428 0.05349,0.5027646 0.05349,0.2246395 0.181851,0.4171877 0.128366,0.1925481 0.246034,0.3316107 0.128365,0.1390621 0.363702,0.2995191 0.235337,0.160457 0.385096,0.256731 0.160457,0.08558 0.459976,0.256731 0.29952,0.171154 0.459976,0.267428 0.128366,0.08558 0.438582,0.267428 0.310217,0.171154 0.481371,0.278125 0.181851,0.09627 0.470673,0.299519 0.288822,0.192548 0.459976,0.342308 0.181851,0.14976 0.395793,0.374399 0.213943,0.22464 0.331611,0.438582 0.117668,0.203245 0.192548,0.48137 0.08558,0.267428 0.08558,0.545554 0,0.984134 -0.534856,1.775721 -0.534856,0.791587 -1.412019,1.230169 -0.866467,0.427885 -1.871996,0.427885 -0.513462,0 -0.952044,-0.07488 -0.438582,-0.06418 -1.026923,-0.203245 -0.588342,-0.139063 -0.919953,-0.203246 -0.149759,-0.385096 -0.288822,-1.230168 -0.139062,-0.85577 -0.139062,-1.347837 z"
       id="path4623" />
    <path
       d="m 82.785006,12.258897 q 0,-0.812981 0.203245,-1.59387 0.213942,-0.78089 0.577644,-1.41202 0.363702,-0.6418271 0.845073,-1.1873802 0.48137,-0.5562502 1.016226,-0.9199522 0.545553,-0.3743992 1.123198,-0.5776445 0.577644,-0.2139423 1.123197,-0.2139423 0.609736,0 1.133895,0.1390625 0.534856,0.1283654 0.909255,0.3530049 0.374399,0.2246395 0.663221,0.5241589 0.29952,0.2995193 0.481371,0.6097357 0.192548,0.3102165 0.310216,0.6418272 0.128365,0.3316107 0.171154,0.6097358 0.05349,0.2674279 0.05349,0.4920674 0,0.5776448 -0.128366,0.8664668 -0.128365,0.288822 -0.470673,0.299519 -0.502765,0.03209 -3.219833,0.106971 -2.706371,0.07488 -3.027285,0.07488 v 0.171154 q 0,0.887861 0.213943,1.647356 0.213942,0.748799 0.588341,1.294352 0.374399,0.534856 0.887861,0.909255 0.513462,0.374399 1.101803,0.55625 0.599039,0.181851 1.251563,0.181851 0.470674,0 0.941347,-0.139062 0.470673,-0.14976 0.823678,-0.3744 0.353005,-0.235336 0.577644,-0.427884 0.235337,-0.203246 0.385097,-0.374399 0.0107,0 0.05348,0.04279 0.05349,0.04279 0.09627,0.128365 0.04279,0.08558 0.04279,0.181851 0,0.192549 -0.139063,0.438582 -0.203245,0.320914 -0.502764,0.641827 -0.29952,0.320914 -0.748799,0.673919 -0.438582,0.353005 -1.069712,0.577644 -0.620432,0.22464 -1.305048,0.22464 -1.444111,0 -2.588703,-0.673919 -1.133894,-0.684615 -1.754327,-1.861298 -0.620433,-1.176683 -0.620433,-2.631492 z m 1.882693,-2.107332 h 4.043511 q 0.577644,0 0.577644,-0.5776444 0,-0.2246395 -0.06418,-0.5134617 Q 89.160489,8.7716366 89.000032,8.4507231 88.850272,8.1191124 88.625633,7.8623815 88.400993,7.5949536 88.037291,7.4237997 87.684286,7.2419486 87.245704,7.2419486 q -0.417187,0 -0.791586,0.1604568 -0.3744,0.1604568 -0.641828,0.4171877 -0.25673,0.2567308 -0.470673,0.5669473 -0.203245,0.3102164 -0.33161,0.6204329 -0.128366,0.3102164 -0.213943,0.5669473 -0.08558,0.2567308 -0.117668,0.4171876 -0.02139,0.1604568 -0.0107,0.1604568 z"
       id="path4625" />
    <path
       d="m 92.551472,1.4762015 q 0,-0.07488 -0.0107,-0.1497596 0,-0.085577 0.0107,-0.1604568 0.0107,-0.1604568 0.05348,-0.17115392 1.700842,-0.1711539 3.519352,-0.99483205916851 0.09627,0 0.181851,0.13906254916851 0.09627,0.12836542 0.09627,0.25673085 -0.278125,0.80228388 -0.278125,2.16081798 v 4.8885834 q 0,0.064183 0,0.1069712 0.0107,0.042789 0.02139,0.1176683 0.0107,0.064183 0.04279,0.053486 0.03209,-0.010697 0.08558,-0.032091 0.513462,-0.3743991 1.454808,-0.8557695 0.941347,-0.4813703 1.551082,-0.4813703 0.866471,0 1.615261,0.3102164 0.7488,0.3102165 1.27296,0.8343753 0.52416,0.5134617 0.89856,1.1766831 0.3851,0.6632214 0.56695,1.3692314 0.19254,0.70601 0.19254,1.390625 0,1.208775 -0.47067,2.310578 -0.47067,1.091106 -1.27296,1.89339 -0.80228,0.802284 -1.95757,1.283654 -1.14459,0.470674 -2.428244,0.470674 -0.534856,0 -1.839905,-0.3744 -0.06418,-0.0107 -0.267428,-0.06418 -0.203245,-0.06418 -0.278125,-0.07488 -0.07488,-0.02139 -0.246033,-0.05349 -0.171154,-0.04279 -0.278126,-0.03209 -0.106971,0 -0.25673,0.02139 -0.14976,0.0107 -0.288823,0.06418 -0.08558,0 -0.203245,-0.22464 -0.117668,-0.224639 -0.117668,-0.33161 0.299519,-0.652525 0.299519,-1.829208 V 3.3695916 q 0,-0.984135 -0.128365,-1.2836543 -0.192548,-0.449279 -1.508294,-0.449279 -0.02139,-0.010697 -0.03209,-0.1604568 z m 3.572837,13.3179135 q 0,0.502764 0.353005,0.919952 0.353005,0.417187 0.877164,0.63113 0.524159,0.203245 1.080409,0.203245 0.866467,0 1.636663,-0.609736 0.77019,-0.620433 1.21947,-1.572476 0.44928,-0.962741 0.44928,-1.957573 0,-2.139424 -0.99484,-3.3588953 -0.98413,-1.2301686 -2.652881,-1.2301686 -0.449279,0 -1.048317,0.2353366 -0.599039,0.2353366 -0.791587,0.4278847 -0.128366,0.1283655 -0.128366,0.2781251 z"
       id="path4627" />
    <path
       d="m 105.8266,11.937984 q 0,-1.18738 0.40649,-2.2250009 0.40649,-1.0376205 1.1018,-1.7757217 0.70601,-0.7487984 1.69014,-1.1766831 0.98414,-0.4278848 2.08594,-0.4278848 1.60457,0 2.82404,0.7060099 1.21947,0.7060098 1.8506,1.9254814 0.64183,1.2194712 0.64183,2.7705542 0,1.18738 -0.40649,2.235697 -0.40649,1.048318 -1.1018,1.807814 -0.69532,0.748798 -1.67945,1.18738 -0.97344,0.427885 -2.07524,0.427885 -1.20878,0 -2.21431,-0.417188 -1.00553,-0.417188 -1.69014,-1.144592 -0.67392,-0.727404 -1.05902,-1.732933 -0.37439,-1.005529 -0.37439,-2.160818 z m 2.13942,-0.502765 q 0,0.738101 0.13906,1.465506 0.13906,0.727404 0.42789,1.390625 0.28882,0.663221 0.69531,1.176683 0.40649,0.502765 0.97344,0.812981 0.56694,0.299519 1.20877,0.299519 0.51346,0 0.94135,-0.171153 0.43858,-0.171154 0.7488,-0.470674 0.31021,-0.299519 0.53485,-0.695312 0.23534,-0.406491 0.3744,-0.887861 0.13906,-0.492068 0.20325,-0.994832 0.0749,-0.513462 0.0749,-1.048318 0,-0.919952 -0.23534,-1.829207 -0.22464,-0.9092554 -0.65252,-1.6580538 -0.42789,-0.7487983 -1.10181,-1.2087744 -0.66322,-0.4706732 -1.45481,-0.4706732 -0.62043,0 -1.1125,0.2460337 -0.49206,0.2460337 -0.82367,0.6525243 -0.32092,0.4064905 -0.54556,0.9627407 -0.21394,0.5562502 -0.31021,1.1659857 -0.0856,0.599039 -0.0856,1.26226 z"
       id="path4629" />
    <path
       d="m 118.4492,11.937984 q 0,-1.18738 0.40649,-2.2250009 0.40649,-1.0376205 1.1018,-1.7757217 0.70601,-0.7487984 1.69015,-1.1766831 0.98413,-0.4278848 2.08594,-0.4278848 1.60456,0 2.82404,0.7060099 1.21947,0.7060098 1.8506,1.9254814 0.64182,1.2194712 0.64182,2.7705542 0,1.18738 -0.40649,2.235697 -0.40649,1.048318 -1.1018,1.807814 -0.69531,0.748798 -1.67945,1.18738 -0.97344,0.427885 -2.07524,0.427885 -1.20877,0 -2.2143,-0.417188 -1.00553,-0.417188 -1.69015,-1.144592 -0.67392,-0.727404 -1.05901,-1.732933 -0.3744,-1.005529 -0.3744,-2.160818 z m 2.13942,-0.502765 q 0,0.738101 0.13907,1.465506 0.13906,0.727404 0.42788,1.390625 0.28882,0.663221 0.69531,1.176683 0.40649,0.502765 0.97344,0.812981 0.56695,0.299519 1.20878,0.299519 0.51346,0 0.94134,-0.171153 0.43858,-0.171154 0.7488,-0.470674 0.31022,-0.299519 0.53486,-0.695312 0.23533,-0.406491 0.3744,-0.887861 0.13906,-0.492068 0.20324,-0.994832 0.0749,-0.513462 0.0749,-1.048318 0,-0.919952 -0.23534,-1.829207 -0.22464,-0.9092554 -0.65252,-1.6580538 -0.42789,-0.7487983 -1.1018,-1.2087744 -0.66323,-0.4706732 -1.45481,-0.4706732 -0.62043,0 -1.1125,0.2460337 -0.49207,0.2460337 -0.82368,0.6525243 -0.32091,0.4064905 -0.54555,0.9627407 -0.21395,0.5562502 -0.31022,1.1659857 -0.0856,0.599039 -0.0856,1.26226 z"
       id="path4631" />
    <path
       d="m 130.57973,16.580533 q 0.353,0 0.93065,-0.106971 0.57764,-0.117668 0.63113,-0.288822 0.11767,-0.40649 0.11767,-1.839904 V 3.3695916 q 0,-0.984135 -0.11767,-1.2836543 -0.19255,-0.449279 -1.51899,-0.449279 -0.0107,0 -0.0214,-0.1497596 -0.0107,-0.1604568 -0.0107,-0.3209136 0.0107,-0.1604568 0.0642,-0.17115392 1.70084,-0.1711539 3.51935,-0.99483205916851 0.0963,0 0.18185,0.13906254916851 0.0963,0.12836542 0.0963,0.25673085 -0.27813,0.80228388 -0.27813,2.16081798 v 8.8358205 q 0.28882,-0.106971 0.7595,-0.470673 0.48137,-0.3744 1.27295,-1.0483181 0.31022,-0.2567309 0.71671,-0.5883415 0.41719,-0.3423078 0.65252,-0.534856 0.24604,-0.2032452 0.47068,-0.4064905 0.23533,-0.2032453 0.34231,-0.3316107 0.10697,-0.1283654 0.10697,-0.1925481 0,-0.07488 -0.0428,-0.1283655 -0.0428,-0.053486 -0.11767,-0.085577 -0.0642,-0.042789 -0.16046,-0.07488 -0.0963,-0.032091 -0.19255,-0.053486 -0.0963,-0.021394 -0.21394,-0.032091 -0.10697,-0.021394 -0.19255,-0.021394 -0.0749,-0.010697 -0.16045,-0.010697 -0.0856,-0.010697 -0.11767,-0.021394 -0.0856,-0.1283654 -0.0642,-0.3957934 0.0214,-0.2781251 0.11766,-0.3209136 1.19808,0.1283655 2.38546,0.1283655 1.27296,0 2.18221,-0.1283655 0.0749,0.1176683 0.0642,0.3850963 0,0.2567309 -0.0642,0.3316107 -0.33161,0 -0.95204,0.1604568 -0.60973,0.1604568 -0.96274,0.4171876 -2.73846,1.9896642 -4.02212,3.0700733 0.50277,0.534856 1.1125,1.219471 0.62044,0.684616 1.10181,1.230169 0.49206,0.545553 0.95204,1.059015 0.47067,0.513462 0.80228,0.866467 0.33162,0.353004 0.50277,0.492067 0.44928,0.353005 1.09111,0.524159 0.56694,0.149759 1.06971,0.149759 0.0642,0 0.12836,0 0.0428,0.06418 0.0642,0.278126 0,0.05349 0,0.09627 0,0.139062 -0.0428,0.213942 -0.13907,0.06418 -0.63113,0.106971 -0.49207,0.04279 -0.98414,0.04279 -0.98413,0 -1.8506,-0.353005 -0.85577,-0.363702 -1.19808,-0.738101 -2.13942,-2.310578 -3.55144,-3.840266 -0.0428,-0.06418 -0.13906,-0.117668 -0.0963,-0.05349 -0.16046,-0.08558 l -0.0749,-0.0214 v 2.182213 q 0,1.433414 0.12837,1.839904 0.0214,0.08558 0.22464,0.171154 0.20324,0.08558 0.47067,0.128365 0.26743,0.04279 0.50276,0.07488 0.23534,0.02139 0.36371,0.02139 0.0749,0.09628 0.0749,0.363703 0.0107,0.25673 -0.0749,0.353004 -0.34231,-0.02139 -0.87717,-0.05348 -0.53485,-0.03209 -0.94134,-0.05349 -0.4065,-0.02139 -0.84508,-0.02139 -0.42788,0 -0.83437,0.02139 -0.3958,0.02139 -0.91995,0.05349 -0.52416,0.03209 -0.86647,0.05348 -0.0963,-0.09627 -0.0963,-0.33161 0,-0.278125 0.0963,-0.385097 z"
       id="path4633" />
    <path
       d="m 143.91904,14.44111 q 0.20325,-0.14976 0.44928,-0.14976 0.14976,0 0.22464,0.05349 0.0856,0.320913 0.25673,0.652524 0.18185,0.320913 0.43858,0.63113 0.25673,0.299519 0.55625,0.545553 0.29952,0.235337 0.67392,0.385096 0.3744,0.139063 0.7488,0.139063 0.79159,0 1.28365,-0.470673 0.50277,-0.481371 0.50277,-1.315746 0,-0.363702 -0.13907,-0.673919 -0.12836,-0.320913 -0.32091,-0.534856 -0.18185,-0.224639 -0.52416,-0.470673 -0.33161,-0.246033 -0.60973,-0.385096 -0.26743,-0.14976 -0.71671,-0.385096 -0.44928,-0.246034 -0.71671,-0.406491 -0.40649,-0.235336 -0.7167,-0.470673 -0.31022,-0.246034 -0.58835,-0.566947 -0.27812,-0.320914 -0.42788,-0.727404 -0.14976,-0.406491 -0.14976,-0.8878613 0,-0.8878609 0.51346,-1.5831736 0.52416,-0.7060099 1.33714,-1.0697119 0.82368,-0.3743992 1.74363,-0.3743992 0.42789,0 0.80229,0.053486 0.37439,0.053486 0.84507,0.1390625 0.48137,0.085577 0.88786,0.1283655 0.25673,1.1231975 0.29952,2.7384624 0,0.1176683 -0.24604,0.1176683 -0.26742,0 -0.42788,-0.1176683 -0.0963,-0.3743991 -0.28882,-0.7487983 -0.18185,-0.3850963 -0.43858,-0.7381012 -0.25674,-0.3530049 -0.62044,-0.5776444 -0.353,-0.2246395 -0.7381,-0.2246395 -0.57764,0 -0.98413,0.2139424 -0.3958,0.2032452 -0.58834,0.5562501 -0.18186,0.3423078 -0.18186,0.7915868 0,0.267428 0.0535,0.5027646 0.0535,0.2246395 0.18185,0.4171877 0.12837,0.1925481 0.24603,0.3316107 0.12837,0.1390621 0.36371,0.2995191 0.23533,0.160457 0.38509,0.256731 0.16046,0.08558 0.45998,0.256731 0.29952,0.171154 0.45998,0.267428 0.12836,0.08558 0.43858,0.267428 0.31021,0.171154 0.48137,0.278125 0.18185,0.09627 0.47067,0.299519 0.28882,0.192548 0.45998,0.342308 0.18185,0.14976 0.39579,0.374399 0.21394,0.22464 0.33161,0.438582 0.11767,0.203245 0.19255,0.48137 0.0856,0.267428 0.0856,0.545554 0,0.984134 -0.53486,1.775721 -0.53486,0.791587 -1.41202,1.230169 -0.86647,0.427885 -1.872,0.427885 -0.51346,0 -0.95204,-0.07488 -0.43858,-0.06418 -1.02692,-0.203245 -0.58834,-0.139063 -0.91995,-0.203246 -0.14976,-0.385096 -0.28883,-1.230168 -0.13906,-0.85577 -0.13906,-1.347837 z"
       id="path4635" />
    <path
       d="m 153.27901,13.007696 q 0,-1.219472 0.27812,-2.438943 0.27813,-1.230169 0.80229,-2.3533665 0.53485,-1.1231975 1.33714,-2.0966353 0.81298,-0.9734379 1.79711,-1.6901448 0.99484,-0.7274041 2.26779,-1.1338946 1.27296,-0.4171877 2.67428,-0.4171877 1.01623,0 1.92548,0.2246395 0.91996,0.2139424 1.64736,0.6204329 0.7274,0.3957934 1.33714,0.9520436 0.60974,0.5455531 1.04832,1.2194716 0.43858,0.6632213 0.7381,1.4227168 0.29952,0.7594954 0.44928,1.5724765 0.14976,0.8022839 0.14976,1.636659 0,1.401323 -0.3958,2.67428 -0.39579,1.26226 -1.06971,2.192909 -0.67392,0.919953 -1.62596,1.465506 -0.95204,0.534856 -2.02176,0.534856 -0.96274,0 -1.51899,-0.513462 -0.54555,-0.524159 -0.54555,-1.615265 0,-0.22464 0.0535,-0.609736 0.0642,-0.385096 0.12836,-0.534856 -0.16045,0.310217 -0.40649,0.695313 -0.24603,0.374399 -0.62043,0.834375 -0.3744,0.459976 -0.7595,0.834375 -0.38509,0.363702 -0.84507,0.620433 -0.45998,0.246034 -0.87716,0.246034 -0.7381,0 -1.28366,-0.48137 -0.54555,-0.481371 -0.81298,-1.230169 -0.25673,-0.748798 -0.25673,-1.647356 0,-0.877164 0.28882,-1.807813 0.29952,-0.93065 0.79159,-1.754328 0.50276,-0.8343752 1.19808,-1.5724764 0.69531,-0.7381012 1.4655,-1.2729572 0.78089,-0.5348559 1.64736,-0.8450723 0.87716,-0.3102165 1.71154,-0.3102165 0.93065,0 1.80781,0.3209136 l -1.51899,7.8409878 q -0.0749,0.29952 -0.0749,0.620433 0,0.566948 0.33161,0.845073 0.33161,0.267428 0.86647,0.267428 0.57764,0 1.17668,-0.459976 0.60974,-0.470674 1.08041,-1.230169 0.48137,-0.770193 0.78089,-1.839905 0.31022,-1.069712 0.31022,-2.192909 0,-1.0269234 -0.23534,-1.9896641 -0.23534,-0.9627407 -0.7488,-1.8292074 -0.50276,-0.8664666 -1.23017,-1.5082937 -0.7274,-0.6418272 -1.78642,-1.0162263 -1.04831,-0.3850963 -2.29988,-0.3850963 -1.23017,0 -2.36406,0.3743991 -1.1232,0.3743992 -2.01106,1.0376206 -0.87716,0.6525242 -1.60457,1.5403851 -0.7274,0.8771638 -1.20877,1.8933901 -0.47067,1.0162263 -0.72741,2.1180299 -0.25673,1.091106 -0.25673,2.171515 0,1.048317 0.25673,2.032452 0.26743,0.973438 0.72741,1.743631 0.45997,0.770192 1.04832,1.369231 0.58834,0.609736 1.27295,1.005529 0.59904,0.353005 1.00553,0.48137 0.40649,0.139063 0.85577,0.213943 0,0.09627 -0.16045,0.203245 -0.16046,0.106971 -0.3744,0.171154 -0.21395,0.07488 -0.35301,0.07488 -0.58834,0 -0.97344,-0.14976 -0.85577,-0.320913 -1.63666,-0.994832 -0.77019,-0.663221 -1.36923,-1.583173 -0.58834,-0.909256 -0.94134,-2.096636 -0.34231,-1.198077 -0.34231,-2.471034 z m 5.43414,0.470673 q 0,2.428246 1.26226,2.428246 0.59903,0 1.33713,-0.866467 0.73811,-0.877163 1.31575,-2.150121 0.58834,-1.283654 0.82368,-2.471034 l 0.49207,-2.5245201 q -0.28883,-0.3209136 -1.01623,-0.3209136 -0.55625,0 -1.16599,0.3316107 -0.60973,0.3316107 -1.14459,0.9306494 -0.53485,0.5883415 -0.97344,1.3264426 -0.42788,0.738101 -0.68461,1.615265 -0.24603,0.866467 -0.24603,1.700842 z"
       id="path4637" />
    <path
       d="m 171.18599,19.832458 q 0,-0.310217 0.19255,-0.652525 0.20325,-0.33161 0.48137,-0.609735 0.28882,-0.278125 0.67392,-0.556251 0.3851,-0.267428 0.68462,-0.449279 0.29952,-0.171153 0.59903,-0.320913 -0.3423,-0.106971 -0.68461,-0.299519 -0.34231,-0.203246 -0.65252,-0.481371 -0.31022,-0.288822 -0.50277,-0.684615 -0.19255,-0.395794 -0.19255,-0.834376 0.28882,-0.342308 0.99483,-0.887861 0.71671,-0.545553 1.1446,-0.802284 -0.91996,-0.502764 -1.4976,-1.379928 -0.56695,-0.887861 -0.56695,-1.797116 0,-0.7274039 0.32092,-1.4120195 0.33161,-0.6846157 0.87716,-1.1980774 0.55625,-0.5134617 1.33714,-0.8236781 0.79159,-0.3102165 1.65805,-0.3102165 0.29952,0 0.57765,0.032091 0.28882,0.032091 0.56694,0.1176683 0.28883,0.07488 0.41719,0.1176683 0.12837,0.042788 0.40649,0.1604568 0.28882,0.1176683 0.28882,0.1176683 0.32092,0.1176683 0.57765,0.1711539 l 2.65288,-0.3743992 q 0.24604,0.07488 0.24604,0.2460338 0,0.1069712 -0.0963,0.3209135 -0.0856,0.2032453 -0.22464,0.4171877 -0.12836,0.2139424 -0.24603,0.2781251 l -1.63666,-0.096274 q -0.10697,0 -0.10697,0.07488 0.17115,0.1711539 0.42789,0.8450724 0.26742,0.6739185 0.26742,1.4120195 0,0.652524 -0.33161,1.305049 -0.32091,0.652524 -0.86646,1.176683 -0.54556,0.513462 -1.33714,0.845072 -0.79159,0.320914 -1.65806,0.320914 -0.31021,0 -0.75949,-0.07488 -0.43858,-0.07488 -0.63113,-0.14976 -0.17116,0.09627 -0.33161,0.22464 -0.16046,0.128365 -0.29952,0.267428 -0.12837,0.139062 -0.21394,0.299519 -0.0749,0.160457 -0.0749,0.299519 0,0.256731 0.41718,0.566948 0.41719,0.310216 1.08041,0.310216 h 2.92032 q 0.97343,0 1.86129,0.353005 0.88786,0.353005 1.43342,0.962741 0.55625,0.609736 0.55625,1.283654 0,0.759496 -0.53486,1.583174 -0.52416,0.834375 -1.39062,1.518991 -0.86647,0.684615 -2.07524,1.133894 -1.20878,0.449279 -2.44964,0.459976 -0.0428,0 -0.0856,0 -0.72741,0 -1.44411,-0.181851 -0.7488,-0.192548 -1.37993,-0.55625 -0.62043,-0.363702 -1.00553,-0.962741 -0.3851,-0.599038 -0.3851,-1.326442 z m 1.96827,-0.727404 q 0,1.240865 0.88786,2.011058 0.88787,0.770192 2.43895,0.770192 0.84507,0 1.71154,-0.374399 0.87716,-0.374399 1.4548,-1.005529 0.57765,-0.620433 0.57765,-1.272957 0,-0.288822 -0.19255,-0.609736 -0.18185,-0.310216 -0.55625,-0.609736 -0.3637,-0.299519 -1.02692,-0.502764 -0.66322,-0.192548 -1.4976,-0.192548 -2.09663,0 -2.31058,0.128365 -0.55625,0.310217 -1.02692,0.770193 -0.45998,0.459976 -0.45998,0.887861 z m 0.62044,-9.1246429 q 0,0.7701929 0.26742,1.4762029 0.26743,0.695312 0.82368,1.165985 0.56695,0.459977 1.28366,0.459977 0.49206,0 0.89855,-0.246034 0.41719,-0.256731 0.67392,-0.663222 0.25673,-0.40649 0.3958,-0.898558 0.14976,-0.502764 0.14976,-1.026923 0,-0.8022839 -0.25673,-1.5082937 -0.24604,-0.7060099 -0.79159,-1.1873802 -0.53486,-0.4813704 -1.26226,-0.4813704 -0.67392,0 -1.18738,0.4385819 -0.51346,0.4385819 -0.7595,1.0911061 -0.23533,0.6418272 -0.23533,1.3799284 z"
       id="path4639" />
    <path
       d="m 182.97422,7.7019248 q 0,-0.032091 0,-0.07488 0,-0.1925481 0.0535,-0.2781251 2.11803,-0.2995193 3.55145,-1.0483176 0.0856,0 0.17115,0.1497596 0.0963,0.1497597 0.0963,0.2460338 -0.14976,1.0483176 -0.14976,1.2943514 0,0.096274 0.0535,0.096274 0.0214,0 0.0749,-0.042788 0.0321,-0.032091 0.0856,-0.085577 0.3637,-0.2995193 0.62043,-0.4920675 0.25673,-0.2032452 0.71671,-0.5027646 0.45997,-0.2995193 0.93065,-0.4492789 0.47067,-0.1604568 0.91995,-0.1604568 1.13389,0 1.82921,0.4920674 0.706,0.4813704 1.00552,1.5617794 2.2571,-2.0538468 3.64772,-2.0538468 0.79159,0 1.35854,0.2139423 0.56694,0.2032453 0.91995,0.5883416 0.3637,0.3850963 0.56695,1.0590148 0.20324,0.6739185 0.27812,1.4655053 0.0749,0.7915872 0.0749,1.9361782 v 2.727766 q 0,1.433414 0.11767,1.839904 0.0535,0.171154 0.63113,0.288822 0.57764,0.106971 0.94135,0.106971 0.0856,0.106972 0.0856,0.385097 0,0.235336 -0.0856,0.33161 -0.34231,-0.02139 -0.87717,-0.05348 -0.53485,-0.03209 -0.94135,-0.05349 -0.40649,-0.02139 -0.84507,-0.02139 -0.33161,0 -0.68461,0.02139 -0.34231,0.0107 -0.59904,0.03209 -0.25673,0.0107 -0.65253,0.03209 -0.38509,0.03209 -0.69531,0.04279 -0.0856,-0.09627 -0.0856,-0.353004 0.0107,-0.267428 0.0856,-0.363703 0.3637,0 0.94135,-0.106971 0.57764,-0.117668 0.63113,-0.288822 0.11767,-0.40649 0.11767,-1.839904 V 11.69195 q 0,-0.802284 -0.0535,-1.358534 -0.0428,-0.5562502 -0.19255,-1.0697119 -0.13906,-0.5134617 -0.39579,-0.812981 -0.25673,-0.3102165 -0.67392,-0.4813704 -0.41719,-0.181851 -1.01623,-0.181851 -0.41718,0 -0.88786,0.2032453 -0.45997,0.1925481 -0.79158,0.449279 -0.32092,0.2460337 -0.53486,0.4706732 -0.21394,0.2246395 -0.21394,0.2995193 0,0.010697 0.0107,0.1497597 0.0107,0.1390625 0.0107,0.1711539 0.0963,0.6311299 0.0963,1.7650249 v 3.048679 q 0,1.433414 0.12836,1.839904 0.0321,0.117668 0.3637,0.213942 0.34231,0.09627 0.67392,0.139063 0.33161,0.04279 0.52416,0.04279 0.0749,0.09628 0.0856,0.363703 0.0107,0.25673 -0.0856,0.353004 -0.29952,-0.0107 -0.69531,-0.04279 -0.39579,-0.02139 -0.66322,-0.03209 -0.25673,-0.02139 -0.60974,-0.03209 -0.353,-0.02139 -0.68461,-0.02139 -0.42789,0 -0.83438,0.02139 -0.40649,0.02139 -0.93065,0.05349 -0.52416,0.03209 -0.86647,0.05348 -0.0856,-0.09627 -0.0856,-0.353004 0.0107,-0.267428 0.0856,-0.363703 0.35301,0 0.93065,-0.106971 0.58835,-0.117668 0.63113,-0.288822 0.12837,-0.40649 0.12837,-1.839904 v -2.535218 q 0,-1.155288 -0.11767,-1.9040867 -0.10697,-0.7487984 -0.3851,-1.2301687 -0.27812,-0.4920675 -0.7167,-0.6846156 -0.43858,-0.2032453 -1.1125,-0.2032453 -0.3958,0 -0.83438,0.1711539 -0.42788,0.1711539 -0.7488,0.3957934 -0.31021,0.2246395 -0.52416,0.449279 -0.20324,0.2246395 -0.20324,0.3530049 v 5.1881031 q 0,1.433414 0.12837,1.839904 0.0107,0.06418 0.10697,0.128366 0.10697,0.05348 0.25673,0.09627 0.14976,0.03209 0.32091,0.07488 0.18185,0.03209 0.35301,0.05349 0.17115,0.02139 0.29952,0.03209 0.13906,0.0107 0.22463,0.0107 0.0749,0.09628 0.0749,0.363703 0.0107,0.25673 -0.0749,0.353004 -0.3423,-0.02139 -0.87716,-0.05348 -0.53486,-0.03209 -0.94135,-0.05349 -0.40649,-0.02139 -0.84507,-0.02139 -0.42788,0 -0.83437,0.02139 -0.3958,0.02139 -0.91996,0.05349 -0.52415,0.03209 -0.86646,0.05348 -0.0963,-0.09627 -0.0963,-0.353004 0.0107,-0.267428 0.0963,-0.363703 0.353,0 0.93065,-0.106971 0.57764,-0.117668 0.63113,-0.288822 0.11767,-0.40649 0.11767,-1.839904 V 9.8306514 q 0,-1.0911061 -0.11767,-1.3906254 -0.0856,-0.1925482 -0.48137,-0.2995194 -0.3958,-0.1176683 -0.66322,-0.1283654 -0.26743,-0.021394 -0.47068,-0.021394 -0.0428,-0.032091 -0.0535,-0.2888222 z"
       id="path4641" />
    <path
       d="m 202.6997,14.569475 q 0,-0.70601 0.3851,-1.26226 0.39579,-0.55625 0.85577,-0.727404 0.39579,-0.139063 1.14459,-0.395793 0.7488,-0.267428 1.29435,-0.449279 0.54556,-0.192549 1.09111,-0.395794 0.55625,-0.213942 0.81298,-0.320913 0.0963,-0.04279 0.14976,-0.07488 0.0535,-0.03209 0.0856,-0.09627 0.0428,-0.07488 0.0535,-0.171154 0.0107,-0.106971 0.0107,-0.278125 V 9.7236802 q 0,-0.5562501 -0.27813,-1.1018032 -0.27812,-0.5455531 -0.78089,-0.9092551 -0.49206,-0.3637021 -1.0804,-0.3637021 -0.62044,0 -0.91996,0.3850963 -0.29952,0.3743992 -0.43858,1.1445917 -0.11767,0.6204329 -0.40649,0.9092551 -0.28882,0.2888221 -0.75949,0.2888221 -0.3744,0 -0.60974,-0.3209134 -0.23534,-0.3209136 -0.23534,-0.7274041 0,-0.053486 0.0214,-0.1604568 0.0214,-0.1176683 0.0642,-0.2460337 0.0428,-0.1283654 0.0856,-0.181851 0.32091,-0.2995194 0.78089,-0.6204329 0.47067,-0.3316107 1.06971,-0.6632214 0.60973,-0.3316107 1.31574,-0.5455531 0.70601,-0.2139424 1.34784,-0.2139424 1.08041,0 1.89339,0.9948321 0.81298,0.9948321 0.81298,2.4068518 v 5.1132229 q 0,1.165986 0.7702,1.165986 0.10697,0 0.21394,-0.02139 0.10697,-0.02139 0.18185,-0.04279 0.0749,-0.03209 0.14976,-0.07488 0.0856,-0.04279 0.12836,-0.07488 0.0428,-0.03209 0.0856,-0.06418 0.0535,-0.03209 0.0535,-0.04279 0.10697,0 0.10697,0.203246 0,0.25673 -0.12837,0.470673 -0.28882,0.256731 -0.89856,0.599038 -0.60973,0.342308 -0.96274,0.342308 -0.51346,0 -0.95204,-0.502764 -0.43858,-0.502765 -0.55625,-1.112501 -0.3637,0.363702 -1.43341,1.016227 -1.05902,0.652524 -1.62597,0.652524 -1.23017,0 -2.06454,-0.823678 -0.83438,-0.823678 -0.83438,-2.032453 z m 2.05385,-0.224639 q 0,0.449279 0.21394,0.855769 0.22464,0.395794 0.60974,0.641827 0.3851,0.235337 0.84507,0.235337 0.31022,0 0.69531,-0.117668 0.3958,-0.128366 0.70601,-0.288823 0.32092,-0.171154 0.53486,-0.342307 0.22464,-0.171154 0.22464,-0.267428 V 11.69195 q -1.92548,0.566947 -2.31058,0.716707 -0.70601,0.267428 -1.1125,0.759496 -0.40649,0.492067 -0.40649,1.176683 z"
       id="path4643" />
    <path
       d="m 213.25776,7.7019248 q 0,-0.032091 0,-0.07488 0,-0.1925481 0.0535,-0.2781251 2.11803,-0.2995193 3.55144,-1.0483176 0.0856,0 0.17116,0.1497596 0.0963,0.1497597 0.0963,0.2460338 -0.17115,1.2194715 -0.17115,1.6366592 v 0.8236781 5.1881031 q 0,1.433414 0.12836,1.839904 0.0107,0.06418 0.10698,0.128366 0.10697,0.05348 0.25673,0.09627 0.14976,0.03209 0.32091,0.07488 0.18185,0.03209 0.353,0.05349 0.17116,0.02139 0.29952,0.03209 0.13907,0.0107 0.22464,0.0107 0.0856,0.106972 0.0856,0.385097 0,0.235336 -0.0856,0.33161 -0.3423,-0.02139 -0.87716,-0.05348 -0.53486,-0.03209 -0.94135,-0.05349 -0.40649,-0.02139 -0.84507,-0.02139 -0.42788,0 -0.83437,0.02139 -0.3958,0.02139 -0.91996,0.05349 -0.52416,0.03209 -0.86646,0.05348 -0.0963,-0.09627 -0.0963,-0.353004 0.0107,-0.267428 0.0963,-0.363703 0.353,0 0.93065,-0.106971 0.57764,-0.117668 0.63113,-0.288822 0.11766,-0.40649 0.11766,-1.839904 V 9.7236802 q 0,-0.9841349 -0.11766,-1.2836542 -0.0856,-0.1925482 -0.48137,-0.2995194 -0.3958,-0.1176683 -0.66323,-0.1283654 -0.26742,-0.021394 -0.47067,-0.021394 -0.0428,-0.032091 -0.0535,-0.2888222 z m 1.66875,-4.310939 q -0.35301,-0.363702 -0.35301,-0.8771637 0,-0.5241589 0.35301,-0.8878609 0.3637,-0.363702 0.88786,-0.363702 0.52416,0 0.87716,0.363702 0.3637,0.363702 0.3637,0.8878609 0,0.5134617 -0.3637,0.8771637 -0.353,0.3530049 -0.87716,0.3530049 -0.52416,0 -0.88786,-0.3530049 z"
       id="path4645" />
    <path
       d="m 219.68672,16.580533 q 0.35301,0 0.93065,-0.106971 0.57765,-0.117668 0.63113,-0.288822 0.11767,-0.40649 0.11767,-1.839904 V 3.3695916 q 0,-0.984135 -0.11767,-1.2836543 -0.19255,-0.449279 -1.51899,-0.449279 -0.0107,0 -0.0214,-0.1497596 -0.0107,-0.1604568 -0.0107,-0.3209136 0.0107,-0.1604568 0.0642,-0.17115392 1.70085,-0.1711539 3.51936,-0.99483205916851 0.0963,0 0.18185,0.13906254916851 0.0963,0.12836542 0.0963,0.25673085 -0.27812,0.80228388 -0.27812,2.16081798 V 14.344836 q 0,1.433414 0.12836,1.839904 0.0214,0.08558 0.22464,0.171154 0.20325,0.08558 0.47067,0.128365 0.26743,0.04279 0.50277,0.07488 0.23533,0.02139 0.3637,0.02139 0.0749,0.106972 0.0749,0.363703 0,0.0107 0.0107,0.02139 0,0.235336 -0.0856,0.33161 -0.34231,-0.02139 -0.87716,-0.05348 -0.53486,-0.03209 -0.94135,-0.05349 -0.40649,-0.02139 -0.84507,-0.02139 -0.42789,0 -0.83438,0.02139 -0.39579,0.02139 -0.91995,0.05349 -0.52416,0.03209 -0.86647,0.05348 -0.0963,-0.09627 -0.0963,-0.33161 0,-0.278125 0.0963,-0.385097 z"
       id="path4647" />
    <path
       d="m 226.67195,16.10986 q 0,-0.363702 0.19255,-0.673918 0.19255,-0.310217 0.51346,-0.492068 0.32091,-0.181851 0.68462,-0.181851 0.55625,0 0.95204,0.395794 0.39579,0.385096 0.39579,0.952043 0,0.55625 -0.39579,0.973438 -0.39579,0.417188 -0.95204,0.417188 -0.55625,0 -0.97344,-0.417188 -0.41719,-0.417188 -0.41719,-0.973438 z"
       id="path4649" />
    <path
       d="m 231.58192,12.408657 q 0,-0.877164 0.26743,-1.700842 0.26743,-0.8343751 0.72741,-1.4868994 0.45997,-0.6525242 1.05901,-1.1980773 0.59904,-0.545553 1.26226,-0.9092551 0.67392,-0.363702 1.36923,-0.5562502 0.70601,-0.2032452 1.34784,-0.2032452 1.34784,0 2.2357,0.5990386 0.0856,0.07488 0.16045,0.2995194 0.0856,0.2139423 0.0856,0.3850962 0,0.6204329 -0.28882,0.9092552 -0.27813,0.2888222 -0.65253,0.2888222 -0.24603,0 -0.50276,-0.1604568 -0.24603,-0.1604568 -0.52416,-0.4171877 -0.27812,-0.2567308 -0.40649,-0.3423078 -0.42788,-0.2781251 -0.69531,-0.3743991 -0.26743,-0.096274 -0.72741,-0.096274 -0.39579,0 -0.79158,0.181851 -0.3958,0.1711539 -0.7595,0.534856 -0.353,0.3530049 -0.63113,0.8450724 -0.26743,0.4813703 -0.43858,1.1552887 -0.16046,0.673919 -0.16046,1.422717 0,1.059015 0.31022,1.882693 0.32091,0.812981 0.86647,1.315745 0.55625,0.492068 1.27295,0.748799 0.71671,0.246034 1.57248,0.246034 0.39579,0 0.77019,-0.09628 0.3744,-0.09627 0.65253,-0.235336 0.27812,-0.139063 0.53485,-0.320914 0.26743,-0.192548 0.40649,-0.33161 0.14976,-0.139063 0.26743,-0.278125 0.0214,0 0.0642,0.04279 0.0428,0.04279 0.0856,0.128365 0.0535,0.08558 0.0535,0.181851 0,0.192549 -0.14976,0.438582 -0.20325,0.320914 -0.50277,0.641827 -0.28882,0.320914 -0.7381,0.673919 -0.44928,0.353005 -1.08041,0.577644 -0.62043,0.22464 -1.30505,0.22464 -0.87716,0 -1.66875,-0.267428 -0.79158,-0.278125 -1.40132,-0.759496 -0.59904,-0.48137 -1.04832,-1.1125 -0.43858,-0.63113 -0.67392,-1.369231 -0.22464,-0.738101 -0.22464,-1.508294 z"
       id="path4651" />
    <path
       d="m 242.12929,11.937984 q 0,-1.18738 0.40649,-2.2250009 0.40649,-1.0376205 1.10181,-1.7757217 0.706,-0.7487984 1.69014,-1.1766831 0.98413,-0.4278848 2.08594,-0.4278848 1.60457,0 2.82404,0.7060099 1.21947,0.7060098 1.8506,1.9254814 0.64183,1.2194712 0.64183,2.7705542 0,1.18738 -0.40649,2.235697 -0.40649,1.048318 -1.10181,1.807814 -0.69531,0.748798 -1.67945,1.18738 -0.97343,0.427885 -2.07524,0.427885 -1.20877,0 -2.2143,-0.417188 -1.00553,-0.417188 -1.69014,-1.144592 -0.67392,-0.727404 -1.05902,-1.732933 -0.3744,-1.005529 -0.3744,-2.160818 z m 2.13943,-0.502765 q 0,0.738101 0.13906,1.465506 0.13906,0.727404 0.42788,1.390625 0.28882,0.663221 0.69532,1.176683 0.40649,0.502765 0.97343,0.812981 0.56695,0.299519 1.20878,0.299519 0.51346,0 0.94134,-0.171153 0.43859,-0.171154 0.7488,-0.470674 0.31022,-0.299519 0.53486,-0.695312 0.23533,-0.406491 0.3744,-0.887861 0.13906,-0.492068 0.20324,-0.994832 0.0749,-0.513462 0.0749,-1.048318 0,-0.919952 -0.23533,-1.829207 -0.22464,-0.9092554 -0.65253,-1.6580538 -0.42788,-0.7487983 -1.1018,-1.2087744 -0.66322,-0.4706732 -1.45481,-0.4706732 -0.62043,0 -1.1125,0.2460337 -0.49207,0.2460337 -0.82368,0.6525243 -0.32091,0.4064905 -0.54555,0.9627407 -0.21394,0.5562502 -0.31022,1.1659857 -0.0856,0.599039 -0.0856,1.26226 z"
       id="path4653" />
    <path
       d="m 254.52724,7.7019248 q 0,-0.032091 0,-0.07488 0,-0.1925481 0.0535,-0.2781251 2.11803,-0.2995193 3.55144,-1.0483176 0.0856,0 0.17115,0.1497596 0.0963,0.1497597 0.0963,0.2460338 -0.14976,1.0483176 -0.14976,1.2943514 0,0.096274 0.0535,0.096274 0.0214,0 0.0749,-0.042788 0.0321,-0.032091 0.0856,-0.085577 0.3637,-0.2995193 0.62043,-0.4920675 0.25673,-0.2032452 0.71671,-0.5027646 0.45998,-0.2995193 0.93065,-0.4492789 0.47067,-0.1604568 0.91995,-0.1604568 1.1339,0 1.82921,0.4920674 0.70601,0.4813704 1.00553,1.5617794 2.25709,-2.0538468 3.64772,-2.0538468 0.79158,0 1.35853,0.2139423 0.56695,0.2032453 0.91995,0.5883416 0.3637,0.3850963 0.56695,1.0590148 0.20325,0.6739185 0.27812,1.4655053 0.0749,0.7915872 0.0749,1.9361782 v 2.727766 q 0,1.433414 0.11767,1.839904 0.0535,0.171154 0.63113,0.288822 0.57765,0.106971 0.94135,0.106971 0.0856,0.106972 0.0856,0.385097 0,0.235336 -0.0856,0.33161 -0.34231,-0.02139 -0.87716,-0.05348 -0.53486,-0.03209 -0.94135,-0.05349 -0.40649,-0.02139 -0.84507,-0.02139 -0.33161,0 -0.68462,0.02139 -0.34231,0.0107 -0.59904,0.03209 -0.25673,0.0107 -0.65252,0.03209 -0.3851,0.03209 -0.69531,0.04279 -0.0856,-0.09627 -0.0856,-0.353004 0.0107,-0.267428 0.0856,-0.363703 0.3637,0 0.94134,-0.106971 0.57765,-0.117668 0.63113,-0.288822 0.11767,-0.40649 0.11767,-1.839904 V 11.69195 q 0,-0.802284 -0.0535,-1.358534 -0.0428,-0.5562502 -0.19254,-1.0697119 -0.13907,-0.5134617 -0.3958,-0.812981 -0.25673,-0.3102165 -0.67392,-0.4813704 -0.41718,-0.181851 -1.01622,-0.181851 -0.41719,0 -0.88786,0.2032453 -0.45998,0.1925481 -0.79159,0.449279 -0.32091,0.2460337 -0.53486,0.4706732 -0.21394,0.2246395 -0.21394,0.2995193 0,0.010697 0.0107,0.1497597 0.0107,0.1390625 0.0107,0.1711539 0.0963,0.6311299 0.0963,1.7650249 v 3.048679 q 0,1.433414 0.12837,1.839904 0.0321,0.117668 0.3637,0.213942 0.34231,0.09627 0.67392,0.139063 0.33161,0.04279 0.52416,0.04279 0.0749,0.09628 0.0856,0.363703 0.0107,0.25673 -0.0856,0.353004 -0.29952,-0.0107 -0.69532,-0.04279 -0.39579,-0.02139 -0.66322,-0.03209 -0.25673,-0.02139 -0.60973,-0.03209 -0.35301,-0.02139 -0.68462,-0.02139 -0.42788,0 -0.83438,0.02139 -0.40649,0.02139 -0.93064,0.05349 -0.52416,0.03209 -0.86647,0.05348 -0.0856,-0.09627 -0.0856,-0.353004 0.0107,-0.267428 0.0856,-0.363703 0.353,0 0.93065,-0.106971 0.58834,-0.117668 0.63113,-0.288822 0.12836,-0.40649 0.12836,-1.839904 v -2.535218 q 0,-1.155288 -0.11766,-1.9040867 -0.10698,-0.7487984 -0.3851,-1.2301687 -0.27813,-0.4920675 -0.71671,-0.6846156 -0.43858,-0.2032453 -1.1125,-0.2032453 -0.39579,0 -0.83437,0.1711539 -0.42789,0.1711539 -0.7488,0.3957934 -0.31022,0.2246395 -0.52416,0.449279 -0.20325,0.2246395 -0.20325,0.3530049 v 5.1881031 q 0,1.433414 0.12837,1.839904 0.0107,0.06418 0.10697,0.128366 0.10697,0.05348 0.25673,0.09627 0.14976,0.03209 0.32092,0.07488 0.18185,0.03209 0.353,0.05349 0.17115,0.02139 0.29952,0.03209 0.13906,0.0107 0.22464,0.0107 0.0749,0.09628 0.0749,0.363703 0.0107,0.25673 -0.0749,0.353004 -0.34231,-0.02139 -0.87716,-0.05348 -0.53486,-0.03209 -0.94135,-0.05349 -0.40649,-0.02139 -0.84507,-0.02139 -0.42789,0 -0.83438,0.02139 -0.39579,0.02139 -0.91995,0.05349 -0.52416,0.03209 -0.86647,0.05348 -0.0963,-0.09627 -0.0963,-0.353004 0.0107,-0.267428 0.0963,-0.363703 0.35301,0 0.93065,-0.106971 0.57765,-0.117668 0.63113,-0.288822 0.11767,-0.40649 0.11767,-1.839904 V 9.8306514 q 0,-1.0911061 -0.11767,-1.3906254 -0.0856,-0.1925482 -0.48137,-0.2995194 -0.39579,-0.1176683 -0.66322,-0.1283654 -0.26743,-0.021394 -0.47067,-0.021394 -0.0428,-0.032091 -0.0535,-0.2888222 z"
       id="path4655" />
  </g>
</svg>
