<?xml version="1.0" encoding="utf-8"?>
<svg xmlns="http://www.w3.org/2000/svg" height="22.956055" version="1.1" width="231.50488" viewBox="0 0 231.50489 22.956055">
	<path d="M 0,12.160156 Q 0,11.225586 0.39746094,10.3125 0.80566406,9.3994141 1.4501953,8.7119141 2.0947266,8.0136719 2.8789063,7.4765625 3.6630859,6.9394531 4.4580078,6.6601562 5.2636719,6.3808594 5.9404297,6.3808594 q 0.3759765,0 0.9453125,0.085937 0.5800781,0.085937 0.7734375,0.1611328 0.118164,0 0.118164,-0.5263672 V 3.3837891 q 0,-0.9882813 -0.118164,-1.2890625 -0.1933594,-0.4511719 -1.5253906,-0.4511719 -0.010742,0 -0.032227,-0.1503906 -0.010742,-0.1611329 0,-0.3222657 Q 6.1123047,1.0097656 6.1660156,0.99902344 7.8740234,0.82714844 9.7001953,0 9.796875,0 9.8828125,0.13964844 9.96875,0.26855469 9.96875,0.39746094 9.7001953,1.203125 9.7001953,2.5673828 V 13.234375 q 0,2.030273 0.171875,2.438477 0.042969,0.09668 0.1396487,0.171875 0.09668,0.06445 0.225586,0.107421 0.128906,0.04297 0.268554,0.0752 0.150391,0.03223 0.290039,0.05371 0.139649,0.01074 0.257813,0.02148 0.118164,0.01074 0.193359,0.02148 0.08594,0 0.09668,0 0.0752,0.03223 0.0752,0.300782 0,0.06445 -0.06445,0.225586 -0.05371,0.15039 -0.139648,0.15039 -0.354492,0.02148 -0.827149,0.09668 -0.4619137,0.0752 -0.8701169,0.182617 -0.4082031,0.09668 -0.7626953,0.193359 -0.34375,0.09668 -0.5585937,0.161133 l -0.2148438,0.06445 q -0.09668,0 -0.1503906,-0.161132 -0.053711,-0.150391 -0.053711,-0.322266 v -0.870117 q 0,-0.161133 -0.042969,-0.161133 -0.010742,0 -0.032227,0.01074 Q 7.3369141,16.392578 6.2626953,16.951172 5.1884766,17.499023 4.3935547,17.499023 3.5449219,17.499023 2.75,17.09082 1.9550781,16.671875 1.3427734,15.973633 0.74121094,15.275391 0.36523438,14.276367 0,13.266602 0,12.160156 Z m 2.0947266,-0.601562 q 0,0.891601 0.2363281,1.686523 0.2363281,0.78418 0.6660156,1.396485 0.4404297,0.601562 1.1171875,0.956054 0.6767578,0.354492 1.4931641,0.354492 0.4082031,0 0.8164062,-0.09668 0.4082031,-0.107422 0.6982422,-0.257813 0.2900391,-0.15039 0.4726563,-0.322265 0.1826171,-0.171875 0.1826171,-0.322266 V 8.6474609 q 0,-0.4404296 -0.8164062,-0.8271484 -0.8056641,-0.3974609 -1.8261719,-0.3974609 -0.9023437,0 -1.6113281,0.6015625 Q 2.8144531,8.6259766 2.4492188,9.5605469 2.0947266,10.495117 2.0947266,11.558594 Z"/>
	<path d="m 12.783203,14.630859 q 0,-0.708984 0.386719,-1.267578 0.397461,-0.558593 0.859375,-0.730468 0.397461,-0.139649 1.149414,-0.397461 0.751953,-0.268555 1.299805,-0.451172 0.547851,-0.19336 1.095703,-0.397461 0.558593,-0.214844 0.816406,-0.322266 0.09668,-0.04297 0.150391,-0.0752 0.05371,-0.03223 0.08594,-0.09668 0.04297,-0.0752 0.05371,-0.171875 0.01074,-0.107422 0.01074,-0.279297 V 9.7646484 q 0,-0.5585937 -0.279297,-1.1064453 Q 18.132812,8.1103516 17.62793,7.7451172 17.133789,7.3798828 16.542969,7.3798828 q -0.623047,0 -0.923828,0.3867188 -0.300782,0.3759765 -0.44043,1.149414 -0.118164,0.6230469 -0.408203,0.913086 -0.290039,0.2900394 -0.762695,0.2900394 -0.375977,0 -0.612305,-0.322266 -0.236328,-0.3222656 -0.236328,-0.7304687 0,-0.053711 0.02148,-0.1611329 0.02148,-0.118164 0.06445,-0.2470703 0.04297,-0.1289062 0.08594,-0.1826172 0.322265,-0.3007812 0.784179,-0.6230468 0.472657,-0.3330079 1.074219,-0.6660157 0.612305,-0.3330078 1.321289,-0.5478515 0.708985,-0.2148438 1.353516,-0.2148438 1.084961,0 1.901367,0.9990235 0.816406,0.9990234 0.816406,2.4169922 v 5.1347652 q 0,1.170899 0.773438,1.170899 0.107422,0 0.214843,-0.02148 0.107422,-0.02148 0.182618,-0.04297 0.0752,-0.03223 0.15039,-0.0752 0.08594,-0.04297 0.128907,-0.0752 0.04297,-0.03223 0.08594,-0.06445 0.05371,-0.03223 0.05371,-0.04297 0.107422,0 0.107422,0.204102 0,0.257812 -0.128906,0.472656 -0.290039,0.257812 -0.902344,0.601562 -0.612305,0.34375 -0.966797,0.34375 -0.515625,0 -0.956055,-0.504882 -0.440429,-0.504883 -0.558593,-1.117188 -0.365235,0.365235 -1.439454,1.020508 -1.063476,0.655273 -1.632812,0.655273 -1.235352,0 -2.073242,-0.827148 -0.837891,-0.827148 -0.837891,-2.041016 z m 2.0625,-0.225586 q 0,0.451172 0.214844,0.859375 0.225586,0.397461 0.612305,0.644532 0.386718,0.236328 0.848632,0.236328 0.311524,0 0.698243,-0.118164 0.39746,-0.128906 0.708984,-0.290039 0.322266,-0.171875 0.537109,-0.34375 0.225586,-0.171875 0.225586,-0.268555 v -3.383789 q -1.933594,0.569336 -2.320312,0.719727 -0.708985,0.268554 -1.117188,0.762695 -0.408203,0.49414 -0.408203,1.18164 z"/>
	<path d="m 22.34375,6.9609375 q 0,-0.1826172 0.06445,-0.3867188 0.365234,0.021484 0.827149,0.053711 0.461914,0.032227 0.827148,0.053711 0.375977,0.021484 0.837891,0.021484 0.418945,0 0.794921,-0.021484 0.375977,-0.021484 0.859375,-0.053711 0.483399,-0.032227 0.837891,-0.053711 0.04297,0.1181641 0.01074,0.4296875 -0.03223,0.3007813 -0.118164,0.3007813 -0.09668,0 -0.268554,0.021484 -0.161133,0.010742 -0.397461,0.053711 -0.236329,0.032227 -0.397461,0.1289063 -0.150391,0.085937 -0.150391,0.2148437 0,0.053711 0.02148,0.09668 l 2.739258,6.7353515 q 1.278321,-3.319336 2.223633,-5.6611327 0.150391,-0.3544922 0.150391,-0.7949219 0,-0.3652344 -0.408203,-0.5800782 -0.397461,-0.2148437 -1.041993,-0.2148437 -0.09668,0 -0.09668,-0.3115234 0,-0.3222657 0.09668,-0.4189454 0.257813,0.021484 0.601563,0.064453 0.34375,0.032226 0.655273,0.053711 0.311524,0.010742 0.762696,0.010742 0.418945,0 0.751953,-0.021484 0.34375,-0.021484 0.762695,-0.053711 0.429688,-0.032227 0.805664,-0.053711 0.04297,0.075195 0.04297,0.2363282 0,0.085937 -0.01074,0.1933593 -0.03223,0.3007813 -0.107422,0.3007813 -0.107422,0 -0.300781,0.042969 -0.182618,0.032227 -0.44043,0.1181641 -0.257813,0.075195 -0.494141,0.2578125 -0.236328,0.1826172 -0.333008,0.4296875 -2.664062,6.3593747 -3.738281,8.9912107 -0.04297,0.09668 -0.171875,0.19336 -0.128906,0.107421 -0.268555,0.171875 -0.139648,0.06445 -0.214843,0.06445 -0.171875,0 -0.225586,-0.107422 -0.580078,-1.375 -1.396485,-3.405274 Q 25.630859,12.020508 25.007812,10.538086 24.384766,9.0449219 23.772461,7.7988281 23.708008,7.6484375 23.557617,7.5517578 23.407227,7.4443359 23.27832,7.4013672 q -0.128906,-0.053711 -0.34375,-0.075195 -0.214843,-0.021484 -0.290039,-0.021484 -0.06445,0 -0.236328,0 -0.06445,-0.1289063 -0.06445,-0.34375 z"/>
	<path d="m 34.933594,7.734375 q 0,-0.032227 0,-0.075195 0,-0.1933594 0.05371,-0.2792969 2.126953,-0.3007812 3.566406,-1.0527344 0.08594,0 0.171875,0.1503907 0.09668,0.1503906 0.09668,0.2470703 -0.171875,1.2246093 -0.171875,1.6435547 v 0.8271484 5.2099605 q 0,1.439454 0.128906,1.847657 0.01074,0.06445 0.107422,0.128906 0.107422,0.05371 0.257812,0.09668 0.150391,0.03223 0.322266,0.0752 0.182617,0.03223 0.354492,0.05371 0.171875,0.02148 0.300781,0.03223 0.139649,0.01074 0.225586,0.01074 0.08594,0.107421 0.08594,0.386718 0,0.236328 -0.08594,0.333008 -0.34375,-0.02148 -0.880859,-0.05371 -0.53711,-0.03223 -0.945313,-0.05371 -0.408203,-0.02148 -0.848632,-0.02148 -0.429688,0 -0.837891,0.02148 -0.397461,0.02148 -0.923828,0.05371 -0.526367,0.03223 -0.870117,0.05371 -0.09668,-0.09668 -0.09668,-0.354492 0.01074,-0.268555 0.09668,-0.365234 0.354492,0 0.93457,-0.107422 0.580078,-0.118164 0.633789,-0.290039 0.118164,-0.408203 0.118164,-1.847657 V 9.7646484 q 0,-0.9882812 -0.118164,-1.2890625 Q 36.523437,8.2822266 36.125977,8.1748047 35.728516,8.0566406 35.459961,8.0458984 35.191406,8.0244141 34.987305,8.0244141 34.944336,7.9921875 34.933594,7.734375 Z m 1.675781,-4.3291016 q -0.354492,-0.3652343 -0.354492,-0.8808593 0,-0.5263672 0.354492,-0.8916016 0.365234,-0.3652344 0.891602,-0.3652344 0.526367,0 0.880859,0.3652344 0.365234,0.3652344 0.365234,0.8916016 0,0.515625 -0.365234,0.8808593 -0.354492,0.3544922 -0.880859,0.3544922 -0.526368,0 -0.891602,-0.3544922 z"/>
	<path d="m 41.830078,12.160156 q 0,-0.93457 0.397461,-1.847656 0.408203,-0.9130859 1.052734,-1.6005859 0.644532,-0.6982422 1.428711,-1.2353516 0.78418,-0.5371094 1.579102,-0.8164063 0.805664,-0.2792968 1.482422,-0.2792968 0.375976,0 0.945312,0.085937 0.580078,0.085937 0.773438,0.1611328 0.118164,0 0.118164,-0.5263672 V 3.3837891 q 0,-0.9882813 -0.118164,-1.2890625 -0.19336,-0.4511719 -1.525391,-0.4511719 -0.01074,0 -0.03223,-0.1503906 -0.01074,-0.1611329 0,-0.3222657 0.01074,-0.1611328 0.06445,-0.17187496 Q 49.704102,0.82714844 51.530273,0 q 0.09668,0 0.182618,0.13964844 0.08594,0.12890625 0.08594,0.2578125 Q 51.530273,1.203125 51.530273,2.5673828 V 13.234375 q 0,2.030273 0.171875,2.438477 0.04297,0.09668 0.139649,0.171875 0.09668,0.06445 0.225586,0.107421 0.128906,0.04297 0.268554,0.0752 0.150391,0.03223 0.29004,0.05371 0.139648,0.01074 0.257812,0.02148 0.118164,0.01074 0.193359,0.02148 0.08594,0 0.09668,0 0.0752,0.03223 0.0752,0.300782 0,0.06445 -0.06445,0.225586 -0.05371,0.15039 -0.139648,0.15039 -0.354492,0.02148 -0.827149,0.09668 -0.461914,0.0752 -0.870117,0.182617 -0.408203,0.09668 -0.762695,0.193359 -0.34375,0.09668 -0.558594,0.161133 l -0.214844,0.06445 q -0.09668,0 -0.15039,-0.161132 -0.05371,-0.150391 -0.05371,-0.322266 v -0.870117 q 0,-0.161133 -0.04297,-0.161133 -0.01074,0 -0.03223,0.01074 -0.365235,0.397461 -1.439454,0.956055 -1.074218,0.547851 -1.86914,0.547851 -0.848633,0 -1.643555,-0.408203 -0.794922,-0.418945 -1.407226,-1.117187 -0.601563,-0.698242 -0.97754,-1.697266 -0.365234,-1.009765 -0.365234,-2.116211 z m 2.094727,-0.601562 q 0,0.891601 0.236328,1.686523 0.236328,0.78418 0.666015,1.396485 0.44043,0.601562 1.117188,0.956054 0.676758,0.354492 1.493164,0.354492 0.408203,0 0.816406,-0.09668 0.408203,-0.107422 0.698242,-0.257813 0.290039,-0.15039 0.472657,-0.322265 0.182617,-0.171875 0.182617,-0.322266 V 8.6474609 q 0,-0.4404296 -0.816406,-0.8271484 -0.805664,-0.3974609 -1.826172,-0.3974609 -0.902344,0 -1.611328,0.6015625 -0.708985,0.6015625 -1.074219,1.5361328 -0.354492,0.9345701 -0.354492,1.9980471 z"/>
	<path d="m 54.881836,16.177734 q 0,-0.365234 0.193359,-0.676757 0.19336,-0.311524 0.515625,-0.494141 0.322266,-0.182617 0.6875,-0.182617 0.558594,0 0.956055,0.397461 0.397461,0.386718 0.397461,0.956054 0,0.558594 -0.397461,0.977539 -0.397461,0.418946 -0.956055,0.418946 -0.558593,0 -0.977539,-0.418946 -0.418945,-0.418945 -0.418945,-0.977539 z"/>
	<path d="m 59.415039,19.916016 q 0,-0.311524 0.193359,-0.655274 0.204102,-0.333008 0.483399,-0.612305 0.290039,-0.279296 0.676758,-0.558593 0.386718,-0.268555 0.6875,-0.451172 0.300781,-0.171875 0.601562,-0.322266 -0.34375,-0.107422 -0.6875,-0.300781 -0.34375,-0.204102 -0.655273,-0.483398 -0.311524,-0.29004 -0.504883,-0.6875 -0.193359,-0.397461 -0.193359,-0.837891 0.290039,-0.34375 0.999023,-0.891602 0.719727,-0.547851 1.149414,-0.805664 -0.923828,-0.504882 -1.503906,-1.385742 -0.569336,-0.891601 -0.569336,-1.804687 0,-0.7304691 0.322265,-1.4179691 0.333008,-0.6875 0.88086,-1.203125 0.558594,-0.515625 1.342773,-0.8271485 0.794922,-0.3115234 1.665039,-0.3115234 0.300782,0 0.580078,0.032227 0.29004,0.032226 0.569336,0.118164 0.290039,0.075195 0.418946,0.1181641 0.128906,0.042969 0.408203,0.1611328 0.290039,0.1181641 0.290039,0.1181641 0.322266,0.118164 0.580078,0.171875 L 69.813477,6.703125 q 0.24707,0.075195 0.24707,0.2470703 0,0.1074219 -0.09668,0.3222656 -0.08594,0.2041016 -0.225586,0.4189453 -0.128906,0.2148438 -0.24707,0.2792969 l -1.643555,-0.09668 q -0.107422,0 -0.107422,0.075195 0.171875,0.1718751 0.429688,0.8486329 0.268555,0.6767578 0.268555,1.4179684 0,0.655274 -0.333008,1.310547 -0.322266,0.655274 -0.870117,1.181641 -0.547852,0.515625 -1.342774,0.848633 -0.794922,0.322265 -1.665039,0.322265 -0.311523,0 -0.762695,-0.0752 -0.44043,-0.07519 -0.633789,-0.150391 -0.171875,0.09668 -0.333008,0.225586 -0.161133,0.128907 -0.300781,0.268555 -0.128907,0.139648 -0.214844,0.300781 -0.0752,0.161133 -0.0752,0.300781 0,0.257813 0.418945,0.569336 0.418945,0.311524 1.084961,0.311524 h 2.932617 q 0.977539,0 1.869141,0.354492 0.891601,0.354492 1.439453,0.966797 0.558593,0.612305 0.558593,1.289062 0,0.762696 -0.537109,1.589844 -0.526367,0.837891 -1.396484,1.525391 -0.870117,0.6875 -2.083985,1.138672 -1.213867,0.451171 -2.459961,0.461914 -0.04297,0 -0.08594,0 -0.730469,0 -1.450195,-0.182618 -0.751954,-0.193359 -1.385743,-0.558593 -0.623046,-0.365235 -1.009765,-0.966797 -0.386719,-0.601563 -0.386719,-1.332031 z m 1.976563,-0.730469 q 0,1.246094 0.891601,2.019531 0.891602,0.773438 2.449219,0.773438 0.848633,0 1.71875,-0.375977 0.880859,-0.375977 1.460937,-1.009766 0.580078,-0.623046 0.580078,-1.27832 0,-0.290039 -0.193359,-0.612305 -0.182617,-0.311523 -0.558594,-0.612304 -0.365234,-0.300782 -1.03125,-0.504883 -0.666015,-0.193359 -1.503906,-0.193359 -2.105469,0 -2.320312,0.128906 -0.558594,0.311523 -1.03125,0.773437 -0.461914,0.461914 -0.461914,0.891602 z m 0.623046,-9.163086 q 0,0.773437 0.268555,1.482422 0.268555,0.698242 0.827149,1.170898 0.569335,0.461914 1.289062,0.461914 0.494141,0 0.902344,-0.24707 0.418945,-0.257812 0.676758,-0.666016 0.257812,-0.408203 0.397461,-0.902343 0.15039,-0.504883 0.15039,-1.03125 0,-0.8056644 -0.257812,-1.5146488 -0.247071,-0.7089844 -0.794922,-1.1923828 -0.53711,-0.4833985 -1.267578,-0.4833985 -0.676758,0 -1.192383,0.4404297 -0.515625,0.4404297 -0.762695,1.0957032 -0.236329,0.6445312 -0.236329,1.3857422 z"/>
	<path d="m 71.25293,7.734375 q 0,-0.032227 0,-0.075195 0,-0.1933594 0.05371,-0.2792969 2.126953,-0.3007812 3.566406,-1.0527344 0.08594,0 0.171875,0.1503907 0.09668,0.1503906 0.09668,0.2470703 -0.02149,0.1503906 -0.09668,1.1279297 -0.07519,0.977539 -0.07519,1.1708984 0,0.064453 0.03223,0.075195 0.04297,0 0.06445,-0.032227 0.19336,-0.4082032 0.515625,-0.859375 0.322266,-0.4619141 0.708985,-0.8701172 0.397461,-0.4082032 0.859375,-0.6660157 0.461914,-0.2685547 0.859375,-0.2685547 0.483398,0 0.913086,0.2148438 0.440429,0.2041016 0.601562,0.5048828 0.107422,0.3007813 0.107422,0.6767578 0,0.6123047 -0.290039,0.9560547 -0.279297,0.34375 -0.53711,0.34375 -0.118164,0 -0.257812,-0.053711 Q 78.417969,8.9912109 78.321289,8.9267578 78.235352,8.8623047 78.084961,8.765625 77.945312,8.6689453 77.880859,8.6259766 77.44043,8.3251953 76.967773,8.3251953 q -0.386718,0 -0.773437,0.2685547 -0.375977,0.2685547 -0.633789,0.6445313 -0.257813,0.3652343 -0.429688,0.7412109 -0.161132,0.3652348 -0.161132,0.5908208 v 3.83496 q 0,1.439454 0.128906,1.847657 0.04297,0.171875 0.870117,0.290039 0.837891,0.107422 1.267578,0.107422 0.07519,0.09668 0.07519,0.365234 0.01074,0.257812 -0.07519,0.354492 -2.556641,-0.128906 -3.09375,-0.128906 -0.429687,0 -0.870117,0.02148 -0.429688,0.02148 -1.020508,0.05371 -0.580078,0.04297 -0.891601,0.05371 -0.09668,-0.09668 -0.09668,-0.354492 0.01074,-0.268555 0.09668,-0.365234 0.354492,0 0.93457,-0.107422 0.580078,-0.118164 0.633789,-0.290039 0.118164,-0.408203 0.118164,-1.847657 V 9.7646484 q 0,-0.9882812 -0.118164,-1.2890625 Q 72.842773,8.2822266 72.445312,8.1748047 72.047852,8.0566406 71.779297,8.0458984 71.510742,8.0244141 71.306641,8.0244141 71.263672,7.9921875 71.25293,7.734375 Z"/>
	<path d="m 80.791992,7.734375 q 0,-0.032227 0,-0.075195 0,-0.1933594 0.05371,-0.2792969 2.126953,-0.3007812 3.566406,-1.0527344 0.08594,0 0.171875,0.1503907 0.09668,0.1503906 0.09668,0.2470703 -0.171875,1.2246093 -0.171875,1.6435547 v 0.8271484 5.2099605 q 0,1.439454 0.128906,1.847657 0.01074,0.06445 0.107422,0.128906 0.107422,0.05371 0.257813,0.09668 0.15039,0.03223 0.322265,0.0752 0.182617,0.03223 0.354492,0.05371 0.171875,0.02148 0.300782,0.03223 0.139648,0.01074 0.225586,0.01074 0.08594,0.107421 0.08594,0.386718 0,0.236328 -0.08594,0.333008 -0.34375,-0.02148 -0.88086,-0.05371 -0.537109,-0.03223 -0.945312,-0.05371 -0.408203,-0.02148 -0.848633,-0.02148 -0.429688,0 -0.837891,0.02148 -0.397461,0.02148 -0.923828,0.05371 -0.526367,0.03223 -0.870117,0.05371 -0.09668,-0.09668 -0.09668,-0.354492 0.01074,-0.268555 0.09668,-0.365234 0.354492,0 0.93457,-0.107422 0.580078,-0.118164 0.633789,-0.290039 0.118164,-0.408203 0.118164,-1.847657 V 9.7646484 q 0,-0.9882812 -0.118164,-1.2890625 Q 82.381836,8.2822266 81.984375,8.1748047 81.586914,8.0566406 81.318359,8.0458984 81.049805,8.0244141 80.845703,8.0244141 80.802734,7.9921875 80.791992,7.734375 Z m 1.675781,-4.3291016 q -0.354492,-0.3652343 -0.354492,-0.8808593 0,-0.5263672 0.354492,-0.8916016 0.365235,-0.3652344 0.891602,-0.3652344 0.526367,0 0.880859,0.3652344 0.365235,0.3652344 0.365235,0.8916016 0,0.515625 -0.365235,0.8808593 -0.354492,0.3544922 -0.880859,0.3544922 -0.526367,0 -0.891602,-0.3544922 z"/>
	<path d="m 87.291016,19.916016 q 0,-0.311524 0.193359,-0.655274 0.204102,-0.333008 0.483398,-0.612305 0.290039,-0.279296 0.676758,-0.558593 0.386719,-0.268555 0.6875,-0.451172 0.300781,-0.171875 0.601563,-0.322266 -0.34375,-0.107422 -0.6875,-0.300781 -0.34375,-0.204102 -0.655274,-0.483398 -0.311523,-0.29004 -0.504883,-0.6875 -0.193359,-0.397461 -0.193359,-0.837891 0.290039,-0.34375 0.999024,-0.891602 0.719726,-0.547851 1.149414,-0.805664 -0.923829,-0.504882 -1.503907,-1.385742 -0.569336,-0.891601 -0.569336,-1.804687 0,-0.7304691 0.322266,-1.4179691 0.333008,-0.6875 0.880859,-1.203125 0.558594,-0.515625 1.342774,-0.8271485 0.794922,-0.3115234 1.665039,-0.3115234 0.300781,0 0.580078,0.032227 0.290039,0.032226 0.569336,0.118164 0.290039,0.075195 0.418945,0.1181641 0.128907,0.042969 0.408203,0.1611328 0.290039,0.1181641 0.290039,0.1181641 0.322266,0.118164 0.580079,0.171875 L 97.689453,6.703125 q 0.24707,0.075195 0.24707,0.2470703 0,0.1074219 -0.09668,0.3222656 -0.08594,0.2041016 -0.225586,0.4189453 -0.128906,0.2148438 -0.247071,0.2792969 l -1.643554,-0.09668 q -0.107422,0 -0.107422,0.075195 0.171875,0.1718751 0.429687,0.8486329 0.268555,0.6767578 0.268555,1.4179684 0,0.655274 -0.333008,1.310547 -0.322265,0.655274 -0.870117,1.181641 -0.547851,0.515625 -1.342773,0.848633 -0.794922,0.322265 -1.665039,0.322265 -0.311524,0 -0.762696,-0.0752 -0.440429,-0.07519 -0.633789,-0.150391 -0.171875,0.09668 -0.333008,0.225586 -0.161132,0.128907 -0.300781,0.268555 -0.128906,0.139648 -0.214844,0.300781 -0.07519,0.161133 -0.07519,0.300781 0,0.257813 0.418945,0.569336 0.418946,0.311524 1.084961,0.311524 h 2.932618 q 0.977539,0 1.86914,0.354492 0.891602,0.354492 1.439453,0.966797 0.558594,0.612305 0.558594,1.289062 0,0.762696 -0.537109,1.589844 -0.526368,0.837891 -1.396485,1.525391 -0.870117,0.6875 -2.083984,1.138672 -1.213867,0.451171 -2.459961,0.461914 -0.04297,0 -0.08594,0 -0.730468,0 -1.450195,-0.182618 -0.751953,-0.193359 -1.385742,-0.558593 -0.623047,-0.365235 -1.009766,-0.966797 -0.386718,-0.601563 -0.386718,-1.332031 z m 1.976562,-0.730469 q 0,1.246094 0.891602,2.019531 0.891601,0.773438 2.449218,0.773438 0.848633,0 1.71875,-0.375977 0.88086,-0.375977 1.460938,-1.009766 0.580078,-0.623046 0.580078,-1.27832 0,-0.290039 -0.193359,-0.612305 -0.182618,-0.311523 -0.558594,-0.612304 -0.365234,-0.300782 -1.03125,-0.504883 -0.666016,-0.193359 -1.503906,-0.193359 -2.105469,0 -2.320313,0.128906 -0.558594,0.311523 -1.03125,0.773437 -0.461914,0.461914 -0.461914,0.891602 z m 0.623047,-9.163086 q 0,0.773437 0.268555,1.482422 0.268554,0.698242 0.827148,1.170898 0.569336,0.461914 1.289063,0.461914 0.49414,0 0.902343,-0.24707 0.418946,-0.257812 0.676758,-0.666016 0.257813,-0.408203 0.397461,-0.902343 0.150391,-0.504883 0.150391,-1.03125 0,-0.8056644 -0.257813,-1.5146488 Q 93.897461,8.0673828 93.349609,7.5839844 92.8125,7.1005859 92.082031,7.1005859 q -0.676758,0 -1.192383,0.4404297 -0.515625,0.4404297 -0.762695,1.0957032 -0.236328,0.6445312 -0.236328,1.3857422 z"/>
	<path d="m 98.90332,19.916016 q 0,-0.311524 0.19336,-0.655274 0.204101,-0.333008 0.483398,-0.612305 0.290039,-0.279296 0.676762,-0.558593 0.38671,-0.268555 0.6875,-0.451172 0.30078,-0.171875 0.60156,-0.322266 -0.34375,-0.107422 -0.6875,-0.300781 -0.34375,-0.204102 -0.65527,-0.483398 -0.311528,-0.29004 -0.504888,-0.6875 -0.193359,-0.397461 -0.193359,-0.837891 0.290039,-0.34375 0.999027,-0.891602 0.71972,-0.547851 1.14941,-0.805664 -0.92383,-0.504882 -1.50391,-1.385742 -0.569332,-0.891601 -0.569332,-1.804687 0,-0.7304691 0.322266,-1.4179691 0.333006,-0.6875 0.880856,-1.203125 0.5586,-0.515625 1.34278,-0.8271485 0.79492,-0.3115234 1.66504,-0.3115234 0.30078,0 0.58007,0.032227 0.29004,0.032226 0.56934,0.118164 0.29004,0.075195 0.41895,0.1181641 0.1289,0.042969 0.4082,0.1611328 0.29004,0.1181641 0.29004,0.1181641 0.32226,0.118164 0.58008,0.171875 l 2.66406,-0.3759766 q 0.24707,0.075195 0.24707,0.2470703 0,0.1074219 -0.0967,0.3222656 -0.0859,0.2041016 -0.22559,0.4189453 -0.1289,0.2148438 -0.24707,0.2792969 l -1.64355,-0.09668 q -0.10742,0 -0.10742,0.075195 0.17187,0.1718751 0.42968,0.8486329 0.26856,0.6767578 0.26856,1.4179684 0,0.655274 -0.33301,1.310547 -0.32227,0.655274 -0.87012,1.181641 -0.54785,0.515625 -1.34277,0.848633 -0.79492,0.322265 -1.66504,0.322265 -0.31152,0 -0.76269,-0.0752 -0.44043,-0.07519 -0.63379,-0.150391 -0.17188,0.09668 -0.33301,0.225586 -0.16113,0.128907 -0.30078,0.268555 -0.12891,0.139648 -0.21485,0.300781 -0.0752,0.161133 -0.0752,0.300781 0,0.257813 0.41894,0.569336 0.41895,0.311524 1.08496,0.311524 h 2.93262 q 0.97754,0 1.86914,0.354492 0.8916,0.354492 1.43946,0.966797 0.55859,0.612305 0.55859,1.289062 0,0.762696 -0.53711,1.589844 -0.52637,0.837891 -1.39648,1.525391 -0.87012,0.6875 -2.08399,1.138672 -1.21387,0.451171 -2.45996,0.461914 -0.043,0 -0.0859,0 -0.73047,0 -1.45019,-0.182618 -0.75196,-0.193359 -1.38575,-0.558593 -0.623042,-0.365235 -1.009761,-0.966797 -0.386719,-0.601563 -0.386719,-1.332031 z m 1.97656,-0.730469 q 0,1.246094 0.8916,2.019531 0.89161,0.773438 2.44922,0.773438 0.84864,0 1.71875,-0.375977 0.88086,-0.375977 1.46094,-1.009766 0.58008,-0.623046 0.58008,-1.27832 0,-0.290039 -0.19336,-0.612305 -0.18262,-0.311523 -0.55859,-0.612304 -0.36524,-0.300782 -1.03125,-0.504883 -0.66602,-0.193359 -1.50391,-0.193359 -2.10547,0 -2.32031,0.128906 -0.5586,0.311523 -1.03125,0.773437 -0.46192,0.461914 -0.46192,0.891602 z m 0.62305,-9.163086 q 0,0.773437 0.26855,1.482422 0.26856,0.698242 0.82715,1.170898 0.56934,0.461914 1.28907,0.461914 0.49414,0 0.90234,-0.24707 0.41894,-0.257812 0.67676,-0.666016 0.25781,-0.408203 0.39746,-0.902343 0.15039,-0.504883 0.15039,-1.03125 0,-0.8056644 -0.25781,-1.5146488 -0.24707,-0.7089844 -0.79493,-1.1923828 -0.53711,-0.4833985 -1.26757,-0.4833985 -0.67676,0 -1.19239,0.4404297 -0.51562,0.4404297 -0.76269,1.0957032 -0.23633,0.6445312 -0.23633,1.3857422 z"/>
	<path d="m 111.1709,13.0625 q 0,-1.224609 0.2793,-2.449219 0.27929,-1.2353513 0.80566,-2.363281 0.53711,-1.1279297 1.34277,-2.1054688 0.81641,-0.977539 1.80469,-1.6972656 0.99902,-0.7304687 2.27734,-1.1386718 1.27832,-0.4189454 2.68555,-0.4189454 1.02051,0 1.93359,0.225586 0.92383,0.2148437 1.6543,0.6230469 0.73047,0.3974609 1.34278,0.9560546 0.6123,0.5478516 1.05273,1.2246094 0.44043,0.6660156 0.74121,1.4287109 0.30078,0.7626954 0.45117,1.5791016 0.15039,0.8056641 0.15039,1.6435552 0,1.407226 -0.39746,2.685546 -0.39746,1.267579 -1.07422,2.202149 -0.67675,0.923828 -1.63281,1.471679 -0.95605,0.53711 -2.03027,0.53711 -0.9668,0 -1.52539,-0.515625 -0.54785,-0.526367 -0.54785,-1.62207 0,-0.225586 0.0537,-0.612305 0.0645,-0.386719 0.1289,-0.537109 -0.16113,0.311523 -0.4082,0.698242 -0.24707,0.375976 -0.62305,0.83789 -0.37597,0.461914 -0.76269,0.837891 -0.38672,0.365234 -0.84864,0.623047 -0.46191,0.24707 -0.88086,0.24707 -0.74121,0 -1.28906,-0.483398 -0.54785,-0.483399 -0.8164,-1.235352 -0.25782,-0.751953 -0.25782,-1.654297 0,-0.880859 0.29004,-1.815429 0.30078,-0.934571 0.79492,-1.761719 0.50489,-0.8378908 1.20313,-1.5791017 0.69824,-0.741211 1.47168,-1.2783204 0.78418,-0.5371093 1.6543,-0.8486328 0.88086,-0.3115234 1.71875,-0.3115234 0.93457,0 1.81543,0.3222656 l -1.52539,7.8740237 q -0.0752,0.300781 -0.0752,0.623047 0,0.569336 0.33301,0.848632 0.33301,0.268555 0.87011,0.268555 0.58008,0 1.18165,-0.461914 0.6123,-0.472656 1.08496,-1.235351 0.48339,-0.773438 0.78418,-1.847657 0.31152,-1.074218 0.31152,-2.202148 0,-1.0312502 -0.23633,-1.9980471 -0.23633,-0.9667968 -0.75195,-1.836914 -0.50488,-0.8701172 -1.23535,-1.5146485 -0.73047,-0.6445312 -1.79395,-1.0205078 -1.05273,-0.3867187 -2.30957,-0.3867187 -1.23535,0 -2.37402,0.3759765 -1.12793,0.3759766 -2.01953,1.0419922 -0.88086,0.6552735 -1.61133,1.546875 -0.73047,0.8808594 -1.21387,1.9013672 -0.47266,1.0205078 -0.73047,2.1269532 -0.25781,1.095703 -0.25781,2.180664 0,1.052734 0.25781,2.041016 0.26856,0.977539 0.73047,1.750976 0.46192,0.773438 1.05274,1.375 0.59082,0.612305 1.27832,1.009766 0.60156,0.354492 1.00976,0.483398 0.4082,0.139649 0.85938,0.214844 0,0.09668 -0.16114,0.204102 -0.16113,0.107421 -0.37597,0.171875 -0.21485,0.0752 -0.3545,0.0752 -0.59082,0 -0.97753,-0.150391 -0.85938,-0.322265 -1.64356,-0.999023 -0.77344,-0.666016 -1.375,-1.589844 -0.59082,-0.913086 -0.94531,-2.105469 Q 111.1709,14.34082 111.1709,13.0625 Z m 5.45703,0.472656 q 0,2.438477 1.26758,2.438477 0.60156,0 1.34277,-0.870117 0.74121,-0.88086 1.32129,-2.15918 0.59082,-1.289063 0.82715,-2.481445 l 0.49414,-2.5351566 q -0.29004,-0.3222657 -1.02051,-0.3222657 -0.55859,0 -1.1709,0.3330079 -0.6123,0.3330078 -1.14941,0.9345703 -0.53711,0.5908203 -0.97754,1.3320311 -0.42969,0.741211 -0.6875,1.62207 -0.24707,0.870118 -0.24707,1.708008 z"/>
	<path d="m 129.15332,19.916016 q 0,-0.311524 0.19336,-0.655274 0.2041,-0.333008 0.4834,-0.612305 0.29004,-0.279296 0.67676,-0.558593 0.38671,-0.268555 0.6875,-0.451172 0.30078,-0.171875 0.60156,-0.322266 -0.34375,-0.107422 -0.6875,-0.300781 -0.34375,-0.204102 -0.65528,-0.483398 -0.31152,-0.29004 -0.50488,-0.6875 -0.19336,-0.397461 -0.19336,-0.837891 0.29004,-0.34375 0.99903,-0.891602 0.71972,-0.547851 1.14941,-0.805664 -0.92383,-0.504882 -1.50391,-1.385742 -0.56933,-0.891601 -0.56933,-1.804687 0,-0.7304691 0.32226,-1.4179691 0.33301,-0.6875 0.88086,-1.203125 0.5586,-0.515625 1.34278,-0.8271485 0.79492,-0.3115234 1.66504,-0.3115234 0.30078,0 0.58007,0.032227 0.29004,0.032226 0.56934,0.118164 0.29004,0.075195 0.41894,0.1181641 0.12891,0.042969 0.40821,0.1611328 0.29004,0.1181641 0.29004,0.1181641 0.32226,0.118164 0.58008,0.171875 l 2.66406,-0.3759766 q 0.24707,0.075195 0.24707,0.2470703 0,0.1074219 -0.0967,0.3222656 -0.0859,0.2041016 -0.22559,0.4189453 -0.1289,0.2148438 -0.24707,0.2792969 l -1.64355,-0.09668 q -0.10742,0 -0.10742,0.075195 0.17187,0.1718751 0.42968,0.8486329 0.26856,0.6767578 0.26856,1.4179684 0,0.655274 -0.33301,1.310547 -0.32227,0.655274 -0.87012,1.181641 -0.54785,0.515625 -1.34277,0.848633 -0.79492,0.322265 -1.66504,0.322265 -0.31152,0 -0.7627,-0.0752 -0.44042,-0.07519 -0.63378,-0.150391 -0.17188,0.09668 -0.33301,0.225586 -0.16113,0.128907 -0.30078,0.268555 -0.12891,0.139648 -0.21485,0.300781 -0.0752,0.161133 -0.0752,0.300781 0,0.257813 0.41894,0.569336 0.41895,0.311524 1.08496,0.311524 h 2.93262 q 0.97754,0 1.86914,0.354492 0.8916,0.354492 1.43945,0.966797 0.5586,0.612305 0.5586,1.289062 0,0.762696 -0.53711,1.589844 -0.52637,0.837891 -1.39649,1.525391 -0.87011,0.6875 -2.08398,1.138672 -1.21387,0.451171 -2.45996,0.461914 -0.043,0 -0.0859,0 -0.73047,0 -1.45019,-0.182618 -0.75196,-0.193359 -1.38575,-0.558593 -0.62304,-0.365235 -1.00976,-0.966797 -0.38672,-0.601563 -0.38672,-1.332031 z m 1.97656,-0.730469 q 0,1.246094 0.8916,2.019531 0.89161,0.773438 2.44922,0.773438 0.84864,0 1.71875,-0.375977 0.88086,-0.375977 1.46094,-1.009766 0.58008,-0.623046 0.58008,-1.27832 0,-0.290039 -0.19336,-0.612305 -0.18262,-0.311523 -0.55859,-0.612304 -0.36524,-0.300782 -1.03125,-0.504883 -0.66602,-0.193359 -1.50391,-0.193359 -2.10547,0 -2.32031,0.128906 -0.5586,0.311523 -1.03125,0.773437 -0.46192,0.461914 -0.46192,0.891602 z m 0.62305,-9.163086 q 0,0.773437 0.26855,1.482422 0.26856,0.698242 0.82715,1.170898 0.56934,0.461914 1.28907,0.461914 0.49414,0 0.90234,-0.24707 0.41894,-0.257812 0.67676,-0.666016 0.25781,-0.408203 0.39746,-0.902343 0.15039,-0.504883 0.15039,-1.03125 0,-0.8056644 -0.25781,-1.5146488 -0.24707,-0.7089844 -0.79493,-1.1923828 -0.53711,-0.4833985 -1.26757,-0.4833985 -0.67676,0 -1.19239,0.4404297 -0.51562,0.4404297 -0.76269,1.0957032 -0.23633,0.6445312 -0.23633,1.3857422 z"/>
	<path d="m 140.99121,7.734375 q 0,-0.032227 0,-0.075195 0,-0.1933594 0.0537,-0.2792969 2.12695,-0.3007812 3.56641,-1.0527344 0.0859,0 0.17187,0.1503907 0.0967,0.1503906 0.0967,0.2470703 -0.15039,1.0527343 -0.15039,1.2998047 0,0.09668 0.0537,0.09668 0.0215,0 0.0752,-0.042969 0.0322,-0.032227 0.0859,-0.085937 0.36523,-0.3007813 0.62304,-0.4941406 0.25782,-0.2041016 0.71973,-0.5048828 0.46191,-0.3007813 0.93457,-0.4511719 0.47266,-0.1611328 0.92383,-0.1611328 1.13867,0 1.83691,0.4941406 0.70899,0.4833984 1.00977,1.5683594 2.2666,-2.0625 3.66308,-2.0625 0.79493,0 1.36426,0.2148437 0.56934,0.2041016 0.92383,0.5908203 0.36523,0.3867188 0.56934,1.0634766 0.2041,0.6767578 0.27929,1.4716797 0.0752,0.7949223 0.0752,1.9443363 v 2.739257 q 0,1.439454 0.11816,1.847657 0.0537,0.171875 0.63379,0.290039 0.58008,0.107422 0.94531,0.107422 0.0859,0.107421 0.0859,0.386718 0,0.236328 -0.0859,0.333008 -0.34375,-0.02148 -0.88086,-0.05371 -0.53711,-0.03223 -0.94531,-0.05371 -0.4082,-0.02148 -0.84863,-0.02148 -0.33301,0 -0.6875,0.02148 -0.34375,0.01074 -0.60156,0.03223 -0.25782,0.01074 -0.65528,0.03223 -0.38672,0.03223 -0.69824,0.04297 -0.0859,-0.09668 -0.0859,-0.354492 0.0107,-0.268555 0.0859,-0.365234 0.36523,0 0.94531,-0.107422 0.58008,-0.118164 0.63379,-0.290039 0.11817,-0.408203 0.11817,-1.847657 v -2.664062 q 0,-0.805664 -0.0537,-1.364258 -0.043,-0.5585936 -0.19335,-1.0742186 -0.13965,-0.515625 -0.39747,-0.8164063 -0.25781,-0.3115234 -0.67675,-0.4833984 -0.41895,-0.1826172 -1.02051,-0.1826172 -0.41895,0 -0.8916,0.2041016 -0.46192,0.1933593 -0.79492,0.4511718 -0.32227,0.2470704 -0.53711,0.4726563 -0.21485,0.2255859 -0.21485,0.3007812 0,0.010742 0.0107,0.1503907 0.0108,0.1396484 0.0108,0.171875 0.0967,0.6337889 0.0967,1.7724609 v 3.061523 q 0,1.439454 0.1289,1.847657 0.0322,0.118164 0.36524,0.214843 0.34375,0.09668 0.67675,0.139649 0.33301,0.04297 0.52637,0.04297 0.0752,0.09668 0.0859,0.365234 0.0107,0.257812 -0.0859,0.354492 -0.30078,-0.01074 -0.69824,-0.04297 -0.39746,-0.02148 -0.66602,-0.03223 -0.25781,-0.02148 -0.6123,-0.03223 -0.35449,-0.02148 -0.6875,-0.02148 -0.42969,0 -0.83789,0.02148 -0.4082,0.02148 -0.93457,0.05371 -0.52637,0.03223 -0.87012,0.05371 -0.0859,-0.09668 -0.0859,-0.354492 0.0108,-0.268555 0.0859,-0.365234 0.35449,0 0.93457,-0.107422 0.59082,-0.118164 0.63379,-0.290039 0.12891,-0.408203 0.12891,-1.847657 v -2.545898 q 0,-1.160156 -0.11817,-1.9121094 -0.10742,-0.7519531 -0.38672,-1.2353515 -0.27929,-0.4941407 -0.71972,-0.6875 -0.44043,-0.2041016 -1.11719,-0.2041016 -0.39746,0 -0.83789,0.171875 -0.42969,0.171875 -0.75195,0.3974609 -0.31153,0.225586 -0.52637,0.4511719 -0.2041,0.225586 -0.2041,0.3544922 v 5.2099605 q 0,1.439454 0.1289,1.847657 0.0108,0.06445 0.10743,0.128906 0.10742,0.05371 0.25781,0.09668 0.15039,0.03223 0.32226,0.0752 0.18262,0.03223 0.3545,0.05371 0.17187,0.02148 0.30078,0.03223 0.13965,0.01074 0.22558,0.01074 0.0752,0.09668 0.0752,0.365234 0.0107,0.257812 -0.0752,0.354492 -0.34375,-0.02148 -0.88086,-0.05371 -0.53711,-0.03223 -0.94531,-0.05371 -0.4082,-0.02148 -0.84863,-0.02148 -0.42969,0 -0.83789,0.02148 -0.39746,0.02148 -0.92383,0.05371 -0.52637,0.03223 -0.87012,0.05371 -0.0967,-0.09668 -0.0967,-0.354492 0.0108,-0.268555 0.0967,-0.365234 0.35449,0 0.93457,-0.107422 0.58008,-0.118164 0.63379,-0.290039 0.11817,-0.408203 0.11817,-1.847657 V 9.8720703 q 0,-1.0957031 -0.11817,-1.3964844 -0.0859,-0.1933593 -0.4834,-0.3007812 -0.39746,-0.1181641 -0.66601,-0.1289063 -0.26856,-0.021484 -0.47266,-0.021484 -0.043,-0.032227 -0.0537,-0.2900391 z"/>
	<path d="m 160.7998,14.630859 q 0,-0.708984 0.38672,-1.267578 0.39746,-0.558593 0.85938,-0.730468 0.39746,-0.139649 1.14941,-0.397461 0.75196,-0.268555 1.29981,-0.451172 0.54785,-0.19336 1.0957,-0.397461 0.55859,-0.214844 0.81641,-0.322266 0.0967,-0.04297 0.15039,-0.0752 0.0537,-0.03223 0.0859,-0.09668 0.043,-0.0752 0.0537,-0.171875 0.0107,-0.107422 0.0107,-0.279297 V 9.7646484 q 0,-0.5585937 -0.2793,-1.1064453 -0.2793,-0.5478515 -0.78418,-0.9130859 -0.49414,-0.3652344 -1.08496,-0.3652344 -0.62305,0 -0.92383,0.3867188 -0.30078,0.3759765 -0.44043,1.149414 -0.11816,0.6230469 -0.4082,0.913086 -0.29004,0.2900394 -0.7627,0.2900394 -0.37597,0 -0.6123,-0.322266 -0.23633,-0.3222656 -0.23633,-0.7304687 0,-0.053711 0.0215,-0.1611329 0.0215,-0.118164 0.0644,-0.2470703 0.043,-0.1289062 0.0859,-0.1826172 0.32226,-0.3007812 0.78418,-0.6230468 0.47265,-0.3330079 1.07421,-0.6660157 0.61231,-0.3330078 1.32129,-0.5478515 0.70899,-0.2148438 1.35352,-0.2148438 1.08496,0 1.90137,0.9990235 0.8164,0.9990234 0.8164,2.4169922 v 5.1347652 q 0,1.170899 0.77344,1.170899 0.10742,0 0.21484,-0.02148 0.10743,-0.02148 0.18262,-0.04297 0.0752,-0.03223 0.15039,-0.0752 0.0859,-0.04297 0.12891,-0.0752 0.043,-0.03223 0.0859,-0.06445 0.0537,-0.03223 0.0537,-0.04297 0.10742,0 0.10742,0.204102 0,0.257812 -0.12891,0.472656 -0.29004,0.257812 -0.90234,0.601562 -0.61231,0.34375 -0.9668,0.34375 -0.51562,0 -0.95605,-0.504882 -0.44043,-0.504883 -0.5586,-1.117188 -0.36523,0.365235 -1.43945,1.020508 -1.06348,0.655273 -1.63281,0.655273 -1.23535,0 -2.07324,-0.827148 -0.8379,-0.827148 -0.8379,-2.041016 z m 2.0625,-0.225586 q 0,0.451172 0.21485,0.859375 0.22558,0.397461 0.6123,0.644532 0.38672,0.236328 0.84864,0.236328 0.31152,0 0.69824,-0.118164 0.39746,-0.128906 0.70898,-0.290039 0.32227,-0.171875 0.53711,-0.34375 0.22559,-0.171875 0.22559,-0.268555 v -3.383789 q -1.9336,0.569336 -2.32031,0.719727 -0.70899,0.268554 -1.11719,0.762695 -0.40821,0.49414 -0.40821,1.18164 z"/>
	<path d="m 171.40234,7.734375 q 0,-0.032227 0,-0.075195 0,-0.1933594 0.0537,-0.2792969 2.12696,-0.3007812 3.56641,-1.0527344 0.0859,0 0.17188,0.1503907 0.0967,0.1503906 0.0967,0.2470703 -0.17188,1.2246093 -0.17188,1.6435547 v 0.8271484 5.2099605 q 0,1.439454 0.12891,1.847657 0.0107,0.06445 0.10742,0.128906 0.10742,0.05371 0.25781,0.09668 0.15039,0.03223 0.32227,0.0752 0.18261,0.03223 0.35449,0.05371 0.17187,0.02148 0.30078,0.03223 0.13965,0.01074 0.22559,0.01074 0.0859,0.107421 0.0859,0.386718 0,0.236328 -0.0859,0.333008 -0.34375,-0.02148 -0.88086,-0.05371 -0.53711,-0.03223 -0.94532,-0.05371 -0.4082,-0.02148 -0.84863,-0.02148 -0.42969,0 -0.83789,0.02148 -0.39746,0.02148 -0.92383,0.05371 -0.52636,0.03223 -0.87011,0.05371 -0.0967,-0.09668 -0.0967,-0.354492 0.0107,-0.268555 0.0967,-0.365234 0.35449,0 0.93457,-0.107422 0.58007,-0.118164 0.63378,-0.290039 0.11817,-0.408203 0.11817,-1.847657 V 9.7646484 q 0,-0.9882812 -0.11817,-1.2890625 -0.0859,-0.1933593 -0.48339,-0.3007812 -0.39746,-0.1181641 -0.66602,-0.1289063 -0.26855,-0.021484 -0.47266,-0.021484 -0.043,-0.032227 -0.0537,-0.2900391 z m 1.67578,-4.3291016 q -0.35449,-0.3652343 -0.35449,-0.8808593 0,-0.5263672 0.35449,-0.8916016 0.36524,-0.3652344 0.89161,-0.3652344 0.52636,0 0.88086,0.3652344 0.36523,0.3652344 0.36523,0.8916016 0,0.515625 -0.36523,0.8808593 -0.3545,0.3544922 -0.88086,0.3544922 -0.52637,0 -0.89161,-0.3544922 z"/>
	<path d="m 177.8584,16.650391 q 0.35449,0 0.93457,-0.107422 0.58008,-0.118164 0.63379,-0.290039 0.11816,-0.408203 0.11816,-1.847657 V 3.3837891 q 0,-0.9882813 -0.11816,-1.2890625 -0.19336,-0.4511719 -1.52539,-0.4511719 -0.0107,0 -0.0215,-0.1503906 -0.0107,-0.1611329 -0.0107,-0.3222657 0.0107,-0.1611328 0.0645,-0.17187496 Q 179.6416,0.82714844 181.46777,0 q 0.0967,0 0.18262,0.13964844 0.0967,0.12890625 0.0967,0.2578125 -0.2793,0.80566406 -0.2793,2.16992186 V 14.405273 q 0,1.439454 0.12891,1.847657 0.0215,0.08594 0.22559,0.171875 0.2041,0.08594 0.47265,0.128906 0.26856,0.04297 0.50488,0.0752 0.23633,0.02148 0.36524,0.02148 0.0752,0.107421 0.0752,0.365234 0,0.01074 0.0108,0.02148 0,0.236328 -0.0859,0.333008 -0.34375,-0.02148 -0.88086,-0.05371 -0.53711,-0.03223 -0.94531,-0.05371 -0.40821,-0.02148 -0.84864,-0.02148 -0.42968,0 -0.83789,0.02148 -0.39746,0.02148 -0.92382,0.05371 -0.52637,0.03223 -0.87012,0.05371 -0.0967,-0.09668 -0.0967,-0.333008 0,-0.279297 0.0967,-0.386718 z"/>
	<path d="m 184.87305,16.177734 q 0,-0.365234 0.19336,-0.676757 0.19336,-0.311524 0.51562,-0.494141 0.32227,-0.182617 0.6875,-0.182617 0.55859,0 0.95606,0.397461 0.39746,0.386718 0.39746,0.956054 0,0.558594 -0.39746,0.977539 -0.39747,0.418946 -0.95606,0.418946 -0.55859,0 -0.97754,-0.418946 -0.41894,-0.418945 -0.41894,-0.977539 z"/>
	<path d="m 189.80371,12.460938 q 0,-0.88086 0.26856,-1.708008 0.26855,-0.8378909 0.73046,-1.4931644 0.46192,-0.6552734 1.06348,-1.203125 0.60156,-0.5478515 1.26758,-0.9130859 0.67676,-0.3652344 1.375,-0.5585938 0.70898,-0.2041015 1.35351,-0.2041015 1.35352,0 2.24512,0.6015625 0.0859,0.075195 0.16113,0.3007812 0.0859,0.2148438 0.0859,0.3867188 0,0.6230469 -0.29004,0.9130859 -0.27929,0.2900391 -0.65527,0.2900391 -0.24707,0 -0.50488,-0.1611328 -0.24707,-0.1611328 -0.52637,-0.4189453 -0.2793,-0.2578125 -0.4082,-0.3437501 -0.42969,-0.2792968 -0.69825,-0.3759765 -0.26855,-0.09668 -0.73046,-0.09668 -0.39747,0 -0.79493,0.1826172 -0.39746,0.171875 -0.76269,0.5371094 -0.35449,0.3544922 -0.63379,0.8486328 -0.26856,0.4833984 -0.44043,1.1601561 -0.16113,0.676758 -0.16113,1.428711 0,1.063477 0.31152,1.890625 0.32227,0.816406 0.87012,1.321289 0.55859,0.494141 1.27832,0.751953 0.71972,0.247071 1.5791,0.247071 0.39746,0 0.77344,-0.09668 0.37597,-0.09668 0.65527,-0.236328 0.2793,-0.139649 0.53711,-0.322266 0.26855,-0.193359 0.4082,-0.333008 0.15039,-0.139648 0.26856,-0.279297 0.0215,0 0.0644,0.04297 0.043,0.04297 0.0859,0.128906 0.0537,0.08594 0.0537,0.182618 0,0.193359 -0.15039,0.440429 -0.2041,0.322266 -0.50488,0.644532 -0.29004,0.322265 -0.74122,0.676757 -0.45117,0.354493 -1.08496,0.580078 -0.62304,0.225586 -1.31054,0.225586 -0.88086,0 -1.67578,-0.268554 -0.79493,-0.279297 -1.40723,-0.762696 -0.60156,-0.483398 -1.05274,-1.117187 -0.44043,-0.633789 -0.67675,-1.375 -0.22559,-0.741211 -0.22559,-1.514648 z"/>
	<path d="m 200.39551,11.988281 q 0,-1.192383 0.4082,-2.2343747 0.4082,-1.0419922 1.10645,-1.7832032 0.70898,-0.7519531 1.69726,-1.1816406 0.98828,-0.4296875 2.09473,-0.4296875 1.61133,0 2.83594,0.7089844 1.22461,0.7089843 1.85839,1.9335937 0.64454,1.2246099 0.64454,2.7822269 0,1.192383 -0.40821,2.245117 -0.4082,1.052734 -1.10644,1.81543 -0.69825,0.751953 -1.68653,1.192382 -0.97754,0.429688 -2.08398,0.429688 -1.21387,0 -2.22363,-0.418945 -1.00977,-0.418946 -1.69727,-1.149414 -0.67676,-0.730469 -1.06348,-1.740235 -0.37597,-1.009765 -0.37597,-2.169922 z m 2.14844,-0.504883 q 0,0.741211 0.13964,1.47168 0.13965,0.730469 0.42969,1.396485 0.29004,0.666015 0.69824,1.18164 0.40821,0.504883 0.97754,0.816406 0.56934,0.300782 1.21387,0.300782 0.51562,0 0.94531,-0.171875 0.44043,-0.171875 0.75196,-0.472657 0.31152,-0.300781 0.5371,-0.698242 0.23633,-0.408203 0.37598,-0.891601 0.13965,-0.494141 0.2041,-0.999024 0.0752,-0.515625 0.0752,-1.052734 0,-0.923828 -0.23633,-1.836914 -0.22559,-0.9130862 -0.65527,-1.6650393 -0.42969,-0.7519531 -1.10645,-1.2138672 -0.66601,-0.4726563 -1.46094,-0.4726563 -0.62304,0 -1.11718,0.2470704 -0.49414,0.2470703 -0.82715,0.6552734 -0.32227,0.4082031 -0.54785,0.9667969 -0.21485,0.5585937 -0.31153,1.1708981 -0.0859,0.601563 -0.0859,1.267578 z"/>
	<path d="m 212.8457,7.734375 q 0,-0.032227 0,-0.075195 0,-0.1933594 0.0537,-0.2792969 2.12696,-0.3007812 3.56641,-1.0527344 0.0859,0 0.17188,0.1503907 0.0967,0.1503906 0.0967,0.2470703 -0.15039,1.0527343 -0.15039,1.2998047 0,0.09668 0.0537,0.09668 0.0215,0 0.0752,-0.042969 0.0322,-0.032227 0.0859,-0.085937 0.36523,-0.3007813 0.62304,-0.4941406 0.25782,-0.2041016 0.71973,-0.5048828 0.46192,-0.3007813 0.93457,-0.4511719 0.47266,-0.1611328 0.92383,-0.1611328 1.13867,0 1.83691,0.4941406 0.70899,0.4833984 1.00977,1.5683594 2.2666,-2.0625 3.66309,-2.0625 0.79492,0 1.36425,0.2148437 0.56934,0.2041016 0.92383,0.5908203 0.36524,0.3867188 0.56934,1.0634766 0.2041,0.6767578 0.27929,1.4716797 0.0752,0.7949223 0.0752,1.9443363 v 2.739257 q 0,1.439454 0.11816,1.847657 0.0537,0.171875 0.63379,0.290039 0.58008,0.107422 0.94532,0.107422 0.0859,0.107421 0.0859,0.386718 0,0.236328 -0.0859,0.333008 -0.34375,-0.02148 -0.88086,-0.05371 -0.53711,-0.03223 -0.94532,-0.05371 -0.4082,-0.02148 -0.84863,-0.02148 -0.33301,0 -0.6875,0.02148 -0.34375,0.01074 -0.60156,0.03223 -0.25781,0.01074 -0.65528,0.03223 -0.38671,0.03223 -0.69824,0.04297 -0.0859,-0.09668 -0.0859,-0.354492 0.0107,-0.268555 0.0859,-0.365234 0.36524,0 0.94531,-0.107422 0.58008,-0.118164 0.63379,-0.290039 0.11817,-0.408203 0.11817,-1.847657 v -2.664062 q 0,-0.805664 -0.0537,-1.364258 -0.043,-0.5585936 -0.19336,-1.0742186 -0.13965,-0.515625 -0.39746,-0.8164063 -0.25782,-0.3115234 -0.67676,-0.4833984 -0.41895,-0.1826172 -1.02051,-0.1826172 -0.41894,0 -0.8916,0.2041016 -0.46191,0.1933593 -0.79492,0.4511718 -0.32227,0.2470704 -0.53711,0.4726563 -0.21485,0.2255859 -0.21485,0.3007812 0,0.010742 0.0108,0.1503907 0.0107,0.1396484 0.0107,0.171875 0.0967,0.6337889 0.0967,1.7724609 v 3.061523 q 0,1.439454 0.1289,1.847657 0.0322,0.118164 0.36524,0.214843 0.34375,0.09668 0.67676,0.139649 0.333,0.04297 0.52636,0.04297 0.0752,0.09668 0.0859,0.365234 0.0107,0.257812 -0.0859,0.354492 -0.30078,-0.01074 -0.69824,-0.04297 -0.39746,-0.02148 -0.66601,-0.03223 -0.25782,-0.02148 -0.61231,-0.03223 -0.35449,-0.02148 -0.6875,-0.02148 -0.42969,0 -0.83789,0.02148 -0.4082,0.02148 -0.93457,0.05371 -0.52637,0.03223 -0.87012,0.05371 -0.0859,-0.09668 -0.0859,-0.354492 0.0107,-0.268555 0.0859,-0.365234 0.3545,0 0.93457,-0.107422 0.59082,-0.118164 0.63379,-0.290039 0.12891,-0.408203 0.12891,-1.847657 v -2.545898 q 0,-1.160156 -0.11816,-1.9121094 -0.10743,-0.7519531 -0.38672,-1.2353515 -0.2793,-0.4941407 -0.71973,-0.6875 -0.44043,-0.2041016 -1.11719,-0.2041016 -0.39746,0 -0.83789,0.171875 -0.42969,0.171875 -0.75195,0.3974609 -0.31152,0.225586 -0.52637,0.4511719 -0.2041,0.225586 -0.2041,0.3544922 v 5.2099605 q 0,1.439454 0.12891,1.847657 0.0107,0.06445 0.10742,0.128906 0.10742,0.05371 0.25781,0.09668 0.15039,0.03223 0.32227,0.0752 0.18261,0.03223 0.35449,0.05371 0.17187,0.02148 0.30078,0.03223 0.13965,0.01074 0.22559,0.01074 0.0752,0.09668 0.0752,0.365234 0.0107,0.257812 -0.0752,0.354492 -0.34375,-0.02148 -0.88086,-0.05371 -0.53711,-0.03223 -0.94532,-0.05371 -0.4082,-0.02148 -0.84863,-0.02148 -0.42969,0 -0.83789,0.02148 -0.39746,0.02148 -0.92383,0.05371 -0.52637,0.03223 -0.87012,0.05371 -0.0967,-0.09668 -0.0967,-0.354492 0.0107,-0.268555 0.0967,-0.365234 0.3545,0 0.93458,-0.107422 0.58007,-0.118164 0.63378,-0.290039 0.11817,-0.408203 0.11817,-1.847657 V 9.8720703 q 0,-1.0957031 -0.11817,-1.3964844 -0.0859,-0.1933593 -0.48339,-0.3007812 -0.39747,-0.1181641 -0.66602,-0.1289063 -0.26855,-0.021484 -0.47266,-0.021484 -0.043,-0.032227 -0.0537,-0.2900391 z"/>
</svg>
