<?xml version="1.0" encoding="utf-8"?>
<svg xmlns="http://www.w3.org/2000/svg" height="22.977539" version="1.1" width="248.48828" viewBox="0 0 248.48828 22.977539">
	<path d="M 0,12.310547 Q 0,11.494141 0.20410156,10.709961 0.41894531,9.9257813 0.78417969,9.2919922 1.1494141,8.6474609 1.6328125,8.0996094 2.1162109,7.5410156 2.6533203,7.1757812 3.2011719,6.7998047 3.78125,6.5957031 4.3613281,6.3808594 4.9091797,6.3808594 q 0.6123047,0 1.1386719,0.1396484 Q 6.5849609,6.6494141 6.9609375,6.875 7.3369141,7.1005859 7.6269531,7.4013672 7.9277344,7.7021484 8.1103516,8.0136719 8.3037109,8.3251953 8.421875,8.6582031 8.5507813,8.9912109 8.59375,9.2705078 q 0.053711,0.2685547 0.053711,0.4941406 0,0.5800786 -0.1289062,0.8701176 -0.1289063,0.290039 -0.4726563,0.300781 -0.5048828,0.03223 -3.2333984,0.107422 -2.7177734,0.0752 -3.0400391,0.0752 v 0.171875 q 0,0.891602 0.2148438,1.654297 0.2148437,0.751953 0.5908203,1.299805 0.3759766,0.537109 0.8916016,0.913086 0.515625,0.375976 1.1064453,0.558593 0.6015625,0.182618 1.2568359,0.182618 0.4726563,0 0.9453125,-0.139649 0.4726563,-0.150391 0.8271484,-0.375976 0.3544922,-0.236329 0.5800782,-0.429688 0.2363281,-0.204102 0.3867187,-0.375977 0.010742,0 0.053711,0.04297 0.053711,0.04297 0.09668,0.128906 0.042969,0.08594 0.042969,0.182618 0,0.193359 -0.1396484,0.440429 -0.2041016,0.322266 -0.5048828,0.644532 -0.3007813,0.322265 -0.7519532,0.676757 -0.4404297,0.354493 -1.0742187,0.580078 -0.6230469,0.225586 -1.3105469,0.225586 -1.4501953,0 -2.5996094,-0.676757 Q 1.2460937,16.134766 0.62304687,14.953125 0,13.771484 0,12.310547 Z m 1.890625,-2.116211 h 4.0605469 q 0.5800781,0 0.5800781,-0.5800782 0,-0.2255859 -0.064453,-0.515625 Q 6.4023437,8.8085938 6.2412109,8.4863281 6.0908203,8.1533203 5.8652344,7.8955078 5.6396484,7.6269531 5.2744141,7.4550781 4.9199219,7.2724609 4.4794922,7.2724609 q -0.4189453,0 -0.7949219,0.1611328 Q 3.3085938,7.5947266 3.0400391,7.8525391 2.7822266,8.1103516 2.5673828,8.421875 2.3632813,8.7333984 2.234375,9.0449219 2.1054688,9.3564453 2.0195313,9.6142578 1.9335937,9.8720703 1.9013672,10.033203 1.8798828,10.194336 1.890625,10.194336 Z" style="font-style:normal;font-variant:normal;font-weight:normal;font-stretch:normal;font-size:22px;line-height:1.25;font-family:'Crimson Text';-inkscape-font-specification:'Crimson Text';letter-spacing:0px;word-spacing:0px;fill:#222222;fill-opacity:1;stroke:none"/>
	<path d="m 10.677734,12.460938 q 0,-0.88086 0.268555,-1.708008 0.268555,-0.8378909 0.730469,-1.4931644 0.461914,-0.6552734 1.063476,-1.203125 0.601563,-0.5478515 1.267579,-0.9130859 0.676757,-0.3652344 1.375,-0.5585938 0.708984,-0.2041015 1.353515,-0.2041015 1.353516,0 2.245117,0.6015625 0.08594,0.075195 0.161133,0.3007812 0.08594,0.2148438 0.08594,0.3867188 0,0.6230469 -0.290039,0.9130859 -0.279297,0.2900391 -0.655274,0.2900391 -0.24707,0 -0.504883,-0.1611328 Q 17.53125,8.5507813 17.251953,8.2929688 16.972656,8.0351563 16.84375,7.9492187 16.414062,7.6699219 16.145508,7.5732422 q -0.268555,-0.09668 -0.730469,-0.09668 -0.397461,0 -0.794922,0.1826172 -0.397461,0.171875 -0.762695,0.5371094 -0.354492,0.3544922 -0.633789,0.8486328 -0.268555,0.4833984 -0.44043,1.1601564 -0.161133,0.676758 -0.161133,1.428711 0,1.063477 0.311524,1.890625 0.322265,0.816406 0.870117,1.321289 0.558594,0.494141 1.27832,0.751953 0.719727,0.247071 1.579102,0.247071 0.397461,0 0.773437,-0.09668 0.375977,-0.09668 0.655274,-0.236328 0.279297,-0.139649 0.537109,-0.322266 0.268555,-0.193359 0.408203,-0.333008 0.150391,-0.139648 0.268555,-0.279297 0.02148,0 0.06445,0.04297 0.04297,0.04297 0.08594,0.128906 0.05371,0.08594 0.05371,0.182618 0,0.193359 -0.15039,0.440429 -0.204102,0.322266 -0.504883,0.644532 -0.290039,0.322265 -0.741211,0.676757 -0.451172,0.354493 -1.084961,0.580078 -0.623047,0.225586 -1.310547,0.225586 -0.880859,0 -1.675781,-0.268554 -0.794922,-0.279297 -1.407226,-0.762696 -0.601563,-0.483398 -1.052735,-1.117187 -0.44043,-0.633789 -0.676758,-1.375 -0.225586,-0.741211 -0.225586,-1.514648 z" style="font-style:normal;font-variant:normal;font-weight:normal;font-stretch:normal;font-size:22px;line-height:1.25;font-family:'Crimson Text';-inkscape-font-specification:'Crimson Text';letter-spacing:0px;word-spacing:0px;fill:#222222;fill-opacity:1;stroke:none"/>
	<path d="m 21.269531,14.501953 q 0.204102,-0.15039 0.451172,-0.15039 0.150391,0 0.225586,0.05371 0.08594,0.322266 0.257813,0.655274 0.182617,0.322266 0.440429,0.633789 0.257813,0.300781 0.558594,0.547851 0.300781,0.236329 0.676758,0.386719 0.375976,0.139649 0.751953,0.139649 0.794922,0 1.289062,-0.472657 0.504883,-0.483398 0.504883,-1.321289 0,-0.365234 -0.139648,-0.676757 -0.128906,-0.322266 -0.322266,-0.53711 -0.182617,-0.225586 -0.526367,-0.472656 -0.333008,-0.24707 -0.612305,-0.386719 -0.268554,-0.15039 -0.719726,-0.386719 -0.451172,-0.24707 -0.719727,-0.408203 -0.408203,-0.236328 -0.719726,-0.472656 -0.311524,-0.24707 -0.590821,-0.569336 -0.279297,-0.322265 -0.429687,-0.730469 -0.150391,-0.4082027 -0.150391,-0.8916012 0,-0.8916015 0.515625,-1.5898437 0.526367,-0.7089844 1.342774,-1.0742188 0.827148,-0.3759766 1.750976,-0.3759766 0.429688,0 0.805664,0.053711 0.375977,0.053711 0.848633,0.1396484 0.483398,0.085937 0.891602,0.1289063 0.257812,1.1279297 0.300781,2.75 0,0.118164 -0.24707,0.118164 -0.268555,0 -0.429688,-0.118164 -0.09668,-0.3759766 -0.290039,-0.7519531 -0.182617,-0.3867188 -0.44043,-0.741211 -0.257812,-0.3544922 -0.623047,-0.5800781 -0.354492,-0.225586 -0.741211,-0.225586 -0.580078,0 -0.988281,0.2148438 -0.397461,0.2041016 -0.59082,0.5585937 -0.182617,0.3437501 -0.182617,0.7949219 0,0.2685547 0.05371,0.5048828 0.05371,0.225586 0.182617,0.4189454 0.128906,0.1933593 0.24707,0.3330082 0.128906,0.139648 0.365235,0.300781 0.236328,0.161133 0.386718,0.257812 0.161133,0.08594 0.461914,0.257813 0.300782,0.171875 0.461914,0.268555 0.128907,0.08594 0.44043,0.268554 0.311524,0.171875 0.483399,0.279297 0.182617,0.09668 0.472656,0.300781 0.290039,0.19336 0.461914,0.34375 0.182617,0.150391 0.397461,0.375977 0.214844,0.225586 0.333008,0.44043 0.118164,0.204101 0.193359,0.483398 0.08594,0.268555 0.08594,0.547852 0,0.988281 -0.537109,1.783203 -0.537109,0.794922 -1.417969,1.235351 -0.870117,0.429688 -1.879882,0.429688 -0.515625,0 -0.956055,-0.0752 -0.44043,-0.06445 -1.03125,-0.204101 -0.59082,-0.139649 -0.923828,-0.204102 -0.150391,-0.386718 -0.290039,-1.235351 -0.139649,-0.859375 -0.139649,-1.353516 z" style="font-style:normal;font-variant:normal;font-weight:normal;font-stretch:normal;font-size:22px;line-height:1.25;font-family:'Crimson Text';-inkscape-font-specification:'Crimson Text';letter-spacing:0px;word-spacing:0px;fill:#222222;fill-opacity:1;stroke:none"/>
	<path d="m 29.498047,7.3046875 q -0.06445,-0.1181641 -0.06445,-0.3652344 0,-0.2470703 0.06445,-0.3652344 0.311523,0.021484 0.655273,0.042969 0.354492,0.021484 0.580078,0.042969 0.225586,0.021484 0.547852,0.032227 0.322266,0.010742 0.676758,0.010742 0.333008,0 0.655273,-0.010742 0.333008,-0.010742 0.569336,-0.032227 0.236328,-0.021484 0.601563,-0.042969 0.365234,-0.021484 0.666015,-0.042969 0.04297,0.1181641 0.03223,0.4082032 -0.01074,0.2792968 -0.0752,0.3222656 -0.128907,0 -0.29004,0.021484 -0.161132,0.010742 -0.408203,0.064453 -0.236328,0.053711 -0.397461,0.1826172 -0.15039,0.118164 -0.15039,0.3007812 0,0.010742 0.01074,0.053711 0.01074,0.042969 0.04297,0.1396484 0.04297,0.09668 0.06445,0.1826172 0.257812,0.6875 2.567383,6.1337895 0.300781,-0.773437 0.6875,-1.740234 0.386718,-0.966797 0.580078,-1.450196 0.204101,-0.49414 0.397461,-1.009765 0.204101,-0.5156257 0.279297,-0.7412117 0.0752,-0.2363281 0.0752,-0.3007812 0,-0.085937 -0.08594,-0.3115235 Q 37.705078,8.59375 37.56543,8.2929688 37.425781,7.9921875 37.264648,7.7773437 36.942383,7.3046875 36.168945,7.3046875 q -0.08594,-0.064453 -0.08594,-0.34375 0,-0.2900391 0.08594,-0.3867188 0.386719,0.021484 0.773438,0.053711 0.397461,0.032227 0.719726,0.053711 0.333008,0.021484 0.78418,0.021484 0.418945,0 0.816406,-0.010742 0.397461,-0.021484 0.913086,-0.053711 0.526367,-0.042969 0.859375,-0.064453 0.04297,0.1396485 0.04297,0.397461 0,0.2578125 -0.0752,0.3330078 -0.601563,0 -0.923828,0.1826172 -0.322266,0.1826172 -0.322266,0.6123047 0,0.085937 0.0752,0.2685547 0.06445,0.2041015 0.171875,0.5263672 0.118164,0.3115234 0.333008,0.8701171 0.214844,0.5478516 0.418945,1.0957036 0.214844,0.547851 0.612305,1.557617 0.397461,1.009765 0.741211,1.890625 1.783203,-4.4472659 2.191406,-5.5859377 0.118164,-0.34375 0.118164,-0.6015625 0,-0.6445313 -1.063476,-0.7734376 -0.128907,-0.021484 -0.365235,-0.042969 h -0.06445 q -0.0752,-0.064453 -0.08594,-0.34375 0,-0.2900391 0.08594,-0.3867188 0.34375,0.021484 0.966797,0.075195 0.623047,0.053711 1.203125,0.053711 0.418945,0 0.751953,-0.021484 0.333008,-0.021484 0.751953,-0.053711 0.418946,-0.032227 0.78418,-0.053711 0.03223,0.032227 0.03223,0.2363282 0,0.053711 0,0.1074218 -0.01074,0.3007813 -0.107422,0.3867188 -0.107422,0 -0.311524,0.042969 -0.204101,0.032227 -0.49414,0.1181641 -0.279297,0.085937 -0.53711,0.2792969 -0.24707,0.1933594 -0.34375,0.4511719 -2.191406,5.5429689 -3.620117,8.9482419 -0.05371,0.150391 -0.236328,0.290039 -0.171875,0.139649 -0.279297,0.139649 -0.257812,0 -0.300781,-0.107422 l -2.771485,-7.197266 -2.685546,6.821289 q -0.01074,0.03223 -0.05371,0.08594 -0.03223,0.05371 -0.107422,0.118164 -0.06445,0.06445 -0.139649,0.128906 -0.06445,0.06445 -0.161132,0.107422 -0.08594,0.04297 -0.161133,0.04297 -0.182617,0 -0.225586,-0.107422 Q 32.795898,12.256836 30.84082,7.8525391 30.604492,7.3046875 29.498047,7.3046875 Z" style="font-style:normal;font-variant:normal;font-weight:normal;font-stretch:normal;font-size:22px;line-height:1.25;font-family:'Crimson Text';-inkscape-font-specification:'Crimson Text';letter-spacing:0px;word-spacing:0px;fill:#222222;fill-opacity:1;stroke:none"/>
	<path d="m 48.103516,12.310547 q 0,-0.816406 0.204101,-1.600586 0.214844,-0.7841797 0.580078,-1.4179688 0.365235,-0.6445313 0.848633,-1.1923828 0.483399,-0.5585938 1.020508,-0.9238282 0.547851,-0.3759765 1.12793,-0.5800781 0.580078,-0.2148437 1.127929,-0.2148437 0.612305,0 1.138672,0.1396484 0.53711,0.1289063 0.913086,0.3544922 0.375977,0.2255859 0.666016,0.5263672 0.300781,0.3007812 0.483398,0.6123047 0.19336,0.3115234 0.311524,0.6445312 0.128906,0.3330078 0.171875,0.6123047 0.05371,0.2685547 0.05371,0.4941406 0,0.5800786 -0.128907,0.8701176 -0.128906,0.290039 -0.472656,0.300781 -0.504883,0.03223 -3.233398,0.107422 -2.717774,0.0752 -3.040039,0.0752 v 0.171875 q 0,0.891602 0.214843,1.654297 0.214844,0.751953 0.590821,1.299805 0.375976,0.537109 0.891601,0.913086 0.515625,0.375976 1.106445,0.558593 0.601563,0.182618 1.256836,0.182618 0.472657,0 0.945313,-0.139649 0.472656,-0.150391 0.827148,-0.375976 0.354493,-0.236329 0.580078,-0.429688 0.236329,-0.204102 0.386719,-0.375977 0.01074,0 0.05371,0.04297 0.05371,0.04297 0.09668,0.128906 0.04297,0.08594 0.04297,0.182618 0,0.193359 -0.139649,0.440429 -0.204101,0.322266 -0.504883,0.644532 -0.300781,0.322265 -0.751953,0.676757 -0.440429,0.354493 -1.074219,0.580078 -0.623046,0.225586 -1.310546,0.225586 -1.450196,0 -2.59961,-0.676757 -1.138672,-0.6875 -1.761719,-1.869141 -0.623046,-1.181641 -0.623046,-2.642578 z m 1.890625,-2.116211 h 4.060546 q 0.580079,0 0.580079,-0.5800782 0,-0.2255859 -0.06445,-0.515625 Q 54.505859,8.8085938 54.344727,8.4863281 54.194336,8.1533203 53.96875,7.8955078 53.743164,7.6269531 53.37793,7.4550781 53.023437,7.2724609 52.583008,7.2724609 q -0.418946,0 -0.794922,0.1611328 -0.375977,0.1611329 -0.644531,0.4189454 -0.257813,0.2578125 -0.472657,0.5693359 -0.204101,0.3115234 -0.333007,0.6230469 -0.128907,0.3115234 -0.214844,0.5693359 -0.08594,0.2578125 -0.118164,0.4189452 -0.02148,0.161133 -0.01074,0.161133 z" style="font-style:normal;font-variant:normal;font-weight:normal;font-stretch:normal;font-size:22px;line-height:1.25;font-family:'Crimson Text';-inkscape-font-specification:'Crimson Text';letter-spacing:0px;word-spacing:0px;fill:#222222;fill-opacity:1;stroke:none"/>
	<path d="m 58.813477,12.310547 q 0,-0.816406 0.204101,-1.600586 0.214844,-0.7841797 0.580078,-1.4179688 0.365235,-0.6445313 0.848633,-1.1923828 0.483398,-0.5585938 1.020508,-0.9238282 0.547851,-0.3759765 1.12793,-0.5800781 0.580078,-0.2148437 1.127929,-0.2148437 0.612305,0 1.138672,0.1396484 0.537109,0.1289063 0.913086,0.3544922 0.375977,0.2255859 0.666016,0.5263672 0.300781,0.3007812 0.483398,0.6123047 0.193359,0.3115234 0.311524,0.6445312 0.128906,0.3330078 0.171875,0.6123047 0.05371,0.2685547 0.05371,0.4941406 0,0.5800786 -0.128906,0.8701176 -0.128906,0.290039 -0.472656,0.300781 -0.504883,0.03223 -3.233398,0.107422 -2.717774,0.0752 -3.04004,0.0752 v 0.171875 q 0,0.891602 0.214844,1.654297 0.214844,0.751953 0.590821,1.299805 0.375976,0.537109 0.891601,0.913086 0.515625,0.375976 1.106445,0.558593 0.601563,0.182618 1.256836,0.182618 0.472657,0 0.945313,-0.139649 0.472656,-0.150391 0.827148,-0.375976 0.354492,-0.236329 0.580078,-0.429688 0.236329,-0.204102 0.386719,-0.375977 0.01074,0 0.05371,0.04297 0.05371,0.04297 0.09668,0.128906 0.04297,0.08594 0.04297,0.182618 0,0.193359 -0.139649,0.440429 -0.204101,0.322266 -0.504883,0.644532 -0.300781,0.322265 -0.751953,0.676757 -0.44043,0.354493 -1.074219,0.580078 -0.623046,0.225586 -1.310546,0.225586 -1.450196,0 -2.59961,-0.676757 -1.138672,-0.6875 -1.761719,-1.869141 -0.623046,-1.181641 -0.623046,-2.642578 z m 1.890625,-2.116211 h 4.060546 q 0.580079,0 0.580079,-0.5800782 0,-0.2255859 -0.06445,-0.515625 -0.06446,-0.290039 -0.22559,-0.6123047 -0.15039,-0.3330078 -0.375976,-0.5908203 -0.225586,-0.2685547 -0.59082,-0.4404297 -0.354493,-0.1826172 -0.794922,-0.1826172 -0.418946,0 -0.794922,0.1611328 -0.375977,0.1611329 -0.644531,0.4189454 -0.257813,0.2578125 -0.472657,0.5693359 -0.204101,0.3115234 -0.333007,0.6230469 -0.128907,0.3115234 -0.214844,0.5693359 -0.08594,0.2578125 -0.118164,0.4189452 -0.02148,0.161133 -0.01074,0.161133 z" style="font-style:normal;font-variant:normal;font-weight:normal;font-stretch:normal;font-size:22px;line-height:1.25;font-family:'Crimson Text';-inkscape-font-specification:'Crimson Text';letter-spacing:0px;word-spacing:0px;fill:#222222;fill-opacity:1;stroke:none"/>
	<path d="m 69.319336,7.734375 q 0,-0.032227 0,-0.075195 0,-0.1933594 0.05371,-0.2792969 Q 71.5,7.0791016 72.939453,6.3271484 q 0.08594,0 0.171875,0.1503907 0.09668,0.1503906 0.09668,0.2470703 -0.150391,1.0527343 -0.150391,1.4287109 0,0.09668 0.05371,0.09668 0.02148,0 0.07519,-0.053711 0.204102,-0.225586 0.569336,-0.515625 0.375977,-0.2900391 0.837891,-0.5908204 0.472656,-0.3007812 0.999023,-0.5048828 0.53711,-0.2041015 0.956055,-0.2041015 0.676758,0 1.170899,0.1396484 0.504882,0.1289063 0.859375,0.4296875 0.354492,0.3007813 0.580078,0.7089844 0.236328,0.4082031 0.365234,1.03125 0.139648,0.6230469 0.182617,1.3212891 0.05371,0.698242 0.05371,1.654297 v 2.739257 q 0,1.439454 0.128906,1.847657 0.03223,0.118164 0.365235,0.214843 0.34375,0.09668 0.676758,0.139649 0.333007,0.04297 0.526367,0.04297 0.08594,0.107421 0.08594,0.386718 0,0.236328 -0.08594,0.333008 -0.34375,-0.02148 -0.88086,-0.05371 -0.526367,-0.03223 -0.945312,-0.05371 -0.408203,-0.02148 -0.848633,-0.02148 -0.429687,0 -0.837891,0.02148 -0.39746,0.02148 -0.923828,0.05371 -0.526367,0.03223 -0.870117,0.05371 -0.08594,-0.09668 -0.08594,-0.354492 0.01074,-0.268555 0.08594,-0.365234 0.354492,0 0.93457,-0.107422 0.590821,-0.118164 0.63379,-0.290039 0.128906,-0.408203 0.128906,-1.847657 v -2.492187 q 0,-1.203125 -0.107422,-1.9443358 Q 77.633789,9.2167969 77.34375,8.7226563 77.064453,8.2177734 76.602539,8.0244141 76.140625,7.8203125 75.399414,7.8203125 q -0.418945,0 -0.999023,0.3007813 -0.580079,0.3007812 -0.977539,0.633789 -0.386719,0.3222656 -0.386719,0.4404297 v 5.2099605 q 0,1.439454 0.128906,1.847657 0.01074,0.06445 0.107422,0.128906 0.107422,0.05371 0.257812,0.09668 0.150391,0.03223 0.322266,0.0752 0.182617,0.03223 0.354492,0.05371 0.171875,0.02148 0.300781,0.03223 0.139649,0.01074 0.225586,0.01074 0.0752,0.09668 0.0752,0.365234 0.01074,0.257812 -0.0752,0.354492 -0.34375,-0.02148 -0.880859,-0.05371 -0.537109,-0.03223 -0.945312,-0.05371 -0.408204,-0.02148 -0.848633,-0.02148 -0.429688,0 -0.837891,0.02148 -0.397461,0.02148 -0.923828,0.05371 -0.526367,0.03223 -0.870117,0.05371 -0.09668,-0.09668 -0.09668,-0.354492 0.01074,-0.268555 0.09668,-0.365234 0.354492,0 0.93457,-0.107422 0.580078,-0.118164 0.633789,-0.290039 0.118164,-0.408203 0.118164,-1.847657 V 9.8720703 q 0,-1.0957031 -0.118164,-1.3964844 Q 70.90918,8.2822266 70.511719,8.1748047 70.114258,8.0566406 69.845703,8.0458984 69.577148,8.0244141 69.373047,8.0244141 69.330078,7.9921875 69.319336,7.734375 Z" style="font-style:normal;font-variant:normal;font-weight:normal;font-stretch:normal;font-size:22px;line-height:1.25;font-family:'Crimson Text';-inkscape-font-specification:'Crimson Text';letter-spacing:0px;word-spacing:0px;fill:#222222;fill-opacity:1;stroke:none"/>
	<path d="m 82.779297,12.310547 q 0,-0.816406 0.204101,-1.600586 0.214844,-0.7841797 0.580079,-1.4179688 0.365234,-0.6445313 0.848632,-1.1923828 0.483399,-0.5585938 1.020508,-0.9238282 0.547852,-0.3759765 1.12793,-0.5800781 0.580078,-0.2148437 1.12793,-0.2148437 0.612304,0 1.138671,0.1396484 0.53711,0.1289063 0.913086,0.3544922 0.375977,0.2255859 0.666016,0.5263672 0.300781,0.3007812 0.483398,0.6123047 0.19336,0.3115234 0.311524,0.6445312 0.128906,0.3330078 0.171875,0.6123047 0.05371,0.2685547 0.05371,0.4941406 0,0.5800786 -0.128906,0.8701176 -0.128907,0.290039 -0.472657,0.300781 -0.504883,0.03223 -3.233398,0.107422 -2.717774,0.0752 -3.040039,0.0752 v 0.171875 q 0,0.891602 0.214844,1.654297 0.214843,0.751953 0.59082,1.299805 0.375976,0.537109 0.891601,0.913086 0.515625,0.375976 1.106446,0.558593 0.601562,0.182618 1.256836,0.182618 0.472656,0 0.945312,-0.139649 0.472656,-0.150391 0.827149,-0.375976 0.354492,-0.236329 0.580078,-0.429688 0.236328,-0.204102 0.386718,-0.375977 0.01074,0 0.05371,0.04297 0.05371,0.04297 0.09668,0.128906 0.04297,0.08594 0.04297,0.182618 0,0.193359 -0.139649,0.440429 -0.204101,0.322266 -0.504882,0.644532 -0.300782,0.322265 -0.751954,0.676757 -0.440429,0.354493 -1.074218,0.580078 -0.623047,0.225586 -1.310547,0.225586 -1.450195,0 -2.59961,-0.676757 -1.138671,-0.6875 -1.761718,-1.869141 -0.623047,-1.181641 -0.623047,-2.642578 z m 1.890625,-2.116211 h 4.060547 q 0.580078,0 0.580078,-0.5800782 0,-0.2255859 -0.06445,-0.515625 Q 89.181641,8.8085938 89.020508,8.4863281 88.870117,8.1533203 88.644531,7.8955078 88.418945,7.6269531 88.053711,7.4550781 87.699219,7.2724609 87.258789,7.2724609 q -0.418945,0 -0.794922,0.1611328 -0.375976,0.1611329 -0.644531,0.4189454 -0.257813,0.2578125 -0.472656,0.5693359 -0.204102,0.3115234 -0.333008,0.6230469 -0.128906,0.3115234 -0.214844,0.5693359 -0.08594,0.2578125 -0.118164,0.4189452 -0.02148,0.161133 -0.01074,0.161133 z" style="font-style:normal;font-variant:normal;font-weight:normal;font-stretch:normal;font-size:22px;line-height:1.25;font-family:'Crimson Text';-inkscape-font-specification:'Crimson Text';letter-spacing:0px;word-spacing:0px;fill:#222222;fill-opacity:1;stroke:none"/>
	<path d="m 92.543945,7.3046875 q -0.04297,0 -0.04297,-0.34375 0,-0.34375 0.04297,-0.3867188 1.181641,0.1289063 2.492188,0.1289063 1.428711,0 2.492187,-0.1289063 0.04297,0.1181641 0.01074,0.4296875 -0.03223,0.3007813 -0.118164,0.3007813 -0.161132,0 -0.408203,0.021484 -0.24707,0.021484 -0.547851,0.1289062 -0.290039,0.09668 -0.290039,0.2685547 0,0 0.05371,0.09668 l 2.642578,6.7353516 q 1.246099,-3.319336 2.191409,-5.6611328 0.15039,-0.3544922 0.15039,-0.7949219 0,-0.3652344 -0.39746,-0.5800782 -0.39746,-0.2148437 -1.052738,-0.2148437 -0.08594,0 -0.08594,-0.3115234 0,-0.3222657 0.08594,-0.4189454 0.934578,0.1289063 2.245118,0.1289063 0.84864,0 2.09473,-0.1289063 0.0537,0.09668 0.0537,0.3007813 0,0.053711 0,0.1289062 -0.0215,0.3007813 -0.10742,0.3007813 -0.0967,0 -0.29004,0.042969 -0.19336,0.032227 -0.46191,0.1181641 -0.25782,0.075195 -0.49415,0.2578125 -0.23632,0.1826172 -0.34375,0.4296875 -2.664061,6.3593745 -3.73828,8.9912105 -0.139648,0.34375 -0.537109,1.407227 -0.397461,1.074219 -0.719727,1.750976 -0.311523,0.6875 -0.708984,1.278321 -0.44043,0.655273 -1.009766,1.020507 -0.558594,0.375977 -1.160156,0.375977 -0.204102,0 -0.375977,-0.04297 -0.171875,-0.04297 -0.34375,-0.15039 -0.171875,-0.107422 -0.279297,-0.333008 -0.09668,-0.225586 -0.09668,-0.547852 0,-0.365234 0.300781,-0.719726 0.408203,0 0.655273,-0.02148 0.247071,-0.02148 0.547852,-0.09668 0.311523,-0.0752 0.547852,-0.225586 0.236328,-0.150391 0.515625,-0.418946 0.279296,-0.257812 0.569336,-0.655273 0.268554,-0.354492 0.6875,-1.299805 0.429687,-0.93457 0.504882,-1.224609 Q 96.59375,14.104492 95.745117,12.052734 94.896484,9.9902344 93.886719,7.7988281 93.811523,7.6484375 93.661133,7.5517578 93.521484,7.4443359 93.392578,7.4013672 93.274414,7.3476562 93.05957,7.3261719 q -0.214843,-0.021484 -0.279297,-0.021484 -0.06445,0 -0.236328,-4e-7 z" style="font-style:normal;font-variant:normal;font-weight:normal;font-stretch:normal;font-size:22px;line-height:1.25;font-family:'Crimson Text';-inkscape-font-specification:'Crimson Text';letter-spacing:0px;word-spacing:0px;fill:#222222;fill-opacity:1;stroke:none"/>
	<path d="m 105.40234,13.0625 q 0,-1.224609 0.2793,-2.449219 0.2793,-1.2353513 0.80566,-2.363281 0.53711,-1.1279297 1.34278,-2.1054688 0.8164,-0.977539 1.80469,-1.6972656 0.99902,-0.7304687 2.27734,-1.1386718 1.27832,-0.4189454 2.68555,-0.4189454 1.0205,0 1.93359,0.225586 0.92383,0.2148437 1.6543,0.6230469 0.73047,0.3974609 1.34277,0.9560546 0.61231,0.5478516 1.05273,1.2246094 0.44043,0.6660156 0.74122,1.4287109 0.30078,0.7626954 0.45117,1.5791016 0.15039,0.8056641 0.15039,1.6435552 0,1.407226 -0.39746,2.685546 -0.39746,1.267579 -1.07422,2.202149 -0.67676,0.923828 -1.63281,1.471679 -0.95606,0.53711 -2.03028,0.53711 -0.96679,0 -1.52539,-0.515625 -0.54785,-0.526367 -0.54785,-1.62207 0,-0.225586 0.0537,-0.612305 0.0644,-0.386719 0.12891,-0.537109 -0.16114,0.311523 -0.40821,0.698242 -0.24707,0.375976 -0.62304,0.83789 -0.37598,0.461914 -0.7627,0.837891 -0.38672,0.365234 -0.84863,0.623047 -0.46191,0.24707 -0.88086,0.24707 -0.74121,0 -1.28906,-0.483398 -0.54785,-0.483399 -0.81641,-1.235352 -0.25781,-0.751953 -0.25781,-1.654297 0,-0.880859 0.29004,-1.815429 0.30078,-0.934571 0.79492,-1.761719 0.50488,-0.8378908 1.20312,-1.5791017 0.69825,-0.741211 1.47168,-1.2783204 0.78418,-0.5371093 1.6543,-0.8486328 0.88086,-0.3115234 1.71875,-0.3115234 0.93457,0 1.81543,0.3222656 l -1.52539,7.8740237 q -0.0752,0.300781 -0.0752,0.623047 0,0.569336 0.333,0.848632 0.33301,0.268555 0.87012,0.268555 0.58008,0 1.18164,-0.461914 0.61231,-0.472656 1.08496,-1.235351 0.4834,-0.773438 0.78418,-1.847657 0.31152,-1.074218 0.31152,-2.202148 0,-1.0312502 -0.23632,-1.9980471 -0.23633,-0.9667968 -0.75196,-1.836914 -0.50488,-0.8701172 -1.23535,-1.5146485 -0.73047,-0.6445312 -1.79394,-1.0205078 -1.05274,-0.3867187 -2.30957,-0.3867187 -1.23536,0 -2.37403,0.3759765 -1.12793,0.3759766 -2.01953,1.0419922 -0.88086,0.6552735 -1.61133,1.546875 -0.73047,0.8808594 -1.21386,1.9013672 -0.47266,1.0205078 -0.73047,2.1269532 -0.25781,1.095703 -0.25781,2.180664 0,1.052734 0.25781,2.041016 0.26855,0.977539 0.73047,1.750976 0.46191,0.773438 1.05273,1.375 0.59082,0.612305 1.27832,1.009766 0.60156,0.354492 1.00977,0.483398 0.4082,0.139649 0.85937,0.214844 0,0.09668 -0.16113,0.204102 -0.16113,0.107421 -0.37598,0.171875 -0.21484,0.0752 -0.35449,0.0752 -0.59082,0 -0.97754,-0.150391 -0.85937,-0.322265 -1.64355,-0.999023 -0.77344,-0.666016 -1.375,-1.589844 -0.59082,-0.913086 -0.94532,-2.105469 -0.34375,-1.203125 -0.34375,-2.481445 z m 5.45704,0.472656 q 0,2.438477 1.26757,2.438477 0.60157,0 1.34278,-0.870117 0.74121,-0.88086 1.32129,-2.15918 0.59082,-1.289063 0.82714,-2.481445 l 0.49414,-2.5351566 q -0.29003,-0.3222657 -1.0205,-0.3222657 -0.5586,0 -1.1709,0.3330079 -0.61231,0.3330078 -1.14942,0.9345703 -0.5371,0.5908203 -0.97753,1.3320311 -0.42969,0.741211 -0.6875,1.62207 -0.24707,0.870118 -0.24707,1.708008 z" style="font-style:normal;font-variant:normal;font-weight:normal;font-stretch:normal;font-size:22px;line-height:1.25;font-family:'Crimson Text';-inkscape-font-specification:'Crimson Text';letter-spacing:0px;word-spacing:0px;fill:#222222;fill-opacity:1;stroke:none"/>
	<path d="m 123.83594,11.988281 q 0,-1.192383 0.4082,-2.2343747 0.4082,-1.0419922 1.10645,-1.7832032 0.70898,-0.7519531 1.69726,-1.1816406 0.98828,-0.4296875 2.09473,-0.4296875 1.61133,0 2.83594,0.7089844 1.2246,0.7089843 1.85839,1.9335937 0.64454,1.2246099 0.64454,2.7822269 0,1.192383 -0.40821,2.245117 -0.4082,1.052734 -1.10644,1.81543 -0.69825,0.751953 -1.68653,1.192382 -0.97754,0.429688 -2.08398,0.429688 -1.21387,0 -2.22363,-0.418945 -1.00977,-0.418946 -1.69727,-1.149414 -0.67676,-0.730469 -1.06348,-1.740235 -0.37597,-1.009765 -0.37597,-2.169922 z m 2.14844,-0.504883 q 0,0.741211 0.13964,1.47168 0.13965,0.730469 0.42969,1.396485 0.29004,0.666015 0.69824,1.18164 0.40821,0.504883 0.97754,0.816406 0.56934,0.300782 1.21387,0.300782 0.51562,0 0.94531,-0.171875 0.44043,-0.171875 0.75195,-0.472657 0.31153,-0.300781 0.53711,-0.698242 0.23633,-0.408203 0.37598,-0.891601 0.13965,-0.494141 0.2041,-0.999024 0.0752,-0.515625 0.0752,-1.052734 0,-0.923828 -0.23633,-1.836914 -0.22559,-0.9130862 -0.65527,-1.6650393 -0.42969,-0.7519531 -1.10645,-1.2138672 -0.66601,-0.4726563 -1.46094,-0.4726563 -0.62304,0 -1.11718,0.2470704 -0.49414,0.2470703 -0.82715,0.6552734 -0.32227,0.4082031 -0.54785,0.9667969 -0.21485,0.5585937 -0.31153,1.1708981 -0.0859,0.601563 -0.0859,1.267578 z" style="font-style:normal;font-variant:normal;font-weight:normal;font-stretch:normal;font-size:22px;line-height:1.25;font-family:'Crimson Text';-inkscape-font-specification:'Crimson Text';letter-spacing:0px;word-spacing:0px;fill:#222222;fill-opacity:1;stroke:none"/>
	<path d="m 135.8457,7.1328125 q 0,-0.2148438 0.0645,-0.3007813 2.05175,-0.085937 3.41601,-0.5048828 0.0859,0 0.18262,0.1933594 0.0967,0.1933594 0.0967,0.3115234 -0.0537,0.09668 -0.0967,0.3652344 -0.0322,0.2685547 -0.0537,0.6337891 -0.0215,0.3544922 -0.0215,0.7197266 v 1.0634765 2.5996092 q 0,1.987305 0.59082,2.921875 0.59082,0.93457 1.90137,0.93457 0.52637,0 1.06348,-0.214843 0.54785,-0.214844 0.88086,-0.53711 0.34375,-0.322265 0.34375,-0.612304 V 9.3242188 q 0,-0.9775391 -0.2041,-1.3535157 -0.16114,-0.290039 -0.58008,-0.3867187 -0.40821,-0.1074219 -0.80567,-0.1074219 -0.0644,-0.064453 -0.0752,-0.3007813 0,-0.2470703 0.0752,-0.34375 2.04102,-0.085937 3.40528,-0.5048828 0.0644,0 0.1289,0.1289063 0.0645,0.118164 0.10742,0.2685547 0.043,0.1396484 0.043,0.2041015 -0.17187,0.34375 -0.17187,1.6220704 v 1.1386718 4.0927739 q 0,1.074218 0.17187,1.890625 0.043,0.161132 0.26856,0.268554 0.23633,0.09668 0.4834,0.128906 0.24707,0.02148 0.47265,0.04297 0.23633,0.01074 0.24707,0.01074 0.0752,0.03223 0.0752,0.268555 0,0.04297 -0.0215,0.128906 -0.0215,0.08594 -0.0752,0.182618 -0.0537,0.09668 -0.10742,0.09668 -0.36524,0.02148 -0.82715,0.09668 -0.46192,0.0752 -0.87012,0.182617 -0.4082,0.09668 -0.76269,0.193359 -0.34375,0.09668 -0.5586,0.161133 l -0.21484,0.06445 q -0.0967,0 -0.15039,-0.128906 -0.0537,-0.128906 -0.0537,-0.279297 v -1.138672 l -0.0537,-0.128906 q -0.56934,0.612305 -1.61133,1.12793 -1.03125,0.515625 -1.92285,0.515625 -0.42969,0 -0.80567,-0.107422 -0.36523,-0.09668 -0.65527,-0.268555 -0.2793,-0.182617 -0.52637,-0.440429 -0.23633,-0.257813 -0.4082,-0.558594 -0.16113,-0.300781 -0.29004,-0.655274 -0.12891,-0.354492 -0.21484,-0.708984 -0.0752,-0.354492 -0.12891,-0.751953 -0.043,-0.397461 -0.0644,-0.741211 -0.0215,-0.354492 -0.0215,-0.719727 V 9.3242188 q 0,-0.9775391 -0.2041,-1.3535157 -0.16113,-0.290039 -0.58008,-0.3867187 -0.4082,-0.1074219 -0.8164,-0.1074219 -0.0645,-0.075195 -0.0645,-0.34375 z" style="font-style:normal;font-variant:normal;font-weight:normal;font-stretch:normal;font-size:22px;line-height:1.25;font-family:'Crimson Text';-inkscape-font-specification:'Crimson Text';letter-spacing:0px;word-spacing:0px;fill:#222222;fill-opacity:1;stroke:none"/>
	<path d="m 148.81152,7.3261719 q 0,-0.064453 0.2793,-0.3759766 0.2793,-0.3222656 0.37598,-0.4189453 h 0.92382 V 4.9628906 q 0.19336,-0.2363281 0.56934,-0.6445312 0.37598,-0.4082031 0.64453,-0.6982422 0.2793,-0.3007813 0.30078,-0.3330078 0.0645,-0.064453 0.16114,-0.085937 0.0645,-0.021484 0.10742,-0.010742 0.0322,0.010742 0.0537,0.010742 0.0644,0.021484 0.0752,0.064453 V 6.53125 h 3.21192 q 0.0537,0 0.0752,0.021484 0.0322,0.010742 0.043,0.064453 0.0107,0.042969 0.0107,0.075195 0,0.032227 0,0.1074219 0,0.3974609 -0.34375,0.7519531 h -2.99707 v 6.53125 q 0,0.999023 0.40821,1.52539 0.41894,0.515625 1.23535,0.515625 0.34375,0 0.71973,-0.128906 0.37597,-0.128906 0.56933,-0.236328 0.19336,-0.107422 0.33301,-0.204101 0.0752,0.03223 0.0752,0.171875 0,0.06445 -0.0215,0.15039 -0.0215,0.08594 -0.043,0.150391 -0.0215,0.05371 -0.0322,0.0752 -0.17187,0.193359 -0.39746,0.386719 -0.21484,0.193359 -0.55859,0.440429 -0.33301,0.236329 -0.7627,0.386719 -0.41894,0.150391 -0.84863,0.150391 -0.4082,0 -0.76269,-0.0752 -0.3545,-0.06445 -0.69825,-0.247071 -0.34375,-0.193359 -0.59082,-0.483398 -0.24707,-0.300781 -0.39746,-0.78418 -0.13965,-0.483398 -0.13965,-1.095703 V 7.5517578 h -1.45019 q -0.0537,0 -0.0967,-0.075195 -0.0322,-0.085937 -0.0322,-0.1503909 z" style="font-style:normal;font-variant:normal;font-weight:normal;font-stretch:normal;font-size:22px;line-height:1.25;font-family:'Crimson Text';-inkscape-font-specification:'Crimson Text';letter-spacing:0px;word-spacing:0px;fill:#222222;fill-opacity:1;stroke:none"/>
	<path d="m 156.58887,16.650391 q 0.35449,0 0.93457,-0.107422 0.58008,-0.118164 0.63379,-0.290039 0.11816,-0.408203 0.11816,-1.847657 V 3.3837891 q 0,-0.9882813 -0.11816,-1.2890625 -0.19336,-0.4511719 -1.52539,-0.4511719 -0.0108,0 -0.0215,-0.1503906 -0.0107,-0.1611329 -0.0107,-0.3222657 0.0107,-0.1611328 0.0644,-0.17187496 1.70803,-0.171875 3.5342,-0.99902344 0.0967,0 0.18262,0.13964844 0.0967,0.12890625 0.0967,0.2578125 -0.2793,0.80566406 -0.2793,2.16992186 V 14.405273 q 0,1.439454 0.12891,1.847657 0.0215,0.08594 0.22558,0.171875 0.20411,0.08594 0.47266,0.128906 0.26856,0.04297 0.50488,0.0752 0.23633,0.02148 0.36524,0.02148 0.0752,0.107421 0.0752,0.365234 0,0.01074 0.0108,0.02148 0,0.236328 -0.0859,0.333008 -0.34375,-0.02148 -0.88086,-0.05371 -0.53711,-0.03223 -0.94531,-0.05371 -0.40821,-0.02148 -0.84864,-0.02148 -0.42968,0 -0.83789,0.02148 -0.39746,0.02148 -0.92383,0.05371 -0.52636,0.03223 -0.87011,0.05371 -0.0967,-0.09668 -0.0967,-0.333008 0,-0.279297 0.0967,-0.386718 z" style="font-style:normal;font-variant:normal;font-weight:normal;font-stretch:normal;font-size:22px;line-height:1.25;font-family:'Crimson Text';-inkscape-font-specification:'Crimson Text';letter-spacing:0px;word-spacing:0px;fill:#222222;fill-opacity:1;stroke:none"/>
	<path d="m 163.43164,11.988281 q 0,-1.192383 0.4082,-2.2343747 0.40821,-1.0419922 1.10645,-1.7832032 0.70898,-0.7519531 1.69726,-1.1816406 0.98829,-0.4296875 2.09473,-0.4296875 1.61133,0 2.83594,0.7089844 1.22461,0.7089843 1.8584,1.9335937 0.64453,1.2246099 0.64453,2.7822269 0,1.192383 -0.4082,2.245117 -0.40821,1.052734 -1.10645,1.81543 -0.69824,0.751953 -1.68652,1.192382 -0.97754,0.429688 -2.08399,0.429688 -1.21387,0 -2.22363,-0.418945 -1.00977,-0.418946 -1.69727,-1.149414 -0.67675,-0.730469 -1.06347,-1.740235 -0.37598,-1.009765 -0.37598,-2.169922 z m 2.14844,-0.504883 q 0,0.741211 0.13965,1.47168 0.13964,0.730469 0.42968,1.396485 0.29004,0.666015 0.69825,1.18164 0.4082,0.504883 0.97754,0.816406 0.56933,0.300782 1.21386,0.300782 0.51563,0 0.94531,-0.171875 0.44043,-0.171875 0.75196,-0.472657 0.31152,-0.300781 0.53711,-0.698242 0.23633,-0.408203 0.37597,-0.891601 0.13965,-0.494141 0.20411,-0.999024 0.0752,-0.515625 0.0752,-1.052734 0,-0.923828 -0.23633,-1.836914 -0.22558,-0.9130862 -0.65527,-1.6650393 -0.42969,-0.7519531 -1.10645,-1.2138672 -0.66601,-0.4726563 -1.46093,-0.4726563 -0.62305,0 -1.11719,0.2470704 -0.49414,0.2470703 -0.82715,0.6552734 -0.32227,0.4082031 -0.54785,0.9667969 -0.21484,0.5585937 -0.31152,1.1708981 -0.0859,0.601563 -0.0859,1.267578 z" style="font-style:normal;font-variant:normal;font-weight:normal;font-stretch:normal;font-size:22px;line-height:1.25;font-family:'Crimson Text';-inkscape-font-specification:'Crimson Text';letter-spacing:0px;word-spacing:0px;fill:#222222;fill-opacity:1;stroke:none"/>
	<path d="m 176.10742,11.988281 q 0,-1.192383 0.4082,-2.2343747 0.40821,-1.0419922 1.10645,-1.7832032 0.70898,-0.7519531 1.69727,-1.1816406 0.98828,-0.4296875 2.09472,-0.4296875 1.61133,0 2.83594,0.7089844 1.22461,0.7089843 1.8584,1.9335937 0.64453,1.2246099 0.64453,2.7822269 0,1.192383 -0.4082,2.245117 -0.40821,1.052734 -1.10645,1.81543 -0.69824,0.751953 -1.68652,1.192382 -0.97754,0.429688 -2.08399,0.429688 -1.21386,0 -2.22363,-0.418945 -1.00977,-0.418946 -1.69727,-1.149414 -0.67675,-0.730469 -1.06347,-1.740235 -0.37598,-1.009765 -0.37598,-2.169922 z m 2.14844,-0.504883 q 0,0.741211 0.13965,1.47168 0.13965,0.730469 0.42969,1.396485 0.29003,0.666015 0.69824,1.18164 0.4082,0.504883 0.97754,0.816406 0.56933,0.300782 1.21386,0.300782 0.51563,0 0.94532,-0.171875 0.44043,-0.171875 0.75195,-0.472657 0.31152,-0.300781 0.53711,-0.698242 0.23633,-0.408203 0.37598,-0.891601 0.13964,-0.494141 0.2041,-0.999024 0.0752,-0.515625 0.0752,-1.052734 0,-0.923828 -0.23633,-1.836914 -0.22558,-0.9130862 -0.65527,-1.6650393 -0.42969,-0.7519531 -1.10644,-1.2138672 -0.66602,-0.4726563 -1.46094,-0.4726563 -0.62305,0 -1.11719,0.2470704 -0.49414,0.2470703 -0.82715,0.6552734 -0.32226,0.4082031 -0.54785,0.9667969 -0.21484,0.5585937 -0.31152,1.1708981 -0.0859,0.601563 -0.0859,1.267578 z" style="font-style:normal;font-variant:normal;font-weight:normal;font-stretch:normal;font-size:22px;line-height:1.25;font-family:'Crimson Text';-inkscape-font-specification:'Crimson Text';letter-spacing:0px;word-spacing:0px;fill:#222222;fill-opacity:1;stroke:none"/>
	<path d="m 188.28906,16.650391 q 0.35449,0 0.93457,-0.107422 0.58008,-0.118164 0.63379,-0.290039 0.11817,-0.408203 0.11817,-1.847657 V 3.3837891 q 0,-0.9882813 -0.11817,-1.2890625 -0.19336,-0.4511719 -1.52539,-0.4511719 -0.0107,0 -0.0215,-0.1503906 -0.0108,-0.1611329 -0.0108,-0.3222657 0.0108,-0.1611328 0.0645,-0.17187496 Q 190.07227,0.82714844 191.89844,0 q 0.0967,0 0.18261,0.13964844 0.0967,0.12890625 0.0967,0.2578125 -0.27929,0.80566406 -0.27929,2.16992186 V 11.44043 q 0.29004,-0.107422 0.76269,-0.472657 0.4834,-0.375976 1.27832,-1.0527339 0.31153,-0.2578125 0.71973,-0.5908203 0.41894,-0.34375 0.65527,-0.5371094 0.24707,-0.2041016 0.47266,-0.4082031 0.23633,-0.2041016 0.34375,-0.3330079 0.10742,-0.1289062 0.10742,-0.1933593 0,-0.075195 -0.043,-0.1289063 -0.043,-0.053711 -0.11816,-0.085937 -0.0644,-0.042969 -0.16113,-0.075195 -0.0967,-0.032227 -0.19336,-0.053711 -0.0967,-0.021484 -0.21485,-0.032227 -0.10742,-0.021484 -0.19336,-0.021484 -0.0752,-0.010742 -0.16113,-0.010742 -0.0859,-0.010742 -0.11816,-0.021484 -0.0859,-0.1289063 -0.0645,-0.397461 0.0215,-0.2792969 0.11817,-0.3222656 1.20312,0.1289062 2.3955,0.1289062 1.27833,0 2.19141,-0.1289062 0.0752,0.1181641 0.0644,0.3867187 0,0.2578125 -0.0644,0.3330079 -0.33301,0 -0.95605,0.1611328 -0.61231,0.1611328 -0.9668,0.4189453 -2.75,1.9980471 -4.03906,3.0830081 0.50488,0.537109 1.11718,1.224609 0.62305,0.6875 1.10645,1.235351 0.49414,0.547852 0.95605,1.063477 0.47266,0.515625 0.80567,0.870117 0.33301,0.354492 0.50488,0.494141 0.45117,0.354492 1.0957,0.526367 0.56934,0.150391 1.07422,0.150391 0.0645,0 0.12891,0 0.043,0.06445 0.0645,0.279296 0,0.05371 0,0.09668 0,0.139649 -0.043,0.214844 -0.13964,0.06445 -0.63379,0.107422 -0.49414,0.04297 -0.98828,0.04297 -0.98828,0 -1.85839,-0.354493 -0.85938,-0.365234 -1.20313,-0.741211 -2.14844,-2.320312 -3.56641,-3.856445 -0.043,-0.06445 -0.13964,-0.118164 -0.0967,-0.05371 -0.16114,-0.08594 l -0.0752,-0.02149 v 2.191406 q 0,1.439454 0.1289,1.847657 0.0215,0.08594 0.22559,0.171875 0.2041,0.08594 0.47266,0.128906 0.26855,0.04297 0.50488,0.0752 0.23633,0.02148 0.36523,0.02148 0.0752,0.09668 0.0752,0.365234 0.0107,0.257812 -0.0752,0.354492 -0.34375,-0.02148 -0.88086,-0.05371 -0.53711,-0.03223 -0.94531,-0.05371 -0.4082,-0.02148 -0.84863,-0.02148 -0.42969,0 -0.83789,0.02148 -0.39746,0.02148 -0.92383,0.05371 -0.52637,0.03223 -0.87012,0.05371 -0.0967,-0.09668 -0.0967,-0.333008 0,-0.279297 0.0967,-0.386718 z" style="font-style:normal;font-variant:normal;font-weight:normal;font-stretch:normal;font-size:22px;line-height:1.25;font-family:'Crimson Text';-inkscape-font-specification:'Crimson Text';letter-spacing:0px;word-spacing:0px;fill:#222222;fill-opacity:1;stroke:none"/>
	<path d="m 201.85645,16.177734 q 0,-0.365234 0.19335,-0.676757 0.19336,-0.311524 0.51563,-0.494141 0.32227,-0.182617 0.6875,-0.182617 0.55859,0 0.95605,0.397461 0.39747,0.386718 0.39747,0.956054 0,0.558594 -0.39747,0.977539 -0.39746,0.418946 -0.95605,0.418946 -0.55859,0 -0.97754,-0.418946 -0.41894,-0.418945 -0.41894,-0.977539 z" style="font-style:normal;font-variant:normal;font-weight:normal;font-stretch:normal;font-size:22px;line-height:1.25;font-family:'Crimson Text';-inkscape-font-specification:'Crimson Text';letter-spacing:0px;word-spacing:0px;fill:#222222;fill-opacity:1;stroke:none"/>
	<path d="m 206.78711,12.460938 q 0,-0.88086 0.26855,-1.708008 0.26856,-0.8378909 0.73047,-1.4931644 0.46192,-0.6552734 1.06348,-1.203125 0.60156,-0.5478515 1.26758,-0.9130859 0.67676,-0.3652344 1.375,-0.5585938 0.70898,-0.2041015 1.35351,-0.2041015 1.35352,0 2.24512,0.6015625 0.0859,0.075195 0.16113,0.3007812 0.0859,0.2148438 0.0859,0.3867188 0,0.6230469 -0.29004,0.9130859 -0.2793,0.2900391 -0.65527,0.2900391 -0.24707,0 -0.50488,-0.1611328 -0.24708,-0.1611328 -0.52637,-0.4189453 -0.2793,-0.2578125 -0.40821,-0.3437501 -0.42968,-0.2792968 -0.69824,-0.3759765 -0.26855,-0.09668 -0.73047,-0.09668 -0.39746,0 -0.79492,0.1826172 -0.39746,0.171875 -0.76269,0.5371094 -0.3545,0.3544922 -0.63379,0.8486328 -0.26856,0.4833984 -0.44043,1.1601564 -0.16113,0.676758 -0.16113,1.428711 0,1.063477 0.31152,1.890625 0.32226,0.816406 0.87012,1.321289 0.55859,0.494141 1.27832,0.751953 0.71972,0.247071 1.5791,0.247071 0.39746,0 0.77344,-0.09668 0.37597,-0.09668 0.65527,-0.236328 0.2793,-0.139649 0.53711,-0.322266 0.26855,-0.193359 0.4082,-0.333008 0.15039,-0.139648 0.26856,-0.279297 0.0215,0 0.0644,0.04297 0.043,0.04297 0.0859,0.128906 0.0537,0.08594 0.0537,0.182618 0,0.193359 -0.15039,0.440429 -0.2041,0.322266 -0.50489,0.644532 -0.29004,0.322265 -0.74121,0.676757 -0.45117,0.354493 -1.08496,0.580078 -0.62304,0.225586 -1.31054,0.225586 -0.88086,0 -1.67579,-0.268554 -0.79492,-0.279297 -1.40722,-0.762696 -0.60157,-0.483398 -1.05274,-1.117187 -0.44043,-0.633789 -0.67675,-1.375 -0.22559,-0.741211 -0.22559,-1.514648 z" style="font-style:normal;font-variant:normal;font-weight:normal;font-stretch:normal;font-size:22px;line-height:1.25;font-family:'Crimson Text';-inkscape-font-specification:'Crimson Text';letter-spacing:0px;word-spacing:0px;fill:#222222;fill-opacity:1;stroke:none"/>
	<path d="m 217.37891,11.988281 q 0,-1.192383 0.4082,-2.2343747 0.4082,-1.0419922 1.10644,-1.7832032 0.70899,-0.7519531 1.69727,-1.1816406 0.98828,-0.4296875 2.09473,-0.4296875 1.61132,0 2.83593,0.7089844 1.22461,0.7089843 1.8584,1.9335937 0.64453,1.2246099 0.64453,2.7822269 0,1.192383 -0.4082,2.245117 -0.4082,1.052734 -1.10644,1.81543 -0.69825,0.751953 -1.68653,1.192382 -0.97754,0.429688 -2.08398,0.429688 -1.21387,0 -2.22364,-0.418945 -1.00976,-0.418946 -1.69726,-1.149414 -0.67676,-0.730469 -1.06348,-1.740235 -0.37597,-1.009765 -0.37597,-2.169922 z m 2.14843,-0.504883 q 0,0.741211 0.13965,1.47168 0.13965,0.730469 0.42969,1.396485 0.29004,0.666015 0.69824,1.18164 0.4082,0.504883 0.97754,0.816406 0.56934,0.300782 1.21387,0.300782 0.51562,0 0.94531,-0.171875 0.44043,-0.171875 0.75195,-0.472657 0.31153,-0.300781 0.53711,-0.698242 0.23633,-0.408203 0.37598,-0.891601 0.13965,-0.494141 0.2041,-0.999024 0.0752,-0.515625 0.0752,-1.052734 0,-0.923828 -0.23633,-1.836914 -0.22559,-0.9130862 -0.65528,-1.6650393 -0.42968,-0.7519531 -1.10644,-1.2138672 -0.66602,-0.4726563 -1.46094,-0.4726563 -0.62304,0 -1.11719,0.2470704 -0.49414,0.2470703 -0.82714,0.6552734 -0.32227,0.4082031 -0.54786,0.9667969 -0.21484,0.5585937 -0.31152,1.1708981 -0.0859,0.601563 -0.0859,1.267578 z" style="font-style:normal;font-variant:normal;font-weight:normal;font-stretch:normal;font-size:22px;line-height:1.25;font-family:'Crimson Text';-inkscape-font-specification:'Crimson Text';letter-spacing:0px;word-spacing:0px;fill:#222222;fill-opacity:1;stroke:none"/>
	<path d="m 229.8291,7.734375 q 0,-0.032227 0,-0.075195 0,-0.1933594 0.0537,-0.2792969 2.12696,-0.3007812 3.56641,-1.0527344 0.0859,0 0.17187,0.1503907 0.0967,0.1503906 0.0967,0.2470703 -0.15039,1.0527343 -0.15039,1.2998047 0,0.09668 0.0537,0.09668 0.0215,0 0.0752,-0.042969 0.0322,-0.032227 0.0859,-0.085937 0.36523,-0.3007813 0.62304,-0.4941406 0.25782,-0.2041016 0.71973,-0.5048828 0.46191,-0.3007813 0.93457,-0.4511719 0.47266,-0.1611328 0.92383,-0.1611328 1.13867,0 1.83691,0.4941406 0.70899,0.4833984 1.00977,1.5683594 2.2666,-2.0625 3.66308,-2.0625 0.79493,0 1.36426,0.2148437 0.56934,0.2041016 0.92383,0.5908203 0.36523,0.3867188 0.56934,1.0634766 0.2041,0.6767578 0.27929,1.4716797 0.0752,0.7949224 0.0752,1.9443364 v 2.739257 q 0,1.439454 0.11816,1.847657 0.0537,0.171875 0.63379,0.290039 0.58008,0.107422 0.94531,0.107422 0.0859,0.107421 0.0859,0.386718 0,0.236328 -0.0859,0.333008 -0.34375,-0.02148 -0.88086,-0.05371 -0.53711,-0.03223 -0.94531,-0.05371 -0.4082,-0.02148 -0.84863,-0.02148 -0.33301,0 -0.6875,0.02148 -0.34375,0.01074 -0.60156,0.03223 -0.25782,0.01074 -0.65528,0.03223 -0.38672,0.03223 -0.69824,0.04297 -0.0859,-0.09668 -0.0859,-0.354492 0.0108,-0.268555 0.0859,-0.365234 0.36524,0 0.94531,-0.107422 0.58008,-0.118164 0.63379,-0.290039 0.11817,-0.408203 0.11817,-1.847657 v -2.664062 q 0,-0.805664 -0.0537,-1.364258 -0.043,-0.5585937 -0.19336,-1.0742187 -0.13965,-0.515625 -0.39746,-0.8164063 -0.25782,-0.3115234 -0.67676,-0.4833984 -0.41895,-0.1826172 -1.02051,-0.1826172 -0.41895,0 -0.8916,0.2041016 -0.46192,0.1933593 -0.79492,0.4511718 -0.32227,0.2470704 -0.53711,0.4726563 -0.21485,0.2255859 -0.21485,0.3007812 0,0.010742 0.0108,0.1503907 0.0107,0.1396484 0.0107,0.171875 0.0967,0.633789 0.0967,1.772461 v 3.061523 q 0,1.439454 0.1289,1.847657 0.0322,0.118164 0.36524,0.214843 0.34375,0.09668 0.67676,0.139649 0.333,0.04297 0.52636,0.04297 0.0752,0.09668 0.0859,0.365234 0.0107,0.257812 -0.0859,0.354492 -0.30078,-0.01074 -0.69824,-0.04297 -0.39746,-0.02148 -0.66602,-0.03223 -0.25781,-0.02148 -0.6123,-0.03223 -0.35449,-0.02148 -0.6875,-0.02148 -0.42969,0 -0.83789,0.02148 -0.4082,0.02148 -0.93457,0.05371 -0.52637,0.03223 -0.87012,0.05371 -0.0859,-0.09668 -0.0859,-0.354492 0.0108,-0.268555 0.0859,-0.365234 0.35449,0 0.93457,-0.107422 0.59082,-0.118164 0.63379,-0.290039 0.12891,-0.408203 0.12891,-1.847657 v -2.545898 q 0,-1.160156 -0.11817,-1.9121095 -0.10742,-0.7519531 -0.38672,-1.2353515 -0.27929,-0.4941407 -0.71972,-0.6875 -0.44043,-0.2041016 -1.11719,-0.2041016 -0.39746,0 -0.83789,0.171875 -0.42969,0.171875 -0.75195,0.3974609 -0.31153,0.225586 -0.52637,0.4511719 -0.2041,0.225586 -0.2041,0.3544922 v 5.2099606 q 0,1.439454 0.1289,1.847657 0.0108,0.06445 0.10743,0.128906 0.10742,0.05371 0.25781,0.09668 0.15039,0.03223 0.32226,0.0752 0.18262,0.03223 0.3545,0.05371 0.17187,0.02148 0.30078,0.03223 0.13965,0.01074 0.22558,0.01074 0.0752,0.09668 0.0752,0.365234 0.0107,0.257812 -0.0752,0.354492 -0.34375,-0.02148 -0.88086,-0.05371 -0.5371,-0.03223 -0.94531,-0.05371 -0.4082,-0.02148 -0.84863,-0.02148 -0.42969,0 -0.83789,0.02148 -0.39746,0.02148 -0.92383,0.05371 -0.52637,0.03223 -0.87012,0.05371 -0.0967,-0.09668 -0.0967,-0.354492 0.0108,-0.268555 0.0967,-0.365234 0.3545,0 0.93457,-0.107422 0.58008,-0.118164 0.63379,-0.290039 0.11817,-0.408203 0.11817,-1.847657 V 9.8720703 q 0,-1.0957031 -0.11817,-1.3964844 -0.0859,-0.1933593 -0.4834,-0.3007812 -0.39746,-0.1181641 -0.66601,-0.1289063 -0.26856,-0.021484 -0.47266,-0.021484 -0.043,-0.032227 -0.0537,-0.2900391 z" style="font-style:normal;font-variant:normal;font-weight:normal;font-stretch:normal;font-size:22px;line-height:1.25;font-family:'Crimson Text';-inkscape-font-specification:'Crimson Text';letter-spacing:0px;word-spacing:0px;fill:#222222;fill-opacity:1;stroke:none"/>
</svg>
