<?xml version="1.0" encoding="UTF-8" standalone="no"?>
<svg
   height="22.999968"
   version="1.1"
   width="265.32495"
   viewBox="0 0 265.32495 22.999967"
   id="svg44"
   sodipodi:docname="lukas-bystricky-contact.svg"
   inkscape:version="1.1.1 (3bf5ae0, 2021-09-20)"
   xmlns:inkscape="http://www.inkscape.org/namespaces/inkscape"
   xmlns:sodipodi="http://sodipodi.sourceforge.net/DTD/sodipodi-0.dtd"
   xmlns="http://www.w3.org/2000/svg"
   xmlns:svg="http://www.w3.org/2000/svg">
  <defs
     id="defs48" />
  <sodipodi:namedview
     id="namedview46"
     pagecolor="#505050"
     bordercolor="#eeeeee"
     borderopacity="1"
     inkscape:pageshadow="0"
     inkscape:pageopacity="0"
     inkscape:pagecheckerboard="0"
     showgrid="false"
     fit-margin-top="0"
     fit-margin-left="0"
     fit-margin-right="0"
     fit-margin-bottom="0"
     inkscape:zoom="3.1993157"
     inkscape:cx="152.06377"
     inkscape:cy="22.192245"
     inkscape:window-width="1920"
     inkscape:window-height="995"
     inkscape:window-x="0"
     inkscape:window-y="0"
     inkscape:window-maximized="1"
     inkscape:current-layer="svg44" />
  <g
     id="text1549"
     style="font-size:23.9583px;line-height:1.25;font-family:Roboto;-inkscape-font-specification:Roboto;letter-spacing:0px;word-spacing:0px;fill:#222222;stroke-width:0.816763"
     transform="translate(0.38191723,-1.1225182)">
    <path
       d="M 5.2003666,18.324577 V 17.965203 C 3.4274524,17.701662 3.3316192,17.509995 3.3316192,15.545415 V 1.2183514 L 3.0680779,1.1225182 0.31287346,2.1766834 v 0.239583 C 1.5107884,3.2787652 1.4868301,3.5902231 1.4868301,4.5964716 V 15.545415 c -0.023958,1.868747 -0.095833,2.156247 -1.86874733,2.419788 v 0.359374 z"
       style="font-family:'ITC Galliard Std';-inkscape-font-specification:'ITC Galliard Std'"
       id="path27252" />
    <path
       d="m 16.724269,7.7350089 -4.192703,0.3114579 v 0.3593745 c 2.156247,0 2.204164,0.6708324 2.204164,2.7552047 v 5.151034 c -0.718749,0.646874 -1.653123,1.054165 -2.635413,1.054165 -2.8031212,0 -2.5156216,-2.731246 -2.5156216,-3.713536 V 7.7350089 L 5.9669921,8.0464668 V 8.4058413 C 7.955531,8.381883 7.7399063,9.2204235 7.7399063,10.897504 v 4.192703 c 0,1.006248 -0.047917,3.473953 2.6593717,3.473953 1.629164,0 3.042704,-0.814582 4.336452,-1.748956 l -0.07188,1.868748 4.072911,-0.98229 -0.09583,-0.359375 -1.102082,0.09583 c -1.173957,0 -0.98229,-0.910415 -0.958332,-1.772914 z"
       style="font-family:'ITC Galliard Std';-inkscape-font-specification:'ITC Galliard Std'"
       id="path27254" />
    <path
       d="M 22.977371,1.2183514 22.71383,1.1225182 19.958625,2.1766834 v 0.239583 c 1.197915,0.8624988 1.173957,1.1739567 1.173957,2.1802052 V 15.545415 c -0.02396,1.868747 -0.09583,2.156247 -1.868747,2.419788 v 0.359374 h 5.582284 v -0.359374 c -1.772915,-0.263541 -1.868748,-0.455208 -1.868748,-2.419788 z m 1.772914,6.7322822 v 0.3593745 c 1.964581,0.6229158 0.934374,1.2458316 -1.485414,4.1927029 1.245831,1.796872 3.761453,5.989574 6.324991,5.989574 0.551041,0 1.078123,-0.09583 1.629164,-0.167708 v -0.263541 c -1.293748,-0.574999 -2.299997,-1.629164 -3.258329,-2.659371 l -3.210412,-3.66562 C 26.595074,9.6277146 27.721114,8.4537579 30.356527,7.9506336 V 7.5912591 Z"
       style="font-family:'ITC Galliard Std';-inkscape-font-specification:'ITC Galliard Std'"
       id="path27256" />
    <path
       d="m 37.448139,12.862085 v 3.617703 c -0.431249,0.455208 -1.078123,0.886457 -1.724997,0.886457 -1.102082,0 -1.677081,-0.886457 -1.677081,-1.892705 0,-0.335417 0.07187,-0.646874 0.167708,-0.958332 z m -5.294784,1.916664 c -0.09583,0.359374 -0.14375,0.694791 -0.14375,1.054165 0,1.437498 0.862499,2.731246 2.39583,2.731246 1.221874,0 2.276039,-0.766665 3.042704,-1.629164 0.119792,0.934374 0.503125,1.509373 1.509373,1.509373 0.718749,0 1.509373,-0.263541 2.419788,-0.527083 V 17.557912 C 39.149179,17.102704 39.292928,16.59958 39.292928,14.491249 v -3.402078 c 0,-1.9166641 -0.670832,-3.5937451 -2.874996,-3.5937451 -1.940622,0 -4.576035,2.4916632 -4.576035,3.1385371 0,0.263541 0.359375,0.239583 0.551041,0.239583 l 1.197915,-0.07187 c 0,-1.3177062 -0.167708,-2.1083301 1.485415,-2.1083301 1.892705,0 2.563538,1.0781235 2.371871,3.6895781 z"
       style="font-family:'ITC Galliard Std';-inkscape-font-specification:'ITC Galliard Std'"
       id="path27258" />
    <path
       d="M 48.732467,8.2860498 C 47.965801,7.7589672 47.007469,7.4954259 46.073096,7.4954259 c -1.70104,0 -3.449996,1.0781235 -3.449996,2.9468711 0,3.426037 4.959368,2.874996 4.959368,5.606242 0,1.078123 -0.742707,1.892706 -1.844789,1.892706 -1.701039,0 -2.515621,-1.55729 -2.851037,-3.018746 l -0.551041,0.09583 0.191666,2.659371 c 0.838541,0.598958 1.868748,0.886457 2.922913,0.886457 1.940622,0 3.977078,-1.197915 3.977078,-3.330203 0,-3.090621 -4.959368,-3.018746 -4.959368,-5.4864509 0,-0.958332 0.598957,-1.677081 1.581247,-1.677081 1.365623,0 1.892706,1.3416648 2.228122,2.4437469 l 0.527083,-0.09583 z"
       style="font-family:'ITC Galliard Std';-inkscape-font-specification:'ITC Galliard Std'"
       id="path27260" />
    <path
       d="m 52.326178,17.605828 c 1.293748,0.575 2.371872,0.958332 3.80937,0.958332 2.635413,0 6.540616,-1.844789 6.540616,-6.085408 0,-2.5156212 -1.844789,-4.9833261 -4.504161,-4.9833261 -1.365623,0 -2.827079,0.6947907 -4.001036,1.3416648 V 1.2183514 l -0.263541,-0.095833 -2.755205,1.0541652 v 0.239583 c 1.197915,0.8624988 1.173957,1.1739567 1.173957,2.1802052 z m 1.844789,-8.3854045 c 0.742708,-0.3114579 1.41354,-0.5270826 2.228122,-0.5270826 2.323955,0 4.240619,1.8687471 4.240619,4.7437431 0,3.330204 -2.132289,4.384369 -3.449995,4.384369 -2.779163,0 -3.018746,-2.132289 -3.018746,-4.36041 z"
       style="font-family:'ITC Galliard Std';-inkscape-font-specification:'ITC Galliard Std'"
       id="path27262" />
    <path
       d="m 68.665728,18.971451 -0.790624,1.844789 c -0.167708,0.359375 -0.598957,1.653123 -1.12604,1.653123 -0.287499,0 -1.030207,-0.527082 -1.26979,-0.670832 -0.479166,0.167708 -0.766665,0.622916 -0.766665,1.12604 0,0.670832 0.527082,1.197915 1.173956,1.197915 0.958332,0 1.581248,-0.742707 2.467705,-2.970829 l 3.689578,-9.271862 1.006249,-2.3239553 C 73.505305,8.6454243 73.840721,8.2141749 74.894886,8.0943834 V 7.7350089 h -4.192702 v 0.3593745 c 1.772914,0.239583 1.581247,1.0781235 0.503124,4.1927026 L 69.719893,16.59958 67.37198,10.514172 C 66.892814,9.2922984 66.413648,8.1902166 68.234479,8.0943834 V 7.7350089 h -4.959368 v 0.3593745 c 1.197915,0.1916664 1.293748,0.4312494 1.724997,1.5093729 z"
       style="font-family:'ITC Galliard Std';-inkscape-font-specification:'ITC Galliard Std'"
       id="path27264" />
    <path
       d="M 81.794856,8.2860498 C 81.028191,7.7589672 80.069859,7.4954259 79.135485,7.4954259 c -1.701039,0 -3.449995,1.0781235 -3.449995,2.9468711 0,3.426037 4.959368,2.874996 4.959368,5.606242 0,1.078123 -0.742707,1.892706 -1.844789,1.892706 -1.701039,0 -2.515622,-1.55729 -2.851038,-3.018746 l -0.551041,0.09583 0.191667,2.659371 c 0.83854,0.598958 1.868747,0.886457 2.922912,0.886457 1.940622,0 3.977078,-1.197915 3.977078,-3.330203 0,-3.090621 -4.959368,-3.018746 -4.959368,-5.4864509 0,-0.958332 0.598957,-1.677081 1.581248,-1.677081 1.365623,0 1.892705,1.3416648 2.228122,2.4437469 l 0.527082,-0.09583 z"
       style="font-family:'ITC Galliard Std';-inkscape-font-specification:'ITC Galliard Std'"
       id="path27266" />
    <path
       d="m 87.281273,8.9808405 h 3.785412 V 7.9745919 H 87.281273 V 5.4829287 h -0.215624 l -3.354162,3.3302037 0.119791,0.1677081 h 1.605206 v 6.5166575 c 0,1.844789 -0.119791,3.066662 2.204164,3.066662 1.317706,0 2.587496,-0.311458 3.785411,-0.766665 l -0.09583,-0.383333 c -0.455208,0.119791 -0.934374,0.167708 -1.41354,0.167708 -2.611454,0 -2.635413,-1.341665 -2.635413,-3.473953 z"
       style="font-family:'ITC Galliard Std';-inkscape-font-specification:'ITC Galliard Std'"
       id="path27268" />
    <path
       d="m 95.331222,13.125626 c 0,-0.359374 -0.167708,-3.6177029 1.868748,-3.8093693 0.527082,-0.047917 1.12604,0.479166 1.533331,0.7906243 0.551041,-0.2635417 1.245832,-0.8624992 1.245832,-1.5093733 0,-0.6708324 -0.551041,-1.1020818 -1.221874,-1.1020818 -1.509373,0 -2.851037,1.6531227 -3.37812,2.9229121 h -0.04792 l 0.09583,-2.8270789 -0.263542,-0.095833 -2.851037,1.0541652 v 0.239583 c 1.197915,0.8624988 1.173956,1.1739567 1.173956,2.1802047 v 4.576036 c -0.02396,1.868747 -0.09583,2.156247 -1.748955,2.419788 v 0.359374 h 5.989574 v -0.359374 c -2.299996,-0.263541 -2.39583,-0.455208 -2.39583,-2.419788 z"
       style="font-family:'ITC Galliard Std';-inkscape-font-specification:'ITC Galliard Std'"
       id="path27270" />
    <path
       d="m 105.82492,18.324577 v -0.359374 c -1.77291,-0.263541 -1.86874,-0.455208 -1.86874,-2.419788 V 7.5912591 l -0.26354,-0.095833 -3.04271,1.0541652 v 0.239583 c 1.48542,0.8624988 1.46146,1.1739567 1.46146,2.1802047 v 4.576036 c -0.024,1.868747 -0.0958,2.156247 -1.86875,2.419788 v 0.359374 z M 102.92597,1.745434 c -0.67083,0 -1.22187,0.5510409 -1.22187,1.2218733 0,0.6708324 0.55104,1.2218732 1.22187,1.2218732 0.67083,0 1.22187,-0.5510408 1.22187,-1.2218732 0,-0.6708324 -0.55104,-1.2218733 -1.22187,-1.2218733 z"
       style="font-family:'ITC Galliard Std';-inkscape-font-specification:'ITC Galliard Std'"
       id="path27272" />
    <path
       d="m 115.93529,16.216247 c -0.79063,0.574999 -1.48542,0.934374 -2.46771,0.934374 -2.37187,0 -4.4802,-1.964581 -4.4802,-5.055202 0,-1.629164 0.91042,-3.8572858 2.82708,-3.8572858 1.19791,0 2.06041,1.5572895 2.89895,1.5572895 0.55104,0 1.12604,-0.5749992 1.12604,-1.1020818 0,-1.1020818 -1.84479,-1.197915 -2.61145,-1.197915 -3.23437,0 -6.15728,2.4677049 -6.15728,5.8218671 0,2.803121 2.01249,5.246867 4.93541,5.246867 1.65312,0 3.13853,-0.766665 4.21666,-1.988539 z"
       style="font-family:'ITC Galliard Std';-inkscape-font-specification:'ITC Galliard Std'"
       id="path27274" />
    <path
       d="m 120.72691,1.2183514 -0.26354,-0.095833 -2.7552,1.0541652 v 0.239583 c 1.19791,0.8624988 1.17395,1.1739567 1.17395,2.1802052 V 15.545415 c -0.0239,1.868747 -0.0958,2.156247 -1.86874,2.419788 v 0.359374 h 5.58228 v -0.359374 c -1.77291,-0.263541 -1.86875,-0.455208 -1.86875,-2.419788 z m 1.77292,6.7322822 v 0.3593745 c 1.96458,0.6229158 0.93437,1.2458316 -1.48542,4.1927029 1.24583,1.796872 3.76146,5.989574 6.32499,5.989574 0.55104,0 1.07813,-0.09583 1.62917,-0.167708 v -0.263541 c -1.29375,-0.574999 -2.3,-1.629164 -3.25833,-2.659371 l -3.21041,-3.66562 c 1.84479,-2.1083304 2.97083,-3.2822871 5.60624,-3.7854114 V 7.5912591 Z"
       style="font-family:'ITC Galliard Std';-inkscape-font-specification:'ITC Galliard Std'"
       id="path27276" />
    <path
       d="m 133.83206,18.971451 -0.79062,1.844789 c -0.16771,0.359375 -0.59896,1.653123 -1.12604,1.653123 -0.2875,0 -1.03021,-0.527082 -1.26979,-0.670832 -0.47917,0.167708 -0.76667,0.622916 -0.76667,1.12604 0,0.670832 0.52709,1.197915 1.17396,1.197915 0.95833,0 1.58125,-0.742707 2.46771,-2.970829 l 3.68957,-9.271862 1.00625,-2.3239553 c 0.45521,-0.9104154 0.79063,-1.3416648 1.84479,-1.4614563 V 7.7350089 h -4.1927 v 0.3593745 c 1.77291,0.239583 1.58125,1.0781235 0.50312,4.1927026 l -1.48541,4.312494 -2.34791,-6.085408 c -0.47917,-1.2218736 -0.95834,-2.3239554 0.86249,-2.4197886 V 7.7350089 h -4.95936 v 0.3593745 c 1.19791,0.1916664 1.29374,0.4312494 1.72499,1.5093729 z"
       style="font-family:'ITC Galliard Std';-inkscape-font-specification:'ITC Galliard Std'"
       id="path27278" />
    <path
       d="m 164.67779,14.371458 c -1.07812,0 -2.51562,-1.078124 -2.51562,-3.449995 0,-1.2937484 0.50313,-2.8989545 2.06042,-2.8989545 1.79687,0 2.49166,1.8208308 2.49166,3.3781205 0,1.341665 -0.43125,2.970829 -2.03646,2.970829 z m 1.15,3.80937 c 0.59896,-0.02396 3.71354,-0.359375 3.71354,1.892705 0,2.132289 -2.68333,2.874996 -4.40833,2.874996 -1.34166,0 -3.88124,-0.479166 -3.88124,-2.228122 0,-1.054165 1.36562,-2.012497 2.22812,-2.39583 z m -1.8927,-1.55729 c -2.20417,0.09583 -2.22812,-1.293748 -1.4375,-2.036455 0.575,0.215624 1.19791,0.311457 1.79687,0.311457 2.25208,0 4.45625,-1.389581 4.45625,-3.833327 0,-0.718749 -0.14375,-1.2697903 -0.47917,-1.8687478 l 2.92291,0.071875 V 8.2620915 h -3.42604 c -1.05416,-0.479166 -1.96458,-0.7666656 -3.13853,-0.7666656 -2.25208,0 -4.50416,1.3656231 -4.50416,3.8333281 0,1.341665 0.81458,2.419788 1.96458,3.066662 -0.55104,0.43125 -1.82083,1.365623 -1.82083,2.108331 0,1.102081 1.53333,1.701039 2.44374,1.82083 -1.36562,0.718749 -3.21041,1.55729 -3.21041,3.354162 0,1.006249 1.17396,2.443747 4.025,2.443747 4.26457,0 7.45103,-2.68333 7.45103,-5.031243 0,-1.605206 -1.41354,-2.68333 -3.97708,-2.587496 z"
       style="font-family:'ITC Galliard Std';-inkscape-font-specification:'ITC Galliard Std'"
       id="path27282" />
    <path
       d="m 175.57881,9.9391725 c 0.67083,-0.6947907 1.38958,-1.197915 2.41979,-1.197915 2.97083,0 2.68333,2.9708295 2.68333,4.2645775 v 2.53958 c -0.024,1.868747 -0.0958,2.156247 -1.74896,2.419788 v 0.359374 h 5.27083 v -0.359374 c -1.58125,-0.263541 -1.67708,-0.455208 -1.67708,-2.419788 V 9.9152142 c 0.69479,-0.718749 1.36562,-1.1739567 2.39583,-1.1739567 3.09062,0 2.70728,3.3541615 2.70728,4.2645775 v 2.53958 c -0.024,1.868747 -0.0958,2.156247 -1.74895,2.419788 v 0.359374 h 5.27082 v -0.359374 c -1.58124,-0.263541 -1.67708,-0.455208 -1.67708,-2.419788 v -3.138538 c 0,-1.293748 0.43125,-4.9114511 -3.11458,-4.9114511 -1.55729,0 -2.85103,0.9822903 -3.97707,1.9406223 -0.43125,-1.2218733 -1.67709,-1.9406223 -2.92292,-1.9406223 -1.53333,0 -2.87499,0.9822903 -3.97707,1.9406223 l 0.19166,-1.8447891 -0.26354,-0.095833 -2.85104,1.0541652 v 0.239583 c 1.19792,0.8624988 1.17396,1.1739567 1.17396,2.1802047 v 4.576036 c -0.024,1.868747 -0.0958,2.156247 -1.74896,2.419788 v 0.359374 h 5.27083 v -0.359374 c -1.58125,-0.263541 -1.67708,-0.455208 -1.67708,-2.419788 z"
       style="font-family:'ITC Galliard Std';-inkscape-font-specification:'ITC Galliard Std'"
       id="path27284" />
    <path
       d="m 198.05165,12.862085 v 3.617703 c -0.43125,0.455208 -1.07813,0.886457 -1.725,0.886457 -1.10208,0 -1.67708,-0.886457 -1.67708,-1.892705 0,-0.335417 0.0719,-0.646874 0.1677,-0.958332 z m -5.29479,1.916664 c -0.0958,0.359374 -0.14375,0.694791 -0.14375,1.054165 0,1.437498 0.8625,2.731246 2.39583,2.731246 1.22187,0 2.27604,-0.766665 3.04271,-1.629164 0.11979,0.934374 0.50312,1.509373 1.50937,1.509373 0.71875,0 1.50937,-0.263541 2.41979,-0.527083 v -0.359374 c -2.22813,-0.455208 -2.08438,-0.958332 -2.08438,-3.066663 v -3.402078 c 0,-1.9166641 -0.67083,-3.5937451 -2.87499,-3.5937451 -1.94062,0 -4.57604,2.4916632 -4.57604,3.1385371 0,0.263541 0.35938,0.239583 0.55104,0.239583 l 1.19792,-0.07187 c 0,-1.3177062 -0.16771,-2.1083301 1.48541,-2.1083301 1.89271,0 2.56354,1.0781235 2.37188,3.6895781 z"
       style="font-family:'ITC Galliard Std';-inkscape-font-specification:'ITC Galliard Std'"
       id="path27286" />
    <path
       d="m 207.97036,18.324577 v -0.359374 c -1.77292,-0.263541 -1.86875,-0.455208 -1.86875,-2.419788 V 7.5912591 l -0.26354,-0.095833 -3.04271,1.0541652 v 0.239583 c 1.48542,0.8624988 1.46146,1.1739567 1.46146,2.1802047 v 4.576036 c -0.024,1.868747 -0.0958,2.156247 -1.86875,2.419788 v 0.359374 z M 205.0714,1.745434 c -0.67083,0 -1.22187,0.5510409 -1.22187,1.2218733 0,0.6708324 0.55104,1.2218732 1.22187,1.2218732 0.67083,0 1.22187,-0.5510408 1.22187,-1.2218732 0,-0.6708324 -0.55104,-1.2218733 -1.22187,-1.2218733 z"
       style="font-family:'ITC Galliard Std';-inkscape-font-specification:'ITC Galliard Std'"
       id="path27288" />
    <path
       d="m 214.19947,18.324577 v -0.359374 c -1.77292,-0.263541 -1.86875,-0.455208 -1.86875,-2.419788 V 1.2183514 l -0.26354,-0.095833 -2.75521,1.0541652 v 0.239583 c 1.19792,0.8624988 1.17396,1.1739567 1.17396,2.1802052 V 15.545415 c -0.024,1.868747 -0.0958,2.156247 -1.86875,2.419788 v 0.359374 z"
       style="font-family:'ITC Galliard Std';-inkscape-font-specification:'ITC Galliard Std'"
       id="path27290" />
    <path
       d="m 218.17651,18.612077 c 0.71875,0 1.31771,-0.574999 1.31771,-1.293748 0,-0.718749 -0.59896,-1.317707 -1.31771,-1.317707 -0.71875,0 -1.29375,0.598958 -1.29375,1.317707 0,0.718749 0.575,1.293748 1.29375,1.293748 z"
       style="font-family:'ITC Galliard Std';-inkscape-font-specification:'ITC Galliard Std'"
       id="path27292" />
    <path
       d="m 231.01812,16.216247 c -0.79062,0.574999 -1.48542,0.934374 -2.46771,0.934374 -2.37187,0 -4.4802,-1.964581 -4.4802,-5.055202 0,-1.629164 0.91042,-3.8572858 2.82708,-3.8572858 1.19792,0 2.06042,1.5572895 2.89896,1.5572895 0.55104,0 1.12604,-0.5749992 1.12604,-1.1020818 0,-1.1020818 -1.84479,-1.197915 -2.61146,-1.197915 -3.23437,0 -6.15728,2.4677049 -6.15728,5.8218671 0,2.803121 2.0125,5.246867 4.93541,5.246867 1.65312,0 3.13854,-0.766665 4.21666,-1.988539 z"
       style="font-family:'ITC Galliard Std';-inkscape-font-specification:'ITC Galliard Std'"
       id="path27294" />
    <path
       d="m 244.48266,12.981877 c 0,-3.3781207 -2.61146,-5.4864511 -5.86979,-5.4864511 -3.21041,0 -5.9177,2.2760385 -5.9177,5.5822841 0,3.402078 2.61146,5.48645 5.89375,5.48645 3.16249,0 5.89374,-2.323955 5.89374,-5.582283 z m -2.22812,0.239583 c 0,2.060413 -1.07813,4.815618 -3.49792,4.815618 -2.58749,0 -3.83332,-2.898955 -3.83332,-5.127076 0,-2.204164 1.05416,-4.8874935 3.64166,-4.8874935 2.61145,0 3.68958,2.9947875 3.68958,5.1989515 z"
       style="font-family:'ITC Galliard Std';-inkscape-font-specification:'ITC Galliard Std'"
       id="path27296" />
    <path
       d="m 249.37014,9.9391725 c 0.67084,-0.6947907 1.38959,-1.197915 2.41979,-1.197915 2.97083,0 2.68333,2.9708295 2.68333,4.2645775 v 2.53958 c -0.024,1.868747 -0.0958,2.156247 -1.74895,2.419788 v 0.359374 h 5.27082 v -0.359374 c -1.58125,-0.263541 -1.67708,-0.455208 -1.67708,-2.419788 V 9.9152142 c 0.69479,-0.718749 1.36562,-1.1739567 2.39583,-1.1739567 3.09062,0 2.70729,3.3541615 2.70729,4.2645775 v 2.53958 c -0.024,1.868747 -0.0958,2.156247 -1.74896,2.419788 v 0.359374 h 5.27083 v -0.359374 c -1.58125,-0.263541 -1.67708,-0.455208 -1.67708,-2.419788 v -3.138538 c 0,-1.293748 0.43125,-4.9114511 -3.11458,-4.9114511 -1.55729,0 -2.85104,0.9822903 -3.97708,1.9406223 -0.43125,-1.2218733 -1.67708,-1.9406223 -2.92291,-1.9406223 -1.53333,0 -2.875,0.9822903 -3.97708,1.9406223 l 0.19167,-1.8447891 -0.26354,-0.095833 -2.85104,1.0541652 v 0.239583 c 1.19791,0.8624988 1.17396,1.1739567 1.17396,2.1802047 v 4.576036 c -0.024,1.868747 -0.0958,2.156247 -1.74896,2.419788 v 0.359374 h 5.27083 v -0.359374 c -1.58125,-0.263541 -1.67709,-0.455208 -1.67709,-2.419788 z"
       style="font-family:'ITC Galliard Std';-inkscape-font-specification:'ITC Galliard Std'"
       id="path27298" />
  </g>
  <path
     d="m 141.55237,13.722039 q 0,-1.224609 0.27931,-2.449219 0.27929,-1.235351 0.80565,-2.3632812 0.53711,-1.1279298 1.34278,-2.1054688 0.8164,-0.977539 1.80469,-1.697265 0.99902,-0.730469 2.27734,-1.138672 1.27832,-0.418946 2.68556,-0.418946 1.02049,0 1.93358,0.225586 0.92383,0.214844 1.6543,0.623047 0.73047,0.397461 1.34277,0.956055 0.61231,0.547851 1.05273,1.224609 0.44043,0.666016 0.74122,1.428711 0.30078,0.762696 0.45117,1.5791018 0.15039,0.8056642 0.15039,1.6435552 0,1.407226 -0.39745,2.685546 -0.39746,1.267579 -1.07422,2.202149 -0.67676,0.923828 -1.63282,1.471679 -0.95605,0.53711 -2.03028,0.53711 -0.96679,0 -1.52539,-0.515625 -0.54785,-0.526367 -0.54785,-1.62207 0,-0.225586 0.0537,-0.612305 0.0644,-0.386719 0.12892,-0.537109 -0.16114,0.311523 -0.40821,0.698242 -0.24707,0.375976 -0.62304,0.83789 -0.37598,0.461914 -0.7627,0.837891 -0.38672,0.365234 -0.84864,0.623047 -0.4619,0.24707 -0.88085,0.24707 -0.74121,0 -1.28906,-0.483398 -0.54785,-0.483399 -0.81642,-1.235352 -0.25781,-0.751953 -0.25781,-1.654297 0,-0.880859 0.29005,-1.815429 0.30077,-0.934571 0.79492,-1.761719 0.50488,-0.837891 1.20312,-1.5791022 0.69824,-0.7412108 1.47168,-1.2783198 0.78418,-0.537109 1.6543,-0.848633 0.88086,-0.311523 1.71875,-0.311523 0.93456,0 1.81543,0.322265 l -1.52539,7.874024 q -0.0752,0.300781 -0.0752,0.623047 0,0.569336 0.333,0.848632 0.33301,0.268555 0.87012,0.268555 0.58008,0 1.18164,-0.461914 0.61231,-0.472656 1.08496,-1.235351 0.4834,-0.773438 0.78418,-1.847657 0.31152,-1.074218 0.31152,-2.202148 0,-1.03125 -0.23632,-1.9980472 -0.23633,-0.9667968 -0.75196,-1.8369138 -0.50488,-0.870117 -1.23535,-1.514649 -0.73047,-0.644531 -1.79394,-1.020507 -1.05274,-0.386719 -2.30957,-0.386719 -1.23536,0 -2.37403,0.375976 -1.12793,0.375977 -2.01953,1.041993 -0.88086,0.655273 -1.61133,1.546875 -0.73047,0.880859 -1.21386,1.9013668 -0.47266,1.0205082 -0.73047,2.1269532 -0.25781,1.095703 -0.25781,2.180664 0,1.052734 0.25781,2.041016 0.26855,0.977539 0.73047,1.750976 0.46191,0.773438 1.05273,1.375 0.59082,0.612305 1.27832,1.009766 0.60156,0.354492 1.00977,0.483398 0.4082,0.139649 0.85937,0.214844 0,0.09668 -0.16113,0.204102 -0.16113,0.107421 -0.37598,0.171875 -0.21484,0.0752 -0.35449,0.0752 -0.59082,0 -0.97754,-0.150391 -0.85937,-0.322265 -1.64356,-0.999023 -0.77343,-0.666016 -1.375,-1.589844 -0.59081,-0.913086 -0.94531,-2.105469 -0.34375,-1.203125 -0.34375,-2.481445 z m 5.45704,0.472656 q 0,2.438477 1.26758,2.438477 0.60156,0 1.34278,-0.870117 0.7412,-0.88086 1.32128,-2.15918 0.59082,-1.289063 0.82715,-2.481445 l 0.49413,-2.535157 q -0.29003,-0.322265 -1.02049,-0.322265 -0.5586,0 -1.1709,0.333008 -0.61231,0.3330068 -1.14943,0.9345698 -0.53709,0.5908202 -0.97753,1.3320312 -0.42969,0.741211 -0.6875,1.62207 -0.24706,0.870118 -0.24707,1.708008 z"
     style="font-style:normal;font-variant:normal;font-weight:normal;font-stretch:normal;font-size:22px;line-height:1.25;font-family:'Crimson Text';-inkscape-font-specification:'Crimson Text';letter-spacing:0px;word-spacing:0px;fill:#222222;fill-opacity:1;stroke:none"
     id="path20" />
</svg>
