<?xml version="1.0" encoding="utf-8"?>
<svg xmlns="http://www.w3.org/2000/svg" height="70" version="1.1" viewbox="0 0 70 70" width="70">
	<path d="M 40.642717,9.9242129e-4 C 28.253792,-0.1058959 14.622854,8.4317299 13.781748,20.645555 c -0.389836,5.66084 0.411229,11.176249 2.091008,16.575784 1.757381,5.649392 4.263237,10.783432 2.967632,16.876452 -0.993201,4.670809 -4.59087,6.607954 -8.701799,8.16489 -1.3553689,0.513245 -3.9178873,0.727335 -4.8126388,1.977771 -0.3591704,0.501942 -0.3079183,1.485708 -0.3123823,2.33701 -0.0058,1.107423 0,2.12011 0,2.891488 V 70 H 64.98901 V 66.755129 C 60.064144,65.837731 50.999383,66.37938 49.393326,60.124816 c 0,0 -0.186868,-1.379765 -0.152287,-2.071485 0.03629,-0.725838 0.376811,-2.147629 0.376811,-2.147629 6.060169,-0.533139 7.881947,-8.986363 8.863846,-13.863914 C 60.936743,29.843094 64.651608,12.253298 52.933007,3.7476272 49.440719,1.2127931 45.123818,0.03966074 40.642717,9.9242129e-4 Z M 39.928143,1.7991428 c 7.947968,0.010247 15.917685,3.5374185 18.506696,11.6128112 2.215154,6.909157 0.601441,15.606245 -0.499812,22.602808 -0.845373,5.371209 -1.347924,12.722913 -5.359308,16.849119 -1.738359,1.788098 -3.704621,1.555626 -5.970405,1.280767 -4.669592,-0.56629 -10.250738,-2.59809 -13.260627,-6.376504 2.061141,5.61955 9.245674,8.122196 14.767872,8.137558 -2.010512,9.745765 8.073409,11.729906 15.671827,12.056003 v 0.53105 H 6.5208123 V 64.947216 C 15.572003,63.819453 21.700427,57.25957 20.601443,48.070765 19.156321,35.987502 10.562504,24.140358 18.350338,12.205377 21.126427,7.9510766 26.260269,5.0409808 30.933487,3.3434826 33.714236,2.3333946 36.818066,1.795133 39.928143,1.7991428 Z m -26.37092,18.7409832 0.09371,0.208905 z m -0.103477,0.406097 v 0.903956 z m 0.103477,1.101148 0.09371,0.206953 z m 2.005104,14.871348 0.300668,0.30262 z m 43.200513,4.115635 0.09566,0.206953 z m -0.300667,1.206577 0.09371,0.206954 z m -39.584689,6.43117 v 1.507245 z m 30.543175,8.637369 0.09371,0.206953 z" style="fill:#222222;fill-opacity:1;stroke:none;stroke-width:0.99962324"/>
</svg>
