<?xml version="1.0" encoding="utf-8"?>
<svg xmlns="http://www.w3.org/2000/svg" height="20.388672" version="1.1" width="156.78223" viewBox="0 0 156.78223 20.388672">
	<path d="M 0,7.734375 Q 0,7.7021484 0,7.6591797 0,7.4658203 0.05371094,7.3798828 2.1806641,7.0791016 3.6201172,6.3271484 q 0.085937,0 0.171875,0.1503907 0.09668,0.1503906 0.09668,0.2470703 -0.021484,0.1503906 -0.09668,1.1279297 -0.075195,0.977539 -0.075195,1.1708984 0,0.064453 0.032227,0.075195 0.042969,0 0.064453,-0.032227 0.1933593,-0.4082032 0.515625,-0.859375 0.3222656,-0.4619141 0.7089843,-0.8701172 0.397461,-0.4082032 0.859375,-0.6660157 0.4619141,-0.2685547 0.859375,-0.2685547 0.4833985,0 0.913086,0.2148438 0.4404297,0.2041016 0.6015625,0.5048828 0.1074219,0.3007813 0.1074219,0.6767578 0,0.6123047 -0.2900391,0.9560547 -0.2792969,0.34375 -0.5371094,0.34375 -0.1181641,0 -0.2578125,-0.053711 Q 7.1650391,8.9912109 7.0683594,8.9267578 6.9824219,8.8623047 6.8320312,8.765625 6.6923828,8.6689453 6.6279297,8.6259766 6.1875,8.3251953 5.7148437,8.3251953 5.328125,8.3251953 4.9414062,8.59375 4.5654297,8.8623047 4.3076172,9.2382813 4.0498047,9.6035156 3.8779297,9.9794922 3.7167969,10.344727 3.7167969,10.570313 v 3.83496 q 0,1.439454 0.1289062,1.847657 0.042969,0.171875 0.8701172,0.290039 0.8378906,0.107422 1.2675781,0.107422 0.075195,0.09668 0.075195,0.365234 0.010742,0.257812 -0.075195,0.354492 -2.5566406,-0.128906 -3.09375,-0.128906 -0.4296875,0 -0.8701171,0.02148 -0.4296876,0.02148 -1.02050786,0.05371 -0.58007813,0.04297 -0.89160157,0.05371 -0.09667968,-0.09668 -0.09667968,-0.354492 0.01074219,-0.268555 0.09667968,-0.365234 0.35449219,0 0.93457033,-0.107422 0.5800781,-0.118164 0.633789,-0.290039 0.1181641,-0.408203 0.1181641,-1.847657 V 9.7646484 q 0,-0.9882812 -0.1181641,-1.2890625 Q 1.5898437,8.2822266 1.1923828,8.1748047 0.79492187,8.0566406 0.52636719,8.0458984 0.2578125,8.0244141 0.05371094,8.0244141 0.01074219,7.9921875 0,7.734375 Z"/>
	<path d="m 9.6787109,11.988281 q 0,-1.192383 0.4082031,-2.2343747 0.408203,-1.0419922 1.106445,-1.7832032 0.708985,-0.7519531 1.697266,-1.1816406 0.988281,-0.4296875 2.094727,-0.4296875 1.611328,0 2.835937,0.7089844 1.224609,0.7089843 1.858398,1.9335937 0.644532,1.2246099 0.644532,2.7822269 0,1.192383 -0.408203,2.245117 -0.408204,1.052734 -1.106446,1.81543 -0.698242,0.751953 -1.686523,1.192382 -0.977539,0.429688 -2.083984,0.429688 -1.213868,0 -2.223633,-0.418945 -1.009766,-0.418946 -1.697266,-1.149414 -0.676758,-0.730469 -1.063476,-1.740235 -0.3759771,-1.009765 -0.3759771,-2.169922 z m 2.1484371,-0.504883 q 0,0.741211 0.139649,1.47168 0.139648,0.730469 0.429687,1.396485 0.290039,0.666015 0.698243,1.18164 0.408203,0.504883 0.977539,0.816406 0.569336,0.300782 1.213867,0.300782 0.515625,0 0.945312,-0.171875 0.44043,-0.171875 0.751953,-0.472657 0.311524,-0.300781 0.53711,-0.698242 0.236328,-0.408203 0.375976,-0.891601 0.139649,-0.494141 0.204102,-0.999024 0.0752,-0.515625 0.0752,-1.052734 0,-0.923828 -0.236328,-1.836914 Q 17.713867,9.6142578 17.28418,8.8623047 16.854492,8.1103516 16.177734,7.6484375 15.511719,7.1757812 14.716797,7.1757812 q -0.623047,0 -1.117188,0.2470704 -0.49414,0.2470703 -0.827148,0.6552734 -0.322266,0.4082031 -0.547852,0.9667969 -0.214843,0.5585937 -0.311523,1.1708981 -0.08594,0.601563 -0.08594,1.267578 z"/>
	<path d="m 21.430664,1.4824219 q 0,-0.075195 -0.01074,-0.1503907 0,-0.085937 0.01074,-0.1611328 0.01074,-0.1611328 0.05371,-0.17187496 Q 23.192383,0.82714844 25.018555,0 q 0.09668,0 0.182617,0.13964844 0.09668,0.12890625 0.09668,0.2578125 Q 25.018555,1.203125 25.018555,2.5673828 v 4.9091797 q 0,0.064453 0,0.1074219 0.01074,0.042969 0.02148,0.118164 0.01074,0.064453 0.04297,0.053711 0.03223,-0.010742 0.08594,-0.032227 0.515625,-0.3759766 1.460938,-0.859375 0.945312,-0.4833984 1.557617,-0.4833984 0.870117,0 1.62207,0.3115234 0.751953,0.3115234 1.278321,0.8378906 0.526367,0.515625 0.902343,1.1816407 0.386719,0.6660156 0.569336,1.3750003 0.19336,0.708984 0.19336,1.396484 0,1.213868 -0.472657,2.320313 -0.472656,1.095703 -1.27832,1.901367 -0.805664,0.805664 -1.96582,1.289063 -1.149414,0.472656 -2.438477,0.472656 -0.537109,0 -1.847656,-0.375977 -0.06445,-0.01074 -0.268555,-0.06445 -0.204101,-0.06445 -0.279297,-0.0752 -0.0752,-0.02148 -0.24707,-0.05371 -0.171875,-0.04297 -0.279297,-0.03223 -0.107422,0 -0.257812,0.02148 -0.150391,0.01074 -0.290039,0.06445 -0.08594,0 -0.204102,-0.225586 Q 22.805664,16.5 22.805664,16.392578 23.106445,15.737305 23.106445,14.555664 V 3.3837891 q 0,-0.9882813 -0.128906,-1.2890625 -0.193359,-0.4511719 -1.514648,-0.4511719 -0.02148,-0.010742 -0.03223,-0.1611328 z m 3.587891,13.3740231 q 0,0.504883 0.354492,0.923828 0.354492,0.418946 0.880859,0.633789 0.526367,0.204102 1.084961,0.204102 0.870117,0 1.643555,-0.612305 0.773437,-0.623046 1.224609,-1.579101 0.451172,-0.966797 0.451172,-1.96582 0,-2.148438 -0.999023,-3.3730474 -0.988282,-1.2353515 -2.664063,-1.2353515 -0.451172,0 -1.052734,0.2363281 -0.601563,0.2363281 -0.794922,0.4296875 -0.128906,0.1289062 -0.128906,0.2792969 z"/>
	<path d="m 34.536133,7.734375 q 0,-0.032227 0,-0.075195 0,-0.1933594 0.05371,-0.2792969 2.126953,-0.3007812 3.566406,-1.0527344 0.08594,0 0.171875,0.1503907 0.09668,0.1503906 0.09668,0.2470703 -0.171875,1.2246093 -0.171875,1.6435547 v 0.8271484 5.2099602 q 0,1.439454 0.128906,1.847657 0.01074,0.06445 0.107422,0.128906 0.107422,0.05371 0.257812,0.09668 0.150391,0.03223 0.322266,0.0752 0.182617,0.03223 0.354492,0.05371 0.171875,0.02148 0.300781,0.03223 0.139649,0.01074 0.225586,0.01074 0.08594,0.107421 0.08594,0.386718 0,0.236328 -0.08594,0.333008 -0.34375,-0.02148 -0.880859,-0.05371 -0.537109,-0.03223 -0.945313,-0.05371 -0.408203,-0.02148 -0.848632,-0.02148 -0.429688,0 -0.837891,0.02148 -0.397461,0.02148 -0.923828,0.05371 -0.526367,0.03223 -0.870117,0.05371 -0.09668,-0.09668 -0.09668,-0.354492 0.01074,-0.268555 0.09668,-0.365234 0.354492,0 0.93457,-0.107422 0.580078,-0.118164 0.633789,-0.290039 0.118164,-0.408203 0.118164,-1.847657 V 9.7646484 q 0,-0.9882812 -0.118164,-1.2890625 Q 36.125977,8.2822266 35.728516,8.1748047 35.331055,8.0566406 35.0625,8.0458984 34.793945,8.0244141 34.589844,8.0244141 34.546875,7.9921875 34.536133,7.734375 Z m 1.675781,-4.3291016 q -0.354492,-0.3652343 -0.354492,-0.8808593 0,-0.5263672 0.354492,-0.8916016 0.365234,-0.3652344 0.891602,-0.3652344 0.526367,0 0.880859,0.3652344 0.365234,0.3652344 0.365234,0.8916016 0,0.515625 -0.365234,0.8808593 -0.354492,0.3544922 -0.880859,0.3544922 -0.526368,0 -0.891602,-0.3544922 z"/>
	<path d="m 41.260742,7.734375 q 0,-0.032227 0,-0.075195 0,-0.1933594 0.05371,-0.2792969 2.126953,-0.3007812 3.566406,-1.0527344 0.08594,0 0.171875,0.1503907 0.09668,0.1503906 0.09668,0.2470703 -0.150391,1.0527343 -0.150391,1.4287109 0,0.09668 0.05371,0.09668 0.02148,0 0.0752,-0.053711 0.204101,-0.225586 0.569336,-0.515625 0.375976,-0.2900391 0.83789,-0.5908204 0.472656,-0.3007812 0.999024,-0.5048828 0.537109,-0.2041015 0.956054,-0.2041015 0.676758,0 1.170899,0.1396484 0.504883,0.1289063 0.859375,0.4296875 0.354492,0.3007813 0.580078,0.7089844 0.236328,0.4082031 0.365234,1.03125 0.139649,0.6230469 0.182617,1.3212888 0.05371,0.698242 0.05371,1.654297 v 2.739257 q 0,1.439454 0.128907,1.847657 0.03223,0.118164 0.365234,0.214843 0.34375,0.09668 0.676758,0.139649 0.333008,0.04297 0.526367,0.04297 0.08594,0.107421 0.08594,0.386718 0,0.236328 -0.08594,0.333008 -0.34375,-0.02148 -0.880859,-0.05371 -0.526368,-0.03223 -0.945313,-0.05371 -0.408203,-0.02148 -0.848633,-0.02148 -0.429687,0 -0.83789,0.02148 -0.397461,0.02148 -0.923828,0.05371 -0.526368,0.03223 -0.870118,0.05371 -0.08594,-0.09668 -0.08594,-0.354492 0.01074,-0.268555 0.08594,-0.365234 0.354493,0 0.934571,-0.107422 0.59082,-0.118164 0.633789,-0.290039 0.128906,-0.408203 0.128906,-1.847657 v -2.492187 q 0,-1.203125 -0.107422,-1.9443355 Q 49.575195,9.2167969 49.285156,8.7226563 49.005859,8.2177734 48.543945,8.0244141 48.082031,7.8203125 47.34082,7.8203125 q -0.418945,0 -0.999023,0.3007813 -0.580078,0.3007812 -0.977539,0.633789 -0.386719,0.3222656 -0.386719,0.4404297 v 5.2099605 q 0,1.439454 0.128906,1.847657 0.01074,0.06445 0.107422,0.128906 0.107422,0.05371 0.257813,0.09668 0.15039,0.03223 0.322265,0.0752 0.182617,0.03223 0.354492,0.05371 0.171875,0.02148 0.300782,0.03223 0.139648,0.01074 0.225586,0.01074 0.0752,0.09668 0.0752,0.365234 0.01074,0.257812 -0.0752,0.354492 -0.34375,-0.02148 -0.88086,-0.05371 -0.537109,-0.03223 -0.945312,-0.05371 Q 44.44043,17.241211 44,17.241211 q -0.429688,0 -0.837891,0.02148 -0.397461,0.02148 -0.923828,0.05371 -0.526367,0.03223 -0.870117,0.05371 -0.09668,-0.09668 -0.09668,-0.354492 0.01074,-0.268555 0.09668,-0.365234 0.354492,0 0.93457,-0.107422 0.580078,-0.118164 0.633789,-0.290039 0.118164,-0.408203 0.118164,-1.847657 V 9.8720703 q 0,-1.0957031 -0.118164,-1.3964844 Q 42.850586,8.2822266 42.453125,8.1748047 42.055664,8.0566406 41.787109,8.0458984 41.518555,8.0244141 41.314453,8.0244141 41.271484,7.9921875 41.260742,7.734375 Z"/>
	<path d="m 54.946289,13.0625 q 0,-1.224609 0.279297,-2.449219 Q 55.504883,9.3779297 56.03125,8.25 q 0.537109,-1.1279297 1.342773,-2.1054688 0.816407,-0.977539 1.804688,-1.6972656 0.999023,-0.7304687 2.277344,-1.1386718 1.27832,-0.4189454 2.685547,-0.4189454 1.020507,0 1.933593,0.225586 0.923828,0.2148437 1.654297,0.6230469 0.730469,0.3974609 1.342774,0.9560546 0.612304,0.5478516 1.052734,1.2246094 0.44043,0.6660156 0.741211,1.4287109 0.300781,0.7626954 0.451172,1.5791016 0.15039,0.8056641 0.15039,1.6435552 0,1.407226 -0.397461,2.685546 -0.39746,1.267579 -1.074218,2.202149 -0.676758,0.923828 -1.632813,1.471679 -0.956054,0.53711 -2.030273,0.53711 -0.966797,0 -1.525391,-0.515625 -0.547851,-0.526367 -0.547851,-1.62207 0,-0.225586 0.05371,-0.612305 0.06445,-0.386719 0.128906,-0.537109 -0.161133,0.311523 -0.408203,0.698242 -0.247071,0.375976 -0.623047,0.83789 -0.375977,0.461914 -0.762696,0.837891 -0.386718,0.365234 -0.848632,0.623047 -0.461914,0.24707 -0.88086,0.24707 -0.741211,0 -1.289062,-0.483398 -0.547852,-0.483399 -0.816406,-1.235352 -0.257813,-0.751953 -0.257813,-1.654297 0,-0.880859 0.290039,-1.815429 0.300781,-0.934571 0.794922,-1.761719 0.504883,-0.8378908 1.203125,-1.5791017 0.698242,-0.741211 1.47168,-1.2783204 0.784179,-0.5371093 1.654297,-0.8486328 0.880859,-0.3115234 1.71875,-0.3115234 0.93457,0 1.815429,0.3222656 l -1.52539,7.8740237 q -0.0752,0.300781 -0.0752,0.623047 0,0.569336 0.333008,0.848632 0.333008,0.268555 0.870117,0.268555 0.580078,0 1.181641,-0.461914 0.612305,-0.472656 1.084961,-1.235351 0.483398,-0.773438 0.78418,-1.847657 0.311523,-1.074218 0.311523,-2.202148 0,-1.0312502 -0.236328,-1.9980471 Q 69.996094,7.6806641 69.480469,6.8105469 68.975586,5.9404297 68.245117,5.2958984 67.514648,4.6513672 66.451172,4.2753906 65.398437,3.8886719 64.141602,3.8886719 q -1.235352,0 -2.374024,0.3759765 -1.12793,0.3759766 -2.019531,1.0419922 -0.88086,0.6552735 -1.611328,1.546875 -0.730469,0.8808594 -1.213867,1.9013672 -0.472657,1.0205078 -0.730469,2.1269532 -0.257813,1.095703 -0.257813,2.180664 0,1.052734 0.257813,2.041016 0.268554,0.977539 0.730469,1.750976 0.461914,0.773438 1.052734,1.375 0.59082,0.612305 1.27832,1.009766 0.601563,0.354492 1.009766,0.483398 0.408203,0.139649 0.859375,0.214844 0,0.09668 -0.161133,0.204102 -0.161133,0.107421 -0.375977,0.171875 -0.214843,0.0752 -0.354492,0.0752 -0.59082,0 -0.977539,-0.150391 -0.859375,-0.322265 -1.643554,-0.999023 -0.773438,-0.666016 -1.375,-1.589844 -0.590821,-0.913086 -0.945313,-2.105469 -0.34375,-1.203125 -0.34375,-2.481445 z m 5.457031,0.472656 q 0,2.438477 1.267578,2.438477 0.601563,0 1.342774,-0.870117 0.741211,-0.88086 1.321289,-2.15918 0.59082,-1.289063 0.827148,-2.481445 L 65.65625,7.9277344 q -0.290039,-0.3222657 -1.020508,-0.3222657 -0.558594,0 -1.170898,0.3330079 -0.612305,0.3330078 -1.149414,0.9345703 -0.53711,0.5908203 -0.977539,1.3320311 -0.429688,0.741211 -0.6875,1.62207 -0.247071,0.870118 -0.247071,1.708008 z"/>
	<path d="m 73.154297,7.734375 q 0,-0.032227 0,-0.075195 0,-0.1933594 0.05371,-0.2792969 2.126953,-0.3007812 3.566406,-1.0527344 0.08594,0 0.171875,0.1503907 0.09668,0.1503906 0.09668,0.2470703 -0.02148,0.1503906 -0.09668,1.1279297 -0.07519,0.977539 -0.07519,1.1708984 0,0.064453 0.03223,0.075195 0.04297,0 0.06445,-0.032227 0.19336,-0.4082032 0.515625,-0.859375 0.322266,-0.4619141 0.708985,-0.8701172 0.397461,-0.4082032 0.859375,-0.6660157 0.461914,-0.2685547 0.859375,-0.2685547 0.483398,0 0.913086,0.2148438 0.440429,0.2041016 0.601562,0.5048828 0.107422,0.3007813 0.107422,0.6767578 0,0.6123047 -0.290039,0.9560547 -0.279297,0.34375 -0.537109,0.34375 -0.118164,0 -0.257813,-0.053711 -0.128906,-0.053711 -0.225586,-0.1181641 -0.08594,-0.064453 -0.236328,-0.1611328 -0.139648,-0.09668 -0.204101,-0.1396484 -0.44043,-0.3007813 -0.913086,-0.3007813 -0.386719,0 -0.773438,0.2685547 -0.375976,0.2685547 -0.633789,0.6445313 -0.257812,0.3652343 -0.429687,0.7412109 -0.161133,0.3652344 -0.161133,0.5908204 v 3.83496 q 0,1.439454 0.128906,1.847657 0.04297,0.171875 0.870117,0.290039 0.837891,0.107422 1.267578,0.107422 0.0752,0.09668 0.0752,0.365234 0.01074,0.257812 -0.0752,0.354492 -2.55664,-0.128906 -3.09375,-0.128906 -0.429687,0 -0.870117,0.02148 -0.429687,0.02148 -1.020508,0.05371 -0.580078,0.04297 -0.891601,0.05371 -0.09668,-0.09668 -0.09668,-0.354492 0.01074,-0.268555 0.09668,-0.365234 0.354492,0 0.93457,-0.107422 0.580078,-0.118164 0.633789,-0.290039 0.118164,-0.408203 0.118164,-1.847657 V 9.7646484 q 0,-0.9882812 -0.118164,-1.2890625 Q 74.744141,8.2822266 74.34668,8.1748047 73.949219,8.0566406 73.680664,8.0458984 73.412109,8.0244141 73.208008,8.0244141 73.165039,7.9921875 73.154297,7.734375 Z"/>
	<path d="m 82.811523,12.310547 q 0,-0.816406 0.204102,-1.600586 0.214844,-0.7841797 0.580078,-1.4179688 0.365234,-0.6445313 0.848633,-1.1923828 0.483398,-0.5585938 1.020508,-0.9238282 0.547851,-0.3759765 1.127929,-0.5800781 0.580079,-0.2148437 1.12793,-0.2148437 0.612305,0 1.138672,0.1396484 0.537109,0.1289063 0.913086,0.3544922 0.375976,0.2255859 0.666016,0.5263672 0.300781,0.3007812 0.483398,0.6123047 0.193359,0.3115234 0.311523,0.6445312 0.128907,0.3330078 0.171875,0.6123047 0.05371,0.2685547 0.05371,0.4941406 0,0.5800786 -0.128906,0.8701176 -0.128906,0.290039 -0.472656,0.300781 -0.504883,0.03223 -3.233399,0.107422 -2.717773,0.0752 -3.040039,0.0752 v 0.171875 q 0,0.891602 0.214844,1.654297 0.214844,0.751953 0.59082,1.299805 0.375977,0.537109 0.891602,0.913086 0.515625,0.375976 1.106445,0.558593 0.601563,0.182618 1.256836,0.182618 0.472656,0 0.945313,-0.139649 0.472656,-0.150391 0.827148,-0.375976 0.354492,-0.236329 0.580078,-0.429688 0.236328,-0.204102 0.386719,-0.375977 0.01074,0 0.05371,0.04297 0.05371,0.04297 0.09668,0.128906 0.04297,0.08594 0.04297,0.182618 0,0.193359 -0.139648,0.440429 -0.204102,0.322266 -0.504883,0.644532 -0.300781,0.322265 -0.751953,0.676757 -0.44043,0.354493 -1.074219,0.580078 -0.623047,0.225586 -1.310547,0.225586 -1.450195,0 -2.599609,-0.676757 -1.138672,-0.6875 -1.761719,-1.869141 -0.623047,-1.181641 -0.623047,-2.642578 z m 1.890625,-2.116211 h 4.060547 q 0.580078,0 0.580078,-0.5800782 0,-0.2255859 -0.06445,-0.515625 Q 89.213867,8.8085938 89.052734,8.4863281 88.902344,8.1533203 88.676758,7.8955078 88.451172,7.6269531 88.085937,7.4550781 87.731445,7.2724609 87.291016,7.2724609 q -0.418946,0 -0.794922,0.1611328 -0.375977,0.1611329 -0.644532,0.4189454 -0.257812,0.2578125 -0.472656,0.5693359 -0.204101,0.3115234 -0.333008,0.6230469 -0.128906,0.3115234 -0.214843,0.5693359 -0.08594,0.2578125 -0.118164,0.4189452 -0.02148,0.161133 -0.01074,0.161133 z"/>
	<path d="m 93.446289,14.630859 q 0,-0.708984 0.386719,-1.267578 0.397461,-0.558593 0.859375,-0.730468 0.397461,-0.139649 1.149414,-0.397461 0.751953,-0.268555 1.299805,-0.451172 0.547851,-0.19336 1.095703,-0.397461 0.558593,-0.214844 0.816406,-0.322266 0.09668,-0.04297 0.150391,-0.0752 0.05371,-0.03223 0.08594,-0.09668 0.04297,-0.0752 0.05371,-0.171875 0.01074,-0.107422 0.01074,-0.279297 V 9.7646484 q 0,-0.5585937 -0.279297,-1.1064453 -0.279297,-0.5478515 -0.784179,-0.9130859 -0.494141,-0.3652344 -1.084961,-0.3652344 -0.623047,0 -0.923828,0.3867188 -0.300782,0.3759765 -0.44043,1.149414 -0.118164,0.6230469 -0.408203,0.913086 -0.290039,0.2900394 -0.762696,0.2900394 -0.375976,0 -0.612304,-0.322266 -0.236328,-0.3222656 -0.236328,-0.7304687 0,-0.053711 0.02148,-0.1611329 0.02148,-0.118164 0.06445,-0.2470703 0.04297,-0.1289062 0.08594,-0.1826172 0.322265,-0.3007812 0.784179,-0.6230468 0.472657,-0.3330079 1.074219,-0.6660157 0.612305,-0.3330078 1.321289,-0.5478515 0.708984,-0.2148438 1.353516,-0.2148438 1.084961,0 1.901361,0.9990235 0.81641,0.9990234 0.81641,2.4169922 v 5.1347652 q 0,1.170899 0.77343,1.170899 0.10743,0 0.21485,-0.02148 0.10742,-0.02148 0.18262,-0.04297 0.0752,-0.03223 0.15039,-0.0752 0.0859,-0.04297 0.1289,-0.0752 0.043,-0.03223 0.0859,-0.06445 0.0537,-0.03223 0.0537,-0.04297 0.10742,0 0.10742,0.204102 0,0.257812 -0.1289,0.472656 -0.29004,0.257812 -0.90235,0.601562 -0.6123,0.34375 -0.96679,0.34375 -0.51563,0 -0.956054,-0.504882 -0.440429,-0.504883 -0.558594,-1.117188 -0.365234,0.365235 -1.439453,1.020508 -1.063476,0.655273 -1.632812,0.655273 -1.235352,0 -2.073242,-0.827148 -0.837891,-0.827148 -0.837891,-2.041016 z m 2.0625,-0.225586 q 0,0.451172 0.214844,0.859375 0.225586,0.397461 0.612304,0.644532 0.386719,0.236328 0.848633,0.236328 0.311524,0 0.698242,-0.118164 0.397461,-0.128906 0.708985,-0.290039 0.322265,-0.171875 0.537109,-0.34375 0.225586,-0.171875 0.225586,-0.268555 v -3.383789 q -1.933594,0.569336 -2.320312,0.719727 -0.708985,0.268554 -1.117188,0.762695 -0.408203,0.49414 -0.408203,1.18164 z"/>
	<path d="m 103.78027,16.650391 q 0.3545,0 0.93457,-0.107422 0.58008,-0.118164 0.63379,-0.290039 0.11817,-0.408203 0.11817,-1.847657 V 3.3837891 q 0,-0.9882813 -0.11817,-1.2890625 -0.19336,-0.4511719 -1.52539,-0.4511719 -0.0107,0 -0.0215,-0.1503906 -0.0107,-0.1611329 -0.0107,-0.3222657 0.0107,-0.1611328 0.0644,-0.17187496 Q 105.56348,0.82714844 107.38965,0 q 0.0967,0 0.18262,0.13964844 0.0967,0.12890625 0.0967,0.2578125 -0.2793,0.80566406 -0.2793,2.16992186 V 14.405273 q 0,1.439454 0.1289,1.847657 0.0215,0.08594 0.22559,0.171875 0.2041,0.08594 0.47266,0.128906 0.26855,0.04297 0.50488,0.0752 0.23633,0.02148 0.36523,0.02148 0.0752,0.107421 0.0752,0.365234 0,0.01074 0.0107,0.02148 0,0.236328 -0.0859,0.333008 -0.34375,-0.02148 -0.88086,-0.05371 -0.5371,-0.03223 -0.94531,-0.05371 -0.4082,-0.02148 -0.84863,-0.02148 -0.42969,0 -0.83789,0.02148 -0.39746,0.02148 -0.92383,0.05371 -0.52637,0.03223 -0.87012,0.05371 -0.0967,-0.09668 -0.0967,-0.333008 0,-0.279297 0.0967,-0.386718 z"/>
	<path d="m 110.52637,14.630859 q 0,-0.708984 0.38672,-1.267578 0.39746,-0.558593 0.85937,-0.730468 0.39746,-0.139649 1.14942,-0.397461 0.75195,-0.268555 1.2998,-0.451172 0.54785,-0.19336 1.0957,-0.397461 0.5586,-0.214844 0.81641,-0.322266 0.0967,-0.04297 0.15039,-0.0752 0.0537,-0.03223 0.0859,-0.09668 0.043,-0.0752 0.0537,-0.171875 0.0107,-0.107422 0.0107,-0.279297 V 9.7646484 q 0,-0.5585937 -0.2793,-1.1064453 -0.27929,-0.5478515 -0.78418,-0.9130859 -0.49414,-0.3652344 -1.08496,-0.3652344 -0.62304,0 -0.92383,0.3867188 -0.30078,0.3759765 -0.44042,1.149414 -0.11817,0.6230469 -0.40821,0.913086 -0.29004,0.2900394 -0.76269,0.2900394 -0.37598,0 -0.61231,-0.322266 -0.23633,-0.3222656 -0.23633,-0.7304687 0,-0.053711 0.0215,-0.1611329 0.0215,-0.118164 0.0645,-0.2470703 0.043,-0.1289062 0.0859,-0.1826172 0.32226,-0.3007812 0.78418,-0.6230468 0.47265,-0.3330079 1.07422,-0.6660157 0.6123,-0.3330078 1.32129,-0.5478515 0.70898,-0.2148438 1.35351,-0.2148438 1.08496,0 1.90137,0.9990235 0.81641,0.9990234 0.81641,2.4169922 v 5.1347652 q 0,1.170899 0.77343,1.170899 0.10742,0 0.21485,-0.02148 0.10742,-0.02148 0.18261,-0.04297 0.0752,-0.03223 0.15039,-0.0752 0.0859,-0.04297 0.12891,-0.0752 0.043,-0.03223 0.0859,-0.06445 0.0537,-0.03223 0.0537,-0.04297 0.10742,0 0.10742,0.204102 0,0.257812 -0.12891,0.472656 -0.29003,0.257812 -0.90234,0.601562 -0.6123,0.34375 -0.9668,0.34375 -0.51562,0 -0.95605,-0.504882 -0.44043,-0.504883 -0.55859,-1.117188 -0.36524,0.365235 -1.43946,1.020508 -1.06347,0.655273 -1.63281,0.655273 -1.23535,0 -2.07324,-0.827148 -0.83789,-0.827148 -0.83789,-2.041016 z m 2.0625,-0.225586 q 0,0.451172 0.21484,0.859375 0.22559,0.397461 0.61231,0.644532 0.38671,0.236328 0.84863,0.236328 0.31152,0 0.69824,-0.118164 0.39746,-0.128906 0.70899,-0.290039 0.32226,-0.171875 0.5371,-0.34375 0.22559,-0.171875 0.22559,-0.268555 v -3.383789 q -1.93359,0.569336 -2.32031,0.719727 -0.70899,0.268554 -1.11719,0.762695 -0.4082,0.49414 -0.4082,1.18164 z"/>
	<path d="m 121.52637,16.177734 q 0,-0.365234 0.19336,-0.676757 0.19336,-0.311524 0.51562,-0.494141 0.32227,-0.182617 0.6875,-0.182617 0.5586,0 0.95606,0.397461 0.39746,0.386718 0.39746,0.956054 0,0.558594 -0.39746,0.977539 -0.39746,0.418946 -0.95606,0.418946 -0.55859,0 -0.97754,-0.418946 -0.41894,-0.418945 -0.41894,-0.977539 z"/>
	<path d="m 126.28516,7.734375 q 0,-0.032227 0,-0.075195 0,-0.1933594 0.0537,-0.2792969 2.12695,-0.3007812 3.5664,-1.0527344 0.0859,0 0.17188,0.1503907 0.0967,0.1503906 0.0967,0.2470703 -0.15039,1.0527343 -0.15039,1.4287109 0,0.09668 0.0537,0.09668 0.0215,0 0.0752,-0.053711 0.20411,-0.225586 0.56934,-0.515625 0.37598,-0.2900391 0.83789,-0.5908204 0.47266,-0.3007812 0.99902,-0.5048828 0.53711,-0.2041015 0.95606,-0.2041015 0.67676,0 1.1709,0.1396484 0.50488,0.1289063 0.85937,0.4296875 0.35449,0.3007813 0.58008,0.7089844 0.23633,0.4082031 0.36523,1.03125 0.13965,0.6230469 0.18262,1.3212888 0.0537,0.698242 0.0537,1.654297 v 2.739257 q 0,1.439454 0.12891,1.847657 0.0322,0.118164 0.36523,0.214843 0.34375,0.09668 0.67676,0.139649 0.33301,0.04297 0.52637,0.04297 0.0859,0.107421 0.0859,0.386718 0,0.236328 -0.0859,0.333008 -0.34375,-0.02148 -0.88086,-0.05371 -0.52637,-0.03223 -0.94531,-0.05371 -0.40821,-0.02148 -0.84864,-0.02148 -0.42968,0 -0.83789,0.02148 -0.39746,0.02148 -0.92383,0.05371 -0.52636,0.03223 -0.87011,0.05371 -0.0859,-0.09668 -0.0859,-0.354492 0.0107,-0.268555 0.0859,-0.365234 0.35449,0 0.93457,-0.107422 0.59082,-0.118164 0.63379,-0.290039 0.1289,-0.408203 0.1289,-1.847657 v -2.492187 q 0,-1.203125 -0.10742,-1.9443355 -0.10742,-0.7519531 -0.39746,-1.2460937 -0.2793,-0.5048829 -0.74121,-0.6982422 -0.46191,-0.2041016 -1.20313,-0.2041016 -0.41894,0 -0.99902,0.3007813 -0.58008,0.3007812 -0.97754,0.633789 -0.38672,0.3222656 -0.38672,0.4404297 v 5.20996 q 0,1.439454 0.12891,1.847657 0.0107,0.06445 0.10742,0.128906 0.10742,0.05371 0.25781,0.09668 0.15039,0.03223 0.32227,0.0752 0.18262,0.03223 0.35449,0.05371 0.17188,0.02148 0.30078,0.03223 0.13965,0.01074 0.22559,0.01074 0.0752,0.09668 0.0752,0.365234 0.0108,0.257812 -0.0752,0.354492 -0.34375,-0.02148 -0.88086,-0.05371 -0.53711,-0.03223 -0.94531,-0.05371 -0.40821,-0.02148 -0.84864,-0.02148 -0.42968,0 -0.83789,0.02148 -0.39746,0.02148 -0.92382,0.05371 -0.52637,0.03223 -0.87012,0.05371 -0.0967,-0.09668 -0.0967,-0.354492 0.0107,-0.268555 0.0967,-0.365234 0.35449,0 0.93457,-0.107422 0.58008,-0.118164 0.63379,-0.290039 0.11816,-0.408203 0.11816,-1.847657 V 9.8720703 q 0,-1.0957031 -0.11816,-1.3964844 -0.0859,-0.1933593 -0.4834,-0.3007812 -0.39746,-0.1181641 -0.66602,-0.1289063 -0.26855,-0.021484 -0.47265,-0.021484 -0.043,-0.032227 -0.0537,-0.2900391 z"/>
	<path d="m 139.74512,12.310547 q 0,-0.816406 0.2041,-1.600586 0.21484,-0.7841797 0.58008,-1.4179688 0.36523,-0.6445313 0.84863,-1.1923828 0.4834,-0.5585938 1.02051,-0.9238282 0.54785,-0.3759765 1.12793,-0.5800781 0.58008,-0.2148437 1.12793,-0.2148437 0.6123,0 1.13867,0.1396484 0.53711,0.1289063 0.91308,0.3544922 0.37598,0.2255859 0.66602,0.5263672 0.30078,0.3007812 0.4834,0.6123047 0.19336,0.3115234 0.31152,0.6445312 0.12891,0.3330078 0.17188,0.6123047 0.0537,0.2685547 0.0537,0.4941406 0,0.5800786 -0.12891,0.8701176 -0.1289,0.290039 -0.47265,0.300781 -0.50489,0.03223 -3.2334,0.107422 -2.71778,0.0752 -3.04004,0.0752 v 0.171875 q 0,0.891602 0.21484,1.654297 0.21485,0.751953 0.59082,1.299805 0.37598,0.537109 0.8916,0.913086 0.51563,0.375976 1.10645,0.558593 0.60156,0.182618 1.25683,0.182618 0.47266,0 0.94532,-0.139649 0.47265,-0.150391 0.82715,-0.375976 0.35449,-0.236329 0.58007,-0.429688 0.23633,-0.204102 0.38672,-0.375977 0.0107,0 0.0537,0.04297 0.0537,0.04297 0.0967,0.128906 0.043,0.08594 0.043,0.182618 0,0.193359 -0.13965,0.440429 -0.2041,0.322266 -0.50488,0.644532 -0.30078,0.322265 -0.75195,0.676757 -0.44043,0.354493 -1.07422,0.580078 -0.62305,0.225586 -1.31055,0.225586 -1.45019,0 -2.59961,-0.676757 -1.13867,-0.6875 -1.76172,-1.869141 -0.62304,-1.181641 -0.62304,-2.642578 z m 1.89062,-2.116211 h 4.06055 q 0.58008,0 0.58008,-0.5800782 0,-0.2255859 -0.0645,-0.515625 -0.0644,-0.290039 -0.22558,-0.6123047 -0.15039,-0.3330078 -0.37598,-0.5908203 -0.22558,-0.2685547 -0.59082,-0.4404297 -0.35449,-0.1826172 -0.79492,-0.1826172 -0.41895,0 -0.79492,0.1611328 -0.37598,0.1611329 -0.64453,0.4189454 -0.25782,0.2578125 -0.47266,0.5693359 -0.2041,0.3115234 -0.33301,0.6230469 -0.1289,0.3115234 -0.21484,0.5693359 -0.0859,0.2578125 -0.11817,0.4189452 -0.0215,0.161133 -0.0107,0.161133 z"/>
	<path d="m 149.9502,7.3261719 q 0,-0.064453 0.27929,-0.3759766 0.2793,-0.3222656 0.37598,-0.4189453 h 0.92383 V 4.9628906 q 0.19336,-0.2363281 0.56933,-0.6445312 0.37598,-0.4082031 0.64453,-0.6982422 0.2793,-0.3007813 0.30079,-0.3330078 0.0644,-0.064453 0.16113,-0.085937 0.0644,-0.021484 0.10742,-0.010742 0.0322,0.010742 0.0537,0.010742 0.0644,0.021484 0.0752,0.064453 V 6.53125 h 3.21191 q 0.0537,0 0.0752,0.021484 0.0322,0.010742 0.043,0.064453 0.0108,0.042969 0.0108,0.075195 0,0.032227 0,0.1074219 0,0.3974609 -0.34375,0.7519531 h -2.99707 v 6.53125 q 0,0.999023 0.4082,1.52539 0.41894,0.515625 1.23535,0.515625 0.34375,0 0.71973,-0.128906 0.37597,-0.128906 0.56933,-0.236328 0.19336,-0.107422 0.33301,-0.204101 0.0752,0.03223 0.0752,0.171875 0,0.06445 -0.0215,0.15039 -0.0215,0.08594 -0.043,0.150391 -0.0215,0.05371 -0.0322,0.0752 -0.17188,0.193359 -0.39746,0.386719 -0.21485,0.193359 -0.5586,0.440429 -0.33301,0.236329 -0.76269,0.386719 -0.41895,0.150391 -0.84864,0.150391 -0.4082,0 -0.76269,-0.0752 -0.35449,-0.06445 -0.69824,-0.247071 -0.34375,-0.193359 -0.59082,-0.483398 -0.24707,-0.300781 -0.39746,-0.78418 -0.13965,-0.483398 -0.13965,-1.095703 V 7.5517578 h -1.4502 q -0.0537,0 -0.0967,-0.075195 -0.0322,-0.085937 -0.0322,-0.1503906 z"/>
</svg>
