<?xml version="1.0" encoding="utf-8"?>
<svg xmlns="http://www.w3.org/2000/svg" height="22.956055" version="1.1" width="279.66211" viewBox="0 0 279.66212 22.956055">
	<path d="M 0,6.9609375 Q 0,6.7783203 0.06445313,6.5742187 0.4296875,6.5957031 0.89160156,6.6279297 1.3535156,6.6601562 1.71875,6.6816406 q 0.3759766,0.021484 0.8378906,0.021484 0.4189453,0 0.7949219,-0.021484 0.3759766,-0.021484 0.859375,-0.053711 0.4833984,-0.032227 0.8378906,-0.053711 0.042969,0.1181641 0.010742,0.4296875 -0.032227,0.3007813 -0.118164,0.3007813 -0.09668,0 -0.2685547,0.021484 -0.1611328,0.010742 -0.397461,0.053711 -0.2363281,0.032227 -0.3974609,0.1289063 -0.1503906,0.085937 -0.1503906,0.2148437 0,0.053711 0.021484,0.09668 L 6.4882813,14.555664 Q 7.7666016,11.236328 8.7119141,8.8945313 8.8623047,8.5400391 8.8623047,8.0996094 q 0,-0.3652344 -0.4082031,-0.5800782 -0.397461,-0.2148437 -1.0419922,-0.2148437 -0.09668,0 -0.09668,-0.3115234 0,-0.3222657 0.09668,-0.4189454 0.2578125,0.021484 0.6015625,0.064453 0.34375,0.032226 0.6552734,0.053711 0.3115235,0.010742 0.7626953,0.010742 0.4189453,0 0.7519534,-0.021484 0.34375,-0.021484 0.762695,-0.053711 0.429688,-0.032227 0.805664,-0.053711 0.04297,0.075195 0.04297,0.2363282 0,0.085937 -0.01074,0.1933593 -0.03223,0.3007813 -0.107422,0.3007813 -0.107422,0 -0.300781,0.042969 -0.182618,0.032227 -0.44043,0.1181641 -0.257813,0.075195 -0.494141,0.2578125 -0.236328,0.1826172 -0.333008,0.4296875 -2.6640621,6.3593747 -3.7382808,8.9912107 -0.042969,0.09668 -0.171875,0.19336 -0.1289063,0.107421 -0.2685547,0.171875 -0.1396484,0.06445 -0.2148437,0.06445 -0.171875,0 -0.225586,-0.107422 -0.5800781,-1.375 -1.3964844,-3.405274 Q 3.2871094,12.020508 2.6640625,10.538086 2.0410156,9.0449219 1.4287109,7.7988281 1.3642578,7.6484375 1.2138672,7.5517578 1.0634766,7.4443359 0.93457031,7.4013672 0.80566406,7.3476562 0.59082031,7.3261719 0.37597656,7.3046875 0.30078125,7.3046875 q -0.0644531,0 -0.23632812,0 Q 0,7.1757812 0,6.9609375 Z"/>
	<path d="m 12.589844,7.734375 q 0,-0.032227 0,-0.075195 0,-0.1933594 0.05371,-0.2792969 2.126953,-0.3007812 3.566406,-1.0527344 0.08594,0 0.171875,0.1503907 0.09668,0.1503906 0.09668,0.2470703 -0.02148,0.1503906 -0.09668,1.1279297 -0.0752,0.977539 -0.0752,1.1708984 0,0.064453 0.03223,0.075195 0.04297,0 0.06445,-0.032227 0.19336,-0.4082032 0.515625,-0.859375 0.322266,-0.4619141 0.708985,-0.8701172 0.397461,-0.4082032 0.859375,-0.6660157 0.461914,-0.2685547 0.859375,-0.2685547 0.483398,0 0.913086,0.2148438 0.440429,0.2041016 0.601562,0.5048828 0.107422,0.3007813 0.107422,0.6767578 0,0.6123047 -0.290039,0.9560547 -0.279297,0.34375 -0.537109,0.34375 -0.118164,0 -0.257813,-0.053711 -0.128906,-0.053711 -0.225586,-0.1181641 -0.08594,-0.064453 -0.236328,-0.1611328 -0.139648,-0.09668 -0.204102,-0.1396484 -0.440429,-0.3007813 -0.913085,-0.3007813 -0.386719,0 -0.773438,0.2685547 -0.375977,0.2685547 -0.633789,0.6445313 -0.257813,0.3652343 -0.429688,0.7412109 -0.161132,0.3652348 -0.161132,0.5908208 v 3.83496 q 0,1.439454 0.128906,1.847657 0.04297,0.171875 0.870117,0.290039 0.837891,0.107422 1.267578,0.107422 0.0752,0.09668 0.0752,0.365234 0.01074,0.257812 -0.0752,0.354492 -2.55664,-0.128906 -3.09375,-0.128906 -0.429687,0 -0.870117,0.02148 -0.429687,0.02148 -1.020508,0.05371 -0.580078,0.04297 -0.891601,0.05371 -0.09668,-0.09668 -0.09668,-0.354492 0.01074,-0.268555 0.09668,-0.365234 0.354492,0 0.93457,-0.107422 0.580078,-0.118164 0.633789,-0.290039 0.118164,-0.408203 0.118164,-1.847657 V 9.7646484 q 0,-0.9882812 -0.118164,-1.2890625 Q 14.179688,8.2822266 13.782227,8.1748047 13.384766,8.0566406 13.116211,8.0458984 12.847656,8.0244141 12.643555,8.0244141 12.600586,7.9921875 12.589844,7.734375 Z"/>
	<path d="m 21.677734,18.12207 q 0.128907,-1.149414 0.375977,-1.149414 H 33.24707 q 0.09668,0 0.09668,0.118164 0,0.214844 -0.24707,1.12793 -0.02148,0.06445 -0.06445,0.09668 -0.03223,0.04297 -0.05371,0.04297 l -0.03223,0.01074 H 21.860352 q -0.01074,0 -0.02148,-0.01074 -0.01074,0 -0.04297,-0.01074 -0.03223,-0.01074 -0.05371,-0.03223 -0.02148,-0.02148 -0.04297,-0.0752 -0.02148,-0.05371 -0.02148,-0.118164 z"/>
	<path d="m 34.933594,14.501953 q 0.204101,-0.15039 0.451172,-0.15039 0.15039,0 0.225586,0.05371 0.08594,0.322266 0.257812,0.655274 0.182617,0.322266 0.44043,0.633789 0.257812,0.300781 0.558594,0.547851 0.300781,0.236329 0.676757,0.386719 0.375977,0.139649 0.751953,0.139649 0.794922,0 1.289063,-0.472657 0.504883,-0.483398 0.504883,-1.321289 0,-0.365234 -0.139649,-0.676757 -0.128906,-0.322266 -0.322265,-0.53711 -0.182617,-0.225586 -0.526367,-0.472656 -0.333008,-0.24707 -0.612305,-0.386719 -0.268555,-0.15039 -0.719727,-0.386719 -0.451172,-0.24707 -0.719726,-0.408203 -0.408203,-0.236328 -0.719727,-0.472656 -0.311523,-0.24707 -0.59082,-0.569336 -0.279297,-0.322265 -0.429688,-0.730469 -0.15039,-0.4082027 -0.15039,-0.8916012 0,-0.8916015 0.515625,-1.5898437 0.526367,-0.7089844 1.342773,-1.0742188 0.827149,-0.3759766 1.750977,-0.3759766 0.429687,0 0.805664,0.053711 0.375976,0.053711 0.848633,0.1396484 0.483398,0.085937 0.891601,0.1289063 0.257813,1.1279297 0.300781,2.75 0,0.118164 -0.24707,0.118164 -0.268555,0 -0.429687,-0.118164 Q 40.841797,9.0986328 40.648438,8.7226563 40.46582,8.3359375 40.208008,7.9814453 39.950195,7.6269531 39.584961,7.4013672 39.230469,7.1757812 38.84375,7.1757812 q -0.580078,0 -0.988281,0.2148438 -0.397461,0.2041016 -0.590821,0.5585937 -0.182617,0.3437501 -0.182617,0.7949219 0,0.2685547 0.05371,0.5048828 0.05371,0.225586 0.182617,0.4189454 0.128907,0.1933593 0.247071,0.3330082 0.128906,0.139648 0.365234,0.300781 0.236328,0.161133 0.386719,0.257812 0.161133,0.08594 0.461914,0.257813 0.300781,0.171875 0.461914,0.268555 0.128906,0.08594 0.44043,0.268554 0.311523,0.171875 0.483398,0.279297 0.182617,0.09668 0.472656,0.300781 0.290039,0.19336 0.461914,0.34375 0.182618,0.150391 0.397461,0.375977 0.214844,0.225586 0.333008,0.44043 0.118164,0.204101 0.19336,0.483398 0.08594,0.268555 0.08594,0.547852 0,0.988281 -0.537109,1.783203 -0.53711,0.794922 -1.417969,1.235351 -0.870117,0.429688 -1.879883,0.429688 -0.515625,0 -0.956055,-0.0752 -0.440429,-0.06445 -1.03125,-0.204101 -0.59082,-0.139649 -0.923828,-0.204102 -0.15039,-0.386718 -0.290039,-1.235351 -0.139648,-0.859375 -0.139648,-1.353516 z"/>
	<path d="m 44.107422,12.310547 q 0,-0.816406 0.204101,-1.600586 0.214844,-0.7841797 0.580079,-1.4179688 0.365234,-0.6445313 0.848632,-1.1923828 0.483399,-0.5585938 1.020508,-0.9238282 0.547852,-0.3759765 1.12793,-0.5800781 0.580078,-0.2148437 1.12793,-0.2148437 0.612304,0 1.138671,0.1396484 0.53711,0.1289063 0.913086,0.3544922 0.375977,0.2255859 0.666016,0.5263672 0.300781,0.3007812 0.483398,0.6123047 0.19336,0.3115234 0.311524,0.6445312 0.128906,0.3330078 0.171875,0.6123047 0.05371,0.2685547 0.05371,0.4941406 0,0.5800786 -0.128906,0.8701176 -0.128907,0.290039 -0.472657,0.300781 -0.504882,0.03223 -3.233398,0.107422 -2.717774,0.0752 -3.040039,0.0752 v 0.171875 q 0,0.891602 0.214844,1.654297 0.214843,0.751953 0.59082,1.299805 0.375976,0.537109 0.891601,0.913086 0.515625,0.375976 1.106446,0.558593 0.601562,0.182618 1.256836,0.182618 0.472656,0 0.945312,-0.139649 0.472656,-0.150391 0.827149,-0.375976 0.354492,-0.236329 0.580078,-0.429688 0.236328,-0.204102 0.386719,-0.375977 0.01074,0 0.05371,0.04297 0.05371,0.04297 0.09668,0.128906 0.04297,0.08594 0.04297,0.182618 0,0.193359 -0.139649,0.440429 -0.204101,0.322266 -0.504882,0.644532 -0.300782,0.322265 -0.751953,0.676757 -0.44043,0.354493 -1.074219,0.580078 -0.623047,0.225586 -1.310547,0.225586 -1.450195,0 -2.599609,-0.676757 -1.138672,-0.6875 -1.761719,-1.869141 -0.623047,-1.181641 -0.623047,-2.642578 z m 1.890625,-2.116211 h 4.060547 q 0.580078,0 0.580078,-0.5800782 0,-0.2255859 -0.06445,-0.515625 Q 50.509766,8.8085938 50.348633,8.4863281 50.198242,8.1533203 49.972656,7.8955078 49.74707,7.6269531 49.381836,7.4550781 49.027344,7.2724609 48.586914,7.2724609 q -0.418945,0 -0.794922,0.1611328 -0.375976,0.1611329 -0.644531,0.4189454 -0.257813,0.2578125 -0.472656,0.5693359 -0.204102,0.3115234 -0.333008,0.6230469 -0.128906,0.3115234 -0.214844,0.5693359 -0.08594,0.2578125 -0.118164,0.4189452 -0.02148,0.161133 -0.01074,0.161133 z"/>
	<path d="m 53.915039,1.4824219 q 0,-0.075195 -0.01074,-0.1503907 0,-0.085937 0.01074,-0.1611328 0.01074,-0.1611328 0.05371,-0.17187496 Q 55.676758,0.82714844 57.50293,0 q 0.09668,0 0.182617,0.13964844 0.09668,0.12890625 0.09668,0.2578125 Q 57.50293,1.203125 57.50293,2.5673828 v 4.9091797 q 0,0.064453 0,0.1074219 0.01074,0.042969 0.02148,0.118164 0.01074,0.064453 0.04297,0.053711 0.03223,-0.010742 0.08594,-0.032227 0.515625,-0.3759766 1.460938,-0.859375 0.945312,-0.4833984 1.557617,-0.4833984 0.870117,0 1.62207,0.3115234 0.751953,0.3115234 1.278321,0.8378906 0.526367,0.515625 0.902343,1.1816407 0.386719,0.6660156 0.569336,1.3749999 0.19336,0.708984 0.19336,1.396484 0,1.213868 -0.472657,2.320313 -0.472656,1.095703 -1.27832,1.901367 -0.805664,0.805664 -1.96582,1.289063 -1.149414,0.472656 -2.438477,0.472656 -0.537109,0 -1.847656,-0.375977 -0.06445,-0.01074 -0.268555,-0.06445 -0.204101,-0.06445 -0.279297,-0.0752 -0.0752,-0.02148 -0.24707,-0.05371 -0.171875,-0.04297 -0.279297,-0.03223 -0.107422,0 -0.257812,0.02148 -0.150391,0.01074 -0.290039,0.06445 -0.08594,0 -0.204102,-0.225586 Q 55.290039,16.5 55.290039,16.392578 55.59082,15.737305 55.59082,14.555664 V 3.3837891 q 0,-0.9882813 -0.128906,-1.2890625 -0.193359,-0.4511719 -1.514648,-0.4511719 -0.02148,-0.010742 -0.03223,-0.1611328 z M 57.50293,14.856445 q 0,0.504883 0.354492,0.923828 0.354492,0.418946 0.880859,0.633789 0.526367,0.204102 1.084961,0.204102 0.870117,0 1.643555,-0.612305 0.773437,-0.623046 1.224609,-1.579101 0.451172,-0.966797 0.451172,-1.96582 0,-2.148438 -0.999023,-3.3730474 -0.988282,-1.2353515 -2.664063,-1.2353515 -0.451172,0 -1.052734,0.2363281 -0.601563,0.2363281 -0.794922,0.4296875 -0.128906,0.1289062 -0.128906,0.2792969 z"/>
	<path d="m 67.246094,11.988281 q 0,-1.192383 0.408203,-2.2343747 Q 68.0625,8.7119141 68.760742,7.9707031 69.469727,7.21875 70.458008,6.7890625 71.446289,6.359375 72.552734,6.359375 q 1.611329,0 2.835938,0.7089844 1.224609,0.7089843 1.858398,1.9335937 0.644532,1.2246099 0.644532,2.7822269 0,1.192383 -0.408204,2.245117 -0.408203,1.052734 -1.106445,1.81543 -0.698242,0.751953 -1.686523,1.192382 -0.977539,0.429688 -2.083985,0.429688 -1.213867,0 -2.223632,-0.418945 -1.009766,-0.418946 -1.697266,-1.149414 -0.676758,-0.730469 -1.063477,-1.740235 -0.375976,-1.009765 -0.375976,-2.169922 z m 2.148437,-0.504883 q 0,0.741211 0.139649,1.47168 0.139648,0.730469 0.429687,1.396485 0.290039,0.666015 0.698242,1.18164 0.408204,0.504883 0.977539,0.816406 0.569336,0.300782 1.213868,0.300782 0.515625,0 0.945312,-0.171875 0.44043,-0.171875 0.751953,-0.472657 0.311524,-0.300781 0.53711,-0.698242 0.236328,-0.408203 0.375976,-0.891601 0.139649,-0.494141 0.204102,-0.999024 0.07519,-0.515625 0.07519,-1.052734 0,-0.923828 -0.236328,-1.836914 Q 75.28125,9.6142578 74.851563,8.8623047 74.421875,8.1103516 73.745117,7.6484375 73.079102,7.1757812 72.28418,7.1757812 q -0.623047,0 -1.117188,0.2470704 -0.49414,0.2470703 -0.827148,0.6552734 -0.322266,0.4082031 -0.547852,0.9667969 -0.214844,0.5585937 -0.311523,1.1708981 -0.08594,0.601563 -0.08594,1.267578 z"/>
	<path d="m 79.921875,11.988281 q 0,-1.192383 0.408203,-2.2343747 Q 80.738281,8.7119141 81.436523,7.9707031 82.145508,7.21875 83.133789,6.7890625 84.12207,6.359375 85.228516,6.359375 q 1.611328,0 2.835937,0.7089844 1.22461,0.7089843 1.858399,1.9335937 0.644531,1.2246099 0.644531,2.7822269 0,1.192383 -0.408203,2.245117 -0.408203,1.052734 -1.106446,1.81543 -0.698242,0.751953 -1.686523,1.192382 -0.977539,0.429688 -2.083984,0.429688 -1.213868,0 -2.223633,-0.418945 -1.009766,-0.418946 -1.697266,-1.149414 -0.676758,-0.730469 -1.063476,-1.740235 -0.375977,-1.009765 -0.375977,-2.169922 z m 2.148438,-0.504883 q 0,0.741211 0.139648,1.47168 0.139648,0.730469 0.429687,1.396485 0.29004,0.666015 0.698243,1.18164 0.408203,0.504883 0.977539,0.816406 0.569336,0.300782 1.213867,0.300782 0.515625,0 0.945312,-0.171875 0.44043,-0.171875 0.751954,-0.472657 0.311523,-0.300781 0.537109,-0.698242 Q 88,14.899414 88.139648,14.416016 q 0.139649,-0.494141 0.204102,-0.999024 0.07519,-0.515625 0.07519,-1.052734 0,-0.923828 -0.236328,-1.836914 Q 87.957031,9.6142578 87.527344,8.8623047 87.097656,8.1103516 86.420898,7.6484375 85.754883,7.1757812 84.959961,7.1757812 q -0.623047,0 -1.117188,0.2470704 -0.49414,0.2470703 -0.827148,0.6552734 -0.322266,0.4082031 -0.547852,0.9667969 -0.214843,0.5585937 -0.311523,1.1708981 -0.08594,0.601563 -0.08594,1.267578 z"/>
	<path d="m 92.103516,16.650391 q 0.354492,0 0.93457,-0.107422 0.580078,-0.118164 0.633789,-0.290039 0.118164,-0.408203 0.118164,-1.847657 V 3.3837891 q 0,-0.9882813 -0.118164,-1.2890625 -0.193359,-0.4511719 -1.525391,-0.4511719 -0.01074,0 -0.02148,-0.1503906 Q 92.114258,1.3320312 92.114258,1.1708984 92.125,1.0097656 92.178711,0.99902344 93.886719,0.82714844 95.712891,0 q 0.09668,0 0.182617,0.13964844 0.09668,0.12890625 0.09668,0.2578125 Q 95.712891,1.203125 95.712891,2.5673828 V 11.44043 q 0.290039,-0.107422 0.762695,-0.472657 0.483398,-0.375976 1.27832,-1.0527339 0.311524,-0.2578125 0.719727,-0.5908203 0.418945,-0.34375 0.655273,-0.5371094 0.247071,-0.2041016 0.472657,-0.4082031 0.236328,-0.2041016 0.34375,-0.3330079 0.107417,-0.1289062 0.107417,-0.1933593 0,-0.075195 -0.043,-0.1289063 -0.04297,-0.053711 -0.118168,-0.085937 -0.06445,-0.042969 -0.161133,-0.075195 -0.09668,-0.032227 -0.19336,-0.053711 -0.09668,-0.021484 -0.214843,-0.032227 -0.107422,-0.021484 -0.19336,-0.021484 -0.07519,-0.010742 -0.161133,-0.010742 -0.08594,-0.010742 -0.118164,-0.021484 -0.08594,-0.1289063 -0.06445,-0.397461 0.02148,-0.2792969 0.118164,-0.3222656 1.20313,0.1289062 2.39551,0.1289062 1.27832,0 2.1914,-0.1289062 0.0752,0.1181641 0.0645,0.3867187 0,0.2578125 -0.0645,0.3330079 -0.333,0 -0.95605,0.1611328 -0.6123,0.1611328 -0.9668,0.4189453 -2.749997,1.9980473 -4.03906,3.0830083 0.504883,0.537109 1.117188,1.224609 0.623047,0.6875 1.106445,1.235351 0.494137,0.547852 0.956057,1.063477 0.47265,0.515625 0.80566,0.870117 0.33301,0.354492 0.50488,0.494141 0.45118,0.354492 1.09571,0.526367 0.56933,0.150391 1.07422,0.150391 0.0645,0 0.1289,0 0.043,0.06445 0.0645,0.279296 0,0.05371 0,0.09668 0,0.139649 -0.043,0.214844 -0.13965,0.06445 -0.63379,0.107422 -0.49414,0.04297 -0.98828,0.04297 -0.98828,0 -1.8584,-0.354493 -0.859377,-0.365234 -1.203127,-0.741211 -2.148437,-2.320312 -3.566406,-3.856445 -0.04297,-0.06445 -0.139648,-0.118164 -0.09668,-0.05371 -0.161133,-0.08594 l -0.0752,-0.02149 v 2.191406 q 0,1.439454 0.128906,1.847657 0.02148,0.08594 0.225586,0.171875 0.204101,0.08594 0.472656,0.128906 0.268555,0.04297 0.504883,0.0752 0.236328,0.02148 0.365234,0.02148 0.0752,0.09668 0.0752,0.365234 0.01074,0.257812 -0.0752,0.354492 -0.34375,-0.02148 -0.880859,-0.05371 -0.537109,-0.03223 -0.945313,-0.05371 -0.408203,-0.02148 -0.848632,-0.02148 -0.429688,0 -0.837891,0.02148 -0.397461,0.02148 -0.923828,0.05371 -0.526367,0.03223 -0.870117,0.05371 -0.09668,-0.09668 -0.09668,-0.333008 0,-0.279297 0.09668,-0.386718 z"/>
	<path d="m 105.49902,14.501953 q 0.20411,-0.15039 0.45118,-0.15039 0.15039,0 0.22558,0.05371 0.0859,0.322266 0.25781,0.655274 0.18262,0.322266 0.44043,0.633789 0.25782,0.300781 0.5586,0.547851 0.30078,0.236329 0.67676,0.386719 0.37597,0.139649 0.75195,0.139649 0.79492,0 1.28906,-0.472657 0.50488,-0.483398 0.50488,-1.321289 0,-0.365234 -0.13964,-0.676757 -0.12891,-0.322266 -0.32227,-0.53711 -0.18262,-0.225586 -0.52637,-0.472656 -0.33301,-0.24707 -0.6123,-0.386719 -0.26856,-0.15039 -0.71973,-0.386719 -0.45117,-0.24707 -0.71973,-0.408203 -0.4082,-0.236328 -0.71972,-0.472656 -0.31153,-0.24707 -0.59082,-0.569336 -0.2793,-0.322265 -0.42969,-0.730469 -0.15039,-0.4082027 -0.15039,-0.8916012 0,-0.8916015 0.51562,-1.5898437 0.52637,-0.7089844 1.34278,-1.0742188 0.82715,-0.3759766 1.75097,-0.3759766 0.42969,0 0.80567,0.053711 0.37598,0.053711 0.84863,0.1396484 0.4834,0.085937 0.8916,0.1289063 0.25782,1.1279297 0.30078,2.75 0,0.118164 -0.24707,0.118164 -0.26855,0 -0.42968,-0.118164 -0.0967,-0.3759766 -0.29004,-0.7519531 -0.18262,-0.3867188 -0.44043,-0.741211 -0.25781,-0.3544922 -0.62305,-0.5800781 -0.35449,-0.225586 -0.74121,-0.225586 -0.58008,0 -0.98828,0.2148438 -0.39746,0.2041016 -0.59082,0.5585937 -0.18262,0.3437501 -0.18262,0.7949219 0,0.2685547 0.0537,0.5048828 0.0537,0.225586 0.18262,0.4189454 0.12891,0.1933593 0.24707,0.3330082 0.12891,0.139648 0.36523,0.300781 0.23633,0.161133 0.38672,0.257812 0.16114,0.08594 0.46192,0.257813 0.30078,0.171875 0.46191,0.268555 0.12891,0.08594 0.44043,0.268554 0.31152,0.171875 0.4834,0.279297 0.18262,0.09668 0.47266,0.300781 0.29003,0.19336 0.46191,0.34375 0.18262,0.150391 0.39746,0.375977 0.21484,0.225586 0.33301,0.44043 0.11816,0.204101 0.19336,0.483398 0.0859,0.268555 0.0859,0.547852 0,0.988281 -0.5371,1.783203 -0.53711,0.794922 -1.41797,1.235351 -0.87012,0.429688 -1.87989,0.429688 -0.51562,0 -0.95605,-0.0752 -0.44043,-0.06445 -1.03125,-0.204101 -0.59082,-0.139649 -0.92383,-0.204102 -0.15039,-0.386718 -0.29004,-1.235351 -0.13965,-0.859375 -0.13965,-1.353516 z"/>
	<path d="m 114.89844,13.0625 q 0,-1.224609 0.27929,-2.449219 0.2793,-1.2353513 0.80567,-2.363281 0.53711,-1.1279297 1.34277,-2.1054688 0.81641,-0.977539 1.80469,-1.6972656 0.99902,-0.7304687 2.27734,-1.1386718 1.27832,-0.4189454 2.68555,-0.4189454 1.02051,0 1.93359,0.225586 0.92383,0.2148437 1.6543,0.6230469 0.73047,0.3974609 1.34277,0.9560546 0.61231,0.5478516 1.05274,1.2246094 0.44043,0.6660156 0.74121,1.4287109 0.30078,0.7626954 0.45117,1.5791016 0.15039,0.8056641 0.15039,1.6435552 0,1.407226 -0.39746,2.685546 -0.39746,1.267579 -1.07422,2.202149 -0.67676,0.923828 -1.63281,1.471679 -0.95605,0.53711 -2.03027,0.53711 -0.9668,0 -1.52539,-0.515625 -0.54786,-0.526367 -0.54786,-1.62207 0,-0.225586 0.0537,-0.612305 0.0644,-0.386719 0.1289,-0.537109 -0.16113,0.311523 -0.4082,0.698242 -0.24707,0.375976 -0.62305,0.83789 -0.37598,0.461914 -0.76269,0.837891 -0.38672,0.365234 -0.84864,0.623047 -0.46191,0.24707 -0.88086,0.24707 -0.74121,0 -1.28906,-0.483398 -0.54785,-0.483399 -0.8164,-1.235352 -0.25782,-0.751953 -0.25782,-1.654297 0,-0.880859 0.29004,-1.815429 0.30078,-0.934571 0.79492,-1.761719 0.50489,-0.8378908 1.20313,-1.5791017 0.69824,-0.741211 1.47168,-1.2783204 0.78418,-0.5371093 1.6543,-0.8486328 0.88085,-0.3115234 1.71875,-0.3115234 0.93457,0 1.81542,0.3222656 l -1.52539,7.8740237 q -0.0752,0.300781 -0.0752,0.623047 0,0.569336 0.33301,0.848632 0.333,0.268555 0.87011,0.268555 0.58008,0 1.18164,-0.461914 0.61231,-0.472656 1.08497,-1.235351 0.48339,-0.773438 0.78418,-1.847657 0.31152,-1.074218 0.31152,-2.202148 0,-1.0312502 -0.23633,-1.9980471 -0.23633,-0.9667968 -0.75195,-1.836914 -0.50489,-0.8701172 -1.23535,-1.5146485 -0.73047,-0.6445312 -1.79395,-1.0205078 -1.05273,-0.3867187 -2.30957,-0.3867187 -1.23535,0 -2.37402,0.3759765 -1.12793,0.3759766 -2.01953,1.0419922 -0.88086,0.6552735 -1.61133,1.546875 -0.73047,0.8808594 -1.21387,1.9013672 -0.47266,1.0205078 -0.73047,2.1269532 -0.25781,1.095703 -0.25781,2.180664 0,1.052734 0.25781,2.041016 0.26856,0.977539 0.73047,1.750976 0.46191,0.773438 1.05273,1.375 0.59082,0.612305 1.27832,1.009766 0.60157,0.354492 1.00977,0.483398 0.4082,0.139649 0.85938,0.214844 0,0.09668 -0.16114,0.204102 -0.16113,0.107421 -0.37597,0.171875 -0.21485,0.0752 -0.3545,0.0752 -0.59082,0 -0.97754,-0.150391 -0.85937,-0.322265 -1.64355,-0.999023 -0.77344,-0.666016 -1.375,-1.589844 -0.59082,-0.913086 -0.94531,-2.105469 -0.34375,-1.203125 -0.34375,-2.481445 z m 5.45703,0.472656 q 0,2.438477 1.26758,2.438477 0.60156,0 1.34277,-0.870117 0.74121,-0.88086 1.32129,-2.15918 0.59082,-1.289063 0.82715,-2.481445 l 0.49414,-2.5351566 q -0.29004,-0.3222657 -1.02051,-0.3222657 -0.55859,0 -1.1709,0.3330079 -0.6123,0.3330078 -1.14941,0.9345703 -0.53711,0.5908203 -0.97754,1.3320311 -0.42969,0.741211 -0.6875,1.62207 -0.24707,0.870118 -0.24707,1.708008 z"/>
	<path d="m 132.83789,16.650391 q 0.35449,0 0.93457,-0.107422 0.58008,-0.118164 0.63379,-0.290039 0.11816,-0.408203 0.11816,-1.847657 V 3.3837891 q 0,-0.9882813 -0.11816,-1.2890625 -0.19336,-0.4511719 -1.52539,-0.4511719 -0.0107,0 -0.0215,-0.1503906 -0.0107,-0.1611329 -0.0107,-0.3222657 0.0107,-0.1611328 0.0645,-0.17187496 1.708,-0.171875 3.53418,-0.99902344 0.0967,0 0.18261,0.13964844 0.0967,0.12890625 0.0967,0.2578125 -0.27929,0.80566406 -0.27929,2.16992186 V 14.405273 q 0,1.439454 0.1289,1.847657 0.0215,0.08594 0.22559,0.171875 0.2041,0.08594 0.47265,0.128906 0.26856,0.04297 0.50489,0.0752 0.23633,0.02148 0.36523,0.02148 0.0752,0.107421 0.0752,0.365234 0,0.01074 0.0107,0.02148 0,0.236328 -0.0859,0.333008 -0.34375,-0.02148 -0.88086,-0.05371 -0.53711,-0.03223 -0.94531,-0.05371 -0.4082,-0.02148 -0.84863,-0.02148 -0.42969,0 -0.83789,0.02148 -0.39746,0.02148 -0.92383,0.05371 -0.52637,0.03223 -0.87012,0.05371 -0.0967,-0.09668 -0.0967,-0.333008 0,-0.279297 0.0967,-0.386718 z"/>
	<path d="m 139.65918,12.310547 q 0,-0.816406 0.2041,-1.600586 0.21485,-0.7841797 0.58008,-1.4179688 0.36523,-0.6445313 0.84863,-1.1923828 0.4834,-0.5585938 1.02051,-0.9238282 0.54785,-0.3759765 1.12793,-0.5800781 0.58008,-0.2148437 1.12793,-0.2148437 0.6123,0 1.13867,0.1396484 0.53711,0.1289063 0.91309,0.3544922 0.37597,0.2255859 0.66601,0.5263672 0.30078,0.3007812 0.4834,0.6123047 0.19336,0.3115234 0.31152,0.6445312 0.12891,0.3330078 0.17188,0.6123047 0.0537,0.2685547 0.0537,0.4941406 0,0.5800786 -0.12891,0.8701176 -0.1289,0.290039 -0.47265,0.300781 -0.50488,0.03223 -3.2334,0.107422 -2.71777,0.0752 -3.04004,0.0752 v 0.171875 q 0,0.891602 0.21484,1.654297 0.21485,0.751953 0.59082,1.299805 0.37598,0.537109 0.89161,0.913086 0.51562,0.375976 1.10644,0.558593 0.60156,0.182618 1.25684,0.182618 0.47265,0 0.94531,-0.139649 0.47266,-0.150391 0.82715,-0.375976 0.35449,-0.236329 0.58008,-0.429688 0.23632,-0.204102 0.38672,-0.375977 0.0107,0 0.0537,0.04297 0.0537,0.04297 0.0967,0.128906 0.043,0.08594 0.043,0.182618 0,0.193359 -0.13964,0.440429 -0.20411,0.322266 -0.50489,0.644532 -0.30078,0.322265 -0.75195,0.676757 -0.44043,0.354493 -1.07422,0.580078 -0.62305,0.225586 -1.31055,0.225586 -1.45019,0 -2.5996,-0.676757 -1.13868,-0.6875 -1.76172,-1.869141 -0.62305,-1.181641 -0.62305,-2.642578 z m 1.89062,-2.116211 h 4.06055 q 0.58008,0 0.58008,-0.5800782 0,-0.2255859 -0.0644,-0.515625 -0.0645,-0.290039 -0.22559,-0.6123047 -0.15039,-0.3330078 -0.37598,-0.5908203 -0.22558,-0.2685547 -0.59082,-0.4404297 -0.35449,-0.1826172 -0.79492,-0.1826172 -0.41894,0 -0.79492,0.1611328 -0.37598,0.1611329 -0.64453,0.4189454 -0.25781,0.2578125 -0.47266,0.5693359 -0.2041,0.3115234 -0.33301,0.6230469 -0.1289,0.3115234 -0.21484,0.5693359 -0.0859,0.2578125 -0.11816,0.4189452 -0.0215,0.161133 -0.0108,0.161133 z"/>
	<path d="m 149.86426,7.3261719 q 0,-0.064453 0.27929,-0.3759766 0.2793,-0.3222656 0.37598,-0.4189453 h 0.92383 V 4.9628906 q 0.19336,-0.2363281 0.56934,-0.6445312 0.37597,-0.4082031 0.64453,-0.6982422 0.27929,-0.3007813 0.30078,-0.3330078 0.0644,-0.064453 0.16113,-0.085937 0.0645,-0.021484 0.10742,-0.010742 0.0322,0.010742 0.0537,0.010742 0.0645,0.021484 0.0752,0.064453 V 6.53125 h 3.21191 q 0.0537,0 0.0752,0.021484 0.0322,0.010742 0.043,0.064453 0.0107,0.042969 0.0107,0.075195 0,0.032227 0,0.1074219 0,0.3974609 -0.34375,0.7519531 h -2.99707 v 6.5312502 q 0,0.999023 0.4082,1.52539 0.41895,0.515625 1.23535,0.515625 0.34375,0 0.71973,-0.128906 0.37598,-0.128906 0.56934,-0.236328 0.19336,-0.107422 0.333,-0.204101 0.0752,0.03223 0.0752,0.171875 0,0.06445 -0.0215,0.15039 -0.0215,0.08594 -0.043,0.150391 -0.0215,0.05371 -0.0322,0.0752 -0.17188,0.193359 -0.39746,0.386719 -0.21485,0.193359 -0.5586,0.440429 -0.333,0.236329 -0.76269,0.386719 -0.41895,0.150391 -0.84863,0.150391 -0.40821,0 -0.7627,-0.0752 -0.35449,-0.06445 -0.69824,-0.247071 -0.34375,-0.193359 -0.59082,-0.483398 -0.24707,-0.300781 -0.39746,-0.78418 -0.13965,-0.483398 -0.13965,-1.095703 V 7.5517578 h -1.4502 q -0.0537,0 -0.0967,-0.075195 -0.0322,-0.085937 -0.0322,-0.1503906 z"/>
	<path d="m 157.60938,7.3261719 q 0,-0.064453 0.27929,-0.3759766 0.2793,-0.3222656 0.37598,-0.4189453 h 0.92383 V 4.9628906 q 0.19336,-0.2363281 0.56933,-0.6445312 0.37598,-0.4082031 0.64453,-0.6982422 0.2793,-0.3007813 0.30079,-0.3330078 0.0645,-0.064453 0.16113,-0.085937 0.0644,-0.021484 0.10742,-0.010742 0.0322,0.010742 0.0537,0.010742 0.0645,0.021484 0.0752,0.064453 V 6.53125 h 3.21191 q 0.0537,0 0.0752,0.021484 0.0322,0.010742 0.043,0.064453 0.0108,0.042969 0.0108,0.075195 0,0.032227 0,0.1074219 0,0.3974609 -0.34375,0.7519531 h -2.99707 v 6.5312502 q 0,0.999023 0.4082,1.52539 0.41894,0.515625 1.23535,0.515625 0.34375,0 0.71973,-0.128906 0.37597,-0.128906 0.56933,-0.236328 0.19336,-0.107422 0.33301,-0.204101 0.0752,0.03223 0.0752,0.171875 0,0.06445 -0.0215,0.15039 -0.0215,0.08594 -0.043,0.150391 -0.0215,0.05371 -0.0322,0.0752 -0.17188,0.193359 -0.39746,0.386719 -0.21485,0.193359 -0.5586,0.440429 -0.33301,0.236329 -0.76269,0.386719 -0.41895,0.150391 -0.84864,0.150391 -0.4082,0 -0.76269,-0.0752 -0.35449,-0.06445 -0.69824,-0.247071 -0.34375,-0.193359 -0.59082,-0.483398 -0.24707,-0.300781 -0.39746,-0.78418 -0.13965,-0.483398 -0.13965,-1.095703 V 7.5517578 h -1.4502 q -0.0537,0 -0.0967,-0.075195 -0.0322,-0.085937 -0.0322,-0.1503906 z"/>
	<path d="m 165.85938,12.310547 q 0,-0.816406 0.2041,-1.600586 0.21484,-0.7841797 0.58007,-1.4179688 0.36524,-0.6445313 0.84864,-1.1923828 0.4834,-0.5585938 1.02051,-0.9238282 0.54785,-0.3759765 1.12793,-0.5800781 0.58007,-0.2148437 1.12792,-0.2148437 0.61231,0 1.13868,0.1396484 0.53711,0.1289063 0.91308,0.3544922 0.37598,0.2255859 0.66602,0.5263672 0.30078,0.3007812 0.4834,0.6123047 0.19336,0.3115234 0.31152,0.6445312 0.12891,0.3330078 0.17188,0.6123047 0.0537,0.2685547 0.0537,0.4941406 0,0.5800786 -0.12891,0.8701176 -0.12891,0.290039 -0.47266,0.300781 -0.50488,0.03223 -3.23339,0.107422 -2.71778,0.0752 -3.04004,0.0752 v 0.171875 q 0,0.891602 0.21484,1.654297 0.21484,0.751953 0.59082,1.299805 0.37598,0.537109 0.8916,0.913086 0.51563,0.375976 1.10645,0.558593 0.60156,0.182618 1.25683,0.182618 0.47266,0 0.94532,-0.139649 0.47265,-0.150391 0.82714,-0.375976 0.3545,-0.236329 0.58008,-0.429688 0.23633,-0.204102 0.38672,-0.375977 0.0107,0 0.0537,0.04297 0.0537,0.04297 0.0967,0.128906 0.043,0.08594 0.043,0.182618 0,0.193359 -0.13965,0.440429 -0.2041,0.322266 -0.50488,0.644532 -0.30078,0.322265 -0.75195,0.676757 -0.44043,0.354493 -1.07422,0.580078 -0.62305,0.225586 -1.31055,0.225586 -1.4502,0 -2.59961,-0.676757 -1.13867,-0.6875 -1.76172,-1.869141 -0.62304,-1.181641 -0.62304,-2.642578 z M 167.75,10.194336 h 4.06055 q 0.58008,0 0.58008,-0.5800782 0,-0.2255859 -0.0645,-0.515625 -0.0644,-0.290039 -0.22558,-0.6123047 -0.15039,-0.3330078 -0.37598,-0.5908203 -0.22559,-0.2685547 -0.59082,-0.4404297 -0.35449,-0.1826172 -0.79492,-0.1826172 -0.41895,0 -0.79492,0.1611328 -0.37598,0.1611329 -0.64454,0.4189454 -0.25781,0.2578125 -0.47265,0.5693359 -0.2041,0.3115234 -0.33301,0.6230469 -0.12891,0.3115234 -0.21484,0.5693359 -0.0859,0.2578125 -0.11817,0.4189452 -0.0215,0.161133 -0.0107,0.161133 z"/>
	<path d="m 176.36523,7.734375 q 0,-0.032227 0,-0.075195 0,-0.1933594 0.0537,-0.2792969 2.12695,-0.3007812 3.5664,-1.0527344 0.0859,0 0.17188,0.1503907 0.0967,0.1503906 0.0967,0.2470703 -0.0215,0.1503906 -0.0967,1.1279297 -0.0752,0.977539 -0.0752,1.1708984 0,0.064453 0.0322,0.075195 0.043,0 0.0644,-0.032227 0.19336,-0.4082032 0.51563,-0.859375 0.32226,-0.4619141 0.70898,-0.8701172 0.39746,-0.4082032 0.85938,-0.6660157 0.46191,-0.2685547 0.85937,-0.2685547 0.4834,0 0.91309,0.2148438 0.44043,0.2041016 0.60156,0.5048828 0.10742,0.3007813 0.10742,0.6767578 0,0.6123047 -0.29004,0.9560547 -0.2793,0.34375 -0.53711,0.34375 -0.11816,0 -0.25781,-0.053711 -0.12891,-0.053711 -0.22559,-0.1181641 -0.0859,-0.064453 -0.23632,-0.1611328 -0.13965,-0.09668 -0.20411,-0.1396484 -0.44043,-0.3007813 -0.91308,-0.3007813 -0.38672,0 -0.77344,0.2685547 -0.37598,0.2685547 -0.63379,0.6445313 -0.25781,0.3652343 -0.42969,0.7412109 -0.16113,0.3652348 -0.16113,0.5908208 v 3.83496 q 0,1.439454 0.12891,1.847657 0.043,0.171875 0.87011,0.290039 0.8379,0.107422 1.26758,0.107422 0.0752,0.09668 0.0752,0.365234 0.0107,0.257812 -0.0752,0.354492 -2.55664,-0.128906 -3.09375,-0.128906 -0.42968,0 -0.87011,0.02148 -0.42969,0.02148 -1.02051,0.05371 -0.58008,0.04297 -0.8916,0.05371 -0.0967,-0.09668 -0.0967,-0.354492 0.0107,-0.268555 0.0967,-0.365234 0.35449,0 0.93457,-0.107422 0.58007,-0.118164 0.63379,-0.290039 0.11816,-0.408203 0.11816,-1.847657 V 9.7646484 q 0,-0.9882812 -0.11816,-1.2890625 -0.0859,-0.1933593 -0.4834,-0.3007812 -0.39746,-0.1181641 -0.66602,-0.1289063 -0.26855,-0.021484 -0.47265,-0.021484 -0.043,-0.032227 -0.0537,-0.2900391 z"/>
	<path d="m 185.20605,1.4824219 q 0,-0.075195 -0.0107,-0.1503907 0,-0.085937 0.0107,-0.1611328 0.0108,-0.1611328 0.0537,-0.17187496 1.708,-0.171875 3.53418,-0.99902344 0.0967,0 0.18261,0.13964844 0.0967,0.12890625 0.0967,0.2578125 -0.27929,0.80566406 -0.27929,2.16992186 v 4.9091797 q 0,0.064453 0,0.1074219 0.0107,0.042969 0.0215,0.118164 0.0107,0.064453 0.043,0.053711 0.0322,-0.010742 0.0859,-0.032227 0.51562,-0.3759766 1.46093,-0.859375 0.94532,-0.4833984 1.55762,-0.4833984 0.87012,0 1.62207,0.3115234 0.75195,0.3115234 1.27832,0.8378906 0.52637,0.515625 0.90235,1.1816407 0.38671,0.6660156 0.56933,1.3749999 0.19336,0.708984 0.19336,1.396484 0,1.213868 -0.47266,2.320313 -0.47265,1.095703 -1.27832,1.901367 -0.80566,0.805664 -1.96582,1.289063 -1.14941,0.472656 -2.43847,0.472656 -0.53711,0 -1.84766,-0.375977 -0.0644,-0.01074 -0.26855,-0.06445 -0.20411,-0.06445 -0.2793,-0.0752 -0.0752,-0.02148 -0.24707,-0.05371 -0.17188,-0.04297 -0.2793,-0.03223 -0.10742,0 -0.25781,0.02148 -0.15039,0.01074 -0.29004,0.06445 -0.0859,0 -0.2041,-0.225586 -0.11817,-0.225586 -0.11817,-0.333008 0.30079,-0.655273 0.30079,-1.836914 V 3.3837891 q 0,-0.9882813 -0.12891,-1.2890625 -0.19336,-0.4511719 -1.51465,-0.4511719 -0.0215,-0.010742 -0.0322,-0.1611328 z m 3.5879,13.3740231 q 0,0.504883 0.35449,0.923828 0.35449,0.418946 0.88086,0.633789 0.52636,0.204102 1.08496,0.204102 0.87012,0 1.64355,-0.612305 0.77344,-0.623046 1.22461,-1.579101 0.45117,-0.966797 0.45117,-1.96582 0,-2.148438 -0.99902,-3.3730474 -0.98828,-1.2353515 -2.66406,-1.2353515 -0.45117,0 -1.05274,0.2363281 -0.60156,0.2363281 -0.79492,0.4296875 -0.1289,0.1289062 -0.1289,0.2792969 z"/>
	<path d="m 198.53711,11.988281 q 0,-1.192383 0.4082,-2.2343747 0.40821,-1.0419922 1.10645,-1.7832032 0.70898,-0.7519531 1.69726,-1.1816406 0.98828,-0.4296875 2.09473,-0.4296875 1.61133,0 2.83594,0.7089844 1.22461,0.7089843 1.8584,1.9335937 0.64453,1.2246099 0.64453,2.7822269 0,1.192383 -0.40821,2.245117 -0.4082,1.052734 -1.10644,1.81543 -0.69824,0.751953 -1.68652,1.192382 -0.97754,0.429688 -2.08399,0.429688 -1.21387,0 -2.22363,-0.418945 -1.00977,-0.418946 -1.69727,-1.149414 -0.67676,-0.730469 -1.06347,-1.740235 -0.37598,-1.009765 -0.37598,-2.169922 z m 2.14844,-0.504883 q 0,0.741211 0.13965,1.47168 0.13964,0.730469 0.42968,1.396485 0.29004,0.666015 0.69825,1.18164 0.4082,0.504883 0.97753,0.816406 0.56934,0.300782 1.21387,0.300782 0.51563,0 0.94531,-0.171875 0.44043,-0.171875 0.75196,-0.472657 0.31152,-0.300781 0.53711,-0.698242 0.23632,-0.408203 0.37597,-0.891601 0.13965,-0.494141 0.2041,-0.999024 0.0752,-0.515625 0.0752,-1.052734 0,-0.923828 -0.23633,-1.836914 -0.22558,-0.9130862 -0.65527,-1.6650393 -0.42969,-0.7519531 -1.10645,-1.2138672 -0.66601,-0.4726563 -1.46093,-0.4726563 -0.62305,0 -1.11719,0.2470704 -0.49414,0.2470703 -0.82715,0.6552734 -0.32227,0.4082031 -0.54785,0.9667969 -0.21485,0.5585937 -0.31153,1.1708981 -0.0859,0.601563 -0.0859,1.267578 z"/>
	<path d="m 209.93457,16.972656 q 0.0215,-0.236328 0.0644,-0.322265 0.0537,-0.01074 0.30078,-0.04297 0.24708,-0.04297 0.33301,-0.05371 0.0859,-0.02148 0.31153,-0.06445 0.22558,-0.04297 0.333,-0.08594 0.10743,-0.04297 0.29004,-0.107422 0.19336,-0.0752 0.31153,-0.161132 0.11816,-0.08594 0.24707,-0.204102 0.13965,-0.118164 0.24707,-0.257812 2.30957,-3.340821 2.43847,-3.512696 l -2.88964,-4.3076169 q -0.18262,-0.2900391 -0.6875,-0.4189454 -0.50489,-0.1289062 -0.98829,-0.1289062 -0.0215,0 -0.0322,-0.1503906 0,-0.1503907 0.0107,-0.3222657 0.0107,-0.1826171 0.0537,-0.2578125 1.36426,0.1289063 2.45996,0.1289063 1.14942,0 2.52442,-0.1289063 0.0322,0.1289063 0.0322,0.3867188 0,0.2470703 -0.0859,0.34375 -0.99902,0 -0.99902,0.4189453 0,0.09668 0.12891,0.3007813 l 1.64355,2.6210939 q 0.2041,-0.322266 0.71973,-1.0312502 0.51562,-0.7197265 0.78418,-1.1601562 0.26855,-0.4511719 0.26855,-0.6767579 0,-0.1396484 -0.1289,-0.2363281 -0.12891,-0.09668 -0.33301,-0.1396484 -0.19336,-0.042969 -0.37598,-0.064453 -0.18261,-0.021484 -0.36523,-0.021484 -0.17188,-0.010742 -0.19336,-0.010742 -0.043,-0.021484 -0.0537,-0.3330078 0,-0.3115235 0.0537,-0.397461 0.36523,0.021484 0.82715,0.053711 0.47265,0.032227 0.84863,0.053711 0.38672,0.021484 0.83789,0.021484 1.11719,0 1.99805,-0.1289063 0.0215,0.09668 0.0107,0.4189454 0,0.3115234 -0.043,0.3115234 -1.55762,0.075195 -1.91211,0.5478516 -0.32226,0.4296875 -0.95605,1.3320312 -0.63379,0.8916017 -1.042,1.4501957 -0.39746,0.558593 -0.49414,0.676757 l 2.98633,4.436524 q 0.62305,0.902344 1.92285,0.902344 0.0215,0 0.0322,0.15039 0,0.06445 0,0.128906 -0.0107,0.09668 -0.0107,0.214844 -0.0215,0.182617 -0.0537,0.225586 -0.31153,-0.02148 -0.7627,-0.05371 -0.45117,-0.03223 -0.80566,-0.05371 -0.35449,-0.02148 -0.77344,-0.02148 -0.47266,0 -0.90234,0.02148 -0.41895,0.02148 -0.95606,0.05371 -0.53711,0.03223 -0.90234,0.05371 -0.0537,-0.128906 -0.043,-0.418945 0.0107,-0.300781 0.0644,-0.300781 0.21485,-0.02148 0.42969,-0.06445 0.22559,-0.04297 0.41895,-0.139648 0.2041,-0.107422 0.2041,-0.24707 0,-0.05371 -0.0537,-0.150391 -1.29981,-2.116211 -1.96582,-3.115234 -0.13965,0.204101 -0.77344,1.127929 -0.62305,0.923829 -1.02051,1.56836 -0.15039,0.236328 -0.15039,0.472656 0,0.150391 0.0967,0.257813 0.10742,0.09668 0.32226,0.161132 0.21485,0.05371 0.36524,0.0752 0.16113,0.01074 0.45117,0.04297 0.0859,0 0.12891,0.01074 0.0322,0 0.043,0.15039 0.0107,0.150391 -0.0108,0.333008 -0.0107,0.182617 -0.0537,0.236328 -0.34375,-0.02148 -0.78418,-0.05371 -0.44043,-0.03223 -0.79492,-0.05371 -0.35449,-0.02148 -0.78418,-0.02148 -0.42969,0 -0.78418,0.02148 -0.35449,0.02148 -0.79492,0.05371 -0.42969,0.03223 -0.7627,0.05371 -0.0322,-0.107422 -0.0322,-0.268555 0.0107,-0.06445 0.0107,-0.128906 z"/>
	<path d="m 222.01953,12.310547 q 0,-0.816406 0.2041,-1.600586 0.21485,-0.7841797 0.58008,-1.4179688 0.36524,-0.6445313 0.84863,-1.1923828 0.4834,-0.5585938 1.02051,-0.9238282 0.54785,-0.3759765 1.12793,-0.5800781 0.58008,-0.2148437 1.12793,-0.2148437 0.61231,0 1.13867,0.1396484 0.53711,0.1289063 0.91309,0.3544922 0.37598,0.2255859 0.66601,0.5263672 0.30079,0.3007812 0.4834,0.6123047 0.19336,0.3115234 0.31153,0.6445312 0.1289,0.3330078 0.17187,0.6123047 0.0537,0.2685547 0.0537,0.4941406 0,0.5800786 -0.1289,0.8701176 -0.12891,0.290039 -0.47266,0.300781 -0.50488,0.03223 -3.2334,0.107422 -2.71777,0.0752 -3.04004,0.0752 v 0.171875 q 0,0.891602 0.21485,1.654297 0.21484,0.751953 0.59082,1.299805 0.37597,0.537109 0.8916,0.913086 0.51562,0.375976 1.10644,0.558593 0.60157,0.182618 1.25684,0.182618 0.47266,0 0.94531,-0.139649 0.47266,-0.150391 0.82715,-0.375976 0.35449,-0.236329 0.58008,-0.429688 0.23633,-0.204102 0.38672,-0.375977 0.0107,0 0.0537,0.04297 0.0537,0.04297 0.0967,0.128906 0.043,0.08594 0.043,0.182618 0,0.193359 -0.13965,0.440429 -0.2041,0.322266 -0.50488,0.644532 -0.30079,0.322265 -0.75196,0.676757 -0.44043,0.354493 -1.07422,0.580078 -0.62304,0.225586 -1.31054,0.225586 -1.4502,0 -2.59961,-0.676757 -1.13867,-0.6875 -1.76172,-1.869141 -0.62305,-1.181641 -0.62305,-2.642578 z m 1.89063,-2.116211 h 4.06054 q 0.58008,0 0.58008,-0.5800782 0,-0.2255859 -0.0644,-0.515625 -0.0645,-0.290039 -0.22559,-0.6123047 -0.15039,-0.3330078 -0.37597,-0.5908203 -0.22559,-0.2685547 -0.59082,-0.4404297 -0.3545,-0.1826172 -0.79493,-0.1826172 -0.41894,0 -0.79492,0.1611328 -0.37597,0.1611329 -0.64453,0.4189454 -0.25781,0.2578125 -0.47266,0.5693359 -0.2041,0.3115234 -0.333,0.6230469 -0.12891,0.3115234 -0.21485,0.5693359 -0.0859,0.2578125 -0.11816,0.4189452 -0.0215,0.161133 -0.0107,0.161133 z"/>
	<path d="m 232.75098,14.501953 q 0.2041,-0.15039 0.45117,-0.15039 0.15039,0 0.22558,0.05371 0.0859,0.322266 0.25782,0.655274 0.18261,0.322266 0.44043,0.633789 0.25781,0.300781 0.55859,0.547851 0.30078,0.236329 0.67676,0.386719 0.37597,0.139649 0.75195,0.139649 0.79492,0 1.28906,-0.472657 0.50489,-0.483398 0.50489,-1.321289 0,-0.365234 -0.13965,-0.676757 -0.12891,-0.322266 -0.32227,-0.53711 -0.18261,-0.225586 -0.52636,-0.472656 -0.33301,-0.24707 -0.61231,-0.386719 -0.26855,-0.15039 -0.71973,-0.386719 -0.45117,-0.24707 -0.71972,-0.408203 -0.40821,-0.236328 -0.71973,-0.472656 -0.31152,-0.24707 -0.59082,-0.569336 -0.2793,-0.322265 -0.42969,-0.730469 -0.15039,-0.4082027 -0.15039,-0.8916012 0,-0.8916015 0.51563,-1.5898437 0.52636,-0.7089844 1.34277,-1.0742188 0.82715,-0.3759766 1.75098,-0.3759766 0.42969,0 0.80566,0.053711 0.37598,0.053711 0.84863,0.1396484 0.4834,0.085937 0.89161,0.1289063 0.25781,1.1279297 0.30078,2.75 0,0.118164 -0.24707,0.118164 -0.26856,0 -0.42969,-0.118164 -0.0967,-0.3759766 -0.29004,-0.7519531 -0.18262,-0.3867188 -0.44043,-0.741211 -0.25781,-0.3544922 -0.62305,-0.5800781 -0.35449,-0.225586 -0.74121,-0.225586 -0.58008,0 -0.98828,0.2148438 -0.39746,0.2041016 -0.59082,0.5585937 -0.18262,0.3437501 -0.18262,0.7949219 0,0.2685547 0.0537,0.5048828 0.0537,0.225586 0.18261,0.4189454 0.12891,0.1933593 0.24707,0.3330082 0.12891,0.139648 0.36524,0.300781 0.23633,0.161133 0.38672,0.257812 0.16113,0.08594 0.46191,0.257813 0.30078,0.171875 0.46191,0.268555 0.12891,0.08594 0.44043,0.268554 0.31153,0.171875 0.4834,0.279297 0.18262,0.09668 0.47266,0.300781 0.29004,0.19336 0.46191,0.34375 0.18262,0.150391 0.39746,0.375977 0.21485,0.225586 0.33301,0.44043 0.11817,0.204101 0.19336,0.483398 0.0859,0.268555 0.0859,0.547852 0,0.988281 -0.53711,1.783203 -0.53711,0.794922 -1.41797,1.235351 -0.87012,0.429688 -1.87988,0.429688 -0.51563,0 -0.95606,-0.0752 -0.44043,-0.06445 -1.03125,-0.204101 -0.59082,-0.139649 -0.92383,-0.204102 -0.15039,-0.386718 -0.29003,-1.235351 -0.13965,-0.859375 -0.13965,-1.353516 z"/>
	<path d="m 242.11816,16.177734 q 0,-0.365234 0.19336,-0.676757 0.19336,-0.311524 0.51563,-0.494141 0.32226,-0.182617 0.6875,-0.182617 0.55859,0 0.95605,0.397461 0.39746,0.386718 0.39746,0.956054 0,0.558594 -0.39746,0.977539 -0.39746,0.418946 -0.95605,0.418946 -0.5586,0 -0.97754,-0.418946 -0.41895,-0.418945 -0.41895,-0.977539 z"/>
	<path d="m 247.10254,11.988281 q 0,-1.192383 0.4082,-2.2343747 0.40821,-1.0419922 1.10645,-1.7832032 0.70898,-0.7519531 1.69726,-1.1816406 0.98828,-0.4296875 2.09473,-0.4296875 1.61133,0 2.83594,0.7089844 1.22461,0.7089843 1.8584,1.9335937 0.64453,1.2246099 0.64453,2.7822269 0,1.192383 -0.40821,2.245117 -0.4082,1.052734 -1.10644,1.81543 -0.69824,0.751953 -1.68652,1.192382 -0.97754,0.429688 -2.08399,0.429688 -1.21387,0 -2.22363,-0.418945 -1.00977,-0.418946 -1.69727,-1.149414 -0.67676,-0.730469 -1.06347,-1.740235 -0.37598,-1.009765 -0.37598,-2.169922 z m 2.14844,-0.504883 q 0,0.741211 0.13965,1.47168 0.13964,0.730469 0.42968,1.396485 0.29004,0.666015 0.69824,1.18164 0.40821,0.504883 0.97754,0.816406 0.56934,0.300782 1.21387,0.300782 0.51563,0 0.94531,-0.171875 0.44043,-0.171875 0.75196,-0.472657 0.31152,-0.300781 0.53711,-0.698242 0.23632,-0.408203 0.37597,-0.891601 0.13965,-0.494141 0.2041,-0.999024 0.0752,-0.515625 0.0752,-1.052734 0,-0.923828 -0.23633,-1.836914 -0.22558,-0.9130862 -0.65527,-1.6650393 -0.42969,-0.7519531 -1.10645,-1.2138672 -0.66601,-0.4726563 -1.46093,-0.4726563 -0.62305,0 -1.11719,0.2470704 -0.49414,0.2470703 -0.82715,0.6552734 -0.32227,0.4082031 -0.54785,0.9667969 -0.21485,0.5585937 -0.31153,1.1708981 -0.0859,0.601563 -0.0859,1.267578 z"/>
	<path d="m 259.55273,7.734375 q 0,-0.032227 0,-0.075195 0,-0.1933594 0.0537,-0.2792969 2.12695,-0.3007812 3.5664,-1.0527344 0.0859,0 0.17188,0.1503907 0.0967,0.1503906 0.0967,0.2470703 -0.0215,0.1503906 -0.0967,1.1279297 -0.0752,0.977539 -0.0752,1.1708984 0,0.064453 0.0322,0.075195 0.043,0 0.0645,-0.032227 0.19336,-0.4082032 0.51563,-0.859375 0.32226,-0.4619141 0.70898,-0.8701172 0.39746,-0.4082032 0.85938,-0.6660157 0.46191,-0.2685547 0.85937,-0.2685547 0.4834,0 0.91309,0.2148438 0.44043,0.2041016 0.60156,0.5048828 0.10742,0.3007813 0.10742,0.6767578 0,0.6123047 -0.29004,0.9560547 -0.2793,0.34375 -0.53711,0.34375 -0.11816,0 -0.25781,-0.053711 -0.12891,-0.053711 -0.22559,-0.1181641 -0.0859,-0.064453 -0.23632,-0.1611328 -0.13965,-0.09668 -0.20411,-0.1396484 -0.44043,-0.3007813 -0.91308,-0.3007813 -0.38672,0 -0.77344,0.2685547 -0.37598,0.2685547 -0.63379,0.6445313 -0.25781,0.3652343 -0.42969,0.7412109 -0.16113,0.3652348 -0.16113,0.5908208 v 3.83496 q 0,1.439454 0.12891,1.847657 0.043,0.171875 0.87011,0.290039 0.8379,0.107422 1.26758,0.107422 0.0752,0.09668 0.0752,0.365234 0.0107,0.257812 -0.0752,0.354492 -2.55664,-0.128906 -3.09375,-0.128906 -0.42968,0 -0.87011,0.02148 -0.42969,0.02148 -1.02051,0.05371 -0.58008,0.04297 -0.8916,0.05371 -0.0967,-0.09668 -0.0967,-0.354492 0.0107,-0.268555 0.0967,-0.365234 0.35449,0 0.93457,-0.107422 0.58007,-0.118164 0.63379,-0.290039 0.11816,-0.408203 0.11816,-1.847657 V 9.7646484 q 0,-0.9882812 -0.11816,-1.2890625 -0.0859,-0.1933593 -0.4834,-0.3007812 -0.39746,-0.1181641 -0.66602,-0.1289063 -0.26855,-0.021484 -0.47265,-0.021484 -0.043,-0.032227 -0.0537,-0.2900391 z"/>
	<path d="m 268.86621,19.916016 q 0,-0.311524 0.19336,-0.655274 0.2041,-0.333008 0.4834,-0.612305 0.29004,-0.279296 0.67676,-0.558593 0.38672,-0.268555 0.6875,-0.451172 0.30078,-0.171875 0.60156,-0.322266 -0.34375,-0.107422 -0.6875,-0.300781 -0.34375,-0.204102 -0.65527,-0.483398 -0.31153,-0.29004 -0.50489,-0.6875 -0.19336,-0.397461 -0.19336,-0.837891 0.29004,-0.34375 0.99903,-0.891602 0.71972,-0.547851 1.14941,-0.805664 -0.92383,-0.504882 -1.50391,-1.385742 -0.56933,-0.891601 -0.56933,-1.804687 0,-0.7304691 0.32226,-1.4179691 0.33301,-0.6875 0.88086,-1.203125 0.5586,-0.515625 1.34278,-0.8271485 0.79492,-0.3115234 1.66504,-0.3115234 0.30078,0 0.58007,0.032227 0.29004,0.032226 0.56934,0.118164 0.29004,0.075195 0.41895,0.1181641 0.1289,0.042969 0.4082,0.1611328 0.29004,0.1181641 0.29004,0.1181641 0.32226,0.118164 0.58008,0.171875 l 2.66406,-0.3759766 q 0.24707,0.075195 0.24707,0.2470703 0,0.1074219 -0.0967,0.3222656 -0.0859,0.2041016 -0.22559,0.4189453 -0.1289,0.2148438 -0.24707,0.2792969 l -1.64355,-0.09668 q -0.10742,0 -0.10742,0.075195 0.17187,0.1718751 0.42968,0.8486329 0.26856,0.6767578 0.26856,1.4179684 0,0.655274 -0.33301,1.310547 -0.32226,0.655274 -0.87012,1.181641 -0.54785,0.515625 -1.34277,0.848633 -0.79492,0.322265 -1.66504,0.322265 -0.31152,0 -0.76269,-0.0752 -0.44043,-0.07519 -0.63379,-0.150391 -0.17188,0.09668 -0.33301,0.225586 -0.16113,0.128907 -0.30078,0.268555 -0.12891,0.139648 -0.21485,0.300781 -0.0752,0.161133 -0.0752,0.300781 0,0.257813 0.41894,0.569336 0.41895,0.311524 1.08496,0.311524 h 2.93262 q 0.97754,0 1.86914,0.354492 0.8916,0.354492 1.43946,0.966797 0.55859,0.612305 0.55859,1.289062 0,0.762696 -0.53711,1.589844 -0.52637,0.837891 -1.39648,1.525391 -0.87012,0.6875 -2.08399,1.138672 -1.21387,0.451171 -2.45996,0.461914 -0.043,0 -0.0859,0 -0.73047,0 -1.45019,-0.182618 -0.75196,-0.193359 -1.38574,-0.558593 -0.62305,-0.365235 -1.00977,-0.966797 -0.38672,-0.601563 -0.38672,-1.332031 z m 1.97656,-0.730469 q 0,1.246094 0.89161,2.019531 0.8916,0.773438 2.44921,0.773438 0.84864,0 1.71875,-0.375977 0.88086,-0.375977 1.46094,-1.009766 0.58008,-0.623046 0.58008,-1.27832 0,-0.290039 -0.19336,-0.612305 -0.18262,-0.311523 -0.55859,-0.612304 -0.36524,-0.300782 -1.03125,-0.504883 -0.66602,-0.193359 -1.50391,-0.193359 -2.10547,0 -2.32031,0.128906 -0.5586,0.311523 -1.03125,0.773437 -0.46192,0.461914 -0.46192,0.891602 z m 0.62305,-9.163086 q 0,0.773437 0.26856,1.482422 0.26855,0.698242 0.82714,1.170898 0.56934,0.461914 1.28907,0.461914 0.49414,0 0.90234,-0.24707 0.41895,-0.257812 0.67676,-0.666016 0.25781,-0.408203 0.39746,-0.902343 0.15039,-0.504883 0.15039,-1.03125 0,-0.8056644 -0.25781,-1.5146488 -0.24707,-0.7089844 -0.79493,-1.1923828 -0.5371,-0.4833985 -1.26757,-0.4833985 -0.67676,0 -1.19239,0.4404297 -0.51562,0.4404297 -0.76269,1.0957032 -0.23633,0.6445312 -0.23633,1.3857422 z"/>
</svg>
