<?xml version="1.0" encoding="UTF-8" standalone="no"?>
<svg
   height="23.053156"
   version="1.1"
   width="210.20686"
   viewBox="0 0 210.20687 23.053156"
   id="svg32"
   xmlns="http://www.w3.org/2000/svg"
   xmlns:svg="http://www.w3.org/2000/svg">
  <defs
     id="defs36" />
  <g
     aria-label="weijia05@yahoo.com"
     id="text1339"
     style="font-size:22.0004px;line-height:1.25;font-family:Roboto;-inkscape-font-specification:Roboto;letter-spacing:0px;word-spacing:0px;stroke-width:1.10002"
     transform="translate(-1.2516051,-20.170191)">
    <path
       d="m 1.3160591,27.475011 q -0.064454,-0.118166 -0.064454,-0.365241 0,-0.247075 0.064454,-0.365241 0.3115291,0.02148 0.6552854,0.04297 0.3544986,0.02148 0.5800887,0.04297 0.22559,0.02149 0.5478615,0.03223 0.3222715,0.01074 0.6767702,0.01074 0.3330138,0 0.6552853,-0.01074 0.3330139,-0.01074 0.5693463,-0.03223 0.2363325,-0.02148 0.6015735,-0.04297 0.365241,-0.02149 0.6660277,-0.04297 0.04297,0.118166 0.032227,0.408211 -0.010742,0.279302 -0.075197,0.322271 -0.1289086,0 -0.2900443,0.02149 -0.1611358,0.01074 -0.4082106,0.06445 -0.2363324,0.05371 -0.3974682,0.182621 -0.1503933,0.118166 -0.1503933,0.300786 0,0.01074 0.010742,0.05371 0.010742,0.04297 0.04297,0.139651 0.04297,0.09668 0.064454,0.182621 0.2578172,0.687512 2.5674295,6.133901 0.3007868,-0.773452 0.6875126,-1.740266 0.3867257,-0.966815 0.5800886,-1.450222 0.2041053,-0.49415 0.3974682,-1.009784 0.2041053,-0.515635 0.279302,-0.741225 0.075197,-0.236332 0.075197,-0.300786 0,-0.08594 -0.085939,-0.311529 Q 9.5232398,28.764097 9.3835888,28.46331 9.2439378,28.162524 9.0828021,27.947676 8.7605306,27.475011 7.987079,27.475011 7.90114,27.410557 7.90114,27.131255 q 0,-0.290044 0.085939,-0.386726 0.3867258,0.02148 0.7734516,0.05371 0.3974682,0.03223 0.7197397,0.05371 0.3330139,0.02148 0.7841937,0.02148 0.418953,0 0.816421,-0.01074 0.397469,-0.02148 0.913103,-0.05371 0.526377,-0.04297 0.859391,-0.06445 0.04297,0.139651 0.04297,0.397468 0,0.257817 -0.0752,0.333014 -0.601573,0 -0.923845,0.182621 -0.322271,0.18262 -0.322271,0.612315 0,0.08594 0.0752,0.26856 0.06445,0.204105 0.171878,0.526377 0.118166,0.311529 0.333014,0.870133 0.214847,0.547861 0.418953,1.095723 0.214847,0.547861 0.612315,1.557645 0.397469,1.009784 0.741225,1.89066 1.783235,-4.447347 2.191446,-5.586039 0.118166,-0.343757 0.118166,-0.601574 0,-0.644543 -1.063496,-0.773451 -0.128908,-0.02148 -0.365241,-0.04297 h -0.06445 q -0.0752,-0.06445 -0.08594,-0.343756 0,-0.290044 0.08594,-0.386726 0.343756,0.02148 0.966814,0.0752 0.623059,0.05371 1.203147,0.05371 0.418953,0 0.751967,-0.02148 0.333014,-0.02149 0.751967,-0.05371 0.418953,-0.03223 0.784194,-0.05371 0.03223,0.03223 0.03223,0.236333 0,0.05371 0,0.107423 -0.01074,0.300787 -0.107424,0.386726 -0.107424,0 -0.311529,0.04297 -0.204105,0.03223 -0.494149,0.118166 -0.279302,0.08594 -0.53712,0.279302 -0.247074,0.193363 -0.343756,0.45118 -2.191446,5.54307 -3.620183,8.948405 -0.05371,0.150393 -0.236332,0.290044 -0.171879,0.139651 -0.279302,0.139651 -0.257818,0 -0.300787,-0.107423 l -2.771535,-7.197397 -2.6855957,6.821413 q -0.010742,0.03223 -0.053712,0.08594 -0.032227,0.05371 -0.1074238,0.118166 -0.064454,0.06446 -0.139651,0.128909 -0.064454,0.06445 -0.1611358,0.107424 -0.085939,0.04297 -0.1611357,0.04297 -0.1826205,0 -0.22559,-0.107423 Q 4.6139707,32.42725 2.658857,28.022873 2.4225246,27.475011 1.3160591,27.475011 Z"
       style="font-family:'Crimson Text';-inkscape-font-specification:'Crimson Text'"
       id="path7447" />
    <path
       d="m 19.921867,32.480962 q 0,-0.816421 0.204106,-1.600615 0.214847,-0.784194 0.580088,-1.417995 0.365241,-0.644543 0.848649,-1.192405 0.483407,-0.558603 1.020526,-0.923844 0.547862,-0.375984 1.12795,-0.580089 0.580089,-0.214848 1.127951,-0.214848 0.612315,0 1.138692,0.139651 0.537119,0.128909 0.913103,0.354499 0.375983,0.22559 0.666027,0.526377 0.300787,0.300786 0.483408,0.612315 0.193363,0.31153 0.311529,0.644543 0.128908,0.333014 0.171878,0.612316 0.05371,0.26856 0.05371,0.49415 0,0.580089 -0.128909,0.870133 -0.128908,0.290044 -0.472665,0.300787 -0.504892,0.03223 -3.233457,0.107423 -2.717823,0.0752 -3.040094,0.0752 v 0.171878 q 0,0.891618 0.214847,1.654327 0.214848,0.751967 0.590831,1.299829 0.375984,0.537119 0.891618,0.913102 0.515635,0.375984 1.106466,0.558604 0.601573,0.182621 1.256858,0.182621 0.472665,0 0.94533,-0.139651 0.472665,-0.150394 0.827164,-0.375984 0.354498,-0.236332 0.580088,-0.429695 0.236333,-0.204105 0.386726,-0.375984 0.01074,0 0.05371,0.04297 0.05371,0.04297 0.09668,0.128909 0.04297,0.08594 0.04297,0.18262 0,0.193363 -0.139651,0.440438 -0.204105,0.322271 -0.504892,0.644543 -0.300787,0.322271 -0.751967,0.67677 -0.440437,0.354499 -1.074238,0.580089 -0.623058,0.22559 -1.310571,0.22559 -1.450222,0 -2.599657,-0.67677 -1.138692,-0.687513 -1.76175,-1.869175 -0.623059,-1.181662 -0.623059,-2.642626 z m 1.89066,-2.11625 h 4.060621 q 0.580088,0 0.580088,-0.580089 0,-0.22559 -0.06445,-0.515634 -0.06445,-0.290044 -0.22559,-0.612316 -0.150393,-0.333014 -0.375983,-0.590831 -0.22559,-0.268559 -0.590831,-0.440438 -0.354499,-0.18262 -0.794937,-0.18262 -0.418953,0 -0.794936,0.161136 -0.375984,0.161135 -0.644543,0.418953 -0.257817,0.257817 -0.472665,0.569346 -0.204105,0.311529 -0.333014,0.623058 -0.128908,0.311529 -0.214848,0.569346 -0.08594,0.257818 -0.118166,0.418953 -0.02148,0.161136 -0.01074,0.161136 z"
       style="font-family:'Crimson Text';-inkscape-font-specification:'Crimson Text'"
       id="path7449" />
    <path
       d="m 30.427918,27.904706 q 0,-0.03223 0,-0.0752 0,-0.193363 0.05371,-0.279302 2.126991,-0.300787 3.566471,-1.052754 0.08594,0 0.171878,0.150394 0.09668,0.150393 0.09668,0.247074 -0.171878,1.224632 -0.171878,1.643585 v 0.827164 5.210055 q 0,1.43948 0.128909,1.84769 0.01074,0.06445 0.107424,0.128909 0.107423,0.05371 0.257817,0.09668 0.150393,0.03223 0.322271,0.0752 0.182621,0.03223 0.354499,0.05371 0.171878,0.02148 0.300787,0.03223 0.139651,0.01074 0.22559,0.01074 0.08594,0.107424 0.08594,0.386726 0,0.236333 -0.08594,0.333014 -0.343757,-0.02148 -0.880876,-0.05371 -0.537119,-0.03223 -0.945329,-0.05371 -0.408211,-0.02148 -0.848649,-0.02148 -0.429695,0 -0.837906,0.02148 -0.397468,0.02148 -0.923844,0.05371 -0.526377,0.03223 -0.870134,0.05371 -0.09668,-0.09668 -0.09668,-0.354499 0.01074,-0.268559 0.09668,-0.365241 0.354499,0 0.934588,-0.107423 0.580088,-0.118167 0.6338,-0.290045 0.118167,-0.40821 0.118167,-1.84769 v -4.640709 q 0,-0.988299 -0.118167,-1.289086 -0.08594,-0.193363 -0.483407,-0.300787 -0.397468,-0.118166 -0.666028,-0.128908 -0.268559,-0.02148 -0.472664,-0.02148 -0.04297,-0.03223 -0.05371,-0.290045 z m 1.675811,-4.32918 q -0.354498,-0.365241 -0.354498,-0.880875 0,-0.526377 0.354498,-0.891618 0.365241,-0.365241 0.891618,-0.365241 0.526377,0 0.880876,0.365241 0.365241,0.365241 0.365241,0.891618 0,0.515634 -0.365241,0.880875 -0.354499,0.354499 -0.880876,0.354499 -0.526377,0 -0.891618,-0.354499 z"
       style="font-family:'Crimson Text';-inkscape-font-specification:'Crimson Text'"
       id="path7451" />
    <path
       d="m 35.938762,42.847361 q -0.02148,-0.03223 -0.02148,-0.09668 0,-0.05371 0.02148,-0.0752 0.354498,-0.257817 0.590831,-0.461922 0.247075,-0.193363 0.558604,-0.515635 0.311529,-0.322271 0.515634,-0.644543 0.204105,-0.322271 0.418953,-0.805678 0.214848,-0.472665 0.343756,-1.020527 0.128909,-0.547861 0.204106,-1.289086 0.0752,-0.730482 0.0752,-1.589872 v -6.413203 q 0,-0.988299 -0.118166,-1.289086 -0.06445,-0.150393 -0.300787,-0.247075 -0.22559,-0.107424 -0.526376,-0.139651 -0.300787,-0.04297 -0.483408,-0.05371 -0.18262,-0.01074 -0.311529,-0.01074 -0.04297,-0.04297 -0.05371,-0.290045 -0.01074,-0.257817 0.05371,-0.354498 2.126992,-0.300787 3.566471,-1.052754 0.08594,0 0.171879,0.150394 0.09668,0.150393 0.09668,0.247074 -0.171878,1.224632 -0.171878,1.643585 v 0.848648 6.380976 q 0,0.999041 -0.150394,1.879917 -0.150393,0.891618 -0.40821,1.568388 -0.247075,0.687512 -0.612316,1.278343 -0.354499,0.590831 -0.730482,1.009784 -0.375983,0.418953 -0.816421,0.76271 -0.440438,0.354498 -0.827164,0.569346 -0.375983,0.22559 -0.762709,0.386726 -0.06445,-0.03223 -0.128908,-0.107424 -0.06446,-0.06445 -0.118167,-0.139651 -0.05371,-0.06445 -0.0752,-0.128909 z m 2.417036,-19.271835 q -0.354499,-0.365241 -0.354499,-0.880875 0,-0.526377 0.354499,-0.891618 0.365241,-0.365241 0.891618,-0.365241 0.526376,0 0.880875,0.365241 0.365241,0.365241 0.365241,0.891618 0,0.515634 -0.365241,0.880875 -0.354499,0.354499 -0.880875,0.354499 -0.526377,0 -0.891618,-0.354499 z"
       style="font-family:'Crimson Text';-inkscape-font-specification:'Crimson Text'"
       id="path7453" />
    <path
       d="m 43.10393,27.904706 q 0,-0.03223 0,-0.0752 0,-0.193363 0.05371,-0.279302 2.126991,-0.300787 3.566471,-1.052754 0.08594,0 0.171878,0.150394 0.09668,0.150393 0.09668,0.247074 -0.171878,1.224632 -0.171878,1.643585 v 0.827164 5.210055 q 0,1.43948 0.128909,1.84769 0.01074,0.06445 0.107424,0.128909 0.107423,0.05371 0.257817,0.09668 0.150393,0.03223 0.322271,0.0752 0.182621,0.03223 0.354499,0.05371 0.171878,0.02148 0.300787,0.03223 0.139651,0.01074 0.22559,0.01074 0.08594,0.107424 0.08594,0.386726 0,0.236333 -0.08594,0.333014 -0.343757,-0.02148 -0.880876,-0.05371 -0.537119,-0.03223 -0.945329,-0.05371 -0.408211,-0.02148 -0.848649,-0.02148 -0.429695,0 -0.837906,0.02148 -0.397468,0.02148 -0.923844,0.05371 -0.526377,0.03223 -0.870133,0.05371 -0.09668,-0.09668 -0.09668,-0.354499 0.01074,-0.268559 0.09668,-0.365241 0.354498,0 0.934587,-0.107423 0.580089,-0.118167 0.6338,-0.290045 0.118167,-0.40821 0.118167,-1.84769 v -4.640709 q 0,-0.988299 -0.118167,-1.289086 -0.08594,-0.193363 -0.483407,-0.300787 -0.397468,-0.118166 -0.666028,-0.128908 -0.268559,-0.02148 -0.472664,-0.02148 -0.04297,-0.03223 -0.05371,-0.290045 z m 1.675811,-4.32918 q -0.354498,-0.365241 -0.354498,-0.880875 0,-0.526377 0.354498,-0.891618 0.365241,-0.365241 0.891618,-0.365241 0.526377,0 0.880876,0.365241 0.365241,0.365241 0.365241,0.891618 0,0.515634 -0.365241,0.880875 -0.354499,0.354499 -0.880876,0.354499 -0.526377,0 -0.891618,-0.354499 z"
       style="font-family:'Crimson Text';-inkscape-font-specification:'Crimson Text'"
       id="path7455" />
    <path
       d="m 49.95757,34.801316 q 0,-0.708997 0.386726,-1.267601 0.397468,-0.558604 0.85939,-0.730482 0.397468,-0.139651 1.149435,-0.397468 0.751967,-0.26856 1.299829,-0.45118 0.547861,-0.193363 1.095723,-0.397468 0.558604,-0.214848 0.816421,-0.322272 0.09668,-0.04297 0.150393,-0.0752 0.05371,-0.03223 0.08594,-0.09668 0.04297,-0.0752 0.05371,-0.171878 0.01074,-0.107424 0.01074,-0.279302 v -0.67677 q 0,-0.558604 -0.279302,-1.106466 -0.279301,-0.547861 -0.784194,-0.913102 -0.494149,-0.365241 -1.08498,-0.365241 -0.623058,0 -0.923845,0.386726 -0.300787,0.375983 -0.440438,1.149435 -0.118166,0.623058 -0.40821,0.913102 -0.290045,0.290045 -0.76271,0.290045 -0.375983,0 -0.612315,-0.322272 -0.236333,-0.322271 -0.236333,-0.730482 0,-0.05371 0.02148,-0.161136 0.02148,-0.118166 0.06445,-0.247075 0.04297,-0.128908 0.08594,-0.18262 0.322272,-0.300787 0.784194,-0.623058 0.472665,-0.333014 1.074239,-0.666028 0.612315,-0.333014 1.321313,-0.547862 0.708997,-0.214847 1.35354,-0.214847 1.084981,0 1.901402,0.999041 0.816421,0.999042 0.816421,2.417037 v 5.134859 q 0,1.170919 0.773451,1.170919 0.107424,0 0.214848,-0.02148 0.107424,-0.02148 0.182621,-0.04297 0.0752,-0.03223 0.150393,-0.0752 0.08594,-0.04297 0.128909,-0.0752 0.04297,-0.03223 0.08594,-0.06446 0.05371,-0.03223 0.05371,-0.04297 0.107423,0 0.107423,0.204105 0,0.257817 -0.128908,0.472665 -0.290045,0.257817 -0.90236,0.601574 -0.612316,0.343756 -0.966815,0.343756 -0.515634,0 -0.956072,-0.504892 -0.440438,-0.504892 -0.558604,-1.117208 -0.365241,0.365241 -1.439479,1.020526 -1.063496,0.655286 -1.632842,0.655286 -1.235375,0 -2.07328,-0.827164 -0.837906,-0.827163 -0.837906,-2.041053 z m 2.062537,-0.22559 q 0,0.45118 0.214848,0.859391 0.22559,0.397468 0.612316,0.644543 0.386726,0.236332 0.848648,0.236332 0.311529,0 0.698255,-0.118166 0.397468,-0.128908 0.708997,-0.290044 0.322272,-0.171878 0.537119,-0.343756 0.22559,-0.171879 0.22559,-0.26856 v -3.383851 q -1.933629,0.569347 -2.320354,0.71974 -0.708998,0.26856 -1.117208,0.762709 -0.408211,0.49415 -0.408211,1.181662 z"
       style="font-family:'Crimson Text';-inkscape-font-specification:'Crimson Text'"
       id="path7457" />
    <path
       d="m 60.517331,29.516064 q 0,-1.632842 0.365241,-3.083064 0.375984,-1.450222 1.052754,-2.545945 0.67677,-1.106465 1.708039,-1.751008 1.042011,-0.644543 2.29887,-0.644543 1.031269,0 1.901402,0.418953 0.880875,0.418953 1.525418,1.160177 0.644543,0.741225 1.095723,1.751009 0.461923,0.999041 0.687513,2.191446 0.22559,1.192404 0.22559,2.502975 0,1.632842 -0.375984,3.083064 -0.365241,1.450222 -1.042011,2.556687 -0.67677,1.095723 -1.718781,1.740266 -1.042011,0.644543 -2.29887,0.644543 -1.235374,0 -2.277385,-0.644543 -1.031269,-0.644543 -1.718782,-1.740266 -0.67677,-1.106465 -1.052753,-2.556687 -0.375984,-1.450222 -0.375984,-3.083064 z m 2.191447,-0.02148 q 0,1.944371 0.386725,3.577214 0.397469,1.6221 1.117208,2.588914 0.730482,0.956072 1.632842,0.956072 0.816422,0 1.460965,-0.580089 0.655285,-0.580088 1.052753,-1.57913 0.408211,-1.009784 0.612316,-2.29887 0.214848,-1.299828 0.214848,-2.793019 0,-1.450222 -0.22559,-2.728566 -0.22559,-1.289086 -0.633801,-2.212931 -0.397468,-0.934587 -0.977557,-1.471706 -0.580089,-0.537119 -1.256859,-0.537119 -0.762709,0 -1.407252,0.558604 -0.644543,0.547861 -1.074238,1.514676 -0.429696,0.956072 -0.666028,2.245158 -0.236332,1.289086 -0.236332,2.760792 z"
       style="font-family:'Crimson Text';-inkscape-font-specification:'Crimson Text'"
       id="path7459" />
    <path
       d="m 73.644523,36.068918 q 0,-0.526377 0.311529,-0.859391 0.311529,-0.333014 0.741225,-0.333014 0.236332,0 0.45118,0.128909 0.22559,0.118166 0.343756,0.268559 0.128909,0.139651 0.311529,0.365241 0.182621,0.22559 0.290044,0.333014 0.655286,0.623058 1.836948,0.623058 0.429695,0 0.827163,-0.118166 0.397469,-0.128908 0.784194,-0.418953 0.397469,-0.290044 0.687513,-0.719739 0.290044,-0.429696 0.461922,-1.095724 0.182621,-0.67677 0.182621,-1.514676 0,-0.483407 -0.139651,-0.977556 -0.128909,-0.49415 -0.440438,-0.9883 -0.300786,-0.504892 -0.751967,-0.880875 -0.45118,-0.386726 -1.138692,-0.623058 -0.687513,-0.236333 -1.514676,-0.236333 -0.408211,0 -1.117208,0.118167 -0.698255,0.107423 -0.977557,0.247074 -0.05371,0 -0.09668,-0.04297 -0.04297,-0.05371 -0.0752,-0.128909 -0.03223,-0.08594 -0.03223,-0.171878 0.18262,-0.90236 0.537119,-2.664111 0.354499,-1.772493 0.580089,-2.911186 0.22559,-1.149435 0.333014,-1.826205 h 3.684637 q 0.214848,0 0.45118,-0.01074 0.247075,-0.02148 0.461923,-0.03223 0.214847,-0.02149 0.429695,-0.04297 0.214848,-0.03223 0.375983,-0.05371 0.171878,-0.02148 0.300787,-0.04297 0.128909,-0.02148 0.204105,-0.03223 l 0.0752,-0.01074 q 0.03223,0.02149 0.09668,0.06445 0.0752,0.04297 0.107424,0.06445 0.03223,0.02148 0.06445,0.06445 0.03223,0.03223 0.03223,0.0752 0,0.18262 -0.236333,0.805678 -0.22559,0.623059 -0.515634,0.966815 -1.39651,0.150393 -2.889701,0.150393 h -2.094765 q -0.90236,4.490316 -0.90236,4.490316 0.504892,-0.204105 1.310571,-0.333014 0.816421,-0.139651 1.332055,-0.139651 1.063496,0 1.965856,0.386726 0.913103,0.386726 1.493192,1.020527 0.580088,0.6338 0.90236,1.417994 0.333014,0.773452 0.333014,1.579131 0,0.999041 -0.365241,1.890659 -0.354499,0.891618 -0.966815,1.557646 -0.612316,0.655285 -1.417994,1.138692 -0.805679,0.483407 -1.729524,0.730482 -0.913103,0.247075 -1.858432,0.247075 -0.547862,0 -1.267602,-0.150393 -0.719739,-0.150394 -1.267601,-0.429696 -0.150393,-0.09668 -0.333014,-0.386725 -0.171878,-0.290045 -0.171878,-0.558604 z"
       style="font-family:'Crimson Text';-inkscape-font-specification:'Crimson Text'"
       id="path7461" />
    <path
       d="m 85.761935,33.232928 q 0,-1.224631 0.279302,-2.449263 0.279302,-1.235374 0.805678,-2.363324 0.537119,-1.12795 1.342798,-2.105507 0.816421,-0.977557 1.804721,-1.697297 0.999041,-0.730482 2.277385,-1.138692 1.278343,-0.418953 2.685596,-0.418953 1.020526,0 1.933629,0.22559 0.923844,0.214847 1.654327,0.623058 0.730482,0.397468 1.342797,0.956072 0.612312,0.547862 1.052752,1.224632 0.44044,0.666027 0.74123,1.428737 0.30078,0.762709 0.45118,1.57913 0.15039,0.805679 0.15039,1.643585 0,1.407252 -0.39747,2.685595 -0.39747,1.267602 -1.07424,2.202189 -0.67677,0.923845 -1.632839,1.471706 -0.956072,0.53712 -2.03031,0.53712 -0.966815,0 -1.525419,-0.515635 -0.547861,-0.526377 -0.547861,-1.6221 0,-0.22559 0.05371,-0.612316 0.06445,-0.386725 0.128908,-0.537119 -0.161135,0.311529 -0.40821,0.698255 -0.247075,0.375984 -0.623058,0.837906 -0.375984,0.461923 -0.76271,0.837906 -0.386725,0.365241 -0.848648,0.623058 -0.461922,0.247075 -0.880875,0.247075 -0.741225,0 -1.289086,-0.483407 -0.547862,-0.483407 -0.816421,-1.235374 -0.257818,-0.751967 -0.257818,-1.654327 0,-0.880876 0.290045,-1.815463 0.300786,-0.934587 0.794936,-1.761751 0.504892,-0.837906 1.203147,-1.57913 0.698255,-0.741225 1.471706,-1.278344 0.784194,-0.537119 1.654327,-0.848648 0.880876,-0.311529 1.718782,-0.311529 0.934587,0 1.815462,0.322271 l -1.525418,7.874167 q -0.0752,0.300787 -0.0752,0.623058 0,0.569347 0.333014,0.848649 0.333014,0.268559 0.870133,0.268559 0.580089,0 1.181662,-0.461922 0.612316,-0.472665 1.084981,-1.235374 0.4834,-0.773452 0.78419,-1.84769 0.31153,-1.074239 0.31153,-2.202189 0,-1.031269 -0.23633,-1.998083 -0.23633,-0.966814 -0.75197,-1.836947 -0.504888,-0.870134 -1.23537,-1.514676 -0.730482,-0.644543 -1.793978,-1.020527 -1.052754,-0.386726 -2.309612,-0.386726 -1.235374,0 -2.374067,0.375984 -1.12795,0.375983 -2.019568,1.042011 -0.880876,0.655285 -1.611358,1.546903 -0.730482,0.880875 -1.213889,1.901402 -0.472665,1.020526 -0.730482,2.126992 -0.257817,1.095723 -0.257817,2.180703 0,1.052754 0.257817,2.041053 0.26856,0.977557 0.730482,1.751009 0.461923,0.773451 1.052754,1.375025 0.590831,0.612316 1.278343,1.009784 0.601574,0.354498 1.009784,0.483407 0.408211,0.139651 0.859391,0.214848 0,0.09668 -0.161136,0.204105 -0.161136,0.107424 -0.375983,0.171878 -0.214848,0.0752 -0.354499,0.0752 -0.590831,0 -0.977557,-0.150394 -0.85939,-0.322271 -1.643584,-0.999041 -0.773452,-0.666028 -1.375025,-1.589873 -0.590831,-0.913103 -0.94533,-2.105507 -0.343756,-1.203147 -0.343756,-2.481491 z m 5.45713,0.472665 q 0,2.438521 1.267601,2.438521 0.601574,0 1.342798,-0.870133 0.741225,-0.880875 1.321313,-2.159219 0.590832,-1.289086 0.827164,-2.48149 l 0.49415,-2.535203 q -0.290045,-0.322271 -1.020527,-0.322271 -0.558604,0 -1.17092,0.333014 -0.612315,0.333014 -1.149435,0.934587 -0.537119,0.590831 -0.977556,1.332056 -0.429696,0.741224 -0.687513,1.622099 -0.247075,0.870133 -0.247075,1.708039 z"
       style="font-family:'Crimson Text';-inkscape-font-specification:'Crimson Text'"
       id="path7463" />
    <path
       d="m 103.22905,27.475011 q -0.043,0 -0.043,-0.343756 0,-0.343756 0.043,-0.386726 1.18166,0.128909 2.49223,0.128909 1.42874,0 2.49223,-0.128909 0.043,0.118166 0.0107,0.429695 -0.0322,0.300787 -0.11816,0.300787 -0.16114,0 -0.40821,0.02149 -0.24708,0.02148 -0.54786,0.128908 -0.29005,0.09668 -0.29005,0.26856 0,0 0.0537,0.09668 l 2.64263,6.735474 q 1.24612,-3.319397 2.19145,-5.661236 0.15039,-0.354499 0.15039,-0.794937 0,-0.365241 -0.39747,-0.580088 -0.39747,-0.214848 -1.05275,-0.214848 -0.0859,0 -0.0859,-0.311529 0,-0.322271 0.0859,-0.418953 0.93458,0.128909 2.24516,0.128909 0.84864,0 2.09476,-0.128909 0.0537,0.09668 0.0537,0.300787 0,0.05371 0,0.128908 -0.0215,0.300787 -0.10742,0.300787 -0.0967,0 -0.29005,0.04297 -0.19336,0.03223 -0.46192,0.118166 -0.25782,0.0752 -0.49415,0.257817 -0.23633,0.182621 -0.34375,0.429695 -2.66412,6.359491 -3.73835,8.991375 -0.13965,0.343756 -0.53712,1.407252 -0.39747,1.074239 -0.71974,1.751009 -0.31153,0.687512 -0.709,1.278343 -0.44044,0.655286 -1.00978,1.020527 -0.55861,0.375983 -1.16018,0.375983 -0.20411,0 -0.37598,-0.04297 -0.17188,-0.04297 -0.34376,-0.150394 -0.17188,-0.107424 -0.2793,-0.333014 -0.0967,-0.22559 -0.0967,-0.547861 0,-0.365241 0.30078,-0.71974 0.40821,0 0.65529,-0.02149 0.24707,-0.02148 0.54786,-0.09668 0.31153,-0.0752 0.54786,-0.22559 0.23633,-0.150394 0.51564,-0.418953 0.2793,-0.257817 0.56934,-0.655285 0.26856,-0.354499 0.68751,-1.299829 0.4297,-0.934587 0.5049,-1.224632 -1.22464,-3.136775 -2.07328,-5.188571 -0.84865,-2.062537 -1.85844,-4.253983 -0.0752,-0.150394 -0.22559,-0.247075 -0.13965,-0.107424 -0.26856,-0.150393 -0.11816,-0.05371 -0.33301,-0.0752 -0.21485,-0.02149 -0.2793,-0.02149 -0.0645,0 -0.23633,0 z"
       style="font-family:'Crimson Text';-inkscape-font-specification:'Crimson Text'"
       id="path7465" />
    <path
       d="m 115.61502,34.801316 q 0,-0.708997 0.38672,-1.267601 0.39747,-0.558604 0.85939,-0.730482 0.39747,-0.139651 1.14944,-0.397468 0.75197,-0.26856 1.29983,-0.45118 0.54786,-0.193363 1.09572,-0.397468 0.5586,-0.214848 0.81642,-0.322272 0.0967,-0.04297 0.15039,-0.0752 0.0537,-0.03223 0.0859,-0.09668 0.043,-0.0752 0.0537,-0.171878 0.0107,-0.107424 0.0107,-0.279302 v -0.67677 q 0,-0.558604 -0.2793,-1.106466 -0.27931,-0.547861 -0.7842,-0.913102 -0.49415,-0.365241 -1.08498,-0.365241 -0.62306,0 -0.92384,0.386726 -0.30079,0.375983 -0.44044,1.149435 -0.11817,0.623058 -0.40821,0.913102 -0.29005,0.290045 -0.76271,0.290045 -0.37598,0 -0.61232,-0.322272 -0.23633,-0.322271 -0.23633,-0.730482 0,-0.05371 0.0215,-0.161136 0.0215,-0.118166 0.0644,-0.247075 0.043,-0.128908 0.0859,-0.18262 0.32227,-0.300787 0.78419,-0.623058 0.47267,-0.333014 1.07424,-0.666028 0.61232,-0.333014 1.32131,-0.547862 0.709,-0.214847 1.35354,-0.214847 1.08499,0 1.90141,0.999041 0.81642,0.999042 0.81642,2.417037 v 5.134859 q 0,1.170919 0.77345,1.170919 0.10742,0 0.21485,-0.02148 0.10742,-0.02148 0.18262,-0.04297 0.0752,-0.03223 0.15039,-0.0752 0.0859,-0.04297 0.12891,-0.0752 0.043,-0.03223 0.0859,-0.06446 0.0537,-0.03223 0.0537,-0.04297 0.10742,0 0.10742,0.204105 0,0.257817 -0.1289,0.472665 -0.29005,0.257817 -0.90236,0.601574 -0.61232,0.343756 -0.96682,0.343756 -0.51563,0 -0.95607,-0.504892 -0.44044,-0.504892 -0.55861,-1.117208 -0.36524,0.365241 -1.43947,1.020526 -1.0635,0.655286 -1.63285,0.655286 -1.23537,0 -2.07328,-0.827164 -0.8379,-0.827163 -0.8379,-2.041053 z m 2.06254,-0.22559 q 0,0.45118 0.21484,0.859391 0.22559,0.397468 0.61232,0.644543 0.38672,0.236332 0.84865,0.236332 0.31153,0 0.69825,-0.118166 0.39747,-0.128908 0.709,-0.290044 0.32227,-0.171878 0.53712,-0.343756 0.22559,-0.171879 0.22559,-0.26856 v -3.383851 q -1.93363,0.569347 -2.32036,0.71974 -0.70899,0.26856 -1.1172,0.762709 -0.40821,0.49415 -0.40821,1.181662 z"
       style="font-family:'Crimson Text';-inkscape-font-specification:'Crimson Text'"
       id="path7467" />
    <path
       d="m 125.94919,36.820884 q 0.35449,0 0.93458,-0.107423 0.58009,-0.118167 0.6338,-0.290045 0.11817,-0.40821 0.11817,-1.84769 V 23.554041 q 0,-0.988299 -0.11817,-1.289086 -0.19336,-0.45118 -1.52542,-0.45118 -0.0107,0 -0.0215,-0.150393 -0.0107,-0.161136 -0.0107,-0.322272 0.0107,-0.161135 0.0644,-0.171878 1.70804,-0.171878 3.53425,-0.999041 0.0967,0 0.18262,0.139651 0.0967,0.128908 0.0967,0.257817 -0.2793,0.805679 -0.2793,2.169961 v 5.629009 q 0,0.05371 0.0752,0.05371 0.0215,0 0.0752,-0.05371 0.2041,-0.22559 0.56935,-0.515634 0.37598,-0.290045 0.8379,-0.590832 0.47267,-0.300786 0.99904,-0.504892 0.53712,-0.204105 0.95608,-0.204105 0.58008,0 1.03126,0.107424 0.45118,0.107424 0.7842,0.311529 0.34375,0.193363 0.58009,0.526377 0.24707,0.333014 0.39746,0.741224 0.16114,0.397469 0.25782,0.977557 0.0967,0.569346 0.12891,1.192405 0.043,0.612316 0.043,1.428737 v 2.739307 q 0,1.43948 0.11817,1.84769 0.0322,0.118166 0.37598,0.214848 0.34376,0.09668 0.67677,0.139651 0.33301,0.04297 0.51563,0.04297 0.0967,0.107424 0.0967,0.365241 0,0.01074 0,0.02149 0,0.236333 -0.0967,0.333014 -0.34375,-0.02148 -0.88087,-0.05371 -0.52638,-0.03223 -0.94533,-0.05371 -0.40821,-0.02148 -0.83791,-0.02148 -0.42969,0 -0.8379,0.02148 -0.40821,0.02148 -0.93459,0.05371 -0.52638,0.03223 -0.87013,0.05371 -0.0859,-0.09668 -0.0859,-0.354499 0.0107,-0.268559 0.0859,-0.365241 0.36524,0 0.94533,-0.107423 0.58009,-0.118167 0.62306,-0.290045 0.1289,-0.40821 0.1289,-1.84769 v -2.492233 q 0,-1.203146 -0.10742,-1.944371 -0.10742,-0.751967 -0.38673,-1.246116 -0.2793,-0.504892 -0.75196,-0.698255 -0.46193,-0.204105 -1.19241,-0.204105 -0.42969,0 -1.00978,0.300786 -0.58009,0.300787 -0.97756,0.633801 -0.38672,0.322271 -0.38672,0.440438 v 5.210055 q 0,1.43948 0.1289,1.84769 0.0215,0.08594 0.22559,0.171878 0.20411,0.08594 0.47267,0.128909 0.26856,0.04297 0.50489,0.0752 0.23633,0.02148 0.36524,0.02148 0.0752,0.09668 0.0752,0.365241 0.0107,0.257818 -0.0752,0.354499 -0.34375,-0.02148 -0.88087,-0.05371 -0.53712,-0.03223 -0.94533,-0.05371 -0.40821,-0.02148 -0.84865,-0.02148 -0.4297,0 -0.83791,0.02148 -0.39746,0.02148 -0.92384,0.05371 -0.52638,0.03223 -0.87013,0.05371 -0.0967,-0.09668 -0.0967,-0.333014 0,-0.279302 0.0967,-0.386726 z"
       style="font-family:'Crimson Text';-inkscape-font-specification:'Crimson Text'"
       id="path7469" />
    <path
       d="m 139.30196,32.15869 q 0,-1.192404 0.40821,-2.234416 0.40821,-1.042011 1.10647,-1.783235 0.709,-0.751967 1.69729,-1.181662 0.9883,-0.429696 2.09477,-0.429696 1.61136,0 2.83599,0.708998 1.22463,0.708997 1.85843,1.933629 0.64454,1.224631 0.64454,2.782277 0,1.192404 -0.40821,2.245158 -0.40821,1.052753 -1.10646,1.815463 -0.69826,0.751966 -1.68656,1.192404 -0.97755,0.429696 -2.08402,0.429696 -1.21389,0 -2.22367,-0.418953 -1.00979,-0.418953 -1.6973,-1.149435 -0.67677,-0.730482 -1.06349,-1.740266 -0.37599,-1.009784 -0.37599,-2.169962 z m 2.14848,-0.504892 q 0,0.741225 0.13965,1.471707 0.13965,0.730482 0.4297,1.396509 0.29004,0.666028 0.69825,1.181663 0.40821,0.504892 0.97756,0.816421 0.56934,0.300786 1.21389,0.300786 0.51563,0 0.94533,-0.171878 0.44043,-0.171878 0.75196,-0.472665 0.31153,-0.300786 0.53712,-0.698254 0.23633,-0.408211 0.37599,-0.891618 0.13965,-0.49415 0.2041,-0.999042 0.0752,-0.515634 0.0752,-1.052753 0,-0.923845 -0.23634,-1.836948 -0.22559,-0.913103 -0.65528,-1.665069 -0.4297,-0.751967 -1.10647,-1.21389 -0.66602,-0.472664 -1.46096,-0.472664 -0.62306,0 -1.11721,0.247074 -0.49415,0.247075 -0.82716,0.655286 -0.32227,0.40821 -0.54786,0.966814 -0.21485,0.558604 -0.31153,1.17092 -0.0859,0.601573 -0.0859,1.267601 z"
       style="font-family:'Crimson Text';-inkscape-font-specification:'Crimson Text'"
       id="path7471" />
    <path
       d="m 151.97799,32.15869 q 0,-1.192404 0.40821,-2.234416 0.40821,-1.042011 1.10646,-1.783235 0.709,-0.751967 1.6973,-1.181662 0.9883,-0.429696 2.09476,-0.429696 1.61136,0 2.83599,0.708998 1.22464,0.708997 1.85844,1.933629 0.64454,1.224631 0.64454,2.782277 0,1.192404 -0.40821,2.245158 -0.40821,1.052753 -1.10647,1.815463 -0.69825,0.751966 -1.68655,1.192404 -0.97756,0.429696 -2.08402,0.429696 -1.21389,0 -2.22368,-0.418953 -1.00978,-0.418953 -1.69729,-1.149435 -0.67677,-0.730482 -1.0635,-1.740266 -0.37598,-1.009784 -0.37598,-2.169962 z m 2.14847,-0.504892 q 0,0.741225 0.13966,1.471707 0.13965,0.730482 0.42969,1.396509 0.29005,0.666028 0.69826,1.181663 0.40821,0.504892 0.97755,0.816421 0.56935,0.300786 1.21389,0.300786 0.51564,0 0.94533,-0.171878 0.44044,-0.171878 0.75197,-0.472665 0.31153,-0.300786 0.53712,-0.698254 0.23633,-0.408211 0.37598,-0.891618 0.13965,-0.49415 0.20411,-0.999042 0.0752,-0.515634 0.0752,-1.052753 0,-0.923845 -0.23633,-1.836948 -0.22559,-0.913103 -0.65529,-1.665069 -0.42969,-0.751967 -1.10646,-1.21389 -0.66603,-0.472664 -1.46096,-0.472664 -0.62306,0 -1.11721,0.247074 -0.49415,0.247075 -0.82717,0.655286 -0.32227,0.40821 -0.54786,0.966814 -0.21485,0.558604 -0.31153,1.17092 -0.0859,0.601573 -0.0859,1.267601 z"
       style="font-family:'Crimson Text';-inkscape-font-specification:'Crimson Text'"
       id="path7473" />
    <path
       d="m 164.82588,36.34822 q 0,-0.365241 0.19336,-0.676771 0.19336,-0.311529 0.51563,-0.494149 0.32227,-0.182621 0.68752,-0.182621 0.5586,0 0.95607,0.397468 0.39747,0.386726 0.39747,0.956073 0,0.558603 -0.39747,0.977556 -0.39747,0.418953 -0.95607,0.418953 -0.55861,0 -0.97756,-0.418953 -0.41895,-0.418953 -0.41895,-0.977556 z"
       style="font-family:'Crimson Text';-inkscape-font-specification:'Crimson Text'"
       id="path7475" />
    <path
       d="m 169.75663,32.631355 q 0,-0.880875 0.26856,-1.708039 0.26856,-0.837906 0.73048,-1.493191 0.46192,-0.655286 1.0635,-1.203147 0.60157,-0.547862 1.2676,-0.913103 0.67677,-0.365241 1.37502,-0.558604 0.709,-0.204105 1.35354,-0.204105 1.35354,0 2.24516,0.601574 0.0859,0.0752 0.16114,0.300786 0.0859,0.214848 0.0859,0.386726 0,0.623058 -0.29004,0.913103 -0.2793,0.290044 -0.65529,0.290044 -0.24707,0 -0.50489,-0.161136 -0.24707,-0.161135 -0.52637,-0.418953 -0.27931,-0.257817 -0.40821,-0.343756 -0.4297,-0.279302 -0.69826,-0.375983 -0.26856,-0.09668 -0.73048,-0.09668 -0.39747,0 -0.79494,0.182621 -0.39747,0.171878 -0.76271,0.537119 -0.3545,0.354499 -0.6338,0.848648 -0.26856,0.483407 -0.44044,1.160178 -0.16113,0.67677 -0.16113,1.428737 0,1.063495 0.31153,1.890659 0.32227,0.816421 0.87013,1.321313 0.5586,0.49415 1.27834,0.751967 0.71974,0.247075 1.57913,0.247075 0.39747,0 0.77346,-0.09668 0.37598,-0.09668 0.65528,-0.236332 0.2793,-0.139651 0.53712,-0.322272 0.26856,-0.193363 0.40821,-0.333014 0.15039,-0.139651 0.26856,-0.279302 0.0215,0 0.0645,0.04297 0.043,0.04297 0.0859,0.128909 0.0537,0.08594 0.0537,0.18262 0,0.193363 -0.1504,0.440438 -0.2041,0.322271 -0.50489,0.644543 -0.29004,0.322271 -0.74122,0.67677 -0.45118,0.354499 -1.08498,0.580089 -0.62306,0.22559 -1.31057,0.22559 -0.88088,0 -1.67582,-0.26856 -0.79493,-0.279302 -1.40725,-0.762709 -0.60157,-0.483407 -1.05275,-1.117208 -0.44044,-0.633801 -0.67677,-1.375025 -0.22559,-0.741224 -0.22559,-1.514676 z"
       style="font-family:'Crimson Text';-inkscape-font-specification:'Crimson Text'"
       id="path7477" />
    <path
       d="m 180.34861,32.15869 q 0,-1.192404 0.40821,-2.234416 0.40821,-1.042011 1.10646,-1.783235 0.709,-0.751967 1.6973,-1.181662 0.9883,-0.429696 2.09477,-0.429696 1.61135,0 2.83598,0.708998 1.22464,0.708997 1.85844,1.933629 0.64454,1.224631 0.64454,2.782277 0,1.192404 -0.40821,2.245158 -0.40821,1.052753 -1.10647,1.815463 -0.69825,0.751966 -1.68655,1.192404 -0.97756,0.429696 -2.08402,0.429696 -1.21389,0 -2.22368,-0.418953 -1.00978,-0.418953 -1.69729,-1.149435 -0.67677,-0.730482 -1.0635,-1.740266 -0.37598,-1.009784 -0.37598,-2.169962 z m 2.14848,-0.504892 q 0,0.741225 0.13965,1.471707 0.13965,0.730482 0.42969,1.396509 0.29005,0.666028 0.69826,1.181663 0.40821,0.504892 0.97755,0.816421 0.56935,0.300786 1.21389,0.300786 0.51564,0 0.94533,-0.171878 0.44044,-0.171878 0.75197,-0.472665 0.31153,-0.300786 0.53712,-0.698254 0.23633,-0.408211 0.37598,-0.891618 0.13965,-0.49415 0.20411,-0.999042 0.0752,-0.515634 0.0752,-1.052753 0,-0.923845 -0.23633,-1.836948 -0.22559,-0.913103 -0.65528,-1.665069 -0.4297,-0.751967 -1.10647,-1.21389 -0.66603,-0.472664 -1.46096,-0.472664 -0.62306,0 -1.11721,0.247074 -0.49415,0.247075 -0.82717,0.655286 -0.32227,0.40821 -0.54786,0.966814 -0.21484,0.558604 -0.31153,1.17092 -0.0859,0.601573 -0.0859,1.267601 z"
       style="font-family:'Crimson Text';-inkscape-font-specification:'Crimson Text'"
       id="path7479" />
    <path
       d="m 192.79904,27.904706 q 0,-0.03223 0,-0.0752 0,-0.193363 0.0537,-0.279302 2.12699,-0.300787 3.56647,-1.052754 0.0859,0 0.17188,0.150394 0.0967,0.150393 0.0967,0.247074 -0.1504,1.052754 -0.1504,1.299829 0,0.09668 0.0537,0.09668 0.0215,0 0.0752,-0.04297 0.0322,-0.03223 0.0859,-0.08594 0.36524,-0.300787 0.62306,-0.49415 0.25782,-0.204105 0.71974,-0.504892 0.46192,-0.300787 0.93459,-0.45118 0.47266,-0.161136 0.92384,-0.161136 1.13869,0 1.83695,0.49415 0.709,0.483407 1.00978,1.568388 2.26665,-2.062538 3.66316,-2.062538 0.79493,0 1.36428,0.214848 0.56934,0.204105 0.92384,0.590831 0.36524,0.386726 0.56935,1.063496 0.2041,0.67677 0.2793,1.471706 0.0752,0.794937 0.0752,1.944372 v 2.739307 q 0,1.43948 0.11816,1.84769 0.0537,0.171878 0.6338,0.290045 0.58009,0.107423 0.94533,0.107423 0.0859,0.107424 0.0859,0.386726 0,0.236333 -0.0859,0.333014 -0.34375,-0.02148 -0.88087,-0.05371 -0.53712,-0.03223 -0.94533,-0.05371 -0.40821,-0.02148 -0.84865,-0.02148 -0.33301,0 -0.68751,0.02148 -0.34376,0.01074 -0.60158,0.03223 -0.25781,0.01074 -0.65528,0.03223 -0.38673,0.03223 -0.69826,0.04297 -0.0859,-0.09668 -0.0859,-0.354499 0.0107,-0.268559 0.0859,-0.365241 0.36525,0 0.94533,-0.107423 0.58009,-0.118167 0.6338,-0.290045 0.11817,-0.40821 0.11817,-1.84769 v -2.664111 q 0,-0.805678 -0.0537,-1.364282 -0.043,-0.558604 -0.19336,-1.074239 -0.13965,-0.515634 -0.39747,-0.816421 -0.25782,-0.311529 -0.67677,-0.483407 -0.41895,-0.18262 -1.02053,-0.18262 -0.41895,0 -0.89162,0.204105 -0.46192,0.193363 -0.79493,0.45118 -0.32227,0.247075 -0.53712,0.472665 -0.21485,0.22559 -0.21485,0.300786 0,0.01074 0.0107,0.150394 0.0108,0.139651 0.0108,0.171878 0.0967,0.633801 0.0967,1.772493 v 3.061579 q 0,1.43948 0.12891,1.84769 0.0322,0.118166 0.36524,0.214848 0.34375,0.09668 0.67677,0.139651 0.33301,0.04297 0.52637,0.04297 0.0752,0.09668 0.0859,0.365241 0.0107,0.257818 -0.0859,0.354499 -0.30078,-0.01074 -0.69825,-0.04297 -0.39747,-0.02148 -0.66603,-0.03223 -0.25782,-0.02148 -0.61232,-0.03223 -0.35449,-0.02148 -0.68751,-0.02148 -0.42969,0 -0.8379,0.02148 -0.40821,0.02148 -0.93459,0.05371 -0.52638,0.03223 -0.87013,0.05371 -0.0859,-0.09668 -0.0859,-0.354499 0.0107,-0.268559 0.0859,-0.365241 0.35449,0 0.93458,-0.107423 0.59083,-0.118167 0.6338,-0.290045 0.12891,-0.40821 0.12891,-1.84769 v -2.545944 q 0,-1.160178 -0.11816,-1.912145 -0.10743,-0.751966 -0.38673,-1.235374 -0.2793,-0.494149 -0.71974,-0.687512 -0.44044,-0.204105 -1.11721,-0.204105 -0.39747,0 -0.8379,0.171878 -0.4297,0.171878 -0.75197,0.397468 -0.31153,0.22559 -0.52638,0.45118 -0.2041,0.22559 -0.2041,0.354499 v 5.210055 q 0,1.43948 0.12891,1.84769 0.0107,0.06445 0.10742,0.128909 0.10742,0.05371 0.25782,0.09668 0.15039,0.03223 0.32227,0.0752 0.18262,0.03223 0.3545,0.05371 0.17188,0.02148 0.30078,0.03223 0.13966,0.01074 0.22559,0.01074 0.0752,0.09668 0.0752,0.365241 0.0107,0.257818 -0.0752,0.354499 -0.34375,-0.02148 -0.88087,-0.05371 -0.53712,-0.03223 -0.94533,-0.05371 -0.40821,-0.02148 -0.84865,-0.02148 -0.42969,0 -0.8379,0.02148 -0.39747,0.02148 -0.92385,0.05371 -0.52638,0.03223 -0.87013,0.05371 -0.0967,-0.09668 -0.0967,-0.354499 0.0107,-0.268559 0.0967,-0.365241 0.3545,0 0.93458,-0.107423 0.58009,-0.118167 0.63381,-0.290045 0.11816,-0.40821 0.11816,-1.84769 v -4.533285 q 0,-1.095723 -0.11816,-1.39651 -0.0859,-0.193363 -0.48341,-0.300787 -0.39747,-0.118166 -0.66603,-0.128908 -0.26856,-0.02148 -0.47266,-0.02148 -0.043,-0.03223 -0.0537,-0.290045 z"
       style="font-family:'Crimson Text';-inkscape-font-specification:'Crimson Text'"
       id="path7481" />
  </g>
</svg>
