<?xml version="1.0" encoding="UTF-8"?>
<svg version="1.1" viewBox="0 0 1294.6 268.08" xmlns="http://www.w3.org/2000/svg">
 <path d="m197 114.67-54.418-14.799 54.418-14.799-6.046-22.333-54.163 14.721 39.823-40.414-16.436-16.255-39.43 40.02 14.487-54.887-22.308-5.9223-14.426 54.629-14.41-54.629-22.326 5.9219 14.487 54.887-39.43-40.02-16.417 16.256 39.806 40.414-54.165-14.722-6.0458 22.333 54.434 14.798-54.434 14.799 6.0459 22.333 69.545-19.06c6.7429-1.848 11.418-7.977 11.418-14.968v-12.343h22.984v12.343c0 6.991 4.674 13.12 11.417 14.968l69.545 19.06z" clip-rule="evenodd" fill="#2f3842" fill-rule="evenodd"/>
 <path d="m247 6.5h75.322v20.325h-49.873v29.036h46.457v20.325h-46.457v31.939h49.873v20.325h-75.322z" fill="#2f3842"/>
 <path d="m337.85 6.5h24.082v121.95h-24.082z" fill="#2f3842"/>
 <path d="m418.48 130.5c-13.892 0-24.368-3.871-31.427-11.614-7.06-7.743-10.59-19.813-10.59-36.21 0-16.169 3.701-28.125 11.102-35.868 7.401-7.8567 17.82-11.785 31.256-11.785 13.437 0 23.514 3.8715 30.232 11.614 6.832 7.6291 10.248 19.756 10.248 36.38v4.7824h-59.097c0.456 9.6786 2.164 16.625 5.124 20.838 2.961 4.213 7.345 6.319 13.152 6.319 4.554 0 8.141-1.252 10.76-3.757 2.733-2.505 4.384-6.092 4.953-10.761h24.083c-0.797 9.793-4.839 17.251-12.127 22.375-7.287 5.124-16.51 7.686-27.669 7.686zm17.08-57.218c-0.57-8.1984-2.278-14.062-5.124-17.592-2.733-3.5299-6.718-5.2948-11.956-5.2948-5.124 0-9.223 1.8219-12.298 5.4656-3.074 3.6437-5.01 9.4509-5.807 17.422z" fill="#2f3842"/>
 <path d="m465.76 37.073h24.595l9.906 34.501c3.075 10.476 5.75 21.862 8.028 34.16h0.683c1.936-10.931 4.611-22.318 8.027-34.16l10.078-34.501h24.595l-29.719 91.377h-26.474z" fill="#2f3842"/>
 <path d="m596.95 130.5c-13.891 0-24.367-3.871-31.427-11.614-7.059-7.743-10.589-19.813-10.589-36.21 0-16.169 3.7-28.125 11.102-35.868 7.401-7.8567 17.82-11.785 31.256-11.785s23.513 3.8715 30.231 11.614c6.832 7.6291 10.248 19.756 10.248 36.38v4.7824h-59.096c0.455 9.6786 2.163 16.625 5.124 20.838 2.96 4.213 7.344 6.319 13.151 6.319 4.555 0 8.142-1.252 10.761-3.757 2.732-2.505 4.383-6.092 4.953-10.761h24.082c-0.797 9.793-4.839 17.251-12.126 22.375-7.288 5.124-16.511 7.686-27.67 7.686zm17.08-57.218c-0.569-8.1984-2.277-14.062-5.124-17.592-2.733-3.5299-6.718-5.2948-11.956-5.2948-5.124 0-9.223 1.8219-12.297 5.4656-3.075 3.6437-5.01 9.4509-5.807 17.422z" fill="#2f3842"/>
 <path d="m707.77 69.696c0-11.5-4.554-17.251-13.663-17.251-5.352 0-9.622 1.9357-12.81 5.8072-3.075 3.8714-4.612 9.337-4.612 16.397v53.801h-24.083v-76.176l-0.341-15.201h23.912l0.512 11.785h0.512c2.278-4.0991 5.637-7.4013 10.078-9.9063 4.44-2.6189 9.507-3.9284 15.201-3.9284 9.109 0 16.283 2.6189 21.52 7.8568 5.238 5.1239 7.857 12.81 7.857 23.058v62.512h-24.083z" fill="#2f3842"/>
 <path d="m751.89 6.5h50.556c12.412 0 21.977 2.9605 28.695 8.8815 6.832 5.8072 10.248 14.404 10.248 25.791 0 7.0597-1.879 13.265-5.637 18.617-3.757 5.3517-8.198 8.9954-13.322 10.931v0.6832c10.817 2.7328 16.681 11.557 17.592 26.474l2.05 30.573h-26.132l-2.05-30.573c-0.456-6.3765-2.164-10.703-5.124-12.981-2.961-2.3912-7.572-3.5868-13.835-3.5868h-17.592v47.14h-25.449zm45.603 55.339c5.807 0 10.305-1.4802 13.493-4.4407 3.189-3.0744 4.783-7.5721 4.783-13.493 0-5.9211-1.594-10.362-4.783-13.322-3.188-3.0743-7.686-4.6115-13.493-4.6115h-20.154v35.868z" fill="#2f3842"/>
 <path d="m895.01 130.5c-13.891 0-24.367-3.871-31.427-11.614-7.059-7.743-10.589-19.813-10.589-36.21 0-16.169 3.7-28.125 11.102-35.868 7.401-7.8567 17.82-11.785 31.256-11.785s23.513 3.8715 30.231 11.614c6.832 7.6291 10.248 19.756 10.248 36.38v4.7824h-59.096c0.455 9.6786 2.163 16.625 5.124 20.838 2.96 4.213 7.344 6.319 13.151 6.319 4.555 0 8.142-1.252 10.761-3.757 2.732-2.505 4.384-6.092 4.953-10.761h24.083c-0.797 9.793-4.84 17.251-12.127 22.375-7.288 5.124-16.511 7.686-27.67 7.686zm17.08-57.218c-0.569-8.1984-2.277-14.062-5.124-17.592-2.732-3.5299-6.718-5.2948-11.956-5.2948-5.124 0-9.223 1.8219-12.297 5.4656s-5.01 9.4509-5.807 17.422z" fill="#2f3842"/>
 <path d="m982.77 130.5c-11.387 0-20.268-3.871-26.645-11.614-6.263-7.857-9.394-19.927-9.394-36.21 0-16.511 3.302-28.58 9.906-36.209 6.719-7.629 15.657-11.444 26.816-11.444 4.896 0 9.451 1.1956 13.664 3.5868 4.329 2.2773 7.519 5.067 9.569 8.3691h0.17l0.34-9.9063h24.08l-0.34 19.471v49.703l0.51 22.203h-23.91l-0.51-10.76h-0.17c-1.83 3.644-4.96 6.718-9.398 9.223-4.327 2.391-9.223 3.587-14.688 3.587zm7.002-17.934c12.294 0 18.444-9.963 18.444-29.89 0-19.813-6.15-29.719-18.444-29.719-12.525 0-18.787 9.9063-18.787 29.719 0 19.927 6.262 29.89 18.787 29.89z" fill="#2f3842"/>
 <path d="m1082.2 130.5c-11.39 0-20.27-3.871-26.65-11.614-6.37-7.857-9.56-19.927-9.56-36.21 0-16.511 3.3-28.58 9.9-36.209 6.61-7.629 15.49-11.444 26.65-11.444 5.01 0 9.62 1.1956 13.83 3.5868 4.33 2.2773 7.52 5.067 9.57 8.3691h0.17v-40.479h24.08v99.747l0.51 22.203h-23.91l-0.51-10.76h-0.17c-1.82 3.758-4.95 6.832-9.39 9.223-4.33 2.391-9.17 3.587-14.52 3.587zm6.83-17.934c12.3 0 18.45-9.963 18.45-29.89 0-19.813-6.15-29.719-18.45-29.719-12.53 0-18.79 9.9063-18.79 29.719 0 19.927 6.26 29.89 18.79 29.89z" fill="#2f3842"/>
 <path d="m1187.2 130.5c-13.89 0-24.37-3.871-31.43-11.614s-10.59-19.813-10.59-36.21c0-16.169 3.7-28.125 11.1-35.868 7.41-7.8567 17.82-11.785 31.26-11.785s23.51 3.8715 30.23 11.614c6.83 7.6291 10.25 19.756 10.25 36.38v4.7824h-59.1c0.46 9.6786 2.17 16.625 5.13 20.838s7.34 6.319 13.15 6.319c4.55 0 8.14-1.252 10.76-3.757 2.73-2.505 4.38-6.092 4.95-10.761h24.08c-0.79 9.793-4.83 17.251-12.12 22.375s-16.51 7.686-27.67 7.686zm17.08-57.218c-0.57-8.1984-2.28-14.062-5.13-17.592-2.73-3.5299-6.71-5.2948-11.95-5.2948-5.13 0-9.22 1.8219-12.3 5.4656-3.07 3.6437-5.01 9.4509-5.81 17.422z" fill="#2f3842"/>
 <path d="m1242.9 51.078-0.34-14.006h24.25l0.34 13.322h0.52c1.36-4.213 3.92-7.7429 7.68-10.59 3.76-2.9605 8.48-4.4408 14.18-4.4408h5.12v21.692h-8.71c-12.52 0-18.79 8.5969-18.79 25.791v45.603h-24.25z" fill="#2f3842"/>
 <path d="m260.24 267v-54.99h-20.07v-9.27h51.48v9.27h-20.07v54.99zm48.721 1.08c-10.53 0-17.01-6.39-17.01-17.64v-31.59h10.8v30.06c0 7.2 3.33 11.07 9.54 11.07 7.29 0 12.06-5.58 12.06-14.04v-27.09h10.8v40.77l0.18 7.38h-10.71l-0.27-7.02h-0.27c-2.07 4.23-7.29 8.1-15.12 8.1zm38.464-1.08v-40.77l-0.18-7.38h10.8l0.18 7.74h0.27c1.17-4.05 5.67-8.64 13.23-8.64h2.61v9.36h-4.41c-7.56 0-11.7 5.31-11.7 14.67v25.02zm67.744-29.88c0-7.2-3.69-11.16-9.99-11.16-7.56 0-12.15 5.58-12.15 13.95v27.09h-10.8v-40.5l-0.18-7.65h10.71l0.27 7.02h0.27c2.07-4.14 7.56-8.1 15.12-8.1 10.62 0 17.55 6.48 17.55 17.82v31.41h-10.8zm64.418 30.96c-15.48 0-23.94-8.91-23.94-25.2s10.26-25.11 24.12-25.11c15.21 0 22.86 9.18 22.86 26.1v1.35h-36.36c0.63 9.99 5.22 15.3 13.5 15.3 5.76 0 10.17-2.79 11.43-8.46h10.62c-1.35 10.35-10.98 16.02-22.23 16.02zm-13.14-30.06h25.47c-0.9-8.46-5.04-12.87-12.33-12.87-7.2 0-11.88 4.5-13.14 12.87zm71.151 30.06c-7.29 0-12.51-3.69-14.31-7.74h-0.09l-0.36 6.66h-10.711l0.271-11.7v-52.56h10.8v21.87h0.09c2.52-3.51 8.28-6.84 14.94-6.84 11.79 0 21.87 8.1 21.87 25.11 0 15.93-9.72 25.2-22.5 25.2zm-1.89-8.01c8.46 0 13.59-6.93 13.59-17.19s-5.13-17.1-13.59-17.1c-8.55 0-13.41 6.84-13.41 17.1s4.86 17.19 13.41 17.19zm55.77 8.01c-15.03 0-24.21-9.45-24.21-25.2s9.18-25.11 24.21-25.11c14.94 0 24.03 9.36 24.03 25.11s-9.09 25.2-24.03 25.2zm0-7.83c8.73 0 13.23-6.66 13.23-17.37s-4.5-17.28-13.23-17.28-13.41 6.57-13.41 17.28 4.68 17.37 13.41 17.37zm55.459 7.83c-15.03 0-24.21-9.45-24.21-25.2s9.18-25.11 24.21-25.11c14.94 0 24.03 9.36 24.03 25.11s-9.09 25.2-24.03 25.2zm0-7.83c8.73 0 13.23-6.66 13.23-17.37s-4.5-17.28-13.23-17.28-13.41 6.57-13.41 17.28 4.68 17.37 13.41 17.37zm33.589 6.75v-64.26h10.8v37.71l19.89-21.6h12.69l-21.42 22.59 21.87 25.56h-13.32l-19.71-24.12v24.12zm67.392 1.08c-12.87 0-20.61-5.31-20.88-15.75h10.8c0.36 5.67 4.23 8.46 10.26 8.46 6.3 0 10.35-2.43 10.35-6.66 0-4.05-2.7-5.4-9-6.66l-4.41-0.9c-11.07-2.25-17.1-5.04-17.1-14.22 0-8.37 8.46-14.58 19.89-14.58 11.34 0 19.89 4.68 20.25 14.49h-10.8c-0.27-4.77-4.68-7.2-9.63-7.2-4.86 0-9.18 2.16-9.18 6.12 0 3.87 2.7 5.13 8.46 6.3l4.41 0.9c10.98 2.25 17.64 4.77 17.64 14.58 0 9-8.46 15.12-21.06 15.12zm51.003-1.08v-48.15h10.8v48.15zm-0.27-54.45v-9.81h11.34v9.81zm56.323 24.57c0-7.2-3.69-11.16-9.99-11.16-7.56 0-12.15 5.58-12.15 13.95v27.09h-10.8v-40.5l-0.18-7.65h10.71l0.27 7.02h0.27c2.07-4.14 7.56-8.1 15.12-8.1 10.62 0 17.55 6.48 17.55 17.82v31.41h-10.8zm37.652 29.88c-8.01 0-11.88-2.43-11.88-11.07v-29.16h-7.83v-7.92h7.83v-11.7h10.71v11.7h9.54v7.92h-9.54v28.26c0 2.88 0.99 4.23 3.69 4.23h5.4v7.74zm38.373 1.08c-15.03 0-24.21-9.45-24.21-25.2s9.18-25.11 24.21-25.11c14.94 0 24.03 9.36 24.03 25.11s-9.09 25.2-24.03 25.2zm0-7.83c8.73 0 13.23-6.66 13.23-17.37s-4.5-17.28-13.23-17.28-13.41 6.57-13.41 17.28 4.68 17.37 13.41 17.37zm73.321 7.83c-13.315 0-21.505-9.27-21.505-25.2 0-17.01 10.26-25.11 22.315-25.11 6.57 0 12.15 3.42 14.49 6.84h0.09l0.18-5.76h10.8l-0.18 10.26v26.19l0.27 11.7h-10.71l-0.36-6.66h-0.09c-1.89 4.14-7.92 7.74-15.3 7.74zm2.88-8.01c8.55 0 13.41-6.93 13.41-17.19s-4.86-17.1-13.41-17.1c-8.455 0-13.585 6.84-13.585 17.1s5.13 17.19 13.585 17.19zm52 8.01c-10.53 0-17.01-6.39-17.01-17.64v-31.59h10.8v30.06c0 7.2 3.33 11.07 9.54 11.07 7.29 0 12.06-5.58 12.06-14.04v-27.09h10.8v40.77l0.18 7.38h-10.71l-0.27-7.02h-0.27c-2.07 4.23-7.29 8.1-15.12 8.1zm57.63 0c-13.23 0-21.69-9.27-21.69-25.2 0-17.01 9.99-25.11 22.05-25.11 6.66 0 12.42 3.42 14.76 6.84h0.09v-21.87h10.8v52.56l0.27 11.7h-10.71l-0.36-6.66h-0.09c-1.89 4.14-7.65 7.74-15.12 7.74zm2.7-8.01c8.55 0 13.41-6.93 13.41-17.19s-4.86-17.1-13.41-17.1c-8.46 0-13.59 6.84-13.59 17.1s5.13 17.19 13.59 17.19zm35.7 6.93v-48.15h10.8v48.15zm-0.27-54.45v-9.81h11.34v9.81zm45.07 55.53c-15.03 0-24.21-9.45-24.21-25.2s9.18-25.11 24.21-25.11c14.94 0 24.03 9.36 24.03 25.11s-9.09 25.2-24.03 25.2zm0-7.83c8.73 0 13.23-6.66 13.23-17.37s-4.5-17.28-13.23-17.28-13.41 6.57-13.41 17.28 4.68 17.37 13.41 17.37z" fill="#2f3842"/>
</svg>
