<svg width="450" height="150" viewBox="0 0 450 150" fill="none" xmlns="http://www.w3.org/2000/svg">
<rect width="450" height="150" fill="#303030"/>
<path d="M128.719 69.7056C115.503 67.8785 117.202 75.7313 112.481 81.391C112.211 81.7197 111.893 81.9921 111.548 82.2244C113.418 76.3243 112.76 70.2476 112.586 67.8465C112.39 65.2075 111.515 63.6986 109.954 63.792C108.397 63.8855 109.175 68.2204 108.593 69.2915C108.004 70.3652 107.518 69.4491 107.132 66.9009C106.737 64.3555 105.182 63.8853 104.403 64.732C103.621 65.5815 104.403 68.3167 104.403 69.7297C104.403 71.1427 103.328 70.3866 102.453 68.2847C101.577 66.1825 100.506 65.6749 99.63 66.6205C98.7517 67.5606 101.967 72.2699 103.237 74.7218C104.168 76.5273 103.726 80.6831 103.428 82.7451C97.9563 81.415 91.7556 77.8093 88.7036 74.2995C93.6503 68.0495 96.3128 60.5896 95.0478 60.0207C93.7828 59.4571 92.7084 62.1893 91.9268 63.0734C91.1452 63.9601 90.369 63.888 91.0541 62.0049C91.7334 60.1165 91.3441 58.1402 89.883 57.857C88.4218 57.5739 88.7119 59.5532 88.3252 61.3428C87.9329 63.1376 86.864 63.8882 86.7673 62.4752C86.6707 61.0622 86.9609 58.2338 85.0136 58.4207C83.0637 58.6077 84.1766 68.1803 84.3287 68.3217L84.3562 68.3593C81.5114 65.5521 78.6915 64.9645 78.6915 64.9645C79.6332 54.5531 87.1873 53.2736 95.117 47.7956C97.0503 46.4601 98.9893 44.0135 100.144 42.0209C102.063 38.7196 101.682 34.9373 98.793 32.2904C96.092 29.817 92.2307 29.1707 88.6483 29.0185C81.8511 28.7327 74.1202 31.783 69.6376 36.751C64.9919 41.89 63.5502 49.9028 62.3929 56.4387C61.6969 60.3784 61.3461 64.4303 61.3185 68.4261C59.8712 70.5816 59.026 72.6783 58.6007 74.6869C57.3688 72.6783 54.1429 67.5608 53.0491 67.1842C51.6847 66.7142 50.9058 68.7866 51.9775 70.293C53.0491 71.7995 53.8279 73.784 53.1457 73.2152C52.4607 72.6515 50.1242 70.1998 48.6631 70.5816C47.202 70.9582 46.3209 72.1791 48.1742 73.1219C50.0275 74.0647 51.7814 75.2879 51.4886 75.9504C51.1958 76.6073 50.6103 76.0705 49.442 75.4909C48.2737 74.9113 46.1276 75.2346 46.1276 76.2522C46.1276 77.27 46.8098 78.1193 49.2458 78.8698C51.6847 79.6256 53.5352 80.4724 54.8029 82.7347C56.0707 84.9944 60.2938 87.2619 60.9594 87.2567C62.3597 89.6473 63.774 91.0653 63.774 91.0653C77.7247 105.192 91.5098 107.983 101.342 107.519C99.8427 109.49 97.1276 112.85 95.0533 114.207C92.0318 116.183 92.7139 117.316 93.8823 117.692C95.0533 118.074 97.2933 117.505 99.0473 115.526C100.804 113.55 102.362 113.167 101.975 114.02C101.58 114.864 98.2684 117.791 98.0751 119.012C97.8817 120.238 99.2406 121.464 100.511 120.425C101.779 119.391 103.825 116.472 105.09 114.487C106.361 112.511 106.858 113.83 106.17 115.433C105.483 117.035 103.723 118.635 103.826 120.331C103.919 122.033 106.452 121.087 107.913 118.729C109.283 116.522 112.396 111.744 112.805 105.326C114.542 104.711 115.509 104.209 115.509 104.209C136.837 96.3618 141.935 71.5326 128.719 69.7056Z" fill="white"/>
<path d="M118.493 69.4272C120.368 67.7259 123.276 66.8338 128.72 67.587C130.151 67.7846 131.35 68.2655 132.352 68.9493C135.763 66.2568 133.65 62.7818 131.88 62.3331C130.408 61.9565 130.314 60.8882 130.441 59.6142C130.908 54.9026 130.333 48.0327 123.594 49.4216C117.763 50.6262 117.838 56.051 119.457 60.549C120.017 62.1088 120.103 63.2468 118.918 64.5929C117.352 66.3744 117.973 68.3776 118.493 69.4272Z" fill="white"/>
<path d="M191.972 83V80.0679L215.616 43.905H191.847V40.4114H220.253V43.3435L196.588 79.5064H220.461V83H191.972ZM267.503 51.0585C267.267 48.6879 266.22 46.8025 264.363 45.4022C262.505 44.002 260.169 43.3019 257.355 43.3019C255.372 43.3019 253.625 43.6416 252.114 44.3209C250.617 45.0002 249.438 45.9429 248.579 47.149C247.733 48.3413 247.31 49.6999 247.31 51.2249C247.31 52.3478 247.553 53.3322 248.038 54.1778C248.523 55.0235 249.175 55.7513 249.993 56.3613C250.825 56.9575 251.74 57.4704 252.738 57.9002C253.75 58.3299 254.769 58.6904 255.795 58.9815L260.287 60.2708C261.645 60.6451 263.004 61.1234 264.363 61.7057C265.721 62.288 266.962 63.0227 268.085 63.91C269.222 64.7834 270.13 65.8578 270.809 67.1332C271.502 68.3948 271.849 69.9129 271.849 71.6874C271.849 73.961 271.26 76.0059 270.081 77.822C268.903 79.6381 267.211 81.0799 265.007 82.1474C262.803 83.201 260.162 83.7278 257.084 83.7278C254.187 83.7278 251.67 83.2495 249.536 82.293C247.401 81.3225 245.723 79.9847 244.503 78.2795C243.283 76.5743 242.597 74.5987 242.444 72.3528H246.437C246.576 74.0303 247.13 75.4513 248.101 76.6159C249.071 77.7804 250.333 78.6677 251.885 79.2777C253.438 79.8738 255.171 80.1718 257.084 80.1718C259.205 80.1718 261.091 79.8183 262.74 79.1113C264.404 78.3904 265.707 77.3922 266.65 76.1168C267.607 74.8275 268.085 73.3302 268.085 71.625C268.085 70.1832 267.711 68.9771 266.962 68.0066C266.213 67.0223 265.167 66.1975 263.822 65.532C262.491 64.8666 260.945 64.2774 259.184 63.7644L254.09 62.2672C250.749 61.269 248.156 59.8896 246.312 58.1289C244.468 56.3683 243.546 54.1224 243.546 51.3913C243.546 49.1038 244.156 47.0936 245.376 45.3607C246.61 43.6139 248.274 42.2552 250.367 41.2848C252.475 40.3005 254.838 39.8083 257.458 39.8083C260.106 39.8083 262.449 40.2935 264.487 41.264C266.525 42.2344 268.14 43.5723 269.333 45.2775C270.539 46.9688 271.183 48.8958 271.267 51.0585H267.503ZM295.792 83H291.716L307.208 40.4114H311.367L326.86 83H322.784L309.433 45.4646H309.142L295.792 83ZM298.724 66.6758H319.852V70.1693H298.724V66.6758Z" fill="white"/>
<path d="M200.823 103.773V117.839H199.573L191.262 106.06H191.152V117.839H189.868V103.773H191.111L199.449 115.566H199.559V103.773H200.823ZM208.574 118.059C207.589 118.059 206.737 117.83 206.019 117.372C205.3 116.91 204.743 116.271 204.35 115.456C203.96 114.636 203.766 113.693 203.766 112.626C203.766 111.564 203.96 110.621 204.35 109.796C204.743 108.968 205.286 108.32 205.977 107.853C206.673 107.381 207.477 107.145 208.388 107.145C208.96 107.145 209.512 107.251 210.043 107.461C210.574 107.667 211.051 107.986 211.472 108.416C211.898 108.842 212.234 109.38 212.482 110.03C212.729 110.676 212.852 111.44 212.852 112.324V112.928H204.611V111.85H211.602C211.602 111.172 211.465 110.563 211.19 110.023C210.92 109.478 210.542 109.048 210.057 108.732C209.576 108.416 209.02 108.258 208.388 108.258C207.72 108.258 207.131 108.437 206.623 108.794C206.115 109.151 205.716 109.622 205.428 110.209C205.144 110.795 205 111.436 204.995 112.132V112.777C204.995 113.615 205.139 114.348 205.428 114.975C205.721 115.598 206.135 116.081 206.671 116.424C207.207 116.768 207.841 116.939 208.574 116.939C209.073 116.939 209.51 116.862 209.885 116.706C210.265 116.55 210.584 116.342 210.84 116.081C211.101 115.815 211.298 115.525 211.431 115.209L212.591 115.586C212.431 116.03 212.168 116.44 211.802 116.816C211.44 117.191 210.987 117.493 210.442 117.722C209.901 117.947 209.279 118.059 208.574 118.059ZM216.019 107.29L218.738 111.788L221.458 107.29H222.88L219.487 112.564L222.88 117.839H221.458L218.738 113.485L216.019 117.839H214.604L217.955 112.564L214.604 107.29H216.019ZM229.599 107.29V108.354H224.564V107.29H229.599ZM226.137 104.762H227.366V115.085C227.366 115.525 227.442 115.87 227.593 116.122C227.744 116.369 227.941 116.546 228.184 116.651C228.426 116.752 228.685 116.802 228.96 116.802C229.12 116.802 229.258 116.793 229.372 116.775C229.486 116.752 229.587 116.729 229.674 116.706L229.935 117.812C229.816 117.857 229.67 117.899 229.496 117.935C229.322 117.976 229.106 117.997 228.85 117.997C228.401 117.997 227.969 117.899 227.552 117.702C227.14 117.505 226.801 117.212 226.535 116.823C226.27 116.433 226.137 115.95 226.137 115.373V104.762ZM237.691 111.232V112.386H231.839V111.232H237.691ZM244.786 122.015C244.067 122.015 243.437 121.921 242.897 121.733C242.357 121.55 241.901 121.298 241.53 120.978C241.159 120.657 240.871 120.298 240.665 119.9L241.668 119.24C241.819 119.506 242.02 119.767 242.272 120.023C242.529 120.28 242.86 120.492 243.268 120.662C243.68 120.831 244.186 120.916 244.786 120.916C245.72 120.916 246.473 120.682 247.045 120.215C247.622 119.748 247.911 119.023 247.911 118.038V115.662H247.801C247.659 115.982 247.455 116.303 247.19 116.623C246.924 116.939 246.576 117.203 246.146 117.413C245.72 117.624 245.191 117.729 244.559 117.729C243.717 117.729 242.968 117.521 242.313 117.104C241.663 116.688 241.15 116.092 240.775 115.318C240.404 114.54 240.219 113.613 240.219 112.537C240.219 111.47 240.399 110.531 240.761 109.721C241.127 108.91 241.638 108.279 242.293 107.825C242.947 107.372 243.71 107.145 244.58 107.145C245.225 107.145 245.761 107.26 246.187 107.489C246.613 107.713 246.954 107.992 247.21 108.327C247.471 108.661 247.675 108.986 247.822 109.302H247.945V107.29H249.14V118.114C249.14 119.007 248.95 119.742 248.57 120.318C248.19 120.895 247.673 121.321 247.018 121.596C246.363 121.875 245.619 122.015 244.786 122.015ZM244.703 116.61C245.381 116.61 245.96 116.447 246.441 116.122C246.922 115.792 247.29 115.321 247.547 114.707C247.803 114.094 247.931 113.363 247.931 112.516C247.931 111.692 247.806 110.962 247.554 110.325C247.302 109.684 246.936 109.181 246.455 108.814C245.979 108.443 245.395 108.258 244.703 108.258C243.998 108.258 243.403 108.448 242.918 108.828C242.432 109.208 242.066 109.721 241.819 110.367C241.572 111.008 241.448 111.724 241.448 112.516C241.448 113.322 241.574 114.034 241.826 114.652C242.077 115.266 242.446 115.747 242.931 116.095C243.417 116.438 244.007 116.61 244.703 116.61ZM256.642 118.059C255.658 118.059 254.806 117.83 254.087 117.372C253.368 116.91 252.812 116.271 252.418 115.456C252.029 114.636 251.834 113.693 251.834 112.626C251.834 111.564 252.029 110.621 252.418 109.796C252.812 108.968 253.354 108.32 254.046 107.853C254.742 107.381 255.545 107.145 256.457 107.145C257.029 107.145 257.581 107.251 258.112 107.461C258.643 107.667 259.119 107.986 259.54 108.416C259.966 108.842 260.303 109.38 260.55 110.03C260.797 110.676 260.921 111.44 260.921 112.324V112.928H252.679V111.85H259.671C259.671 111.172 259.533 110.563 259.259 110.023C258.989 109.478 258.611 109.048 258.125 108.732C257.645 108.416 257.088 108.258 256.457 108.258C255.788 108.258 255.2 108.437 254.691 108.794C254.183 109.151 253.785 109.622 253.496 110.209C253.212 110.795 253.068 111.436 253.064 112.132V112.777C253.064 113.615 253.208 114.348 253.496 114.975C253.789 115.598 254.204 116.081 254.739 116.424C255.275 116.768 255.909 116.939 256.642 116.939C257.141 116.939 257.578 116.862 257.954 116.706C258.334 116.55 258.652 116.342 258.908 116.081C259.169 115.815 259.366 115.525 259.499 115.209L260.66 115.586C260.5 116.03 260.236 116.44 259.87 116.816C259.508 117.191 259.055 117.493 258.51 117.722C257.97 117.947 257.347 118.059 256.642 118.059ZM264.837 111.246V117.839H263.615V107.29H264.803V108.945H264.913C265.16 108.405 265.545 107.972 266.067 107.647C266.593 107.317 267.244 107.152 268.017 107.152C268.727 107.152 269.35 107.301 269.885 107.599C270.426 107.892 270.845 108.324 271.142 108.897C271.445 109.469 271.596 110.172 271.596 111.005V117.839H270.373V111.081C270.373 110.215 270.13 109.531 269.645 109.027C269.164 108.524 268.519 108.272 267.708 108.272C267.154 108.272 266.662 108.391 266.232 108.629C265.801 108.867 265.46 109.21 265.208 109.659C264.961 110.103 264.837 110.632 264.837 111.246ZM284.52 118.059C283.535 118.059 282.684 117.83 281.965 117.372C281.246 116.91 280.69 116.271 280.296 115.456C279.907 114.636 279.712 113.693 279.712 112.626C279.712 111.564 279.907 110.621 280.296 109.796C280.69 108.968 281.232 108.32 281.924 107.853C282.62 107.381 283.423 107.145 284.334 107.145C284.907 107.145 285.458 107.251 285.99 107.461C286.521 107.667 286.997 107.986 287.418 108.416C287.844 108.842 288.181 109.38 288.428 110.03C288.675 110.676 288.799 111.44 288.799 112.324V112.928H280.557V111.85H287.549C287.549 111.172 287.411 110.563 287.137 110.023C286.866 109.478 286.489 109.048 286.003 108.732C285.523 108.416 284.966 108.258 284.334 108.258C283.666 108.258 283.077 108.437 282.569 108.794C282.061 109.151 281.663 109.622 281.374 110.209C281.09 110.795 280.946 111.436 280.941 112.132V112.777C280.941 113.615 281.086 114.348 281.374 114.975C281.667 115.598 282.082 116.081 282.617 116.424C283.153 116.768 283.787 116.939 284.52 116.939C285.019 116.939 285.456 116.862 285.832 116.706C286.212 116.55 286.53 116.342 286.786 116.081C287.047 115.815 287.244 115.525 287.377 115.209L288.538 115.586C288.377 116.03 288.114 116.44 287.748 116.816C287.386 117.191 286.933 117.493 286.388 117.722C285.848 117.947 285.225 118.059 284.52 118.059ZM291.493 117.839V107.29H292.681V108.91H292.77C292.981 108.379 293.347 107.951 293.869 107.626C294.396 107.296 294.991 107.132 295.655 107.132C295.755 107.132 295.868 107.134 295.991 107.139C296.115 107.143 296.218 107.148 296.3 107.152V108.395C296.245 108.386 296.149 108.372 296.012 108.354C295.875 108.336 295.726 108.327 295.565 108.327C295.016 108.327 294.526 108.443 294.096 108.677C293.67 108.906 293.333 109.224 293.086 109.632C292.839 110.039 292.715 110.504 292.715 111.026V117.839H291.493ZM302.09 122.015C301.371 122.015 300.742 121.921 300.201 121.733C299.661 121.55 299.206 121.298 298.835 120.978C298.464 120.657 298.175 120.298 297.969 119.9L298.972 119.24C299.123 119.506 299.325 119.767 299.576 120.023C299.833 120.28 300.165 120.492 300.572 120.662C300.984 120.831 301.49 120.916 302.09 120.916C303.024 120.916 303.777 120.682 304.35 120.215C304.927 119.748 305.215 119.023 305.215 118.038V115.662H305.105C304.963 115.982 304.76 116.303 304.494 116.623C304.228 116.939 303.881 117.203 303.45 117.413C303.024 117.624 302.495 117.729 301.864 117.729C301.021 117.729 300.272 117.521 299.618 117.104C298.967 116.688 298.455 116.092 298.079 115.318C297.708 114.54 297.523 113.613 297.523 112.537C297.523 111.47 297.704 110.531 298.065 109.721C298.432 108.91 298.942 108.279 299.597 107.825C300.252 107.372 301.014 107.145 301.884 107.145C302.53 107.145 303.065 107.26 303.491 107.489C303.917 107.713 304.258 107.992 304.515 108.327C304.776 108.661 304.979 108.986 305.126 109.302H305.25V107.29H306.445V118.114C306.445 119.007 306.255 119.742 305.875 120.318C305.495 120.895 304.977 121.321 304.322 121.596C303.668 121.875 302.924 122.015 302.09 122.015ZM302.008 116.61C302.685 116.61 303.265 116.447 303.745 116.122C304.226 115.792 304.595 115.321 304.851 114.707C305.108 114.094 305.236 113.363 305.236 112.516C305.236 111.692 305.11 110.962 304.858 110.325C304.606 109.684 304.24 109.181 303.759 108.814C303.283 108.443 302.699 108.258 302.008 108.258C301.303 108.258 300.707 108.448 300.222 108.828C299.737 109.208 299.37 109.721 299.123 110.367C298.876 111.008 298.752 111.724 298.752 112.516C298.752 113.322 298.878 114.034 299.13 114.652C299.382 115.266 299.75 115.747 300.236 116.095C300.721 116.438 301.312 116.61 302.008 116.61ZM313.782 118.059C312.87 118.059 312.064 117.828 311.364 117.365C310.668 116.903 310.123 116.264 309.729 115.449C309.336 114.629 309.139 113.684 309.139 112.612C309.139 111.532 309.336 110.582 309.729 109.762C310.123 108.938 310.668 108.297 311.364 107.839C312.064 107.377 312.87 107.145 313.782 107.145C314.693 107.145 315.496 107.377 316.192 107.839C316.888 108.302 317.433 108.943 317.827 109.762C318.225 110.582 318.424 111.532 318.424 112.612C318.424 113.684 318.227 114.629 317.834 115.449C317.44 116.264 316.893 116.903 316.192 117.365C315.496 117.828 314.693 118.059 313.782 118.059ZM313.782 116.939C314.514 116.939 315.135 116.742 315.643 116.349C316.151 115.955 316.536 115.431 316.797 114.776C317.062 114.121 317.195 113.4 317.195 112.612C317.195 111.825 317.062 111.101 316.797 110.442C316.536 109.783 316.151 109.254 315.643 108.856C315.135 108.457 314.514 108.258 313.782 108.258C313.053 108.258 312.433 108.457 311.92 108.856C311.412 109.254 311.025 109.783 310.76 110.442C310.499 111.101 310.368 111.825 310.368 112.612C310.368 113.4 310.499 114.121 310.76 114.776C311.025 115.431 311.412 115.955 311.92 116.349C312.428 116.742 313.049 116.939 313.782 116.939ZM322.331 111.246V117.839H321.108V107.29H322.296V108.945H322.406C322.653 108.405 323.038 107.972 323.56 107.647C324.087 107.317 324.737 107.152 325.511 107.152C326.22 107.152 326.843 107.301 327.379 107.599C327.919 107.892 328.338 108.324 328.636 108.897C328.938 109.469 329.089 110.172 329.089 111.005V117.839H327.866V111.081C327.866 110.215 327.624 109.531 327.138 109.027C326.658 108.524 326.012 108.272 325.202 108.272C324.647 108.272 324.155 108.391 323.725 108.629C323.294 108.867 322.953 109.21 322.702 109.659C322.454 110.103 322.331 110.632 322.331 111.246ZM336.409 118.059C335.497 118.059 334.692 117.828 333.991 117.365C333.295 116.903 332.75 116.264 332.356 115.449C331.963 114.629 331.766 113.684 331.766 112.612C331.766 111.532 331.963 110.582 332.356 109.762C332.75 108.938 333.295 108.297 333.991 107.839C334.692 107.377 335.497 107.145 336.409 107.145C337.32 107.145 338.123 107.377 338.819 107.839C339.515 108.302 340.06 108.943 340.454 109.762C340.852 110.582 341.051 111.532 341.051 112.612C341.051 113.684 340.855 114.629 340.461 115.449C340.067 116.264 339.52 116.903 338.819 117.365C338.123 117.828 337.32 118.059 336.409 118.059ZM336.409 116.939C337.141 116.939 337.762 116.742 338.27 116.349C338.778 115.955 339.163 115.431 339.424 114.776C339.689 114.121 339.822 113.4 339.822 112.612C339.822 111.825 339.689 111.101 339.424 110.442C339.163 109.783 338.778 109.254 338.27 108.856C337.762 108.457 337.141 108.258 336.409 108.258C335.681 108.258 335.06 108.457 334.547 108.856C334.039 109.254 333.652 109.783 333.387 110.442C333.126 111.101 332.995 111.825 332.995 112.612C332.995 113.4 333.126 114.121 333.387 114.776C333.652 115.431 334.039 115.955 334.547 116.349C335.056 116.742 335.676 116.939 336.409 116.939ZM343.735 117.839V107.29H344.923V108.91H345.033C345.244 108.366 345.594 107.938 346.084 107.626C346.579 107.31 347.172 107.152 347.863 107.152C348.591 107.152 349.189 107.324 349.656 107.667C350.127 108.006 350.48 108.473 350.713 109.068H350.803C351.041 108.482 351.428 108.018 351.963 107.674C352.504 107.326 353.158 107.152 353.928 107.152C354.907 107.152 355.681 107.461 356.249 108.079C356.817 108.693 357.101 109.59 357.101 110.772V117.839H355.878V110.772C355.878 109.938 355.665 109.313 355.239 108.897C354.814 108.48 354.253 108.272 353.557 108.272C352.751 108.272 352.13 108.519 351.695 109.014C351.26 109.508 351.043 110.135 351.043 110.895V117.839H349.793V110.662C349.793 109.948 349.594 109.371 349.195 108.931C348.797 108.492 348.236 108.272 347.513 108.272C347.027 108.272 346.59 108.391 346.201 108.629C345.816 108.867 345.512 109.199 345.287 109.625C345.068 110.046 344.958 110.531 344.958 111.081V117.839H343.735ZM360.351 117.839V107.29H361.58V117.839H360.351ZM360.976 105.476C360.724 105.476 360.509 105.392 360.33 105.222C360.152 105.048 360.063 104.84 360.063 104.597C360.063 104.355 360.152 104.149 360.33 103.979C360.509 103.805 360.724 103.718 360.976 103.718C361.228 103.718 361.443 103.805 361.622 103.979C361.8 104.149 361.889 104.355 361.889 104.597C361.889 104.84 361.8 105.048 361.622 105.222C361.443 105.392 361.228 105.476 360.976 105.476ZM368.934 118.059C367.991 118.059 367.169 117.823 366.469 117.351C365.773 116.88 365.233 116.234 364.848 115.415C364.463 114.595 364.271 113.661 364.271 112.612C364.271 111.555 364.466 110.614 364.855 109.79C365.249 108.965 365.793 108.32 366.489 107.853C367.185 107.381 367.994 107.145 368.914 107.145C369.619 107.145 370.258 107.283 370.83 107.557C371.402 107.828 371.874 108.21 372.245 108.704C372.62 109.194 372.856 109.767 372.952 110.421H371.716C371.588 109.826 371.279 109.318 370.789 108.897C370.303 108.471 369.685 108.258 368.934 108.258C368.261 108.258 367.666 108.441 367.149 108.807C366.631 109.169 366.226 109.675 365.933 110.325C365.645 110.971 365.5 111.72 365.5 112.571C365.5 113.427 365.642 114.185 365.926 114.845C366.21 115.499 366.608 116.012 367.121 116.383C367.639 116.754 368.243 116.939 368.934 116.939C369.401 116.939 369.827 116.852 370.212 116.678C370.601 116.5 370.926 116.248 371.187 115.923C371.453 115.598 371.631 115.211 371.723 114.762H372.959C372.868 115.399 372.641 115.966 372.279 116.465C371.922 116.96 371.457 117.349 370.885 117.633C370.317 117.917 369.667 118.059 368.934 118.059ZM382.667 109.604L381.548 109.92C381.438 109.604 381.282 109.318 381.081 109.062C380.879 108.805 380.616 108.601 380.291 108.45C379.97 108.299 379.572 108.224 379.096 108.224C378.382 108.224 377.795 108.393 377.338 108.732C376.88 109.071 376.651 109.508 376.651 110.044C376.651 110.497 376.806 110.866 377.118 111.15C377.434 111.429 377.919 111.651 378.574 111.816L380.167 112.207C381.051 112.422 381.713 112.764 382.152 113.231C382.596 113.698 382.818 114.284 382.818 114.989C382.818 115.584 382.654 116.113 382.324 116.575C381.994 117.038 381.534 117.402 380.943 117.667C380.357 117.928 379.677 118.059 378.904 118.059C377.873 118.059 377.024 117.828 376.355 117.365C375.687 116.898 375.259 116.225 375.071 115.346L376.246 115.057C376.397 115.685 376.692 116.159 377.132 116.479C377.576 116.8 378.16 116.96 378.883 116.96C379.693 116.96 380.341 116.779 380.827 116.417C381.312 116.051 381.555 115.593 381.555 115.044C381.555 114.618 381.413 114.261 381.129 113.972C380.845 113.679 380.415 113.464 379.838 113.327L378.114 112.915C377.198 112.695 376.52 112.347 376.081 111.871C375.641 111.394 375.421 110.804 375.421 110.099C375.421 109.517 375.579 109.007 375.895 108.567C376.211 108.123 376.646 107.775 377.2 107.523C377.754 107.271 378.386 107.145 379.096 107.145C380.062 107.145 380.834 107.365 381.41 107.805C381.992 108.24 382.411 108.84 382.667 109.604Z" fill="white"/>
</svg>
